<?xml version="1.0" standalone="no"?>
<!DOCTYPE svg PUBLIC "-//W3C//DTD SVG 1.1//EN" "http://www.w3.org/Graphics/SVG/1.1/DTD/svg11.dtd" >
<svg xmlns="http://www.w3.org/2000/svg" xmlns:xlink="http://www.w3.org/1999/xlink" version="1.1">
<metadata></metadata>
<defs>
<font id="corehumanistsansregular" horiz-adv-x="1231" >
<font-face units-per-em="2048" ascent="1235" descent="-813" />
<missing-glyph horiz-adv-x="480" />
<glyph unicode="&#xfb03;" horiz-adv-x="1752" d="M59 715q0 29 20.5 49.5t49.5 20.5h108l-1 167q-1 164 100.5 265t265.5 101q102 0 150 -16q31 -8 46 -35.5t7 -58.5q-8 -30 -35.5 -45.5t-57.5 -7.5q-1 1 -12.5 3t-39 4.5t-58.5 2.5q-101 0 -157 -56t-56 -157v-167h481v200q0 77 21 136.5t57 98t88 63t109.5 34.5 t126.5 10q48 0 114 -9.5t104 -17.5t46 -11q31 -8 47 -34.5t9 -57.5t-34 -47.5t-58 -8.5l-8 2q-8 2 -22 4.5t-31.5 6.5t-39 7.5t-42.5 6t-43.5 4.5t-40.5 2q-45 0 -78 -3t-67.5 -14.5t-56 -31.5t-35.5 -55t-14 -84v-201h489q31 0 53.5 -22.5t22.5 -53.5l1 -700 q0 -31 -22.5 -53.5t-54.5 -22.5q-31 0 -53.5 22.5t-22.5 53.5v636h-413l1 -635q0 -32 -22.5 -54t-53.5 -22q-32 0 -54.5 22t-22.5 54v635h-481l1 -635q0 -32 -22 -54.5t-54 -22.5t-54.5 22t-22.5 54v636h-108q-29 0 -49.5 20.5t-20.5 49.5z" />
<glyph unicode="&#xfb04;" horiz-adv-x="1857" d="M59 715q0 29 20.5 49.5t49.5 20.5h108l-1 167q-1 164 100.5 265t265.5 101q102 0 150 -16q31 -8 46 -35.5t7 -58.5q-8 -30 -35.5 -45.5t-57.5 -7.5q-1 1 -12.5 3t-39 4.5t-58.5 2.5q-101 0 -157 -56t-56 -157v-167h498v200q0 79 26 139.5t68 98.5t101.5 62t121 33 t132.5 9q106 0 254 -38q25 -7 41 -27.5t16 -46.5v-1205q0 -31 -22.5 -53.5t-54.5 -22.5t-54 22t-22 54v1144q-100 20 -158 20q-47 0 -84.5 -3t-79 -14.5t-69 -31t-46 -55t-18.5 -84.5v-201h200q29 0 49.5 -20.5t20.5 -49.5t-20.5 -49.5t-49.5 -20.5h-200l1 -635 q0 -32 -22 -54t-54 -22t-54.5 22.5t-22.5 53.5v635h-498l1 -635q0 -32 -22 -54.5t-54 -22.5t-54.5 22t-22.5 54v636h-108q-29 0 -49.5 20.5t-20.5 49.5z" />
<glyph horiz-adv-x="0" />
<glyph horiz-adv-x="682" />
<glyph unicode="&#x9;" horiz-adv-x="0" />
<glyph unicode="&#xa;" horiz-adv-x="7620" />
<glyph horiz-adv-x="0" />
<glyph horiz-adv-x="0" />
<glyph unicode=" "  horiz-adv-x="480" />
<glyph unicode="&#x09;" horiz-adv-x="480" />
<glyph unicode="&#xa0;" horiz-adv-x="480" />
<glyph unicode="!" horiz-adv-x="545" d="M159.5 -1.5q-3.5 38.5 21.5 67.5l46 54q25 29 63.5 32t67.5 -22t32.5 -63.5t-21.5 -67.5l-46 -54q-25 -29 -63.5 -32t-67.5 22t-32.5 63.5zM199 511v723q0 32 22.5 54t53.5 22t53.5 -22t22.5 -54v-723q0 -32 -22.5 -54.5t-53.5 -22.5t-53.5 22.5t-22.5 54.5z" />
<glyph unicode="&#x22;" horiz-adv-x="878" d="M133 776l35 471q2 31 26 52t56 19q31 -2 51.5 -26t18.5 -56l-35 -471q-2 -31 -26 -52t-56 -19q-31 2 -51.5 26t-18.5 56zM561 776l35 471q2 31 26 52t56 19q31 -2 51.5 -26t18.5 -56l-34 -471q-2 -31 -26.5 -52t-56.5 -19q-31 2 -51.5 26t-18.5 56z" />
<glyph unicode="#" horiz-adv-x="1336" d="M103 373q0 23 16.5 40t39.5 17h232l48 456h-219q-23 0 -40 17t-17 40t17 40t40 17h231l27 254q2 23 20.5 37.5t42.5 12.5q23 -2 37.5 -21t12.5 -42l-26 -241h278l27 254q2 22 21 37t42 13t38 -21t13 -42l-26 -241h219q23 0 40 -17t17 -40t-17 -40t-40 -17h-232l-48 -456 h219q23 0 40 -17t17 -40t-17 -40t-40 -17h-231l-27 -254q-2 -23 -20.5 -37.5t-42.5 -12.5q-23 2 -37.5 21t-12.5 42l26 241h-278l-27 -254q-2 -22 -21 -37t-42 -13t-38 21t-13 42l26 241h-219q-23 0 -39.5 17t-16.5 40zM504 430h278l49 456h-277z" />
<glyph unicode="$" horiz-adv-x="990" d="M91 768q0 99 49.5 174t123.5 113t165 50l1 235q0 32 22 54t54 22t54 -22t22 -54v-234q147 -10 229 -37q29 -10 43.5 -38.5t4.5 -57.5q-10 -30 -39 -44.5t-58 -4.5q-46 16 -125 24.5t-141 8.5q-16 0 -37 -1.5t-62.5 -12t-73 -29t-56 -56.5t-24.5 -90q0 -73 26 -104.5 t100 -57.5l293 -105q50 -18 85.5 -38.5t70 -55t52.5 -88t18 -124.5q0 -137 -87 -222t-219 -110v-237q0 -32 -22 -54t-54 -22t-54.5 22t-22.5 54l1 230q-131 5 -229 38q-30 10 -44 38.5t-4 58.5t38 44t58 4q96 -32 234 -32q13 0 28.5 1.5t48 6.5t60.5 17.5t55.5 32t44 53.5 t16.5 77q0 73 -26.5 104.5t-99.5 57.5l-293 105q-39 14 -69 29t-61 40t-51 56t-32.5 77.5t-12.5 103.5z" />
<glyph unicode="%" horiz-adv-x="1743" d="M83 807q0 115 82 197t198 82t198 -82t82 -197t-82.5 -197.5t-197.5 -82.5t-197.5 82.5t-82.5 197.5zM216 807q0 -61 43 -103.5t104 -42.5q60 0 103 42.5t43 103.5t-43 103.5t-103 42.5q-61 0 -104 -42.5t-43 -103.5zM390.5 -176q-6.5 30 9.5 55l830 1335q16 25 45.5 32 t54.5 -9q26 -16 33 -45t-9 -55l-830 -1335q-16 -26 -46 -33t-55 9q-26 16 -32.5 46zM1104 211q0 116 82 198t197 82t197.5 -82.5t82.5 -197.5t-82 -197t-198 -82q-115 0 -197 82t-82 197zM1236 211q0 -61 43 -103t104 -42q60 0 103 42.5t43 102.5q0 61 -43 104t-103 43 q-61 0 -104 -43t-43 -104z" />
<glyph unicode="&#x26;" horiz-adv-x="1360" d="M135 313q0 226 258 369q-79 91 -110 157.5t-31 148.5q0 149 96.5 243t249.5 94q73 0 140 -22t111 -60q22 -19 24.5 -49t-16.5 -52q-20 -23 -49.5 -25t-52.5 17q-22 20 -64 33.5t-93 13.5q-93 0 -147.5 -52t-54.5 -141q0 -62 33.5 -118.5t151.5 -177.5l353 -360l274 262 q21 20 51 20t51 -22q20 -21 19.5 -51t-21.5 -50q-148 -143 -273 -262l169 -174q20 -21 20 -50.5t-21 -49.5t-51 -20t-51 21l-172 174l-126 -113q-54 -49 -126 -73.5t-141 -24.5q-172 0 -286.5 113t-114.5 281zM279 313q0 -109 72.5 -180t184.5 -71q42 0 92.5 18.5t88.5 52.5 q56 47 112 100l-334 342q-47 -26 -78 -47.5t-66.5 -54t-53.5 -73t-18 -87.5z" />
<glyph unicode="'" horiz-adv-x="449" d="M133 776l35 471q2 31 26 52t56 19q31 -2 51.5 -26t18.5 -56l-35 -471q-2 -31 -26 -52t-56 -19q-31 2 -51.5 26t-18.5 56z" />
<glyph unicode="(" horiz-adv-x="614" d="M112 429q0 397 295 713q20 21 49.5 22t51.5 -19t22.5 -49.5t-19.5 -51.5q-126 -134 -191.5 -291t-65.5 -324q0 -337 252 -610q20 -22 19 -51t-23 -49q-23 -21 -51 -20t-49 23q-290 318 -290 707z" />
<glyph unicode=")" horiz-adv-x="614" d="M83.5 1095.5q0.5 29.5 22.5 49.5t51.5 19.5t49.5 -22.5q295 -316 295 -713q0 -390 -289 -707q-21 -22 -49.5 -22.5t-51.5 19.5q-22 19 -22.5 48.5t19.5 51.5q251 271 251 610q0 166 -66 323.5t-191 291.5q-20 22 -19.5 51.5z" />
<glyph unicode="*" horiz-adv-x="1386" d="M92 889q10 30 38 45t58 5l428 -138v440q0 32 22.5 54.5t53.5 22.5t53.5 -22.5t22.5 -54.5v-442l431 138q30 10 58 -4.5t38 -44.5t-5 -58t-45 -38l-429 -138l264 -359q19 -25 14 -56t-30 -50q-25 -18 -57 -14t-50 30l-263 359l-264 -359q-19 -26 -50 -30.5t-56 14.5 q-26 19 -31 50t14 57l265 359l-431 138q-30 10 -44.5 38t-4.5 58z" />
<glyph unicode="+" horiz-adv-x="1042" d="M87 429q0 31 22.5 53.5t53.5 22.5h282v343q0 32 22.5 54t53.5 22q32 0 54.5 -22.5t22.5 -53.5v-343h282q32 0 54 -22.5t22 -53.5q0 -32 -22.5 -54.5t-53.5 -22.5h-282v-342q0 -32 -23 -54.5t-54 -22.5t-53.5 22.5t-22.5 54.5v342h-282q-31 0 -53.5 22.5t-22.5 54.5z" />
<glyph unicode="," horiz-adv-x="508" d="M71.5 -260.5q5.5 31.5 31.5 49.5q58 41 97.5 99.5t39.5 95.5q0 27 -54 39q-31 6 -48 32.5t-11 57.5t32.5 48.5t57.5 11.5q78 -17 126.5 -65t48.5 -123q0 -83 -59 -172.5t-142 -147.5q-25 -18 -56.5 -12.5t-50.5 30.5q-18 25 -12.5 56.5z" />
<glyph unicode="-" horiz-adv-x="915" d="M147 429q0 32 22 54t54 22h467q32 0 54.5 -22.5t22.5 -53.5t-22.5 -54t-54.5 -23h-467q-32 0 -54 22.5t-22 54.5z" />
<glyph unicode="." horiz-adv-x="477" d="M119 4.5q-3 38.5 22 67.5l46 54q25 29 63.5 32t67.5 -22t32.5 -63.5t-21.5 -67.5l-46 -53q-26 -29 -64 -32.5t-67 21.5q-30 25 -33 63.5z" />
<glyph unicode="/" horiz-adv-x="910" d="M72.5 -196q-11.5 30 1.5 58l622 1380q13 28 43 39.5t58 -1.5t39.5 -43t-1.5 -58l-622 -1380q-13 -28 -43 -39.5t-58 1.5t-39.5 43z" />
<glyph unicode="0" horiz-adv-x="1115" d="M137 351v243q0 178 123 304t297 126t297.5 -126t123.5 -304v-243q0 -178 -123.5 -304t-297.5 -126t-297 126t-123 304zM289 351q0 -115 79 -196.5t189 -81.5q111 0 189.5 81.5t78.5 196.5v243q0 115 -78.5 196.5t-189.5 81.5q-110 0 -189 -81.5t-79 -196.5v-243z" />
<glyph unicode="1" horiz-adv-x="930" d="M116 871q-5 31 13.5 56.5t49.5 30.5l311 49q35 5 61.5 -17.5t26.5 -57.5v-846h212q32 0 54 -22t22 -54t-22 -54t-54 -22h-584q-32 0 -54 22t-22 54t22 54t54 22h220v757l-223 -35q-31 -5 -56.5 13t-30.5 50z" />
<glyph unicode="2" horiz-adv-x="1023" d="M136 882q-10 30 5 58t45 38q51 16 146.5 31.5t165.5 15.5q178 0 284.5 -89t106.5 -238q0 -38 -5.5 -70t-18.5 -57.5t-26 -45t-37 -37t-41 -29t-48.5 -24.5t-50 -19.5t-54.5 -18.5q-114 -39 -163 -62q-54 -24 -88 -65t-47 -83.5t-17 -99.5h520q32 0 54.5 -22.5t22.5 -53.5 t-23 -54t-54 -23h-598q-31 0 -54 23t-23 54q0 35 0.5 56.5t5 65t13.5 75t27 74t43 74t65 64t90 54.5q61 27 177 67q116 39 147 65.5t31 91.5q0 45 -18.5 78.5t-44.5 51.5t-61.5 28.5t-61.5 13.5t-53 3q-59 -1 -143 -14.5t-123 -25.5q-30 -10 -58 4.5t-38 44.5z" />
<glyph unicode="3" horiz-adv-x="1014" d="M110 909q-5 31 13.5 57t49.5 31q168 28 260 28q94 0 170 -23t125 -60t82.5 -87t47.5 -102t14 -107q0 -89 -37 -167.5t-106 -129.5q78 -53 118.5 -134t40.5 -171q0 -94 -37.5 -168t-102 -119t-145 -68t-171.5 -23q-45 0 -105.5 7.5t-96.5 14t-42 8.5q-31 6 -48 32.5 t-10 57.5q6 31 32.5 48.5t57.5 10.5l8 -1q7 -2 19.5 -4.5t29 -5t36.5 -5.5t40 -5.5t41 -4t38 -1.5q59 0 110 11.5t96 36.5t71 70.5t26 106.5q0 94 -69.5 161t-214.5 67h-140q-32 0 -54 22.5t-22 54.5t22.5 54t53.5 22h156q112 0 182.5 56.5t69.5 165.5q0 25 -4.5 50 t-22 58.5t-47 58t-84.5 42t-128 17.5q-37 0 -95.5 -6.5t-98.5 -12.5t-41 -7q-31 -5 -57 13t-31 50z" />
<glyph unicode="4" horiz-adv-x="1152" d="M72 91l465 877q15 28 45 37t58 -6t37.5 -45t-5.5 -58l-406 -764h458v269q0 31 22 53.5t54 22.5t54 -22.5t22 -53.5v-269h144q32 0 54 -22t22 -54t-22 -54.5t-54 -22.5h-144v-236q0 -32 -22.5 -54.5t-53.5 -22.5t-53.5 22.5t-22.5 54.5v236h-585q-43 0 -65 37t-2 75z" />
<glyph unicode="5" horiz-adv-x="972" d="M127 456l33 481q2 30 24 50.5t52 20.5h510q32 0 54 -22t22 -54t-22 -54.5t-54 -22.5h-438l-24 -342l160 -32q53 -11 92.5 -21t85.5 -26.5t78.5 -36.5t64.5 -50.5t51.5 -67.5t31.5 -88.5t12 -113.5q0 -187 -137 -299t-367 -112h-129q-32 0 -54.5 22t-22.5 54t23 54.5 t54 22.5h129q34 0 69.5 3.5t89 18.5t93.5 41t69.5 76.5t29.5 118.5q0 64 -13.5 104.5t-50 69.5t-88 45.5t-140.5 34.5l-227 45q-28 5 -45.5 28.5t-15.5 51.5z" />
<glyph unicode="6" horiz-adv-x="1101" d="M132 425q0 288 142 506t405 333q29 13 58.5 1.5t42.5 -40.5q13 -28 1.5 -57.5t-40.5 -42.5q-316 -140 -414 -433q126 44 250 44q185 0 306 -111t121 -295t-118.5 -297.5t-302.5 -113.5q-108 0 -195 40t-142.5 110t-84.5 161t-29 195zM285 425q0 -73 16.5 -135t51 -112 t93.5 -78.5t137 -28.5q122 0 195 69t74 191q1 119 -76 186t-198 67q-141 0 -289 -74q-4 -56 -4 -85z" />
<glyph unicode="7" horiz-adv-x="975" d="M55 932q0 32 22.5 54t53.5 22h717q41 0 64 -34t7 -72l-510 -1188q-13 -30 -42 -41.5t-58 1.5t-41 42t1 58l464 1082h-602q-31 0 -53.5 22t-22.5 54z" />
<glyph unicode="8" horiz-adv-x="1133" d="M152 290q0 111 63.5 186t175.5 134q-111 62 -175 141.5t-64 196.5q0 169 113.5 270t303.5 101q188 0 300 -101t112 -270q0 -117 -64 -196.5t-175 -141.5q112 -59 175.5 -134t63.5 -186q0 -169 -113.5 -270t-303.5 -101q-187 0 -299.5 101t-112.5 270zM305 290 q0 -54 18 -95t44.5 -64t63.5 -37t68 -18t65 -4q30 0 59 3.5t68 17t67.5 35.5t49 64t20.5 98q0 73 -61 122.5t-201 113.5q-139 -64 -200 -113.5t-61 -122.5zM305 948q0 -83 63 -137.5t199 -116.5q67 31 109 54.5t80 54.5t55 66.5t17 78.5q0 54 -18 95.5t-44.5 64t-63.5 36.5 t-68 18.5t-65 4.5q-29 0 -58 -3.5t-68.5 -17t-68 -36t-49 -64.5t-20.5 -98z" />
<glyph unicode="9" horiz-adv-x="1074" d="M88 614q0 183 118.5 297t302.5 114q108 0 195 -40t142.5 -110t84.5 -161t29 -195q0 -288 -142 -506t-405 -333q-29 -13 -58.5 -1.5t-42.5 40.5q-13 28 -1.5 57.5t40.5 42.5q316 140 414 433q-126 -44 -250 -44q-186 0 -306.5 111t-120.5 295zM240 613q-1 -119 76 -186 t198 -67q141 0 289 74q4 56 4 85q0 73 -16.5 135t-51 112t-93.5 78.5t-137 28.5q-123 0 -195.5 -69t-73.5 -191z" />
<glyph unicode=":" horiz-adv-x="527" d="M148.5 0.5q-3.5 38.5 21.5 67.5l46 54q25 29 63.5 32t67.5 -22t32.5 -63.5t-21.5 -67.5l-46 -53q-25 -29 -63 -32.5t-68 21.5q-29 25 -32.5 63.5zM148.5 792.5q-3.5 38.5 21.5 67.5l46 53q26 29 64 32.5t67 -21.5t32.5 -64t-21.5 -68l-46 -53q-25 -30 -63 -33t-68 23 q-29 25 -32.5 63.5z" />
<glyph unicode=";" horiz-adv-x="580" d="M123.5 -260.5q5.5 31.5 31.5 49.5q58 41 97.5 99.5t39.5 95.5q0 27 -54 39q-31 6 -48 32.5t-11 57.5t32.5 48.5t57.5 11.5q78 -17 126.5 -65t48.5 -123q0 -83 -59 -172.5t-142 -147.5q-25 -18 -56.5 -12.5t-50.5 30.5q-18 25 -12.5 56.5zM160.5 792.5 q-3.5 38.5 21.5 67.5l46 53q25 29 63.5 32.5t67.5 -21.5t32 -63.5t-22 -67.5l-45 -54q-24 -29 -63.5 -31.5t-67.5 21.5q-29 25 -32.5 63.5z" />
<glyph unicode="&#x3c;" horiz-adv-x="1066" d="M79 429q0 43 38 65l711 419q26 16 57 8t47 -35t7.5 -57.5t-34.5 -46.5l-600 -353l600 -354q26 -16 34.5 -46.5t-7.5 -57.5q-16 -28 -47 -35.5t-57 8.5l-711 419q-38 22 -38 66z" />
<glyph unicode="=" horiz-adv-x="1141" d="M167 219q0 32 22 54t54 22h655q32 0 54 -22.5t22 -53.5t-22 -53.5t-54 -22.5h-655q-32 0 -54 22t-22 54zM167 639q0 32 22 54t54 22h655q32 0 54 -22.5t22 -53.5t-22 -53.5t-54 -22.5h-655q-32 0 -54 22t-22 54z" />
<glyph unicode="&#x3e;" horiz-adv-x="1068" d="M127 28.5q8 30.5 35 46.5l600 354l-600 353q-27 16 -35 46.5t8 57.5t46.5 35t57.5 -8l711 -419q38 -22 38 -65q0 -44 -38 -66l-711 -419q-27 -16 -57.5 -8.5t-46.5 35.5q-16 27 -8 57.5z" />
<glyph unicode="?" horiz-adv-x="953" d="M83 1242.5q11 29.5 39 42.5q106 48 289 48q81 0 154.5 -22.5t133.5 -66.5t96 -117t36 -166q0 -49 -10 -91.5t-25 -73.5t-41.5 -59t-50 -46.5t-61 -38.5t-64 -31t-69.5 -28v-77q0 -32 -22 -54t-54 -22t-54 22t-22 54v114q0 45 17 62.5t63 35.5q59 23 90.5 37t65.5 34 t49.5 41t25.5 51t10 70q0 57 -22.5 100t-53 65t-71.5 35t-68 16t-53 3q-23 0 -45.5 -1t-41 -3t-36 -4.5t-31 -5.5t-25.5 -6t-20.5 -5.5t-14.5 -4.5l-9 -3l-3 -1q-28 -13 -57.5 -1.5t-42.5 39.5q-13 29 -2 58.5zM318.5 5.5q-3.5 38.5 21.5 67.5l46 53q26 29 64 32.5t67 -21.5 q30 -26 33 -64.5t-22 -67.5l-46 -53q-25 -29 -63.5 -32.5t-67.5 21.5q-29 26 -32.5 64.5z" />
<glyph unicode="@" horiz-adv-x="1877" d="M115 435q0 183 72 349t193.5 285t288.5 189.5t349 70.5q166 0 309 -58t243.5 -159t158 -242t57.5 -303q0 -70 -13.5 -144.5t-44.5 -150.5t-74.5 -135.5t-110.5 -97.5t-146 -38q-119 0 -187 84q-125 -77 -242 -77q-86 0 -157.5 34t-118.5 92t-73 133t-25 158 q2 184 101 303t280 119q86 0 195 -50q19 49 65 49q29 0 49 -20t20 -49l-6 -536q-2 -103 100 -103q52 0 96 31.5t72.5 79.5t48 107t28 112.5t8.5 98.5q0 179 -80 322t-224.5 223.5t-327.5 79.5q-155 -1 -296.5 -60t-245 -158.5t-164.5 -240t-61 -297.5q0 -175 65.5 -323.5 t178 -249t265 -157t324.5 -56.5q174 0 334 81q26 13 52.5 4t39.5 -35q13 -25 4 -51.5t-34 -39.5q-189 -96 -396 -96q-200 0 -377.5 67t-308.5 186t-207.5 292.5t-76.5 376.5zM731 425q-1 -115 61.5 -197.5t175.5 -82.5q96 0 195 74l-1 23l3 403q-110 66 -190 66 q-124 0 -183.5 -80t-60.5 -206z" />
<glyph unicode="A" d="M57 38l483 1224q8 22 27.5 35t43.5 13q23 0 42.5 -13t28.5 -34l499 -1224q12 -29 -0.5 -58.5t-41.5 -41.5t-58 0.5t-41 41.5l-125 305h-596l-120 -304q-11 -29 -40.5 -41.5t-58.5 -1.5t-41.5 40.5t-1.5 58.5zM379 439h474l-241 590z" />
<glyph unicode="B" horiz-adv-x="1244" d="M197 10v1224q0 32 22 54t54 22h433q148 0 256 -106.5t108 -251.5q0 -84 -37.5 -162t-101.5 -134q87 -53 137.5 -139.5t50.5 -189.5q0 -165 -118.5 -279t-290.5 -114h-436q-32 0 -54.5 22t-22.5 54zM349 717h355q79 0 146 74t67 161q0 83 -63 144.5t-148 61.5h-357v-441z M350 86h360q108 0 182.5 70t74.5 171q0 106 -80 172t-183 66h-354v-479z" />
<glyph unicode="C" horiz-adv-x="1205" d="M118 623q0 320 180 511.5t482 191.5q142 0 292 -52q30 -11 43 -39.5t2 -58.5q-11 -29 -39.5 -42t-58.5 -2q-114 42 -239 42q-239 0 -374 -146t-135 -405t135 -405t374 -146q55 0 113.5 10t86.5 18.5t39 13.5q30 11 59 -2.5t39 -42.5q11 -30 -2 -58.5t-43 -39.5 q-150 -52 -292 -52q-301 0 -481.5 192t-180.5 512z" />
<glyph unicode="D" horiz-adv-x="1387" d="M197 10v1224q0 32 22.5 54t53.5 22h282q108 0 207 -22t193 -73t162.5 -127t110 -192.5t41.5 -261.5q0 -204 -88 -363.5t-246.5 -248t-360.5 -88.5h-301q-31 0 -53.5 22t-22.5 54zM349 86h225q83 0 160.5 20.5t147 64t121.5 106.5t82.5 155t30.5 202q0 98 -22.5 178 t-58.5 133t-86.5 93.5t-100.5 63t-107.5 36t-100 17t-84.5 3.5l-206 -1z" />
<glyph unicode="E" horiz-adv-x="1089" d="M197 10v1224q0 32 22.5 54t53.5 22h654q32 0 54.5 -22.5t22.5 -53.5q0 -32 -23 -54.5t-54 -22.5h-578v-463h491q32 0 54.5 -22.5t22.5 -53.5t-22.5 -53.5t-54.5 -22.5h-491v-456h563q32 0 54 -22t22 -54t-22 -54t-54 -22h-639q-31 0 -53.5 22t-22.5 54z" />
<glyph unicode="F" horiz-adv-x="1035" d="M197 10v1224q0 32 22.5 54t53.5 22h632q31 0 53.5 -22t22.5 -54t-22.5 -54.5t-53.5 -22.5h-556v-492h460q31 0 54 -22.5t23 -54.5q0 -31 -22.5 -53.5t-54.5 -22.5h-460v-502q0 -32 -22.5 -54t-53.5 -22t-53.5 22t-22.5 54z" />
<glyph unicode="G" horiz-adv-x="1348" d="M117 619q0 154 50 285.5t138.5 224t215 144.5t274.5 52q151 0 306 -33q31 -7 48 -33t11 -57q-7 -31 -33.5 -48.5t-57.5 -10.5q-139 29 -274 29q-236 0 -381 -152.5t-145 -400.5q0 -249 136 -398t364 -149q164 0 300 24v340h-76q-32 0 -54 22.5t-22 54.5q0 31 22.5 53.5 t53.5 22.5h152q31 0 53.5 -22.5t22.5 -53.5l1 -481q0 -28 -18 -49.5t-46 -25.5q-212 -38 -389 -38q-292 0 -471.5 193t-180.5 507z" />
<glyph unicode="H" horiz-adv-x="1424" d="M197 10v1224q0 32 22.5 54t53.5 22t53.5 -22t22.5 -54v-512h726v512q0 32 22.5 54t53.5 22t53.5 -22t22.5 -54v-1224q0 -32 -22.5 -54t-53.5 -22t-53.5 22t-22.5 54v559h-726v-559q0 -32 -22.5 -54t-53.5 -22t-53.5 22t-22.5 54z" />
<glyph unicode="I" horiz-adv-x="546" d="M197 10v1224q0 32 22.5 54t53.5 22t53.5 -22t22.5 -54v-1224q0 -32 -22.5 -54.5t-53.5 -22.5t-53.5 22.5t-22.5 54.5z" />
<glyph unicode="J" horiz-adv-x="549" d="M-155 -361q1 31 24.5 52.5t55.5 19.5q51 -3 83 -3q76 0 133 42.5t57 130.5v1353q0 31 22.5 53.5t54.5 22.5q31 0 53.5 -22t22.5 -54v-1353q0 -142 -97 -234t-246 -92q-16 0 -54 2l-37 2q-31 1 -52.5 24.5t-19.5 55.5z" />
<glyph unicode="K" horiz-adv-x="1193" d="M197 10v1224q0 32 22.5 54t53.5 22t53.5 -22t22.5 -54v-644l637 695q21 23 52.5 24.5t54.5 -19.5t25 -53t-20 -55l-490 -535l504 -588q20 -24 18 -55.5t-26 -51.5t-55.5 -18t-51.5 26l-492 574l-156 -170v-354q0 -32 -22.5 -54t-53.5 -22t-53.5 22t-22.5 54z" />
<glyph unicode="L" horiz-adv-x="967" d="M197 10v1223q0 32 22.5 54.5t53.5 22.5t53.5 -22.5t22.5 -54.5v-1147h498q31 0 53.5 -22t22.5 -54t-22.5 -54t-53.5 -22h-574q-31 0 -53.5 22t-22.5 54z" />
<glyph unicode="M" horiz-adv-x="1568" d="M196 1234q0 25 15 45.5t39 27.5q25 7 48.5 -1.5t37.5 -29.5l448 -671l448 671q14 21 37.5 29.5t48.5 1.5q24 -7 39 -27.5t15 -45.5l-1 -1224q0 -32 -22.5 -54t-53.5 -22t-53.5 22t-22.5 54v972l-372 -556q-23 -34 -63 -34t-63 34l-372 556v-972q0 -32 -22.5 -54 t-53.5 -22t-53.5 22t-22.5 54z" />
<glyph unicode="N" horiz-adv-x="1439" d="M197 11v1223q0 25 14.5 44.5t38.5 27.5q23 8 46.5 0.5t38.5 -27.5l755 -1035v990q0 32 22 54t54 22t54 -22t22 -54v-1223q0 -25 -14.5 -45.5t-37.5 -27.5q-23 -8 -47 0t-38 28l-756 1034v-989q0 -32 -22.5 -54.5t-53.5 -22.5t-53.5 22.5t-22.5 54.5z" />
<glyph unicode="O" horiz-adv-x="1540" d="M116 631q0 198 84 357t233.5 248t336.5 89t336.5 -89t233.5 -248t84 -357q0 -200 -85 -363t-235 -255.5t-334 -92.5t-334 92.5t-235 255.5t-85 363zM268 631q0 -243 142 -401t360 -158t359.5 158t141.5 401q0 239 -140 390.5t-361 151.5t-361.5 -151.5t-140.5 -390.5z " />
<glyph unicode="P" horiz-adv-x="1141" d="M197 10v1224q0 32 22.5 54t53.5 22h382q111 0 206 -60t149 -158t54 -208q0 -180 -121.5 -308t-293.5 -128h-299v-438q0 -31 -22.5 -53.5t-54.5 -22.5q-31 0 -53.5 22t-22.5 54zM350 601h299q107 0 185 84t78 199q0 106 -75.5 189.5t-181.5 83.5h-305v-556z" />
<glyph unicode="Q" horiz-adv-x="1541" d="M116 628q0 196 85 355.5t235.5 250.5t334.5 91t334 -91t235 -250.5t85 -355.5q0 -192 -80.5 -350t-219.5 -252l297 -203q26 -18 32 -49t-12 -57q-17 -26 -48.5 -32t-57.5 12l-369 252q-98 -30 -196 -30q-184 0 -334.5 92.5t-235.5 255t-85 361.5zM269 628 q0 -238 143.5 -397t358.5 -159q214 0 357.5 159t143.5 397q0 237 -141.5 391t-359.5 154t-360 -154t-142 -391z" />
<glyph unicode="R" horiz-adv-x="1217" d="M197 10v1224q0 32 22.5 54t53.5 22h382q67 0 137 -28.5t131.5 -79.5t101 -135t39.5 -183q0 -137 -74 -248t-192 -159l306 -422q19 -26 14 -57t-31 -50q-25 -18 -56 -13t-50 30l-350 483h-282v-438q0 -32 -22.5 -54t-53.5 -22t-53.5 22t-22.5 54zM349 601h302 q110 0 185.5 85t75.5 198q0 67 -27.5 122.5t-69 86.5t-83.5 47.5t-77 16.5l-306 1v-557z" />
<glyph unicode="S" horiz-adv-x="1056" d="M121 946q0 173 112.5 276t301.5 103q197 0 333 -45q29 -10 43.5 -38t4.5 -58t-39 -44.5t-58 -4.5q-114 38 -284 38q-34 0 -65.5 -4.5t-68.5 -19t-64 -38t-45.5 -66.5t-18.5 -99q0 -85 31.5 -121.5t122.5 -75.5l264 -113q57 -24 94 -46.5t75 -61t57 -95.5t19 -134 q0 -173 -112.5 -276t-301.5 -103q-198 0 -333 45q-30 10 -44 38t-4 58t38.5 44.5t58.5 4.5q113 -38 284 -38q34 0 65.5 4.5t68.5 19t64 38t45.5 66.5t18.5 99q0 45 -7.5 74.5t-28.5 51.5t-46 36.5t-72 34.5l-263 113q-46 20 -76.5 36.5t-65.5 44.5t-55.5 61t-34.5 83 t-14 112z" />
<glyph unicode="T" horiz-adv-x="1136" d="M28 1234q0 32 22 54t54 22h928q32 0 54 -22t22 -54t-22.5 -54.5t-53.5 -22.5h-388v-1147q0 -32 -22.5 -54.5t-53.5 -22.5t-53.5 22.5t-22.5 54.5v1147h-388q-31 0 -53.5 22.5t-22.5 54.5z" />
<glyph unicode="U" horiz-adv-x="1488" d="M182 550v684q0 32 22 54t54 22t54 -22t22 -54l1 -684q0 -224 108 -351t301 -127q192 0 301 127t109 351v684q0 32 22 54t54 22t54.5 -22.5t22.5 -53.5l-1 -684q-1 -288 -153.5 -459t-408.5 -171t-409 171.5t-153 458.5z" />
<glyph unicode="V" horiz-adv-x="1218" d="M60 1199q-11 29 1.5 58.5t41.5 40.5q30 12 59 -1t40 -43l403 -1038l425 1046q12 29 41 41.5t58 0.5t41.5 -41t0.5 -58l-497 -1224q-9 -22 -28.5 -35t-42.5 -13h-1q-23 0 -42.5 13.5t-27.5 35.5z" />
<glyph unicode="W" horiz-adv-x="1849" d="M68 1218q-8 29 6 55t42 34q28 9 54.5 -5t34.5 -43l306 -1023l343 967q8 21 26.5 34t40.5 13q23 0 42 -13t26 -34l348 -968l306 1024q8 28 34.5 42t54.5 6q29 -8 43 -34t6 -55l-370 -1233q-7 -22 -25.5 -36.5t-41.5 -14.5q-51 0 -68 47l-354 984l-349 -983 q-8 -22 -27 -35.5t-42 -12.5t-41.5 15t-25.5 36z" />
<glyph unicode="X" horiz-adv-x="1217" d="M80 1244.5q5 31.5 30 50.5t56.5 14t50.5 -30l389 -528l386 528q19 25 50 30t56 -14q26 -19 31 -49.5t-14 -56.5l-414 -567l419 -566q19 -26 14 -57t-30 -50t-56.5 -14t-50.5 30l-390 528l-385 -528q-19 -25 -50.5 -30t-56.5 14t-30 50t14 56l413 567l-418 566 q-19 25 -14 56.5z" />
<glyph unicode="Y" horiz-adv-x="1144" d="M40.5 1248.5q6.5 31.5 32.5 48.5t57.5 11t48.5 -32l392 -584l405 585q18 26 49 31.5t57 -12.5t32 -49t-12 -57l-456 -657v-523q0 -32 -22 -54t-54 -22t-54 22t-22 54v524l-442 657q-18 26 -11.5 57.5z" />
<glyph unicode="Z" horiz-adv-x="1143" d="M89 1234q0 32 22.5 54t53.5 22h803q46 0 68 -40q10 -18 10 -36q0 -21 -14 -42l-730 -1106h690q32 0 54 -22t22 -54t-22 -54t-54 -22h-831q-46 0 -68 40q-10 18 -10 36q0 21 14 42l730 1106h-662q-31 0 -53.5 22t-22.5 54z" />
<glyph unicode="[" horiz-adv-x="602" d="M172 -346v1690q0 28 18 48t46 23l221 21q29 3 52 -16t26 -48q3 -30 -16 -53t-48 -25l-157 -14v-1562l157 -14q29 -2 48 -25t16 -53q-3 -29 -26 -48t-52 -16l-221 21q-28 3 -46 23t-18 48z" />
<glyph unicode="\" horiz-adv-x="910" d="M73.5 1237q11.5 30 39.5 43t58 1.5t43 -39.5l622 -1380q13 -29 2 -58t-40 -43q-29 -13 -58.5 -2t-42.5 40l-622 1380q-13 28 -1.5 58z" />
<glyph unicode="]" horiz-adv-x="600" d="M66 -374q-3 30 16 53t48 25l157 14v1562l-157 14q-29 2 -48 25t-16 53q3 29 26 48t52 16l221 -21q27 -2 45.5 -22.5t18.5 -48.5v-1690q0 -28 -18.5 -48.5t-45.5 -22.5l-221 -21q-29 -3 -52 16t-26 48z" />
<glyph unicode="^" horiz-adv-x="1020" d="M139 1089q-6 30 11 55l294 446q21 32 59 32q40 0 61 -31l304 -447q17 -25 11.5 -54t-30.5 -46t-54.5 -12t-45.5 30l-244 359l-235 -358q-16 -25 -45.5 -31t-54.5 11q-25 16 -31 46z" />
<glyph unicode="_" horiz-adv-x="2244" d="M269 -339q0 32 22 54t54 22h1551q32 0 54 -22.5t22 -53.5t-22 -53.5t-54 -22.5h-1551q-32 0 -54 22t-22 54z" />
<glyph unicode="`" horiz-adv-x="649" d="M-52 1396q-1 31 21 54t53.5 24t54.5 -21l207 -195q23 -22 24 -53.5t-21 -54.5t-53.5 -24t-54.5 21l-207 196q-23 22 -24 53z" />
<glyph unicode="a" horiz-adv-x="1004" d="M109 222q0 53 16 95t41.5 70t64 49t77.5 33t88 21l302 56v118q0 54 -60.5 93t-129.5 39q-73 0 -287 -45q-29 -6 -54 10t-32 45q-6 29 10 54.5t45 31.5q230 47 318 47q82 0 158 -34t126.5 -98t50.5 -143v-658q0 -30 -21.5 -51t-51.5 -21q-25 0 -44.5 15.5t-26.5 41.5 q-178 -72 -280 -72q-135 0 -222.5 86t-87.5 217zM253 222q0 -72 45.5 -115.5t120.5 -43.5q97 0 279 85v252l-276 -52q-101 -19 -135 -46.5t-34 -79.5z" />
<glyph unicode="b" horiz-adv-x="1137" d="M170 10v1233q0 31 22 53.5t54 22.5t54 -22.5t22 -53.5v-351q148 50 230 50q213 0 343.5 -141t130.5 -370q0 -230 -130.5 -371t-343.5 -141q-82 0 -239 54q-22 -39 -67 -39q-32 0 -54 22t-22 54zM322 129q54 -21 122.5 -39t107.5 -18q151 0 236.5 95t85.5 264 q0 168 -85.5 263t-236.5 95q-81 0 -230 -56v-604z" />
<glyph unicode="c" horiz-adv-x="960" d="M114 430q0 221 134.5 366t353.5 145q103 0 210 -32q33 -11 49 -38t7 -58q-8 -30 -36 -45.5t-58 -6.5q-92 28 -172 28q-155 0 -245 -100.5t-90 -258.5t90 -258.5t245 -100.5q18 0 35 1.5t38.5 5t31 5.5t37 9t33.5 8q31 7 57.5 -9t34.5 -47q8 -30 -8.5 -57.5t-46.5 -34.5 q-51 -13 -73.5 -18.5t-59.5 -10t-79 -4.5q-219 0 -353.5 145t-134.5 366z" />
<glyph unicode="d" horiz-adv-x="1137" d="M111 431q0 229 130.5 370t343.5 141q82 0 230 -50v351q0 31 22.5 53.5t53.5 22.5t53.5 -22.5t22.5 -53.5v-1233q0 -32 -22.5 -54t-53.5 -22q-45 0 -67 39q-157 -54 -239 -54q-213 0 -343.5 141t-130.5 371zM263 431q0 -169 85 -264t237 -95q38 0 107 18t123 39v604 q-55 21 -123.5 38.5t-106.5 17.5q-152 0 -237 -95t-85 -263z" />
<glyph unicode="e" horiz-adv-x="1077" d="M115 398v78q0 88 29.5 170.5t84 148.5t141.5 105.5t193 39.5q197 0 311.5 -129.5t114.5 -353.5q0 -29 -19.5 -49.5t-47.5 -21.5l-660 -41q17 -135 103.5 -208.5t219.5 -73.5q99 0 188 34q28 11 56 0t39 -38q12 -28 1 -55.5t-39 -38.5q-113 -46 -245 -46 q-212 0 -341 133.5t-129 345.5zM259 488l583 36q-31 272 -279 272q-97 0 -166.5 -45t-101.5 -112.5t-36 -150.5z" />
<glyph unicode="f" horiz-adv-x="746" d="M69 716q0 32 22.5 54t53.5 22h109v160q0 164 100.5 265t264.5 101q106 0 151 -15q30 -8 45.5 -36t7.5 -58q-9 -31 -36.5 -46.5t-57.5 -6.5q-39 10 -110 10q-101 0 -157.5 -56.5t-55.5 -156.5l1 -161h199q32 0 54 -22t22 -54t-22.5 -54.5t-53.5 -22.5h-199v-629 q0 -32 -22.5 -54t-53.5 -22t-53.5 22t-22.5 54l-1 629h-109q-31 0 -53.5 22.5t-22.5 54.5z" />
<glyph unicode="g" horiz-adv-x="1060" d="M108 -164q0 78 89 220q-68 77 -68 192q0 88 127 187q-56 87 -56 186q0 134 96 227q98 94 236 94q89 0 167 -46l246 51q29 6 54 -10t31 -45t-10 -54t-46 -31l-155 -32q45 -79 45 -165q0 -137 -97 -230t-234 -93q-95 0 -178 52q-78 -60 -88 -91q0 -16 3 -33t12 -39.5 t30.5 -38.5t52.5 -18l414 -32q178 -14 178 -248q0 -133 -110.5 -209t-308.5 -76q-197 0 -313.5 77t-116.5 205zM245 -164q0 -48 46 -82t110 -48.5t137 -14.5q31 0 61 2t72.5 11t73.5 24t53 44t22 67q0 49 -7.5 74.5t-17 31t-26.5 6.5l-415 31q-16 1 -37 6q-72 -113 -72 -152 zM329 619q1 -84 60.5 -143t143.5 -59q83 0 142 55t59 138q0 82 -60 142t-142 60q-83 0 -143 -55.5t-60 -137.5z" />
<glyph unicode="h" horiz-adv-x="1168" d="M170 8v1235q0 31 22 53.5t54 22.5t54 -22.5t22 -53.5v-402q144 99 296 99q180 0 285.5 -108t105.5 -294v-528q0 -32 -22.5 -54t-53.5 -22q-32 0 -54.5 22.5t-22.5 53.5v528q0 122 -60.5 185.5t-177.5 63.5q-96 0 -174 -44.5t-122 -92.5v-642q0 -32 -22 -54t-54 -22 t-54 22t-22 54z" />
<glyph unicode="i" horiz-adv-x="508" d="M144 1324q0 5 -1 9q0 33 22 58l38 44q25 29 63 33h10q33 0 58 -22q28 -26 32 -64q0 -5 1 -10q0 -33 -22 -58l-38 -44q-25 -29 -63 -32h-9q-33 0 -59 22q-28 26 -32 64zM179 10v838q0 32 22.5 54t53.5 22t53.5 -22t22.5 -54v-838q0 -32 -22.5 -54t-53.5 -22t-53.5 22 t-22.5 54z" />
<glyph unicode="j" horiz-adv-x="491" d="M-184 -361q1 31 24.5 52.5t55.5 19.5q51 -3 83 -3q76 0 133 42.5t57 130.5v967q0 32 22.5 54t54.5 22t54 -22t22 -54v-967q0 -142 -97 -234t-246 -92q-15 0 -52.5 2t-38.5 2q-32 2 -52.5 25.5t-19.5 54.5zM134 1324q-1 4 -1 9q0 33 22 58l38 44q25 29 63 33h10 q33 0 58 -22q29 -26 32 -64q1 -5 1 -10q0 -33 -22 -58l-38 -44q-25 -29 -63 -32h-9q-33 0 -59 22q-29 25 -32 64z" />
<glyph unicode="k" horiz-adv-x="1028" d="M170 10v1232q0 32 22 54t54 22t54 -22t22 -54v-788l479 452q23 22 54 20.5t53 -24.5q21 -22 20 -53.5t-23 -53.5l-328 -308l352 -429q20 -25 16.5 -56t-27.5 -51q-25 -20 -56 -17t-51 27l-346 421l-143 -134v-238q0 -32 -22 -54t-54 -22t-54 22t-22 54z" />
<glyph unicode="l" horiz-adv-x="508" d="M178 10v1232q0 32 22 54t54 22t54 -22t22 -54v-1232q0 -32 -22 -54t-54 -22t-54 22t-22 54z" />
<glyph unicode="m" horiz-adv-x="1675" d="M168 10v838q0 32 22 54t54 22q31 0 53 -22t23 -53q120 90 244 90q197 0 287 -125q151 125 310 125q171 0 262.5 -95.5t91.5 -274.5v-559q0 -32 -22.5 -54t-53.5 -22q-32 0 -54.5 22.5t-22.5 53.5v559q0 116 -47 167t-154 51q-73 0 -140.5 -36.5t-110.5 -78.5 q7 -41 7 -103v-559q0 -32 -22.5 -54t-53.5 -22t-53.5 22t-22.5 54v559q0 116 -47 167t-154 51q-74 0 -139.5 -45.5t-104.5 -93.5v-638q0 -32 -22 -54t-54 -22t-54 22t-22 54z" />
<glyph unicode="n" horiz-adv-x="1156" d="M168 10v838q0 32 22 54t54 22t54 -22t22 -54v-10q148 101 306 101q180 0 275.5 -101t95.5 -289v-539q0 -32 -22.5 -54t-53.5 -22t-53.5 22t-22.5 54v539q0 125 -52 181.5t-167 56.5q-69 0 -137.5 -27.5t-105 -54.5t-63.5 -54v-641q0 -32 -22 -54t-54 -22t-54 22t-22 54z " />
<glyph unicode="o" horiz-adv-x="1191" d="M109 426q0 144 63.5 262t174.5 185t248 67q208 0 347.5 -145t139.5 -362q0 -220 -139.5 -367t-347.5 -147t-347 145t-139 362zM261 426q0 -154 94.5 -254t239.5 -100t239.5 102t94.5 259q0 154 -94.5 254t-239.5 100t-239.5 -102t-94.5 -259z" />
<glyph unicode="p" horiz-adv-x="1136" d="M169 -368v1217q0 31 22.5 53.5t53.5 22.5q45 0 67 -39q154 53 239 53q213 0 343.5 -140.5t130.5 -370.5q0 -229 -130.5 -370t-343.5 -141q-82 0 -230 50v-335q0 -32 -22.5 -54.5t-53.5 -22.5t-53.5 22.5t-22.5 54.5zM321 126q149 -56 230 -56q151 0 236.5 95t85.5 263 q0 169 -85.5 264t-236.5 95q-39 0 -107.5 -18t-122.5 -39v-604z" />
<glyph unicode="q" horiz-adv-x="1136" d="M111 428q0 230 130 370.5t344 140.5q85 0 239 -53q22 39 67 39q31 0 53.5 -22.5t22.5 -53.5v-1217q0 -32 -22.5 -54.5t-53.5 -22.5t-53.5 22.5t-22.5 54.5v335q-148 -50 -230 -50q-213 0 -343.5 141t-130.5 370zM263 428q0 -168 85 -263t237 -95q38 0 106.5 17.5 t123.5 38.5v604q-54 21 -123 39t-107 18q-152 0 -237 -95t-85 -264z" />
<glyph unicode="r" horiz-adv-x="792" d="M168 10v838q0 32 22 54t54 22q23 0 42.5 -13t27.5 -34q150 62 237 62t159 -41q27 -16 35 -46.5t-8 -57.5q-17 -28 -47 -35.5t-58 8.5q-36 20 -81 20q-36 0 -103.5 -20.5t-127.5 -47.5v-709q0 -32 -22 -54t-54 -22t-54 22t-22 54z" />
<glyph unicode="s" horiz-adv-x="902" d="M110 658q0 92 53 157.5t130 94.5t165 29q51 0 130 -9t129 -22q30 -8 46.5 -35t8.5 -58q-8 -30 -35 -46t-58 -9q-41 10 -110.5 18.5t-110.5 8.5q-18 0 -41 -3t-62.5 -14t-65.5 -40t-26 -72q0 -53 18 -75t68 -39l255 -86q39 -13 68 -29.5t59 -45t46.5 -75t16.5 -108.5 q0 -70 -30.5 -125.5t-81 -88.5t-110.5 -50t-125 -17q-51 0 -130.5 8.5t-133.5 22.5q-31 8 -47 35t-8 57q8 31 35.5 47t57.5 8q42 -11 110.5 -18.5t115.5 -7.5q18 0 40.5 3t62 14t65.5 40t26 72q0 53 -17.5 75t-68.5 39l-254 85q-39 13 -68.5 29.5t-59.5 45t-46.5 75.5 t-16.5 109z" />
<glyph unicode="t" horiz-adv-x="822" d="M46 847q0 31 22 53.5t54 22.5h125v250q0 32 22.5 54.5t53.5 22.5t53.5 -22.5t22.5 -54.5v-250h231q32 0 54 -22.5t22 -53.5t-22 -53.5t-54 -22.5h-231v-467q0 -138 46.5 -185.5t147.5 -47.5q39 0 95 20q29 11 58 -1.5t40 -41.5q12 -30 -1 -59t-42 -40q-83 -31 -150 -31 q-346 0 -346 386v467h-125q-32 0 -54 22.5t-22 53.5z" />
<glyph unicode="u" horiz-adv-x="1155" d="M159 315v533q0 32 22.5 54t53.5 22t53.5 -22t22.5 -54v-533q0 -124 56 -183.5t173 -59.5q97 0 174.5 43.5t120.5 89.5v643q0 32 22.5 54t53.5 22t53.5 -22t22.5 -54v-838q0 -32 -22.5 -54t-53.5 -22t-53.5 22t-22.5 54v6q-142 -97 -295 -97q-180 0 -280.5 105t-100.5 291 z" />
<glyph unicode="v" horiz-adv-x="1007" d="M60.5 875.5q11.5 29.5 40.5 42.5q28 13 57.5 1.5t42.5 -40.5l303 -681l302 681q13 29 43 40.5t58 -1.5q29 -13 40.5 -42.5t-1.5 -58.5l-372 -838q-9 -20 -28.5 -32.5t-41.5 -12.5t-41.5 12.5t-28.5 32.5l-372 838q-13 29 -1.5 58.5z" />
<glyph unicode="w" horiz-adv-x="1525" d="M67 829q-10 28 3 54.5t41 36.5t54.5 -2.5t36.5 -40.5l235 -667l259 647q18 46 67 46q22 0 40 -12.5t26 -33.5l260 -647l234 667q10 28 36.5 40.5t54.5 2.5t41 -36.5t3 -54.5l-298 -847q-7 -22 -26 -35t-42 -13q-22 0 -40 12.5t-26 32.5l-263 659l-264 -659 q-18 -45 -67 -45q-22 0 -40.5 13.5t-26.5 34.5z" />
<glyph unicode="x" horiz-adv-x="1015" d="M86 2q-3 31 17 56l308 380l-284 363q-19 25 -15.5 56t28.5 51q25 19 56 15.5t51 -28.5l263 -336l274 337q20 25 51 28t56 -17t28 -51t-17 -56l-295 -364l296 -379q19 -25 15.5 -56t-28.5 -51q-25 -19 -56 -15.5t-51 28.5l-275 352l-287 -353q-20 -25 -51 -28t-56 17 t-28 51z" />
<glyph unicode="y" horiz-adv-x="988" d="M24 -363q-1 31 20 54t53 25q111 4 177 48t107 142l31 74l-349 836q-12 29 0 58.5t41 41.5t58.5 0t41.5 -41l290 -696l290 698q12 29 41.5 41t58.5 0t41 -41.5t0 -58.5l-403 -971q-115 -278 -419 -284q-32 -1 -55 20t-24 54z" />
<glyph unicode="z" horiz-adv-x="967" d="M94 848q0 32 22 54t54 22h616q47 0 68 -41q9 -18 9 -35q0 -23 -16 -45l-522 -717h478q31 0 53.5 -22t22.5 -54t-22.5 -54t-53.5 -22h-628q-47 0 -68 41q-9 19 -9 36q0 23 15 44l523 717h-466q-32 0 -54 22t-22 54z" />
<glyph unicode="{" horiz-adv-x="676" d="M72 509q0 37 30 58l239 169l-113 323q-29 84 7.5 170t115 140t164.5 54q29 0 50.5 -21t21.5 -50t-21.5 -50t-50.5 -21q-26 0 -57.5 -16.5t-56.5 -41t-37.5 -56.5t-2.5 -61l132 -373q8 -22 0.5 -45t-26.5 -37l-201 -142l201 -143q19 -14 26 -36t0 -44l-131 -398 q-17 -52 41.5 -114.5t114.5 -62.5q29 0 50 -21t21 -50t-21 -50t-50 -21q-61 0 -123.5 33t-105 85.5t-63.5 117t1 127.5l115 348l-240 170q-30 21 -30 59z" />
<glyph unicode="|" horiz-adv-x="498" d="M173 -369v1611q0 32 22.5 54t53.5 22t53.5 -22t22.5 -54v-1611q0 -31 -22.5 -53.5t-53.5 -22.5t-53.5 22.5t-22.5 53.5z" />
<glyph unicode="}" horiz-adv-x="675" d="M86 -360q0 29 21 50t50 21q56 0 114.5 62.5t41.5 114.5l-131 398q-16 49 26 80l201 143l-201 142q-20 14 -26.5 37t1.5 45l131 373q10 29 -2.5 61t-37.5 56.5t-56.5 41t-57.5 16.5q-29 0 -50 21t-21 50t21 50t50 21q86 0 164.5 -54t115.5 -140t8 -170l-114 -323l239 -169 q30 -22 30 -58q0 -37 -30 -59l-240 -170l115 -349q26 -79 -13.5 -165t-118 -141.5t-159.5 -55.5q-29 0 -50 21t-21 50z" />
<glyph unicode="~" horiz-adv-x="1207" d="M115.5 366q-4.5 31 13.5 56q128 167 248 202q119 35 231 -72q17 -15 52 -55q52 -55 77 -73t51 -10q39 11 89 58.5t79 87.5q19 25 50.5 30t56.5 -14t30 -50.5t-14 -56.5q-9 -13 -27.5 -35t-53 -57.5t-79.5 -66.5t-88 -43q-122 -35 -240 81q-9 9 -24 25.5t-19 21.5 q-49 53 -76 72t-53 11q-38 -11 -87 -57.5t-80 -88.5q-19 -25 -50.5 -30t-56.5 14t-29.5 50z" />
<glyph unicode="&#xa1;" horiz-adv-x="503" d="M133 785q-3 38 22 68l45 54q25 30 64 32.5t68 -22.5t32 -63.5t-22 -67.5l-45 -54q-25 -30 -64 -32.5t-68 22.5t-32 63zM172 341q0 32 22 54.5t54 22.5t54.5 -22.5t22.5 -54.5v-723q0 -32 -22.5 -54t-54.5 -22t-54 22t-22 54v723z" />
<glyph unicode="&#xa2;" horiz-adv-x="963" d="M113 433q0 161 91 279.5t241 157.5v267q0 31 22.5 53.5t53.5 22.5q32 0 54.5 -22.5t22.5 -53.5l-1 -251q98 -2 181 -19q30 -5 48.5 -31t13.5 -57t-31 -49t-57 -13l-6 1q-6 1 -16 2.5t-23.5 3.5t-29.5 3.5t-32.5 3t-34.5 2.5t-33 1q-138 0 -225 -84t-87 -217 q0 -145 79 -229.5t215 -84.5q18 0 38 1.5t37.5 4.5t34.5 6t30 6.5t23 6.5t16 4l6 2q30 10 58.5 -4t38.5 -44t-4 -58.5t-44 -38.5l-7 -2q-6 -2 -16 -5t-24 -6.5t-31 -7t-35.5 -7t-40 -6.5t-42.5 -4v-211q0 -32 -22.5 -54t-53.5 -22t-53.5 22t-22.5 54v223q-153 35 -242.5 156 t-89.5 298z" />
<glyph unicode="&#xa3;" horiz-adv-x="1123" d="M93 506q0 32 22.5 54t53.5 22h155v303q0 138 108 238.5t257 100.5q41 0 79.5 -3t56.5 -6t21 -4q31 -6 49 -32t12 -57t-32.5 -48.5t-57.5 -11.5q-53 10 -128 10q-85 0 -148.5 -56t-63.5 -131v-303h270q32 0 54.5 -22.5t22.5 -53.5t-22.5 -53.5t-54.5 -22.5h-270v-344h486 q31 0 53.5 -22t22.5 -54t-22.5 -54.5t-53.5 -22.5h-746q-32 0 -54.5 22.5t-22.5 54.5q0 31 22.5 53.5t54.5 22.5h107v344h-155q-31 0 -53.5 22t-22.5 54z" />
<glyph unicode="&#xa4;" horiz-adv-x="1232" d="M124 305q0 29 21 48t51 18l645 -19q29 -1 49 -21.5t19 -49.5t-22 -48.5t-50 -18.5l-388 12v-156q0 -40 21 -69t49 -44t66.5 -23.5t62.5 -10.5t48 -2q52 0 121.5 12t112 23.5t49.5 14.5l-1 -1q28 9 53 -4.5t33 -41.5t-4.5 -53.5t-40.5 -33.5q-193 -55 -323 -55 q-176 0 -281 78.5t-105 209.5v159l-118 5q-29 2 -48.5 22t-19.5 49zM124 635q0 29 20 49.5t48 21.5l118 3v145q0 147 101 230.5t280 83.5q72 0 158.5 -7.5t135.5 -14.5t56 -9q28 -5 45.5 -28.5t12.5 -51.5t-28.5 -44.5t-52.5 -12.5h1q-10 2 -55.5 8.5t-127 13.5t-145.5 7 q-242 0 -242 -175v-142l382 10q29 1 50 -18.5t22 -48.5q1 -28 -19 -49t-49 -22l-639 -16q-29 -1 -50 18.5t-22 48.5z" />
<glyph unicode="&#xa5;" horiz-adv-x="1174" d="M108.5 1022.5q2.5 30.5 24.5 49.5q23 19 52.5 17t49.5 -25l340 -390l381 393q21 21 50.5 21.5t50.5 -19.5q22 -21 22 -50.5t-20 -50.5l-414 -429v-75h256q28 0 48 -20t20 -49q0 -28 -20 -48t-48 -20h-663q-28 0 -48 20t-20 48q0 29 20 49t48 20h263v76l-375 430 q-20 22 -17.5 52.5zM170 73q0 29 20 49t48 20h663q28 0 48 -20t20 -49q0 -28 -20 -48t-48 -20h-256v-125q0 -30 -21.5 -51t-50.5 -21q-30 0 -51 21t-21 51v125h-263q-28 0 -48 20t-20 48z" />
<glyph unicode="&#xa6;" horiz-adv-x="510" d="M179 204q0 32 22.5 54t53.5 22t53.5 -22t22.5 -54v-478q0 -32 -22.5 -54t-53.5 -22t-53.5 22t-22.5 54v478zM179 662v478q0 32 22.5 54t53.5 22t53.5 -22t22.5 -54v-478q0 -32 -22.5 -54t-53.5 -22t-53.5 22t-22.5 54z" />
<glyph unicode="&#xa7;" horiz-adv-x="1108" d="M104 801q0 230 143.5 364t374.5 134q114 0 246 -30q30 -7 46 -32.5t9 -54.5t-32 -45.5t-55 -9.5q-122 28 -214 28q-136 0 -220 -52l420 -527q78 -98 129.5 -215.5t51.5 -226.5q0 -225 -144.5 -360t-371.5 -135q-117 0 -246 29q-29 7 -46 32.5t-10 54.5t32.5 46t54.5 10 q118 -27 213 -27q137 0 220 52l-421 527q-77 97 -128.5 213.5t-51.5 224.5zM245 805q0 -84 44 -180t106 -174l412 -522q54 94 54 209q0 84 -43.5 178t-105.5 172l-411 522q-56 -97 -56 -205z" />
<glyph unicode="&#xa8;" horiz-adv-x="842" d="M100.5 1255.5q-3.5 38.5 21.5 67.5l38 44q26 29 64 32.5t67 -21.5t32.5 -63.5t-21.5 -67.5l-38 -44q-26 -29 -64 -32.5t-67 21.5t-32.5 63.5zM519 1255q-3 38 22 68l37 44q25 30 64 33t68 -22t32 -63t-22 -68l-37 -44q-25 -30 -64 -33t-68 22t-32 63z" />
<glyph unicode="&#xa9;" horiz-adv-x="1675" d="M127 479q0 144 56.5 275.5t152 226.5t227 151.5t275.5 56.5t275 -56.5t226.5 -151.5t152 -226.5t56.5 -275.5q0 -193 -95.5 -356.5t-259 -258.5t-355.5 -95q-144 0 -275.5 56.5t-227 151.5t-152 226.5t-56.5 275.5zM264 479q0 -155 77 -287.5t209.5 -209.5t287.5 -77 t287 77t209 209.5t77 287.5q0 116 -45.5 222.5t-122.5 183t-183 122t-222 45.5q-155 0 -287.5 -77t-209.5 -209t-77 -287zM512 473q0 152 93 248t240 96q48 0 145 -31q27 -8 40 -33t4 -53q-8 -26 -34 -39t-52 -5q-8 3 -24 8.5t-25 8.5q-28 7 -54 7q-78 0 -137 -51t-59 -156 t59 -156t137 -51q16 0 30.5 2.5t21.5 4t26 8.5t25 9q26 9 52 -4.5t34 -39.5q9 -28 -4 -53t-40 -33q-97 -31 -145 -31q-147 0 -240 96t-93 248z" />
<glyph unicode="&#xaa;" horiz-adv-x="752" d="M122 773q0 43 16.5 75.5t47 52t62.5 31.5t74 20l170 34v64q0 26 -38 48.5t-85 22.5q-57 0 -159 -28q-22 -6 -42.5 6t-26.5 35q-6 22 5.5 42.5t34.5 27.5q124 31 188 31q91 0 164 -52.5t73 -132.5v-413q0 -23 -17 -40t-40 -17q-33 0 -50 30q-92 -40 -159 -40 q-94 0 -156 57.5t-62 145.5zM236 773q0 -46 31 -70.5t73 -24.5q58 0 152 48v149l-149 -28q-67 -12 -87 -29t-20 -45z" />
<glyph unicode="&#xab;" horiz-adv-x="1325" d="M103 429q0 35 27 57l371 320q23 20 55 18t52 -26t17.5 -56t-25.5 -52l-304 -261l304 -262q23 -20 25.5 -51.5t-17.5 -55.5t-52 -26.5t-55 17.5l-371 320q-27 22 -27 58zM678 429q0 36 26 57l371 320q23 20 55.5 18t52.5 -26t17.5 -56t-25.5 -52l-304 -261l304 -262 q23 -20 25.5 -51.5t-17.5 -55.5t-52.5 -26.5t-55.5 17.5l-371 320q-26 21 -26 58z" />
<glyph unicode="&#xac;" horiz-adv-x="1115" d="M155 429q0 32 22 54t54 22h637q32 0 54 -22.5t22 -53.5v-343q0 -32 -22 -54t-54 -22t-54 22t-22 54v267h-561q-32 0 -54 22t-22 54z" />
<glyph unicode="&#xad;" horiz-adv-x="915" d="M147 429q0 32 22 54t54 22h467q32 0 54.5 -22.5t22.5 -53.5t-22.5 -54t-54.5 -23h-467q-32 0 -54 22.5t-22 54.5z" />
<glyph unicode="&#xae;" horiz-adv-x="1416" d="M140 665q0 154 76 285t207 207t285 76t285 -76t207 -207t76 -285q0 -115 -45 -220.5t-121 -181.5t-181.5 -121t-220.5 -45t-220.5 45t-181.5 121t-121 181.5t-45 220.5zM249 665q0 -124 61.5 -229.5t167.5 -167t230 -61.5t229.5 61.5t167 167t61.5 229.5t-61.5 229.5 t-167 167t-229.5 61.5t-230 -61.5t-167.5 -167t-61.5 -229.5zM511 443v448q0 22 17 38.5t40 16.5h162q70 0 133 -52t63 -143q0 -53 -26 -98.5t-72 -73.5l73 -104q13 -19 9.5 -41t-22.5 -36q-18 -13 -40.5 -9t-35.5 23l-100 140h-91v-109q0 -22 -16 -38t-39 -16t-39 16 t-16 38zM611 652h116q41 0 70.5 29t29.5 70q0 48 -34 72t-63 24h-119v-195z" />
<glyph unicode="&#xaf;" horiz-adv-x="767" d="M145 1222q0 30 21 50.5t50 20.5h335q30 0 50.5 -20.5t20.5 -50.5q0 -29 -20.5 -50t-50.5 -21h-335q-29 0 -50 21t-21 50z" />
<glyph unicode="&#xb0;" horiz-adv-x="907" d="M105 1136q0 144 102.5 246.5t245.5 102.5q144 0 246.5 -102.5t102.5 -246.5q0 -145 -102.5 -247t-246.5 -102q-143 0 -245.5 102.5t-102.5 246.5zM238 1136q0 -89 63 -152t152 -63t152.5 63t63.5 152t-63.5 152t-152.5 63t-152 -63t-63 -152z" />
<glyph unicode="&#xb1;" horiz-adv-x="1105" d="M121 605q0 32 22.5 54.5t53.5 22.5h280v300q0 32 22.5 54.5t53.5 22.5t53.5 -22.5t22.5 -54.5v-300h279q32 0 54.5 -23t22.5 -54t-22.5 -53.5t-54.5 -22.5h-279v-288q0 -32 -22.5 -54.5t-53.5 -22.5t-53.5 22.5t-22.5 54.5v288h-280q-31 0 -53.5 22.5t-22.5 53.5z M162 -87q0 32 22 54t54 22h630q32 0 54 -22.5t22 -53.5q0 -32 -22.5 -54.5t-53.5 -22.5h-630q-32 0 -54 22.5t-22 54.5z" />
<glyph unicode="&#xb4;" horiz-adv-x="641" d="M380.5 1203q0.5 32 23.5 54l202 195q23 22 54 21.5t53 -22.5q22 -23 22 -54.5t-23 -53.5l-202 -196q-23 -22 -54.5 -21.5t-53.5 23.5q-22 22 -21.5 54z" />
<glyph unicode="&#xb5;" horiz-adv-x="1173" d="M180 848q0 32 22 54t54 22h1q31 0 53.5 -22t22.5 -54v-611q0 -81 62.5 -123t215.5 -42q44 0 88 12t72.5 27t56 35.5t36.5 28.5t15 15l2 3v655q0 32 22.5 54t53.5 22t53.5 -22t22.5 -54v-838q0 -32 -22.5 -54t-53.5 -22q-28 0 -49.5 18.5t-25.5 46.5q-129 -80 -271 -80 q-174 0 -278 56v-344q0 -31 -22.5 -53.5t-53.5 -22.5t-53.5 22.5t-22.5 53.5z" />
<glyph unicode="&#xb6;" horiz-adv-x="1144" d="M87 623q0 201 133 316t336 114l316 -1q32 0 54 -22t22 -54v-1096q0 -130 -104 -227.5t-243 -97.5q-82 0 -192 44q-30 13 -41.5 42t0.5 58t40.5 41.5t58.5 0.5q76 -33 134 -33q76 0 135 52t59 120v326l-254 -22q-90 -8 -174.5 26t-145.5 95.5t-97.5 145t-36.5 172.5z" />
<glyph unicode="&#xb7;" horiz-adv-x="509" d="M139 397.5q-3 38.5 22 67.5l46 54q25 29 63.5 32t67.5 -22t32.5 -63.5t-21.5 -67.5l-46 -53q-26 -29 -64 -32.5t-67 21.5q-30 25 -33 63.5z" />
<glyph unicode="&#xb8;" horiz-adv-x="554" d="M155 -392q0 29 21 50t50 21q93 0 119 49q19 36 5 96t-57 124q-17 24 -11 53.5t31 45.5q26 16 54 10.5t45 -30.5q67 -101 83 -198t-23 -169q-11 -20 -27.5 -39t-45 -39.5t-73.5 -33t-100 -12.5q-29 0 -50 21t-21 51z" />
<glyph unicode="&#xba;" horiz-adv-x="850" d="M108 901q0 143 91 238.5t227 95.5q135 0 225.5 -95t90.5 -235q0 -143 -90.5 -239t-225.5 -96q-136 0 -227 95t-91 236zM230 901q0 -92 54.5 -150.5t141.5 -58.5q85 0 140 60t55 153q0 92 -54.5 150t-140.5 58q-85 0 -140.5 -60t-55.5 -152z" />
<glyph unicode="&#xbb;" horiz-adv-x="1324" d="M122.5 115.5q2.5 31.5 25.5 51.5l304 262l-304 261q-23 20 -25.5 52t17.5 56t52.5 26t55.5 -18l371 -320q26 -21 26 -57q0 -37 -26 -58l-371 -320q-23 -20 -55.5 -17.5t-52.5 26.5t-17.5 55.5zM697.5 115.5q2.5 31.5 25.5 51.5l304 262l-304 261q-23 20 -25.5 52t17.5 56 t52 26t55 -18l371 -320q27 -22 27 -57q0 -36 -27 -58l-371 -320q-23 -20 -55 -17.5t-52 26.5t-17.5 55.5z" />
<glyph unicode="&#xbf;" horiz-adv-x="923" d="M101 -102q0 49 10 91t25 73.5t41.5 59.5t50.5 46.5t61 38t64 31t69 27.5v77q0 32 22 54t54 22t54.5 -22t22.5 -54v-114q0 -45 -17 -62.5t-63 -35.5q-59 -23 -90.5 -37t-65.5 -34t-49.5 -41t-25.5 -50.5t-10 -69.5q0 -58 22.5 -101t52.5 -65t71 -35t68 -16t53 -3 q65 0 121.5 9t80.5 16.5t24 9.5q29 12 58.5 0.5t42.5 -39.5q13 -29 1.5 -58t-39.5 -42q-115 -48 -289 -48q-81 0 -154.5 22.5t-133.5 66.5t-96 117t-36 166zM383 785q-3 38 22 68l45 54q25 30 64 32.5t68 -22.5t31.5 -63.5t-21.5 -67.5l-45 -54q-25 -30 -64 -32.5t-68 22.5 t-32 63z" />
<glyph unicode="&#xc0;" d="M57 38l483 1224q8 22 27.5 35t43.5 13q23 0 42.5 -13t28.5 -34l499 -1224q12 -29 -0.5 -58.5t-41.5 -41.5t-58 0.5t-41 41.5l-125 305h-596l-120 -304q-11 -29 -40.5 -41.5t-58.5 -1.5t-41.5 40.5t-1.5 58.5zM379 439h474l-241 590zM385 1781q-1 31 21 54t53.5 24 t54.5 -21l207 -195q23 -22 24 -53.5t-21 -54.5t-53.5 -24t-54.5 21l-207 196q-23 22 -24 53z" />
<glyph unicode="&#xc1;" d="M57 38l483 1224q8 22 27.5 35t43.5 13q23 0 42.5 -13t28.5 -34l499 -1224q12 -29 -0.5 -58.5t-41.5 -41.5t-58 0.5t-41 41.5l-125 305h-596l-120 -304q-11 -29 -40.5 -41.5t-58.5 -1.5t-41.5 40.5t-1.5 58.5zM379 439h474l-241 590zM487.5 1588q0.5 32 23.5 54l202 195 q23 22 54 21.5t53 -22.5q22 -23 22 -54.5t-23 -53.5l-202 -196q-23 -22 -54.5 -21.5t-53.5 23.5q-22 22 -21.5 54z" />
<glyph unicode="&#xc2;" d="M57 38l483 1224q8 22 27.5 35t43.5 13q23 0 42.5 -13t28.5 -34l499 -1224q12 -29 -0.5 -58.5t-41.5 -41.5t-58 0.5t-41 41.5l-125 305h-596l-120 -304q-11 -29 -40.5 -41.5t-58.5 -1.5t-41.5 40.5t-1.5 58.5zM339.5 1592q0.5 29 20.5 49l202 196q21 20 50 20t50 -20 l207 -195q21 -20 22 -49.5t-20 -51.5q-20 -22 -49.5 -22.5t-51.5 20.5l-157 148l-152 -147q-22 -22 -51.5 -21.5t-49.5 21.5q-21 23 -20.5 52zM379 439h474l-241 590z" />
<glyph unicode="&#xc3;" d="M57 38l483 1224q8 22 27.5 35t43.5 13q23 0 42.5 -13t28.5 -34l499 -1224q12 -29 -0.5 -58.5t-41.5 -41.5t-58 0.5t-41 41.5l-125 305h-596l-120 -304q-11 -29 -40.5 -41.5t-58.5 -1.5t-41.5 40.5t-1.5 58.5zM269 1600.5q-4 29.5 13 53.5q12 17 32.5 41t62.5 57t81 44 q90 26 172 -51q15 -15 37 -39q50 -55 66 -50q20 6 51 35t49 55q17 24 46.5 28t53.5 -13t28 -46.5t-13 -53.5q-14 -18 -33.5 -40.5t-61.5 -56t-81 -45.5q-61 -18 -109.5 7.5t-99.5 82.5q-50 55 -65 51q-20 -6 -51 -35t-50 -55q-17 -24 -46.5 -28.5t-53.5 12.5t-28 46.5z M379 439h474l-241 590z" />
<glyph unicode="&#xc4;" d="M57 38l483 1224q8 22 27.5 35t43.5 13q23 0 42.5 -13t28.5 -34l499 -1224q12 -29 -0.5 -58.5t-41.5 -41.5t-58 0.5t-41 41.5l-125 305h-596l-120 -304q-11 -29 -40.5 -41.5t-58.5 -1.5t-41.5 40.5t-1.5 58.5zM294.5 1640.5q-3.5 38.5 21.5 67.5l38 44q26 29 64 32.5 t67 -21.5t32.5 -63.5t-21.5 -67.5l-38 -44q-26 -29 -64 -32.5t-67 21.5t-32.5 63.5zM379 439h474l-241 590zM713 1640q-3 38 22 68l37 44q25 30 64 33t68 -22t32 -63t-22 -68l-37 -44q-25 -30 -64 -33t-68 22t-32 63z" />
<glyph unicode="&#xc5;" d="M57 38l483 1224q8 22 27.5 35t43.5 13q23 0 42.5 -13t28.5 -34l499 -1224q12 -29 -0.5 -58.5t-41.5 -41.5t-58 0.5t-41 41.5l-125 305h-596l-120 -304q-11 -29 -40.5 -41.5t-58.5 -1.5t-41.5 40.5t-1.5 58.5zM379 439h474l-241 590zM395 1720q0 92 64.5 156t155.5 64 q90 0 155 -64.5t65 -155.5t-65 -155.5t-155 -64.5q-91 0 -155.5 64t-64.5 156zM512 1720q0 -43 30 -73t73 -30t73 30t30 73t-30 73t-73 30t-73 -30t-30 -73z" />
<glyph unicode="&#xc6;" horiz-adv-x="1760" d="M32.5 -14q-9.5 30 4.5 59l624 1223q21 42 67 42h871q31 0 53.5 -22t22.5 -54t-22.5 -54t-53.5 -22h-578v-464h491q32 0 54 -22t22 -54t-22 -54t-54 -22h-491v-456h562q31 0 53.5 -22t22.5 -54t-22.5 -54t-53.5 -22h-638q-31 0 -53.5 22t-22.5 54v328h-512l-184 -362 q-14 -28 -44.5 -38t-58.5 4t-37.5 44zM435 491h434v667h-94z" />
<glyph unicode="&#xc7;" horiz-adv-x="1203" d="M118 623q0 320 180 511.5t482 191.5q142 0 292 -52q30 -11 43 -39.5t2 -58.5q-11 -29 -39.5 -42t-58.5 -2q-114 42 -239 42q-239 0 -374 -146t-135 -405t135 -405t374 -146q55 0 113.5 10t86.5 18.5t39 13.5q30 11 59 -2.5t39 -42.5q11 -30 -2 -58.5t-43 -39.5 q-111 -42 -247 -51q61 -152 2 -262q-11 -21 -28 -40t-46 -40.5t-74.5 -34t-101.5 -12.5q-32 0 -54 22.5t-22 54.5t22.5 54t53.5 22q91 0 115 46q17 32 6 86t-48 113q-246 41 -389 226t-143 468z" />
<glyph unicode="&#xc8;" horiz-adv-x="1089" d="M197 10v1224q0 32 22.5 54t53.5 22h654q32 0 54.5 -22.5t22.5 -53.5q0 -32 -23 -54.5t-54 -22.5h-578v-463h491q32 0 54.5 -22.5t22.5 -53.5t-22.5 -53.5t-54.5 -22.5h-491v-456h563q32 0 54 -22t22 -54t-22 -54t-54 -22h-639q-31 0 -53.5 22t-22.5 54zM314 1781 q-1 31 21 54t53.5 24t54.5 -21l207 -195q23 -22 24 -53.5t-21 -54.5t-53.5 -24t-54.5 21l-207 196q-23 22 -24 53z" />
<glyph unicode="&#xc9;" horiz-adv-x="1089" d="M197 10v1224q0 32 22.5 54t53.5 22h654q32 0 54.5 -22.5t22.5 -53.5q0 -32 -23 -54.5t-54 -22.5h-578v-463h491q32 0 54.5 -22.5t22.5 -53.5t-22.5 -53.5t-54.5 -22.5h-491v-456h563q32 0 54 -22t22 -54t-22 -54t-54 -22h-639q-31 0 -53.5 22t-22.5 54zM487.5 1588 q0.5 32 23.5 54l202 195q23 22 54 21.5t53 -22.5q22 -23 22 -54.5t-23 -53.5l-202 -196q-23 -22 -54.5 -21.5t-53.5 23.5q-22 22 -21.5 54z" />
<glyph unicode="&#xca;" horiz-adv-x="1089" d="M197 10v1224q0 32 22.5 54t53.5 22h654q32 0 54.5 -22.5t22.5 -53.5q0 -32 -23 -54.5t-54 -22.5h-578v-463h491q32 0 54.5 -22.5t22.5 -53.5t-22.5 -53.5t-54.5 -22.5h-491v-456h563q32 0 54 -22t22 -54t-22 -54t-54 -22h-639q-31 0 -53.5 22t-22.5 54zM318.5 1592 q0.5 29 20.5 49l202 196q21 20 50 20t50 -20l207 -195q21 -20 22 -49.5t-20 -51.5q-20 -22 -49.5 -22.5t-51.5 20.5l-157 148l-152 -147q-22 -22 -51.5 -21.5t-49.5 21.5q-21 23 -20.5 52z" />
<glyph unicode="&#xcb;" horiz-adv-x="1089" d="M197 10v1224q0 32 22.5 54t53.5 22h654q32 0 54.5 -22.5t22.5 -53.5q0 -32 -23 -54.5t-54 -22.5h-578v-463h491q32 0 54.5 -22.5t22.5 -53.5t-22.5 -53.5t-54.5 -22.5h-491v-456h563q32 0 54 -22t22 -54t-22 -54t-54 -22h-639q-31 0 -53.5 22t-22.5 54zM282.5 1640.5 q-3.5 38.5 21.5 67.5l38 44q26 29 64 32.5t67 -21.5t32.5 -63.5t-21.5 -67.5l-38 -44q-26 -29 -64 -32.5t-67 21.5t-32.5 63.5zM701 1640q-3 38 22 68l37 44q25 30 64 33t68 -22t32 -63t-22 -68l-37 -44q-25 -30 -64 -33t-68 22t-32 63z" />
<glyph unicode="&#xcc;" horiz-adv-x="546" d="M43 1781q-1 31 21 54t53.5 24t54.5 -21l207 -195q23 -22 24 -53.5t-21 -54.5t-53.5 -24t-54.5 21l-207 196q-23 22 -24 53zM197 10v1224q0 32 22.5 54t53.5 22t53.5 -22t22.5 -54v-1224q0 -32 -22.5 -54.5t-53.5 -22.5t-53.5 22.5t-22.5 54.5z" />
<glyph unicode="&#xcd;" horiz-adv-x="546" d="M145.5 1588q0.5 32 23.5 54l202 195q23 22 54 21.5t53 -22.5q22 -23 22 -54.5t-23 -53.5l-202 -196q-23 -22 -54.5 -21.5t-53.5 23.5q-22 22 -21.5 54zM197 10v1224q0 32 22.5 54t53.5 22t53.5 -22t22.5 -54v-1224q0 -32 -22.5 -54.5t-53.5 -22.5t-53.5 22.5t-22.5 54.5z " />
<glyph unicode="&#xce;" horiz-adv-x="546" d="M-2.5 1592q0.5 29 20.5 49l202 196q21 20 50 20t50 -20l207 -195q21 -20 22 -49.5t-20 -51.5q-20 -22 -49.5 -22.5t-51.5 20.5l-157 148l-152 -147q-22 -22 -51.5 -21.5t-49.5 21.5q-21 23 -20.5 52zM197 10v1224q0 32 22.5 54t53.5 22t53.5 -22t22.5 -54v-1224 q0 -32 -22.5 -54.5t-53.5 -22.5t-53.5 22.5t-22.5 54.5z" />
<glyph unicode="&#xcf;" horiz-adv-x="546" d="M-47.5 1640.5q-3.5 38.5 21.5 67.5l38 44q26 29 64 32.5t67 -21.5t32.5 -63.5t-21.5 -67.5l-38 -44q-26 -29 -64 -32.5t-67 21.5t-32.5 63.5zM197 10v1224q0 32 22.5 54t53.5 22t53.5 -22t22.5 -54v-1224q0 -32 -22.5 -54.5t-53.5 -22.5t-53.5 22.5t-22.5 54.5zM371 1640 q-3 38 22 68l37 44q25 30 64 33t68 -22t32 -63t-22 -68l-37 -44q-25 -30 -64 -33t-68 22t-32 63z" />
<glyph unicode="&#xd0;" horiz-adv-x="1402" d="M25 633q0 32 22 54t54 22h111v525q0 32 22 54t54 22h282q108 0 207 -22t193 -73t162.5 -127t110 -192.5t41.5 -261.5q0 -204 -88 -363.5t-246.5 -248t-360.5 -88.5h-301q-32 0 -54 22t-22 54v546h-111q-32 0 -54 22.5t-22 54.5zM364 86h225q83 0 160.5 20.5t147 64 t121.5 106.5t82.5 155t30.5 202q0 98 -22.5 178t-58.5 133t-86.5 93.5t-100.5 63t-107.5 36t-100 17t-84.5 3.5l-206 -1v-448h203q32 0 54.5 -22.5t22.5 -53.5t-22.5 -54t-54.5 -23h-204v-470z" />
<glyph unicode="&#xd1;" horiz-adv-x="1439" d="M197 11v1223q0 25 14.5 44.5t38.5 27.5q23 8 46.5 0.5t38.5 -27.5l755 -1035v990q0 32 22 54t54 22t54 -22t22 -54v-1223q0 -25 -14.5 -45.5t-37.5 -27.5q-23 -8 -47 0t-38 28l-756 1034v-989q0 -32 -22.5 -54.5t-53.5 -22.5t-53.5 22.5t-22.5 54.5zM403 1600.5 q-4 29.5 13 53.5q12 17 32.5 41t62.5 57t81 44q90 26 172 -51q15 -15 37 -39q50 -55 66 -50q20 6 51 35t49 55q17 24 46.5 28t53.5 -13t28 -46.5t-13 -53.5q-14 -18 -33.5 -40.5t-61.5 -56t-81 -45.5q-61 -18 -109.5 7.5t-99.5 82.5q-50 55 -65 51q-20 -6 -51 -35t-50 -55 q-17 -24 -46.5 -28.5t-53.5 12.5t-28 46.5z" />
<glyph unicode="&#xd2;" horiz-adv-x="1540" d="M116 631q0 198 84 357t233.5 248t336.5 89t336.5 -89t233.5 -248t84 -357q0 -200 -85 -363t-235 -255.5t-334 -92.5t-334 92.5t-235 255.5t-85 363zM268 631q0 -243 142 -401t360 -158t359.5 158t141.5 401q0 239 -140 390.5t-361 151.5t-361.5 -151.5t-140.5 -390.5z M540 1781q-1 31 21 54t53.5 24t54.5 -21l207 -195q23 -22 24 -53.5t-21 -54.5t-53.5 -24t-54.5 21l-207 196q-23 22 -24 53z" />
<glyph unicode="&#xd3;" horiz-adv-x="1540" d="M116 631q0 198 84 357t233.5 248t336.5 89t336.5 -89t233.5 -248t84 -357q0 -200 -85 -363t-235 -255.5t-334 -92.5t-334 92.5t-235 255.5t-85 363zM268 631q0 -243 142 -401t360 -158t359.5 158t141.5 401q0 239 -140 390.5t-361 151.5t-361.5 -151.5t-140.5 -390.5z M642.5 1588q0.5 32 23.5 54l202 195q23 22 54 21.5t53 -22.5q22 -23 22 -54.5t-23 -53.5l-202 -196q-23 -22 -54.5 -21.5t-53.5 23.5q-22 22 -21.5 54z" />
<glyph unicode="&#xd4;" horiz-adv-x="1540" d="M116 631q0 198 84 357t233.5 248t336.5 89t336.5 -89t233.5 -248t84 -357q0 -200 -85 -363t-235 -255.5t-334 -92.5t-334 92.5t-235 255.5t-85 363zM268 631q0 -243 142 -401t360 -158t359.5 158t141.5 401q0 239 -140 390.5t-361 151.5t-361.5 -151.5t-140.5 -390.5z M493.5 1592q0.5 29 20.5 49l202 196q21 20 50 20t50 -20l207 -195q21 -20 22 -49.5t-20 -51.5q-20 -22 -49.5 -22.5t-51.5 20.5l-157 148l-152 -147q-22 -22 -51.5 -21.5t-49.5 21.5q-21 23 -20.5 52z" />
<glyph unicode="&#xd5;" horiz-adv-x="1540" d="M116 631q0 198 84 357t233.5 248t336.5 89t336.5 -89t233.5 -248t84 -357q0 -200 -85 -363t-235 -255.5t-334 -92.5t-334 92.5t-235 255.5t-85 363zM268 631q0 -243 142 -401t360 -158t359.5 158t141.5 401q0 239 -140 390.5t-361 151.5t-361.5 -151.5t-140.5 -390.5z M454 1600.5q-4 29.5 13 53.5q12 17 32.5 41t62.5 57t81 44q90 26 172 -51q15 -15 37 -39q50 -55 66 -50q20 6 51 35t49 55q17 24 46.5 28t53.5 -13t28 -46.5t-13 -53.5q-14 -18 -33.5 -40.5t-61.5 -56t-81 -45.5q-61 -18 -109.5 7.5t-99.5 82.5q-50 55 -65 51 q-20 -6 -51 -35t-50 -55q-17 -24 -46.5 -28.5t-53.5 12.5t-28 46.5z" />
<glyph unicode="&#xd6;" horiz-adv-x="1540" d="M116 631q0 198 84 357t233.5 248t336.5 89t336.5 -89t233.5 -248t84 -357q0 -200 -85 -363t-235 -255.5t-334 -92.5t-334 92.5t-235 255.5t-85 363zM268 631q0 -243 142 -401t360 -158t359.5 158t141.5 401q0 239 -140 390.5t-361 151.5t-361.5 -151.5t-140.5 -390.5z M449.5 1640.5q-3.5 38.5 21.5 67.5l38 44q26 29 64 32.5t67 -21.5t32.5 -63.5t-21.5 -67.5l-38 -44q-26 -29 -64 -32.5t-67 21.5t-32.5 63.5zM868 1640q-3 38 22 68l37 44q25 30 64 33t68 -22t32 -63t-22 -68l-37 -44q-25 -30 -64 -33t-68 22t-32 63z" />
<glyph unicode="&#xd7;" horiz-adv-x="1035" d="M148 113.5q-1 31.5 21 54.5l244 261l-244 260q-22 23 -21 54.5t24 53.5t54.5 20.5t53.5 -24.5l238 -253l237 254q22 23 53.5 24t54.5 -21t24 -53.5t-21 -54.5l-244 -260l244 -261q22 -23 21 -54.5t-24 -53.5q-23 -21 -55 -20t-53 24l-237 253l-238 -253q-21 -23 -53 -24 t-55 20q-23 22 -24 53.5z" />
<glyph unicode="&#xd8;" horiz-adv-x="1539" d="M116 631q0 198 84 357t233.5 248t336.5 89q215 0 379 -119l132 160q20 25 51 28t56 -17t28 -51.5t-17 -55.5l-138 -167q162 -192 162 -472q0 -150 -50 -282t-136.5 -226.5t-208 -149t-258.5 -54.5q-211 0 -377 122l-136 -163q-20 -25 -51.5 -28t-56.5 17q-24 20 -27 51.5 t17 56.5l143 171q-166 201 -166 485zM268 631q0 -243 142 -401t360 -158q143 0 257.5 71.5t179 199.5t64.5 288q0 239 -140 390t-361 151q-222 0 -362 -151t-140 -390z" />
<glyph unicode="&#xd9;" horiz-adv-x="1488" d="M182 550v684q0 32 22 54t54 22t54 -22t22 -54l1 -684q0 -224 108 -351t301 -127q192 0 301 127t109 351v684q0 32 22 54t54 22t54.5 -22.5t22.5 -53.5l-1 -684q-1 -288 -153.5 -459t-408.5 -171t-409 171.5t-153 458.5zM514 1781q-1 31 21 54t53.5 24t54.5 -21l207 -195 q23 -22 24 -53.5t-21 -54.5t-53.5 -24t-54.5 21l-207 196q-23 22 -24 53z" />
<glyph unicode="&#xda;" horiz-adv-x="1488" d="M182 550v684q0 32 22 54t54 22t54 -22t22 -54l1 -684q0 -224 108 -351t301 -127q192 0 301 127t109 351v684q0 32 22 54t54 22t54.5 -22.5t22.5 -53.5l-1 -684q-1 -288 -153.5 -459t-408.5 -171t-409 171.5t-153 458.5zM616.5 1588q0.5 32 23.5 54l202 195q23 22 54 21.5 t53 -22.5q22 -23 22 -54.5t-23 -53.5l-202 -196q-23 -22 -54.5 -21.5t-53.5 23.5q-22 22 -21.5 54z" />
<glyph unicode="&#xdb;" horiz-adv-x="1488" d="M182 550v684q0 32 22 54t54 22t54 -22t22 -54l1 -684q0 -224 108 -351t301 -127q192 0 301 127t109 351v684q0 32 22 54t54 22t54.5 -22.5t22.5 -53.5l-1 -684q-1 -288 -153.5 -459t-408.5 -171t-409 171.5t-153 458.5zM467.5 1592q0.5 29 20.5 49l202 196q21 20 50 20 t50 -20l207 -195q21 -20 22 -49.5t-20 -51.5q-20 -22 -49.5 -22.5t-51.5 20.5l-157 148l-152 -147q-22 -22 -51.5 -21.5t-49.5 21.5q-21 23 -20.5 52z" />
<glyph unicode="&#xdc;" horiz-adv-x="1488" d="M182 550v684q0 32 22 54t54 22t54 -22t22 -54l1 -684q0 -224 108 -351t301 -127q192 0 301 127t109 351v684q0 32 22 54t54 22t54.5 -22.5t22.5 -53.5l-1 -684q-1 -288 -153.5 -459t-408.5 -171t-409 171.5t-153 458.5zM423.5 1640.5q-3.5 38.5 21.5 67.5l38 44 q26 29 64 32.5t67 -21.5t32.5 -63.5t-21.5 -67.5l-38 -44q-26 -29 -64 -32.5t-67 21.5t-32.5 63.5zM842 1640q-3 38 22 68l37 44q25 30 64 33t68 -22t32 -63t-22 -68l-37 -44q-25 -30 -64 -33t-68 22t-32 63z" />
<glyph unicode="&#xdd;" horiz-adv-x="1144" d="M40.5 1248.5q6.5 31.5 32.5 48.5t57.5 11t48.5 -32l392 -584l405 585q18 26 49 31.5t57 -12.5t32 -49t-12 -57l-456 -657v-523q0 -32 -22 -54t-54 -22t-54 22t-22 54v524l-442 657q-18 26 -11.5 57.5zM494.5 1588q0.5 32 23.5 54l202 195q23 22 54 21.5t53 -22.5 q22 -23 22 -54.5t-23 -53.5l-202 -196q-23 -22 -54.5 -21.5t-53.5 23.5q-22 22 -21.5 54z" />
<glyph unicode="&#xde;" horiz-adv-x="1166" d="M197 10v1224q0 32 22.5 54t53.5 22t53.5 -22t22.5 -54v-189h330q51 0 106.5 -15.5t110.5 -49t98.5 -80.5t70.5 -116t27 -149q0 -173 -123 -296t-297 -123h-323v-206q0 -32 -22.5 -54t-53.5 -22t-53.5 22t-22.5 54zM349 369h323q113 0 190.5 77t77.5 189q0 68 -29 120.5 t-72 80.5t-85 42t-76 14l-329 1v-524z" />
<glyph unicode="&#xdf;" horiz-adv-x="1218" d="M170 -369v1187q0 133 45.5 244.5t141.5 183.5t226 72q185 0 308 -122t123 -307v-1q0 -27 -17 -48t-43 -27q-12 -2 -43 -8t-48 -10t-45 -11.5t-43.5 -18t-32.5 -25.5t-25 -36.5t-8 -48.5q0 -30 8 -52.5t20.5 -37t33.5 -26t41 -19t49 -16.5q3 -1 5.5 -1.5t4.5 -1.5 q31 -10 48 -16.5t49 -21t51 -28t43.5 -36.5t38 -48.5t23.5 -62.5t10 -79q0 -128 -93 -208.5t-241 -80.5q-44 0 -89 8t-65 15t-28 11q-29 13 -41 42t0 57q12 29 41.5 41t58.5 0q54 -21 123 -21q15 0 31.5 1.5t45.5 9t50.5 21t38 40.5t16.5 64q0 62 -32 89t-127 58 q-65 21 -109.5 44t-82.5 57.5t-56.5 83.5t-18.5 114q0 126 84.5 201.5t214.5 91.5q-20 101 -93 159.5t-176 58.5q-68 0 -120 -29.5t-82.5 -80t-45.5 -111t-15 -127.5v-1187q0 -31 -22.5 -53.5t-53.5 -22.5q-32 0 -54.5 22t-22.5 54z" />
<glyph unicode="&#xe0;" horiz-adv-x="1004" d="M109 222q0 53 16 95t41.5 70t64 49t77.5 33t88 21l302 56v118q0 54 -60.5 93t-129.5 39q-73 0 -287 -45q-29 -6 -54 10t-32 45q-6 29 10 54.5t45 31.5q230 47 318 47q82 0 158 -34t126.5 -98t50.5 -143v-658q0 -30 -21.5 -51t-51.5 -21q-25 0 -44.5 15.5t-26.5 41.5 q-178 -72 -280 -72q-135 0 -222.5 86t-87.5 217zM243 1396q-1 31 21 54t53.5 24t54.5 -21l207 -195q23 -22 24 -53.5t-21 -54.5t-53.5 -24t-54.5 21l-207 196q-23 22 -24 53zM253 222q0 -72 45.5 -115.5t120.5 -43.5q97 0 279 85v252l-276 -52q-101 -19 -135 -46.5 t-34 -79.5z" />
<glyph unicode="&#xe1;" horiz-adv-x="1004" d="M109 222q0 53 16 95t41.5 70t64 49t77.5 33t88 21l302 56v118q0 54 -60.5 93t-129.5 39q-73 0 -287 -45q-29 -6 -54 10t-32 45q-6 29 10 54.5t45 31.5q230 47 318 47q82 0 158 -34t126.5 -98t50.5 -143v-658q0 -30 -21.5 -51t-51.5 -21q-25 0 -44.5 15.5t-26.5 41.5 q-178 -72 -280 -72q-135 0 -222.5 86t-87.5 217zM253 222q0 -72 45.5 -115.5t120.5 -43.5q97 0 279 85v252l-276 -52q-101 -19 -135 -46.5t-34 -79.5zM398.5 1203q0.5 32 23.5 54l202 195q23 22 54 21.5t53 -22.5q22 -23 22 -54.5t-23 -53.5l-202 -196q-23 -22 -54.5 -21.5 t-53.5 23.5q-22 22 -21.5 54z" />
<glyph unicode="&#xe2;" horiz-adv-x="1004" d="M109 222q0 53 16 95t41.5 70t64 49t77.5 33t88 21l302 56v118q0 54 -60.5 93t-129.5 39q-73 0 -287 -45q-29 -6 -54 10t-32 45q-6 29 10 54.5t45 31.5q230 47 318 47q82 0 158 -34t126.5 -98t50.5 -143v-658q0 -30 -21.5 -51t-51.5 -21q-25 0 -44.5 15.5t-26.5 41.5 q-178 -72 -280 -72q-135 0 -222.5 86t-87.5 217zM206.5 1207q0.5 29 20.5 49l202 196q21 20 50 20t50 -20l207 -195q21 -20 22 -49.5t-20 -51.5q-20 -22 -49.5 -22.5t-51.5 20.5l-157 148l-152 -147q-22 -22 -51.5 -21.5t-49.5 21.5q-21 23 -20.5 52zM253 222 q0 -72 45.5 -115.5t120.5 -43.5q97 0 279 85v252l-276 -52q-101 -19 -135 -46.5t-34 -79.5z" />
<glyph unicode="&#xe3;" horiz-adv-x="1004" d="M109 222q0 53 16 95t41.5 70t64 49t77.5 33t88 21l302 56v118q0 54 -60.5 93t-129.5 39q-73 0 -287 -45q-29 -6 -54 10t-32 45q-6 29 10 54.5t45 31.5q230 47 318 47q82 0 158 -34t126.5 -98t50.5 -143v-658q0 -30 -21.5 -51t-51.5 -21q-25 0 -44.5 15.5t-26.5 41.5 q-178 -72 -280 -72q-135 0 -222.5 86t-87.5 217zM156 1215.5q-4 29.5 13 53.5q12 17 32.5 41t62.5 57t81 44q90 26 172 -51q15 -15 37 -39q50 -55 66 -50q20 6 51 35t49 55q17 24 46.5 28t53.5 -13t28 -46.5t-13 -53.5q-14 -18 -33.5 -40.5t-61.5 -56t-81 -45.5 q-61 -18 -109.5 7.5t-99.5 82.5q-50 55 -65 51q-20 -6 -51 -35t-50 -55q-17 -24 -46.5 -28.5t-53.5 12.5t-28 46.5zM253 222q0 -72 45.5 -115.5t120.5 -43.5q97 0 279 85v252l-276 -52q-101 -19 -135 -46.5t-34 -79.5z" />
<glyph unicode="&#xe4;" horiz-adv-x="1004" d="M109 222q0 53 16 95t41.5 70t64 49t77.5 33t88 21l302 56v118q0 54 -60.5 93t-129.5 39q-73 0 -287 -45q-29 -6 -54 10t-32 45q-6 29 10 54.5t45 31.5q230 47 318 47q82 0 158 -34t126.5 -98t50.5 -143v-658q0 -30 -21.5 -51t-51.5 -21q-25 0 -44.5 15.5t-26.5 41.5 q-178 -72 -280 -72q-135 0 -222.5 86t-87.5 217zM171.5 1255.5q-3.5 38.5 21.5 67.5l38 44q26 29 64 32.5t67 -21.5t32.5 -63.5t-21.5 -67.5l-38 -44q-26 -29 -64 -32.5t-67 21.5t-32.5 63.5zM253 222q0 -72 45.5 -115.5t120.5 -43.5q97 0 279 85v252l-276 -52 q-101 -19 -135 -46.5t-34 -79.5zM590 1255q-3 38 22 68l37 44q25 30 64 33t68 -22t32 -63t-22 -68l-37 -44q-25 -30 -64 -33t-68 22t-32 63z" />
<glyph unicode="&#xe5;" horiz-adv-x="1004" d="M109 222q0 53 16 95t41.5 70t64 49t77.5 33t88 21l302 56v118q0 54 -60.5 93t-129.5 39q-73 0 -287 -45q-29 -6 -54 10t-32 45q-6 29 10 54.5t45 31.5q230 47 318 47q82 0 158 -34t126.5 -98t50.5 -143v-658q0 -30 -21.5 -51t-51.5 -21q-25 0 -44.5 15.5t-26.5 41.5 q-178 -72 -280 -72q-135 0 -222.5 86t-87.5 217zM253 222q0 -72 45.5 -115.5t120.5 -43.5q97 0 279 85v252l-276 -52q-101 -19 -135 -46.5t-34 -79.5zM288 1335q0 91 64 155.5t156 64.5q90 0 155 -64.5t65 -155.5t-65 -155.5t-155 -64.5q-92 0 -156 64.5t-64 155.5z M405 1335q0 -43 30 -73t73 -30t73 30t30 73t-30 73t-73 30t-73 -30t-30 -73z" />
<glyph unicode="&#xe6;" horiz-adv-x="1613" d="M99 223q0 43 12 80t29 62t44.5 46t50 33t55.5 22.5t50.5 14.5t43.5 9l280 56v104q0 54 -60 101t-128 47q-81 0 -264 -44q-28 -7 -53 8.5t-33 44.5q-7 29 8.5 54.5t43.5 32.5q202 48 298 48q82 0 162.5 -43t129.5 -115q129 157 342 157q197 0 311 -129.5t114 -354.5 q0 -28 -19.5 -48.5t-47.5 -22.5l-657 -41q17 -129 97.5 -203t208.5 -78q18 -1 36.5 0t34.5 2.5t31.5 4t28 5.5t24 6t20.5 5.5t15 4.5t9 4l4 1q28 12 55.5 1t38.5 -39q12 -28 1 -55.5t-39 -38.5q-9 -4 -34.5 -13t-87 -21t-121.5 -12q-208 0 -341 134q-238 -133 -380 -133 q-136 0 -224.5 85.5t-88.5 217.5zM242 223q0 -72 47 -116t123 -44q102 0 299 110q-46 102 -47 226l-252 -50q-102 -20 -136 -47.5t-34 -78.5zM808 489l580 36q-35 272 -278 272q-142 0 -219 -89.5t-83 -218.5z" />
<glyph unicode="&#xe7;" horiz-adv-x="970" d="M114 430q0 221 134.5 366t353.5 145q103 0 210 -32q33 -11 49 -38t7 -58q-8 -30 -36 -45.5t-58 -6.5q-92 28 -172 28q-155 0 -245 -100.5t-90 -258.5t90 -258.5t245 -100.5q18 0 35 1.5t38.5 5t31 5.5t37 9t33.5 8q31 7 57.5 -9t34.5 -47q8 -30 -8.5 -57.5t-46.5 -34.5 q-102 -27 -155 -31q63 -152 4 -261q-11 -20 -27.5 -39t-45 -39.5t-73.5 -33t-100 -12.5q-29 0 -50 21t-21 51q0 29 21 50t50 21q93 0 119 49q18 33 7 87.5t-47 113.5q-175 34 -278.5 171.5t-103.5 329.5z" />
<glyph unicode="&#xe8;" horiz-adv-x="1077" d="M115 398v78q0 88 29.5 170.5t84 148.5t141.5 105.5t193 39.5q197 0 311.5 -129.5t114.5 -353.5q0 -29 -19.5 -49.5t-47.5 -21.5l-660 -41q17 -135 103.5 -208.5t219.5 -73.5q99 0 188 34q28 11 56 0t39 -38q12 -28 1 -55.5t-39 -38.5q-113 -46 -245 -46 q-212 0 -341 133.5t-129 345.5zM259 488l583 36q-31 272 -279 272q-97 0 -166.5 -45t-101.5 -112.5t-36 -150.5zM295 1396q-1 31 21 54t53.5 24t54.5 -21l207 -195q23 -22 24 -53.5t-21 -54.5t-53.5 -24t-54.5 21l-207 196q-23 22 -24 53z" />
<glyph unicode="&#xe9;" horiz-adv-x="1077" d="M115 398v78q0 88 29.5 170.5t84 148.5t141.5 105.5t193 39.5q197 0 311.5 -129.5t114.5 -353.5q0 -29 -19.5 -49.5t-47.5 -21.5l-660 -41q17 -135 103.5 -208.5t219.5 -73.5q99 0 188 34q28 11 56 0t39 -38q12 -28 1 -55.5t-39 -38.5q-113 -46 -245 -46 q-212 0 -341 133.5t-129 345.5zM259 488l583 36q-31 272 -279 272q-97 0 -166.5 -45t-101.5 -112.5t-36 -150.5zM459.5 1203q0.5 32 23.5 54l202 195q23 22 54 21.5t53 -22.5q22 -23 22 -54.5t-23 -53.5l-202 -196q-23 -22 -54.5 -21.5t-53.5 23.5q-22 22 -21.5 54z" />
<glyph unicode="&#xea;" horiz-adv-x="1077" d="M115 398v78q0 88 29.5 170.5t84 148.5t141.5 105.5t193 39.5q197 0 311.5 -129.5t114.5 -353.5q0 -29 -19.5 -49.5t-47.5 -21.5l-660 -41q17 -135 103.5 -208.5t219.5 -73.5q99 0 188 34q28 11 56 0t39 -38q12 -28 1 -55.5t-39 -38.5q-113 -46 -245 -46 q-212 0 -341 133.5t-129 345.5zM259 488l583 36q-31 272 -279 272q-97 0 -166.5 -45t-101.5 -112.5t-36 -150.5zM282.5 1207q0.5 29 20.5 49l202 196q21 20 50 20t50 -20l207 -195q21 -20 22 -49.5t-20 -51.5q-20 -22 -49.5 -22.5t-51.5 20.5l-157 148l-152 -147 q-22 -22 -51.5 -21.5t-49.5 21.5q-21 23 -20.5 52z" />
<glyph unicode="&#xeb;" horiz-adv-x="1077" d="M115 398v78q0 88 29.5 170.5t84 148.5t141.5 105.5t193 39.5q197 0 311.5 -129.5t114.5 -353.5q0 -29 -19.5 -49.5t-47.5 -21.5l-660 -41q17 -135 103.5 -208.5t219.5 -73.5q99 0 188 34q28 11 56 0t39 -38q12 -28 1 -55.5t-39 -38.5q-113 -46 -245 -46 q-212 0 -341 133.5t-129 345.5zM237.5 1255.5q-3.5 38.5 21.5 67.5l38 44q26 29 64 32.5t67 -21.5t32.5 -63.5t-21.5 -67.5l-38 -44q-26 -29 -64 -32.5t-67 21.5t-32.5 63.5zM259 488l583 36q-31 272 -279 272q-97 0 -166.5 -45t-101.5 -112.5t-36 -150.5zM656 1255 q-3 38 22 68l37 44q25 30 64 33t68 -22t32 -63t-22 -68l-37 -44q-25 -30 -64 -33t-68 22t-32 63z" />
<glyph unicode="&#xec;" horiz-adv-x="488" d="M14 1396q-1 31 21 54t53.5 24t54.5 -21l207 -195q23 -22 24 -53.5t-21 -54.5t-53.5 -24t-54.5 21l-207 196q-23 22 -24 53zM168 10v838q0 32 22 54t54 22t54 -22t22 -54v-838q0 -32 -22 -54t-54 -22t-54 22t-22 54z" />
<glyph unicode="&#xed;" horiz-adv-x="488" d="M116.5 1203q0.5 32 23.5 54l202 195q23 22 54 21.5t53 -22.5q22 -23 22 -54.5t-23 -53.5l-202 -196q-23 -22 -54.5 -21.5t-53.5 23.5q-22 22 -21.5 54zM168 10v838q0 32 22 54t54 22t54 -22t22 -54v-838q0 -32 -22 -54t-54 -22t-54 22t-22 54z" />
<glyph unicode="&#xee;" horiz-adv-x="508" d="M-22.5 1207q0.5 29 20.5 49l202 196q21 20 50 20t50 -20l207 -195q21 -20 22 -49.5t-20 -51.5q-20 -22 -49.5 -22.5t-51.5 20.5l-157 148l-152 -147q-22 -22 -51.5 -21.5t-49.5 21.5q-21 23 -20.5 52zM178 10v838q0 32 22 54t54 22t54 -22t22 -54v-838q0 -32 -22 -54 t-54 -22t-54 22t-22 54z" />
<glyph unicode="&#xef;" horiz-adv-x="508" d="M-67.5 1255.5q-3.5 38.5 21.5 67.5l38 44q26 29 64 32.5t67 -21.5t32.5 -63.5t-21.5 -67.5l-38 -44q-26 -29 -64 -32.5t-67 21.5t-32.5 63.5zM178 10v838q0 32 22 54t54 22t54 -22t22 -54v-838q0 -32 -22 -54t-54 -22t-54 22t-22 54zM351 1255q-3 38 22 68l37 44 q25 30 64 33t68 -22t32 -63t-22 -68l-37 -44q-25 -30 -64 -33t-68 22t-32 63z" />
<glyph unicode="&#xf0;" horiz-adv-x="1055" d="M105 348q-3 181 127 297t315 116q54 0 133 -22q-85 178 -162 301l-195 -62q-28 -9 -53 3.5t-34 40.5q-8 27 5 51.5t40 33.5l163 52q-21 34 -30 47q-17 25 -12 54t30 46t54.5 12t46.5 -30q15 -23 52 -83l3 1l216 70q26 8 51.5 -5t33.5 -39q9 -27 -4 -52.5t-40 -34.5 l-185 -60h-1q286 -467 286 -748q0 -185 -118 -301.5t-305 -116.5q-175 0 -294.5 122.5t-122.5 306.5zM249 350q2 -125 79 -206.5t194 -81.5q126 0 202 75t76 200q0 84 -42 217q-39 23 -99 43.5t-112 20.5q-124 0 -212 -73.5t-86 -194.5z" />
<glyph unicode="&#xf1;" horiz-adv-x="1156" d="M168 10v838q0 32 22 54t54 22t54 -22t22 -54v-10q148 101 306 101q180 0 275.5 -101t95.5 -289v-539q0 -32 -22.5 -54t-53.5 -22t-53.5 22t-22.5 54v539q0 125 -52 181.5t-167 56.5q-69 0 -137.5 -27.5t-105 -54.5t-63.5 -54v-641q0 -32 -22 -54t-54 -22t-54 22t-22 54z M252 1215.5q-4 29.5 13 53.5q12 17 32.5 41t62.5 57t81 44q90 26 172 -51q15 -15 37 -39q50 -55 66 -50q20 6 51 35t49 55q17 24 46.5 28t53.5 -13t28 -46.5t-13 -53.5q-14 -18 -33.5 -40.5t-61.5 -56t-81 -45.5q-61 -18 -109.5 7.5t-99.5 82.5q-50 55 -65 51 q-20 -6 -51 -35t-50 -55q-17 -24 -46.5 -28.5t-53.5 12.5t-28 46.5z" />
<glyph unicode="&#xf2;" horiz-adv-x="1191" d="M109 426q0 144 63.5 262t174.5 185t248 67q208 0 347.5 -145t139.5 -362q0 -220 -139.5 -367t-347.5 -147t-347 145t-139 362zM261 426q0 -154 94.5 -254t239.5 -100t239.5 102t94.5 259q0 154 -94.5 254t-239.5 100t-239.5 -102t-94.5 -259zM365 1396q-1 31 21 54 t53.5 24t54.5 -21l207 -195q23 -22 24 -53.5t-21 -54.5t-53.5 -24t-54.5 21l-207 196q-23 22 -24 53z" />
<glyph unicode="&#xf3;" horiz-adv-x="1191" d="M109 426q0 144 63.5 262t174.5 185t248 67q208 0 347.5 -145t139.5 -362q0 -220 -139.5 -367t-347.5 -147t-347 145t-139 362zM261 426q0 -154 94.5 -254t239.5 -100t239.5 102t94.5 259q0 154 -94.5 254t-239.5 100t-239.5 -102t-94.5 -259zM467.5 1203q0.5 32 23.5 54 l202 195q23 22 54 21.5t53 -22.5q22 -23 22 -54.5t-23 -53.5l-202 -196q-23 -22 -54.5 -21.5t-53.5 23.5q-22 22 -21.5 54z" />
<glyph unicode="&#xf4;" horiz-adv-x="1191" d="M109 426q0 144 63.5 262t174.5 185t248 67q208 0 347.5 -145t139.5 -362q0 -220 -139.5 -367t-347.5 -147t-347 145t-139 362zM261 426q0 -154 94.5 -254t239.5 -100t239.5 102t94.5 259q0 154 -94.5 254t-239.5 100t-239.5 -102t-94.5 -259zM319.5 1207q0.5 29 20.5 49 l202 196q21 20 50 20t50 -20l207 -195q21 -20 22 -49.5t-20 -51.5q-20 -22 -49.5 -22.5t-51.5 20.5l-157 148l-152 -147q-22 -22 -51.5 -21.5t-49.5 21.5q-21 23 -20.5 52z" />
<glyph unicode="&#xf5;" horiz-adv-x="1191" d="M109 426q0 144 63.5 262t174.5 185t248 67q208 0 347.5 -145t139.5 -362q0 -220 -139.5 -367t-347.5 -147t-347 145t-139 362zM261 426q0 -154 94.5 -254t239.5 -100t239.5 102t94.5 259q0 154 -94.5 254t-239.5 100t-239.5 -102t-94.5 -259zM279 1215.5q-4 29.5 13 53.5 q12 17 32.5 41t62.5 57t81 44q90 26 172 -51q15 -15 37 -39q50 -55 66 -50q20 6 51 35t49 55q17 24 46.5 28t53.5 -13t28 -46.5t-13 -53.5q-14 -18 -33.5 -40.5t-61.5 -56t-81 -45.5q-61 -18 -109.5 7.5t-99.5 82.5q-50 55 -65 51q-20 -6 -51 -35t-50 -55 q-17 -24 -46.5 -28.5t-53.5 12.5t-28 46.5z" />
<glyph unicode="&#xf6;" horiz-adv-x="1191" d="M109 426q0 144 63.5 262t174.5 185t248 67q208 0 347.5 -145t139.5 -362q0 -220 -139.5 -367t-347.5 -147t-347 145t-139 362zM261 426q0 -154 94.5 -254t239.5 -100t239.5 102t94.5 259q0 154 -94.5 254t-239.5 100t-239.5 -102t-94.5 -259zM274.5 1255.5 q-3.5 38.5 21.5 67.5l38 44q26 29 64 32.5t67 -21.5t32.5 -63.5t-21.5 -67.5l-38 -44q-26 -29 -64 -32.5t-67 21.5t-32.5 63.5zM693 1255q-3 38 22 68l37 44q25 30 64 33t68 -22t32 -63t-22 -68l-37 -44q-25 -30 -64 -33t-68 22t-32 63z" />
<glyph unicode="&#xf7;" horiz-adv-x="1313" d="M141 434q0 32 22 54t54 22h878q31 0 53.5 -22t22.5 -54t-22.5 -54t-53.5 -22h-878q-32 0 -54 22t-22 54zM534.5 -12q-2.5 39 23.5 68l46 53q25 29 63.5 32t67.5 -23t31.5 -64t-22.5 -67l-46 -54q-25 -29 -64 -31.5t-67 22.5q-30 25 -32.5 64zM544 813.5q-3 38.5 23 67.5 l47 53q25 29 63.5 31.5t67.5 -22.5t31.5 -63.5t-22.5 -67.5l-46 -53q-25 -29 -64 -32t-68 23q-29 25 -32 63.5z" />
<glyph unicode="&#xf8;" horiz-adv-x="1244" d="M136 426q0 220 139 366.5t347 146.5q144 0 259 -73l90 112q20 25 51.5 28t56.5 -17q24 -20 27 -51.5t-17 -56.5l-94 -116q113 -140 113 -333q0 -219 -139 -366t-347 -147q-142 0 -259 73l-89 -112q-20 -25 -51.5 -28t-56.5 17q-24 20 -27 51.5t17 55.5l93 118 q-113 138 -113 332zM288 426q0 -154 94.5 -254t239.5 -100t239.5 101.5t94.5 258.5q0 154 -94.5 254.5t-239.5 100.5t-239.5 -102t-94.5 -259z" />
<glyph unicode="&#xf9;" horiz-adv-x="1155" d="M159 315v533q0 32 22.5 54t53.5 22t53.5 -22t22.5 -54v-533q0 -124 56 -183.5t173 -59.5q97 0 174.5 43.5t120.5 89.5v643q0 32 22.5 54t53.5 22t53.5 -22t22.5 -54v-838q0 -32 -22.5 -54t-53.5 -22t-53.5 22t-22.5 54v6q-142 -97 -295 -97q-180 0 -280.5 105t-100.5 291 zM325 1396q-1 31 21 54t53.5 24t54.5 -21l207 -195q23 -22 24 -53.5t-21 -54.5t-53.5 -24t-54.5 21l-207 196q-23 22 -24 53z" />
<glyph unicode="&#xfa;" horiz-adv-x="1155" d="M159 315v533q0 32 22.5 54t53.5 22t53.5 -22t22.5 -54v-533q0 -124 56 -183.5t173 -59.5q97 0 174.5 43.5t120.5 89.5v643q0 32 22.5 54t53.5 22t53.5 -22t22.5 -54v-838q0 -32 -22.5 -54t-53.5 -22t-53.5 22t-22.5 54v6q-142 -97 -295 -97q-180 0 -280.5 105t-100.5 291 zM496.5 1203q0.5 32 23.5 54l202 195q23 22 54 21.5t53 -22.5q22 -23 22 -54.5t-23 -53.5l-202 -196q-23 -22 -54.5 -21.5t-53.5 23.5q-22 22 -21.5 54z" />
<glyph unicode="&#xfb;" horiz-adv-x="1155" d="M159 315v533q0 32 22.5 54t53.5 22t53.5 -22t22.5 -54v-533q0 -124 56 -183.5t173 -59.5q97 0 174.5 43.5t120.5 89.5v643q0 32 22.5 54t53.5 22t53.5 -22t22.5 -54v-838q0 -32 -22.5 -54t-53.5 -22t-53.5 22t-22.5 54v6q-142 -97 -295 -97q-180 0 -280.5 105t-100.5 291 zM302.5 1207q0.5 29 20.5 49l202 196q21 20 50 20t50 -20l207 -195q21 -20 22 -49.5t-20 -51.5q-20 -22 -49.5 -22.5t-51.5 20.5l-157 148l-152 -147q-22 -22 -51.5 -21.5t-49.5 21.5q-21 23 -20.5 52z" />
<glyph unicode="&#xfc;" horiz-adv-x="1155" d="M159 315v533q0 32 22.5 54t53.5 22t53.5 -22t22.5 -54v-533q0 -124 56 -183.5t173 -59.5q97 0 174.5 43.5t120.5 89.5v643q0 32 22.5 54t53.5 22t53.5 -22t22.5 -54v-838q0 -32 -22.5 -54t-53.5 -22t-53.5 22t-22.5 54v6q-142 -97 -295 -97q-180 0 -280.5 105t-100.5 291 zM257.5 1255.5q-3.5 38.5 21.5 67.5l38 44q26 29 64 32.5t67 -21.5t32.5 -63.5t-21.5 -67.5l-38 -44q-26 -29 -64 -32.5t-67 21.5t-32.5 63.5zM676 1255q-3 38 22 68l37 44q25 30 64 33t68 -22t32 -63t-22 -68l-37 -44q-25 -30 -64 -33t-68 22t-32 63z" />
<glyph unicode="&#xfd;" horiz-adv-x="988" d="M24 -363q-1 31 20 54t53 25q111 4 177 48t107 142l31 74l-349 836q-12 29 0 58.5t41 41.5t58.5 0t41.5 -41l290 -696l290 698q12 29 41.5 41t58.5 0t41 -41.5t0 -58.5l-403 -971q-115 -278 -419 -284q-32 -1 -55 20t-24 54zM416.5 1203q0.5 32 23.5 54l202 195 q23 22 54 21.5t53 -22.5q22 -23 22 -54.5t-23 -53.5l-202 -196q-23 -22 -54.5 -21.5t-53.5 23.5q-22 22 -21.5 54z" />
<glyph unicode="&#xfe;" horiz-adv-x="1138" d="M171 -368v1610q0 32 22.5 54t53.5 22t53.5 -22t22.5 -54v-355q143 53 230 53q213 0 343.5 -140.5t130.5 -370.5t-130.5 -370.5t-343.5 -140.5q-83 0 -230 52v-338q0 -32 -22.5 -54.5t-53.5 -22.5t-53.5 22.5t-22.5 54.5zM323 133q155 -63 230 -63q150 0 236 95.5 t86 263.5t-86 263t-236 95q-40 0 -109 -20.5t-121 -42.5v-591z" />
<glyph unicode="&#xff;" horiz-adv-x="988" d="M24 -363q-1 31 20 54t53 25q111 4 177 48t107 142l31 74l-349 836q-12 29 0 58.5t41 41.5t58.5 0t41.5 -41l290 -696l290 698q12 29 41.5 41t58.5 0t41 -41.5t0 -58.5l-403 -971q-115 -278 -419 -284q-32 -1 -55 20t-24 54zM193.5 1255.5q-3.5 38.5 21.5 67.5l38 44 q26 29 64 32.5t67 -21.5t32.5 -63.5t-21.5 -67.5l-38 -44q-26 -29 -64 -32.5t-67 21.5t-32.5 63.5zM612 1255q-3 38 22 68l37 44q25 30 64 33t68 -22t32 -63t-22 -68l-37 -44q-25 -30 -64 -33t-68 22t-32 63z" />
<glyph unicode="&#x152;" horiz-adv-x="1975" d="M116 631q0 149 49.5 278t136 220t208.5 143.5t262 52.5q172 0 313 -76q5 26 26 43.5t49 17.5h654q32 0 54 -22t22 -54t-22 -54t-54 -22h-578v-464h491q31 0 53.5 -22t22.5 -54t-22.5 -54t-53.5 -22h-491v-456h562q32 0 54 -22t22 -54t-22 -54t-54 -22h-638 q-29 0 -50 18.5t-25 46.5q-143 -79 -313 -79q-184 0 -334.5 92.5t-236 255.5t-85.5 363zM268 631q0 -157 65.5 -285t181.5 -201t257 -73q179 0 312 112v884q-134 105 -312 105q-219 0 -361.5 -153t-142.5 -389z" />
<glyph unicode="&#x153;" horiz-adv-x="1878" d="M99 426q0 144 63.5 262t174.5 185t248 67q127 0 232.5 -57.5t171.5 -158.5q55 99 153.5 158t230.5 59q198 0 312.5 -129.5t114.5 -354.5q0 -28 -19.5 -48.5t-48.5 -22.5l-660 -41q16 -129 97.5 -203t209.5 -78q18 -1 37 0t35 2.5t31.5 4t28.5 5.5t24.5 6t20.5 5.5t15 4.5 t9 4l4 1q28 12 55.5 1t39.5 -39q11 -28 0 -55.5t-39 -38.5q-9 -4 -34.5 -13t-87 -21t-122.5 -12q-137 0 -242 58t-165 162q-66 -102 -171 -160.5t-233 -58.5q-208 0 -347 145t-139 361zM251 426q0 -154 94.5 -254t239.5 -100t239.5 102t94.5 259q0 154 -94.5 254t-239.5 100 t-239.5 -102t-94.5 -259zM1070 489l582 36q-35 272 -279 272q-73 0 -131 -25.5t-94 -69.5t-56 -98t-22 -115z" />
<glyph unicode="&#x178;" horiz-adv-x="1144" d="M40.5 1248.5q6.5 31.5 32.5 48.5t57.5 11t48.5 -32l392 -584l405 585q18 26 49 31.5t57 -12.5t32 -49t-12 -57l-456 -657v-523q0 -32 -22 -54t-54 -22t-54 22t-22 54v524l-442 657q-18 26 -11.5 57.5zM251.5 1640.5q-3.5 38.5 21.5 67.5l38 44q26 29 64 32.5t67 -21.5 t32.5 -63.5t-21.5 -67.5l-38 -44q-26 -29 -64 -32.5t-67 21.5t-32.5 63.5zM670 1640q-3 38 22 68l37 44q25 30 64 33t68 -22t32 -63t-22 -68l-37 -44q-25 -30 -64 -33t-68 22t-32 63z" />
<glyph unicode="&#x2c6;" horiz-adv-x="937" d="M189.5 1207q0.5 29 20.5 49l202 196q21 20 50 20t50 -20l207 -195q21 -20 22 -49.5t-20 -51.5q-20 -22 -49.5 -22.5t-51.5 20.5l-157 148l-152 -147q-22 -22 -51.5 -21.5t-49.5 21.5q-21 23 -20.5 52z" />
<glyph unicode="&#x2dc;" horiz-adv-x="904" d="M146 1215.5q-4 29.5 13 53.5q12 17 32.5 41t62.5 57t81 44q90 26 172 -51q15 -15 37 -39q50 -55 66 -50q20 6 51 35t49 55q17 24 46.5 28t53.5 -13t28 -46.5t-13 -53.5q-14 -18 -33.5 -40.5t-61.5 -56t-81 -45.5q-61 -18 -109.5 7.5t-99.5 82.5q-50 55 -65 51 q-20 -6 -51 -35t-50 -55q-17 -24 -46.5 -28.5t-53.5 12.5t-28 46.5z" />
<glyph unicode="&#x2000;" horiz-adv-x="970" />
<glyph unicode="&#x2001;" horiz-adv-x="1940" />
<glyph unicode="&#x2002;" horiz-adv-x="970" />
<glyph unicode="&#x2003;" horiz-adv-x="1940" />
<glyph unicode="&#x2004;" horiz-adv-x="646" />
<glyph unicode="&#x2005;" horiz-adv-x="485" />
<glyph unicode="&#x2006;" horiz-adv-x="323" />
<glyph unicode="&#x2007;" horiz-adv-x="323" />
<glyph unicode="&#x2008;" horiz-adv-x="242" />
<glyph unicode="&#x2009;" horiz-adv-x="388" />
<glyph unicode="&#x200a;" horiz-adv-x="107" />
<glyph unicode="&#x2010;" horiz-adv-x="915" d="M147 429q0 32 22 54t54 22h467q32 0 54.5 -22.5t22.5 -53.5t-22.5 -54t-54.5 -23h-467q-32 0 -54 22.5t-22 54.5z" />
<glyph unicode="&#x2011;" horiz-adv-x="915" d="M147 429q0 32 22 54t54 22h467q32 0 54.5 -22.5t22.5 -53.5t-22.5 -54t-54.5 -23h-467q-32 0 -54 22.5t-22 54.5z" />
<glyph unicode="&#x2012;" horiz-adv-x="915" d="M147 429q0 32 22 54t54 22h467q32 0 54.5 -22.5t22.5 -53.5t-22.5 -54t-54.5 -23h-467q-32 0 -54 22.5t-22 54.5z" />
<glyph unicode="&#x2013;" horiz-adv-x="1078" d="M147 429q0 32 22 54t54 22h630q32 0 54.5 -22.5t22.5 -53.5t-23 -54t-54 -23h-630q-32 0 -54 22.5t-22 54.5z" />
<glyph unicode="&#x2014;" horiz-adv-x="1960" d="M147 429q0 32 22 54t54 22h1512q32 0 54.5 -22.5t22.5 -53.5t-23 -54t-54 -23h-1512q-32 0 -54 22.5t-22 54.5z" />
<glyph unicode="&#x2018;" horiz-adv-x="484" d="M109 1164q0 83 59 173t142 148q25 18 56.5 12.5t49.5 -31.5t13 -56.5t-31 -49.5q-58 -42 -97.5 -100t-39.5 -94q0 -30 53 -40q31 -7 48.5 -33t10.5 -57q-6 -31 -32.5 -48t-57.5 -11q-78 16 -126 64t-48 123z" />
<glyph unicode="&#x2019;" horiz-adv-x="534" d="M113.5 849q5.5 31 31.5 50q58 41 97.5 99.5t39.5 94.5q0 28 -54 40q-31 6 -48 32.5t-11 57.5t32.5 48t57.5 11q78 -16 126.5 -64t48.5 -123q0 -83 -59.5 -173t-141.5 -148q-25 -18 -56.5 -12.5t-50.5 31.5q-18 25 -12.5 56z" />
<glyph unicode="&#x201a;" horiz-adv-x="508" d="M71.5 -260.5q5.5 31.5 31.5 49.5q58 41 97.5 99.5t39.5 95.5q0 27 -54 39q-31 6 -48 32.5t-11 57.5t32.5 48.5t57.5 11.5q78 -17 126.5 -65t48.5 -123q0 -83 -59 -172.5t-142 -147.5q-25 -18 -56.5 -12.5t-50.5 30.5q-18 25 -12.5 56.5z" />
<glyph unicode="&#x201c;" horiz-adv-x="943" d="M109 1164q0 83 59 173t142 148q25 18 56.5 12.5t49.5 -31.5t13 -56.5t-31 -49.5q-58 -42 -97.5 -100t-39.5 -94q0 -30 53 -40q31 -7 48.5 -33t10.5 -57q-6 -31 -32.5 -48t-57.5 -11q-78 16 -126 64t-48 123zM568 1164q0 83 59 173t142 148q25 18 56.5 12.5t49.5 -31.5 t13 -56.5t-31 -49.5q-58 -42 -97.5 -100t-39.5 -94q0 -30 53 -40q31 -7 48.5 -33t10.5 -57q-6 -31 -32.5 -48t-57.5 -11q-78 16 -126 64t-48 123z" />
<glyph unicode="&#x201d;" horiz-adv-x="993" d="M113.5 849q5.5 31 31.5 50q58 41 97.5 99.5t39.5 94.5q0 28 -54 40q-31 6 -48 32.5t-11 57.5t32.5 48t57.5 11q78 -16 126.5 -64t48.5 -123q0 -83 -59.5 -173t-141.5 -148q-25 -18 -56.5 -12.5t-50.5 31.5q-18 25 -12.5 56zM572.5 849q5.5 31 31.5 50q58 41 97.5 99.5 t39.5 94.5q0 28 -54 40q-31 6 -48 32.5t-11 57.5t32.5 48t57.5 11q78 -16 126.5 -64t48.5 -123q0 -83 -59.5 -173t-141.5 -148q-25 -18 -56.5 -12.5t-50.5 31.5q-18 25 -12.5 56z" />
<glyph unicode="&#x201e;" horiz-adv-x="967" d="M71.5 -260.5q5.5 31.5 31.5 49.5q58 41 97.5 99.5t39.5 95.5q0 27 -54 39q-31 6 -48 32.5t-11 57.5t32.5 48.5t57.5 11.5q78 -17 126.5 -65t48.5 -123q0 -83 -59 -172.5t-142 -147.5q-25 -18 -56.5 -12.5t-50.5 30.5q-18 25 -12.5 56.5zM530.5 -260.5q5.5 31.5 31.5 49.5 q58 41 97.5 99.5t39.5 95.5q0 27 -54 39q-31 6 -48 32.5t-11 57.5t32.5 48.5t57.5 11.5q78 -17 126.5 -65t48.5 -123q0 -83 -59 -172.5t-142 -147.5q-25 -18 -56.5 -12.5t-50.5 30.5q-18 25 -12.5 56.5z" />
<glyph unicode="&#x2022;" horiz-adv-x="752" d="M147 429q0 95 67 161t162 66t162.5 -66.5t67.5 -160.5t-68 -161t-162 -67q-95 0 -162 67t-67 161z" />
<glyph unicode="&#x2026;" horiz-adv-x="1271" d="M119 4.5q-3 38.5 22 67.5l46 54q25 29 63.5 32t67.5 -22t32.5 -63.5t-21.5 -67.5l-46 -53q-26 -29 -64 -32.5t-67 21.5q-30 25 -33 63.5zM516 4.5q-3 38.5 22 67.5l46 54q25 29 63.5 32t67.5 -22t32.5 -63.5t-21.5 -67.5l-46 -53q-26 -29 -64 -32.5t-67 21.5 q-30 25 -33 63.5zM913 4.5q-3 38.5 22 67.5l46 54q25 29 63.5 32t67.5 -22t32.5 -63.5t-21.5 -67.5l-46 -53q-26 -29 -64 -32.5t-67 21.5q-30 25 -33 63.5z" />
<glyph unicode="&#x202f;" horiz-adv-x="388" />
<glyph unicode="&#x2039;" horiz-adv-x="749" d="M103 429q0 35 27 57l371 320q23 20 55 18t52 -26t17.5 -56t-25.5 -52l-304 -261l304 -262q23 -20 25.5 -51.5t-17.5 -55.5t-52 -26.5t-55 17.5l-371 320q-27 22 -27 58z" />
<glyph unicode="&#x203a;" horiz-adv-x="750" d="M122.5 115.5q2.5 31.5 25.5 51.5l304 262l-304 261q-23 20 -25.5 52t17.5 56t52.5 26t55.5 -18l371 -320q26 -21 26 -57q0 -37 -26 -58l-371 -320q-23 -20 -55.5 -17.5t-52.5 26.5t-17.5 55.5z" />
<glyph unicode="&#x205f;" horiz-adv-x="485" />
<glyph unicode="&#x20ac;" horiz-adv-x="1232" d="M124 305q0 29 21 48t51 18l645 -19q29 -1 49 -21.5t19 -49.5t-22 -48.5t-50 -18.5l-388 12v-156q0 -40 21 -69t49 -44t66.5 -23.5t62.5 -10.5t48 -2q52 0 121.5 12t112 23.5t49.5 14.5l-1 -1q28 9 53 -4.5t33 -41.5t-4.5 -53.5t-40.5 -33.5q-193 -55 -323 -55 q-176 0 -281 78.5t-105 209.5v159l-118 5q-29 2 -48.5 22t-19.5 49zM124 635q0 29 20 49.5t48 21.5l118 3v145q0 147 101 230.5t280 83.5q72 0 158.5 -7.5t135.5 -14.5t56 -9q28 -5 45.5 -28.5t12.5 -51.5t-28.5 -44.5t-52.5 -12.5h1q-10 2 -55.5 8.5t-127 13.5t-145.5 7 q-242 0 -242 -175v-142l382 10q29 1 50 -18.5t22 -48.5q1 -28 -19 -49t-49 -22l-639 -16q-29 -1 -50 18.5t-22 48.5z" />
<glyph unicode="&#x2122;" horiz-adv-x="1541" d="M142 873q0 23 16 39t39 16h379q22 0 38 -16t16 -39t-16 -39t-38 -16h-135v-367q0 -23 -16.5 -39t-38.5 -16t-38.5 16t-16.5 39v367h-134q-23 0 -39 16t-16 39zM744 461l78 423q3 17 16.5 29.5t30.5 14.5q39 5 56 -30l141 -283l142 283q18 35 57 30q17 -2 30 -14.5 t16 -29.5l78 -423q4 -23 -8 -41.5t-35 -23.5q-22 -4 -41 9t-23 35l-49 281l-118 -254q-14 -30 -49 -30q-34 0 -48 30l-118 254l-49 -281q-4 -22 -22 -35t-41 -9q-23 5 -35.5 23.5t-8.5 41.5z" />
<glyph unicode="&#x25fc;" horiz-adv-x="925" d="M0 0v925h925v-925h-925z" />
<glyph unicode="&#xfb01;" horiz-adv-x="1074" d="M59 715q0 29 20.5 49.5t49.5 20.5h106v167q0 164 106.5 265t271.5 101q24 0 56 -1.5t60.5 -3t53 -3.5t40.5 -3.5t17 -1.5q32 -3 52 -27.5t17 -55.5q-3 -32 -27.5 -52t-55.5 -17l-8 1q-8 0 -21 1t-30 2.5t-37 3t-40 2.5t-40.5 1.5t-36.5 0.5q-102 0 -164 -56t-62 -157 v-167h454q31 0 53.5 -22.5t22.5 -53.5v-700q0 -31 -22.5 -53.5t-53.5 -22.5t-53.5 22.5t-22.5 53.5v636h-378l1 -635q0 -32 -22 -54.5t-54 -22.5t-54 22.5t-22 53.5l-1 636h-106q-29 0 -49.5 20.5t-20.5 49.5z" />
<glyph unicode="&#xfb02;" horiz-adv-x="1165" d="M59 715q0 29 20.5 49.5t49.5 20.5h108v200q0 79 26 139.5t68 98.5t101.5 62t121 33t132.5 9q106 0 254 -38q25 -7 41 -27.5t16 -46.5v-1205q0 -31 -22.5 -53.5t-54.5 -22.5t-54 22t-22 54v1144q-100 20 -158 20q-47 0 -84.5 -3t-79 -14.5t-69 -31t-46 -55t-18.5 -84.5 v-201h200q29 0 49.5 -20.5t20.5 -49.5t-20.5 -49.5t-49.5 -20.5h-200l1 -635q0 -32 -22 -54t-54 -22t-54.5 22.5t-22.5 53.5v635h-108q-29 0 -49.5 20.5t-20.5 49.5z" />
</font>
</defs>
</svg>
