<?xml version="1.0" encoding="utf-8"?>
<!-- Generator: Adobe Illustrator 19.0.0, SVG Export Plug-In . SVG Version: 6.00 Build 0)  -->
<svg version="1.1" id="Layer_1" xmlns="http://www.w3.org/2000/svg" xmlns:xlink="http://www.w3.org/1999/xlink" x="0px" y="0px"
	 width="579px" height="425.5px" viewBox="200 -158.5 579 425.5" style="enable-background:new 200 -158.5 579 425.5;"
	 xml:space="preserve">
<style type="text/css">
	.st0{fill:none;}
	.st1{fill:#A9DEEB;}
	.st2{fill:#FF7676;}
	.st3{fill:#FFB8C7;}
	.st4{fill:#4B5E7F;}
	.st5{fill:#F6F7F9;}
	.st6{fill:#FCFCFC;}
	.st7{fill:#D1D1D1;}
	.st8{fill:#A1ABD0;}
	.st9{fill:#E5E5E5;}
	.st10{fill:#EAEAEB;}
</style>
<g>
	<path class="st0" d="M317.2,57c-0.4,1.6-0.6,3.2-0.5,4.8l0.5,0V57z"/>
	<path class="st0" d="M641.3,131.3c-1.1,0-2,0.9-2,2c0,1.1,0.9,2,2,2c1.1,0,2-0.9,2-2C643.3,132.2,642.4,131.3,641.3,131.3z"/>
	<path class="st1" d="M310.5,95H307v-3.4c0-0.7-0.3-1.3-1-1.3s-1,0.6-1,1.3V95h-2.5c-0.7,0-1.3,0.3-1.3,1s0.6,1,1.3,1h2.5v2.5
		c0,0.7,0.3,1.3,1,1.3s1-0.6,1-1.3V97h3.5c0.7,0,1.3-0.3,1.3-1S311.2,95,310.5,95z"/>
	<path class="st1" d="M643.6,4.5l2.5-1.6l1.6,2.5c0.4,0.6,0.9,1,1.5,0.6c0.6-0.4,0.5-1,0.2-1.6l-1.6-2.5l2.5-1.6
		c0.6-0.4,1-0.9,0.6-1.5c-0.4-0.6-1-0.6-1.6-0.2l-2.5,1.6l-1.5-2.5c-0.4-0.6-0.9-1-1.5-0.6c-0.6,0.4-0.5,1-0.2,1.6l1.5,2.5l-2.5,1.6
		c-0.6,0.4-1,0.9-0.6,1.5C642.4,4.9,643,4.8,643.6,4.5z"/>
	<path class="st1" d="M610.3,171.6l-2.5,1.6l-1.5-2.5c-0.4-0.6-0.9-1-1.5-0.6c-0.6,0.4-0.5,1-0.2,1.6l1.5,2.5l-2.5,1.6
		c-0.6,0.4-1,0.9-0.6,1.5c0.4,0.6,1,0.5,1.6,0.2l2.5-1.6l1.6,2.5c0.4,0.6,0.9,1,1.5,0.6c0.6-0.4,0.5-1,0.2-1.6l-1.6-2.5l2.5-1.6
		c0.6-0.4,1-0.9,0.6-1.5C611.5,171.2,610.9,171.2,610.3,171.6z"/>
	<path class="st2" d="M334.6-17.5l2.5-1.6l1.6,2.5c0.4,0.6,0.9,1,1.5,0.6c0.7-0.4,0.6-1,0.2-1.6l-1.6-2.5l2.5-1.5
		c0.6-0.4,1-0.9,0.6-1.5c-0.4-0.6-1-0.5-1.6-0.2l-2.5,1.5l-1.6-2.5c-0.4-0.6-0.9-1-1.5-0.6c-0.6,0.4-0.5,1-0.2,1.6l1.6,2.5l-2.5,1.6
		c-0.6,0.4-1,0.9-0.6,1.5C333.4-17.1,334-17.2,334.6-17.5z"/>
	<path class="st2" d="M397.3,196.7l-2.5,1.5l-1.6-2.5c-0.4-0.6-0.9-1-1.5-0.6c-0.6,0.4-0.5,1-0.2,1.6l1.6,2.5l-2.5,1.6
		c-0.6,0.4-1,0.9-0.6,1.5c0.4,0.6,1,0.5,1.6,0.2l2.5-1.6l1.6,2.5c0.4,0.6,0.9,1,1.5,0.6c0.7-0.4,0.6-1,0.2-1.6l-1.6-2.5l2.5-1.5
		c0.6-0.4,1-0.9,0.6-1.5C398.5,196.3,397.9,196.4,397.3,196.7z"/>
	<circle class="st3" cx="639.2" cy="-73.2" r="2.1"/>
	<circle class="st4" cx="357.2" cy="176.5" r="2.1"/>
	<circle class="st4" cx="526.5" cy="-135.6" r="2.1"/>
	<circle class="st3" cx="440.2" cy="-106.9" r="2.1"/>
	<circle class="st3" cx="419.8" cy="233.1" r="2.1"/>
	<circle class="st3" cx="553.7" cy="216.5" r="2.1"/>
	<circle class="st3" cx="683.3" cy="73.5" r="2.1"/>
	<circle class="st1" cx="562.5" cy="-92.3" r="2.1"/>
	<circle class="st5" cx="685.4" cy="55.5" r="2.1"/>
	<circle class="st5" cx="403.6" cy="-81.5" r="2.1"/>
	<circle class="st5" cx="321.1" cy="140.5" r="2.1"/>
	<circle class="st5" cx="490.9" cy="259.5" r="2.1"/>
	<path class="st3" d="M641.8,127.6c-3.4-0.3-6.2,2.4-6.1,5.7c0,1.3,0.5,2.6,1.3,3.5l4.1,4.5c0.2,0.2,0.4,0.2,0.6,0
		c1-1.1,4-4.7,4.3-5c0.6-1.1,1-2.4,0.8-3.8C646.5,129.9,644.4,127.9,641.8,127.6z M641.3,135.3c-1.1,0-2-0.9-2-2c0-1.1,0.9-2,2-2
		c1.1,0,2,0.9,2,2C643.3,134.4,642.4,135.3,641.3,135.3z"/>
	<path class="st5" d="M320,61.9V51.1c-1.3,1.8-2.3,3.8-2.8,5.9v4.8L320,61.9z"/>
	<path class="st5" d="M319.6,70.7c0.1,0.2,0.3,0.4,0.4,0.5v-0.5L319.6,70.7z"/>
	<path class="st5" d="M661.9,72.8c6.3-6.5,6.3-16.8,0-23.4V72.8z"/>
	<path class="st5" d="M435.8,91.6l10,105.7l24.2,24.2V73.4L435.8,91.6z M456.5,96.2c0-0.5,0.5-1,1-1h4.7c0.6,0,1.1,0.5,1,1v16.1
		c0,0.5-0.5,1-1,1h-4.7c-0.5,0-1-0.5-1-1V96.2z M440.8,97.8c-0.3-1.3,0.8-2.6,2.3-2.6h9.6c1.3,0,2.3,1,2.3,2.3V111
		c0,1.3-1,2.3-2.3,2.3h-7.5c-1.1,0-2.1-0.8-2.3-2L440.8,97.8z M444.9,128.5l-1.7-9.6c-0.2-1.1,0.6-2.1,1.7-2.1h16.6
		c1,0,1.8,0.8,1.6,1.9v9.6c0,0.9-0.7,1.7-1.7,1.7h-14.8C445.8,130,445,129.4,444.9,128.5z M464.3,153.6c0,0.6-0.8,1.2-1.8,1.2h-11
		c-0.9,0,2.2-0.4-2.6-0.8l-3-20.1c0-0.6,0.8-1.2,1.8-1.2h14.9c0.9,0,1.8,0.5,1.7,1.2V153.6z"/>
	<path class="st5" d="M616.2,114c-0.2,0.3-0.5,0.4-0.8,0.4c-0.2,0-0.4-0.1-0.6-0.2c-0.3-0.2-0.4-0.6-0.4-0.9l-26.1,3.2l-1.1,1.5
		c-0.2,0.3-0.5,0.4-0.8,0.4c-0.2,0-0.4-0.1-0.6-0.2c-0.4-0.3-0.5-0.9-0.2-1.3l-21.6,2.7v51.2l34.6-34.6l-1.5-13.3
		c0-0.5,0.4-1,0.9-1.1l4.6-0.5h0.1c0.5,0,0.9,0.4,1,0.9l0.9,8l2.5-2.5l-0.7-5.9c0-0.5,0.4-1,0.9-1.1l4.6-0.5h0.1
		c0.4,0,0.9,0.4,1,0.8l0.1,0.7l9.4-9.4l-5.4,0.7L616.2,114z M584.3,141.6l-8.2,0.9H576c-0.5,0-0.9-0.4-1-0.9l-1.9-16
		c0-0.5,0.4-1,0.9-1.1l8.1-0.9h0.1c0.5,0,1,0.4,1.1,0.9l1.9,16C585.2,141,584.8,141.5,584.3,141.6z M594.4,140.3l-6.8,0.8h-0.1
		c-0.5,0-0.9-0.4-1-0.9l-1.9-16c0-0.5,0.4-1,0.9-1.1l8.2-0.9h0.1c0.5,0,0.9,0.4,0.9,0.8l1.8,15.2L594.4,140.3z"/>
	<path class="st5" d="M638.3,25.7l-5-5l-18.6,45.2c-0.3,0.7-1,0.9-1.5,0.6c-0.4-0.2-0.6-0.5-0.6-0.9l-0.7-64.3
		c-0.1-0.6,0.4-1,0.9-1.1l-7.1-7.1l0.8,105.6L638.3,25.7z"/>
	<polygon class="st5" points="470,-99.3 421.7,-51 470,-51 	"/>
	<path class="st5" d="M661.6,49l-16.4-16.4l-30.4,71.6c0,0,0,0,0,0l0.2,0.1l17.5-2.2l29-29c0.1-0.1,0.2-0.2,0.3-0.3V49.3
		C661.8,49.2,661.7,49.1,661.6,49z"/>
	<polygon class="st5" points="561.6,-51 510,-102.6 510,-51 	"/>
	<path class="st5" d="M356.5,62l-16.1-31.6l-18.7,18.8c-0.6,0.6-1.2,1.3-1.7,2v10.8L356.5,62z"/>
	<path class="st5" d="M427.7,98.2l-2.7-0.8L393,114.5l0.2,0.3c0.4,0.2,0.6,0.6,0.6,1.1l30.4,59.7l12.1,12.1L427.7,98.2
		C427.7,98.2,427.7,98.2,427.7,98.2z M430.3,175.2c-0.4,0-0.7-0.1-0.9-0.5l-30.5-56.6c-0.3-0.6-0.1-1.2,0.4-1.5l23.8-13.5
		c0.2,0,0.3-0.1,0.5-0.1c0.6,0,1,0.4,1.2,0.9l6.6,70.1C431.4,174.7,430.9,175.2,430.3,175.2z"/>
	<path class="st5" d="M361,70.8l-41-0.1v0.5c0.5,0.7,1.1,1.4,1.7,2l45.2,45.2l14.4-7.7L361,70.8z M346.8,96.3
		c-1.2,0-2.1-0.9-2.1-2.1c0-1.2,0.9-2.1,2.1-2.1c1.2,0,2.1,0.9,2.1,2.1C348.9,95.4,348,96.3,346.8,96.3z"/>
	<polygon class="st5" points="373.4,124.9 404.3,155.8 385.3,118.6 	"/>
	<path class="st5" d="M426.3,86.7L410.7-11h-29l-34.9,34.9l42.1,82.7L426.3,86.7z M414.9,46.6c0.5,0,0.9,0.4,1,0.9l0.8,4.7
		c0.1,0.6-0.3,1.1-0.8,1.2l-15.5,2.8h-0.2c-0.5,0-0.9-0.4-1-0.9l-0.8-4.7c-0.1-0.6,0.3-1.1,0.8-1.2l15.5-2.8H414.9z M412.9,34.9
		l1.4,8.3c0.1,0.6-0.3,1.1-0.8,1.2L398,47.2h-0.2c-0.5,0-0.9-0.4-1-0.9l-1.4-8.3c-0.1-0.6,0.3-1.1,0.8-1.2l15.5-2.8h0.2
		C412.4,34,412.8,34.3,412.9,34.9z M400.9,14.7l7.4-1.3h0.2c0.4,0,0.8,0.3,1,0.9l0.8,4.7c0.1,0.6-0.3,1.1-0.8,1.2l-7.4,1.3h-0.2
		c-0.5,0-0.9-0.4-1-0.9l-0.8-4.7C400,15.3,400.4,14.8,400.9,14.7z M394.1,24.7l15.5-2.8h0.2c0.6,0,1,0.3,1,0.9l1.4,8.3
		c0.1,0.6-0.3,1.1-0.8,1.2l-15.5,2.8h-0.2c-0.5,0-0.9-0.4-1-0.9l-1.4-8.3C393.2,25.3,393.6,24.8,394.1,24.7z M363.2,38
		c-0.4,0-0.7-0.2-0.9-0.5l-2.1-4.2c-0.2-0.4,0-1,0.5-1.3l6.7-3.5c0.2,0,0.4-0.1,0.5-0.1c0.4,0,0.7,0.2,0.9,0.5l2.1,4.2
		c0.2,0.4,0,1-0.5,1.3l-6.7,3.5C363.5,37.9,363.3,38,363.2,38z M368.4,50.7c-0.4,0-0.7-0.2-0.9-0.5l-3.7-7.5c-0.2-0.4,0-1,0.5-1.3
		l14.1-7.3c0.2,0,0.4-0.1,0.5-0.1c0.4,0,0.7,0.2,0.9,0.6l3.7,7.5c0.2,0.4,0,1-0.5,1.3l-14.1,7.2C368.7,50.6,368.5,50.7,368.4,50.7z
		 M373.9,62.7c-0.4,0-0.7-0.2-0.9-0.5l-3.7-7.5c-0.2-0.4,0-1,0.5-1.3l14.1-7.3c0.2,0,0.4-0.1,0.5-0.1c0.4,0,0.7,0.2,0.9,0.6l3.7,7.5
		c0.2,0.4,0,1-0.5,1.3l-14.1,7.2C374.2,62.6,374,62.7,373.9,62.7z M377.8,70.4c-0.4,0-0.7-0.2-0.9-0.5l-2.1-4.2
		c-0.2-0.4,0-1,0.5-1.3l6.7-3.5c0.2,0,0.4-0.1,0.5-0.1c0.3,0,0.7,0.2,0.9,0.5l2.1,4.2c0.2,0.4,0,1-0.5,1.3l-6.7,3.5
		C378.1,70.3,377.9,70.4,377.8,70.4z M380.6,74.7l34.9-17.2c0.2,0,0.4-0.1,0.5-0.1c0.4,0,0.9,0.3,0.9,0.9l4.1,22
		c0.1,0.5-0.1,1-0.6,1.2L391,96.1c-0.2,0-0.4,0.1-0.5,0.1c-0.3,0-0.7-0.2-0.9-0.6l-9.5-19.4C379.9,75.6,380.1,75,380.6,74.7z"/>
	<polygon class="st5" points="434.3,82.4 470,63.3 470,-11 419.4,-11 	"/>
	<path class="st5" d="M544-11h-34v4.2l0.7,0.3L510-6v123.4l34-4.2V-11z M519.2-2.1c0-0.5,0.5-1,1-1h16.1c0.6,0,1.1,0.5,1,1v8.2
		c0,0.5-0.5,1-1,1h-16.1c-0.5,0-1-0.5-1-1V-2.1z M519.2,10.7c0-0.5,0.5-1,1-1h16.1c0.6,0,1.1,0.4,1,1v4.7c0,0.5-0.5,1-1,1h-16.1
		c-0.5,0-1-0.5-1-1V10.7z M519.2,19.7c0-0.5,0.5-1,1-1h16.1c0.6,0,1.1,0.4,1,1v4.7c0,0.5-0.5,1-1,1h-16.1c-0.5,0-1-0.5-1-1V19.7z
		 M519.2,28.2c0-0.5,0.5-1,1-1h16.1c0.6,0,1.1,0.5,1,1v8.2c0,0.5-0.5,1-1,1h-16.1c-0.5,0-1-0.5-1-1V28.2z M519.2,40.7
		c0-0.5,0.5-1,1-1h16.1c0.6,0,1.1,0.5,1,1v8.2c0,0.5-0.5,1-1,1h-16.1c-0.5,0-1-0.5-1-1V40.7z M519.2,53.4c0-0.5,0.5-1,1-1h16.1
		c0.6,0,1.1,0.5,1,1v4.7c0,0.5-0.5,1-1,1h-16.1c-0.5,0-1-0.5-1-1V53.4z M519.2,62.4c0-0.5,0.5-1,1-1h16.1c0.6,0,1.1,0.4,1,1v8.2
		c0,0.5-0.5,1-1,1h-16.1c-0.5,0-1-0.5-1-1V62.4z M519.2,74.6c0-0.6,0.5-1,1-1h16.1c0.6,0,1.1,0.5,1,1v8.2c0,0.5-0.5,1-1,1h-16.1
		c-0.5,0-1-0.5-1-1V74.6z M519.2,86c0-0.5,0.5-1,1-1h16.1c0.6,0,1.1,0.5,1,1v4.7c0,0.5-0.5,1-1,1h-16.1c-0.5,0-1-0.5-1-1V86z
		 M537.3,105c0,0.4-0.3,0.7-0.7,0.8l-16.5,2H520c-0.4,0-0.8-0.3-0.8-0.8V94.1c0-0.4,0.4-0.8,0.8-0.9h16.5c0.4,0,0.9,0.4,0.8,0.8V105
		z"/>
	<path class="st5" d="M531,123.6l-1.8,2.4c-0.2,0.3-0.5,0.4-0.8,0.4c-0.2,0-0.4-0.1-0.6-0.2c-0.4-0.3-0.5-1-0.2-1.4l0.6-0.8
		l-18.2,2.3v24.3l1.8,1.8c0.4,0.4,0.4,1,0,1.4c-0.2,0.2-0.4,0.3-0.7,0.3s-0.5-0.1-0.7-0.3l-0.4-0.4v35.2l1.8,1.8
		c0.4,0.4,0.4,1,0,1.4c-0.2,0.2-0.4,0.3-0.7,0.3s-0.5-0.1-0.7-0.3l-0.4-0.4v33.4l34-34V122L531,123.6z M537.3,193.2c0,0.5-0.5,1-1,1
		h-16.1c-0.5,0-1-0.5-1-1V185c0-0.5,0.5-1,1-1h16.1c0.6,0,1.1,0.5,1,1V193.2z M537.3,181.6c0,0.5-0.5,1-1,1h-16.1c-0.5,0-1-0.5-1-1
		v-8.2c0-0.5,0.5-1,1-1h16.1c0.6,0,1.1,0.5,1,1V181.6z M537.3,169.1c0,0.5-0.5,1-1,1h-16.1c-0.5,0-1-0.5-1-1v-4.7c0-0.5,0.5-1,1-1
		h16.1c0.6,0,1.1,0.5,1,1V169.1z M537.3,159.8c0,0.5-0.5,1-1,1h-16.1c-0.5,0-1-0.5-1-1v-4.7c0-0.5,0.5-1,1-1h16.1c0.6,0,1.1,0.5,1,1
		V159.8z M537.3,151.3c0,0.5-0.5,1-1,1h-16.1c-0.5,0-1-0.5-1-1v-8.2c0-0.5,0.5-1,1-1h16.1c0.6,0,1.1,0.5,1,1V151.3z M537.3,138.5
		c0,0.5-0.5,1-1,1h-16.1c-0.5,0-1-0.5-1-1v-8.2c0-0.5,0.5-1,1-1h16.1c0.6,0,1.1,0.5,1,1V138.5z"/>
	<path class="st5" d="M585.1,108.1c0.1,0,0.1,0,0.2,0l12.6-1.6L597.1-11H564v121.7L585.1,108.1z M571.2,5.7c0-0.5,0.5-1,1-1h16.1
		c0.6,0,1.1,0.4,1,1v4.7c0,0.5-0.5,1-1,1h-16.1c-0.5,0-1-0.5-1-1V5.7z M571.2,14.7c0-0.5,0.5-1,1-1h16.1c0.6,0,1.1,0.4,1,1v4.7
		c0,0.5-0.5,1-1,1h-16.1c-0.5,0-1-0.5-1-1V14.7z M571.2,23.2c0-0.5,0.5-1,1-1h16.1c0.6,0,1.1,0.5,1,1v8.2c0,0.5-0.5,1-1,1h-16.1
		c-0.5,0-1-0.5-1-1V23.2z M571.2,35.7c0-0.5,0.5-1,1-1h16.1c0.6,0,1.1,0.5,1,1v8.2c0,0.5-0.5,1-1,1h-16.1c-0.5,0-1-0.5-1-1V35.7z
		 M571.2,48.4c0-0.5,0.5-1,1-1h16.1c0.6,0,1.1,0.5,1,1v4.7c0,0.5-0.5,1-1,1h-16.1c-0.5,0-1-0.5-1-1V48.4z M571.2,57.4
		c0-0.5,0.5-1,1-1h16.1c0.6,0,1.1,0.4,1,1v8.2c0,0.5-0.5,1-1,1h-16.1c-0.5,0-1-0.5-1-1V57.4z M571.2,69.6c0-0.6,0.5-1,1-1h16.1
		c0.6,0,1.1,0.5,1,1v8.2c0,0.5-0.5,1-1,1h-16.1c-0.5,0-1-0.5-1-1V69.6z M571.2,81c0-0.5,0.5-1,1-1h16.1c0.6,0,1.1,0.5,1,1v4.7
		c0,0.5-0.5,1-1,1h-16.1c-0.5,0-1-0.5-1-1V81z M571.2,89.1c0-0.4,0.4-0.8,0.8-0.9h16.5c0.4,0,0.9,0.4,0.8,0.8v11
		c0,0.4-0.3,0.7-0.7,0.8l-16.5,2H572c-0.4,0-0.8-0.3-0.8-0.8V89.1z"/>
	<path class="st6" d="M416.2-31h4.9c0.6,0,1,0.4,1,1s-0.5,1-1,1h-4.6l2.9,18H470v-17.8c-0.1,0-0.3,0-0.4,0c-0.6,0-1-0.5-0.9-1.1
		c0-0.6,0.5-1,1.1-0.9c0.1,0,0.1,0,0.2,0V-39h-18.1l1,1c0.4,0.4,0.4,1,0,1.4c-0.2,0.2-0.5,0.3-0.7,0.3c-0.3,0-0.5-0.1-0.7-0.3
		l-2.4-2.4h-31.2l1,1c0.4,0.4,0.4,1,0,1.4c-0.2,0.2-0.5,0.3-0.7,0.3c-0.3,0-0.5-0.1-0.7-0.3l-2.4-2.4h-5.4l-1.2,1.2l6.3-1.1
		L416.2-31z M451.2-31h6.8c0.6,0,1,0.4,1,1s-0.4,1-1,1h-1h-5.8c-0.6,0-1-0.4-1-1C450.2-30.6,450.6-31,451.2-31z M432.8-31h6.8
		c0.6,0,1,0.4,1,1s-0.5,1-1,1h-6.8c-0.6,0-1-0.4-1-1C431.8-30.6,432.2-31,432.8-31z"/>
	<path class="st6" d="M406.7-36l-5,5h0.9c0.6,0,1,0.4,1,1s-0.5,1-1,1h-2.8l-18,18h29L406.7-36z"/>
	<path class="st6" d="M510-42h4.2c0-0.1,0.1-0.1,0.1-0.2l4.2-4.2c0.4-0.4,1-0.4,1.4,0c0.4,0.4,0.4,1,0,1.4l-3,3h34.3
		c0-0.1,0.1-0.1,0.1-0.2l4.2-4.2c0.4-0.4,1-0.4,1.4,0c0.4,0.4,0.4,1,0,1.4l-3,3h16.7l-9-9H510V-42z"/>
	<path class="st6" d="M417.5-46.4c0.4-0.4,1-0.4,1.4,0c0.4,0.4,0.4,1,0,1.4h31.2l1.4-1.4c0.4-0.4,1-0.4,1.4,0c0.4,0.4,0.4,1,0,1.4
		H470v-6h-48.3l-6,6h0.4L417.5-46.4z"/>
	<path class="st6" d="M556.9-38c0.4,0.4,0.4,1,0,1.4c-0.2,0.2-0.5,0.3-0.7,0.3c-0.3,0-0.5-0.1-0.7-0.3l-3.4-3.4h-34.2l2,2
		c0.4,0.4,0.4,1,0,1.4c-0.2,0.2-0.5,0.3-0.7,0.3c-0.3,0-0.5-0.1-0.7-0.3l-3.4-3.4H510v9.8c0.8-0.1,1.7-0.3,2.6-0.4
		c0.6-0.1,1,0.4,1.1,0.9c0.1,0.5-0.4,1-0.9,1.1c-1,0.1-2,0.2-2.8,0.4V-11h34v-2h20v2h33.1l0-4.6L583.6-29h-3.9c-0.6,0-1-0.4-1-1
		c0-0.6,0.4-1,1-1h1.9l-9-9h-17.7L556.9-38z M531.1-29h-6.8c-0.6,0-1-0.4-1-1c0-0.6,0.4-1,1-1h6.8c0.6,0,1,0.4,1,1
		S531.7-29,531.1-29z M549.6-29h-6.8c-0.6,0-1-0.4-1-1c0-0.6,0.4-1,1-1h6.8c0.6,0,1,0.4,1,1S550.1-29,549.6-29z M561.2-31h6.8
		c0.6,0,1,0.4,1,1s-0.4,1-1,1h-6.8c-0.6,0-1-0.4-1-1C560.2-30.6,560.6-31,561.2-31z"/>
	<path class="st6" d="M483-105.9c5-0.6,10-0.7,15-0.1v-6.7c-4.8-1.9-10.4-1.5-15,1.2L483-105.9C483-106,483-105.9,483-105.9z"/>
	<path class="st6" d="M481-106v-4.1c-0.5,0.4-1,0.8-1.4,1.2l-4.5,4.5c2-0.5,3.9-0.9,5.9-1.2C481-105.7,481-105.9,481-106z"/>
	<path class="st6" d="M500-105.8c2.9,0.4,5.8,1,8.7,1.8l-5-5c-1.1-1.1-2.4-2.1-3.7-2.8v5.7C500-105.9,500-105.8,500-105.8z"/>
	<path class="st6" d="M495.5-8H491v8.6c1.3-1.9,3.5-4.1,7-5.6v0c0-0.6,0.4-1,1-1c0.3,0,0.6,0.1,0.8,0.3c0.7-0.2,1.4-0.5,2.2-0.6
		l-0.5-4.2l8.5,3.7V-11h-16.2L495.5-8z"/>
	<path class="st6" d="M481-51v-5c0-0.6,0.4-1,1-1c0.6,0,1,0.4,1,1v5h15v-5c0-0.6,0.4-1,1-1c0.6,0,1,0.4,1,1v5h10v-51.6l-1.3-1.3
		c-2.9-0.8-5.8-1.4-8.7-1.8c-0.1,0.5-0.4,0.8-1,0.8c-0.6,0-1-0.4-1-1v0c-5-0.5-10-0.5-15,0.1c0,0.5-0.4,0.9-1,0.9
		c-0.5,0-0.8-0.2-0.9-0.6c-2,0.3-4,0.7-5.9,1.2l-5.1,5.1V-51H481z M498-94c0-0.6,0.4-1,1-1c0.6,0,1,0.4,1,1v7c0,0.6-0.4,1-1,1
		c-0.6,0-1-0.4-1-1V-94z M498-75c0-0.6,0.4-1,1-1c0.6,0,1,0.4,1,1v7c0,0.6-0.4,1-1,1c-0.6,0-1-0.4-1-1V-75z M481-94c0-0.6,0.4-1,1-1
		c0.6,0,1,0.4,1,1v7c0,0.6-0.4,1-1,1c-0.6,0-1-0.4-1-1V-94z M481-75c0-0.6,0.4-1,1-1c0.6,0,1,0.4,1,1v7c0,0.6-0.4,1-1,1
		c-0.6,0-1-0.4-1-1V-75z"/>
	<path class="st6" d="M507,185.8c0.1,0,0.2,0,0.3,0.1c0.1,0,0.2,0.1,0.3,0.2c0,0,0,0,0,0l2.4,2.5v-35.2l-3-3.1V185.8z"/>
	<path class="st6" d="M472.4,199.7c-0.2,0.2-0.4,0.3-0.7,0.3s-0.5-0.1-0.7-0.3c-0.4-0.4-0.4-1,0-1.4l3-3v-35.2l-1.6,1.6
		c-0.2,0.2-0.4,0.3-0.7,0.3s-0.5-0.1-0.7-0.3c-0.4-0.4-0.4-1,0-1.4l3-3v-35.2l-1.6,1.6c-0.2,0.2-0.4,0.3-0.7,0.3s-0.5-0.1-0.7-0.3
		c-0.4-0.4-0.4-1,0-1.4l3-3V71.2l-4,2.1v148.1l4,4v-27.4L472.4,199.7z"/>
	<path class="st6" d="M503.4,229.7c-0.2,0.2-0.4,0.3-0.7,0.3s-0.5-0.1-0.7-0.3c-0.4-0.4-0.4-1,0-1.4l3-3v-35.2l-1.6,1.6
		c-0.2,0.2-0.4,0.3-0.7,0.3s-0.5-0.1-0.7-0.3c-0.4-0.4-0.4-1,0-1.4l3-3v-35.2l-1.6,1.6c-0.2,0.2-0.4,0.3-0.7,0.3s-0.5-0.1-0.7-0.3
		c-0.4-0.4-0.4-1,0-1.4l3-3V124c0-0.5,0.2-0.8,0.6-0.9c0.1-0.3,0.4-0.5,0.8-0.6l2.9-0.4l-0.5-4.5l1.2-0.2V-6l-7.3,5.5l-0.5-3.8
		c-0.8,0.2-1.6,0.4-2.2,0.7V-2c0,0.6-0.4,1-1,1c-0.6,0-1-0.4-1-1v-0.7c-3.9,1.9-5.6,4.6-6.4,6.5c0.3,1,0.4,1.7,0.4,1.8v36.4
		c0,0.7-0.4,1.1-1,1.1c-0.2,0-0.4-0.1-0.5-0.1c-0.1,0.1-0.3,0.1-0.5,0.1c-0.6,0-1-0.4-1-1V5.7V2.8c-0.9-1.8-2.7-4-6-5.6V-2
		c0,0.6-0.4,1-1,1c-0.6,0-1-0.4-1-1v-1.7c-0.6-0.2-1.3-0.4-2-0.6l-0.5,3.8l-8-6l9.2-4l-0.5,4.1c0.7,0.2,1.4,0.4,2.1,0.6
		c0.2-0.2,0.4-0.3,0.7-0.3c0.6,0,0.9,0.4,1,0.9c2.8,1.2,4.7,2.8,6,4.3V-8h-3.5l1.7-3H470v74.3l1.9-1l2.1,4.1l1-0.6
		c0.5-0.3,1.1-0.1,1.4,0.4s0.1,1.1-0.4,1.4v50.2c0.1,0,0.2,0,0.3,0.1c0.1,0,0.2,0.1,0.3,0.2c0,0,0,0,0,0l4.2,4.3
		c0.4,0.4,0.4,1,0,1.4c-0.2,0.2-0.4,0.3-0.7,0.3s-0.5-0.1-0.7-0.3l-3.4-3.5v35.5c0.1,0,0.2,0,0.3,0.1c0.1,0,0.2,0.1,0.3,0.2
		c0,0,0,0,0,0l4.2,4.3c0.4,0.4,0.4,1,0,1.4c-0.2,0.2-0.4,0.3-0.7,0.3s-0.5-0.1-0.7-0.3l-3.4-3.5v35.5c0.1,0,0.2,0,0.3,0.1
		c0.1,0,0.2,0.1,0.3,0.2c0,0,0,0,0,0l4.2,4.3c0.4,0.4,0.4,1,0,1.4c-0.2,0.2-0.4,0.3-0.7,0.3s-0.5-0.1-0.7-0.3l-3.4-3.5v31.2l3.6,3.6
		c6.7,6.7,17.5,6.7,24.1,0l1.3-1.3v-1.7L503.4,229.7z M483,226c0,0.6-0.4,1-1,1c-0.6,0-1-0.4-1-1v-7c0-0.6,0.4-1,1-1
		c0.6,0,1,0.4,1,1V226z M483,207c0,0.6-0.4,1-1,1c-0.6,0-1-0.4-1-1v-7c0-0.6,0.4-1,1-1c0.6,0,1,0.4,1,1V207z M483,188
		c0,0.6-0.4,1-1,1c-0.6,0-1-0.4-1-1v-7c0-0.6,0.4-1,1-1c0.6,0,1,0.4,1,1V188z M483,169c0,0.6-0.4,1-1,1c-0.6,0-1-0.4-1-1v-7
		c0-0.6,0.4-1,1-1c0.6,0,1,0.4,1,1V169z M483,150c0,0.6-0.4,1-1,1c-0.6,0-1-0.4-1-1v-7c0-0.6,0.4-1,1-1c0.6,0,1,0.4,1,1V150z
		 M483,131c0,0.6-0.4,1-1,1c-0.6,0-1-0.4-1-1v-7c0-0.6,0.4-1,1-1c0.6,0,1,0.4,1,1V131z M483,112c0,0.6-0.4,1-1,1c-0.6,0-1-0.4-1-1
		v-7c0-0.6,0.4-1,1-1c0.6,0,1,0.4,1,1V112z M483,93c0,0.6-0.4,1-1,1c-0.6,0-1-0.4-1-1v-7c0-0.6,0.4-1,1-1c0.6,0,1,0.4,1,1V93z
		 M483,74c0,0.6-0.4,1-1,1c-0.6,0-1-0.4-1-1v-7c0-0.6,0.4-1,1-1c0.6,0,1,0.4,1,1V74z M483,55c0,0.6-0.4,1-1,1c-0.6,0-1-0.4-1-1v-7
		c0-0.6,0.4-1,1-1c0.6,0,1,0.4,1,1V55z M483,36c0,0.6-0.4,1-1,1c-0.6,0-1-0.4-1-1v-7c0-0.6,0.4-1,1-1c0.6,0,1,0.4,1,1V36z M483,17
		c0,0.6-0.4,1-1,1c-0.6,0-1-0.4-1-1v-7c0-0.6,0.4-1,1-1c0.6,0,1,0.4,1,1V17z M500,226c0,0.6-0.4,1-1,1c-0.6,0-1-0.4-1-1v-7
		c0-0.6,0.4-1,1-1c0.6,0,1,0.4,1,1V226z M500,207c0,0.6-0.4,1-1,1c-0.6,0-1-0.4-1-1v-7c0-0.6,0.4-1,1-1c0.6,0,1,0.4,1,1V207z
		 M500,188c0,0.6-0.4,1-1,1c-0.6,0-1-0.4-1-1v-7c0-0.6,0.4-1,1-1c0.6,0,1,0.4,1,1V188z M500,169c0,0.6-0.4,1-1,1c-0.6,0-1-0.4-1-1
		v-7c0-0.6,0.4-1,1-1c0.6,0,1,0.4,1,1V169z M500,150c0,0.6-0.4,1-1,1c-0.6,0-1-0.4-1-1v-7c0-0.6,0.4-1,1-1c0.6,0,1,0.4,1,1V150z
		 M500,131c0,0.6-0.4,1-1,1c-0.6,0-1-0.4-1-1v-7c0-0.6,0.4-1,1-1c0.6,0,1,0.4,1,1V131z M500,112c0,0.6-0.4,1-1,1c-0.6,0-1-0.4-1-1
		v-7c0-0.6,0.4-1,1-1c0.6,0,1,0.4,1,1V112z M500,93c0,0.6-0.4,1-1,1c-0.6,0-1-0.4-1-1v-7c0-0.6,0.4-1,1-1c0.6,0,1,0.4,1,1V93z
		 M500,74c0,0.6-0.4,1-1,1c-0.6,0-1-0.4-1-1v-7c0-0.6,0.4-1,1-1c0.6,0,1,0.4,1,1V74z M500,55c0,0.6-0.4,1-1,1c-0.6,0-1-0.4-1-1v-7
		c0-0.6,0.4-1,1-1c0.6,0,1,0.4,1,1V55z M500,36c0,0.6-0.4,1-1,1c-0.6,0-1-0.4-1-1v-7c0-0.6,0.4-1,1-1c0.6,0,1,0.4,1,1V36z M500,17
		c0,0.6-0.4,1-1,1c-0.6,0-1-0.4-1-1v-7c0-0.6,0.4-1,1-1c0.6,0,1,0.4,1,1V17z"/>
	<polygon class="st6" points="507,227.8 507.7,227.1 507,226.3 	"/>
	<path class="st6" d="M509.5,124.1l-2.5,0.3v23.4c0.1,0,0.2,0,0.3,0.1c0.1,0,0.2,0.1,0.3,0.2c0,0,0,0,0,0l2.4,2.5v-24.3l-0.3,0
		L509.5,124.1z"/>
	<path class="st6" d="M507,188.3v35.5c0.1,0,0.2,0,0.3,0.1c0.1,0,0.2,0.1,0.3,0.2c0,0,0,0,0,0l1.5,1.6l0.9-0.9v-33.4L507,188.3z"/>
	<path class="st6" d="M473.3-42h3.9c0-0.1,0.1-0.1,0.1-0.2l4.2-4.2c0.4-0.4,1-0.4,1.4,0c0.4,0.4,0.4,1,0,1.4l-3,3H510v-9h-10
		c0,0.6-0.4,1-1,1c-0.6,0-1-0.4-1-1h-15c0,0.6-0.4,1-1,1c-0.6,0-1-0.4-1-1h-11v6h3.3V-42z"/>
	<path class="st6" d="M493.8-11H510v-17.2c-1.4,0.2-2.5,0.5-3.6,0.9c-0.1,0-0.3,0.1-0.4,0.1c-0.4,0-0.8-0.2-0.9-0.6
		c-0.2-0.5,0-1.1,0.6-1.3c1.2-0.5,2.6-0.9,4.3-1.1V-40h-29.1l2,2c0.4,0.4,0.4,1,0,1.4c-0.2,0.2-0.5,0.3-0.7,0.3
		c-0.3,0-0.5-0.1-0.7-0.3l-3.4-3.4h-4.8v1H470v8.2c2.9,0.2,5,0.7,6.8,1.4c0.5,0.2,0.8,0.8,0.5,1.3c-0.1,0.3-0.5,0.6-0.9,0.6
		c-0.1,0-0.3,0-0.4-0.1c-1.5-0.6-3.4-1-6-1.2V-11h17.2l3.3-5.6L493.8-11z M498.7-19.9c0.1-0.5,0.6-0.9,1.1-0.9
		c0.5,0.1,0.9,0.6,0.9,1.1c-0.1,1-0.2,2.1-0.2,3.4c0,0.6-0.4,1-1,1c-0.6,0-1-0.4-1-1C498.5-17.6,498.6-18.8,498.7-19.9z M482.5-15.3
		c-0.6,0-1-0.4-1-1c0-1.2-0.1-2.4-0.2-3.4c-0.1-0.5,0.3-1,0.9-1.1c0.6-0.1,1,0.3,1.1,0.9c0.1,1.1,0.2,2.3,0.2,3.6
		C483.5-15.7,483.1-15.3,482.5-15.3z"/>
	<path class="st7" d="M481-2c0,0.6,0.4,1,1,1c0.6,0,1-0.4,1-1v-0.8c-0.6-0.3-1.3-0.6-2-0.9V-2z"/>
	<path class="st7" d="M482-6c-0.3,0-0.5,0.1-0.7,0.3c0.6,0.2,1.2,0.4,1.7,0.7C482.9-5.6,482.6-6,482-6z"/>
	<path class="st7" d="M482,28c-0.6,0-1,0.4-1,1v7c0,0.6,0.4,1,1,1c0.6,0,1-0.4,1-1v-7C483,28.4,482.6,28,482,28z"/>
	<path class="st7" d="M482,85c-0.6,0-1,0.4-1,1v7c0,0.6,0.4,1,1,1c0.6,0,1-0.4,1-1v-7C483,85.4,482.6,85,482,85z"/>
	<path class="st7" d="M482,66c-0.6,0-1,0.4-1,1v7c0,0.6,0.4,1,1,1c0.6,0,1-0.4,1-1v-7C483,66.4,482.6,66,482,66z"/>
	<path class="st7" d="M482,104c-0.6,0-1,0.4-1,1v7c0,0.6,0.4,1,1,1c0.6,0,1-0.4,1-1v-7C483,104.4,482.6,104,482,104z"/>
	<path class="st7" d="M482,9c-0.6,0-1,0.4-1,1v7c0,0.6,0.4,1,1,1c0.6,0,1-0.4,1-1v-7C483,9.4,482.6,9,482,9z"/>
	<path class="st7" d="M482,47c-0.6,0-1,0.4-1,1v7c0,0.6,0.4,1,1,1c0.6,0,1-0.4,1-1v-7C483,47.4,482.6,47,482,47z"/>
	<path class="st7" d="M482,123c-0.6,0-1,0.4-1,1v7c0,0.6,0.4,1,1,1c0.6,0,1-0.4,1-1v-7C483,123.4,482.6,123,482,123z"/>
	<path class="st7" d="M482,199c-0.6,0-1,0.4-1,1v7c0,0.6,0.4,1,1,1c0.6,0,1-0.4,1-1v-7C483,199.4,482.6,199,482,199z"/>
	<path class="st7" d="M482,218c-0.6,0-1,0.4-1,1v7c0,0.6,0.4,1,1,1c0.6,0,1-0.4,1-1v-7C483,218.4,482.6,218,482,218z"/>
	<path class="st7" d="M482,180c-0.6,0-1,0.4-1,1v7c0,0.6,0.4,1,1,1c0.6,0,1-0.4,1-1v-7C483,180.4,482.6,180,482,180z"/>
	<path class="st7" d="M482,142c-0.6,0-1,0.4-1,1v7c0,0.6,0.4,1,1,1c0.6,0,1-0.4,1-1v-7C483,142.4,482.6,142,482,142z"/>
	<path class="st7" d="M482,161c-0.6,0-1,0.4-1,1v7c0,0.6,0.4,1,1,1c0.6,0,1-0.4,1-1v-7C483,161.4,482.6,161,482,161z"/>
	<path class="st7" d="M498-2c0,0.6,0.4,1,1,1c0.6,0,1-0.4,1-1v-1.6c-0.7,0.3-1.4,0.5-2,0.9V-2z"/>
	<path class="st7" d="M498-5L498-5c0.6-0.2,1.1-0.5,1.8-0.7C499.6-5.9,499.3-6,499-6C498.4-6,498-5.6,498-5z"/>
	<path class="st7" d="M499,47c-0.6,0-1,0.4-1,1v7c0,0.6,0.4,1,1,1c0.6,0,1-0.4,1-1v-7C500,47.4,499.6,47,499,47z"/>
	<path class="st7" d="M499,161c-0.6,0-1,0.4-1,1v7c0,0.6,0.4,1,1,1c0.6,0,1-0.4,1-1v-7C500,161.4,499.6,161,499,161z"/>
	<path class="st7" d="M499,28c-0.6,0-1,0.4-1,1v7c0,0.6,0.4,1,1,1c0.6,0,1-0.4,1-1v-7C500,28.4,499.6,28,499,28z"/>
	<path class="st7" d="M499,180c-0.6,0-1,0.4-1,1v7c0,0.6,0.4,1,1,1c0.6,0,1-0.4,1-1v-7C500,180.4,499.6,180,499,180z"/>
	<path class="st7" d="M499,9c-0.6,0-1,0.4-1,1v7c0,0.6,0.4,1,1,1c0.6,0,1-0.4,1-1v-7C500,9.4,499.6,9,499,9z"/>
	<path class="st7" d="M499,123c-0.6,0-1,0.4-1,1v7c0,0.6,0.4,1,1,1c0.6,0,1-0.4,1-1v-7C500,123.4,499.6,123,499,123z"/>
	<path class="st7" d="M499,142c-0.6,0-1,0.4-1,1v7c0,0.6,0.4,1,1,1c0.6,0,1-0.4,1-1v-7C500,142.4,499.6,142,499,142z"/>
	<path class="st7" d="M499,66c-0.6,0-1,0.4-1,1v7c0,0.6,0.4,1,1,1c0.6,0,1-0.4,1-1v-7C500,66.4,499.6,66,499,66z"/>
	<path class="st7" d="M499,199c-0.6,0-1,0.4-1,1v7c0,0.6,0.4,1,1,1c0.6,0,1-0.4,1-1v-7C500,199.4,499.6,199,499,199z"/>
	<path class="st7" d="M499,104c-0.6,0-1,0.4-1,1v7c0,0.6,0.4,1,1,1c0.6,0,1-0.4,1-1v-7C500,104.4,499.6,104,499,104z"/>
	<path class="st7" d="M499,218c-0.6,0-1,0.4-1,1v7c0,0.6,0.4,1,1,1c0.6,0,1-0.4,1-1v-7C500,218.4,499.6,218,499,218z"/>
	<path class="st7" d="M499,85c-0.6,0-1,0.4-1,1v7c0,0.6,0.4,1,1,1c0.6,0,1-0.4,1-1v-7C500,85.4,499.6,85,499,85z"/>
	<path class="st7" d="M481.1-105.6c0.6-0.1,1.3-0.2,1.9-0.3c0,0,0-0.1,0-0.1v-5.5c-0.7,0.4-1.4,0.9-2,1.4v4.1
		C481-105.9,481-105.7,481.1-105.6z"/>
	<path class="st7" d="M483-56c0-0.6-0.4-1-1-1c-0.6,0-1,0.4-1,1v5h2V-56z"/>
	<path class="st7" d="M482-105c0.6,0,0.9-0.4,1-0.9c-0.6,0.1-1.3,0.2-1.9,0.3C481.2-105.2,481.5-105,482-105z"/>
	<path class="st7" d="M482-67c0.6,0,1-0.4,1-1v-7c0-0.6-0.4-1-1-1c-0.6,0-1,0.4-1,1v7C481-67.4,481.4-67,482-67z"/>
	<path class="st7" d="M482-86c0.6,0,1-0.4,1-1v-7c0-0.6-0.4-1-1-1c-0.6,0-1,0.4-1,1v7C481-86.4,481.4-86,482-86z"/>
	<path class="st7" d="M482-50c0.6,0,1-0.4,1-1h-2C481-50.4,481.4-50,482-50z"/>
	<path class="st7" d="M500-105.8c0-0.1,0-0.1,0-0.2v-5.7c-0.7-0.4-1.3-0.7-2-1v6.7C498.7-105.9,499.3-105.9,500-105.8z"/>
	<path class="st7" d="M499-67c0.6,0,1-0.4,1-1v-7c0-0.6-0.4-1-1-1c-0.6,0-1,0.4-1,1v7C498-67.4,498.4-67,499-67z"/>
	<path class="st7" d="M499-86c0.6,0,1-0.4,1-1v-7c0-0.6-0.4-1-1-1c-0.6,0-1,0.4-1,1v7C498-86.4,498.4-86,499-86z"/>
	<path class="st7" d="M500-56c0-0.6-0.4-1-1-1c-0.6,0-1,0.4-1,1v5h2V-56z"/>
	<path class="st7" d="M498-106c0,0.6,0.4,1,1,1c0.5,0,0.9-0.3,1-0.8C499.3-105.9,498.7-105.9,498-106L498-106z"/>
	<path class="st7" d="M499-50c0.6,0,1-0.4,1-1h-2C498-50.4,498.4-50,499-50z"/>
	<path class="st7" d="M482.2-20.8c-0.6,0.1-1,0.6-0.9,1.1c0.1,1,0.2,2.2,0.2,3.4c0,0.6,0.4,1,1,1c0.6,0,1-0.4,1-1
		c0-1.3-0.1-2.5-0.2-3.6C483.2-20.5,482.8-20.9,482.2-20.8z"/>
	<path class="st7" d="M422.1-30c0-0.6-0.4-1-1-1h-4.9l0.3,2h4.6C421.6-29,422.1-29.4,422.1-30z"/>
	<path class="st7" d="M451.2-29h5.8h1c0.6,0,1-0.4,1-1s-0.4-1-1-1h-6.8c-0.6,0-1,0.4-1,1C450.2-29.4,450.6-29,451.2-29z"/>
	<path class="st7" d="M469.8-30.8c-0.6-0.1-1.1,0.3-1.1,0.9c-0.1,0.6,0.3,1.1,0.9,1.1c0.1,0,0.3,0,0.4,0v-2
		C469.9-30.8,469.9-30.8,469.8-30.8z"/>
	<path class="st7" d="M432.8-29h6.8c0.5,0,1-0.4,1-1s-0.4-1-1-1h-6.8c-0.6,0-1,0.4-1,1C431.8-29.4,432.2-29,432.8-29z"/>
	<path class="st7" d="M403.6-30c0-0.6-0.4-1-1-1h-0.9l-2,2h2.8C403.1-29,403.6-29.4,403.6-30z"/>
	<path class="st7" d="M476.4-27.5c0.4,0,0.8-0.3,0.9-0.6c0.3-0.5,0-1.1-0.5-1.3c-1.8-0.7-3.9-1.2-6.8-1.4v2c2.6,0.2,4.5,0.6,6,1.2
		C476.1-27.5,476.3-27.5,476.4-27.5z"/>
	<path class="st7" d="M499.5-15.3c0.6,0,1-0.4,1-1c0-1.3,0.1-2.4,0.2-3.4c0-0.5-0.4-1-0.9-1.1c-0.5,0-1,0.4-1.1,0.9
		c-0.1,1.1-0.2,2.3-0.2,3.6C498.5-15.7,498.9-15.3,499.5-15.3z"/>
	<path class="st7" d="M512.8-28.6c0.5-0.1,1-0.6,0.9-1.1c-0.1-0.5-0.5-1-1.1-0.9c-0.9,0.1-1.8,0.2-2.6,0.4v2
		C510.8-28.4,511.8-28.5,512.8-28.6z"/>
	<path class="st7" d="M578.7-30c0,0.6,0.4,1,1,1h3.9l-2-2h-1.9C579.1-31,578.7-30.6,578.7-30z"/>
	<path class="st7" d="M561.2-29h6.8c0.6,0,1-0.4,1-1s-0.4-1-1-1h-6.8c-0.6,0-1,0.4-1,1C560.2-29.4,560.6-29,561.2-29z"/>
	<path class="st7" d="M549.6-31h-6.8c-0.6,0-1,0.4-1,1c0,0.6,0.4,1,1,1h6.8c0.5,0,1-0.4,1-1S550.2-31,549.6-31z"/>
	<path class="st7" d="M531.1-31h-6.8c-0.6,0-1,0.4-1,1c0,0.6,0.4,1,1,1h6.8c0.6,0,1-0.4,1-1S531.7-31,531.1-31z"/>
	<path class="st7" d="M505.1-27.8c0.1,0.4,0.5,0.6,0.9,0.6c0.1,0,0.3-0.1,0.4-0.1c1.1-0.4,2.2-0.7,3.6-0.9v-2
		c-1.7,0.3-3.1,0.7-4.3,1.1C505.1-28.9,504.9-28.3,505.1-27.8z"/>
	<path class="st2" d="M489,2.8v2.9c0-0.1,0.1-0.9,0.4-2C489.3,3.5,489.2,3.1,489,2.8z"/>
	<path class="st2" d="M491,0.6V-8h-2v7.2c0.6,0.7,1.1,1.5,1.5,2.1C490.7,1.1,490.8,0.9,491,0.6z"/>
	<path class="st2" d="M490-10c0.6,0,1,0.4,1,1v1h4.5l-1.7-3h-6.5l-1.7,3h3.5v-1C489-9.6,489.4-10,490-10z"/>
	<polygon class="st2" points="490.5,-16.6 487.2,-11 493.8,-11 	"/>
	<path class="st2" d="M491-9c0-0.6-0.4-1-1-1c-0.6,0-1,0.4-1,1v1h2V-9z"/>
	<path class="st2" d="M490,43c0.2,0,0.4-0.1,0.5-0.1c0,0,0,0,0,0C490.4,42.9,490.2,43,490,43z"/>
	<path class="st2" d="M499.8-5.7c0.1,0.2,0.2,0.4,0.2,0.7v1.4c0.7-0.3,1.4-0.5,2.2-0.7l-0.2-2C501.2-6.1,500.5-5.9,499.8-5.7z"/>
	<path class="st2" d="M491,0.6v1.6c0.3,0.5,0.5,1.1,0.6,1.5c0.8-1.8,2.5-4.5,6.4-6.5V-5C494.5-3.4,492.3-1.3,491,0.6z"/>
	<path class="st2" d="M499.8-5.7c-0.6,0.2-1.2,0.4-1.8,0.7v2.2c0.6-0.3,1.3-0.6,2-0.9V-5C500-5.3,499.9-5.5,499.8-5.7z"/>
	<path class="st2" d="M491,2.2V0.6c-0.2,0.2-0.3,0.5-0.5,0.7C490.7,1.7,490.9,2,491,2.2z"/>
	<path class="st2" d="M490,42V5.7c0-0.2-0.1-0.9-0.6-2c-0.4,1.1-0.4,1.8-0.4,2V42c0,0.6,0.4,1,1,1c0.2,0,0.4-0.1,0.5-0.1
		C490.2,42.7,490,42.4,490,42z"/>
	<polygon class="st2" points="510,-6.8 510,-6 510.7,-6.5 	"/>
	<path class="st2" d="M501.5-10.5l0.5,4.2c0.3-0.1,0.5-0.1,0.8-0.2c0.5-0.1,1.1,0.2,1.2,0.8c0.1,0.5-0.2,1.1-0.8,1.2
		c-0.3,0.1-0.6,0.1-1,0.2l0.5,3.8L510-6v-0.8L501.5-10.5z"/>
	<path class="st2" d="M504-5.7c-0.1-0.6-0.7-0.9-1.2-0.8c-0.3,0.1-0.5,0.1-0.8,0.2l0.2,2c0.3-0.1,0.6-0.2,1-0.2
		C503.8-4.6,504.1-5.2,504-5.7z"/>
	<path class="st2" d="M491,42L491,42c0,0.4-0.2,0.7-0.5,0.9c0.1,0.1,0.3,0.1,0.5,0.1c0.6,0,1-0.4,1-1.1V5.5c0-0.1-0.1-0.8-0.4-1.8
		c-0.4,1.1-0.6,1.9-0.6,2.1V42z"/>
	<path class="st2" d="M483-5.1C483-5.1,483-5,483-5.1l0,2.2c3.3,1.7,5.1,3.9,6,5.6v-3.6C487.7-2.3,485.7-3.9,483-5.1z"/>
	<path class="st2" d="M481.3-5.7c-0.7-0.2-1.4-0.4-2.1-0.6l-0.2,2c0.7,0.2,1.4,0.4,2,0.6V-5C481-5.3,481.1-5.6,481.3-5.7z"/>
	<path class="st2" d="M483-5.1c-0.5-0.2-1.1-0.5-1.7-0.7C481.1-5.6,481-5.3,481-5v1.3c0.7,0.3,1.4,0.5,2,0.9L483-5.1
		C483-5,483-5.1,483-5.1z"/>
	<path class="st2" d="M490.5,1.4c-0.4-0.7-0.9-1.4-1.5-2.1v3.6c0.2,0.3,0.3,0.7,0.4,1C489.7,3.1,490,2.2,490.5,1.4z"/>
	<path class="st2" d="M491,42.1L491,42.1c0,0.3-0.2,0.6-0.5,0.8c0,0,0,0,0,0C490.8,42.7,491,42.4,491,42.1z"/>
	<path class="st2" d="M491,5.8c0-0.2,0.2-1,0.6-2.1c-0.1-0.4-0.3-0.9-0.6-1.5V5.8z"/>
	<path class="st2" d="M489.4,3.7c0.4,1,0.5,1.8,0.6,2V42c0,0.4,0.2,0.7,0.5,0.9c0.3-0.2,0.5-0.5,0.5-0.9V5.8V2.2
		c-0.1-0.3-0.3-0.6-0.5-0.9C490,2.2,489.7,3.1,489.4,3.7z"/>
	<path class="st2" d="M477-5.8c0.1-0.5,0.6-0.9,1.2-0.8c0.3,0.1,0.7,0.2,1,0.2l0.5-4.1l-9.2,4l8,6l0.5-3.8c-0.4-0.1-0.8-0.2-1.2-0.3
		C477.3-4.7,476.9-5.2,477-5.8z"/>
	<path class="st2" d="M478.2-6.6c-0.6-0.1-1.1,0.3-1.2,0.8c-0.1,0.6,0.3,1.1,0.8,1.2c0.4,0.1,0.8,0.2,1.2,0.3l0.2-2
		C478.9-6.4,478.5-6.5,478.2-6.6z"/>
	<path class="st6" d="M413.3-42.2l2.8-2.8h-0.4l-3,3h0.4C413.2-42.1,413.2-42.1,413.3-42.2z"/>
	<polygon class="st6" points="470,-42 470,-45 452.9,-45 449.9,-42 	"/>
	<path class="st6" d="M447.2-42c0-0.1,0.1-0.1,0.1-0.2l2.8-2.8h-31.2l-3,3H447.2z"/>
	<polygon class="st6" points="416.9,-40 417.9,-39 449.1,-39 448.1,-40 	"/>
	<polygon class="st6" points="414.1,-40 410.7,-40 409.7,-39 415.1,-39 	"/>
	<polygon class="st6" points="450.9,-40 451.9,-39 470,-39 470,-40 	"/>
	<rect x="470" y="-45" class="st6" width="3.3" height="3"/>
	<rect x="470" y="-40" class="st6" width="3.3" height="1"/>
	<path class="st8" d="M517.9-40h34.2l-0.8-0.8c-0.3-0.3-0.4-0.8-0.1-1.2h-34.3l-0.5,0.5L517.9-40z"/>
	<polygon class="st8" points="553.4,-41.5 554.9,-40 572.6,-40 570.6,-42 553.9,-42 	"/>
	<path class="st8" d="M515.1-40l-0.8-0.8c-0.3-0.3-0.4-0.8-0.1-1.2H510v2H515.1z"/>
	<polygon class="st8" points="479.4,-41.5 480.9,-40 510,-40 510,-42 479.9,-42 	"/>
	<path class="st8" d="M477.2-42h-3.9v2h4.8l-0.8-0.8C477-41.1,476.9-41.6,477.2-42z"/>
	<polygon class="st8" points="449.9,-42 449.4,-41.5 450.9,-40 470,-40 470,-42 	"/>
	<path class="st8" d="M447.2-42h-31.3l-0.5,0.5l1.5,1.5h31.2l-0.8-0.8C447-41.1,446.9-41.6,447.2-42z"/>
	<path class="st8" d="M413.3-40.8c-0.3-0.3-0.4-0.8-0.1-1.2h-0.4l-2,2h3.4L413.3-40.8z"/>
	<rect x="470" y="-42" class="st8" width="3.3" height="2"/>
	<path class="st8" d="M451.5-36.6c0.2,0.2,0.4,0.3,0.7,0.3c0.2,0,0.5-0.1,0.7-0.3c0.4-0.4,0.4-1,0-1.4l-1-1h-2.8L451.5-36.6z"/>
	<polygon class="st8" points="448.1,-40 449.1,-39 451.9,-39 450.9,-40 	"/>
	<path class="st8" d="M448.7-40.8c-0.2,0.2-0.4,0.3-0.7,0.3s-0.5-0.1-0.7-0.3l0.8,0.8h2.8l-1.5-1.5L448.7-40.8z"/>
	<path class="st8" d="M452.9-46.4c-0.4-0.4-1-0.4-1.4,0l-1.4,1.4h2.8C453.3-45.4,453.3-46,452.9-46.4z"/>
	<path class="st8" d="M448.7-42.2l0.2,0.2h1l3-3h-2.8l-2.8,2.8C447.7-42.6,448.3-42.6,448.7-42.2z"/>
	<polygon class="st8" points="449.9,-42 448.9,-42 449.4,-41.5 	"/>
	<path class="st8" d="M448.7-42.2c-0.4-0.4-1-0.4-1.4,0c-0.1,0.1-0.1,0.1-0.1,0.2h1.7L448.7-42.2z"/>
	<path class="st8" d="M447.3-40.8c0.2,0.2,0.4,0.3,0.7,0.3s0.5-0.1,0.7-0.3l0.7-0.7l-0.5-0.5h-1.7C446.9-41.6,447-41.1,447.3-40.8z"
		/>
	<path class="st8" d="M417.5-36.6c0.2,0.2,0.4,0.3,0.7,0.3c0.2,0,0.5-0.1,0.7-0.3c0.4-0.4,0.4-1,0-1.4l-1-1h-2.8L417.5-36.6z"/>
	<polygon class="st8" points="414.1,-40 415.1,-39 417.9,-39 416.9,-40 	"/>
	<path class="st8" d="M415.4-41.5l-0.7,0.7c-0.2,0.2-0.4,0.3-0.7,0.3s-0.5-0.1-0.7-0.3l0.8,0.8h2.8L415.4-41.5z"/>
	<path class="st8" d="M418.9-46.4c-0.4-0.4-1-0.4-1.4,0l-1.4,1.4h2.8C419.3-45.4,419.3-46,418.9-46.4z"/>
	<path class="st8" d="M414.7-42.2l0.2,0.2h1l3-3h-2.8l-2.8,2.8C413.7-42.6,414.3-42.6,414.7-42.2z"/>
	<polygon class="st8" points="414.9,-42 415.4,-41.5 415.9,-42 	"/>
	<path class="st8" d="M414.7-42.2c-0.4-0.4-1-0.4-1.4,0c-0.1,0.1-0.1,0.1-0.1,0.2h1.7L414.7-42.2z"/>
	<path class="st8" d="M414.7-40.8l0.7-0.7l-0.5-0.5h-1.7c-0.2,0.4-0.2,0.9,0.1,1.2c0.2,0.2,0.4,0.3,0.7,0.3S414.5-40.6,414.7-40.8z"
		/>
	<path class="st8" d="M481.5-36.6c0.2,0.2,0.4,0.3,0.7,0.3c0.2,0,0.5-0.1,0.7-0.3c0.4-0.4,0.4-1,0-1.4l-2-2h-2.8L481.5-36.6z"/>
	<path class="st8" d="M478.7-40.8c-0.2,0.2-0.4,0.3-0.7,0.3s-0.5-0.1-0.7-0.3l0.8,0.8h2.8l-1.5-1.5L478.7-40.8z"/>
	<path class="st8" d="M478.7-42.2l0.2,0.2h1l3-3c0.4-0.4,0.4-1,0-1.4c-0.4-0.4-1-0.4-1.4,0l-4.2,4.2
		C477.7-42.6,478.3-42.6,478.7-42.2z"/>
	<polygon class="st8" points="479.4,-41.5 479.9,-42 478.9,-42 	"/>
	<path class="st8" d="M478.7-42.2c-0.4-0.4-1-0.4-1.4,0c-0.1,0.1-0.1,0.1-0.1,0.2h1.7L478.7-42.2z"/>
	<path class="st8" d="M477.3-40.8c0.2,0.2,0.4,0.3,0.7,0.3s0.5-0.1,0.7-0.3l0.7-0.7l-0.5-0.5h-1.7C476.9-41.6,477-41.1,477.3-40.8z"
		/>
	<path class="st8" d="M518.5-36.6c0.2,0.2,0.4,0.3,0.7,0.3c0.2,0,0.5-0.1,0.7-0.3c0.4-0.4,0.4-1,0-1.4l-2-2h-2.8L518.5-36.6z"/>
	<path class="st8" d="M515.7-40.8c-0.2,0.2-0.4,0.3-0.7,0.3s-0.5-0.1-0.7-0.3l0.8,0.8h2.8l-1.5-1.5L515.7-40.8z"/>
	<path class="st8" d="M515.7-42.2l0.2,0.2h1l3-3c0.4-0.4,0.4-1,0-1.4c-0.4-0.4-1-0.4-1.4,0l-4.2,4.2
		C514.7-42.6,515.3-42.6,515.7-42.2z"/>
	<polygon class="st8" points="516.4,-41.5 516.9,-42 515.9,-42 	"/>
	<path class="st8" d="M515.7-42.2c-0.4-0.4-1-0.4-1.4,0c-0.1,0.1-0.1,0.1-0.1,0.2h1.7L515.7-42.2z"/>
	<path class="st8" d="M514.3-40.8c0.2,0.2,0.4,0.3,0.7,0.3s0.5-0.1,0.7-0.3l0.7-0.7l-0.5-0.5h-1.7C513.9-41.6,514-41.1,514.3-40.8z"
		/>
	<path class="st8" d="M555.5-36.6c0.2,0.2,0.4,0.3,0.7,0.3c0.2,0,0.5-0.1,0.7-0.3c0.4-0.4,0.4-1,0-1.4l-2-2h-2.8L555.5-36.6z"/>
	<path class="st8" d="M552-40.5c-0.3,0-0.5-0.1-0.7-0.3l0.8,0.8h2.8l-1.5-1.5l-0.7,0.7C552.5-40.6,552.3-40.5,552-40.5z"/>
	<path class="st8" d="M552.7-42.2l0.2,0.2h1l3-3c0.4-0.4,0.4-1,0-1.4c-0.4-0.4-1-0.4-1.4,0l-4.2,4.2
		C551.7-42.6,552.3-42.6,552.7-42.2z"/>
	<polygon class="st8" points="553.4,-41.5 553.9,-42 552.9,-42 	"/>
	<path class="st8" d="M552.7-42.2c-0.4-0.4-1-0.4-1.4,0c-0.1,0.1-0.1,0.1-0.1,0.2h1.7L552.7-42.2z"/>
	<path class="st8" d="M551.3-40.8c0.2,0.2,0.4,0.3,0.7,0.3s0.5-0.1,0.7-0.3l0.7-0.7l-0.5-0.5h-1.7C550.9-41.6,551-41.1,551.3-40.8z"
		/>
	<path class="st6" d="M389.9,108.4l1,1.9l30.8-16.3l1.5-4.7c0.2-0.5,0.7-0.8,1.3-0.7c0.5,0.2,0.8,0.7,0.7,1.3l-0.8,2.7l2.8-1.5
		l-0.7-4.5l-37.3,20l0.4,0.8C389.7,107.6,389.9,108,389.9,108.4z"/>
	<polygon class="st6" points="435.4,89.1 435.6,90.2 432.2,90.8 432.1,90.8 435.7,90.5 435.8,91.6 470,73.4 470,70.8 	"/>
	<path class="st6" d="M421.8,96.3l-30,15.9l1.2,2.3L425,97.4l-3-1C421.9,96.4,421.9,96.3,421.8,96.3z"/>
	<polygon class="st6" points="427.5,96 427.3,93.4 424.3,94.9 	"/>
	<polygon class="st6" points="384.1,116.2 371.4,122.9 373.4,124.9 385.3,118.6 	"/>
	<polygon class="st6" points="435.1,86.9 470,68.4 470,63.3 434.3,82.4 	"/>
	<polygon class="st6" points="381.3,110.7 366.9,118.4 369.9,121.4 383.2,114.4 	"/>
	<polygon class="st6" points="474,66.4 471.9,62.3 470,63.3 470,68.4 	"/>
	<polygon class="st6" points="470,70.8 470,73.4 474,71.2 474,68.7 	"/>
	<path class="st6" d="M616.4,110.4L612,111l-0.1,0.2l-0.6-0.1l-20.8,2.7l-2.1,2.8l26.1-3.2c0-0.2,0.1-0.3,0.2-0.5L616.4,110.4z"/>
	<path class="st6" d="M619.5,107.7c0.1,0,0.2,0.1,0.2,0.1c0.1,0,0.1,0.1,0.1,0.2l7.9-1l4.8-4.8l-17.5,2.2L619.5,107.7z"/>
	<path class="st6" d="M529,119.6l-2.3-1.8c-0.4-0.3-0.5-1-0.2-1.4c0.3-0.4,1-0.5,1.4-0.2l4,3l12.1-1.6v-4.5l-34,4.2v4.6L529,119.6z"
		/>
	<path class="st6" d="M532.9,121.1C532.9,121.1,532.9,121.2,532.9,121.1l-1.9,2.5l13-1.6v-2.3L532.9,121.1z"/>
	<path class="st6" d="M585.9,108.2l4.6,3.5c0,0,0,0,0.1,0l9.6-1.2h-2.2l0-4l-12.6,1.6C585.5,108,585.7,108.1,585.9,108.2z"/>
	<polygon class="st6" points="510,124.1 510,126.3 528.2,124 530.2,121.5 	"/>
	<polygon class="st6" points="617,112.9 622.5,112.3 625.4,109.3 619.2,110.1 	"/>
	<path class="st6" d="M587.7,112.1l-3-2.3c-0.4-0.3-0.5-1-0.2-1.4c0.1-0.2,0.3-0.3,0.6-0.3l-21.1,2.6v4.4L587.7,112.1z"/>
	<path class="st6" d="M587.7,114.1l-23.7,3v2.4l21.6-2.7c0,0,0,0,0-0.1L587.7,114.1z"/>
	<polygon class="st6" points="617,108.3 614.1,106.1 612.9,108.9 	"/>
	<polygon class="st6" points="510,117.4 508.8,117.6 509.3,122.1 510,122 	"/>
	<polygon class="st6" points="509.5,124.1 509.7,126.3 510,126.3 510,124.1 	"/>
	<polygon class="st6" points="363.7,62 363.6,70.8 361,70.8 381.3,110.7 389,106.6 346.9,23.9 340.4,30.3 356.5,62 	"/>
	<path class="st6" d="M393.7,116c-0.1,0.5-0.5,0.7-1,0.7c-0.1,0-0.2,0-0.3,0l-2.2-0.7l-4.8,2.6l19,37.2l19.8,19.8l-30.4-59.7
		C393.7,115.9,393.7,116,393.7,116z"/>
	<path class="st6" d="M393,114.7c0,0,0.1,0.1,0.1,0.1l-0.2-0.3l-0.2,0.1L393,114.7z"/>
	<path class="st6" d="M389,111.3l1.8-1l-1-1.9c0,0.1,0,0.1,0,0.2L389,111.3z"/>
	<polygon class="st6" points="389.2,113.5 392.7,114.6 393,114.5 391.8,112.2 	"/>
	<path class="st6" d="M386.8,115c-0.1,0-0.1-0.1-0.2-0.1l-2.5,1.3l1.2,2.4l4.8-2.6l-3.1-1C386.9,115,386.9,115,386.8,115z"/>
	<path class="st6" d="M387.9,108c0.2-0.5,0.7-0.8,1.3-0.7c0.1,0,0.1,0.1,0.2,0.1l-0.4-0.8l-7.6,4.1l1.9,3.7l3.2-1.7L387.9,108z"/>
	<path class="st6" d="M427.6,96l0.7,0.2c0.5,0.2,0.8,0.7,0.7,1.3c-0.2,0.4-0.6,0.7-1,0.7c-0.1,0-0.2,0-0.2,0l8.5,89.5l9.6,9.6
		l-10-105.7L427.6,96z"/>
	<polygon class="st6" points="432.1,90.8 427.3,93.4 427.5,96 427.6,96 435.8,91.6 435.7,90.5 	"/>
	<path class="st6" d="M316.7,61.8c0,1.1,0.2,2.3,0.5,3.4v-3.4L316.7,61.8z"/>
	<path class="st6" d="M320,61.9l-2.8,0v3.4c0.5,1.9,1.3,3.7,2.4,5.4l0.4,0V61.9z"/>
	<polygon class="st6" points="320,61.9 320,70.7 361,70.8 356.5,62 	"/>
	<polygon class="st6" points="363.7,62 356.5,62 361,70.8 363.6,70.8 	"/>
	<polygon class="st6" points="419.4,-11 410.7,-11 426.3,86.7 434.3,82.4 	"/>
	<path class="st6" d="M419.4-11l-2.9-18h-2.2c-0.6,0-1-0.4-1-1c0-0.6,0.4-1,1-1h1.9l-1.3-7.9l-6.3,1.1l-1.9,1.9l4,25H419.4z"/>
	<path class="st6" d="M414.3-31c-0.6,0-1,0.4-1,1c0,0.6,0.4,1,1,1h2.2l-0.3-2H414.3z"/>
	<polygon class="st6" points="435.1,86.9 434.3,82.4 426.3,86.7 427,91.2 	"/>
	<polygon class="st6" points="435.6,90.2 435.4,89.1 432.2,90.8 	"/>
	<path class="st9" d="M445.2,113.3h7.5c1.3,0,2.3-1,2.3-2.3V97.5c0-1.3-1-2.3-2.3-2.3h-9.6c-1.5,0-2.6,1.3-2.3,2.6l2.1,13.5
		C443.1,112.5,444.1,113.3,445.2,113.3z"/>
	<path class="st9" d="M457.5,113.3h4.7c0.5,0,1-0.5,1-1V96.2c0.1-0.5-0.4-1-1-1h-4.7c-0.5,0-1,0.5-1,1v16.1
		C456.5,112.8,457,113.3,457.5,113.3z"/>
	<path class="st10" d="M536.3,163.4h-16.1c-0.5,0-1,0.5-1,1v4.7c0,0.5,0.5,1,1,1h16.1c0.5,0,1-0.5,1-1v-4.7
		C537.4,163.9,536.9,163.4,536.3,163.4z"/>
	<path class="st10" d="M536.3,154.1h-16.1c-0.5,0-1,0.5-1,1v4.7c0,0.5,0.5,1,1,1h16.1c0.5,0,1-0.5,1-1v-4.7
		C537.4,154.6,536.9,154.1,536.3,154.1z"/>
	<path class="st9" d="M462.6,132.7h-14.9c-1,0-1.8,0.6-1.8,1.2l3,20.1c4.8,0.4,1.7,0.8,2.6,0.8h11c1,0,1.8-0.6,1.8-1.2v-19.7
		C464.4,133.2,463.5,132.7,462.6,132.7z"/>
	<path class="st10" d="M536.3,184h-16.1c-0.5,0-1,0.5-1,1v8.2c0,0.5,0.5,1,1,1h16.1c0.5,0,1-0.5,1-1V185
		C537.4,184.5,536.9,184,536.3,184z"/>
	<path class="st10" d="M536.3,172.4h-16.1c-0.5,0-1,0.5-1,1v8.2c0,0.5,0.5,1,1,1h16.1c0.5,0,1-0.5,1-1v-8.2
		C537.4,172.9,536.9,172.4,536.3,172.4z"/>
	<path class="st10" d="M536.3,142.1h-16.1c-0.5,0-1,0.5-1,1v8.2c0,0.5,0.5,1,1,1h16.1c0.5,0,1-0.5,1-1v-8.2
		C537.4,142.6,536.9,142.1,536.3,142.1z"/>
	<path class="st10" d="M536.3,129.3h-16.1c-0.5,0-1,0.5-1,1v8.2c0,0.5,0.5,1,1,1h16.1c0.5,0,1-0.5,1-1v-8.2
		C537.4,129.8,536.9,129.3,536.3,129.3z"/>
	<path class="st10" d="M602.7,121.2L602.7,121.2l-4.7,0.5c-0.5,0.1-0.9,0.6-0.9,1.1l1.5,13.3l6-6l-0.9-8
		C603.6,121.6,603.2,121.2,602.7,121.2z"/>
	<path class="st10" d="M612,120.1L612,120.1l-4.7,0.5c-0.5,0.1-0.9,0.6-0.9,1.1l0.7,5.9l6-6l-0.1-0.7
		C612.9,120.5,612.4,120.1,612,120.1z"/>
	<path class="st10" d="M582.2,123.6L582.2,123.6l-8.2,0.9c-0.5,0.1-0.9,0.6-0.9,1.1l1.9,16c0.1,0.5,0.5,0.9,1,0.9h0.1l8.2-0.9
		c0.5-0.1,0.9-0.6,0.9-1.1l-1.9-16C583.2,124,582.7,123.6,582.2,123.6z"/>
	<path class="st10" d="M593.8,122.2L593.8,122.2l-8.3,0.9c-0.5,0.1-0.9,0.6-0.9,1.1l1.9,16c0.1,0.5,0.5,0.9,1,0.9h0.1l6.8-0.8
		l2.1-2.1l-1.8-15.2C594.7,122.6,594.3,122.2,593.8,122.2z"/>
	<path class="st10" d="M536.5,93.2H520c-0.4,0.1-0.8,0.5-0.8,0.9V107c0,0.5,0.4,0.8,0.8,0.8h0.1l16.5-2c0.4-0.1,0.7-0.4,0.7-0.8V94
		C537.4,93.6,536.9,93.2,536.5,93.2z"/>
	<path class="st10" d="M520.2,91.7h16.1c0.5,0,1-0.5,1-1V86c0.1-0.5-0.4-1-1-1h-16.1c-0.5,0-1,0.5-1,1v4.7
		C519.2,91.2,519.7,91.7,520.2,91.7z"/>
	<path class="st10" d="M520.2,59.1h16.1c0.5,0,1-0.5,1-1v-4.7c0.1-0.5-0.4-1-1-1h-16.1c-0.5,0-1,0.5-1,1v4.7
		C519.2,58.6,519.7,59.1,520.2,59.1z"/>
	<path class="st10" d="M520.2,25.4h16.1c0.5,0,1-0.5,1-1v-4.7c0.1-0.6-0.4-1-1-1h-16.1c-0.5,0-1,0.5-1,1v4.7
		C519.2,24.9,519.7,25.4,520.2,25.4z"/>
	<path class="st10" d="M520.2,16.4h16.1c0.5,0,1-0.5,1-1v-4.7c0.1-0.6-0.4-1-1-1h-16.1c-0.5,0-1,0.5-1,1v4.7
		C519.2,15.9,519.7,16.4,520.2,16.4z"/>
	<path class="st10" d="M520.2,83.8h16.1c0.5,0,1-0.5,1-1v-8.2c0.1-0.5-0.4-1-1-1h-16.1c-0.5,0-1,0.4-1,1v8.2
		C519.2,83.3,519.7,83.8,520.2,83.8z"/>
	<path class="st10" d="M520.2,71.6h16.1c0.5,0,1-0.5,1-1v-8.2c0.1-0.6-0.4-1-1-1h-16.1c-0.5,0-1,0.5-1,1v8.2
		C519.2,71.1,519.7,71.6,520.2,71.6z"/>
	<path class="st10" d="M520.2,49.9h16.1c0.5,0,1-0.5,1-1v-8.2c0.1-0.5-0.4-1-1-1h-16.1c-0.5,0-1,0.5-1,1v8.2
		C519.2,49.4,519.7,49.9,520.2,49.9z"/>
	<path class="st10" d="M520.2,7.1h16.1c0.5,0,1-0.5,1-1v-8.2c0.1-0.5-0.4-1-1-1h-16.1c-0.5,0-1,0.5-1,1v8.2
		C519.2,6.6,519.7,7.1,520.2,7.1z"/>
	<path class="st10" d="M520.2,37.4h16.1c0.5,0,1-0.5,1-1v-8.2c0.1-0.5-0.4-1-1-1h-16.1c-0.5,0-1,0.5-1,1v8.2
		C519.2,36.9,519.7,37.4,520.2,37.4z"/>
	<path class="st10" d="M572,102.8h0.1l16.5-2c0.4-0.1,0.7-0.4,0.7-0.8V89c0.1-0.4-0.4-0.8-0.8-0.8H572c-0.4,0.1-0.8,0.5-0.8,0.9V102
		C571.2,102.5,571.6,102.8,572,102.8z"/>
	<path class="st10" d="M572.2,86.7h16.1c0.5,0,1-0.5,1-1V81c0.1-0.5-0.4-1-1-1h-16.1c-0.5,0-1,0.5-1,1v4.7
		C571.2,86.2,571.7,86.7,572.2,86.7z"/>
	<path class="st10" d="M572.2,54.1h16.1c0.5,0,1-0.5,1-1v-4.7c0.1-0.5-0.4-1-1-1h-16.1c-0.5,0-1,0.5-1,1v4.7
		C571.2,53.6,571.7,54.1,572.2,54.1z"/>
	<path class="st10" d="M572.2,20.4h16.1c0.5,0,1-0.5,1-1v-4.7c0.1-0.6-0.4-1-1-1h-16.1c-0.5,0-1,0.5-1,1v4.7
		C571.2,19.9,571.7,20.4,572.2,20.4z"/>
	<path class="st10" d="M572.2,11.4h16.1c0.5,0,1-0.5,1-1V5.7c0.1-0.6-0.4-1-1-1h-16.1c-0.5,0-1,0.5-1,1v4.7
		C571.2,10.9,571.7,11.4,572.2,11.4z"/>
	<path class="st10" d="M572.2,78.8h16.1c0.5,0,1-0.5,1-1v-8.2c0.1-0.5-0.4-1-1-1h-16.1c-0.5,0-1,0.4-1,1v8.2
		C571.2,78.3,571.7,78.8,572.2,78.8z"/>
	<path class="st10" d="M572.2,66.6h16.1c0.5,0,1-0.5,1-1v-8.2c0.1-0.6-0.4-1-1-1h-16.1c-0.5,0-1,0.5-1,1v8.2
		C571.2,66.1,571.7,66.6,572.2,66.6z"/>
	<path class="st10" d="M572.2,44.9h16.1c0.5,0,1-0.5,1-1v-8.2c0.1-0.5-0.4-1-1-1h-16.1c-0.5,0-1,0.5-1,1v8.2
		C571.2,44.4,571.7,44.9,572.2,44.9z"/>
	<path class="st10" d="M572.2,32.4h16.1c0.5,0,1-0.5,1-1v-8.2c0.1-0.5-0.4-1-1-1h-16.1c-0.5,0-1,0.5-1,1v8.2
		C571.2,31.9,571.7,32.4,572.2,32.4z"/>
	<path class="st9" d="M390.5,96.2c0.1,0,0.3-0.1,0.5-0.1l29.4-14.6c0.5-0.2,0.7-0.7,0.6-1.2l-4.1-22c0-0.6-0.5-0.9-0.9-0.9
		c-0.1,0-0.3,0.1-0.5,0.1l-34.9,17.2c-0.5,0.3-0.7,0.9-0.5,1.5l9.5,19.4C389.8,96,390.2,96.2,390.5,96.2z"/>
	<path class="st9" d="M385.5,65.5l-2.1-4.2c-0.2-0.3-0.6-0.5-0.9-0.5c-0.1,0-0.3,0.1-0.5,0.1l-6.7,3.5c-0.5,0.3-0.7,0.9-0.5,1.3
		l2.1,4.2c0.2,0.3,0.5,0.5,0.9,0.5c0.1,0,0.3-0.1,0.5-0.1l6.7-3.5C385.5,66.5,385.7,65.9,385.5,65.5z"/>
	<path class="st9" d="M370.9,33.1l-2.1-4.2c-0.2-0.3-0.5-0.5-0.9-0.5c-0.1,0-0.3,0.1-0.5,0.1l-6.7,3.5c-0.5,0.3-0.7,0.9-0.5,1.3
		l2.1,4.2c0.2,0.3,0.5,0.5,0.9,0.5c0.1,0,0.3-0.1,0.5-0.1l6.7-3.5C370.9,34.1,371.1,33.5,370.9,33.1z"/>
	<path class="st9" d="M389,54.1l-3.7-7.5c-0.2-0.4-0.5-0.6-0.9-0.6c-0.1,0-0.3,0.1-0.5,0.1l-14.1,7.3c-0.5,0.3-0.7,0.9-0.5,1.3
		l3.7,7.5c0.2,0.3,0.5,0.5,0.9,0.5c0.1,0,0.3-0.1,0.5-0.1l14.1-7.2C389,55.1,389.2,54.5,389,54.1z"/>
	<path class="st9" d="M383.5,42.1l-3.7-7.5c-0.2-0.4-0.5-0.6-0.9-0.6c-0.1,0-0.3,0.1-0.5,0.1l-14.1,7.3c-0.5,0.3-0.7,0.9-0.5,1.3
		l3.7,7.5c0.2,0.3,0.5,0.5,0.9,0.5c0.1,0,0.3-0.1,0.5-0.1l14.1-7.2C383.5,43.1,383.7,42.5,383.5,42.1z"/>
	<path class="st9" d="M401.9,21.5h0.2l7.4-1.3c0.5-0.1,0.9-0.6,0.8-1.2l-0.8-4.7c-0.2-0.6-0.6-0.9-1-0.9h-0.2l-7.4,1.3
		c-0.5,0.1-0.9,0.6-0.8,1.2l0.8,4.7C401,21.1,401.4,21.5,401.9,21.5z"/>
	<path class="st9" d="M395.7,35.1h0.2l15.5-2.8c0.5-0.1,0.9-0.6,0.8-1.2l-1.4-8.3c0-0.6-0.4-0.9-1-0.9h-0.2l-15.5,2.8
		c-0.5,0.1-0.9,0.6-0.8,1.2l1.4,8.3C394.8,34.7,395.2,35.1,395.7,35.1z"/>
	<path class="st9" d="M411.7,34l-15.5,2.8c-0.5,0.1-0.9,0.6-0.8,1.2l1.4,8.3c0.1,0.5,0.5,0.9,1,0.9h0.2l15.5-2.8
		c0.5-0.1,0.9-0.6,0.8-1.2l-1.4-8.3c-0.1-0.6-0.5-0.9-1-0.9H411.7z"/>
	<path class="st9" d="M398.4,50.6l0.8,4.7c0.1,0.5,0.5,0.9,1,0.9h0.2l15.5-2.8c0.5-0.1,0.9-0.6,0.8-1.2l-0.8-4.7
		c-0.1-0.5-0.5-0.9-1-0.9h-0.2l-15.5,2.8C398.7,49.5,398.3,50,398.4,50.6z"/>
	<path class="st9" d="M461.4,130c1,0,1.7-0.8,1.7-1.7v-9.6c0.2-1.1-0.6-1.9-1.6-1.9h-16.6c-1.1,0-1.9,1-1.7,2.1l1.7,9.6
		c0.1,0.9,0.9,1.5,1.7,1.5H461.4z"/>
	<path class="st9" d="M423.6,103c-0.2,0-0.3,0.1-0.5,0.1l-23.8,13.5c-0.5,0.3-0.7,0.9-0.4,1.5l30.5,56.6c0.2,0.4,0.5,0.5,0.9,0.5
		c0.6,0,1.1-0.5,1.1-1.2l-6.6-70.1C424.6,103.4,424.2,103,423.6,103z"/>
	<polygon class="st6" points="597.9,106.5 603.4,105.8 606.5,98.7 605.7,-6.9 601.6,-11 597.1,-11 	"/>
	<polygon class="st6" points="601.6,-11 597,-15.6 597.1,-11 	"/>
	<polygon class="st6" points="600.1,110.5 604.4,109.9 601.8,109.5 603.4,105.8 597.9,106.5 597.9,110.5 	"/>
	<path class="st6" d="M606.6,105.4l6.9-0.9c0,0,0-0.1,0.1-0.1c0.3-0.4,1-0.5,1.4-0.2l30.4-71.6l-7-7l-31.8,73L606.6,105.4z"/>
	<polygon class="st6" points="611.9,111.2 612,111 611.3,111.1 	"/>
	<path class="st6" d="M612.9,108.9l1.2-2.8l-0.4-0.3c-0.4-0.3-0.5-0.9-0.3-1.3l-6.9,0.9l0,4.3L612.9,108.9z"/>
	<polygon class="st6" points="606.5,98.7 603.4,105.8 606.6,105.4 	"/>
	<polygon class="st6" points="604.4,109.9 606.6,109.7 606.6,105.4 603.4,105.8 601.8,109.5 	"/>
	<path class="st9" d="M611.9,1.3l0.7,64.3c0,0.4,0.2,0.7,0.6,0.9c0.5,0.3,1.2,0.1,1.5-0.6l18.6-45.2L612.8,0.2
		C612.3,0.3,611.8,0.7,611.9,1.3z"/>
	<circle class="st5" cx="346.8" cy="94.2" r="2.1"/>
	<path class="st6" d="M559.7,120.1l-1.5,1.9c-0.2,0.3-0.5,0.4-0.8,0.4c-0.2,0-0.4-0.1-0.6-0.2c-0.4-0.3-0.5-1-0.2-1.4l0.3-0.4
		L544,122v68.7l20-20v-51.2L559.7,120.1z"/>
	<polygon class="st6" points="564,110.7 564,-11 544,-11 544,113.2 	"/>
	<rect x="544" y="-13" class="st6" width="20" height="2"/>
	<path class="st6" d="M555.7,113.8c-0.4-0.3-0.5-1-0.2-1.4c0.3-0.4,1-0.5,1.4-0.2l4.3,3.3l2.8-0.4v-4.4l-20,2.5v4.5l14.4-1.8
		L555.7,113.8z"/>
	<polygon class="st6" points="561.7,117.4 559.7,120.1 564,119.5 564,117.1 	"/>
	<polygon class="st6" points="544,119.7 544,122 556.9,120.4 558.9,117.8 	"/>
	<path class="st8" d="M475,66c0.6,0,1,0.4,1,1v0.6c0.5-0.3,0.7-0.9,0.4-1.4s-0.9-0.7-1.4-0.4l-1,0.6l0.1,0.2
		C474.2,66.2,474.6,66,475,66z"/>
	<polygon class="st8" points="432.1,90.8 432.2,90.8 431.3,90.9 	"/>
	<polygon class="st8" points="470,70.8 470,68.4 435.1,86.9 435.4,89.1 	"/>
	<path class="st8" d="M421.4,95.9c-0.1-0.2-0.2-0.5-0.1-0.8l0.3-1l-30.8,16.3l0.9,1.8l30-15.9C421.6,96.2,421.5,96.1,421.4,95.9z"/>
	<polygon class="st8" points="383.2,114.4 369.9,121.4 371.4,122.9 384.1,116.2 	"/>
	<polygon class="st8" points="427.1,91.6 427,91.2 424.3,92.7 423.6,94.7 424.3,94.9 427.3,93.4 427.1,91.6 	"/>
	<path class="st8" d="M470,70.8l4-2.1V67c0-0.2,0-0.3,0.1-0.4l-0.1-0.2l-4,2.1V70.8z"/>
	<path class="st8" d="M386.4,114.7c-0.3-0.3-0.5-0.7-0.4-1.1c0.1-0.1,0.1-0.3,0.2-0.4l0.2-0.5l-3.2,1.7l0.9,1.8l2.5-1.3
		C386.5,114.8,386.5,114.8,386.4,114.7z"/>
	<polygon class="st8" points="389,111.3 388.4,113.3 389.2,113.5 391.8,112.2 390.9,110.3 	"/>
	<polygon class="st8" points="427.1,91.6 427.3,93.4 432.1,90.8 431.3,90.9 	"/>
	<polygon class="st8" points="427.1,91.6 427.1,91.6 427.1,91.3 431.3,90.9 432.2,90.8 435.4,89.1 435.1,86.9 427,91.2 	"/>
	<polygon class="st8" points="427.1,91.3 427.1,91.6 431.3,90.9 	"/>
	<path class="st8" d="M507,124v0.4l2.5-0.3l-0.2-2l-2.9,0.4c-0.4,0.1-0.7,0.3-0.8,0.6c0.1,0,0.3-0.1,0.4-0.1
		C506.6,123,507,123.4,507,124z"/>
	<polygon class="st8" points="529,119.6 510,122 510,124.1 530.2,121.5 530.7,120.8 	"/>
	<polygon class="st8" points="587.7,112.1 564,115.1 564,117.1 587.7,114.1 588.7,112.8 	"/>
	<path class="st8" d="M606.6,110.5h-6.5l-9.6,1.2c0.1,0,0.1,0,0.2,0.1c0.4,0.3,0.5,1,0.2,1.4l-0.4,0.6l20.8-2.7l-4.7-0.8
		L606.6,110.5z"/>
	<path class="st8" d="M619.9,109.2l-0.7,0.9l6.2-0.8l2.3-2.3l-7.9,1C620.1,108.3,620.2,108.9,619.9,109.2z"/>
	<path class="st8" d="M531.9,119.2l0.6,0.5c0.1,0,0.2,0.1,0.2,0.1c0.4,0.3,0.5,0.9,0.2,1.3l11.1-1.4v-2L531.9,119.2z"/>
	<polygon class="st8" points="612,111 616.4,110.4 617.7,108.8 617,108.3 612.9,108.9 	"/>
	<polygon class="st8" points="510,124.1 510,122 509.3,122.1 509.5,124.1 	"/>
	<polygon class="st8" points="606.6,110.3 604.4,109.9 600.1,110.5 606.6,110.5 	"/>
	<polygon class="st8" points="606.6,109.7 606.6,110.3 611.3,111.1 612,111 612.9,108.9 	"/>
	<polygon class="st8" points="606.6,109.7 604.4,109.9 606.6,110.3 	"/>
	<polygon class="st8" points="558.4,115.8 544,117.7 544,119.7 558.9,117.8 559.7,116.8 	"/>
	<path class="st8" d="M561.2,115.5l0.3,0.2c0.1,0,0.2,0.1,0.2,0.1c0.4,0.3,0.5,1,0.2,1.4l-0.2,0.2l2.3-0.3v-2L561.2,115.5z"/>
	<path class="st8" d="M393.1,114.8l0.6,1.1C393.7,115.4,393.5,115,393.1,114.8z"/>
	<path class="st8" d="M392.7,114.6l-2.6,1.4l2.2,0.7c0.1,0,0.2,0,0.3,0c0.5,0,0.9-0.2,1-0.7c0,0,0-0.1,0-0.1l-0.6-1.1
		c0,0-0.1-0.1-0.1-0.1L392.7,114.6z"/>
	<path class="st8" d="M389.2,113.5l-1.1,0.6l-0.1,0.2c-0.2,0.4-0.6,0.7-1,0.7c0,0-0.1,0-0.1,0l3.1,1l2.6-1.4L389.2,113.5z"/>
	<polygon class="st8" points="388.2,114.1 389.2,113.5 388.4,113.3 	"/>
	<path class="st8" d="M386.1,113.7l0.1-0.5c-0.1,0.1-0.2,0.2-0.2,0.4c-0.1,0.5,0.1,0.9,0.4,1.1C386.2,114.5,386,114.1,386.1,113.7z"
		/>
	<path class="st8" d="M389.4,107.4l0.5,1C389.9,108,389.7,107.6,389.4,107.4z"/>
	<path class="st8" d="M386.7,114.9L386.7,114.9c0,0.1,0.1,0.1,0.1,0.1c0.1,0,0.1,0,0.2,0L386.7,114.9
		C386.7,114.9,386.7,114.9,386.7,114.9z"/>
	<path class="st8" d="M389.9,108.6c0-0.1,0-0.1,0-0.2l-0.5-1c-0.1,0-0.1-0.1-0.2-0.1c-0.6-0.1-1.1,0.2-1.3,0.7l-1.5,4.7l2.6-1.4
		L389.9,108.6z"/>
	<path class="st8" d="M386.4,114.7c0.1,0.1,0.1,0.1,0.2,0.2l0,0C386.6,114.8,386.5,114.8,386.4,114.7z"/>
	<path class="st8" d="M387.3,112.9l1.1,0.4l0.6-2l-2.6,1.4l-0.2,0.5C386.5,113,386.9,112.8,387.3,112.9z"/>
	<path class="st8" d="M386.7,114.9l0.3,0.1c0,0,0.1,0,0.1,0c0.4,0,0.8-0.3,1-0.7l0.1-0.2L386.7,114.9
		C386.7,114.9,386.7,114.9,386.7,114.9z"/>
	<path class="st8" d="M387.3,112.9c-0.4-0.1-0.8,0.1-1.1,0.3l-0.1,0.5c-0.1,0.4,0.1,0.8,0.3,1c0.1,0.1,0.2,0.1,0.2,0.2l1.5-0.8
		l0.3-0.8L387.3,112.9z"/>
	<path class="st8" d="M527.9,116.2c-0.4-0.3-1.1-0.2-1.4,0.2c-0.3,0.4-0.2,1.1,0.2,1.4l2.3,1.8l2.8-0.4L527.9,116.2z"/>
	<path class="st8" d="M531.3,120c0.2-0.3,0.8-0.4,1.2-0.3l-0.6-0.5l-2.8,0.4l1.6,1.2L531.3,120z"/>
	<path class="st8" d="M527.6,124.8c-0.3,0.4-0.2,1.1,0.2,1.4c0.2,0.1,0.4,0.2,0.6,0.2c0.3,0,0.6-0.1,0.8-0.4l1.8-2.4l-2.8,0.3
		L527.6,124.8z"/>
	<path class="st8" d="M532.9,121.1l-0.1,0c0,0,0,0,0,0.1c-0.2,0.3-0.5,0.4-0.8,0.4c-0.2,0-0.4-0.1-0.6-0.2l-0.1-0.1l-1.1,0.1
		l-1.9,2.5l2.8-0.3L532.9,121.1C532.9,121.2,532.9,121.1,532.9,121.1z"/>
	<path class="st8" d="M532.7,119.8c-0.1-0.1-0.2-0.1-0.2-0.1l0.1,0.1c0.4,0.3,0.5,0.9,0.2,1.3l0.1,0
		C533.2,120.7,533.1,120.1,532.7,119.8z"/>
	<polygon class="st8" points="530.2,121.5 531.3,121.3 530.7,120.8 	"/>
	<path class="st8" d="M531.4,121.4c0.2,0.1,0.4,0.2,0.6,0.2c0.3,0,0.6-0.1,0.8-0.4c0,0,0,0,0-0.1L531.4,121.4L531.4,121.4z"/>
	<path class="st8" d="M532.6,119.8l-0.1-0.1c-0.4-0.1-0.9,0-1.2,0.3l-0.6,0.8l0.6,0.5l1.5-0.2C533.1,120.7,533,120.1,532.6,119.8z"
		/>
	<path class="st8" d="M555.5,112.4c-0.3,0.4-0.2,1.1,0.2,1.4l2.7,2l2.8-0.4l-4.3-3.3C556.5,111.9,555.8,112,555.5,112.4z"/>
	<path class="st8" d="M559.7,116.8l0.6-0.8c0.2-0.3,0.8-0.4,1.2-0.3l-0.3-0.2l-2.8,0.4L559.7,116.8z"/>
	<path class="st8" d="M556.6,120.8c-0.3,0.4-0.2,1.1,0.2,1.4c0.2,0.1,0.4,0.2,0.6,0.2c0.3,0,0.6-0.1,0.8-0.4l1.5-1.9l-2.8,0.3
		L556.6,120.8z"/>
	<path class="st8" d="M561.5,117.5c-0.2,0.1-0.3,0.1-0.5,0.1c-0.1,0-0.1,0-0.2,0l-1.9,0.2l-2,2.6l2.8-0.3l2-2.6L561.5,117.5z"/>
	<path class="st8" d="M559.7,116.8l-0.7,1l1.9-0.2c-0.1,0-0.3-0.1-0.4-0.2L559.7,116.8z"/>
	<path class="st8" d="M561.7,115.8c-0.1-0.1-0.2-0.1-0.2-0.1l0.1,0.1c0.4,0.3,0.5,1,0.2,1.4c-0.1,0.1-0.2,0.2-0.3,0.3l0.2,0l0.2-0.2
		C562.2,116.8,562.1,116.1,561.7,115.8z"/>
	<path class="st8" d="M561,117.6c0.2,0,0.4,0,0.5-0.1l-0.7,0.1C560.9,117.6,560.9,117.6,561,117.6z"/>
	<path class="st8" d="M561.6,115.8l-0.1-0.1c-0.4-0.1-0.9,0-1.2,0.3l-0.6,0.8l0.7,0.6c0.1,0.1,0.3,0.1,0.4,0.2l0.7-0.1
		c0.1-0.1,0.2-0.1,0.3-0.3C562.1,116.8,562,116.1,561.6,115.8z"/>
	<path class="st8" d="M584.7,109.8l3,2.3l1.8-0.2c0.3-0.2,0.7-0.3,1-0.2l-4.6-3.5c-0.2-0.1-0.4-0.2-0.6-0.2c-0.1,0-0.1,0-0.2,0
		c-0.2,0.1-0.4,0.2-0.6,0.3C584.2,108.8,584.3,109.5,584.7,109.8z"/>
	<path class="st8" d="M589.5,111.9l-1.8,0.2l1,0.7l0.6-0.8C589.3,111.9,589.4,111.9,589.5,111.9z"/>
	<path class="st8" d="M585.8,118.2c0.2,0.1,0.4,0.2,0.6,0.2c0.3,0,0.6-0.1,0.8-0.4l1.1-1.5l-2.8,0.3
		C585.3,117.3,585.4,117.9,585.8,118.2z"/>
	<path class="st8" d="M590.5,111.7C590.5,111.7,590.5,111.7,590.5,111.7L590.5,111.7L590.5,111.7z"/>
	<path class="st8" d="M587.7,114.1l-2.1,2.7c0,0,0,0,0,0.1l2.8-0.3l2.1-2.8L587.7,114.1z"/>
	<path class="st8" d="M590.7,111.8c0,0-0.1,0-0.2-0.1l0,0l0.1,0.1c0.4,0.3,0.5,1,0.2,1.4c-0.2,0.3-0.5,0.4-0.8,0.4
		c-0.2,0-0.4-0.1-0.6-0.2l-0.7-0.6l-1,1.3l2.8-0.4l0.4-0.6C591.2,112.8,591.1,112.1,590.7,111.8z"/>
	<path class="st8" d="M589.5,111.9l1-0.1l0,0C590.1,111.6,589.7,111.6,589.5,111.9z"/>
	<path class="st8" d="M589.3,112l-0.6,0.8l0.7,0.6c0.2,0.1,0.4,0.2,0.6,0.2c0.3,0,0.6-0.1,0.8-0.4c0.3-0.4,0.2-1.1-0.2-1.4l-0.1-0.1
		l-1,0.1C589.4,111.9,589.3,111.9,589.3,112z"/>
	<path class="st8" d="M615.1,104.3l-0.2-0.1c0,0,0,0,0,0l-0.1,0.2L615.1,104.3z"/>
	<path class="st8" d="M614.1,106.1l2.9,2.3l1.1-0.1l0.1-0.2c0.2-0.3,0.8-0.4,1.2-0.3l-4.4-3.4l-0.2,0L614.1,106.1z"/>
	<path class="st8" d="M613.5,104.4c0,0,0,0.1-0.1,0.1l1.4-0.2l0.1-0.2C614.5,103.9,613.8,104,613.5,104.4z"/>
	<path class="st8" d="M613.7,105.8l0.4,0.3l0.7-1.7l-1.4,0.2C613.2,104.9,613.3,105.5,613.7,105.8z"/>
	<polygon class="st8" points="618.2,108.2 617,108.3 617.7,108.8 	"/>
	<path class="st8" d="M614.8,114.2c0.2,0.1,0.4,0.2,0.6,0.2c0.3,0,0.6-0.1,0.8-0.4l0.8-1.1l-2.6,0.3
		C614.4,113.6,614.5,114,614.8,114.2z"/>
	<path class="st8" d="M614.6,112.8c-0.1,0.1-0.1,0.3-0.2,0.5l2.6-0.3l2.2-2.9l-2.8,0.4L614.6,112.8z"/>
	<path class="st8" d="M619.8,108L619.8,108c0-0.1,0-0.1-0.1-0.2c-0.1-0.1-0.2-0.1-0.2-0.1l0.1,0.1
		C619.7,107.8,619.7,107.9,619.8,108z"/>
	<path class="st8" d="M619.8,109.2c-0.2,0.3-0.5,0.4-0.8,0.4c-0.2,0-0.4-0.1-0.6-0.2l-0.7-0.6l-1.2,1.6l2.8-0.4l0.7-0.9
		c0.3-0.3,0.2-0.9-0.1-1.2l-0.1,0C620,108.3,620.1,108.9,619.8,109.2z"/>
	<path class="st8" d="M618.3,108l-0.1,0.2l1.6-0.2c0-0.1-0.1-0.1-0.2-0.2l-0.1-0.1C619.1,107.6,618.5,107.7,618.3,108z"/>
	<path class="st8" d="M618.4,109.4c0.2,0.1,0.4,0.2,0.6,0.2c0.3,0,0.6-0.1,0.8-0.4c0.3-0.3,0.2-0.9,0-1.2l-1.6,0.2l-0.5,0.6
		L618.4,109.4z"/>
	<path class="st8" d="M507.6,148.1C507.6,148.1,507.6,148.1,507.6,148.1c-0.1-0.1-0.2-0.2-0.3-0.2
		C507.4,147.9,507.5,148,507.6,148.1L507.6,148.1z"/>
	<path class="st8" d="M502,152.3c-0.4,0.4-0.4,1,0,1.4c0.2,0.2,0.4,0.3,0.7,0.3s0.5-0.1,0.7-0.3l1.6-1.6v-2.8L502,152.3z"/>
	<path class="st8" d="M510.4,153.8c0.2,0.2,0.4,0.3,0.7,0.3s0.5-0.1,0.7-0.3c0.4-0.4,0.4-1,0-1.4l-1.8-1.8v2.8L510.4,153.8z"/>
	<path class="st8" d="M507.6,149.5l-0.6,0.6v0.2l3,3.1v-2.8l-2.4-2.5C508,148.5,508,149.1,507.6,149.5z"/>
	<path class="st8" d="M507.6,149.5c0.4-0.4,0.4-1,0-1.4l0,0c-0.1-0.1-0.2-0.2-0.3-0.2c-0.1,0-0.2-0.1-0.3-0.1v2.3L507.6,149.5z"/>
	<path class="st8" d="M507.6,186.1C507.6,186.1,507.6,186.1,507.6,186.1c-0.1-0.1-0.2-0.2-0.3-0.2
		C507.4,185.9,507.5,186,507.6,186.1L507.6,186.1z"/>
	<path class="st8" d="M502,190.3c-0.4,0.4-0.4,1,0,1.4c0.2,0.2,0.4,0.3,0.7,0.3s0.5-0.1,0.7-0.3l1.6-1.6v-2.8L502,190.3z"/>
	<path class="st8" d="M510.4,191.8c0.2,0.2,0.4,0.3,0.7,0.3s0.5-0.1,0.7-0.3c0.4-0.4,0.4-1,0-1.4l-1.8-1.8v2.8L510.4,191.8z"/>
	<path class="st8" d="M507.6,187.5l-0.6,0.6v0.2l3,3.1v-2.8l-2.4-2.5C508,186.5,508,187.1,507.6,187.5z"/>
	<path class="st8" d="M507.6,187.5c0.4-0.4,0.4-1,0-1.4l0,0c-0.1-0.1-0.2-0.2-0.3-0.2c-0.1,0-0.2-0.1-0.3-0.1v2.3L507.6,187.5z"/>
	<path class="st8" d="M507.6,224.1C507.6,224.1,507.6,224.1,507.6,224.1c-0.1-0.1-0.2-0.2-0.3-0.2
		C507.4,223.9,507.5,224,507.6,224.1L507.6,224.1z"/>
	<path class="st8" d="M502,228.3c-0.4,0.4-0.4,1,0,1.4c0.2,0.2,0.4,0.3,0.7,0.3s0.5-0.1,0.7-0.3l1.6-1.6v-2.8L502,228.3z"/>
	<path class="st8" d="M507.6,225.5l-0.6,0.6v0.2l0.7,0.7l1.4-1.4l-1.5-1.6C508,224.5,508,225.1,507.6,225.5z"/>
	<path class="st8" d="M507.6,225.5c0.4-0.4,0.4-1,0-1.4l0,0c-0.1-0.1-0.2-0.2-0.3-0.2c-0.1,0-0.2-0.1-0.3-0.1v2.3L507.6,225.5z"/>
	<path class="st8" d="M476.6,118.1C476.6,118.1,476.6,118.1,476.6,118.1c-0.1-0.1-0.2-0.2-0.3-0.2
		C476.4,117.9,476.5,118,476.6,118.1L476.6,118.1z"/>
	<path class="st8" d="M471,122.3c-0.4,0.4-0.4,1,0,1.4c0.2,0.2,0.4,0.3,0.7,0.3s0.5-0.1,0.7-0.3l1.6-1.6v-2.8L471,122.3z"/>
	<path class="st8" d="M476.6,119.5l-0.6,0.6v0.2l3.4,3.5c0.2,0.2,0.4,0.3,0.7,0.3s0.5-0.1,0.7-0.3c0.4-0.4,0.4-1,0-1.4l-4.2-4.3
		C477,118.5,477,119.1,476.6,119.5z"/>
	<path class="st8" d="M476.6,119.5c0.4-0.4,0.4-1,0-1.4l0,0c-0.1-0.1-0.2-0.2-0.3-0.2c-0.1,0-0.2-0.1-0.3-0.1v2.3L476.6,119.5z"/>
	<path class="st8" d="M476.6,156.1C476.6,156.1,476.6,156.1,476.6,156.1c-0.1-0.1-0.2-0.2-0.3-0.2
		C476.4,155.9,476.5,156,476.6,156.1L476.6,156.1z"/>
	<path class="st8" d="M471,160.3c-0.4,0.4-0.4,1,0,1.4c0.2,0.2,0.4,0.3,0.7,0.3s0.5-0.1,0.7-0.3l1.6-1.6v-2.8L471,160.3z"/>
	<path class="st8" d="M476.6,157.5l-0.6,0.6v0.2l3.4,3.5c0.2,0.2,0.4,0.3,0.7,0.3s0.5-0.1,0.7-0.3c0.4-0.4,0.4-1,0-1.4l-4.2-4.3
		C477,156.5,477,157.1,476.6,157.5z"/>
	<path class="st8" d="M476.6,157.5c0.4-0.4,0.4-1,0-1.4l0,0c-0.1-0.1-0.2-0.2-0.3-0.2c-0.1,0-0.2-0.1-0.3-0.1v2.3L476.6,157.5z"/>
	<path class="st8" d="M471,198.3c-0.4,0.4-0.4,1,0,1.4c0.2,0.2,0.4,0.3,0.7,0.3s0.5-0.1,0.7-0.3l1.6-1.6v-2.8L471,198.3z"/>
	<path class="st8" d="M476.6,194.1C476.6,194.1,476.6,194.1,476.6,194.1c-0.1-0.1-0.2-0.2-0.3-0.2
		C476.4,193.9,476.5,194,476.6,194.1L476.6,194.1z"/>
	<path class="st8" d="M476.6,195.5l-0.6,0.6v0.2l3.4,3.5c0.2,0.2,0.4,0.3,0.7,0.3s0.5-0.1,0.7-0.3c0.4-0.4,0.4-1,0-1.4l-4.2-4.3
		C477,194.5,477,195.1,476.6,195.5z"/>
	<path class="st8" d="M476.6,195.5c0.4-0.4,0.4-1,0-1.4l0,0c-0.1-0.1-0.2-0.2-0.3-0.2c-0.1,0-0.2-0.1-0.3-0.1v2.3L476.6,195.5z"/>
	<path class="st8" d="M425,97.4l2.7,0.8c0,0,0,0,0.1,0l-0.2-2.2L425,97.4z"/>
	<path class="st8" d="M427.5,96l-3.2-1l-0.9,0.5l-0.1,0.3c-0.2,0.4-0.6,0.7-1,0.7c-0.1,0-0.2,0-0.3,0c-0.1,0-0.1-0.1-0.2-0.1h0
		c0.1,0,0.1,0.1,0.2,0.1l3,1L427.5,96L427.5,96z"/>
	<path class="st8" d="M427.8,98.2c0.1,0,0.2,0,0.2,0c0.4,0,0.8-0.3,1-0.7c0.1-0.6-0.2-1.1-0.7-1.3l-0.7-0.2l-0.1,0L427.8,98.2z"/>
	<polygon class="st8" points="427.5,96 427.6,96 427.5,96 	"/>
	<path class="st8" d="M421.4,95.9c0.1,0.2,0.2,0.3,0.4,0.4h0C421.6,96.2,421.5,96.1,421.4,95.9z"/>
	<polygon class="st8" points="423.4,95.4 424.3,94.9 423.6,94.7 	"/>
	<path class="st8" d="M425.1,90c0.1-0.6-0.2-1.1-0.7-1.3c-0.6-0.1-1.1,0.2-1.3,0.7l-1.5,4.7l2.6-1.4L425.1,90z"/>
	<path class="st8" d="M422.6,94.4l1,0.3l0.7-2.1l-2.6,1.4l-0.3,1C421.4,94.5,422,94.3,422.6,94.4z"/>
	<path class="st8" d="M422,96.4c0.1,0,0.2,0,0.3,0c0.4,0,0.8-0.3,1-0.7l0.1-0.3l-1.6,0.8C421.9,96.3,421.9,96.4,422,96.4z"/>
	<path class="st8" d="M422.6,94.4c-0.6-0.1-1.2,0.1-1.3,0.7c0,0.3,0,0.6,0.1,0.8c0.1,0.2,0.2,0.3,0.4,0.4l1.6-0.8l0.2-0.7
		L422.6,94.4z"/>
	<polygon class="st8" points="475.9,196.2 474,198.1 474,225.5 476,227.5 476,196.3 	"/>
	<path class="st8" d="M475.9,70.2l-1.9,1v48.1l1.2-1.2c0.1-0.1,0.2-0.2,0.3-0.2c0.1-0.1,0.2-0.1,0.4-0.1c0,0,0.1,0,0.1,0V67.6
		l-1.1,0.6L475.9,70.2z"/>
	<path class="st8" d="M474,122.1v35.2l1.2-1.2c0.1-0.1,0.2-0.2,0.3-0.2c0.1-0.1,0.2-0.1,0.4-0.1c0,0,0.1,0,0.1,0v-35.5l-0.1-0.1
		L474,122.1z"/>
	<path class="st8" d="M474,160.1v35.2l1.2-1.2c0.1-0.1,0.2-0.2,0.3-0.2c0.1-0.1,0.2-0.1,0.4-0.1c0,0,0.1,0,0.1,0v-35.5l-0.1-0.1
		L474,160.1z"/>
	<polygon class="st8" points="474.9,68.2 474,68.7 474,71.2 475.9,70.2 	"/>
	<path class="st8" d="M475,66c-0.4,0-0.8,0.2-0.9,0.6l0.8,1.6l1.1-0.6V67C476,66.4,475.6,66,475,66z"/>
	<path class="st8" d="M474.1,66.6c0,0.1-0.1,0.3-0.1,0.4v1.7l0.9-0.5L474.1,66.6z"/>
	<path class="st8" d="M475.2,119.5c-0.4-0.4-0.4-1,0-1.4c0.1-0.1,0.2-0.2,0.3-0.2c-0.1,0-0.2,0.1-0.3,0.2l-1.2,1.2v2.8l1.9-1.9
		L475.2,119.5z"/>
	<polygon class="st8" points="475.9,120.2 476,120.3 476,120.1 	"/>
	<path class="st8" d="M475.5,117.9c-0.1,0-0.2,0.1-0.3,0.2c-0.4,0.4-0.4,1,0,1.4l0.7,0.7l0.1-0.1v-2.3c0,0-0.1,0-0.1,0
		C475.8,117.8,475.7,117.8,475.5,117.9z"/>
	<path class="st8" d="M475.2,157.5c-0.4-0.4-0.4-1,0-1.4c0.1-0.1,0.2-0.2,0.3-0.2c-0.1,0-0.2,0.1-0.3,0.2l-1.2,1.2v2.8l1.9-1.9
		L475.2,157.5z"/>
	<polygon class="st8" points="475.9,158.2 476,158.3 476,158.1 	"/>
	<path class="st8" d="M475.5,155.9c-0.1,0-0.2,0.1-0.3,0.2c-0.4,0.4-0.4,1,0,1.4l0.7,0.7l0.1-0.1v-2.3c0,0-0.1,0-0.1,0
		C475.8,155.8,475.7,155.8,475.5,155.9z"/>
	<path class="st8" d="M475.2,194.1c0.1-0.1,0.2-0.2,0.3-0.2C475.4,193.9,475.3,194,475.2,194.1l-1.2,1.2v2.8l1.9-1.9l-0.7-0.7
		C474.8,195.1,474.8,194.5,475.2,194.1z"/>
	<polygon class="st8" points="475.9,196.2 476,196.3 476,196.1 	"/>
	<path class="st8" d="M475.5,193.9c-0.1,0-0.2,0.1-0.3,0.2c-0.4,0.4-0.4,1,0,1.4l0.7,0.7l0.1-0.1v-2.3c0,0-0.1,0-0.1,0
		C475.8,193.8,475.7,193.8,475.5,193.9z"/>
	<path class="st8" d="M505,190.1v35.2l1.2-1.2c0.1-0.1,0.2-0.2,0.3-0.2c0.1-0.1,0.2-0.1,0.4-0.1c0,0,0.1,0,0.1,0v-35.5l-0.1-0.1
		L505,190.1z"/>
	<path class="st8" d="M506.5,147.9c0.1-0.1,0.2-0.1,0.4-0.1c0,0,0.1,0,0.1,0v-23.4l-0.5,0.1c-0.5,0-0.9-0.4-1-0.9
		c0-0.2,0-0.4,0.1-0.5c-0.4,0.1-0.6,0.5-0.6,0.9v25.3l1.2-1.2C506.3,148,506.4,147.9,506.5,147.9z"/>
	<polygon class="st8" points="506.9,226.2 505,228.1 505,229.8 507,227.8 507,226.3 	"/>
	<path class="st8" d="M506.5,185.9c0.1-0.1,0.2-0.1,0.4-0.1c0,0,0.1,0,0.1,0v-35.5l-0.1-0.1l-1.9,1.9v35.2l1.2-1.2
		C506.3,186,506.4,185.9,506.5,185.9z"/>
	<path class="st8" d="M506.5,124.5l0.5-0.1V124c0-0.6-0.4-1-1-1c-0.1,0-0.3,0-0.4,0.1c-0.1,0.2-0.1,0.3-0.1,0.5
		C505.6,124.1,506,124.5,506.5,124.5z"/>
	<path class="st8" d="M506.2,149.5c-0.4-0.4-0.4-1,0-1.4c0.1-0.1,0.2-0.2,0.3-0.2c-0.1,0-0.2,0.1-0.3,0.2l-1.2,1.2v2.8l1.9-1.9
		L506.2,149.5z"/>
	<polygon class="st8" points="507,150.3 507,150.1 506.9,150.2 	"/>
	<path class="st8" d="M506.5,147.9c-0.1,0-0.2,0.1-0.3,0.2c-0.4,0.4-0.4,1,0,1.4l0.7,0.7l0.1-0.1v-2.3c0,0-0.1,0-0.1,0
		C506.8,147.8,506.7,147.8,506.5,147.9z"/>
	<path class="st8" d="M506.2,187.5c-0.4-0.4-0.4-1,0-1.4c0.1-0.1,0.2-0.2,0.3-0.2c-0.1,0-0.2,0.1-0.3,0.2l-1.2,1.2v2.8l1.9-1.9
		L506.2,187.5z"/>
	<polygon class="st8" points="506.9,188.2 507,188.3 507,188.1 	"/>
	<path class="st8" d="M506.5,185.9c-0.1,0-0.2,0.1-0.3,0.2c-0.4,0.4-0.4,1,0,1.4l0.7,0.7l0.1-0.1v-2.3c0,0-0.1,0-0.1,0
		C506.8,185.8,506.7,185.8,506.5,185.9z"/>
	<path class="st8" d="M506.2,224.1c0.1-0.1,0.2-0.2,0.3-0.2C506.4,223.9,506.3,224,506.2,224.1l-1.2,1.2v2.8l1.9-1.9l-0.7-0.7
		C505.8,225.1,505.8,224.5,506.2,224.1z"/>
	<polygon class="st8" points="507,226.3 507,226.1 506.9,226.2 	"/>
	<path class="st8" d="M506.5,223.9c-0.1,0-0.2,0.1-0.3,0.2c-0.4,0.4-0.4,1,0,1.4l0.7,0.7l0.1-0.1v-2.3c0,0-0.1,0-0.1,0
		C506.8,223.8,506.7,223.8,506.5,223.9z"/>
</g>
</svg>
