<?xml version="1.0" encoding="utf-8"?>
<!-- Generator: Adobe Illustrator 19.0.0, SVG Export Plug-In . SVG Version: 6.00 Build 0)  -->
<svg version="1.1" id="Layer_1" xmlns="http://www.w3.org/2000/svg" xmlns:xlink="http://www.w3.org/1999/xlink" x="0px" y="0px"
	 viewBox="0 0 427.2 370.5" enable-background="new 0 0 427.2 370.5" xml:space="preserve">
<g id="XMLID_66_">
	<path id="XMLID_68_" fill="#F6F7F9" d="M206.6,289.9h124.8c5,0,8.7-4,8.7-9.1V279c-0.4-5-4.2-10.1-8.9-10.1h-50.1
		c-4.2,0-7.8-4.6-7.8-8.7c0-4.2,3.6-8.7,7.8-8.7h22.1c5,0,7.2-3.2,7.2-8v-0.8c0-4.7-3.8-8.5-8.5-8.5h-69.2c-5.1,0-9.3,4.2-9.3,9.3
		c0,5,5,8,10.1,8h8.1c4.7,0,8.8,3.6,9,8.3c0.3,5.2-3.8,9.2-8.9,9.2H122.9c-5.6,0-10.1,4.6-10.1,10.1v1.8c0,5,4.4,9.1,9.1,9.1h9.3"/>
	<path id="XMLID_69_" fill="#F6F7F9" d="M337.5,121.2h-50.1c-4.2,0-7.8-4.6-7.8-8.7s3.6-8.7,7.8-8.7h22.1c5,0,7.2-3.2,7.2-8V95
		c0-4.7-3.8-8.5-8.5-8.5h-69.2c-5.1,0-9.3,4.2-9.3,9.3c0,5,5,8,10.1,8h8.1c4.7,0,8.8,3.6,9,8.3c0.3,5.2-3.8,9.2-8.9,9.2H69.2
		c-5.6,0-10.1,4.6-10.1,10.1v1.8c0,5,4.4,9.1,9.1,9.1h69.3c4.7,0,8.8,3.6,9,8.3c0.3,5.2-3.8,9.2-8.9,9.2h-23.2c-4.7,0-8.8,3.6-9,8.3
		c-0.3,5.2,3.8,9.2,22.3,9.4h137.5c-8.7-0.2-4.6-3.8-4.4-8.5c0.3-5.2-3.8-9.2-8.9-9.2h-39c-4.2,0-7.8-4.6-7.8-8.7s3.6-8.7,7.8-8.7
		h124.8c5,0,8.7-4,8.7-9.1v-1.8C346,126.4,342.3,121.2,337.5,121.2z"/>
	<path id="XMLID_70_" fill="#F6F7F9" d="M86.7,195h50.1c4.2,0,7.8-4.6,7.8-8.7c0-4.2-3.6-8.7-7.8-8.7h-22.1c-5,0-7.2-3.2-7.2-8v-0.8
		c0-4.7,3.8-8.5,8.5-8.5h69.2c5.1,0,9.3,4.2,9.3,9.3c0,5-5,8-10.1,8h-8.1c-4.7,0-8.8,3.6-9,8.3c-0.3,5.2,3.8,9.2,8.9,9.2H355
		c5.6,0,10.1,4.6,10.1,10.1v1.8c0,5-4.4,9.1-9.1,9.1h-69.3c-4.7,0-8.8,3.6-9,8.3c-0.3,5.2,3.8,9.2,8.9,9.2h23.2c4.7,0,8.8,3.6,9,8.3
		c0.3,5.2-3.8,9.2-8.9,9.2H172.4c-4.7,0-8.8-3.6-9-8.3c-0.3-5.2,3.8-9.2,8.9-9.2h39c4.2,0,7.8-4.6,7.8-8.7s-3.6-8.7-7.8-8.7H86.5
		c-5,0-8.7-4-8.7-9.1v-1.8C78.1,200.2,81.9,195,86.7,195z"/>
	<path id="XMLID_74_" fill="#FFB8C7" d="M63.3,99.2c-1.7,0-3.1,1.4-3.1,3.1c0,0.5,0.1,1,0.3,1.4l-7.8,7.8c-0.4-0.1-0.8-0.2-1.2-0.2
		c-1.7,0-3.1,1.4-3.1,3.1c0,1.7,1.4,3.1,3.1,3.1c1.7,0,3.1-1.4,3.1-3.1c0-0.5-0.1-1-0.4-1.4l7.8-7.8c0.4,0.2,0.8,0.3,1.2,0.3
		c1.7,0,3.1-1.4,3.1-3.1C66.4,100.6,65,99.2,63.3,99.2z M51.5,115.5c-0.6,0-1.1-0.5-1.1-1.1c0-0.6,0.5-1.1,1.1-1.1s1.1,0.5,1.1,1.1
		C52.7,115,52.1,115.5,51.5,115.5z M63.3,103.4c-0.6,0-1.1-0.5-1.1-1.1c0-0.6,0.5-1.1,1.1-1.1c0.6,0,1.1,0.5,1.1,1.1
		C64.4,102.9,63.9,103.4,63.3,103.4z"/>
	<path id="XMLID_78_" fill="#FFB8C7" d="M378.4,155.2c0-1.7-1.4-3.1-3.1-3.1c-0.5,0-1,0.1-1.4,0.3l-7.8-7.8c0.1-0.4,0.2-0.8,0.2-1.2
		c0-1.7-1.4-3.1-3.1-3.1s-3.1,1.4-3.1,3.1s1.4,3.1,3.1,3.1c0.5,0,1-0.1,1.4-0.4l7.8,7.8c-0.2,0.4-0.3,0.8-0.3,1.2
		c0,1.7,1.4,3.1,3.1,3.1S378.4,156.9,378.4,155.2z M362.1,143.5c0-0.6,0.5-1.1,1.1-1.1c0.6,0,1.1,0.5,1.1,1.1s-0.5,1.1-1.1,1.1
		C362.6,144.6,362.1,144.1,362.1,143.5z M374.2,155.2c0-0.6,0.5-1.1,1.1-1.1c0.6,0,1.1,0.5,1.1,1.1c0,0.6-0.5,1.1-1.1,1.1
		C374.7,156.3,374.2,155.8,374.2,155.2z"/>
	<path id="XMLID_85_" fill="#A1ABD0" d="M325.9,89.8l4.8-3.8c0.8,0.2,2.3,0.4,3.3-0.4c1.4-1.1,1.5-3.1,0.5-4.5c-0.8-1-2-1.6-3.3-1.2
		l-4.2-5.4c0.7-1.2,0.5-2.4-0.3-3.4c-1.1-1.4-2.8-1.4-4.2-0.3c-0.9,0.7-1.4,1.7-1,3.1l-5.1,4c-1.2-0.7-2.3-0.5-3.3,0.2
		c-1.4,1.1-1.7,2.9-0.6,4.3c0.7,1,2.1,1,3,1l4.3,5.5c-0.2,0.8-0.4,2.3,0.4,3.2c1.1,1.4,3.2,1.8,4.5,0.7
		C325.7,92.1,326,90.6,325.9,89.8z M321.9,87.3l-4.2-5.4c0.3-0.7,0.7-1.3,0.6-2l4.8-3.8c0.6,0.3,1.1,0.1,1.8,0l4.3,5.5
		c-0.4,0.6-0.1,1.5,0.1,2.2l-5.1,4C323.5,87.5,322.5,87.1,321.9,87.3z M332.9,82.3c0.4,0.5,0.3,1.2-0.2,1.6
		c-0.5,0.4-1.2,0.3-1.6-0.2c-0.4-0.5-0.3-1.2,0.2-1.6C331.8,81.7,332.5,81.8,332.9,82.3z M325.2,72.4c0.4,0.5,0.3,1.2-0.2,1.6
		c-0.5,0.4-1.2,0.3-1.6-0.2c-0.4-0.5-0.3-1.2,0.2-1.6C324.1,71.8,324.8,71.9,325.2,72.4z M314,81.1c-0.4-0.5-0.3-1.2,0.2-1.6
		c0.5-0.4,1.2-0.3,1.6,0.2c0.4,0.5,0.3,1.2-0.2,1.6C315.1,81.7,314.4,81.6,314,81.1z M321.8,91c-0.4-0.5-0.3-1.2,0.2-1.6
		c0.5-0.4,1.2-0.3,1.6,0.2c0.4,0.5,0.3,1.2-0.2,1.6C322.8,91.6,322.1,91.5,321.8,91z"/>
	<path id="XMLID_92_" fill="#A9DEEB" d="M64.7,247.6l4.8-3.8c0.8,0.2,2.3,0.4,3.3-0.4c1.4-1.1,1.5-3.1,0.5-4.5c-0.8-1-2-1.6-3.3-1.2
		l-4.2-5.4c0.7-1.2,0.5-2.4-0.3-3.4c-1.1-1.4-2.8-1.4-4.2-0.3c-0.9,0.7-1.4,1.7-1,3.1l-5.1,4c-1.2-0.7-2.3-0.5-3.3,0.2
		c-1.4,1.1-1.7,2.9-0.6,4.3c0.7,1,2.1,1,3,1l4.3,5.5c-0.2,0.8-0.4,2.3,0.4,3.2c1.1,1.4,3.2,1.8,4.5,0.7
		C64.6,250,64.8,248.4,64.7,247.6z M60.7,245.1l-4.2-5.4c0.3-0.7,0.7-1.3,0.6-2l4.8-3.8c0.6,0.3,1.1,0.1,1.8,0l4.3,5.5
		c-0.4,0.6-0.1,1.5,0.1,2.2l-5.1,4C62.3,245.4,61.4,244.9,60.7,245.1z M71.7,240.1c0.4,0.5,0.3,1.2-0.2,1.6
		c-0.5,0.4-1.2,0.3-1.6-0.2c-0.4-0.5-0.3-1.2,0.2-1.6C70.6,239.6,71.3,239.6,71.7,240.1z M64,230.2c0.4,0.5,0.3,1.2-0.2,1.6
		c-0.5,0.4-1.2,0.3-1.6-0.2c-0.4-0.5-0.3-1.2,0.2-1.6C62.9,229.7,63.6,229.7,64,230.2z M52.9,238.9c-0.4-0.5-0.3-1.2,0.2-1.6
		c0.5-0.4,1.2-0.3,1.6,0.2c0.4,0.5,0.3,1.2-0.2,1.6C53.9,239.5,53.2,239.4,52.9,238.9z M60.6,248.8c-0.4-0.5-0.3-1.2,0.2-1.6
		c0.5-0.4,1.2-0.3,1.6,0.2c0.4,0.5,0.3,1.2-0.2,1.6C61.7,249.4,60.9,249.3,60.6,248.8z"/>
	<path id="XMLID_95_" fill="#A1ABD0" d="M117.7,55.4c-1.7-3-5.4-4.4-8.7-3.4c-4.3,1.4-6.4,6.1-4.6,10.2c0.7,1.6,2,2.9,3.5,3.6
		l7.4,3.4c0.3,0.1,0.6,0,0.7-0.3c0.6-1.9,2.6-7.9,2.6-8.4l0,0l0,0C118.8,58.8,118.6,57,117.7,55.4z M112.3,61.6
		c-1.3,0.6-2.9,0-3.5-1.4c-0.6-1.3,0-2.9,1.4-3.5c1.3-0.6,2.9,0,3.5,1.4S113.6,61,112.3,61.6z"/>
	<path id="XMLID_98_" fill="#FFB8C7" d="M286.8,319.1c1.2-3.3,0-7-3-8.9c-3.8-2.4-8.8-1-10.8,3c-0.8,1.6-1,3.4-0.6,5l2.2,7.8
		c0.1,0.3,0.4,0.4,0.7,0.3c1.8-0.7,7.7-3.1,8.1-3.3l0,0l0,0C285,322.2,286.2,320.8,286.8,319.1z M278.6,319
		c-1.3-0.7-1.9-2.3-1.2-3.6c0.7-1.3,2.3-1.9,3.6-1.2c1.3,0.7,1.9,2.3,1.2,3.6C281.5,319.1,279.9,319.6,278.6,319z"/>
	<path id="XMLID_99_" fill="#FF7676" d="M265.5,35.4h-3v-2.9c0-0.7-0.3-1.3-1-1.3s-1,0.6-1,1.3v2.9h-3c-0.7,0-1.3,0.3-1.3,1
		s0.6,1,1.3,1h3v3c0,0.7,0.3,1.3,1,1.3s1-0.6,1-1.3v-3h3c0.7,0,1.3-0.3,1.3-1S266.3,35.4,265.5,35.4z"/>
	<path id="XMLID_100_" fill="#A1ABD0" d="M145.2,307.6l-2.9,0.6l-0.6-2.9c-0.1-0.7-0.5-1.2-1.2-1.1c-0.7,0.1-0.9,0.8-0.7,1.5
		l0.6,2.9l-2.9,0.6c-0.7,0.1-1.2,0.5-1.1,1.2s0.8,0.9,1.5,0.7l2.9-0.6l0.6,2.9c0.1,0.7,0.5,1.2,1.2,1.1c0.7-0.1,0.9-0.8,0.7-1.5
		l-0.6-2.9l2.9-0.6c0.7-0.1,1.2-0.5,1.1-1.2C146.6,307.7,146,307.5,145.2,307.6z"/>
	<path id="XMLID_103_" fill="#A9DEEB" d="M330.2,240.1c-0.3-2.8,1.8-5.3,4.6-5.6c2.8-0.3,5.3,1.8,5.6,4.6c0.3,2.8-1.8,5.3-4.6,5.6
		C332.9,245,330.4,242.9,330.2,240.1z M338.6,239.4c-0.2-1.8-1.8-3.2-3.6-3c-1.8,0.2-3.2,1.8-3,3.6c0.2,1.8,1.8,3.2,3.6,3
		C337.4,242.8,338.7,241.2,338.6,239.4z"/>
	<path id="XMLID_104_" fill="#A9DEEB" d="M326.8,248.4c0-0.2,0-0.5,0.2-0.7l4.4-5.4c0.3-0.4,1-0.5,1.4-0.2c0.4,0.3,0.5,1,0.2,1.4
		l-4.4,5.4c-0.3,0.4-1,0.5-1.4,0.2C326.9,248.9,326.8,248.6,326.8,248.4z"/>
	<path id="XMLID_105_" fill="#4B5E7F" d="M227.1,101.2c-4.1,6.2-8.9,11.8-12.8,18.3l11.4-0.1c1.2,0,2,1.3,1.5,2.4
		c0,0-18,20.8-28.5,33.8c-0.6,0.8-1.9,0.1-1.5-0.9c2.4-5.9,6.1-15.1,8.3-20.7c0.3-0.9-0.3-1.8-1.2-1.8l-6.5,0
		c-2.4,0-4.1-2.4-3.3-4.7c3.6-9.7,7.5-19,10.7-29c0.4-1.3,1.6-2.1,2.9-2.1l16.5-0.1C227,96.4,228.4,99.1,227.1,101.2z"/>
	<path id="XMLID_106_" fill="#FFB8C7" d="M195.1,188.2l0,9.2c0,4.9,4,8.9,8.9,8.9l0,0v-0.8l0,0.8l0,0v-0.8l0,0.8l0,0l7.2,0
		c4.9,0,8.9-4,8.9-8.9l0,0h-0.8l0.8,0l0,0h-0.8l0.8,0l0,0l0-2.2c0-0.7-0.6-1.3-1.3-1.3c-0.7,0-1.3,0.6-1.3,1.3l0,2.2l1.3,0l-1.3,0
		l0,0.1c0,3.4-2.8,6.3-6.2,6.3l-7.2,0l0,1.3l0-1.3l-0.1,0c-3.4,0-6.3-2.8-6.3-6.2l0-9.2c0-0.7-0.6-1.3-1.3-1.3
		C195.7,186.8,195.1,187.4,195.1,188.2L195.1,188.2z"/>
	<path id="XMLID_110_" fill="#4B5E7F" d="M215.6,184.5L215.6,184.5l-98.5,0.1l-0.2-5.8l74.4,0c0.8,0,1.5-0.4,1.5-1.3
		s-0.7-1.2-1.5-1.2h-75.9c-0.8,0-1.5,0.4-1.5,1.3l0,8.9c0,0.8,0.7,1.4,1.5,1.4l100.1-0.3c0.8,0,1.5-0.8,1.5-1.7
		C217.1,185.3,216.4,184.5,215.6,184.5z"/>
	<path id="XMLID_109_" fill="#4B5E7F" d="M216.2,178.3l75.4,0l0,6l-69.8,0c-0.8,0-1.4,1-1.4,1.8c0,0.8,0.5,1.2,1.4,1.2h71.3
		c0.8,0,1.5-0.7,1.5-1.5l0-9c0-0.4-0.2-0.8-0.4-1.1c-0.3-0.3-0.7-0.4-1.1-0.4l-76.9,0c-0.8,0-1.5,0.7-1.5,1.5c0,0.8,0.7,2.1,1.5,2.1
		L216.2,178.3z"/>
	<path id="XMLID_111_" fill="#4B5E7F" d="M297.1,222.8v-1.5v1l0-1h0v1l0-1l0,0c-1.3,0-2.3-1-2.3-2.3l-0.3-80.9l0,0l-1,0l1,0l0,0
		l-1,0l1,0c0-1.3,1-2.3,2.3-2.3l0,0l0-1v1l0,0l0-1v1c1.3,0,2.3,1,2.3,2.3l0.3,80.9v0h1l-1,0v0h1l-1,0l0,0c0,1.3-1,2.3-2.3,2.3h0
		V222.8l0,1.5c2.9,0,5.3-2.4,5.3-5.3h-1l1,0v0h-1l1,0l0,0v0l-0.3-80.9c0-2.9-2.4-5.3-5.3-5.3l-0.1,0l0,1.5l0-1.5
		c-2.9,0-5.3,2.4-5.3,5.3l0,0.1l1.5,0l-1.5,0l0.3,80.9c0,2.9,2.4,5.3,5.3,5.3v-1l0,1h0v-1l0,1l0,0h0L297.1,222.8z"/>
	<path id="XMLID_112_" fill="#4B5E7F" d="M305,216.8l0-1.5l-0.8,0h0v1.1l0-1.1h0v1.1l0-1.1l0,0c-1,0-1.9-0.8-1.9-1.9l-0.2-64.4l0,0
		l-1.1,0l1.1,0l0,0l-1.1,0l1.1,0c0-1,0.8-1.9,1.9-1.9l0.8,0l0,0l0-1.1l0,1.1l0,0l0-1.1l0,1.1c1,0,1.9,0.8,1.9,1.9l0.2,64.4v0h1.1
		l-1.1,0v0h1.1l-1.1,0l0,0c0,1-0.8,1.9-1.9,1.9L305,216.8l0,1.5c2.7,0,4.9-2.2,4.9-4.9h-1.1l1.1,0v0h-1.1l1.1,0l0,0v0l-0.2-64.4
		c0-2.7-2.2-4.9-4.9-4.9l-0.1,0l0,1.5l0-1.5l-0.8,0c-2.7,0-4.9,2.2-4.9,4.9l0,0.1l1.5,0l-1.5,0l0.2,64.4c0,2.7,2.2,4.9,4.9,4.9v-1.1
		l0,1.1l0,0v-1.1l0,1.1l0,0h0l0.8,0L305,216.8z"/>
	<path id="XMLID_113_" fill="#4B5E7F" d="M312.1,203.8v-1.5v1l0-1h0v1l0-1l0,0c-1.3,0-2.3-1-2.3-2.3l-0.1-37.6l0,0l-1,0l1,0l0,0
		l-1,0l1,0c0-1.3,1-2.3,2.3-2.3l0,0l0-1l0,1l0,0l0-1l0,1c1.3,0,2.3,1,2.3,2.3l0.1,37.6v0h1l-1,0v0h1l-1,0l0,0c0,1.3-1,2.3-2.3,2.3h0
		V203.8l0,1.5c2.9,0,5.3-2.4,5.3-5.3h-1l1,0v0h-1l1,0l0,0v0l-0.1-37.6c0-2.9-2.4-5.3-5.3-5.3l-0.1,0l0,1.5l0-1.5
		c-2.9,0-5.3,2.4-5.3,5.3l0,0.1l1.5,0l-1.5,0l0.1,37.6c0,2.9,2.4,5.3,5.3,5.3v-1l0,1h0v-1l0,1l0,0h0L312.1,203.8z"/>
	<path id="XMLID_114_" fill="#4B5E7F" d="M111.7,135l0,1.5l0-1v1l0,0l0-1v1c1.3,0,2.3,1,2.3,2.3l0.3,80.9v0h1l-1,0v0h1l-1,0l0,0
		c0,1.3-1,2.3-2.3,2.3h0v1l0-1h0v1l0-1l0,0c-1.3,0-2.3-1-2.3-2.3l-0.3-80.9l0,0l-1,0h1l0,0l-1,0h1c0-1.3,1-2.3,2.3-2.3l0,0
		L111.7,135l0-1.5c-2.9,0-5.3,2.4-5.3,5.3l0,0.1l1.5,0l-1.5,0l0.3,80.9c0,2.9,2.4,5.3,5.3,5.3v-1l0,1h0v-1l0,1l0,0h0
		c2.9,0,5.3-2.4,5.3-5.3h-1l1,0v0h-1l1,0l0,0v0l-0.3-80.9c0-2.9-2.4-5.3-5.3-5.3l-0.1,0L111.7,135l0-1.5L111.7,135z"/>
	<path id="XMLID_115_" fill="#4B5E7F" d="M103.7,140.9l0,1.5l0.8,0l0,0l0-1.1v1.1l0,0l0-1.1v1.1c1,0,1.9,0.8,1.9,1.9l0.2,64.4v0h1.1
		l-1.1,0v0h1.1l-1.1,0l0,0c0,1-0.8,1.9-1.9,1.9l-0.8,0h0v1.1l0-1.1h0v1.1l0-1.1l0,0c-1,0-1.9-0.8-1.9-1.9l-0.2-64.4l0,0l-1.1,0h1.1
		l0,0l-1.1,0h1.1c0-1,0.8-1.9,1.9-1.9L103.7,140.9l0-1.5c-2.7,0-4.9,2.2-4.9,4.9l0,0.1l1.5,0l-1.5,0l0.2,64.4c0,2.7,2.2,4.9,4.9,4.9
		v-1.1l0,1.1h0v-1.1l0,1.1l0,0h0l0.8,0c2.7,0,4.9-2.2,4.9-4.9h-1.1l1.1,0v0h-1.1l1.1,0l0,0v0l-0.2-64.4c0-2.7-2.2-4.9-4.9-4.9
		l-0.1,0l0,1.5l0-1.5l-0.8,0L103.7,140.9z"/>
	<path id="XMLID_116_" fill="#4B5E7F" d="M96.6,154l0,1.5l0-1v1l0,0l0-1v1c1.3,0,2.3,1,2.3,2.3l0.1,37.6v0h1l-1,0v0h1l-1,0l0,0
		c0,1.3-1,2.3-2.3,2.3h0v1l0-1h0v1l0-1l0,0c-1.3,0-2.3-1-2.3-2.3l-0.1-37.6l0,0l-1,0l1,0l0,0l-1,0l1,0c0-1.3,1-2.3,2.3-2.3l0,0
		L96.6,154l0-1.5c-2.9,0-5.3,2.4-5.3,5.3l0,0.1l1.5,0l-1.5,0l0.1,37.6c0,2.9,2.4,5.3,5.3,5.3v-1l0,1h0v-1l0,1l0,0h0
		c2.9,0,5.3-2.4,5.3-5.3h-1l1,0v0h-1l1,0l0,0v0l-0.1-37.6c0-2.9-2.4-5.3-5.3-5.3l-0.1,0L96.6,154l0-1.5L96.6,154z"/>
	<path id="XMLID_117_" fill="#FFB8C7" d="M223.7,258.2l-7.9-54.6c-0.1-0.7-0.8-1.2-1.5-1.1s-1.2,0.8-1.1,1.5l7.9,54.6
		c0.1,0.7,0.8,1.2,1.5,1.1S223.8,258.9,223.7,258.2"/>
	<path id="XMLID_118_" fill="#FFB8C7" d="M199.1,261.1l4.8-55.4c0.1-0.7-0.5-1.4-1.2-1.5c-0.7-0.1-1.4,0.5-1.5,1.2l-4.8,55.4
		c-0.1,0.7,0.5,1.4,1.2,1.5C198.4,262.4,199,261.9,199.1,261.1"/>
	<path id="XMLID_119_" fill="#FFB8C7" d="M195.6,179.7l0,0.9c2,0,3.7-1.7,3.7-3.7v0l-0.8,0l0.8,0.1l0-0.1l-0.8,0l0.8,0.1l0-0.1
		l0-1.4c0-2-1.7-3.7-3.7-3.7v0.6l0-0.6h0v0.6l0-0.6l-0.1,0l0.1,0.9l0-0.9c-2,0-3.7,1.7-3.7,3.7h0.6l-0.6,0v0h0.6l-0.6,0l0,0.1
		l0.9-0.1l-0.9,0l0,1.4c0,2,1.7,3.7,3.7,3.7h0L195.6,179.7l-0.1,0.9l0.1,0L195.6,179.7l-0.1,0.9l0.1,0L195.6,179.7l0.1-0.9l-0.1,0h0
		l0,0.5v-0.5h0l0,0.5v-0.5c-1,0-1.9-0.8-1.9-1.9l0-1.4l0-0.1l-0.8,0.1h0.8l0-0.1l-0.8,0.1h0.8h-0.6l0.6,0v0h-0.6l0.6,0v0
		c0-1,0.8-1.9,1.9-1.9l0.1,0l-0.1-0.8v0.8l0.1,0l-0.1-0.8v0.8V173l0,0.6h0V173l0,0.6h0c1,0,1.9,0.8,1.9,1.9l0,1.4l0.9,0l-0.9-0.1
		l0,0.1v0l0.5,0h-0.5v0l0.5,0h-0.5c0,1-0.8,1.9-1.9,1.9L195.6,179.7l0.1-0.9L195.6,179.7z"/>
	<path id="XMLID_120_" fill="#FFB8C7" d="M201.2,182.5l0,1c2.1,0,3.8-1.7,3.8-3.8v0l-0.9,0l0.9,0.1l0-0.1l-0.9,0l0.9,0.1l0-0.1
		l0-4.6c0-2.1-1.7-3.8-3.8-3.8v0.7l0-0.7h0v0.7l0-0.7l-0.1,0l0.1,1l0-1c-2.1,0-3.8,1.7-3.8,3.8h0.7l-0.7,0v0h0.7l-0.7,0l0,0.1l1-0.1
		l-1,0l0,4.6c0,2.1,1.7,3.8,3.8,3.8h0L201.2,182.5l-0.1,1l0.1,0L201.2,182.5l-0.1,1l0.1,0L201.2,182.5l0.1-1l-0.1,0h0l0,0.6l0-0.6h0
		l0,0.6l0-0.6c-1,0-1.8-0.8-1.8-1.8l0-4.6l0-0.1l-0.9,0.1h0.9l0-0.1l-0.9,0.1h0.9h-0.7l0.7,0l0,0h-0.7l0.7,0l0,0
		c0-1,0.8-1.8,1.8-1.8l0.1,0l-0.1-0.9l0,0.9l0.1,0l-0.1-0.9l0,0.9v-0.7l0,0.7l0,0v-0.7l0,0.7l0,0c1,0,1.8,0.8,1.8,1.8l0,4.6l1,0
		l-1-0.1l0,0.1v0l0.6,0l-0.6,0v0l0.6,0l-0.6,0c0,1-0.8,1.8-1.8,1.8L201.2,182.5l0.1-1L201.2,182.5z"/>
	<path id="XMLID_121_" fill="#FFB8C7" d="M206.8,182.4l0,1c2.1,0,3.8-1.7,3.8-3.8v0l-0.9,0l0.9,0.1l0-0.1l-0.9,0l0.9,0.1l0-0.1
		l0-4.6c0-2.1-1.7-3.8-3.8-3.8v0.7l0-0.7h0v0.7l0-0.7l-0.1,0l0.1,1l0-1c-2.1,0-3.8,1.7-3.8,3.8h0.7l-0.7,0v0h0.7l-0.7,0l0,0.1l1-0.1
		l-1,0l0,4.6c0,2.1,1.7,3.8,3.8,3.8h0L206.8,182.4l-0.1,1l0.1,0L206.8,182.4l-0.1,1l0.1,0L206.8,182.4l0.1-1l-0.1,0h0l0,0.6l0-0.6h0
		l0,0.6l0-0.6c-1,0-1.8-0.8-1.8-1.8l0-4.6l0-0.1l-0.9,0.1h0.9l0-0.1l-0.9,0.1h0.9h-0.7l0.7,0l0,0h-0.7l0.7,0l0,0
		c0-1,0.8-1.8,1.8-1.8l0.1,0l-0.1-0.9l0,0.9l0.1,0l-0.1-0.9l0,0.9v-0.7l0,0.7l0,0v-0.7l0,0.7l0,0c1,0,1.8,0.8,1.8,1.8l0,4.6l1,0
		l-1-0.1l0,0.1v0l0.6,0l-0.6,0v0l0.6,0l-0.6,0c0,1-0.8,1.8-1.8,1.8L206.8,182.4l0.1-1L206.8,182.4z"/>
	<path id="XMLID_122_" fill="#FFB8C7" d="M212.4,182.3l0,1c2.1,0,3.8-1.7,3.8-3.8v0l-0.9,0l0.9,0.1l0-0.1l-0.9,0l0.9,0.1l0-0.1
		l0-4.6c0-2.1-1.7-3.8-3.8-3.8v0.7l0-0.7h0v0.7l0-0.7l-0.1,0l0.1,1l0-1c-2.1,0-3.8,1.7-3.8,3.8h0.7l-0.7,0v0h0.7l-0.7,0l0,0.1l1-0.1
		l-1,0l0,4.6c0,2.1,1.7,3.8,3.8,3.8h0L212.4,182.3l-0.1,1l0.1,0L212.4,182.3l-0.1,1l0.1,0L212.4,182.3l0.1-1l-0.1,0h0l0,0.6l0-0.6h0
		l0,0.6l0-0.6c-1,0-1.8-0.8-1.8-1.8l0-4.6l0-0.1l-0.9,0.1h0.9l0-0.1l-0.9,0.1h0.9h-0.7l0.7,0l0,0h-0.7l0.7,0l0,0
		c0-1,0.8-1.8,1.8-1.8l0.1,0l-0.1-0.9l0,0.9l0.1,0l-0.1-0.9l0,0.9v-0.7l0,0.7l0,0v-0.7l0,0.7l0,0c1,0,1.8,0.8,1.8,1.8l0,4.6l1,0
		l-1-0.1l0,0.1v0l0.6,0l-0.6,0v0l0.6,0l-0.6,0c0,1-0.8,1.8-1.8,1.8L212.4,182.3l0.1-1L212.4,182.3z"/>
	<path id="XMLID_123_" fill="#FFB8C7" d="M218.8,194.5l0,1.1c2.1,0,3.9-1.7,3.9-3.9l0,0l-1,0l1,0.1l0-0.1l-1,0l1,0.1l0-0.1l0-6.4
		c0-2.1-1.7-3.9-3.9-3.9v0.8l0-0.8h0v0.8l0-0.8l-0.1,0l0.1,1.1l0-1.1c-2.1,0-3.9,1.7-3.9,3.9h0.8l-0.8,0l0,0h0.8l-0.8,0l0,0.1
		l1.1-0.1l-1.1,0l0,6.4c0,2.1,1.7,3.9,3.9,3.9l0,0L218.8,194.5l-0.1,1.1l0.1,0L218.8,194.5l-0.1,1.1l0.1,0L218.8,194.5l0.1-1.1
		l-0.1,0h0l0,0.7v-0.7h0l0,0.7v-0.7c-0.9,0-1.7-0.8-1.7-1.7l0-6.4l0-0.1l-1,0.1h1l0-0.1l-1,0.1h1h-0.8l0.8,0v0h-0.8l0.8,0l0,0
		c0-0.9,0.8-1.7,1.7-1.7l0.1,0l-0.1-1v1l0.1,0l-0.1-1v1v-0.8l0,0.8h0v-0.8l0,0.8l0,0c0.9,0,1.7,0.8,1.7,1.7l0,6.4l1.1,0l-1.1-0.1
		l0,0.1v0l0.7,0h-0.7v0l0.7,0h-0.7c0,0.9-0.8,1.7-1.7,1.7L218.8,194.5l0.1-1.1L218.8,194.5z"/>
</g>
</svg>
