<svg viewBox="0 0 427.2 370.5"><path fill="#F6F7F9" d="M206.6 289.9h124.8c5 0 8.7-4 8.7-9.1V279c-.4-5-4.2-10.1-8.9-10.1h-50.1c-4.2 0-7.8-4.6-7.8-8.7 0-4.2 3.6-8.7 7.8-8.7h22.1c5 0 7.2-3.2 7.2-8v-.8c0-4.7-3.8-8.5-8.5-8.5h-69.2c-5.1 0-9.3 4.2-9.3 9.3 0 5 5 8 10.1 8h8.1c4.7 0 8.8 3.6 9 8.3.3 5.2-3.8 9.2-8.9 9.2H122.9c-5.6 0-10.1 4.6-10.1 10.1v1.8c0 5 4.4 9.1 9.1 9.1h9.3M337.5 121.2h-50.1c-4.2 0-7.8-4.6-7.8-8.7s3.6-8.7 7.8-8.7h22.1c5 0 7.2-3.2 7.2-8V95c0-4.7-3.8-8.5-8.5-8.5H239c-5.1 0-9.3 4.2-9.3 9.3 0 5 5 8 10.1 8h8.1c4.7 0 8.8 3.6 9 8.3.3 5.2-3.8 9.2-8.9 9.2H69.2c-5.6 0-10.1 4.6-10.1 10.1v1.8c0 5 4.4 9.1 9.1 9.1h69.3c4.7 0 8.8 3.6 9 8.3.3 5.2-3.8 9.2-8.9 9.2h-23.2c-4.7 0-8.8 3.6-9 8.3-.3 5.2 3.8 9.2 22.3 9.4h137.5c-8.7-.2-4.6-3.8-4.4-8.5.3-5.2-3.8-9.2-8.9-9.2h-39c-4.2 0-7.8-4.6-7.8-8.7s3.6-8.7 7.8-8.7h124.8c5 0 8.7-4 8.7-9.1v-1.8c-.4-5.1-4.1-10.3-8.9-10.3z"/><path fill="#F6F7F9" d="M86.7 195h50.1c4.2 0 7.8-4.6 7.8-8.7 0-4.2-3.6-8.7-7.8-8.7h-22.1c-5 0-7.2-3.2-7.2-8v-.8c0-4.7 3.8-8.5 8.5-8.5h69.2c5.1 0 9.3 4.2 9.3 9.3 0 5-5 8-10.1 8h-8.1c-4.7 0-8.8 3.6-9 8.3-.3 5.2 3.8 9.2 8.9 9.2H355c5.6 0 10.1 4.6 10.1 10.1v1.8c0 5-4.4 9.1-9.1 9.1h-69.3c-4.7 0-8.8 3.6-9 8.3-.3 5.2 3.8 9.2 8.9 9.2h23.2c4.7 0 8.8 3.6 9 8.3.3 5.2-3.8 9.2-8.9 9.2H172.4c-4.7 0-8.8-3.6-9-8.3-.3-5.2 3.8-9.2 8.9-9.2h39c4.2 0 7.8-4.6 7.8-8.7s-3.6-8.7-7.8-8.7H86.5c-5 0-8.7-4-8.7-9.1v-1.8c.3-5.1 4.1-10.3 8.9-10.3z"/><path fill="#FFB8C7" d="M63.3 99.2c-1.7 0-3.1 1.4-3.1 3.1 0 .5.1 1 .3 1.4l-7.8 7.8c-.4-.1-.8-.2-1.2-.2-1.7 0-3.1 1.4-3.1 3.1 0 1.7 1.4 3.1 3.1 3.1 1.7 0 3.1-1.4 3.1-3.1 0-.5-.1-1-.4-1.4l7.8-7.8c.4.2.8.3 1.2.3 1.7 0 3.1-1.4 3.1-3.1.1-1.8-1.3-3.2-3-3.2zm-11.8 16.3c-.6 0-1.1-.5-1.1-1.1 0-.6.5-1.1 1.1-1.1s1.1.5 1.1 1.1c.1.6-.5 1.1-1.1 1.1zm11.8-12.1c-.6 0-1.1-.5-1.1-1.1 0-.6.5-1.1 1.1-1.1.6 0 1.1.5 1.1 1.1 0 .6-.5 1.1-1.1 1.1zM378.4 155.2c0-1.7-1.4-3.1-3.1-3.1-.5 0-1 .1-1.4.3l-7.8-7.8c.1-.4.2-.8.2-1.2 0-1.7-1.4-3.1-3.1-3.1s-3.1 1.4-3.1 3.1 1.4 3.1 3.1 3.1c.5 0 1-.1 1.4-.4l7.8 7.8c-.2.4-.3.8-.3 1.2 0 1.7 1.4 3.1 3.1 3.1s3.2-1.3 3.2-3zm-16.3-11.7c0-.6.5-1.1 1.1-1.1.6 0 1.1.5 1.1 1.1s-.5 1.1-1.1 1.1c-.6 0-1.1-.5-1.1-1.1zm12.1 11.7c0-.6.5-1.1 1.1-1.1.6 0 1.1.5 1.1 1.1 0 .6-.5 1.1-1.1 1.1-.6 0-1.1-.5-1.1-1.1z"/><path fill="#A1ABD0" d="M325.9 89.8l4.8-3.8c.8.2 2.3.4 3.3-.4 1.4-1.1 1.5-3.1.5-4.5-.8-1-2-1.6-3.3-1.2l-4.2-5.4c.7-1.2.5-2.4-.3-3.4-1.1-1.4-2.8-1.4-4.2-.3-.9.7-1.4 1.7-1 3.1l-5.1 4c-1.2-.7-2.3-.5-3.3.2-1.4 1.1-1.7 2.9-.6 4.3.7 1 2.1 1 3 1l4.3 5.5c-.2.8-.4 2.3.4 3.2 1.1 1.4 3.2 1.8 4.5.7 1-.7 1.3-2.2 1.2-3zm-4-2.5l-4.2-5.4c.3-.7.7-1.3.6-2l4.8-3.8c.6.3 1.1.1 1.8 0l4.3 5.5c-.4.6-.1 1.5.1 2.2l-5.1 4c-.7-.3-1.7-.7-2.3-.5zm11-5c.4.5.3 1.2-.2 1.6-.5.4-1.2.3-1.6-.2-.4-.5-.3-1.2.2-1.6.5-.4 1.2-.3 1.6.2zm-7.7-9.9c.4.5.3 1.2-.2 1.6-.5.4-1.2.3-1.6-.2-.4-.5-.3-1.2.2-1.6.5-.4 1.2-.3 1.6.2zM314 81.1c-.4-.5-.3-1.2.2-1.6.5-.4 1.2-.3 1.6.2.4.5.3 1.2-.2 1.6-.5.4-1.2.3-1.6-.2zm7.8 9.9c-.4-.5-.3-1.2.2-1.6.5-.4 1.2-.3 1.6.2.4.5.3 1.2-.2 1.6-.6.4-1.3.3-1.6-.2z"/><path fill="#A9DEEB" d="M64.7 247.6l4.8-3.8c.8.2 2.3.4 3.3-.4 1.4-1.1 1.5-3.1.5-4.5-.8-1-2-1.6-3.3-1.2l-4.2-5.4c.7-1.2.5-2.4-.3-3.4-1.1-1.4-2.8-1.4-4.2-.3-.9.7-1.4 1.7-1 3.1l-5.1 4c-1.2-.7-2.3-.5-3.3.2-1.4 1.1-1.7 2.9-.6 4.3.7 1 2.1 1 3 1l4.3 5.5c-.2.8-.4 2.3.4 3.2 1.1 1.4 3.2 1.8 4.5.7 1.1-.6 1.3-2.2 1.2-3zm-4-2.5l-4.2-5.4c.3-.7.7-1.3.6-2l4.8-3.8c.6.3 1.1.1 1.8 0l4.3 5.5c-.4.6-.1 1.5.1 2.2l-5.1 4c-.7-.2-1.6-.7-2.3-.5zm11-5c.4.5.3 1.2-.2 1.6-.5.4-1.2.3-1.6-.2-.4-.5-.3-1.2.2-1.6.5-.3 1.2-.3 1.6.2zm-7.7-9.9c.4.5.3 1.2-.2 1.6-.5.4-1.2.3-1.6-.2-.4-.5-.3-1.2.2-1.6.5-.3 1.2-.3 1.6.2zm-11.1 8.7c-.4-.5-.3-1.2.2-1.6.5-.4 1.2-.3 1.6.2.4.5.3 1.2-.2 1.6-.6.4-1.3.3-1.6-.2zm7.7 9.9c-.4-.5-.3-1.2.2-1.6.5-.4 1.2-.3 1.6.2.4.5.3 1.2-.2 1.6-.5.4-1.3.3-1.6-.2z"/><path fill="#A1ABD0" d="M117.7 55.4c-1.7-3-5.4-4.4-8.7-3.4-4.3 1.4-6.4 6.1-4.6 10.2.7 1.6 2 2.9 3.5 3.6l7.4 3.4c.3.1.6 0 .7-.3.6-1.9 2.6-7.9 2.6-8.4.2-1.7 0-3.5-.9-5.1zm-5.4 6.2c-1.3.6-2.9 0-3.5-1.4-.6-1.3 0-2.9 1.4-3.5 1.3-.6 2.9 0 3.5 1.4s-.1 2.9-1.4 3.5z"/><path fill="#FFB8C7" d="M286.8 319.1c1.2-3.3 0-7-3-8.9-3.8-2.4-8.8-1-10.8 3-.8 1.6-1 3.4-.6 5l2.2 7.8c.1.3.4.4.7.3 1.8-.7 7.7-3.1 8.1-3.3 1.6-.8 2.8-2.2 3.4-3.9zm-8.2-.1c-1.3-.7-1.9-2.3-1.2-3.6.7-1.3 2.3-1.9 3.6-1.2 1.3.7 1.9 2.3 1.2 3.6-.7 1.3-2.3 1.8-3.6 1.2z"/><path fill="#FF7676" d="M265.5 35.4h-3v-2.9c0-.7-.3-1.3-1-1.3s-1 .6-1 1.3v2.9h-3c-.7 0-1.3.3-1.3 1s.6 1 1.3 1h3v3c0 .7.3 1.3 1 1.3s1-.6 1-1.3v-3h3c.7 0 1.3-.3 1.3-1s-.5-1-1.3-1z"/><path fill="#A1ABD0" d="M145.2 307.6l-2.9.6-.6-2.9c-.1-.7-.5-1.2-1.2-1.1-.7.1-.9.8-.7 1.5l.6 2.9-2.9.6c-.7.1-1.2.5-1.1 1.2s.8.9 1.5.7l2.9-.6.6 2.9c.1.7.5 1.2 1.2 1.1.7-.1.9-.8.7-1.5l-.6-2.9 2.9-.6c.7-.1 1.2-.5 1.1-1.2-.1-.6-.7-.8-1.5-.7z"/><path fill="#A9DEEB" d="M330.2 240.1c-.3-2.8 1.8-5.3 4.6-5.6 2.8-.3 5.3 1.8 5.6 4.6.3 2.8-1.8 5.3-4.6 5.6-2.9.3-5.4-1.8-5.6-4.6zm8.4-.7c-.2-1.8-1.8-3.2-3.6-3-1.8.2-3.2 1.8-3 3.6.2 1.8 1.8 3.2 3.6 3 1.8-.2 3.1-1.8 3-3.6z"/><path fill="#A9DEEB" d="M326.8 248.4c0-.2 0-.5.2-.7l4.4-5.4c.3-.4 1-.5 1.4-.2.4.3.5 1 .2 1.4l-4.4 5.4c-.3.4-1 .5-1.4.2-.3-.2-.4-.5-.4-.7z"/><path fill="#4B5E7F" d="M227.1 101.2c-4.1 6.2-8.9 11.8-12.8 18.3l11.4-.1c1.2 0 2 1.3 1.5 2.4 0 0-18 20.8-28.5 33.8-.6.8-1.9.1-1.5-.9 2.4-5.9 6.1-15.1 8.3-20.7.3-.9-.3-1.8-1.2-1.8h-6.5c-2.4 0-4.1-2.4-3.3-4.7 3.6-9.7 7.5-19 10.7-29 .4-1.3 1.6-2.1 2.9-2.1l16.5-.1c2.4.1 3.8 2.8 2.5 4.9z"/><path fill="#FFB8C7" d="M195.1 188.2v9.2c0 4.9 4 8.9 8.9 8.9v-.8.8-.8.8h7.2c4.9 0 8.9-4 8.9-8.9h-.8.8-.8.8v-2.2c0-.7-.6-1.3-1.3-1.3-.7 0-1.3.6-1.3 1.3v2.2h1.3-1.3v.1c0 3.4-2.8 6.3-6.2 6.3h-7.2v1.3-1.3h-.1c-3.4 0-6.3-2.8-6.3-6.2v-9.2c0-.7-.6-1.3-1.3-1.3-.7-.3-1.3.3-1.3 1.1z"/><path fill="#4B5E7F" d="M215.6 184.5l-98.5.1-.2-5.8h74.4c.8 0 1.5-.4 1.5-1.3s-.7-1.2-1.5-1.2h-75.9c-.8 0-1.5.4-1.5 1.3v8.9c0 .8.7 1.4 1.5 1.4l100.1-.3c.8 0 1.5-.8 1.5-1.7.1-.6-.6-1.4-1.4-1.4zM216.2 178.3h75.4v6h-69.8c-.8 0-1.4 1-1.4 1.8s.5 1.2 1.4 1.2h71.3c.8 0 1.5-.7 1.5-1.5v-9c0-.4-.2-.8-.4-1.1-.3-.3-.7-.4-1.1-.4h-76.9c-.8 0-1.5.7-1.5 1.5s.7 2.1 1.5 2.1v-.6z"/><path fill="#4B5E7F" d="M297.1 222.8v-1.5 1-1 1-1c-1.3 0-2.3-1-2.3-2.3l-.3-80.9h-1 1-1 1c0-1.3 1-2.3 2.3-2.3v-1 1-1 1c1.3 0 2.3 1 2.3 2.3l.3 80.9h1-1 1-1c0 1.3-1 2.3-2.3 2.3v3c2.9 0 5.3-2.4 5.3-5.3h-1 1-1 1l-.3-80.9c0-2.9-2.4-5.3-5.3-5.3h-.1v1.5-1.5c-2.9 0-5.3 2.4-5.3 5.3v.1h1.5-1.5l.3 80.9c0 2.9 2.4 5.3 5.3 5.3v-1 1-1 1l.1-1.6z"/><path fill="#4B5E7F" d="M305 216.8v-1.5h-.8v1.1-1.1 1.1-1.1c-1 0-1.9-.8-1.9-1.9l-.2-64.4H301h1.1-1.1 1.1c0-1 .8-1.9 1.9-1.9h.8V146v1.1-1.1 1.1c1 0 1.9.8 1.9 1.9l.2 64.4h1.1-1.1 1.1-1.1c0 1-.8 1.9-1.9 1.9v3c2.7 0 4.9-2.2 4.9-4.9h-1.1 1.1-1.1 1.1l-.2-64.4c0-2.7-2.2-4.9-4.9-4.9h-.1v1.5-1.5h-.8c-2.7 0-4.9 2.2-4.9 4.9v.1h1.5-1.5l.2 64.4c0 2.7 2.2 4.9 4.9 4.9v-1.1 1.1-1.1 1.1h.8l.1-1.6z"/><path fill="#4B5E7F" d="M312.1 203.8v-1.5 1-1 1-1c-1.3 0-2.3-1-2.3-2.3l-.1-37.6h-1 1-1 1c0-1.3 1-2.3 2.3-2.3v-1 1-1 1c1.3 0 2.3 1 2.3 2.3l.1 37.6h1-1 1-1c0 1.3-1 2.3-2.3 2.3v3c2.9 0 5.3-2.4 5.3-5.3h-1 1-1 1l-.1-37.6c0-2.9-2.4-5.3-5.3-5.3h-.1v1.5-1.5c-2.9 0-5.3 2.4-5.3 5.3v.1h1.5-1.5l.1 37.6c0 2.9 2.4 5.3 5.3 5.3v-1 1-1 1l.1-1.6zM111.7 135v1.5-1 1-1 1c1.3 0 2.3 1 2.3 2.3l.3 80.9h1-1 1-1c0 1.3-1 2.3-2.3 2.3v1-1 1-1c-1.3 0-2.3-1-2.3-2.3l-.3-80.9h-1 1-1 1c0-1.3 1-2.3 2.3-2.3v-3c-2.9 0-5.3 2.4-5.3 5.3v.1h1.5-1.5l.3 80.9c0 2.9 2.4 5.3 5.3 5.3v-1 1-1 1c2.9 0 5.3-2.4 5.3-5.3h-1 1-1 1l-.3-80.9c0-2.9-2.4-5.3-5.3-5.3h-.1l.1 1.4v-1.5 1.5z"/><path fill="#4B5E7F" d="M103.7 140.9v1.5h.8v-1.1 1.1-1.1 1.1c1 0 1.9.8 1.9 1.9l.2 64.4h1.1-1.1 1.1-1.1c0 1-.8 1.9-1.9 1.9h-.8v1.1-1.1 1.1-1.1c-1 0-1.9-.8-1.9-1.9l-.2-64.4h-1.1 1.1-1.1 1.1c0-1 .8-1.9 1.9-1.9v-3c-2.7 0-4.9 2.2-4.9 4.9v.1h1.5-1.5l.2 64.4c0 2.7 2.2 4.9 4.9 4.9v-1.1 1.1-1.1 1.1h.8c2.7 0 4.9-2.2 4.9-4.9h-1.1 1.1-1.1 1.1l-.2-64.4c0-2.7-2.2-4.9-4.9-4.9h-.1v1.5-1.5h-.8l.1 1.4z"/><path fill="#4B5E7F" d="M96.6 154v1.5-1 1-1 1c1.3 0 2.3 1 2.3 2.3l.1 37.6h1-1 1-1c0 1.3-1 2.3-2.3 2.3v1-1 1-1c-1.3 0-2.3-1-2.3-2.3l-.1-37.6h-1 1-1 1c0-1.3 1-2.3 2.3-2.3v-3c-2.9 0-5.3 2.4-5.3 5.3v.1h1.5-1.5l.1 37.6c0 2.9 2.4 5.3 5.3 5.3v-1 1-1 1c2.9 0 5.3-2.4 5.3-5.3h-1 1-1 1l-.1-37.6c0-2.9-2.4-5.3-5.3-5.3h-.1l.1 1.4v-1.5 1.5z"/><path fill="#FFB8C7" d="M223.7 258.2l-7.9-54.6c-.1-.7-.8-1.2-1.5-1.1s-1.2.8-1.1 1.5l7.9 54.6c.1.7.8 1.2 1.5 1.1s1.2-.8 1.1-1.5M199.1 261.1l4.8-55.4c.1-.7-.5-1.4-1.2-1.5-.7-.1-1.4.5-1.5 1.2l-4.8 55.4c-.1.7.5 1.4 1.2 1.5.8.1 1.4-.4 1.5-1.2M195.6 179.7v.9c2 0 3.7-1.7 3.7-3.7h-.8l.8.1v-.1h-.8l.8.1v-1.5c0-2-1.7-3.7-3.7-3.7v.6-.6.6-.6h-.1l.1.9v-.9c-2 0-3.7 1.7-3.7 3.7h.6-.6.6-.6v.1l.9-.1h-.9v1.4c0 2 1.7 3.7 3.7 3.7v-.9l-.1.9h.1v-.9l-.1.9h.1v-.9l.1-.9h-.1v.5-.5.5-.5c-1 0-1.9-.8-1.9-1.9v-1.5l-.8.1h.8v-.1l-.8.1h.8-.6.6-.6.6c0-1 .8-1.9 1.9-1.9h.1l-.1-.8v.8h.1l-.1-.8v.8-.6.6-.6.6c1 0 1.9.8 1.9 1.9v1.4h.9l-.9-.1v.1h.5-.5.5-.5c0 1-.8 1.9-1.9 1.9v.9l.1-.9-.1.9z"/><path fill="#FFB8C7" d="M201.2 182.5v1c2.1 0 3.8-1.7 3.8-3.8h-.9l.9.1v-.1h-.9l.9.1V175.1c0-2.1-1.7-3.8-3.8-3.8v.7-.7.7-.7h-.1l.1 1v-1c-2.1 0-3.8 1.7-3.8 3.8h.7-.7.7-.7v.1l1-.1h-1v4.6c0 2.1 1.7 3.8 3.8 3.8v-1l-.1 1h.1v-1l-.1 1h.1v-1l.1-1h-.1v.6-.6.6-.6c-1 0-1.8-.8-1.8-1.8V175l-.9.1h.9v-.1l-.9.1h.9-.7.7-.7.7c0-1 .8-1.8 1.8-1.8h.1l-.1-.9v.9h.1l-.1-.9v.9-.7.7-.7.7c1 0 1.8.8 1.8 1.8v4.6h1l-1-.1v.1h.6-.6.6-.6c0 1-.8 1.8-1.8 1.8v1l.1-1-.1 1z"/><path fill="#FFB8C7" d="M206.8 182.4v1c2.1 0 3.8-1.7 3.8-3.8h-.9l.9.1v-.1h-.9l.9.1V175c0-2.1-1.7-3.8-3.8-3.8v.7-.7.7-.7h-.1l.1 1v-1c-2.1 0-3.8 1.7-3.8 3.8h.7-.7.7-.7v.1l1-.1h-1v4.6c0 2.1 1.7 3.8 3.8 3.8v-1l-.1 1h.1v-1l-.1 1h.1v-1l.1-1h-.1v.6-.6.6-.6c-1 0-1.8-.8-1.8-1.8V174.9l-.9.1h.9v-.1l-.9.1h.9-.7.7-.7.7c0-1 .8-1.8 1.8-1.8h.1l-.1-.9v.9h.1l-.1-.9v.9-.7.7-.7.7c1 0 1.8.8 1.8 1.8v4.6h1l-1-.1v.1h.6-.6.6-.6c0 1-.8 1.8-1.8 1.8v1l.1-1-.1 1z"/><path fill="#FFB8C7" d="M212.4 182.3v1c2.1 0 3.8-1.7 3.8-3.8h-.9l.9.1v-.1h-.9l.9.1V174.9c0-2.1-1.7-3.8-3.8-3.8v.7-.7.7-.7h-.1l.1 1v-1c-2.1 0-3.8 1.7-3.8 3.8h.7-.7.7-.7v.1l1-.1h-1v4.6c0 2.1 1.7 3.8 3.8 3.8v-1l-.1 1h.1v-1l-.1 1h.1v-1l.1-1h-.1v.6-.6.6-.6c-1 0-1.8-.8-1.8-1.8V174.8l-.9.1h.9v-.1l-.9.1h.9-.7.7-.7.7c0-1 .8-1.8 1.8-1.8h.1l-.1-.9v.9h.1l-.1-.9v.9-.7.7-.7.7c1 0 1.8.8 1.8 1.8v4.6h1l-1-.1v.1h.6-.6.6-.6c0 1-.8 1.8-1.8 1.8v1l.1-1-.1 1zM218.8 194.5v1.1c2.1 0 3.9-1.7 3.9-3.9h-1l1 .1v-.1h-1l1 .1v-6.5c0-2.1-1.7-3.9-3.9-3.9v.8-.8.8-.8h-.1l.1 1.1v-1.1c-2.1 0-3.9 1.7-3.9 3.9h.8-.8.8-.8v.1l1.1-.1h-1.1v6.4c0 2.1 1.7 3.9 3.9 3.9v-1.1l-.1 1.1h.1v-1.1l-.1 1.1h.1v-1.1l.1-1.1h-.1v.7-.7.7-.7c-.9 0-1.7-.8-1.7-1.7v-6.5l-1 .1h1v-.1l-1 .1h1-.8.8-.8.8c0-.9.8-1.7 1.7-1.7h.1l-.1-1v1h.1l-.1-1v1-.8.8-.8.8c.9 0 1.7.8 1.7 1.7v6.4h1.1l-1.1-.1v.1h.7-.7.7-.7c0 .9-.8 1.7-1.7 1.7v1.1l.1-1.1-.1 1.1z"/></svg>
