<svg viewBox="0 0 367 312"><path fill="#F6F7F9" d="M55.1 78.2h54.5c4.5 0 8.4 5 8.4 9.5s-3.9 9.5-8.4 9.5h-24c-5.4 0-7.8 3.5-7.8 8.7v.9c0 5.1 4.2 9.3 9.3 9.3h75.3c5.6 0 10.2-4.6 10.2-10.2 0-5.4-5.4-8.7-11-8.7h-8.8c-5.1 0-9.5-3.9-9.8-9-.3-5.7 4.2-10 9.7-10h194.5c6.1 0 11-5 11-11v-1.9c0-5.4-4.8-10-10-10h-75.5c-5.1 0-9.5-3.9-9.8-9-.3-5.7 4.2-10 9.7-10h25.3c5.1 0 9.5-3.9 9.8-9 .3-5.7-4.2-10-9.7-10H148.4c-5.1 0-9.5 3.9-9.8 9-.3 5.7 4.2 10 9.7 10h42.4c4.5 0 8.4 5 8.4 9.5s-3.9 9.5-8.4 9.5H54.9c-5.4 0-9.5 4.3-9.5 10v1.9c.4 5.4 4.5 11 9.7 11zM48.2 238.9h54.5c4.5 0 8.4 5 8.4 9.5s-3.9 9.5-8.4 9.5h-24c-5.4 0-7.8 3.5-7.8 8.7v.9c0 5.1 4.2 9.3 9.3 9.3h75.3c5.6 0 10.2-4.6 10.2-10.2 0-5.4-5.4-8.7-11-8.7h-8.8c-5.1 0-9.5-3.9-9.8-9-.3-5.7 4.2-10 9.7-10h194.5c6.1 0 11-5 11-11V226c0-5.4-4.8-10-10-10H266c-5.1 0-9.5-3.9-9.8-9-.3-5.7 4.2-10 9.7-10h25.3c5.1 0 9.5-3.9 9.8-9 .3-5.7-4.2-10-9.7-10H141.6c-5.1 0-9.5 3.9-9.8 9-.3 5.7 4.2 10 9.7 10h42.4c4.5 0 8.4 5 8.4 9.5s-3.9 9.5-8.4 9.5H48c-5.4 0-9.5 4.3-9.5 10v1.9c.4 5.4 4.5 11 9.7 11z"/><path fill="#F6F7F9" d="M321.3 158.6h-54.5c-4.5 0-8.4 5-8.4 9.5s3.9 9.5 8.4 9.5h24c5.4 0 7.8 3.5 7.8 8.7v.9c0 5.1-4.2 9.3-9.3 9.3H214c-5.6 0-10.2-4.6-10.2-10.2 0-5.4 5.4-8.7 11-8.7h8.8c5.1 0 9.5-3.9 9.8-9 .3-5.7-4.2-10-9.7-10H29.2c-6.1 0-11-5-11-11v-1.9c0-5.4 4.8-10 10-10h75.5c5.1 0 9.5-3.9 9.8-9 .3-5.7-4.2-10-9.7-10H78.4c-5.1 0-9.5-3.9-9.8-9-.3-5.7 4.2-10 9.7-10H228c5.1 0 9.5 3.9 9.8 9 .3 5.7-4.2 10-9.7 10h-42.4c-4.5 0-8.4 5-8.4 9.5s3.9 9.5 8.4 9.5h135.9c5.4 0 9.5 4.3 9.5 10v1.9c-.5 5.3-4.6 11-9.8 11z"/><g opacity=".5"><path fill="#FFF" d="M160.6 100.9h-54.2c-6.6 0-11.9 5.3-11.9 11.9v96.1H275v-96.1c0-6.6-5.3-11.9-11.9-11.9h-55.8"/><path fill="#C5C6D1" d="M275.1 210.4H94.6c-.8 0-1.5-.7-1.5-1.5v-96.1c0-7.4 6-13.4 13.4-13.4h54.2c.8 0 1.5.7 1.5 1.5s-.7 1.5-1.5 1.5h-54.2c-5.7 0-10.4 4.6-10.4 10.4v94.6h177.5v-94.6c0-5.7-4.6-10.4-10.4-10.4h-55.8c-.8 0-1.5-.7-1.5-1.5s.7-1.5 1.5-1.5h55.8c7.4 0 13.4 6 13.4 13.4v96.1c0 .8-.7 1.5-1.5 1.5z"/></g><path fill="#C5C6D1" d="M275.1 210.4H94.6c-.8 0-1.5-.7-1.5-1.5v-96.1c0-7.4 6-13.4 13.4-13.4h54.2c.8 0 1.5.7 1.5 1.5s-.7 1.5-1.5 1.5h-54.2c-5.7 0-10.4 4.6-10.4 10.4v94.6h177.5v-94.6c0-5.7-4.6-10.4-10.4-10.4h-55.8c-.8 0-1.5-.7-1.5-1.5s.7-1.5 1.5-1.5h55.8c7.4 0 13.4 6 13.4 13.4v96.1c0 .8-.7 1.5-1.5 1.5z"/><path fill="#FFB8C7" d="M52.6 98.9c-1.7 0-3.1 1.4-3.1 3.1 0 .5.1 1 .3 1.4l-7.8 7.8c-.4-.1-.8-.2-1.2-.2-1.7 0-3.1 1.4-3.1 3.1s1.4 3.1 3.1 3.1 3.1-1.4 3.1-3.1c0-.5-.1-1-.4-1.4l7.8-7.8c.4.2.8.3 1.2.3 1.7 0 3.1-1.4 3.1-3.1.1-1.8-1.3-3.2-3-3.2zm-11.8 16.3c-.6 0-1.1-.5-1.1-1.1 0-.6.5-1.1 1.1-1.1s1.1.5 1.1 1.1c0 .6-.5 1.1-1.1 1.1zm11.8-12c-.6 0-1.1-.5-1.1-1.1 0-.6.5-1.1 1.1-1.1.6 0 1.1.5 1.1 1.1 0 .6-.5 1.1-1.1 1.1zM339.6 157.6c0-1.7-1.4-3.1-3.1-3.1-.5 0-1 .1-1.4.3l-7.8-7.8c.1-.4.2-.8.2-1.2 0-1.7-1.4-3.1-3.1-3.1-1.7 0-3.1 1.4-3.1 3.1s1.4 3.1 3.1 3.1c.5 0 1-.1 1.4-.4l7.8 7.8c-.2.4-.3.8-.3 1.2 0 1.7 1.4 3.1 3.1 3.1 1.8.1 3.2-1.3 3.2-3zm-16.3-11.7c0-.6.5-1.1 1.1-1.1.6 0 1.1.5 1.1 1.1s-.5 1.1-1.1 1.1c-.6 0-1.1-.5-1.1-1.1zm12 11.7c0-.6.5-1.1 1.1-1.1.6 0 1.1.5 1.1 1.1 0 .6-.5 1.1-1.1 1.1-.6 0-1.1-.5-1.1-1.1z"/><path fill="#A1ABD0" d="M309.4 82.4l4.8-3.8c.8.2 2.3.4 3.3-.4 1.4-1.1 1.5-3.1.5-4.5-.8-1-2-1.6-3.3-1.2l-4.2-5.4c.7-1.2.5-2.4-.3-3.4-1.1-1.4-2.8-1.4-4.2-.3-.9.7-1.4 1.7-1 3.1l-5.1 4c-1.2-.7-2.3-.5-3.3.2-1.4 1.1-1.7 2.9-.6 4.3.7 1 2.1 1 3 1l4.3 5.5c-.2.8-.4 2.3.4 3.2 1.1 1.4 3.2 1.8 4.5.7 1-.7 1.2-2.2 1.2-3zm-4.1-2.5l-4.2-5.4c.3-.7.7-1.3.6-2l4.8-3.8c.6.3 1.1.1 1.8 0l4.3 5.5c-.4.6-.1 1.5.1 2.2l-5.1 4c-.7-.3-1.6-.7-2.3-.5zm11-5c.4.5.3 1.2-.2 1.6-.5.4-1.2.3-1.6-.2-.4-.5-.3-1.2.2-1.6.5-.4 1.2-.3 1.6.2zm-7.7-9.9c.4.5.3 1.2-.2 1.6-.5.4-1.2.3-1.6-.2-.4-.5-.3-1.2.2-1.6.5-.4 1.2-.3 1.6.2zm-11.1 8.7c-.4-.5-.3-1.2.2-1.6.5-.4 1.2-.3 1.6.2.4.5.3 1.2-.2 1.6-.5.3-1.2.3-1.6-.2zm7.7 9.9c-.4-.5-.3-1.2.2-1.6.5-.4 1.2-.3 1.6.2.4.5.3 1.2-.2 1.6-.5.3-1.2.3-1.6-.2z"/><path fill="#A9DEEB" d="M40.9 191.6l4.8-3.8c.8.2 2.3.4 3.3-.4 1.4-1.1 1.5-3.1.5-4.5-.8-1-2-1.6-3.3-1.2l-4.2-5.4c.7-1.2.5-2.4-.3-3.4-1.1-1.4-2.8-1.4-4.2-.3-.9.7-1.4 1.7-1 3.1l-5.1 4c-1.2-.7-2.3-.5-3.3.2-1.4 1.1-1.7 2.9-.6 4.3.7 1 2.1 1 3 1l4.3 5.5c-.2.8-.4 2.3.4 3.2 1.1 1.4 3.2 1.8 4.5.7 1-.6 1.2-2.2 1.2-3zm-4.1-2.5l-4.2-5.4c.3-.7.7-1.3.6-2L38 178c.6.3 1.1.1 1.8 0l4.3 5.5c-.4.6-.1 1.5.1 2.2l-5.1 4c-.7-.4-1.6-.8-2.3-.6zm11-5c.4.5.3 1.2-.2 1.6-.5.4-1.2.3-1.6-.2-.4-.5-.3-1.2.2-1.6.5-.4 1.2-.3 1.6.2zm-7.7-9.9c.4.5.3 1.2-.2 1.6-.5.4-1.2.3-1.6-.2-.4-.5-.3-1.2.2-1.6.5-.4 1.2-.3 1.6.2zM29 182.9c-.4-.5-.3-1.2.2-1.6.5-.4 1.2-.3 1.6.2.4.5.3 1.2-.2 1.6-.5.4-1.2.3-1.6-.2zm7.7 9.9c-.4-.5-.3-1.2.2-1.6.5-.4 1.2-.3 1.6.2.4.5.3 1.2-.2 1.6-.5.4-1.2.3-1.6-.2z"/><path fill="#A1ABD0" d="M101.1 48c-1.7-3-5.4-4.4-8.7-3.4-4.3 1.4-6.4 6.1-4.6 10.2.7 1.6 2 2.9 3.5 3.6l7.4 3.4c.3.1.6 0 .7-.3.6-1.9 2.6-7.9 2.6-8.4.3-1.7 0-3.5-.9-5.1zm-5.4 6.2c-1.3.6-2.9 0-3.5-1.4-.6-1.3 0-2.9 1.4-3.5 1.3-.6 2.9 0 3.5 1.4.6 1.3 0 2.9-1.4 3.5z"/><path fill="#FF7676" d="M249 28h-3v-2.9c0-.7-.3-1.3-1-1.3s-1 .6-1 1.3V28h-3c-.7 0-1.3.3-1.3 1s.6 1 1.3 1h3v3c0 .7.3 1.3 1 1.3s1-.6 1-1.3v-3h3c.7 0 1.3-.3 1.3-1s-.6-1-1.3-1z"/><path fill="#4B5E7F" d="M178 178.3c-.2 0-.4-.1-.6-.2-.5-.2-.8-.7-.8-1.2V70.4c0-.5.3-1 .7-1.2.4-.3 1-.3 1.4 0l2 1.1 1.4-1c.5-.3 1.1-.3 1.6 0l1.4 1 1.8-1.1c.5-.3 1.1-.3 1.5.1l1.4 1 1.4-1c.4-.3 1-.3 1.4-.1.5.2.7.7.7 1.2v106.4c0 .5-.3 1-.8 1.2-.5.2-1 .2-1.5-.1l-1.8-1.3c-2.5-1.6-5.7-1.7-8.4-.1l-2.2 1.6c-.1.1-.3.2-.6.2zm1.4-105.5v101.4l.1-.1s.1 0 .1-.1c3.4-2.1 7.7-2 11.1 0V73h-.1c-.5.3-1.1.3-1.6 0l-1.4-1-1.9 1.1c-.5.3-1.1.3-1.5-.1l-1.4-1-1.3.9c-.4.3-1 .3-1.5.1l-.6-.2z"/><path fill="#4B5E7F" d="M192 155h-14c-.8 0-1.5-.7-1.5-1.5s.7-1.5 1.5-1.5h14c.8 0 1.5.7 1.5 1.5s-.7 1.5-1.5 1.5z"/><path fill="#FFF" d="M179 80h12"/><path fill="#4B5E7F" d="M191 81h-12c-.8 0-1.5-.7-1.5-1.5s.7-1.5 1.5-1.5h12c.8 0 1.5.7 1.5 1.5s-.7 1.5-1.5 1.5zM192 162h-14c-.8 0-1.5-.7-1.5-1.5s.7-1.5 1.5-1.5h14c.8 0 1.5.7 1.5 1.5s-.7 1.5-1.5 1.5zM192 169h-14c-.8 0-1.5-.7-1.5-1.5s.7-1.5 1.5-1.5h14c.8 0 1.5.7 1.5 1.5s-.7 1.5-1.5 1.5zM192 71.8c-.6 0-1.2-.4-1.4-1l-5.3-15.9-6.1 16c-.3.7-1.1 1.1-1.8.8-.7-.3-1.1-1.1-.8-1.8l6.4-16.8c.3-.9.9-1.3 1.4-1.4 1.5-.4 3.1.5 3.6 2.1l5.4 16.2c.2.8-.2 1.6-.9 1.8h-.5z"/><path fill="#FFF" d="M192.4 128.3l20.7 31.2c2 3.9-.9 8.6-5.3 8.6h-15.5l.1-39.8z"/><path fill="#4B5E7F" d="M207.8 169.5h-15.5c-.4 0-.7-.2-1-.4-.3-.3-.4-.6-.4-1l.1-39.8c0-.6.4-1.2 1-1.4s1.3.1 1.6.6l20.7 31.2.1.1c1.2 2.3 1.1 5-.3 7.2-1.4 2.2-3.7 3.5-6.3 3.5zm-14.1-2.9h14.1c1.6 0 3-.8 3.8-2.1.8-1.3.9-2.9.2-4.3l-18-27.2-.1 33.6z"/><path fill="#FFF" d="M178.2 128.3l-20.7 31.2c-2 3.9.9 8.6 5.3 8.6h15.5l-.1-39.8z"/><path fill="#4B5E7F" d="M178.3 169.5h-15.5c-2.6 0-4.9-1.3-6.3-3.5-1.3-2.2-1.5-4.9-.3-7.2l.1-.1 20.7-31.2c.3-.5 1-.8 1.6-.6.6.2 1 .7 1 1.4l.1 39.8c0 .4-.1.7-.4 1-.3.3-.6.4-1 .4zm-19.6-9.3c-.7 1.4-.6 3 .2 4.3.8 1.3 2.3 2.1 3.8 2.1h14.1l-.1-33.6-18 27.2z"/><path fill="#4B5E7F" d="M168.5 177.1c-3.9 0-7.1-3.2-7.1-7.1v-2c0-.8.6-1.4 1.4-1.4h11.4c.8 0 1.4.6 1.4 1.4v2c0 4-3.2 7.1-7.1 7.1zm-4.3-7.6v.5c0 2.3 1.9 4.2 4.2 4.2 2.3 0 4.2-1.9 4.2-4.2v-.5h-8.4zM203 177.1c-3.9 0-7.1-3.2-7.1-7.1v-2c0-.8.6-1.4 1.4-1.4h11.4c.8 0 1.4.6 1.4 1.4v2c0 4-3.2 7.1-7.1 7.1zm-4.2-7.6v.5c0 2.3 1.9 4.2 4.2 4.2 2.3 0 4.2-1.9 4.2-4.2v-.5h-8.4zM230 210c-.8 0-1.4-.8-1.4-1.6-.1-4.7-1.6-8.4-4.3-10.7-4.5-3.9-11-3.3-11.1-3.3-.6.1-1.2-.3-1.4-.8-6.3-13.2-19.1-8-19.6-7.7-.7.3-1.5 0-1.8-.8s0-1.5.7-1.8c5.3-2.2 16.7-3.3 22.8 8.2 2.3-.1 7.9.2 12.2 3.9 3.3 2.9 5.1 7.3 5.3 12.9 0 .8-.6 1.7-1.4 1.7zM139.8 210c-.8 0-1.4-.9-1.4-1.7.2-5.5 1.9-9.9 5.3-12.7 4.3-3.7 10-4.1 12.2-4 6.1-11.5 17.5-10.5 22.8-8.3.7.3 1 1.1.7 1.8s-1.1 1-1.8.7c-.5-.2-13.3-5.4-19.6 7.7-.3.5-.8.8-1.4.8-.1 0-6.6-.7-11.1 3.2-2.7 2.3-4.1 6.1-4.3 10.8 0 .9-.6 1.7-1.4 1.7z"/><path fill="#4B5E7F" d="M166.5 200c-.5 0-.9-.2-1.2-.7-3.3-5.6-10.3-5-10.6-5-.8.1-1.5-.5-1.5-1.3-.1-.8.5-1.5 1.2-1.5.4 0 9.1-.8 13.3 6.3.4.7.2 1.5-.5 1.9-.2.2-.4.3-.7.3zM202.1 200c-.2 0-.5-.1-.7-.2-.7-.4-.9-1.2-.5-1.9 4.2-7.2 12.9-6.4 13.3-6.3.8.1 1.3.8 1.2 1.5-.1.8-.8 1.3-1.5 1.2-.3 0-7.3-.6-10.6 5-.2.5-.7.7-1.2.7zM175 184h-.3c-.8-.2-1.2-.9-1-1.7 1.3-5.5 6.1-9.3 11.7-9.3 5.4 0 10.1 3.6 11.6 8.7.2.7-.2 1.5-1 1.7-.7.2-1.5-.2-1.7-1-1.1-3.9-4.8-6.7-8.9-6.7-4.3 0-8 2.9-9 7.1-.2.8-.8 1.2-1.4 1.2z"/><path fill="#C5C6D1" d="M107.5 200.5c-.8 0-1.5-.7-1.5-1.5v-84c0-.8.7-1.5 1.5-1.5s1.5.7 1.5 1.5v84c0 .8-.7 1.5-1.5 1.5zM261.5 200.5c-.8 0-1.5-.7-1.5-1.5v-84c0-.8.7-1.5 1.5-1.5s1.5.7 1.5 1.5v84c0 .8-.7 1.5-1.5 1.5z"/><g fill="#4B5E7F"><path d="M185 53.8l-3.1 8.2h7.1"/><path d="M189 63h-7.1c-.5 0-1-.2-1.2-.6-.3-.4-.3-.9-.2-1.4l3.1-8.2c.2-.6.7-.9 1.3-1 .6 0 1.2.3 1.4.8l4 8.2c.2.5.2 1-.1 1.5-.2.4-.7.7-1.2.7zm-5-3h2.6l-1.4-2.9L184 60z"/></g><g><path fill="#FFF" d="M275.3 224.8H94.4c-6.3 0-11.4-5.1-11.4-11.4v-4.5h203.6v4.5c0 6.3-5 11.4-11.3 11.4z"/><path fill="#C5C6D1" d="M275.3 226.7H94.4c-7.3 0-13.3-6-13.3-13.3V207h207.4v6.4c.1 7.3-5.9 13.3-13.2 13.3zM85 210.8v2.6c0 5.2 4.2 9.5 9.5 9.5h180.8c5.2 0 9.5-4.2 9.5-9.5v-2.6H85z"/></g><g><path fill="#C5C6D1" d="M195.5 218.7h-21c-5.4 0-9.9-4.4-9.9-9.9V207h40.7v1.9c0 5.4-4.4 9.8-9.8 9.8zm-26.8-7.9c.8 2.4 3.1 4.1 5.7 4.1h21c2.7 0 4.9-1.7 5.7-4.1h-32.4z"/></g><g><path fill="#A9DEEB" d="M315.6 214.7c-.3-2.8 1.8-5.3 4.6-5.6s5.3 1.8 5.6 4.6c.3 2.8-1.8 5.3-4.6 5.6-2.8.3-5.3-1.8-5.6-4.6zm8.4-.8c-.2-1.8-1.8-3.2-3.6-3-1.8.2-3.2 1.8-3 3.6.2 1.8 1.8 3.2 3.6 3 1.8-.1 3.2-1.7 3-3.6z"/><path fill="#A9DEEB" d="M312.2 222.9c0-.2 0-.5.2-.7l4.4-5.4c.3-.4 1-.5 1.4-.2.4.3.5 1 .2 1.4l-4.4 5.4c-.3.4-1 .5-1.4.2-.3-.2-.4-.4-.4-.7z"/></g></svg>
