<?xml version="1.0" encoding="utf-8"?>
<!-- Generator: Adobe Illustrator 19.0.0, SVG Export Plug-In . SVG Version: 6.00 Build 0)  -->
<svg version="1.1" id="Layer_1" xmlns="http://www.w3.org/2000/svg" xmlns:xlink="http://www.w3.org/1999/xlink" x="0px" y="0px"
	 viewBox="0 0 367 312" enable-background="new 0 0 367 312" xml:space="preserve">
<g id="XMLID_769_">
	<path fill="#F6F7F9" d="M55.1,78.2h54.5c4.5,0,8.4,5,8.4,9.5s-3.9,9.5-8.4,9.5h-24c-5.4,0-7.8,3.5-7.8,8.7v0.9
		c0,5.1,4.2,9.3,9.3,9.3h75.3c5.6,0,10.2-4.6,10.2-10.2v0c0-5.4-5.4-8.7-11-8.7l-8.8,0c-5.1,0-9.5-3.9-9.8-9c-0.3-5.7,4.2-10,9.7-10
		h194.5c6.1,0,11-5,11-11v-1.9c0-5.4-4.8-10-10-10h-75.5c-5.1,0-9.5-3.9-9.8-9c-0.3-5.7,4.2-10,9.7-10h25.3c5.1,0,9.5-3.9,9.8-9
		c0.3-5.7-4.2-10-9.7-10H148.4c-5.1,0-9.5,3.9-9.8,9c-0.3,5.7,4.2,10,9.7,10h42.4c4.5,0,8.4,5,8.4,9.5s-3.9,9.5-8.4,9.5H54.9
		c-5.4,0-9.5,4.3-9.5,10v1.9C45.8,72.6,49.9,78.2,55.1,78.2z"/>
</g>
<g id="XMLID_768_">
	<path fill="#F6F7F9" d="M48.2,238.9h54.5c4.5,0,8.4,5,8.4,9.5c0,4.5-3.9,9.5-8.4,9.5h-24c-5.4,0-7.8,3.5-7.8,8.7v0.9
		c0,5.1,4.2,9.3,9.3,9.3h75.3c5.6,0,10.2-4.6,10.2-10.2v0c0-5.4-5.4-8.7-11-8.7h-8.8c-5.1,0-9.5-3.9-9.8-9c-0.3-5.7,4.2-10,9.7-10
		h194.5c6.1,0,11-5,11-11v-1.9c0-5.4-4.8-10-10-10H266c-5.1,0-9.5-3.9-9.8-9c-0.3-5.7,4.2-10,9.7-10h25.3c5.1,0,9.5-3.9,9.8-9
		c0.3-5.7-4.2-10-9.7-10H141.6c-5.1,0-9.5,3.9-9.8,9c-0.3,5.7,4.2,10,9.7,10h42.4c4.5,0,8.4,5,8.4,9.5s-3.9,9.5-8.4,9.5H48
		c-5.4,0-9.5,4.3-9.5,10v1.9C38.9,233.3,43,238.9,48.2,238.9z"/>
</g>
<g id="XMLID_767_">
	<path fill="#F6F7F9" d="M321.3,158.6h-54.5c-4.5,0-8.4,5-8.4,9.5s3.9,9.5,8.4,9.5h24c5.4,0,7.8,3.5,7.8,8.7v0.9
		c0,5.1-4.2,9.3-9.3,9.3H214c-5.6,0-10.2-4.6-10.2-10.2v0c0-5.4,5.4-8.7,11-8.7h8.8c5.1,0,9.5-3.9,9.8-9c0.3-5.7-4.2-10-9.7-10H29.2
		c-6.1,0-11-5-11-11v-1.9c0-5.4,4.8-10,10-10h75.5c5.1,0,9.5-3.9,9.8-9c0.3-5.7-4.2-10-9.7-10H78.4c-5.1,0-9.5-3.9-9.8-9
		c-0.3-5.7,4.2-10,9.7-10H228c5.1,0,9.5,3.9,9.8,9c0.3,5.7-4.2,10-9.7,10h-42.4c-4.5,0-8.4,5-8.4,9.5c0,4.5,3.9,9.5,8.4,9.5h135.9
		c5.4,0,9.5,4.3,9.5,10v1.9C330.6,152.9,326.5,158.6,321.3,158.6z"/>
</g>
<g id="XMLID_788_" opacity="0.5">
	<path id="XMLID_135_" fill="#FFFFFF" d="M160.6,100.9h-54.2c-6.6,0-11.9,5.3-11.9,11.9v96.1h180.5v-96.1c0-6.6-5.3-11.9-11.9-11.9
		h-55.8"/>
	<path id="XMLID_136_" fill="#C5C6D1" d="M275.1,210.4H94.6c-0.8,0-1.5-0.7-1.5-1.5v-96.1c0-7.4,6-13.4,13.4-13.4h54.2
		c0.8,0,1.5,0.7,1.5,1.5s-0.7,1.5-1.5,1.5h-54.2c-5.7,0-10.4,4.6-10.4,10.4v94.6h177.5v-94.6c0-5.7-4.6-10.4-10.4-10.4h-55.8
		c-0.8,0-1.5-0.7-1.5-1.5s0.7-1.5,1.5-1.5h55.8c7.4,0,13.4,6,13.4,13.4v96.1C276.6,209.7,275.9,210.4,275.1,210.4z"/>
</g>
<g id="XMLID_787_">
	<path id="XMLID_134_" fill="#C5C6D1" d="M275.1,210.4H94.6c-0.8,0-1.5-0.7-1.5-1.5v-96.1c0-7.4,6-13.4,13.4-13.4h54.2
		c0.8,0,1.5,0.7,1.5,1.5s-0.7,1.5-1.5,1.5h-54.2c-5.7,0-10.4,4.6-10.4,10.4v94.6h177.5v-94.6c0-5.7-4.6-10.4-10.4-10.4h-55.8
		c-0.8,0-1.5-0.7-1.5-1.5s0.7-1.5,1.5-1.5h55.8c7.4,0,13.4,6,13.4,13.4v96.1C276.6,209.7,275.9,210.4,275.1,210.4z"/>
</g>
<g id="XMLID_541_">
	<path fill="#FFB8C7" d="M52.6,98.9c-1.7,0-3.1,1.4-3.1,3.1c0,0.5,0.1,1,0.3,1.4l-7.8,7.8c-0.4-0.1-0.8-0.2-1.2-0.2
		c-1.7,0-3.1,1.4-3.1,3.1s1.4,3.1,3.1,3.1s3.1-1.4,3.1-3.1c0-0.5-0.1-1-0.4-1.4l7.8-7.8c0.4,0.2,0.8,0.3,1.2,0.3
		c1.7,0,3.1-1.4,3.1-3.1C55.7,100.3,54.3,98.9,52.6,98.9z M40.8,115.2c-0.6,0-1.1-0.5-1.1-1.1c0-0.6,0.5-1.1,1.1-1.1
		s1.1,0.5,1.1,1.1C41.9,114.7,41.4,115.2,40.8,115.2z M52.6,103.2c-0.6,0-1.1-0.5-1.1-1.1c0-0.6,0.5-1.1,1.1-1.1
		c0.6,0,1.1,0.5,1.1,1.1C53.7,102.7,53.2,103.2,52.6,103.2z"/>
</g>
<g id="XMLID_790_">
	<path fill="#FFB8C7" d="M339.6,157.6c0-1.7-1.4-3.1-3.1-3.1c-0.5,0-1,0.1-1.4,0.3l-7.8-7.8c0.1-0.4,0.2-0.8,0.2-1.2
		c0-1.7-1.4-3.1-3.1-3.1c-1.7,0-3.1,1.4-3.1,3.1s1.4,3.1,3.1,3.1c0.5,0,1-0.1,1.4-0.4l7.8,7.8c-0.2,0.4-0.3,0.8-0.3,1.2
		c0,1.7,1.4,3.1,3.1,3.1C338.2,160.7,339.6,159.3,339.6,157.6z M323.3,145.9c0-0.6,0.5-1.1,1.1-1.1c0.6,0,1.1,0.5,1.1,1.1
		s-0.5,1.1-1.1,1.1C323.8,147,323.3,146.5,323.3,145.9z M335.3,157.6c0-0.6,0.5-1.1,1.1-1.1c0.6,0,1.1,0.5,1.1,1.1
		c0,0.6-0.5,1.1-1.1,1.1C335.8,158.7,335.3,158.2,335.3,157.6z"/>
</g>
<g id="XMLID_595_">
	<path fill="#A1ABD0" d="M309.4,82.4l4.8-3.8c0.8,0.2,2.3,0.4,3.3-0.4c1.4-1.1,1.5-3.1,0.5-4.5c-0.8-1-2-1.6-3.3-1.2l-4.2-5.4
		c0.7-1.2,0.5-2.4-0.3-3.4c-1.1-1.4-2.8-1.4-4.2-0.3c-0.9,0.7-1.4,1.7-1,3.1l-5.1,4c-1.2-0.7-2.3-0.5-3.3,0.2
		c-1.4,1.1-1.7,2.9-0.6,4.3c0.7,1,2.1,1,3,1l4.3,5.5c-0.2,0.8-0.4,2.3,0.4,3.2c1.1,1.4,3.2,1.8,4.5,0.7
		C309.2,84.7,309.4,83.2,309.4,82.4z M305.3,79.9l-4.2-5.4c0.3-0.7,0.7-1.3,0.6-2l4.8-3.8c0.6,0.3,1.1,0.1,1.8,0l4.3,5.5
		c-0.4,0.6-0.1,1.5,0.1,2.2l-5.1,4C306.9,80.1,306,79.7,305.3,79.9z M316.3,74.9c0.4,0.5,0.3,1.2-0.2,1.6c-0.5,0.4-1.2,0.3-1.6-0.2
		c-0.4-0.5-0.3-1.2,0.2-1.6C315.2,74.3,315.9,74.4,316.3,74.9z M308.6,65c0.4,0.5,0.3,1.2-0.2,1.6c-0.5,0.4-1.2,0.3-1.6-0.2
		c-0.4-0.5-0.3-1.2,0.2-1.6C307.5,64.4,308.2,64.5,308.6,65z M297.5,73.7c-0.4-0.5-0.3-1.2,0.2-1.6c0.5-0.4,1.2-0.3,1.6,0.2
		c0.4,0.5,0.3,1.2-0.2,1.6C298.6,74.2,297.9,74.2,297.5,73.7z M305.2,83.6c-0.4-0.5-0.3-1.2,0.2-1.6c0.5-0.4,1.2-0.3,1.6,0.2
		c0.4,0.5,0.3,1.2-0.2,1.6C306.3,84.1,305.6,84.1,305.2,83.6z"/>
</g>
<g id="XMLID_801_">
	<path fill="#A9DEEB" d="M40.9,191.6l4.8-3.8c0.8,0.2,2.3,0.4,3.3-0.4c1.4-1.1,1.5-3.1,0.5-4.5c-0.8-1-2-1.6-3.3-1.2l-4.2-5.4
		c0.7-1.2,0.5-2.4-0.3-3.4c-1.1-1.4-2.8-1.4-4.2-0.3c-0.9,0.7-1.4,1.7-1,3.1l-5.1,4c-1.2-0.7-2.3-0.5-3.3,0.2
		c-1.4,1.1-1.7,2.9-0.6,4.3c0.7,1,2.1,1,3,1l4.3,5.5c-0.2,0.8-0.4,2.3,0.4,3.2c1.1,1.4,3.2,1.8,4.5,0.7
		C40.7,194,40.9,192.4,40.9,191.6z M36.8,189.1l-4.2-5.4c0.3-0.7,0.7-1.3,0.6-2L38,178c0.6,0.3,1.1,0.1,1.8,0l4.3,5.5
		c-0.4,0.6-0.1,1.5,0.1,2.2l-5.1,4C38.4,189.3,37.5,188.9,36.8,189.1z M47.8,184.1c0.4,0.5,0.3,1.2-0.2,1.6
		c-0.5,0.4-1.2,0.3-1.6-0.2c-0.4-0.5-0.3-1.2,0.2-1.6C46.7,183.5,47.4,183.6,47.8,184.1z M40.1,174.2c0.4,0.5,0.3,1.2-0.2,1.6
		c-0.5,0.4-1.2,0.3-1.6-0.2c-0.4-0.5-0.3-1.2,0.2-1.6C39,173.6,39.7,173.7,40.1,174.2z M29,182.9c-0.4-0.5-0.3-1.2,0.2-1.6
		c0.5-0.4,1.2-0.3,1.6,0.2c0.4,0.5,0.3,1.2-0.2,1.6C30.1,183.5,29.4,183.4,29,182.9z M36.7,192.8c-0.4-0.5-0.3-1.2,0.2-1.6
		c0.5-0.4,1.2-0.3,1.6,0.2c0.4,0.5,0.3,1.2-0.2,1.6C37.8,193.4,37.1,193.3,36.7,192.8z"/>
</g>
<g id="XMLID_536_">
	<path fill="#A1ABD0" d="M101.1,48c-1.7-3-5.4-4.4-8.7-3.4c-4.3,1.4-6.4,6.1-4.6,10.2c0.7,1.6,2,2.9,3.5,3.6l7.4,3.4
		c0.3,0.1,0.6,0,0.7-0.3c0.6-1.9,2.6-7.9,2.6-8.4l0,0l0,0C102.3,51.4,102,49.6,101.1,48z M95.7,54.2c-1.3,0.6-2.9,0-3.5-1.4
		c-0.6-1.3,0-2.9,1.4-3.5c1.3-0.6,2.9,0,3.5,1.4C97.7,52,97.1,53.6,95.7,54.2z"/>
</g>
<g id="XMLID_537_">
	<path fill="#FF7676" d="M249,28h-3v-2.9c0-0.7-0.3-1.3-1-1.3s-1,0.6-1,1.3V28h-3c-0.7,0-1.3,0.3-1.3,1s0.6,1,1.3,1h3v3
		c0,0.7,0.3,1.3,1,1.3s1-0.6,1-1.3v-3h3c0.7,0,1.3-0.3,1.3-1S249.7,28,249,28z"/>
</g>
<g id="XMLID_784_">
	<path id="XMLID_131_" fill="#4B5E7F" d="M178,178.3c-0.2,0-0.4-0.1-0.6-0.2c-0.5-0.2-0.8-0.7-0.8-1.2V70.4c0-0.5,0.3-1,0.7-1.2
		c0.4-0.3,1-0.3,1.4,0l2,1.1l1.4-1c0.5-0.3,1.1-0.3,1.6,0l1.4,1l1.8-1.1c0.5-0.3,1.1-0.3,1.5,0.1l1.4,1l1.4-1c0.4-0.3,1-0.3,1.4-0.1
		c0.5,0.2,0.7,0.7,0.7,1.2v106.4c0,0.5-0.3,1-0.8,1.2c-0.5,0.2-1,0.2-1.5-0.1l-1.8-1.3c-2.5-1.6-5.7-1.7-8.4-0.1l-2.2,1.6
		C178.5,178.2,178.3,178.3,178,178.3z M179.4,72.8v101.4l0.1-0.1c0,0,0.1,0,0.1-0.1c3.4-2.1,7.7-2,11.1,0V73l-0.1,0
		c-0.5,0.3-1.1,0.3-1.6,0l-1.4-1l-1.9,1.1c-0.5,0.3-1.1,0.3-1.5-0.1l-1.4-1l-1.3,0.9c-0.4,0.3-1,0.3-1.5,0.1L179.4,72.8z"/>
</g>
<g id="XMLID_766_">
	<path id="XMLID_130_" fill="#4B5E7F" d="M192,155h-14c-0.8,0-1.5-0.7-1.5-1.5s0.7-1.5,1.5-1.5h14c0.8,0,1.5,0.7,1.5,1.5
		S192.8,155,192,155z"/>
</g>
<g id="XMLID_765_">
	<line id="XMLID_124_" fill="#FFFFFF" x1="179" y1="80" x2="191" y2="80"/>
	<path id="XMLID_128_" fill="#4B5E7F" d="M191,81h-12c-0.8,0-1.5-0.7-1.5-1.5s0.7-1.5,1.5-1.5h12c0.8,0,1.5,0.7,1.5,1.5
		S191.8,81,191,81z"/>
</g>
<g id="XMLID_764_">
	<path id="XMLID_127_" fill="#4B5E7F" d="M192,162h-14c-0.8,0-1.5-0.7-1.5-1.5s0.7-1.5,1.5-1.5h14c0.8,0,1.5,0.7,1.5,1.5
		S192.8,162,192,162z"/>
</g>
<g id="XMLID_763_">
	<path id="XMLID_126_" fill="#4B5E7F" d="M192,169h-14c-0.8,0-1.5-0.7-1.5-1.5s0.7-1.5,1.5-1.5h14c0.8,0,1.5,0.7,1.5,1.5
		S192.8,169,192,169z"/>
</g>
<g id="XMLID_762_">
	<path id="XMLID_125_" fill="#4B5E7F" d="M192,71.8c-0.6,0-1.2-0.4-1.4-1l-5.3-15.9l-6.1,16c-0.3,0.7-1.1,1.1-1.8,0.8
		c-0.7-0.3-1.1-1.1-0.8-1.8l6.4-16.8c0.3-0.9,0.9-1.3,1.4-1.4c1.5-0.4,3.1,0.5,3.6,2.1l5.4,16.2c0.2,0.8-0.2,1.6-0.9,1.8
		C192.3,71.8,192.2,71.8,192,71.8z"/>
</g>
<g id="XMLID_761_">
	<path id="XMLID_120_" fill="#FFFFFF" d="M192.4,128.3l20.7,31.2c2,3.9-0.9,8.6-5.3,8.6h-15.5L192.4,128.3z"/>
	<path id="XMLID_121_" fill="#4B5E7F" d="M207.8,169.5h-15.5c-0.4,0-0.7-0.2-1-0.4c-0.3-0.3-0.4-0.6-0.4-1l0.1-39.8
		c0-0.6,0.4-1.2,1-1.4s1.3,0.1,1.6,0.6l20.7,31.2c0,0,0.1,0.1,0.1,0.1c1.2,2.3,1.1,5-0.3,7.2C212.7,168.2,210.4,169.5,207.8,169.5z
		 M193.7,166.6h14.1c1.6,0,3-0.8,3.8-2.1c0.8-1.3,0.9-2.9,0.2-4.3l-18-27.2L193.7,166.6z"/>
</g>
<g id="XMLID_760_">
	<path id="XMLID_103_" fill="#FFFFFF" d="M178.2,128.3l-20.7,31.2c-2,3.9,0.9,8.6,5.3,8.6h15.5L178.2,128.3z"/>
	<path id="XMLID_117_" fill="#4B5E7F" d="M178.3,169.5h-15.5c-2.6,0-4.9-1.3-6.3-3.5c-1.3-2.2-1.5-4.9-0.3-7.2c0,0,0.1-0.1,0.1-0.1
		l20.7-31.2c0.3-0.5,1-0.8,1.6-0.6c0.6,0.2,1,0.7,1,1.4l0.1,39.8c0,0.4-0.1,0.7-0.4,1C179,169.4,178.7,169.5,178.3,169.5z
		 M158.7,160.2c-0.7,1.4-0.6,3,0.2,4.3c0.8,1.3,2.3,2.1,3.8,2.1h14.1l-0.1-33.6L158.7,160.2z"/>
</g>
<g id="XMLID_759_">
	<path id="XMLID_114_" fill="#4B5E7F" d="M168.5,177.1c-3.9,0-7.1-3.2-7.1-7.1v-2c0-0.8,0.6-1.4,1.4-1.4h11.4c0.8,0,1.4,0.6,1.4,1.4
		v2C175.6,174,172.4,177.1,168.5,177.1z M164.2,169.5v0.5c0,2.3,1.9,4.2,4.2,4.2c2.3,0,4.2-1.9,4.2-4.2v-0.5H164.2z"/>
</g>
<g id="XMLID_758_">
	<path id="XMLID_111_" fill="#4B5E7F" d="M203,177.1c-3.9,0-7.1-3.2-7.1-7.1v-2c0-0.8,0.6-1.4,1.4-1.4h11.4c0.8,0,1.4,0.6,1.4,1.4v2
		C210.1,174,206.9,177.1,203,177.1z M198.8,169.5v0.5c0,2.3,1.9,4.2,4.2,4.2c2.3,0,4.2-1.9,4.2-4.2v-0.5H198.8z"/>
</g>
<g id="XMLID_756_">
	<path id="XMLID_110_" fill="#4B5E7F" d="M230,210c-0.8,0-1.4-0.8-1.4-1.6c-0.1-4.7-1.6-8.4-4.3-10.7c-4.5-3.9-11-3.3-11.1-3.3
		c-0.6,0.1-1.2-0.3-1.4-0.8c-6.3-13.2-19.1-8-19.6-7.7c-0.7,0.3-1.5,0-1.8-0.8s0-1.5,0.7-1.8c5.3-2.2,16.7-3.3,22.8,8.2
		c2.3-0.1,7.9,0.2,12.2,3.9c3.3,2.9,5.1,7.3,5.3,12.9C231.4,209.1,230.8,210,230,210C230,210,230,210,230,210z"/>
</g>
<g id="XMLID_755_">
	<path id="XMLID_109_" fill="#4B5E7F" d="M139.8,210C139.8,210,139.8,210,139.8,210c-0.8,0-1.4-0.9-1.4-1.7
		c0.2-5.5,1.9-9.9,5.3-12.7c4.3-3.7,10-4.1,12.2-4c6.1-11.5,17.5-10.5,22.8-8.3c0.7,0.3,1,1.1,0.7,1.8s-1.1,1-1.8,0.7l0,0
		c-0.5-0.2-13.3-5.4-19.6,7.7c-0.3,0.5-0.8,0.8-1.4,0.8c-0.1,0-6.6-0.7-11.1,3.2c-2.7,2.3-4.1,6.1-4.3,10.8
		C141.2,209.2,140.6,210,139.8,210z"/>
</g>
<g id="XMLID_581_">
	<path id="XMLID_108_" fill="#4B5E7F" d="M166.5,200c-0.5,0-0.9-0.2-1.2-0.7c-3.3-5.6-10.3-5-10.6-5c-0.8,0.1-1.5-0.5-1.5-1.3
		c-0.1-0.8,0.5-1.5,1.2-1.5c0.4,0,9.1-0.8,13.3,6.3c0.4,0.7,0.2,1.5-0.5,1.9C167,199.9,166.8,200,166.5,200z"/>
</g>
<g id="XMLID_580_">
	<path id="XMLID_107_" fill="#4B5E7F" d="M202.1,200c-0.2,0-0.5-0.1-0.7-0.2c-0.7-0.4-0.9-1.2-0.5-1.9c4.2-7.2,12.9-6.4,13.3-6.3
		c0.8,0.1,1.3,0.8,1.2,1.5c-0.1,0.8-0.8,1.3-1.5,1.2l0,0c-0.3,0-7.3-0.6-10.6,5C203.1,199.8,202.6,200,202.1,200z"/>
</g>
<g id="XMLID_579_">
	
		<path fill="none" stroke="#3C3E59" stroke-width="2.799" stroke-linecap="round" stroke-linejoin="round" stroke-miterlimit="10" d="
		M195.1,183.6"/>
</g>
<g id="XMLID_578_">
	<path id="XMLID_106_" fill="#4B5E7F" d="M175,184c-0.1,0-0.2,0-0.3,0c-0.8-0.2-1.2-0.9-1-1.7c1.3-5.5,6.1-9.3,11.7-9.3
		c5.4,0,10.1,3.6,11.6,8.7c0.2,0.7-0.2,1.5-1,1.7c-0.7,0.2-1.5-0.2-1.7-1c-1.1-3.9-4.8-6.7-8.9-6.7c-4.3,0-8,2.9-9,7.1
		C176.2,183.6,175.6,184,175,184z"/>
</g>
<g id="XMLID_577_">
	<path id="XMLID_105_" fill="#C5C6D1" d="M107.5,200.5c-0.8,0-1.5-0.7-1.5-1.5v-84c0-0.8,0.7-1.5,1.5-1.5s1.5,0.7,1.5,1.5v84
		C109,199.8,108.3,200.5,107.5,200.5z"/>
</g>
<g id="XMLID_789_">
	<path id="XMLID_104_" fill="#C5C6D1" d="M261.5,200.5c-0.8,0-1.5-0.7-1.5-1.5v-84c0-0.8,0.7-1.5,1.5-1.5s1.5,0.7,1.5,1.5v84
		C263,199.8,262.3,200.5,261.5,200.5z"/>
</g>
<g id="XMLID_819_">
	<polygon id="XMLID_99_" fill="#4B5E7F" points="185,53.8 181.9,62 189,62 	"/>
	<path id="XMLID_100_" fill="#4B5E7F" d="M189,63h-7.1c-0.5,0-1-0.2-1.2-0.6c-0.3-0.4-0.3-0.9-0.2-1.4l3.1-8.2
		c0.2-0.6,0.7-0.9,1.3-1c0.6,0,1.2,0.3,1.4,0.8l4,8.2c0.2,0.5,0.2,1-0.1,1.5C190,62.7,189.5,63,189,63z M184,60h2.6l-1.4-2.9L184,60
		z"/>
</g>
<g id="XMLID_786_">
	<path id="XMLID_92_" fill="#FFFFFF" d="M275.3,224.8H94.4c-6.3,0-11.4-5.1-11.4-11.4v-4.5h203.6v4.5
		C286.6,219.7,281.6,224.8,275.3,224.8z"/>
	<path id="XMLID_96_" fill="#C5C6D1" d="M275.3,226.7H94.4c-7.3,0-13.3-6-13.3-13.3V207h207.4v6.4
		C288.6,220.7,282.6,226.7,275.3,226.7z M85,210.8v2.6c0,5.2,4.2,9.5,9.5,9.5h180.8c5.2,0,9.5-4.2,9.5-9.5v-2.6H85z"/>
</g>
<g id="XMLID_785_">
	<path id="XMLID_93_" fill="#C5C6D1" d="M195.5,218.7h-21c-5.4,0-9.9-4.4-9.9-9.9V207h40.7v1.9C205.3,214.3,200.9,218.7,195.5,218.7
		z M168.7,210.8c0.8,2.4,3.1,4.1,5.7,4.1h21c2.7,0,4.9-1.7,5.7-4.1H168.7z"/>
</g>
<g id="XMLID_810_">
	<g id="XMLID_808_">
		<g id="XMLID_812_">
			<path fill="#A9DEEB" d="M315.6,214.7c-0.3-2.8,1.8-5.3,4.6-5.6s5.3,1.8,5.6,4.6c0.3,2.8-1.8,5.3-4.6,5.6
				C318.4,219.6,315.9,217.5,315.6,214.7z M324,213.9c-0.2-1.8-1.8-3.2-3.6-3c-1.8,0.2-3.2,1.8-3,3.6c0.2,1.8,1.8,3.2,3.6,3
				C322.8,217.4,324.2,215.8,324,213.9z"/>
		</g>
	</g>
	<g id="XMLID_809_">
		<g id="XMLID_811_">
			<path fill="#A9DEEB" d="M312.2,222.9c0-0.2,0-0.5,0.2-0.7l4.4-5.4c0.3-0.4,1-0.5,1.4-0.2c0.4,0.3,0.5,1,0.2,1.4l-4.4,5.4
				c-0.3,0.4-1,0.5-1.4,0.2C312.3,223.4,312.2,223.2,312.2,222.9z"/>
		</g>
	</g>
</g>
</svg>
