<?xml version="1.0" encoding="utf-8"?>
<!-- Generator: Adobe Illustrator 19.0.0, SVG Export Plug-In . SVG Version: 6.00 Build 0)  -->
<svg version="1.1" id="Layer_1" xmlns="http://www.w3.org/2000/svg" xmlns:xlink="http://www.w3.org/1999/xlink" x="0px" y="0px"
	 viewBox="0 0 168 166" enable-background="new 0 0 168 166" xml:space="preserve">
<g id="XMLID_838_">
	<path id="path28_1_" inkscape:connector-curvature="0" fill="#FFFFFF" d="M160.1,61.5c0,22.5-18.3,40.8-40.8,40.8
		S78.4,84.1,78.4,61.5s18.3-40.8,40.8-40.8S160.1,39,160.1,61.5"/>
	<path id="path32_1_" inkscape:connector-curvature="0" fill="#FFFFFF" d="M11.2,12.5l12.6,33l-12.6,33l12.6,33l-12.6,33l7.7,2.9
		l41.9-41.9l7.5,1.2l9.1-9.1c-5.4-6.2-9.4-13.7-11.6-21.9l4.3-3.5c-0.7-3.4-1.1-6.9-1.1-10.6c0-18.1,9.7-34.1,24.1-42.9l-16-6.1
		l-33,12.6L11.2,12.5z"/>
	<path id="path36_1_" inkscape:connector-curvature="0" fill="#F2F2F2" d="M151.4,100.1c-8.7,7.3-19.9,11.6-32.1,11.6
		c-3.6,0-7.2-0.4-10.6-1.1l-3.5,4.3c-7.8-2.1-14.9-5.8-21-10.8l-9.4,9.5l1.2,7l-35.1,35.1l3.4,1.3l33-12.6l33,12.6l33-12.6l12.6-33
		L151.4,100.1L151.4,100.1z"/>
	<path id="path102472_1_" inkscape:connector-curvature="0" sodipodi:nodetypes="cscccccccccc" fill="#E5E6E6" d="M151.4,100.1
		c-8.7,7.3-19.9,11.6-32.1,11.6c-3.6,0-7.2-0.4-10.6-1.1l-3.5,4.3l-21-11.1l-9.4,9.7l1.2,7l34.3,5.2l-0.1,31.3l33-12.6l12.6-33
		L151.4,100.1z"/>
	<path id="path103330_1_" inkscape:connector-curvature="0" sodipodi:nodetypes="scccscs" fill="#FF5079" d="M108.1,44.5
		c-6.9,0-11.5,6.9-11.5,13.9c0,10.4,11.5,20.8,21.9,27.8c10.4-6.9,21.9-17.4,21.9-27.8c0-6.9-4.5-13.9-11.5-13.9
		c-6.9,0-10.4,4.7-10.4,10.4C118.6,49.1,115.1,44.5,108.1,44.5z"/>
</g>
</svg>
