<?xml version="1.0" encoding="utf-8"?>
<!-- Generator: Adobe Illustrator 19.0.0, SVG Export Plug-In . SVG Version: 6.00 Build 0)  -->
<svg version="1.1" id="Layer_1" xmlns="http://www.w3.org/2000/svg" xmlns:xlink="http://www.w3.org/1999/xlink" x="0px" y="0px"
	 width="539px" height="425.5px" viewBox="-189 127.8 539 425.5" style="enable-background:new -189 127.8 539 425.5;"
	 xml:space="preserve">
<g>
	<path style="fill:none;" d="M-88.8,329.7c-0.4,1.6-0.6,3.2-0.5,4.8h0.5V329.7z"/>
	<path style="fill:none;" d="M235.2,404c-1.1,0-2,0.9-2,2s0.9,2,2,2s2-0.9,2-2S236.4,404,235.2,404z"/>
	<path style="fill:#A9DEEB;" d="M-95.6,367.7h-3.5v-3.4c0-0.7-0.3-1.3-1-1.3s-1,0.6-1,1.3v3.4h-2.5c-0.7,0-1.3,0.3-1.3,1
		c0,0.7,0.6,1,1.3,1h2.5v2.5c0,0.7,0.3,1.3,1,1.3s1-0.6,1-1.3v-2.5h3.5c0.7,0,1.3-0.3,1.3-1C-94.3,368-94.8,367.7-95.6,367.7z"/>
	<path style="fill:#A9DEEB;" d="M237.5,277.2l2.5-1.6l1.6,2.5c0.4,0.6,0.9,1,1.5,0.6s0.5-1,0.2-1.6l-1.6-2.5l2.5-1.6
		c0.6-0.4,1-0.9,0.6-1.5c-0.4-0.6-1-0.6-1.6-0.2l-2.5,1.6l-1.5-2.5c-0.4-0.6-0.9-1-1.5-0.6s-0.5,1-0.2,1.6l1.5,2.5l-2.5,1.6
		c-0.6,0.4-1,0.9-0.6,1.5C236.4,277.6,236.9,277.5,237.5,277.2z"/>
	<path style="fill:#A9DEEB;" d="M204.2,444.3l-2.5,1.6l-1.5-2.5c-0.4-0.6-0.9-1-1.5-0.6s-0.5,1-0.2,1.6l1.5,2.5l-2.5,1.6
		c-0.6,0.4-1,0.9-0.6,1.5s1,0.5,1.6,0.2l2.5-1.6l1.6,2.5c0.4,0.6,0.9,1,1.5,0.6s0.5-1,0.2-1.6l-1.6-2.5l2.5-1.6
		c0.6-0.4,1-0.9,0.6-1.5C205.4,443.9,204.9,443.9,204.2,444.3z"/>
	<path style="fill:#FF7676;" d="M-71.4,255.2l2.5-1.6l1.6,2.5c0.4,0.6,0.9,1,1.5,0.6c0.7-0.4,0.6-1,0.2-1.6l-1.6-2.5l2.5-1.5
		c0.6-0.4,1-0.9,0.6-1.5c-0.4-0.6-1-0.5-1.6-0.2l-2.5,1.5l-1.6-2.5c-0.4-0.6-0.9-1-1.5-0.6c-0.6,0.4-0.5,1-0.2,1.6l1.6,2.5l-2.5,1.6
		c-0.6,0.4-1,0.9-0.6,1.5S-72.1,255.5-71.4,255.2z"/>
	<path style="fill:#FF7676;" d="M-8.8,469.4l-2.5,1.5l-1.6-2.5c-0.4-0.6-0.9-1-1.5-0.6s-0.5,1-0.2,1.6l1.6,2.5l-2.5,1.6
		c-0.6,0.4-1,0.9-0.6,1.5s1,0.5,1.6,0.2l2.5-1.6l1.6,2.5c0.4,0.6,0.9,1,1.5,0.6c0.7-0.4,0.6-1,0.2-1.6l-1.6-2.5l2.5-1.5
		c0.6-0.4,1-0.9,0.6-1.5C-7.6,469-8.2,469.1-8.8,469.4z"/>
	<circle style="fill:#FFB8C7;" cx="233.2" cy="199.5" r="2.1"/>
	<circle style="fill:#4B5E7F;" cx="-48.8" cy="449.2" r="2.1"/>
	<circle style="fill:#4B5E7F;" cx="120.4" cy="137.1" r="2.1"/>
	<circle style="fill:#FFB8C7;" cx="34.2" cy="165.8" r="2.1"/>
	<circle style="fill:#FFB8C7;" cx="13.7" cy="505.8" r="2.1"/>
	<circle style="fill:#FFB8C7;" cx="147.7" cy="489.2" r="2.1"/>
	<circle style="fill:#FFB8C7;" cx="277.2" cy="346.2" r="2.1"/>
	<circle style="fill:#A9DEEB;" cx="156.4" cy="180.4" r="2.1"/>
	<circle style="fill:#F6F7F9;" cx="279.4" cy="328.2" r="2.1"/>
	<circle style="fill:#F6F7F9;" cx="-2.4" cy="191.2" r="2.1"/>
	<circle style="fill:#F6F7F9;" cx="-84.9" cy="413.2" r="2.1"/>
	<circle style="fill:#F6F7F9;" cx="84.8" cy="532.2" r="2.1"/>
	<path style="fill:#FFB8C7;" d="M235.7,400.3c-3.4-0.3-6.2,2.4-6.1,5.7c0,1.3,0.5,2.6,1.3,3.5l4.1,4.5c0.2,0.2,0.4,0.2,0.6,0
		c1-1.1,4-4.7,4.3-5c0.6-1.1,1-2.4,0.8-3.8C240.4,402.6,238.4,400.6,235.7,400.3z M235.2,408c-1.1,0-2-0.9-2-2s0.9-2,2-2s2,0.9,2,2
		C237.2,407.1,236.4,408,235.2,408z"/>
	<path style="fill:#F6F7F9;" d="M-86.1,334.6v-10.8c-1.3,1.8-2.3,3.8-2.8,5.9v4.8L-86.1,334.6z"/>
	<path style="fill:#F6F7F9;" d="M-86.4,343.4c0.1,0.2,0.3,0.4,0.4,0.5v-0.5H-86.4z"/>
	<path style="fill:#F6F7F9;" d="M255.9,345.5c6.3-6.5,6.3-16.8,0-23.4V345.5z"/>
	<path style="fill:#F6F7F9;" d="M29.7,364.3l10,105.7l24.2,24.2V346.1L29.7,364.3z M50.4,368.9c0-0.5,0.5-1,1-1h4.7
		c0.6,0,1.1,0.5,1,1V385c0,0.5-0.5,1-1,1h-4.7c-0.5,0-1-0.5-1-1V368.9z M34.7,370.5c-0.3-1.3,0.8-2.6,2.3-2.6h9.6
		c1.3,0,2.3,1,2.3,2.3v13.5c0,1.3-1,2.3-2.3,2.3h-7.5c-1.1,0-2.1-0.8-2.3-2L34.7,370.5z M38.8,401.2l-1.7-9.6
		c-0.2-1.1,0.6-2.1,1.7-2.1h16.6c1,0,1.8,0.8,1.6,1.9v9.6c0,0.9-0.7,1.7-1.7,1.7H40.6C39.7,402.7,38.9,402.1,38.8,401.2z
		 M58.2,426.3c0,0.6-0.8,1.2-1.8,1.2h-11c-0.9,0,2.2-0.4-2.6-0.8l-3-20.1c0-0.6,0.8-1.2,1.8-1.2h14.9c0.9,0,1.8,0.5,1.7,1.2V426.3z"
		/>
	<path style="fill:#F6F7F9;" d="M210.2,386.7c-0.2,0.3-0.5,0.4-0.8,0.4c-0.2,0-0.4-0.1-0.6-0.2c-0.3-0.2-0.4-0.6-0.4-0.9l-26.1,3.2
		l-1.1,1.5c-0.2,0.3-0.5,0.4-0.8,0.4c-0.2,0-0.4-0.1-0.6-0.2c-0.4-0.3-0.5-0.9-0.2-1.3l-21.6,2.7v51.2l34.6-34.6l-1.5-13.3
		c0-0.5,0.4-1,0.9-1.1l4.6-0.5h0.1c0.5,0,0.9,0.4,1,0.9l0.9,8l2.5-2.5l-0.7-5.9c0-0.5,0.4-1,0.9-1.1l4.6-0.5h0.1
		c0.4,0,0.9,0.4,1,0.8l0.1,0.7l9.4-9.4l-5.4,0.7L210.2,386.7z M178.2,414.3l-8.2,0.9h-0.1c-0.5,0-0.9-0.4-1-0.9l-1.9-16
		c0-0.5,0.4-1,0.9-1.1l8.1-0.9h0.1c0.5,0,1,0.4,1.1,0.9l1.9,16C179.2,413.7,178.7,414.2,178.2,414.3z M188.4,413l-6.8,0.8h-0.1
		c-0.5,0-0.9-0.4-1-0.9l-1.9-16c0-0.5,0.4-1,0.9-1.1l8.2-0.9h0.1c0.5,0,0.9,0.4,0.9,0.8l1.8,15.2L188.4,413z"/>
	<path style="fill:#F6F7F9;" d="M232.2,298.4l-5-5l-18.6,45.2c-0.3,0.7-1,0.9-1.5,0.6c-0.4-0.2-0.6-0.5-0.6-0.9l-0.7-64.3
		c-0.1-0.6,0.4-1,0.9-1.1l-7.1-7.1l0.8,105.6L232.2,298.4z"/>
	<polygon style="fill:#F6F7F9;" points="63.9,173.4 15.7,221.7 63.9,221.7 	"/>
	<path style="fill:#F6F7F9;" d="M255.5,321.7l-16.4-16.4l-30.4,71.6l0,0l0.2,0.1l17.5-2.2l29-29c0.1-0.1,0.2-0.2,0.3-0.3V322
		C255.7,321.9,255.7,321.8,255.5,321.7z"/>
	<polygon style="fill:#F6F7F9;" points="155.5,221.7 103.9,170.1 103.9,221.7 	"/>
	<path style="fill:#F6F7F9;" d="M-49.6,334.7l-16.1-31.6l-18.7,18.8c-0.6,0.6-1.2,1.3-1.7,2v10.8H-49.6z"/>
	<path style="fill:#F6F7F9;" d="M21.7,370.9l-2.7-0.8l-32,17.1l0.2,0.3c0.4,0.2,0.6,0.6,0.6,1.1l30.4,59.7l12.1,12.1L21.7,370.9
		L21.7,370.9z M24.2,447.9c-0.4,0-0.7-0.1-0.9-0.5l-30.5-56.6c-0.3-0.6-0.1-1.2,0.4-1.5L17,375.8c0.2,0,0.3-0.1,0.5-0.1
		c0.6,0,1,0.4,1.2,0.9l6.6,70.1C25.3,447.4,24.8,447.9,24.2,447.9z"/>
	<path style="fill:#F6F7F9;" d="M-45.1,343.5l-41-0.1v0.5c0.5,0.7,1.1,1.4,1.7,2l45.2,45.2l14.4-7.7L-45.1,343.5z M-59.3,369
		c-1.2,0-2.1-0.9-2.1-2.1c0-1.2,0.9-2.1,2.1-2.1s2.1,0.9,2.1,2.1C-57.2,368.1-58.1,369-59.3,369z"/>
	<polygon style="fill:#F6F7F9;" points="-32.7,397.6 -1.8,428.5 -20.8,391.3 	"/>
	<path style="fill:#F6F7F9;" d="M20.2,359.4L4.7,261.7h-29l-34.9,34.9l42.1,82.7L20.2,359.4z M8.8,319.3c0.5,0,0.9,0.4,1,0.9
		l0.8,4.7c0.1,0.6-0.3,1.1-0.8,1.2l-15.5,2.8h-0.2c-0.5,0-0.9-0.4-1-0.9l-0.8-4.7c-0.1-0.6,0.3-1.1,0.8-1.2l15.5-2.8H8.8z
		 M6.8,307.6l1.4,8.3c0.1,0.6-0.3,1.1-0.8,1.2l-15.5,2.8h-0.2c-0.5,0-0.9-0.4-1-0.9l-1.4-8.3c-0.1-0.6,0.3-1.1,0.8-1.2l15.5-2.8h0.2
		C6.3,306.7,6.7,307,6.8,307.6z M-5.2,287.4l7.4-1.3h0.2c0.4,0,0.8,0.3,1,0.9l0.8,4.7c0.1,0.6-0.3,1.1-0.8,1.2l-7.4,1.3h-0.2
		c-0.5,0-0.9-0.4-1-0.9l-0.8-4.7C-6.1,288-5.7,287.5-5.2,287.4z M-11.9,297.4l15.5-2.8h0.2c0.6,0,1,0.3,1,0.9l1.4,8.3
		c0.1,0.6-0.3,1.1-0.8,1.2l-15.5,2.8h-0.2c-0.5,0-0.9-0.4-1-0.9l-1.4-8.3C-12.8,298-12.4,297.5-11.9,297.4z M-42.8,310.7
		c-0.4,0-0.7-0.2-0.9-0.5l-2.1-4.2c-0.2-0.4,0-1,0.5-1.3l6.7-3.5c0.2,0,0.4-0.1,0.5-0.1c0.4,0,0.7,0.2,0.9,0.5l2.1,4.2
		c0.2,0.4,0,1-0.5,1.3l-6.7,3.5C-42.6,310.6-42.8,310.7-42.8,310.7z M-37.7,323.4c-0.4,0-0.7-0.2-0.9-0.5l-3.7-7.5
		c-0.2-0.4,0-1,0.5-1.3l14.1-7.3c0.2,0,0.4-0.1,0.5-0.1c0.4,0,0.7,0.2,0.9,0.6l3.7,7.5c0.2,0.4,0,1-0.5,1.3l-14.1,7.2
		C-37.3,323.3-37.6,323.4-37.7,323.4z M-32.2,335.4c-0.4,0-0.7-0.2-0.9-0.5l-3.7-7.5c-0.2-0.4,0-1,0.5-1.3l14.1-7.3
		c0.2,0,0.4-0.1,0.5-0.1c0.4,0,0.7,0.2,0.9,0.6l3.7,7.5c0.2,0.4,0,1-0.5,1.3l-14.1,7.2C-31.8,335.3-32.1,335.4-32.2,335.4z
		 M-28.3,343.1c-0.4,0-0.7-0.2-0.9-0.5l-2.1-4.2c-0.2-0.4,0-1,0.5-1.3l6.7-3.5c0.2,0,0.4-0.1,0.5-0.1c0.3,0,0.7,0.2,0.9,0.5l2.1,4.2
		c0.2,0.4,0,1-0.5,1.3l-6.7,3.5C-27.9,343-28.2,343.1-28.3,343.1z M-25.4,347.4l34.9-17.2c0.2,0,0.4-0.1,0.5-0.1
		c0.4,0,0.9,0.3,0.9,0.9l4.1,22c0.1,0.5-0.1,1-0.6,1.2l-29.4,14.6c-0.2,0-0.4,0.1-0.5,0.1c-0.3,0-0.7-0.2-0.9-0.6l-9.5-19.4
		C-26.2,348.3-25.9,347.7-25.4,347.4z"/>
	<polygon style="fill:#F6F7F9;" points="28.2,355.1 63.9,336 63.9,261.7 13.3,261.7 	"/>
	<path style="fill:#F6F7F9;" d="M137.9,261.7h-34v4.2l0.7,0.3l-0.7,0.5v123.4l34-4.2V261.7z M113.2,270.6c0-0.5,0.5-1,1-1h16.1
		c0.6,0,1.1,0.5,1,1v8.2c0,0.5-0.5,1-1,1h-16.1c-0.5,0-1-0.5-1-1V270.6z M113.2,283.4c0-0.5,0.5-1,1-1h16.1c0.6,0,1.1,0.4,1,1v4.7
		c0,0.5-0.5,1-1,1h-16.1c-0.5,0-1-0.5-1-1V283.4z M113.2,292.4c0-0.5,0.5-1,1-1h16.1c0.6,0,1.1,0.4,1,1v4.7c0,0.5-0.5,1-1,1h-16.1
		c-0.5,0-1-0.5-1-1V292.4z M113.2,300.9c0-0.5,0.5-1,1-1h16.1c0.6,0,1.1,0.5,1,1v8.2c0,0.5-0.5,1-1,1h-16.1c-0.5,0-1-0.5-1-1V300.9z
		 M113.2,313.4c0-0.5,0.5-1,1-1h16.1c0.6,0,1.1,0.5,1,1v8.2c0,0.5-0.5,1-1,1h-16.1c-0.5,0-1-0.5-1-1V313.4z M113.2,326.1
		c0-0.5,0.5-1,1-1h16.1c0.6,0,1.1,0.5,1,1v4.7c0,0.5-0.5,1-1,1h-16.1c-0.5,0-1-0.5-1-1V326.1z M113.2,335.1c0-0.5,0.5-1,1-1h16.1
		c0.6,0,1.1,0.4,1,1v8.2c0,0.5-0.5,1-1,1h-16.1c-0.5,0-1-0.5-1-1V335.1z M113.2,347.3c0-0.6,0.5-1,1-1h16.1c0.6,0,1.1,0.5,1,1v8.2
		c0,0.5-0.5,1-1,1h-16.1c-0.5,0-1-0.5-1-1V347.3z M113.2,358.7c0-0.5,0.5-1,1-1h16.1c0.6,0,1.1,0.5,1,1v4.7c0,0.5-0.5,1-1,1h-16.1
		c-0.5,0-1-0.5-1-1V358.7z M131.2,377.7c0,0.4-0.3,0.7-0.7,0.8l-16.5,2h-0.1c-0.4,0-0.8-0.3-0.8-0.8v-12.9c0-0.4,0.4-0.8,0.8-0.9
		h16.5c0.4,0,0.9,0.4,0.8,0.8V377.7z"/>
	<path style="fill:#F6F7F9;" d="M124.9,396.3l-1.8,2.4c-0.2,0.3-0.5,0.4-0.8,0.4c-0.2,0-0.4-0.1-0.6-0.2c-0.4-0.3-0.5-1-0.2-1.4
		l0.6-0.8l-18.2,2.3v24.3l1.8,1.8c0.4,0.4,0.4,1,0,1.4c-0.2,0.2-0.4,0.3-0.7,0.3s-0.5-0.1-0.7-0.3l-0.4-0.4v35.2l1.8,1.8
		c0.4,0.4,0.4,1,0,1.4c-0.2,0.2-0.4,0.3-0.7,0.3s-0.5-0.1-0.7-0.3l-0.4-0.4v33.4l34-34v-68.8L124.9,396.3z M131.2,465.9
		c0,0.5-0.5,1-1,1h-16.1c-0.5,0-1-0.5-1-1v-8.2c0-0.5,0.5-1,1-1h16.1c0.6,0,1.1,0.5,1,1V465.9z M131.2,454.3c0,0.5-0.5,1-1,1h-16.1
		c-0.5,0-1-0.5-1-1v-8.2c0-0.5,0.5-1,1-1h16.1c0.6,0,1.1,0.5,1,1V454.3z M131.2,441.8c0,0.5-0.5,1-1,1h-16.1c-0.5,0-1-0.5-1-1v-4.7
		c0-0.5,0.5-1,1-1h16.1c0.6,0,1.1,0.5,1,1V441.8z M131.2,432.5c0,0.5-0.5,1-1,1h-16.1c-0.5,0-1-0.5-1-1v-4.7c0-0.5,0.5-1,1-1h16.1
		c0.6,0,1.1,0.5,1,1V432.5z M131.2,424c0,0.5-0.5,1-1,1h-16.1c-0.5,0-1-0.5-1-1v-8.2c0-0.5,0.5-1,1-1h16.1c0.6,0,1.1,0.5,1,1V424z
		 M131.2,411.2c0,0.5-0.5,1-1,1h-16.1c-0.5,0-1-0.5-1-1V403c0-0.5,0.5-1,1-1h16.1c0.6,0,1.1,0.5,1,1V411.2z"/>
	<path style="fill:#F6F7F9;" d="M179,380.8c0.1,0,0.1,0,0.2,0l12.6-1.6L191,261.7h-33.1v121.7L179,380.8z M165.2,278.4
		c0-0.5,0.5-1,1-1h16.1c0.6,0,1.1,0.4,1,1v4.7c0,0.5-0.5,1-1,1h-16.1c-0.5,0-1-0.5-1-1V278.4z M165.2,287.4c0-0.5,0.5-1,1-1h16.1
		c0.6,0,1.1,0.4,1,1v4.7c0,0.5-0.5,1-1,1h-16.1c-0.5,0-1-0.5-1-1V287.4z M165.2,295.9c0-0.5,0.5-1,1-1h16.1c0.6,0,1.1,0.5,1,1v8.2
		c0,0.5-0.5,1-1,1h-16.1c-0.5,0-1-0.5-1-1V295.9z M165.2,308.4c0-0.5,0.5-1,1-1h16.1c0.6,0,1.1,0.5,1,1v8.2c0,0.5-0.5,1-1,1h-16.1
		c-0.5,0-1-0.5-1-1V308.4z M165.2,321.1c0-0.5,0.5-1,1-1h16.1c0.6,0,1.1,0.5,1,1v4.7c0,0.5-0.5,1-1,1h-16.1c-0.5,0-1-0.5-1-1V321.1z
		 M165.2,330.1c0-0.5,0.5-1,1-1h16.1c0.6,0,1.1,0.4,1,1v8.2c0,0.5-0.5,1-1,1h-16.1c-0.5,0-1-0.5-1-1V330.1z M165.2,342.3
		c0-0.6,0.5-1,1-1h16.1c0.6,0,1.1,0.5,1,1v8.2c0,0.5-0.5,1-1,1h-16.1c-0.5,0-1-0.5-1-1V342.3z M165.2,353.7c0-0.5,0.5-1,1-1h16.1
		c0.6,0,1.1,0.5,1,1v4.7c0,0.5-0.5,1-1,1h-16.1c-0.5,0-1-0.5-1-1V353.7z M165.2,361.8c0-0.4,0.4-0.8,0.8-0.9h16.5
		c0.4,0,0.9,0.4,0.8,0.8v11c0,0.4-0.3,0.7-0.7,0.8l-16.5,2h-0.1c-0.4,0-0.8-0.3-0.8-0.8V361.8z"/>
	<path style="fill:#FCFCFC;" d="M10.2,241.7h4.9c0.6,0,1,0.4,1,1c0,0.6-0.5,1-1,1h-4.6l2.9,18h50.6v-17.8c-0.1,0-0.3,0-0.4,0
		c-0.6,0-1-0.5-0.9-1.1c0-0.6,0.5-1,1.1-0.9c0.1,0,0.1,0,0.2,0v-8.2H45.9l1,1c0.4,0.4,0.4,1,0,1.4c-0.2,0.2-0.5,0.3-0.7,0.3
		c-0.3,0-0.5-0.1-0.7-0.3l-2.4-2.4H11.8l1,1c0.4,0.4,0.4,1,0,1.4c-0.2,0.2-0.5,0.3-0.7,0.3c-0.3,0-0.5-0.1-0.7-0.3L9,233.7H3.6
		l-1.2,1.2l6.3-1.1L10.2,241.7z M45.2,241.7h6.8c0.6,0,1,0.4,1,1c0,0.6-0.4,1-1,1h-1h-5.8c-0.6,0-1-0.4-1-1
		C44.2,242.1,44.6,241.7,45.2,241.7z M26.7,241.7h6.8c0.6,0,1,0.4,1,1c0,0.6-0.5,1-1,1h-6.8c-0.6,0-1-0.4-1-1
		C25.7,242.1,26.2,241.7,26.7,241.7z"/>
	<path style="fill:#FCFCFC;" d="M0.7,236.7l-5,5h0.9c0.6,0,1,0.4,1,1c0,0.6-0.5,1-1,1h-2.8l-18,18h29L0.7,236.7z"/>
	<path style="fill:#FCFCFC;" d="M103.9,230.7h4.2c0-0.1,0.1-0.1,0.1-0.2l4.2-4.2c0.4-0.4,1-0.4,1.4,0c0.4,0.4,0.4,1,0,1.4l-3,3h34.3
		c0-0.1,0.1-0.1,0.1-0.2l4.2-4.2c0.4-0.4,1-0.4,1.4,0c0.4,0.4,0.4,1,0,1.4l-3,3h16.7l-9-9h-51.6V230.7z"/>
	<path style="fill:#FCFCFC;" d="M11.4,226.3c0.4-0.4,1-0.4,1.4,0c0.4,0.4,0.4,1,0,1.4h31.2l1.4-1.4c0.4-0.4,1-0.4,1.4,0
		c0.4,0.4,0.4,1,0,1.4h17.1v-6H15.7l-6,6h0.4L11.4,226.3z"/>
	<path style="fill:#FCFCFC;" d="M150.9,234.7c0.4,0.4,0.4,1,0,1.4c-0.2,0.2-0.5,0.3-0.7,0.3c-0.3,0-0.5-0.1-0.7-0.3l-3.4-3.4h-34.2
		l2,2c0.4,0.4,0.4,1,0,1.4c-0.2,0.2-0.5,0.3-0.7,0.3c-0.3,0-0.5-0.1-0.7-0.3l-3.4-3.4h-5.1v9.8c0.8-0.1,1.7-0.3,2.6-0.4
		c0.6-0.1,1,0.4,1.1,0.9s-0.4,1-0.9,1.1c-1,0.1-2,0.2-2.8,0.4v17.2h34v-2h20v2H191v-4.6l-13.5-13.4h-3.9c-0.6,0-1-0.4-1-1
		c0-0.6,0.4-1,1-1h1.9l-9-9h-17.7L150.9,234.7z M125,243.7h-6.8c-0.6,0-1-0.4-1-1c0-0.6,0.4-1,1-1h6.8c0.6,0,1,0.4,1,1
		C126,243.3,125.7,243.7,125,243.7z M143.5,243.7h-6.8c-0.6,0-1-0.4-1-1c0-0.6,0.4-1,1-1h6.8c0.6,0,1,0.4,1,1
		C144.5,243.3,144,243.7,143.5,243.7z M155.2,241.7h6.8c0.6,0,1,0.4,1,1c0,0.6-0.4,1-1,1h-6.8c-0.6,0-1-0.4-1-1
		C154.2,242.1,154.5,241.7,155.2,241.7z"/>
	<path style="fill:#FCFCFC;" d="M76.9,166.8c5-0.6,10-0.7,15-0.1V160c-4.8-1.9-10.4-1.5-15,1.2V166.8
		C76.9,166.7,76.9,166.8,76.9,166.8z"/>
	<path style="fill:#FCFCFC;" d="M74.9,166.7v-4.1c-0.5,0.4-1,0.8-1.4,1.2l-4.5,4.5c2-0.5,3.9-0.9,5.9-1.2
		C74.9,167,74.9,166.8,74.9,166.7z"/>
	<path style="fill:#FCFCFC;" d="M93.9,166.9c2.9,0.4,5.8,1,8.7,1.8l-5-5c-1.1-1.1-2.4-2.1-3.7-2.8v5.7
		C93.9,166.8,93.9,166.9,93.9,166.9z"/>
	<path style="fill:#FCFCFC;" d="M89.4,264.7h-4.5v8.6c1.3-1.9,3.5-4.1,7-5.6l0,0c0-0.6,0.4-1,1-1c0.3,0,0.6,0.1,0.8,0.3
		c0.7-0.2,1.4-0.5,2.2-0.6l-0.5-4.2l8.5,3.7v-4.2H87.7L89.4,264.7z"/>
	<path style="fill:#FCFCFC;" d="M74.9,221.7v-5c0-0.6,0.4-1,1-1s1,0.4,1,1v5h15v-5c0-0.6,0.4-1,1-1s1,0.4,1,1v5h10v-51.6l-1.3-1.3
		c-2.9-0.8-5.8-1.4-8.7-1.8c-0.1,0.5-0.4,0.8-1,0.8s-1-0.4-1-1l0,0c-5-0.5-10-0.5-15,0.1c0,0.5-0.4,0.9-1,0.9
		c-0.5,0-0.8-0.2-0.9-0.6c-2,0.3-4,0.7-5.9,1.2l-5.1,5.1v48.2H74.9z M91.9,178.7c0-0.6,0.4-1,1-1s1,0.4,1,1v7c0,0.6-0.4,1-1,1
		s-1-0.4-1-1V178.7z M91.9,197.7c0-0.6,0.4-1,1-1s1,0.4,1,1v7c0,0.6-0.4,1-1,1s-1-0.4-1-1V197.7z M74.9,178.7c0-0.6,0.4-1,1-1
		s1,0.4,1,1v7c0,0.6-0.4,1-1,1s-1-0.4-1-1V178.7z M74.9,197.7c0-0.6,0.4-1,1-1s1,0.4,1,1v7c0,0.6-0.4,1-1,1s-1-0.4-1-1V197.7z"/>
	<path style="fill:#FCFCFC;" d="M100.9,458.5c0.1,0,0.2,0,0.3,0.1c0.1,0,0.2,0.1,0.3,0.2l0,0l2.4,2.5v-35.2l-3-3.1L100.9,458.5
		L100.9,458.5z"/>
	<path style="fill:#FCFCFC;" d="M66.3,472.4c-0.2,0.2-0.4,0.3-0.7,0.3s-0.5-0.1-0.7-0.3c-0.4-0.4-0.4-1,0-1.4l3-3v-35.2l-1.6,1.6
		c-0.2,0.2-0.4,0.3-0.7,0.3s-0.5-0.1-0.7-0.3c-0.4-0.4-0.4-1,0-1.4l3-3v-35.2l-1.6,1.6c-0.2,0.2-0.4,0.3-0.7,0.3s-0.5-0.1-0.7-0.3
		c-0.4-0.4-0.4-1,0-1.4l3-3v-48.1l-4,2.1v148.1l4,4v-27.4L66.3,472.4z"/>
	<path style="fill:#FCFCFC;" d="M97.3,502.4c-0.2,0.2-0.4,0.3-0.7,0.3s-0.5-0.1-0.7-0.3c-0.4-0.4-0.4-1,0-1.4l3-3v-35.2l-1.6,1.6
		c-0.2,0.2-0.4,0.3-0.7,0.3s-0.5-0.1-0.7-0.3c-0.4-0.4-0.4-1,0-1.4l3-3v-35.2l-1.6,1.6c-0.2,0.2-0.4,0.3-0.7,0.3s-0.5-0.1-0.7-0.3
		c-0.4-0.4-0.4-1,0-1.4l3-3v-25.3c0-0.5,0.2-0.8,0.6-0.9c0.1-0.3,0.4-0.5,0.8-0.6l2.9-0.4l-0.5-4.5l1.2-0.2V266.7l-7.3,5.5l-0.5-3.8
		c-0.8,0.2-1.6,0.4-2.2,0.7v1.6c0,0.6-0.4,1-1,1s-1-0.4-1-1V270c-3.9,1.9-5.6,4.6-6.4,6.5c0.3,1,0.4,1.7,0.4,1.8v36.4
		c0,0.7-0.4,1.1-1,1.1c-0.2,0-0.4-0.1-0.5-0.1c-0.1,0.1-0.3,0.1-0.5,0.1c-0.6,0-1-0.4-1-1v-36.4v-2.9c-0.9-1.8-2.7-4-6-5.6v0.8
		c0,0.6-0.4,1-1,1s-1-0.4-1-1V269c-0.6-0.2-1.3-0.4-2-0.6l-0.5,3.8l-8-6l9.2-4l-0.5,4.1c0.7,0.2,1.4,0.4,2.1,0.6
		c0.2-0.2,0.4-0.3,0.7-0.3c0.6,0,0.9,0.4,1,0.9c2.8,1.2,4.7,2.8,6,4.3v-7.1h-3.5l1.7-3H63.9V336l1.9-1l2.1,4.1l1-0.6
		c0.5-0.3,1.1-0.1,1.4,0.4s0.1,1.1-0.4,1.4v50.2c0.1,0,0.2,0,0.3,0.1c0.1,0,0.2,0.1,0.3,0.2l0,0l4.2,4.3c0.4,0.4,0.4,1,0,1.4
		c-0.2,0.2-0.4,0.3-0.7,0.3s-0.5-0.1-0.7-0.3l-3.4-3.5v35.5c0.1,0,0.2,0,0.3,0.1c0.1,0,0.2,0.1,0.3,0.2l0,0l4.2,4.3
		c0.4,0.4,0.4,1,0,1.4c-0.2,0.2-0.4,0.3-0.7,0.3s-0.5-0.1-0.7-0.3l-3.4-3.5v35.5c0.1,0,0.2,0,0.3,0.1c0.1,0,0.2,0.1,0.3,0.2l0,0
		l4.2,4.3c0.4,0.4,0.4,1,0,1.4c-0.2,0.2-0.4,0.3-0.7,0.3s-0.5-0.1-0.7-0.3l-3.4-3.5v31.2l3.6,3.6c6.7,6.7,17.5,6.7,24.1,0l1.3-1.3
		v-1.7L97.3,502.4z M76.9,498.7c0,0.6-0.4,1-1,1s-1-0.4-1-1v-7c0-0.6,0.4-1,1-1s1,0.4,1,1V498.7z M76.9,479.7c0,0.6-0.4,1-1,1
		s-1-0.4-1-1v-7c0-0.6,0.4-1,1-1s1,0.4,1,1V479.7z M76.9,460.7c0,0.6-0.4,1-1,1s-1-0.4-1-1v-7c0-0.6,0.4-1,1-1s1,0.4,1,1V460.7z
		 M76.9,441.7c0,0.6-0.4,1-1,1s-1-0.4-1-1v-7c0-0.6,0.4-1,1-1s1,0.4,1,1V441.7z M76.9,422.7c0,0.6-0.4,1-1,1s-1-0.4-1-1v-7
		c0-0.6,0.4-1,1-1s1,0.4,1,1V422.7z M76.9,403.7c0,0.6-0.4,1-1,1s-1-0.4-1-1v-7c0-0.6,0.4-1,1-1s1,0.4,1,1V403.7z M76.9,384.7
		c0,0.6-0.4,1-1,1s-1-0.4-1-1v-7c0-0.6,0.4-1,1-1s1,0.4,1,1V384.7z M76.9,365.7c0,0.6-0.4,1-1,1s-1-0.4-1-1v-7c0-0.6,0.4-1,1-1
		s1,0.4,1,1V365.7z M76.9,346.7c0,0.6-0.4,1-1,1s-1-0.4-1-1v-7c0-0.6,0.4-1,1-1s1,0.4,1,1V346.7z M76.9,327.7c0,0.6-0.4,1-1,1
		s-1-0.4-1-1v-7c0-0.6,0.4-1,1-1s1,0.4,1,1V327.7z M76.9,308.7c0,0.6-0.4,1-1,1s-1-0.4-1-1v-7c0-0.6,0.4-1,1-1s1,0.4,1,1V308.7z
		 M76.9,289.7c0,0.6-0.4,1-1,1s-1-0.4-1-1v-7c0-0.6,0.4-1,1-1s1,0.4,1,1V289.7z M93.9,498.7c0,0.6-0.4,1-1,1s-1-0.4-1-1v-7
		c0-0.6,0.4-1,1-1s1,0.4,1,1V498.7z M93.9,479.7c0,0.6-0.4,1-1,1s-1-0.4-1-1v-7c0-0.6,0.4-1,1-1s1,0.4,1,1V479.7z M93.9,460.7
		c0,0.6-0.4,1-1,1s-1-0.4-1-1v-7c0-0.6,0.4-1,1-1s1,0.4,1,1V460.7z M93.9,441.7c0,0.6-0.4,1-1,1s-1-0.4-1-1v-7c0-0.6,0.4-1,1-1
		s1,0.4,1,1V441.7z M93.9,422.7c0,0.6-0.4,1-1,1s-1-0.4-1-1v-7c0-0.6,0.4-1,1-1s1,0.4,1,1V422.7z M93.9,403.7c0,0.6-0.4,1-1,1
		s-1-0.4-1-1v-7c0-0.6,0.4-1,1-1s1,0.4,1,1V403.7z M93.9,384.7c0,0.6-0.4,1-1,1s-1-0.4-1-1v-7c0-0.6,0.4-1,1-1s1,0.4,1,1V384.7z
		 M93.9,365.7c0,0.6-0.4,1-1,1s-1-0.4-1-1v-7c0-0.6,0.4-1,1-1s1,0.4,1,1V365.7z M93.9,346.7c0,0.6-0.4,1-1,1s-1-0.4-1-1v-7
		c0-0.6,0.4-1,1-1s1,0.4,1,1V346.7z M93.9,327.7c0,0.6-0.4,1-1,1s-1-0.4-1-1v-7c0-0.6,0.4-1,1-1s1,0.4,1,1V327.7z M93.9,308.7
		c0,0.6-0.4,1-1,1s-1-0.4-1-1v-7c0-0.6,0.4-1,1-1s1,0.4,1,1V308.7z M93.9,289.7c0,0.6-0.4,1-1,1s-1-0.4-1-1v-7c0-0.6,0.4-1,1-1
		s1,0.4,1,1V289.7z"/>
	<polygon style="fill:#FCFCFC;" points="100.9,500.5 101.7,499.8 100.9,499 	"/>
	<path style="fill:#FCFCFC;" d="M103.4,396.8l-2.5,0.3v23.4c0.1,0,0.2,0,0.3,0.1c0.1,0,0.2,0.1,0.3,0.2l0,0l2.4,2.5V399h-0.3
		L103.4,396.8z"/>
	<path style="fill:#FCFCFC;" d="M100.9,461v35.5c0.1,0,0.2,0,0.3,0.1c0.1,0,0.2,0.1,0.3,0.2l0,0l1.5,1.6l0.9-0.9v-33.4L100.9,461z"
		/>
	<path style="fill:#FCFCFC;" d="M67.2,230.7h3.9c0-0.1,0.1-0.1,0.1-0.2l4.2-4.2c0.4-0.4,1-0.4,1.4,0c0.4,0.4,0.4,1,0,1.4l-3,3h30.1
		v-9h-10c0,0.6-0.4,1-1,1s-1-0.4-1-1h-15c0,0.6-0.4,1-1,1s-1-0.4-1-1h-11v6h3.3V230.7z"/>
	<path style="fill:#FCFCFC;" d="M87.7,261.7h16.2v-17.2c-1.4,0.2-2.5,0.5-3.6,0.9c-0.1,0-0.3,0.1-0.4,0.1c-0.4,0-0.8-0.2-0.9-0.6
		c-0.2-0.5,0-1.1,0.6-1.3c1.2-0.5,2.6-0.9,4.3-1.1v-9.8H74.8l2,2c0.4,0.4,0.4,1,0,1.4c-0.2,0.2-0.5,0.3-0.7,0.3
		c-0.3,0-0.5-0.1-0.7-0.3l-3.4-3.4h-4.8v1h-3.3v8.2c2.9,0.2,5,0.7,6.8,1.4c0.5,0.2,0.8,0.8,0.5,1.3c-0.1,0.3-0.5,0.6-0.9,0.6
		c-0.1,0-0.3,0-0.4-0.1c-1.5-0.6-3.4-1-6-1.2v17.8h17.2l3.3-5.6L87.7,261.7z M92.7,252.8c0.1-0.5,0.6-0.9,1.1-0.9
		c0.5,0.1,0.9,0.6,0.9,1.1c-0.1,1-0.2,2.1-0.2,3.4c0,0.6-0.4,1-1,1s-1-0.4-1-1C92.4,255.1,92.6,253.9,92.7,252.8z M76.4,257.4
		c-0.6,0-1-0.4-1-1c0-1.2-0.1-2.4-0.2-3.4c-0.1-0.5,0.3-1,0.9-1.1c0.6-0.1,1,0.3,1.1,0.9c0.1,1.1,0.2,2.3,0.2,3.6
		C77.4,257,77.1,257.4,76.4,257.4z"/>
	<path style="fill:#D1D1D1;" d="M74.9,270.7c0,0.6,0.4,1,1,1s1-0.4,1-1v-0.8c-0.6-0.3-1.3-0.6-2-0.9V270.7z"/>
	<path style="fill:#D1D1D1;" d="M75.9,266.7c-0.3,0-0.5,0.1-0.7,0.3c0.6,0.2,1.2,0.4,1.7,0.7C76.8,267.1,76.6,266.7,75.9,266.7z"/>
	<path style="fill:#D1D1D1;" d="M75.9,300.7c-0.6,0-1,0.4-1,1v7c0,0.6,0.4,1,1,1s1-0.4,1-1v-7C76.9,301.1,76.6,300.7,75.9,300.7z"/>
	<path style="fill:#D1D1D1;" d="M75.9,357.7c-0.6,0-1,0.4-1,1v7c0,0.6,0.4,1,1,1s1-0.4,1-1v-7C76.9,358.1,76.6,357.7,75.9,357.7z"/>
	<path style="fill:#D1D1D1;" d="M75.9,338.7c-0.6,0-1,0.4-1,1v7c0,0.6,0.4,1,1,1s1-0.4,1-1v-7C76.9,339.1,76.6,338.7,75.9,338.7z"/>
	<path style="fill:#D1D1D1;" d="M75.9,376.7c-0.6,0-1,0.4-1,1v7c0,0.6,0.4,1,1,1s1-0.4,1-1v-7C76.9,377.1,76.6,376.7,75.9,376.7z"/>
	<path style="fill:#D1D1D1;" d="M75.9,281.7c-0.6,0-1,0.4-1,1v7c0,0.6,0.4,1,1,1s1-0.4,1-1v-7C76.9,282.1,76.6,281.7,75.9,281.7z"/>
	<path style="fill:#D1D1D1;" d="M75.9,319.7c-0.6,0-1,0.4-1,1v7c0,0.6,0.4,1,1,1s1-0.4,1-1v-7C76.9,320.1,76.6,319.7,75.9,319.7z"/>
	<path style="fill:#D1D1D1;" d="M75.9,395.7c-0.6,0-1,0.4-1,1v7c0,0.6,0.4,1,1,1s1-0.4,1-1v-7C76.9,396.1,76.6,395.7,75.9,395.7z"/>
	<path style="fill:#D1D1D1;" d="M75.9,471.7c-0.6,0-1,0.4-1,1v7c0,0.6,0.4,1,1,1s1-0.4,1-1v-7C76.9,472.1,76.6,471.7,75.9,471.7z"/>
	<path style="fill:#D1D1D1;" d="M75.9,490.7c-0.6,0-1,0.4-1,1v7c0,0.6,0.4,1,1,1s1-0.4,1-1v-7C76.9,491.1,76.6,490.7,75.9,490.7z"/>
	<path style="fill:#D1D1D1;" d="M75.9,452.7c-0.6,0-1,0.4-1,1v7c0,0.6,0.4,1,1,1s1-0.4,1-1v-7C76.9,453.1,76.6,452.7,75.9,452.7z"/>
	<path style="fill:#D1D1D1;" d="M75.9,414.7c-0.6,0-1,0.4-1,1v7c0,0.6,0.4,1,1,1s1-0.4,1-1v-7C76.9,415.1,76.6,414.7,75.9,414.7z"/>
	<path style="fill:#D1D1D1;" d="M75.9,433.7c-0.6,0-1,0.4-1,1v7c0,0.6,0.4,1,1,1s1-0.4,1-1v-7C76.9,434.1,76.6,433.7,75.9,433.7z"/>
	<path style="fill:#D1D1D1;" d="M91.9,270.7c0,0.6,0.4,1,1,1s1-0.4,1-1v-1.6c-0.7,0.3-1.4,0.5-2,0.9V270.7z"/>
	<path style="fill:#D1D1D1;" d="M91.9,267.7L91.9,267.7c0.6-0.2,1.1-0.5,1.8-0.7c-0.2-0.2-0.5-0.3-0.8-0.3
		C92.3,266.7,91.9,267.1,91.9,267.7z"/>
	<path style="fill:#D1D1D1;" d="M92.9,319.7c-0.6,0-1,0.4-1,1v7c0,0.6,0.4,1,1,1s1-0.4,1-1v-7C93.9,320.1,93.6,319.7,92.9,319.7z"/>
	<path style="fill:#D1D1D1;" d="M92.9,433.7c-0.6,0-1,0.4-1,1v7c0,0.6,0.4,1,1,1s1-0.4,1-1v-7C93.9,434.1,93.6,433.7,92.9,433.7z"/>
	<path style="fill:#D1D1D1;" d="M92.9,300.7c-0.6,0-1,0.4-1,1v7c0,0.6,0.4,1,1,1s1-0.4,1-1v-7C93.9,301.1,93.6,300.7,92.9,300.7z"/>
	<path style="fill:#D1D1D1;" d="M92.9,452.7c-0.6,0-1,0.4-1,1v7c0,0.6,0.4,1,1,1s1-0.4,1-1v-7C93.9,453.1,93.6,452.7,92.9,452.7z"/>
	<path style="fill:#D1D1D1;" d="M92.9,281.7c-0.6,0-1,0.4-1,1v7c0,0.6,0.4,1,1,1s1-0.4,1-1v-7C93.9,282.1,93.6,281.7,92.9,281.7z"/>
	<path style="fill:#D1D1D1;" d="M92.9,395.7c-0.6,0-1,0.4-1,1v7c0,0.6,0.4,1,1,1s1-0.4,1-1v-7C93.9,396.1,93.6,395.7,92.9,395.7z"/>
	<path style="fill:#D1D1D1;" d="M92.9,414.7c-0.6,0-1,0.4-1,1v7c0,0.6,0.4,1,1,1s1-0.4,1-1v-7C93.9,415.1,93.6,414.7,92.9,414.7z"/>
	<path style="fill:#D1D1D1;" d="M92.9,338.7c-0.6,0-1,0.4-1,1v7c0,0.6,0.4,1,1,1s1-0.4,1-1v-7C93.9,339.1,93.6,338.7,92.9,338.7z"/>
	<path style="fill:#D1D1D1;" d="M92.9,471.7c-0.6,0-1,0.4-1,1v7c0,0.6,0.4,1,1,1s1-0.4,1-1v-7C93.9,472.1,93.6,471.7,92.9,471.7z"/>
	<path style="fill:#D1D1D1;" d="M92.9,376.7c-0.6,0-1,0.4-1,1v7c0,0.6,0.4,1,1,1s1-0.4,1-1v-7C93.9,377.1,93.6,376.7,92.9,376.7z"/>
	<path style="fill:#D1D1D1;" d="M92.9,490.7c-0.6,0-1,0.4-1,1v7c0,0.6,0.4,1,1,1s1-0.4,1-1v-7C93.9,491.1,93.6,490.7,92.9,490.7z"/>
	<path style="fill:#D1D1D1;" d="M92.9,357.7c-0.6,0-1,0.4-1,1v7c0,0.6,0.4,1,1,1s1-0.4,1-1v-7C93.9,358.1,93.6,357.7,92.9,357.7z"/>
	<path style="fill:#D1D1D1;" d="M75.1,167.1c0.6-0.1,1.3-0.2,1.9-0.3v-0.1v-5.5c-0.7,0.4-1.4,0.9-2,1.4v4.1
		C74.9,166.8,74.9,167,75.1,167.1z"/>
	<path style="fill:#D1D1D1;" d="M76.9,216.7c0-0.6-0.4-1-1-1s-1,0.4-1,1v5h2V216.7z"/>
	<path style="fill:#D1D1D1;" d="M75.9,167.7c0.6,0,0.9-0.4,1-0.9c-0.6,0.1-1.3,0.2-1.9,0.3C75.2,167.5,75.4,167.7,75.9,167.7z"/>
	<path style="fill:#D1D1D1;" d="M75.9,205.7c0.6,0,1-0.4,1-1v-7c0-0.6-0.4-1-1-1s-1,0.4-1,1v7C74.9,205.3,75.3,205.7,75.9,205.7z"/>
	<path style="fill:#D1D1D1;" d="M75.9,186.7c0.6,0,1-0.4,1-1v-7c0-0.6-0.4-1-1-1s-1,0.4-1,1v7C74.9,186.3,75.3,186.7,75.9,186.7z"/>
	<path style="fill:#D1D1D1;" d="M75.9,222.7c0.6,0,1-0.4,1-1h-2C74.9,222.3,75.3,222.7,75.9,222.7z"/>
	<path style="fill:#D1D1D1;" d="M93.9,166.9c0-0.1,0-0.1,0-0.2V161c-0.7-0.4-1.3-0.7-2-1v6.7C92.7,166.8,93.2,166.8,93.9,166.9z"/>
	<path style="fill:#D1D1D1;" d="M92.9,205.7c0.6,0,1-0.4,1-1v-7c0-0.6-0.4-1-1-1s-1,0.4-1,1v7C91.9,205.3,92.3,205.7,92.9,205.7z"/>
	<path style="fill:#D1D1D1;" d="M92.9,186.7c0.6,0,1-0.4,1-1v-7c0-0.6-0.4-1-1-1s-1,0.4-1,1v7C91.9,186.3,92.3,186.7,92.9,186.7z"/>
	<path style="fill:#D1D1D1;" d="M93.9,216.7c0-0.6-0.4-1-1-1s-1,0.4-1,1v5h2V216.7z"/>
	<path style="fill:#D1D1D1;" d="M91.9,166.7c0,0.6,0.4,1,1,1c0.5,0,0.9-0.3,1-0.8C93.2,166.8,92.7,166.8,91.9,166.7L91.9,166.7z"/>
	<path style="fill:#D1D1D1;" d="M92.9,222.7c0.6,0,1-0.4,1-1h-2C91.9,222.3,92.3,222.7,92.9,222.7z"/>
	<path style="fill:#D1D1D1;" d="M76.2,251.9c-0.6,0.1-1,0.6-0.9,1.1c0.1,1,0.2,2.2,0.2,3.4c0,0.6,0.4,1,1,1s1-0.4,1-1
		c0-1.3-0.1-2.5-0.2-3.6C77.2,252.2,76.7,251.8,76.2,251.9z"/>
	<path style="fill:#D1D1D1;" d="M16.1,242.7c0-0.6-0.4-1-1-1h-4.9l0.3,2h4.6C15.6,243.7,16.1,243.3,16.1,242.7z"/>
	<path style="fill:#D1D1D1;" d="M45.2,243.7h5.8h1c0.6,0,1-0.4,1-1c0-0.6-0.4-1-1-1h-6.8c-0.6,0-1,0.4-1,1
		C44.2,243.3,44.6,243.7,45.2,243.7z"/>
	<path style="fill:#D1D1D1;" d="M63.7,241.9c-0.6-0.1-1.1,0.3-1.1,0.9c-0.1,0.6,0.3,1.1,0.9,1.1c0.1,0,0.3,0,0.4,0v-2
		C63.8,241.9,63.8,241.9,63.7,241.9z"/>
	<path style="fill:#D1D1D1;" d="M26.7,243.7h6.8c0.5,0,1-0.4,1-1c0-0.6-0.4-1-1-1h-6.8c-0.6,0-1,0.4-1,1
		C25.7,243.3,26.2,243.7,26.7,243.7z"/>
	<path style="fill:#D1D1D1;" d="M-2.4,242.7c0-0.6-0.4-1-1-1h-0.9l-2,2h2.8C-2.9,243.7-2.4,243.3-2.4,242.7z"/>
	<path style="fill:#D1D1D1;" d="M70.3,245.2c0.4,0,0.8-0.3,0.9-0.6c0.3-0.5,0-1.1-0.5-1.3c-1.8-0.7-3.9-1.2-6.8-1.4v2
		c2.6,0.2,4.5,0.6,6,1.2C70.1,245.2,70.2,245.2,70.3,245.2z"/>
	<path style="fill:#D1D1D1;" d="M93.4,257.4c0.6,0,1-0.4,1-1c0-1.3,0.1-2.4,0.2-3.4c0-0.5-0.4-1-0.9-1.1c-0.5,0-1,0.4-1.1,0.9
		c-0.1,1.1-0.2,2.3-0.2,3.6C92.4,257,92.8,257.4,93.4,257.4z"/>
	<path style="fill:#D1D1D1;" d="M106.7,244.1c0.5-0.1,1-0.6,0.9-1.1s-0.5-1-1.1-0.9c-0.9,0.1-1.8,0.2-2.6,0.4v2
		C104.7,244.3,105.7,244.2,106.7,244.1z"/>
	<path style="fill:#D1D1D1;" d="M172.7,242.7c0,0.6,0.4,1,1,1h3.9l-2-2h-1.9C173,241.7,172.7,242.1,172.7,242.7z"/>
	<path style="fill:#D1D1D1;" d="M155.2,243.7h6.8c0.6,0,1-0.4,1-1c0-0.6-0.4-1-1-1h-6.8c-0.6,0-1,0.4-1,1
		C154.2,243.3,154.5,243.7,155.2,243.7z"/>
	<path style="fill:#D1D1D1;" d="M143.5,241.7h-6.8c-0.6,0-1,0.4-1,1c0,0.6,0.4,1,1,1h6.8c0.5,0,1-0.4,1-1
		C144.5,242.1,144.2,241.7,143.5,241.7z"/>
	<path style="fill:#D1D1D1;" d="M125,241.7h-6.8c-0.6,0-1,0.4-1,1c0,0.6,0.4,1,1,1h6.8c0.6,0,1-0.4,1-1
		C126,242.1,125.7,241.7,125,241.7z"/>
	<path style="fill:#D1D1D1;" d="M99.1,244.9c0.1,0.4,0.5,0.6,0.9,0.6c0.1,0,0.3-0.1,0.4-0.1c1.1-0.4,2.2-0.7,3.6-0.9v-2
		c-1.7,0.3-3.1,0.7-4.3,1.1C99.1,243.8,98.8,244.4,99.1,244.9z"/>
	<path style="fill:#FF7676;" d="M82.9,275.5v2.9c0-0.1,0.1-0.9,0.4-2C83.2,276.2,83.2,275.8,82.9,275.5z"/>
	<path style="fill:#FF7676;" d="M84.9,273.3v-8.6h-2v7.2c0.6,0.7,1.1,1.5,1.5,2.1C84.7,273.8,84.7,273.6,84.9,273.3z"/>
	<path style="fill:#FF7676;" d="M83.9,262.7c0.6,0,1,0.4,1,1v1h4.5l-1.7-3h-6.5l-1.7,3H83v-1C82.9,263.1,83.3,262.7,83.9,262.7z"/>
	<polygon style="fill:#FF7676;" points="84.4,256.1 81.2,261.7 87.7,261.7 	"/>
	<path style="fill:#FF7676;" d="M84.9,263.7c0-0.6-0.4-1-1-1s-1,0.4-1,1v1h2V263.7z"/>
	<path style="fill:#FF7676;" d="M83.9,315.7c0.2,0,0.4-0.1,0.5-0.1l0,0C84.3,315.6,84.2,315.7,83.9,315.7z"/>
	<path style="fill:#FF7676;" d="M93.7,267c0.1,0.2,0.2,0.4,0.2,0.7v1.4c0.7-0.3,1.4-0.5,2.2-0.7l-0.2-2
		C95.2,266.6,94.4,266.8,93.7,267z"/>
	<path style="fill:#FF7676;" d="M84.9,273.3v1.6c0.3,0.5,0.5,1.1,0.6,1.5c0.8-1.8,2.5-4.5,6.4-6.5v-2.2
		C88.4,269.3,86.2,271.4,84.9,273.3z"/>
	<path style="fill:#FF7676;" d="M93.7,267c-0.6,0.2-1.2,0.4-1.8,0.7v2.2c0.6-0.3,1.3-0.6,2-0.9v-1.3C93.9,267.4,93.8,267.2,93.7,267
		z"/>
	<path style="fill:#FF7676;" d="M84.9,274.9v-1.6c-0.2,0.2-0.3,0.5-0.5,0.7C84.7,274.4,84.8,274.7,84.9,274.9z"/>
	<path style="fill:#FF7676;" d="M83.9,314.7v-36.3c0-0.2-0.1-0.9-0.6-2c-0.4,1.1-0.4,1.8-0.4,2v36.3c0,0.6,0.4,1,1,1
		c0.2,0,0.4-0.1,0.5-0.1C84.2,315.4,83.9,315.1,83.9,314.7z"/>
	<polygon style="fill:#FF7676;" points="103.9,265.9 103.9,266.7 104.7,266.2 	"/>
	<path style="fill:#FF7676;" d="M95.4,262.2l0.5,4.2c0.3-0.1,0.5-0.1,0.8-0.2c0.5-0.1,1.1,0.2,1.2,0.8c0.1,0.5-0.2,1.1-0.8,1.2
		c-0.3,0.1-0.6,0.1-1,0.2l0.5,3.8l7.3-5.5v-0.8L95.4,262.2z"/>
	<path style="fill:#FF7676;" d="M97.9,267c-0.1-0.6-0.7-0.9-1.2-0.8c-0.3,0.1-0.5,0.1-0.8,0.2l0.2,2c0.3-0.1,0.6-0.2,1-0.2
		C97.7,268.1,98.1,267.5,97.9,267z"/>
	<path style="fill:#FF7676;" d="M84.9,314.7L84.9,314.7c0,0.4-0.2,0.7-0.5,0.9c0.1,0.1,0.3,0.1,0.5,0.1c0.6,0,1-0.4,1-1.1v-36.4
		c0-0.1-0.1-0.8-0.4-1.8c-0.4,1.1-0.6,1.9-0.6,2.1V314.7z"/>
	<path style="fill:#FF7676;" d="M76.9,267.6C76.9,267.6,76.9,267.7,76.9,267.6v2.2c3.3,1.7,5.1,3.9,6,5.6v-3.6
		C81.7,270.4,79.7,268.8,76.9,267.6z"/>
	<path style="fill:#FF7676;" d="M75.2,267c-0.7-0.2-1.4-0.4-2.1-0.6l-0.2,2c0.7,0.2,1.4,0.4,2,0.6v-1.3
		C74.9,267.4,75.1,267.1,75.2,267z"/>
	<path style="fill:#FF7676;" d="M76.9,267.6c-0.5-0.2-1.1-0.5-1.7-0.7c-0.2,0.2-0.3,0.5-0.3,0.8v1.3c0.7,0.3,1.4,0.5,2,0.9V267.6
		C76.9,267.7,76.9,267.6,76.9,267.6z"/>
	<path style="fill:#FF7676;" d="M84.4,274.1c-0.4-0.7-0.9-1.4-1.5-2.1v3.6c0.2,0.3,0.3,0.7,0.4,1C83.7,275.8,83.9,274.9,84.4,274.1z
		"/>
	<path style="fill:#FF7676;" d="M84.9,314.8L84.9,314.8c0,0.3-0.2,0.6-0.5,0.8l0,0C84.7,315.4,84.9,315.1,84.9,314.8z"/>
	<path style="fill:#FF7676;" d="M84.9,278.5c0-0.2,0.2-1,0.6-2.1c-0.1-0.4-0.3-0.9-0.6-1.5V278.5z"/>
	<path style="fill:#FF7676;" d="M83.3,276.4c0.4,1,0.5,1.8,0.6,2v36.3c0,0.4,0.2,0.7,0.5,0.9c0.3-0.2,0.5-0.5,0.5-0.9v-36.2v-3.6
		c-0.1-0.3-0.3-0.6-0.5-0.9C83.9,274.9,83.7,275.8,83.3,276.4z"/>
	<path style="fill:#FF7676;" d="M70.9,266.9c0.1-0.5,0.6-0.9,1.2-0.8c0.3,0.1,0.7,0.2,1,0.2l0.5-4.1l-9.2,4l8,6l0.5-3.8
		c-0.4-0.1-0.8-0.2-1.2-0.3C71.2,268,70.8,267.5,70.9,266.9z"/>
	<path style="fill:#FF7676;" d="M72.2,266.1c-0.6-0.1-1.1,0.3-1.2,0.8c-0.1,0.6,0.3,1.1,0.8,1.2c0.4,0.1,0.8,0.2,1.2,0.3l0.2-2
		C72.8,266.3,72.4,266.2,72.2,266.1z"/>
	<path style="fill:#FCFCFC;" d="M7.2,230.5l2.8-2.8H9.6l-3,3H7C7.2,230.6,7.2,230.6,7.2,230.5z"/>
	<polygon style="fill:#FCFCFC;" points="63.9,230.7 63.9,227.7 46.8,227.7 43.8,230.7 	"/>
	<path style="fill:#FCFCFC;" d="M41.2,230.7c0-0.1,0.1-0.1,0.1-0.2l2.8-2.8H12.8l-3,3H41.2z"/>
	<polygon style="fill:#FCFCFC;" points="10.8,232.7 11.8,233.7 43.1,233.7 42.1,232.7 	"/>
	<polygon style="fill:#FCFCFC;" points="8.1,232.7 4.7,232.7 3.7,233.7 9.1,233.7 	"/>
	<polygon style="fill:#FCFCFC;" points="44.8,232.7 45.8,233.7 63.9,233.7 63.9,232.7 	"/>
	<rect x="63.9" y="227.7" style="fill:#FCFCFC;" width="3.3" height="3"/>
	<rect x="63.9" y="232.7" style="fill:#FCFCFC;" width="3.3" height="1"/>
	<path style="fill:#A1ABD0;" d="M111.9,232.7h34.2l-0.8-0.8c-0.3-0.3-0.4-0.8-0.1-1.2h-34.3l-0.5,0.5L111.9,232.7z"/>
	<polygon style="fill:#A1ABD0;" points="147.4,231.2 148.9,232.7 166.5,232.7 164.5,230.7 147.9,230.7 	"/>
	<path style="fill:#A1ABD0;" d="M109,232.7l-0.8-0.8c-0.3-0.3-0.4-0.8-0.1-1.2h-4.2v2H109z"/>
	<polygon style="fill:#A1ABD0;" points="73.3,231.2 74.8,232.7 103.9,232.7 103.9,230.7 73.8,230.7 	"/>
	<path style="fill:#A1ABD0;" d="M71.2,230.7h-3.9v2h4.8l-0.8-0.8C70.9,231.6,70.8,231.1,71.2,230.7z"/>
	<polygon style="fill:#A1ABD0;" points="43.8,230.7 43.3,231.2 44.8,232.7 63.9,232.7 63.9,230.7 	"/>
	<path style="fill:#A1ABD0;" d="M41.2,230.7H9.9l-0.5,0.5l1.5,1.5h31.2l-0.8-0.8C40.9,231.6,40.8,231.1,41.2,230.7z"/>
	<path style="fill:#A1ABD0;" d="M7.2,231.9c-0.3-0.3-0.4-0.8-0.1-1.2H6.7l-2,2h3.4L7.2,231.9z"/>
	<rect x="63.9" y="230.7" style="fill:#A1ABD0;" width="3.3" height="2"/>
	<path style="fill:#A1ABD0;" d="M45.4,236.1c0.2,0.2,0.4,0.3,0.7,0.3c0.2,0,0.5-0.1,0.7-0.3c0.4-0.4,0.4-1,0-1.4l-1-1h-2.8
		L45.4,236.1z"/>
	<polygon style="fill:#A1ABD0;" points="42.1,232.7 43.1,233.7 45.8,233.7 44.8,232.7 	"/>
	<path style="fill:#A1ABD0;" d="M42.7,231.9c-0.2,0.2-0.4,0.3-0.7,0.3s-0.5-0.1-0.7-0.3l0.8,0.8h2.8l-1.5-1.5L42.7,231.9z"/>
	<path style="fill:#A1ABD0;" d="M46.8,226.3c-0.4-0.4-1-0.4-1.4,0l-1.4,1.4h2.8C47.2,227.3,47.2,226.7,46.8,226.3z"/>
	<path style="fill:#A1ABD0;" d="M42.7,230.5l0.2,0.2h1l3-3h-2.8l-2.8,2.8C41.7,230.1,42.2,230.1,42.7,230.5z"/>
	<polygon style="fill:#A1ABD0;" points="43.8,230.7 42.8,230.7 43.3,231.2 	"/>
	<path style="fill:#A1ABD0;" d="M42.7,230.5c-0.4-0.4-1-0.4-1.4,0c-0.1,0.1-0.1,0.1-0.1,0.2h1.7L42.7,230.5z"/>
	<path style="fill:#A1ABD0;" d="M41.2,231.9c0.2,0.2,0.4,0.3,0.7,0.3s0.5-0.1,0.7-0.3l0.7-0.7l-0.5-0.5h-1.7
		C40.8,231.1,40.9,231.6,41.2,231.9z"/>
	<path style="fill:#A1ABD0;" d="M11.4,236.1c0.2,0.2,0.4,0.3,0.7,0.3c0.2,0,0.5-0.1,0.7-0.3c0.4-0.4,0.4-1,0-1.4l-1-1H9.1
		L11.4,236.1z"/>
	<polygon style="fill:#A1ABD0;" points="8.1,232.7 9.1,233.7 11.8,233.7 10.8,232.7 	"/>
	<path style="fill:#A1ABD0;" d="M9.3,231.2l-0.7,0.7c-0.2,0.2-0.4,0.3-0.7,0.3s-0.5-0.1-0.7-0.3l0.8,0.8h2.8L9.3,231.2z"/>
	<path style="fill:#A1ABD0;" d="M12.8,226.3c-0.4-0.4-1-0.4-1.4,0l-1.4,1.4h2.8C13.2,227.3,13.2,226.7,12.8,226.3z"/>
	<path style="fill:#A1ABD0;" d="M8.7,230.5l0.2,0.2h1l3-3h-2.8l-2.8,2.8C7.7,230.1,8.2,230.1,8.7,230.5z"/>
	<polygon style="fill:#A1ABD0;" points="8.8,230.7 9.3,231.2 9.8,230.7 	"/>
	<path style="fill:#A1ABD0;" d="M8.7,230.5c-0.4-0.4-1-0.4-1.4,0c-0.1,0.1-0.1,0.1-0.1,0.2h1.7L8.7,230.5z"/>
	<path style="fill:#A1ABD0;" d="M8.7,231.9l0.7-0.7l-0.5-0.5H7.2c-0.2,0.4-0.2,0.9,0.1,1.2c0.2,0.2,0.4,0.3,0.7,0.3
		S8.4,232.1,8.7,231.9z"/>
	<path style="fill:#A1ABD0;" d="M75.4,236.1c0.2,0.2,0.4,0.3,0.7,0.3c0.2,0,0.5-0.1,0.7-0.3c0.4-0.4,0.4-1,0-1.4l-2-2h-2.8
		L75.4,236.1z"/>
	<path style="fill:#A1ABD0;" d="M72.7,231.9c-0.2,0.2-0.4,0.3-0.7,0.3s-0.5-0.1-0.7-0.3l0.8,0.8h2.8l-1.5-1.5L72.7,231.9z"/>
	<path style="fill:#A1ABD0;" d="M72.7,230.5l0.2,0.2h1l3-3c0.4-0.4,0.4-1,0-1.4c-0.4-0.4-1-0.4-1.4,0l-4.2,4.2
		C71.7,230.1,72.2,230.1,72.7,230.5z"/>
	<polygon style="fill:#A1ABD0;" points="73.3,231.2 73.8,230.7 72.8,230.7 	"/>
	<path style="fill:#A1ABD0;" d="M72.7,230.5c-0.4-0.4-1-0.4-1.4,0c-0.1,0.1-0.1,0.1-0.1,0.2h1.7L72.7,230.5z"/>
	<path style="fill:#A1ABD0;" d="M71.2,231.9c0.2,0.2,0.4,0.3,0.7,0.3s0.5-0.1,0.7-0.3l0.7-0.7l-0.5-0.5h-1.7
		C70.8,231.1,70.9,231.6,71.2,231.9z"/>
	<path style="fill:#A1ABD0;" d="M112.4,236.1c0.2,0.2,0.4,0.3,0.7,0.3c0.2,0,0.5-0.1,0.7-0.3c0.4-0.4,0.4-1,0-1.4l-2-2h-2.8
		L112.4,236.1z"/>
	<path style="fill:#A1ABD0;" d="M109.7,231.9c-0.2,0.2-0.4,0.3-0.7,0.3s-0.5-0.1-0.7-0.3l0.8,0.8h2.8l-1.5-1.5L109.7,231.9z"/>
	<path style="fill:#A1ABD0;" d="M109.7,230.5l0.2,0.2h1l3-3c0.4-0.4,0.4-1,0-1.4c-0.4-0.4-1-0.4-1.4,0l-4.2,4.2
		C108.7,230.1,109.2,230.1,109.7,230.5z"/>
	<polygon style="fill:#A1ABD0;" points="110.4,231.2 110.9,230.7 109.9,230.7 	"/>
	<path style="fill:#A1ABD0;" d="M109.7,230.5c-0.4-0.4-1-0.4-1.4,0c-0.1,0.1-0.1,0.1-0.1,0.2h1.7L109.7,230.5z"/>
	<path style="fill:#A1ABD0;" d="M108.2,231.9c0.2,0.2,0.4,0.3,0.7,0.3s0.5-0.1,0.7-0.3l0.7-0.7l-0.5-0.5h-1.7
		C107.9,231.1,107.9,231.6,108.2,231.9z"/>
	<path style="fill:#A1ABD0;" d="M149.4,236.1c0.2,0.2,0.4,0.3,0.7,0.3c0.2,0,0.5-0.1,0.7-0.3c0.4-0.4,0.4-1,0-1.4l-2-2h-2.8
		L149.4,236.1z"/>
	<path style="fill:#A1ABD0;" d="M145.9,232.2c-0.3,0-0.5-0.1-0.7-0.3l0.8,0.8h2.8l-1.5-1.5l-0.7,0.7
		C146.4,232.1,146.2,232.2,145.9,232.2z"/>
	<path style="fill:#A1ABD0;" d="M146.7,230.5l0.2,0.2h1l3-3c0.4-0.4,0.4-1,0-1.4c-0.4-0.4-1-0.4-1.4,0l-4.2,4.2
		C145.7,230.1,146.2,230.1,146.7,230.5z"/>
	<polygon style="fill:#A1ABD0;" points="147.4,231.2 147.9,230.7 146.9,230.7 	"/>
	<path style="fill:#A1ABD0;" d="M146.7,230.5c-0.4-0.4-1-0.4-1.4,0c-0.1,0.1-0.1,0.1-0.1,0.2h1.7L146.7,230.5z"/>
	<path style="fill:#A1ABD0;" d="M145.2,231.9c0.2,0.2,0.4,0.3,0.7,0.3s0.5-0.1,0.7-0.3l0.7-0.7l-0.5-0.5h-1.7
		C144.9,231.1,144.9,231.6,145.2,231.9z"/>
	<path style="fill:#FCFCFC;" d="M-16.2,381.1l1,1.9l30.8-16.3l1.5-4.7c0.2-0.5,0.7-0.8,1.3-0.7c0.5,0.2,0.8,0.7,0.7,1.3l-0.8,2.7
		l2.8-1.5l-0.7-4.5l-37.3,20l0.4,0.8C-16.3,380.3-16.2,380.7-16.2,381.1z"/>
	<polygon style="fill:#FCFCFC;" points="29.3,361.8 29.6,362.9 26.2,363.5 26.1,363.5 29.7,363.2 29.7,364.3 63.9,346.1 63.9,343.5 
			"/>
	<path style="fill:#FCFCFC;" d="M15.7,369l-30,15.9l1.2,2.3l32-17.1l-3-1C15.8,369.1,15.8,369,15.7,369z"/>
	<polygon style="fill:#FCFCFC;" points="21.4,368.7 21.2,366.1 18.2,367.6 	"/>
	<polygon style="fill:#FCFCFC;" points="-21.9,388.9 -34.7,395.6 -32.7,397.6 -20.8,391.3 	"/>
	<polygon style="fill:#FCFCFC;" points="29.1,359.6 63.9,341.1 63.9,336 28.2,355.1 	"/>
	<polygon style="fill:#FCFCFC;" points="-24.8,383.4 -39.2,391.1 -36.2,394.1 -22.8,387.1 	"/>
	<polygon style="fill:#FCFCFC;" points="67.9,339.1 65.8,335 63.9,336 63.9,341.1 	"/>
	<polygon style="fill:#FCFCFC;" points="63.9,343.5 63.9,346.1 67.9,343.9 67.9,341.4 	"/>
	<path style="fill:#FCFCFC;" d="M210.4,383.1l-4.4,0.6l-0.1,0.2l-0.6-0.1l-20.8,2.7l-2.1,2.8l26.1-3.2c0-0.2,0.1-0.3,0.2-0.5
		L210.4,383.1z"/>
	<path style="fill:#FCFCFC;" d="M213.4,380.4c0.1,0,0.2,0.1,0.2,0.1c0.1,0,0.1,0.1,0.1,0.2l7.9-1l4.8-4.8l-17.5,2.2L213.4,380.4z"/>
	<path style="fill:#FCFCFC;" d="M122.9,392.3l-2.3-1.8c-0.4-0.3-0.5-1-0.2-1.4s1-0.5,1.4-0.2l4,3l12.1-1.6v-4.5l-34,4.2v4.6
		L122.9,392.3z"/>
	<path style="fill:#FCFCFC;" d="M126.9,393.8C126.9,393.8,126.9,393.9,126.9,393.8l-1.9,2.5l13-1.6v-2.3L126.9,393.8z"/>
	<path style="fill:#FCFCFC;" d="M179.9,380.9l4.6,3.5c0,0,0,0,0.1,0l9.6-1.2h-2.2v-4l-12.6,1.6C179.4,380.7,179.7,380.8,179.9,380.9
		z"/>
	<polygon style="fill:#FCFCFC;" points="103.9,396.8 103.9,399 122.2,396.7 124.2,394.2 	"/>
	<polygon style="fill:#FCFCFC;" points="210.9,385.6 216.4,385 219.4,382 213.2,382.8 	"/>
	<path style="fill:#FCFCFC;" d="M181.7,384.8l-3-2.3c-0.4-0.3-0.5-1-0.2-1.4c0.1-0.2,0.3-0.3,0.6-0.3l-21.1,2.6v4.4L181.7,384.8z"/>
	<path style="fill:#FCFCFC;" d="M181.7,386.8l-23.7,3v2.4l21.6-2.7c0,0,0,0,0-0.1L181.7,386.8z"/>
	<polygon style="fill:#FCFCFC;" points="210.9,381 208,378.8 206.9,381.6 	"/>
	<polygon style="fill:#FCFCFC;" points="103.9,390.1 102.7,390.3 103.2,394.8 103.9,394.7 	"/>
	<polygon style="fill:#FCFCFC;" points="103.4,396.8 103.7,399 103.9,399 103.9,396.8 	"/>
	<polygon style="fill:#FCFCFC;" points="-42.3,334.7 -42.4,343.5 -45.1,343.5 -24.8,383.4 -17.1,379.3 -59.2,296.6 -65.7,303 
		-49.6,334.7 	"/>
	<path style="fill:#FCFCFC;" d="M-12.3,388.7c-0.1,0.5-0.5,0.7-1,0.7c-0.1,0-0.2,0-0.3,0l-2.2-0.7l-4.8,2.6l19,37.2l19.8,19.8
		l-30.4-59.7C-12.3,388.6-12.3,388.7-12.3,388.7z"/>
	<path style="fill:#FCFCFC;" d="M-13.1,387.4l0.1,0.1l-0.2-0.3l-0.2,0.1L-13.1,387.4z"/>
	<path style="fill:#FCFCFC;" d="M-17.1,384l1.8-1l-1-1.9c0,0.1,0,0.1,0,0.2L-17.1,384z"/>
	<polygon style="fill:#FCFCFC;" points="-16.8,386.2 -13.3,387.3 -13.1,387.2 -14.3,384.9 	"/>
	<path style="fill:#FCFCFC;" d="M-19.3,387.7c-0.1,0-0.1-0.1-0.2-0.1l-2.5,1.3l1.2,2.4l4.8-2.6l-3.1-1
		C-19.2,387.7-19.2,387.7-19.3,387.7z"/>
	<path style="fill:#FCFCFC;" d="M-18.2,380.7c0.2-0.5,0.7-0.8,1.3-0.7c0.1,0,0.1,0.1,0.2,0.1l-0.4-0.8l-7.6,4.1l1.9,3.7l3.2-1.7
		L-18.2,380.7z"/>
	<path style="fill:#FCFCFC;" d="M21.6,368.7l0.7,0.2c0.5,0.2,0.8,0.7,0.7,1.3c-0.2,0.4-0.6,0.7-1,0.7c-0.1,0-0.2,0-0.2,0l8.5,89.5
		l9.6,9.6l-10-105.7L21.6,368.7z"/>
	<polygon style="fill:#FCFCFC;" points="26.1,363.5 21.2,366.1 21.4,368.7 21.6,368.7 29.7,364.3 29.7,363.2 	"/>
	<path style="fill:#FCFCFC;" d="M-89.3,334.5c0,1.1,0.2,2.3,0.5,3.4v-3.4H-89.3z"/>
	<path style="fill:#FCFCFC;" d="M-86.1,334.6h-2.8v3.4c0.5,1.9,1.3,3.7,2.4,5.4h0.4V334.6z"/>
	<polygon style="fill:#FCFCFC;" points="-86.1,334.6 -86.1,343.4 -45.1,343.5 -49.6,334.7 	"/>
	<polygon style="fill:#FCFCFC;" points="-42.3,334.7 -49.6,334.7 -45.1,343.5 -42.4,343.5 	"/>
	<polygon style="fill:#FCFCFC;" points="13.3,261.7 4.7,261.7 20.2,359.4 28.2,355.1 	"/>
	<path style="fill:#FCFCFC;" d="M13.3,261.7l-2.9-18H8.2c-0.6,0-1-0.4-1-1c0-0.6,0.4-1,1-1h1.9l-1.3-7.9l-6.3,1.1l-1.9,1.9l4,25h8.7
		V261.7z"/>
	<path style="fill:#FCFCFC;" d="M8.2,241.7c-0.6,0-1,0.4-1,1c0,0.6,0.4,1,1,1h2.2l-0.3-2H8.2z"/>
	<polygon style="fill:#FCFCFC;" points="29.1,359.6 28.2,355.1 20.2,359.4 20.9,363.9 	"/>
	<polygon style="fill:#FCFCFC;" points="29.6,362.9 29.3,361.8 26.2,363.5 	"/>
	<path style="fill:#E5E5E5;" d="M39.2,386h7.5c1.3,0,2.3-1,2.3-2.3v-13.5c0-1.3-1-2.3-2.3-2.3h-9.6c-1.5,0-2.6,1.3-2.3,2.6l2.1,13.5
		C37.1,385.2,38.1,386,39.2,386z"/>
	<path style="fill:#E5E5E5;" d="M51.4,386h4.7c0.5,0,1-0.5,1-1v-16.1c0.1-0.5-0.4-1-1-1h-4.7c-0.5,0-1,0.5-1,1V385
		C50.4,385.5,50.9,386,51.4,386z"/>
	<path style="fill:#EAEAEB;" d="M130.2,436.1h-16.1c-0.5,0-1,0.5-1,1v4.7c0,0.5,0.5,1,1,1h16.1c0.5,0,1-0.5,1-1v-4.7
		C131.4,436.6,130.9,436.1,130.2,436.1z"/>
	<path style="fill:#EAEAEB;" d="M130.2,426.8h-16.1c-0.5,0-1,0.5-1,1v4.7c0,0.5,0.5,1,1,1h16.1c0.5,0,1-0.5,1-1v-4.7
		C131.4,427.3,130.9,426.8,130.2,426.8z"/>
	<path style="fill:#E5E5E5;" d="M56.6,405.4H41.7c-1,0-1.8,0.6-1.8,1.2l3,20.1c4.8,0.4,1.7,0.8,2.6,0.8h11c1,0,1.8-0.6,1.8-1.2
		v-19.7C58.3,405.9,57.4,405.4,56.6,405.4z"/>
	<path style="fill:#EAEAEB;" d="M130.2,456.7h-16.1c-0.5,0-1,0.5-1,1v8.2c0,0.5,0.5,1,1,1h16.1c0.5,0,1-0.5,1-1v-8.2
		C131.4,457.2,130.9,456.7,130.2,456.7z"/>
	<path style="fill:#EAEAEB;" d="M130.2,445.1h-16.1c-0.5,0-1,0.5-1,1v8.2c0,0.5,0.5,1,1,1h16.1c0.5,0,1-0.5,1-1v-8.2
		C131.4,445.6,130.9,445.1,130.2,445.1z"/>
	<path style="fill:#EAEAEB;" d="M130.2,414.8h-16.1c-0.5,0-1,0.5-1,1v8.2c0,0.5,0.5,1,1,1h16.1c0.5,0,1-0.5,1-1v-8.2
		C131.4,415.3,130.9,414.8,130.2,414.8z"/>
	<path style="fill:#EAEAEB;" d="M130.2,402h-16.1c-0.5,0-1,0.5-1,1v8.2c0,0.5,0.5,1,1,1h16.1c0.5,0,1-0.5,1-1V403
		C131.4,402.5,130.9,402,130.2,402z"/>
	<path style="fill:#EAEAEB;" d="M196.7,393.9L196.7,393.9l-4.7,0.5c-0.5,0.1-0.9,0.6-0.9,1.1l1.5,13.3l6-6l-0.9-8
		C197.5,394.3,197.2,393.9,196.7,393.9z"/>
	<path style="fill:#EAEAEB;" d="M205.9,392.8L205.9,392.8l-4.7,0.5c-0.5,0.1-0.9,0.6-0.9,1.1l0.7,5.9l6-6l-0.1-0.7
		C206.9,393.2,206.4,392.8,205.9,392.8z"/>
	<path style="fill:#EAEAEB;" d="M176.2,396.3L176.2,396.3l-8.2,0.9c-0.5,0.1-0.9,0.6-0.9,1.1l1.9,16c0.1,0.5,0.5,0.9,1,0.9h0.1
		l8.2-0.9c0.5-0.1,0.9-0.6,0.9-1.1l-1.9-16C177.2,396.7,176.7,396.3,176.2,396.3z"/>
	<path style="fill:#EAEAEB;" d="M187.7,394.9L187.7,394.9l-8.3,0.9c-0.5,0.1-0.9,0.6-0.9,1.1l1.9,16c0.1,0.5,0.5,0.9,1,0.9h0.1
		l6.8-0.8l2.1-2.1l-1.8-15.2C188.7,395.3,188.2,394.9,187.7,394.9z"/>
	<path style="fill:#EAEAEB;" d="M130.4,365.9h-16.5c-0.4,0.1-0.8,0.5-0.8,0.9v12.9c0,0.5,0.4,0.8,0.8,0.8h0.1l16.5-2
		c0.4-0.1,0.7-0.4,0.7-0.8v-11C131.4,366.3,130.9,365.9,130.4,365.9z"/>
	<path style="fill:#EAEAEB;" d="M114.2,364.4h16.1c0.5,0,1-0.5,1-1v-4.7c0.1-0.5-0.4-1-1-1h-16.1c-0.5,0-1,0.5-1,1v4.7
		C113.2,363.9,113.7,364.4,114.2,364.4z"/>
	<path style="fill:#EAEAEB;" d="M114.2,331.8h16.1c0.5,0,1-0.5,1-1v-4.7c0.1-0.5-0.4-1-1-1h-16.1c-0.5,0-1,0.5-1,1v4.7
		C113.2,331.3,113.7,331.8,114.2,331.8z"/>
	<path style="fill:#EAEAEB;" d="M114.2,298.1h16.1c0.5,0,1-0.5,1-1v-4.7c0.1-0.6-0.4-1-1-1h-16.1c-0.5,0-1,0.5-1,1v4.7
		C113.2,297.6,113.7,298.1,114.2,298.1z"/>
	<path style="fill:#EAEAEB;" d="M114.2,289.1h16.1c0.5,0,1-0.5,1-1v-4.7c0.1-0.6-0.4-1-1-1h-16.1c-0.5,0-1,0.5-1,1v4.7
		C113.2,288.6,113.7,289.1,114.2,289.1z"/>
	<path style="fill:#EAEAEB;" d="M114.2,356.5h16.1c0.5,0,1-0.5,1-1v-8.2c0.1-0.5-0.4-1-1-1h-16.1c-0.5,0-1,0.4-1,1v8.2
		C113.2,356,113.7,356.5,114.2,356.5z"/>
	<path style="fill:#EAEAEB;" d="M114.2,344.3h16.1c0.5,0,1-0.5,1-1v-8.2c0.1-0.6-0.4-1-1-1h-16.1c-0.5,0-1,0.5-1,1v8.2
		C113.2,343.8,113.7,344.3,114.2,344.3z"/>
	<path style="fill:#EAEAEB;" d="M114.2,322.6h16.1c0.5,0,1-0.5,1-1v-8.2c0.1-0.5-0.4-1-1-1h-16.1c-0.5,0-1,0.5-1,1v8.2
		C113.2,322.1,113.7,322.6,114.2,322.6z"/>
	<path style="fill:#EAEAEB;" d="M114.2,279.8h16.1c0.5,0,1-0.5,1-1v-8.2c0.1-0.5-0.4-1-1-1h-16.1c-0.5,0-1,0.5-1,1v8.2
		C113.2,279.3,113.7,279.8,114.2,279.8z"/>
	<path style="fill:#EAEAEB;" d="M114.2,310.1h16.1c0.5,0,1-0.5,1-1v-8.2c0.1-0.5-0.4-1-1-1h-16.1c-0.5,0-1,0.5-1,1v8.2
		C113.2,309.6,113.7,310.1,114.2,310.1z"/>
	<path style="fill:#EAEAEB;" d="M165.9,375.5L165.9,375.5l16.6-2c0.4-0.1,0.7-0.4,0.7-0.8v-11c0.1-0.4-0.4-0.8-0.8-0.8h-16.5
		c-0.4,0.1-0.8,0.5-0.8,0.9v12.9C165.2,375.2,165.5,375.5,165.9,375.5z"/>
	<path style="fill:#EAEAEB;" d="M166.2,359.4h16.1c0.5,0,1-0.5,1-1v-4.7c0.1-0.5-0.4-1-1-1h-16.1c-0.5,0-1,0.5-1,1v4.7
		C165.2,358.9,165.7,359.4,166.2,359.4z"/>
	<path style="fill:#EAEAEB;" d="M166.2,326.8h16.1c0.5,0,1-0.5,1-1v-4.7c0.1-0.5-0.4-1-1-1h-16.1c-0.5,0-1,0.5-1,1v4.7
		C165.2,326.3,165.7,326.8,166.2,326.8z"/>
	<path style="fill:#EAEAEB;" d="M166.2,293.1h16.1c0.5,0,1-0.5,1-1v-4.7c0.1-0.6-0.4-1-1-1h-16.1c-0.5,0-1,0.5-1,1v4.7
		C165.2,292.6,165.7,293.1,166.2,293.1z"/>
	<path style="fill:#EAEAEB;" d="M166.2,284.1h16.1c0.5,0,1-0.5,1-1v-4.7c0.1-0.6-0.4-1-1-1h-16.1c-0.5,0-1,0.5-1,1v4.7
		C165.2,283.6,165.7,284.1,166.2,284.1z"/>
	<path style="fill:#EAEAEB;" d="M166.2,351.5h16.1c0.5,0,1-0.5,1-1v-8.2c0.1-0.5-0.4-1-1-1h-16.1c-0.5,0-1,0.4-1,1v8.2
		C165.2,351,165.7,351.5,166.2,351.5z"/>
	<path style="fill:#EAEAEB;" d="M166.2,339.3h16.1c0.5,0,1-0.5,1-1v-8.2c0.1-0.6-0.4-1-1-1h-16.1c-0.5,0-1,0.5-1,1v8.2
		C165.2,338.8,165.7,339.3,166.2,339.3z"/>
	<path style="fill:#EAEAEB;" d="M166.2,317.6h16.1c0.5,0,1-0.5,1-1v-8.2c0.1-0.5-0.4-1-1-1h-16.1c-0.5,0-1,0.5-1,1v8.2
		C165.2,317.1,165.7,317.6,166.2,317.6z"/>
	<path style="fill:#EAEAEB;" d="M166.2,305.1h16.1c0.5,0,1-0.5,1-1v-8.2c0.1-0.5-0.4-1-1-1h-16.1c-0.5,0-1,0.5-1,1v8.2
		C165.2,304.6,165.7,305.1,166.2,305.1z"/>
	<path style="fill:#E5E5E5;" d="M-15.6,368.9c0.1,0,0.3-0.1,0.5-0.1l29.4-14.6c0.5-0.2,0.7-0.7,0.6-1.2l-4.1-22
		c0-0.6-0.5-0.9-0.9-0.9c-0.1,0-0.3,0.1-0.5,0.1l-34.9,17.2c-0.5,0.3-0.7,0.9-0.5,1.5l9.5,19.4C-16.3,368.7-15.8,368.9-15.6,368.9z"
		/>
	<path style="fill:#E5E5E5;" d="M-20.6,338.2l-2.1-4.2c-0.2-0.3-0.6-0.5-0.9-0.5c-0.1,0-0.3,0.1-0.5,0.1l-6.7,3.5
		c-0.5,0.3-0.7,0.9-0.5,1.3l2.1,4.2c0.2,0.3,0.5,0.5,0.9,0.5c0.1,0,0.3-0.1,0.5-0.1l6.7-3.5C-20.6,339.2-20.3,338.6-20.6,338.2z"/>
	<path style="fill:#E5E5E5;" d="M-35.2,305.8l-2.1-4.2c-0.2-0.3-0.5-0.5-0.9-0.5c-0.1,0-0.3,0.1-0.5,0.1l-6.7,3.5
		c-0.5,0.3-0.7,0.9-0.5,1.3l2.1,4.2c0.2,0.3,0.5,0.5,0.9,0.5c0.1,0,0.3-0.1,0.5-0.1l6.7-3.5C-35.2,306.8-34.9,306.2-35.2,305.8z"/>
	<path style="fill:#E5E5E5;" d="M-17.1,326.8l-3.7-7.5c-0.2-0.4-0.5-0.6-0.9-0.6c-0.1,0-0.3,0.1-0.5,0.1l-14.1,7.3
		c-0.5,0.3-0.7,0.9-0.5,1.3l3.7,7.5c0.2,0.3,0.5,0.5,0.9,0.5c0.1,0,0.3-0.1,0.5-0.1l14.1-7.2C-17.1,327.8-16.8,327.2-17.1,326.8z"/>
	<path style="fill:#E5E5E5;" d="M-22.6,314.8l-3.7-7.5c-0.2-0.4-0.5-0.6-0.9-0.6c-0.1,0-0.3,0.1-0.5,0.1l-14.1,7.3
		c-0.5,0.3-0.7,0.9-0.5,1.3l3.7,7.5c0.2,0.3,0.5,0.5,0.9,0.5c0.1,0,0.3-0.1,0.5-0.1l14.1-7.2C-22.6,315.8-22.3,315.2-22.6,314.8z"/>
	<path style="fill:#E5E5E5;" d="M-4.2,294.2h0.2l7.4-1.3c0.5-0.1,0.9-0.6,0.8-1.2L3.4,287c-0.2-0.6-0.6-0.9-1-0.9H2.2l-7.4,1.3
		c-0.5,0.1-0.9,0.6-0.8,1.2l0.8,4.7C-5.1,293.8-4.7,294.2-4.2,294.2z"/>
	<path style="fill:#E5E5E5;" d="M-10.3,307.8h0.2L5.4,305c0.5-0.1,0.9-0.6,0.8-1.2l-1.4-8.3c0-0.6-0.4-0.9-1-0.9H3.6l-15.5,2.8
		c-0.5,0.1-0.9,0.6-0.8,1.2l1.4,8.3C-11.3,307.4-10.8,307.8-10.3,307.8z"/>
	<path style="fill:#E5E5E5;" d="M5.7,306.7l-15.5,2.8c-0.5,0.1-0.9,0.6-0.8,1.2l1.4,8.3c0.1,0.5,0.5,0.9,1,0.9H-8l15.5-2.8
		c0.5-0.1,0.9-0.6,0.8-1.2l-1.4-8.3c-0.1-0.6-0.5-0.9-1-0.9H5.7z"/>
	<path style="fill:#E5E5E5;" d="M-7.7,323.3l0.8,4.7c0.1,0.5,0.5,0.9,1,0.9h0.2l15.5-2.8c0.5-0.1,0.9-0.6,0.8-1.2l-0.8-4.7
		c-0.1-0.5-0.5-0.9-1-0.9H8.6l-15.5,2.8C-7.3,322.2-7.8,322.7-7.7,323.3z"/>
	<path style="fill:#E5E5E5;" d="M55.3,402.7c1,0,1.7-0.8,1.7-1.7v-9.6c0.2-1.1-0.6-1.9-1.6-1.9H38.8c-1.1,0-1.9,1-1.7,2.1l1.7,9.6
		c0.1,0.9,0.9,1.5,1.7,1.5H55.3z"/>
	<path style="fill:#E5E5E5;" d="M17.6,375.7c-0.2,0-0.3,0.1-0.5,0.1l-23.8,13.5c-0.5,0.3-0.7,0.9-0.4,1.5l30.5,56.6
		c0.2,0.4,0.5,0.5,0.9,0.5c0.6,0,1.1-0.5,1.1-1.2l-6.6-70.1C18.6,376.1,18.2,375.7,17.6,375.7z"/>
	<polygon style="fill:#FCFCFC;" points="191.9,379.2 197.4,378.5 200.4,371.4 199.7,265.8 195.5,261.7 191,261.7 	"/>
	<polygon style="fill:#FCFCFC;" points="195.5,261.7 190.9,257.1 191,261.7 	"/>
	<polygon style="fill:#FCFCFC;" points="194,383.2 198.4,382.6 195.7,382.2 197.4,378.5 191.9,379.2 191.9,383.2 	"/>
	<path style="fill:#FCFCFC;" d="M200.5,378.1l6.9-0.9c0,0,0-0.1,0.1-0.1c0.3-0.4,1-0.5,1.4-0.2l30.4-71.6l-7-7l-31.8,73L200.5,378.1
		z"/>
	<polygon style="fill:#FCFCFC;" points="205.9,383.9 205.9,383.7 205.2,383.8 	"/>
	<path style="fill:#FCFCFC;" d="M206.9,381.6l1.2-2.8l-0.4-0.3c-0.4-0.3-0.5-0.9-0.3-1.3l-6.9,0.9v4.3L206.9,381.6z"/>
	<polygon style="fill:#FCFCFC;" points="200.4,371.4 197.4,378.5 200.5,378.1 	"/>
	<polygon style="fill:#FCFCFC;" points="198.4,382.6 200.5,382.4 200.5,378.1 197.4,378.5 195.7,382.2 	"/>
	<path style="fill:#E5E5E5;" d="M205.9,274l0.7,64.3c0,0.4,0.2,0.7,0.6,0.9c0.5,0.3,1.2,0.1,1.5-0.6l18.6-45.2l-20.5-20.5
		C206.2,273,205.7,273.4,205.9,274z"/>
	<circle style="fill:#F6F7F9;" cx="-59.3" cy="366.9" r="2.1"/>
	<path style="fill:#FCFCFC;" d="M153.7,392.8l-1.5,1.9c-0.2,0.3-0.5,0.4-0.8,0.4c-0.2,0-0.4-0.1-0.6-0.2c-0.4-0.3-0.5-1-0.2-1.4
		l0.3-0.4l-12.9,1.6v68.7l20-20v-51.2L153.7,392.8z"/>
	<polygon style="fill:#FCFCFC;" points="157.9,383.4 157.9,261.7 137.9,261.7 137.9,385.9 	"/>
	<rect x="137.9" y="259.7" style="fill:#FCFCFC;" width="20" height="2"/>
	<path style="fill:#FCFCFC;" d="M149.7,386.5c-0.4-0.3-0.5-1-0.2-1.4c0.3-0.4,1-0.5,1.4-0.2l4.3,3.3l2.8-0.4v-4.4l-20,2.5v4.5
		l14.4-1.8L149.7,386.5z"/>
	<polygon style="fill:#FCFCFC;" points="155.7,390.1 153.7,392.8 157.9,392.2 157.9,389.8 	"/>
	<polygon style="fill:#FCFCFC;" points="137.9,392.4 137.9,394.7 150.9,393.1 152.9,390.5 	"/>
	<path style="fill:#A1ABD0;" d="M68.9,338.7c0.6,0,1,0.4,1,1v0.6c0.5-0.3,0.7-0.9,0.4-1.4s-0.9-0.7-1.4-0.4l-1,0.6l0.1,0.2
		C68.2,338.9,68.6,338.7,68.9,338.7z"/>
	<polygon style="fill:#A1ABD0;" points="26.1,363.5 26.2,363.5 25.2,363.6 	"/>
	<polygon style="fill:#A1ABD0;" points="63.9,343.5 63.9,341.1 29.1,359.6 29.3,361.8 	"/>
	<path style="fill:#A1ABD0;" d="M15.3,368.6c-0.1-0.2-0.2-0.5-0.1-0.8l0.3-1l-30.8,16.3l0.9,1.8l30-15.9
		C15.6,368.9,15.4,368.8,15.3,368.6z"/>
	<polygon style="fill:#A1ABD0;" points="-22.8,387.1 -36.2,394.1 -34.7,395.6 -21.9,388.9 	"/>
	<polygon style="fill:#A1ABD0;" points="21.1,364.3 20.9,363.9 18.2,365.4 17.6,367.4 18.2,367.6 21.2,366.1 	"/>
	<path style="fill:#A1ABD0;" d="M63.9,343.5l4-2.1v-1.7c0-0.2,0-0.3,0.1-0.4l-0.1-0.2l-4,2.1V343.5z"/>
	<path style="fill:#A1ABD0;" d="M-19.7,387.4c-0.3-0.3-0.5-0.7-0.4-1.1c0.1-0.1,0.1-0.3,0.2-0.4l0.2-0.5l-3.2,1.7l0.9,1.8l2.5-1.3
		C-19.6,387.5-19.6,387.5-19.7,387.4z"/>
	<polygon style="fill:#A1ABD0;" points="-17.1,384 -17.7,386 -16.8,386.2 -14.3,384.9 -15.2,383 	"/>
	<polygon style="fill:#A1ABD0;" points="21.1,364.3 21.2,366.1 26.1,363.5 25.2,363.6 	"/>
	<polygon style="fill:#A1ABD0;" points="21.1,364.3 21.1,364.3 21.1,364 25.2,363.6 26.2,363.5 29.3,361.8 29.1,359.6 20.9,363.9 	
		"/>
	<polygon style="fill:#A1ABD0;" points="21.1,364 21.1,364.3 25.2,363.6 	"/>
	<path style="fill:#A1ABD0;" d="M100.9,396.7v0.4l2.5-0.3l-0.2-2l-2.9,0.4c-0.4,0.1-0.7,0.3-0.8,0.6c0.1,0,0.3-0.1,0.4-0.1
		C100.6,395.7,100.9,396.1,100.9,396.7z"/>
	<polygon style="fill:#A1ABD0;" points="122.9,392.3 103.9,394.7 103.9,396.8 124.2,394.2 124.7,393.5 	"/>
	<polygon style="fill:#A1ABD0;" points="181.7,384.8 157.9,387.8 157.9,389.8 181.7,386.8 182.7,385.5 	"/>
	<path style="fill:#A1ABD0;" d="M200.5,383.2H194l-9.6,1.2c0.1,0,0.1,0,0.2,0.1c0.4,0.3,0.5,1,0.2,1.4l-0.4,0.6l20.8-2.7l-4.7-0.8
		V383.2z"/>
	<path style="fill:#A1ABD0;" d="M213.9,381.9l-0.7,0.9l6.2-0.8l2.3-2.3l-7.9,1C214,381,214.2,381.6,213.9,381.9z"/>
	<path style="fill:#A1ABD0;" d="M125.9,391.9l0.6,0.5c0.1,0,0.2,0.1,0.2,0.1c0.4,0.3,0.5,0.9,0.2,1.3l11.1-1.4v-2L125.9,391.9z"/>
	<polygon style="fill:#A1ABD0;" points="205.9,383.7 210.4,383.1 211.7,381.5 210.9,381 206.9,381.6 	"/>
	<polygon style="fill:#A1ABD0;" points="103.9,396.8 103.9,394.7 103.2,394.8 103.4,396.8 	"/>
	<polygon style="fill:#A1ABD0;" points="200.5,383 198.4,382.6 194,383.2 200.5,383.2 	"/>
	<polygon style="fill:#A1ABD0;" points="200.5,382.4 200.5,383 205.2,383.8 205.9,383.7 206.9,381.6 	"/>
	<polygon style="fill:#A1ABD0;" points="200.5,382.4 198.4,382.6 200.5,383 	"/>
	<polygon style="fill:#A1ABD0;" points="152.4,388.5 137.9,390.4 137.9,392.4 152.9,390.5 153.7,389.5 	"/>
	<path style="fill:#A1ABD0;" d="M155.2,388.2l0.3,0.2c0.1,0,0.2,0.1,0.2,0.1c0.4,0.3,0.5,1,0.2,1.4l-0.2,0.2l2.3-0.3v-2L155.2,388.2
		z"/>
	<path style="fill:#A1ABD0;" d="M-12.9,387.5l0.6,1.1C-12.3,388.1-12.6,387.7-12.9,387.5z"/>
	<path style="fill:#A1ABD0;" d="M-13.3,387.3l-2.6,1.4l2.2,0.7c0.1,0,0.2,0,0.3,0c0.5,0,0.9-0.2,1-0.7v-0.1l-0.6-1.1l-0.1-0.1
		L-13.3,387.3z"/>
	<path style="fill:#A1ABD0;" d="M-16.8,386.2l-1.1,0.6l-0.1,0.2c-0.2,0.4-0.6,0.7-1,0.7h-0.1l3.1,1l2.6-1.4L-16.8,386.2z"/>
	<polygon style="fill:#A1ABD0;" points="-17.8,386.8 -16.8,386.2 -17.7,386 	"/>
	<path style="fill:#A1ABD0;" d="M-19.9,386.4l0.1-0.5c-0.1,0.1-0.2,0.2-0.2,0.4c-0.1,0.5,0.1,0.9,0.4,1.1
		C-19.8,387.2-20.1,386.8-19.9,386.4z"/>
	<path style="fill:#A1ABD0;" d="M-16.7,380.1l0.5,1C-16.2,380.7-16.3,380.3-16.7,380.1z"/>
	<path style="fill:#A1ABD0;" d="M-19.3,387.6L-19.3,387.6c0,0.1,0.1,0.1,0.1,0.1c0.1,0,0.1,0,0.2,0L-19.3,387.6L-19.3,387.6z"/>
	<path style="fill:#A1ABD0;" d="M-16.2,381.3c0-0.1,0-0.1,0-0.2l-0.5-1c-0.1,0-0.1-0.1-0.2-0.1c-0.6-0.1-1.1,0.2-1.3,0.7l-1.5,4.7
		l2.6-1.4L-16.2,381.3z"/>
	<path style="fill:#A1ABD0;" d="M-19.7,387.4c0.1,0.1,0.1,0.1,0.2,0.2l0,0C-19.4,387.5-19.6,387.5-19.7,387.4z"/>
	<path style="fill:#A1ABD0;" d="M-18.8,385.6l1.1,0.4l0.6-2l-2.6,1.4l-0.2,0.5C-19.6,385.7-19.2,385.5-18.8,385.6z"/>
	<path style="fill:#A1ABD0;" d="M-19.3,387.6l0.3,0.1h0.1c0.4,0,0.8-0.3,1-0.7l0.1-0.2L-19.3,387.6L-19.3,387.6z"/>
	<path style="fill:#A1ABD0;" d="M-18.8,385.6c-0.4-0.1-0.8,0.1-1.1,0.3l-0.1,0.5c-0.1,0.4,0.1,0.8,0.3,1c0.1,0.1,0.2,0.1,0.2,0.2
		l1.5-0.8l0.3-0.8L-18.8,385.6z"/>
	<path style="fill:#A1ABD0;" d="M121.9,388.9c-0.4-0.3-1.1-0.2-1.4,0.2c-0.3,0.4-0.2,1.1,0.2,1.4l2.3,1.8l2.8-0.4L121.9,388.9z"/>
	<path style="fill:#A1ABD0;" d="M125.2,392.7c0.2-0.3,0.8-0.4,1.2-0.3l-0.6-0.5l-2.8,0.4l1.6,1.2L125.2,392.7z"/>
	<path style="fill:#A1ABD0;" d="M121.5,397.5c-0.3,0.4-0.2,1.1,0.2,1.4c0.2,0.1,0.4,0.2,0.6,0.2c0.3,0,0.6-0.1,0.8-0.4l1.8-2.4
		l-2.8,0.3L121.5,397.5z"/>
	<path style="fill:#A1ABD0;" d="M126.9,393.8L126.9,393.8c-0.1,0-0.1,0-0.1,0.1c-0.2,0.3-0.5,0.4-0.8,0.4c-0.2,0-0.4-0.1-0.6-0.2
		l-0.1-0.1l-1.1,0.1l-1.9,2.5l2.8-0.3L126.9,393.8C126.9,393.9,126.9,393.8,126.9,393.8z"/>
	<path style="fill:#A1ABD0;" d="M126.7,392.5c-0.1-0.1-0.2-0.1-0.2-0.1l0.1,0.1c0.4,0.3,0.5,0.9,0.2,1.3h0.1
		C127.2,393.4,127,392.8,126.7,392.5z"/>
	<polygon style="fill:#A1ABD0;" points="124.2,394.2 125.2,394 124.7,393.5 	"/>
	<path style="fill:#A1ABD0;" d="M125.4,394.1c0.2,0.1,0.4,0.2,0.6,0.2c0.3,0,0.6-0.1,0.8-0.4c0,0,0,0,0-0.1L125.4,394.1L125.4,394.1
		z"/>
	<path style="fill:#A1ABD0;" d="M126.5,392.5l-0.1-0.1c-0.4-0.1-0.9,0-1.2,0.3l-0.6,0.8l0.6,0.5l1.5-0.2
		C127,393.4,126.9,392.8,126.5,392.5z"/>
	<path style="fill:#A1ABD0;" d="M149.4,385.1c-0.3,0.4-0.2,1.1,0.2,1.4l2.7,2l2.8-0.4l-4.3-3.3C150.4,384.6,149.7,384.7,149.4,385.1
		z"/>
	<path style="fill:#A1ABD0;" d="M153.7,389.5l0.6-0.8c0.2-0.3,0.8-0.4,1.2-0.3l-0.3-0.2l-2.8,0.4L153.7,389.5z"/>
	<path style="fill:#A1ABD0;" d="M150.5,393.5c-0.3,0.4-0.2,1.1,0.2,1.4c0.2,0.1,0.4,0.2,0.6,0.2c0.3,0,0.6-0.1,0.8-0.4l1.5-1.9
		l-2.8,0.3L150.5,393.5z"/>
	<path style="fill:#A1ABD0;" d="M155.4,390.2c-0.2,0.1-0.3,0.1-0.5,0.1c-0.1,0-0.1,0-0.2,0l-1.9,0.2l-2,2.6l2.8-0.3l2-2.6H155.4z"/>
	<path style="fill:#A1ABD0;" d="M153.7,389.5l-0.7,1l1.9-0.2c-0.1,0-0.3-0.1-0.4-0.2L153.7,389.5z"/>
	<path style="fill:#A1ABD0;" d="M155.7,388.5c-0.1-0.1-0.2-0.1-0.2-0.1l0.1,0.1c0.4,0.3,0.5,1,0.2,1.4c-0.1,0.1-0.2,0.2-0.3,0.3h0.2
		l0.2-0.2C156.2,389.5,156,388.8,155.7,388.5z"/>
	<path style="fill:#A1ABD0;" d="M154.9,390.3c0.2,0,0.4,0,0.5-0.1l-0.7,0.1C154.9,390.3,154.9,390.3,154.9,390.3z"/>
	<path style="fill:#A1ABD0;" d="M155.5,388.5l-0.1-0.1c-0.4-0.1-0.9,0-1.2,0.3l-0.6,0.8l0.7,0.6c0.1,0.1,0.3,0.1,0.4,0.2l0.7-0.1
		c0.1-0.1,0.2-0.1,0.3-0.3C156,389.5,155.9,388.8,155.5,388.5z"/>
	<path style="fill:#A1ABD0;" d="M178.7,382.5l3,2.3l1.8-0.2c0.3-0.2,0.7-0.3,1-0.2l-4.6-3.5c-0.2-0.1-0.4-0.2-0.6-0.2
		c-0.1,0-0.1,0-0.2,0c-0.2,0.1-0.4,0.2-0.6,0.3C178.2,381.5,178.2,382.2,178.7,382.5z"/>
	<path style="fill:#A1ABD0;" d="M183.4,384.6l-1.8,0.2l1,0.7l0.6-0.8C183.2,384.6,183.4,384.6,183.4,384.6z"/>
	<path style="fill:#A1ABD0;" d="M179.7,390.9c0.2,0.1,0.4,0.2,0.6,0.2c0.3,0,0.6-0.1,0.8-0.4l1.1-1.5l-2.8,0.3
		C179.2,390,179.4,390.6,179.7,390.9z"/>
	<path style="fill:#A1ABD0;" d="M184.4,384.4L184.4,384.4L184.4,384.4L184.4,384.4z"/>
	<path style="fill:#A1ABD0;" d="M181.7,386.8l-2.1,2.7c0,0,0,0,0,0.1l2.8-0.3l2.1-2.8L181.7,386.8z"/>
	<path style="fill:#A1ABD0;" d="M184.7,384.5c0,0-0.1,0-0.2-0.1l0,0l0.1,0.1c0.4,0.3,0.5,1,0.2,1.4c-0.2,0.3-0.5,0.4-0.8,0.4
		c-0.2,0-0.4-0.1-0.6-0.2l-0.7-0.6l-1,1.3l2.8-0.4l0.4-0.6C185.2,385.5,185,384.8,184.7,384.5z"/>
	<path style="fill:#A1ABD0;" d="M183.4,384.6l1-0.1l0,0C184,384.3,183.7,384.3,183.4,384.6z"/>
	<path style="fill:#A1ABD0;" d="M183.2,384.7l-0.6,0.8l0.7,0.6c0.2,0.1,0.4,0.2,0.6,0.2c0.3,0,0.6-0.1,0.8-0.4
		c0.3-0.4,0.2-1.1-0.2-1.4l-0.1-0.1l-1,0.1C183.4,384.6,183.2,384.6,183.2,384.7z"/>
	<path style="fill:#A1ABD0;" d="M209,377l-0.2-0.1l0,0l-0.1,0.2L209,377z"/>
	<path style="fill:#A1ABD0;" d="M208,378.8l2.9,2.3l1.1-0.1l0.1-0.2c0.2-0.3,0.8-0.4,1.2-0.3l-4.4-3.4h-0.2L208,378.8z"/>
	<path style="fill:#A1ABD0;" d="M207.4,377.1c0,0,0,0.1-0.1,0.1l1.4-0.2l0.1-0.2C208.4,376.6,207.7,376.7,207.4,377.1z"/>
	<path style="fill:#A1ABD0;" d="M207.7,378.5l0.4,0.3l0.7-1.7l-1.4,0.2C207.2,377.6,207.2,378.2,207.7,378.5z"/>
	<polygon style="fill:#A1ABD0;" points="212.2,380.9 210.9,381 211.7,381.5 	"/>
	<path style="fill:#A1ABD0;" d="M208.7,386.9c0.2,0.1,0.4,0.2,0.6,0.2c0.3,0,0.6-0.1,0.8-0.4l0.8-1.1l-2.6,0.3
		C208.4,386.3,208.4,386.7,208.7,386.9z"/>
	<path style="fill:#A1ABD0;" d="M208.5,385.5c-0.1,0.1-0.1,0.3-0.2,0.5l2.6-0.3l2.2-2.9l-2.8,0.4L208.5,385.5z"/>
	<path style="fill:#A1ABD0;" d="M213.7,380.7L213.7,380.7c0-0.1,0-0.1-0.1-0.2c-0.1-0.1-0.2-0.1-0.2-0.1l0.1,0.1
		C213.7,380.5,213.7,380.6,213.7,380.7z"/>
	<path style="fill:#A1ABD0;" d="M213.7,381.9c-0.2,0.3-0.5,0.4-0.8,0.4c-0.2,0-0.4-0.1-0.6-0.2l-0.7-0.6l-1.2,1.6l2.8-0.4l0.7-0.9
		c0.3-0.3,0.2-0.9-0.1-1.2h-0.1C213.9,381,214,381.6,213.7,381.9z"/>
	<path style="fill:#A1ABD0;" d="M212.2,380.7l-0.1,0.2l1.6-0.2c0-0.1-0.1-0.1-0.2-0.2l-0.1-0.1C213,380.3,212.4,380.4,212.2,380.7z"
		/>
	<path style="fill:#A1ABD0;" d="M212.4,382.1c0.2,0.1,0.4,0.2,0.6,0.2c0.3,0,0.6-0.1,0.8-0.4c0.3-0.3,0.2-0.9,0-1.2l-1.6,0.2
		l-0.5,0.6L212.4,382.1z"/>
	<path style="fill:#A1ABD0;" d="M101.6,420.8L101.6,420.8c-0.1-0.1-0.2-0.2-0.3-0.2C101.3,420.6,101.4,420.7,101.6,420.8
		L101.6,420.8z"/>
	<path style="fill:#A1ABD0;" d="M95.9,425c-0.4,0.4-0.4,1,0,1.4c0.2,0.2,0.4,0.3,0.7,0.3s0.5-0.1,0.7-0.3l1.6-1.6V422L95.9,425z"/>
	<path style="fill:#A1ABD0;" d="M104.3,426.5c0.2,0.2,0.4,0.3,0.7,0.3s0.5-0.1,0.7-0.3c0.4-0.4,0.4-1,0-1.4l-1.8-1.8v2.8
		L104.3,426.5z"/>
	<path style="fill:#A1ABD0;" d="M101.6,422.2l-0.6,0.6v0.2l3,3.1v-2.8l-2.4-2.5C101.9,421.2,101.9,421.8,101.6,422.2z"/>
	<path style="fill:#A1ABD0;" d="M101.6,422.2c0.4-0.4,0.4-1,0-1.4l0,0c-0.1-0.1-0.2-0.2-0.3-0.2c-0.1,0-0.2-0.1-0.3-0.1v2.3
		L101.6,422.2z"/>
	<path style="fill:#A1ABD0;" d="M101.6,458.8L101.6,458.8c-0.1-0.1-0.2-0.2-0.3-0.2C101.3,458.6,101.4,458.7,101.6,458.8
		L101.6,458.8z"/>
	<path style="fill:#A1ABD0;" d="M95.9,463c-0.4,0.4-0.4,1,0,1.4c0.2,0.2,0.4,0.3,0.7,0.3s0.5-0.1,0.7-0.3l1.6-1.6V460L95.9,463z"/>
	<path style="fill:#A1ABD0;" d="M104.3,464.5c0.2,0.2,0.4,0.3,0.7,0.3s0.5-0.1,0.7-0.3c0.4-0.4,0.4-1,0-1.4l-1.8-1.8v2.8
		L104.3,464.5z"/>
	<path style="fill:#A1ABD0;" d="M101.6,460.2l-0.6,0.6v0.2l3,3.1v-2.8l-2.4-2.5C101.9,459.2,101.9,459.8,101.6,460.2z"/>
	<path style="fill:#A1ABD0;" d="M101.6,460.2c0.4-0.4,0.4-1,0-1.4l0,0c-0.1-0.1-0.2-0.2-0.3-0.2c-0.1,0-0.2-0.1-0.3-0.1v2.3
		L101.6,460.2z"/>
	<path style="fill:#A1ABD0;" d="M101.6,496.8L101.6,496.8c-0.1-0.1-0.2-0.2-0.3-0.2C101.3,496.6,101.4,496.7,101.6,496.8
		L101.6,496.8z"/>
	<path style="fill:#A1ABD0;" d="M95.9,501c-0.4,0.4-0.4,1,0,1.4c0.2,0.2,0.4,0.3,0.7,0.3s0.5-0.1,0.7-0.3l1.6-1.6V498L95.9,501z"/>
	<path style="fill:#A1ABD0;" d="M101.6,498.2l-0.6,0.6v0.2l0.7,0.7l1.4-1.4l-1.5-1.6C101.9,497.2,101.9,497.8,101.6,498.2z"/>
	<path style="fill:#A1ABD0;" d="M101.6,498.2c0.4-0.4,0.4-1,0-1.4l0,0c-0.1-0.1-0.2-0.2-0.3-0.2c-0.1,0-0.2-0.1-0.3-0.1v2.3
		L101.6,498.2z"/>
	<path style="fill:#A1ABD0;" d="M70.6,390.8L70.6,390.8c-0.1-0.1-0.2-0.2-0.3-0.2C70.3,390.6,70.4,390.7,70.6,390.8L70.6,390.8z"/>
	<path style="fill:#A1ABD0;" d="M64.9,395c-0.4,0.4-0.4,1,0,1.4c0.2,0.2,0.4,0.3,0.7,0.3s0.5-0.1,0.7-0.3l1.6-1.6V392L64.9,395z"/>
	<path style="fill:#A1ABD0;" d="M70.6,392.2l-0.6,0.6v0.2l3.4,3.5c0.2,0.2,0.4,0.3,0.7,0.3s0.5-0.1,0.7-0.3c0.4-0.4,0.4-1,0-1.4
		l-4.2-4.3C70.9,391.2,70.9,391.8,70.6,392.2z"/>
	<path style="fill:#A1ABD0;" d="M70.6,392.2c0.4-0.4,0.4-1,0-1.4l0,0c-0.1-0.1-0.2-0.2-0.3-0.2c-0.1,0-0.2-0.1-0.3-0.1v2.3
		L70.6,392.2z"/>
	<path style="fill:#A1ABD0;" d="M70.6,428.8L70.6,428.8c-0.1-0.1-0.2-0.2-0.3-0.2C70.3,428.6,70.4,428.7,70.6,428.8L70.6,428.8z"/>
	<path style="fill:#A1ABD0;" d="M64.9,433c-0.4,0.4-0.4,1,0,1.4c0.2,0.2,0.4,0.3,0.7,0.3s0.5-0.1,0.7-0.3l1.6-1.6V430L64.9,433z"/>
	<path style="fill:#A1ABD0;" d="M70.6,430.2l-0.6,0.6v0.2l3.4,3.5c0.2,0.2,0.4,0.3,0.7,0.3s0.5-0.1,0.7-0.3c0.4-0.4,0.4-1,0-1.4
		l-4.2-4.3C70.9,429.2,70.9,429.8,70.6,430.2z"/>
	<path style="fill:#A1ABD0;" d="M70.6,430.2c0.4-0.4,0.4-1,0-1.4l0,0c-0.1-0.1-0.2-0.2-0.3-0.2c-0.1,0-0.2-0.1-0.3-0.1v2.3
		L70.6,430.2z"/>
	<path style="fill:#A1ABD0;" d="M64.9,471c-0.4,0.4-0.4,1,0,1.4c0.2,0.2,0.4,0.3,0.7,0.3s0.5-0.1,0.7-0.3l1.6-1.6V468L64.9,471z"/>
	<path style="fill:#A1ABD0;" d="M70.6,466.8L70.6,466.8c-0.1-0.1-0.2-0.2-0.3-0.2C70.3,466.6,70.4,466.7,70.6,466.8L70.6,466.8z"/>
	<path style="fill:#A1ABD0;" d="M70.6,468.2l-0.6,0.6v0.2l3.4,3.5c0.2,0.2,0.4,0.3,0.7,0.3s0.5-0.1,0.7-0.3c0.4-0.4,0.4-1,0-1.4
		l-4.2-4.3C70.9,467.2,70.9,467.8,70.6,468.2z"/>
	<path style="fill:#A1ABD0;" d="M70.6,468.2c0.4-0.4,0.4-1,0-1.4l0,0c-0.1-0.1-0.2-0.2-0.3-0.2c-0.1,0-0.2-0.1-0.3-0.1v2.3
		L70.6,468.2z"/>
	<path style="fill:#A1ABD0;" d="M18.9,370.1l2.7,0.8c0,0,0,0,0.1,0l-0.2-2.2L18.9,370.1z"/>
	<path style="fill:#A1ABD0;" d="M21.4,368.7l-3.2-1l-0.9,0.5l-0.1,0.3c-0.2,0.4-0.6,0.7-1,0.7c-0.1,0-0.2,0-0.3,0
		c-0.1,0-0.1-0.1-0.2-0.1l0,0c0.1,0,0.1,0.1,0.2,0.1l3,1L21.4,368.7L21.4,368.7z"/>
	<path style="fill:#A1ABD0;" d="M21.7,370.9c0.1,0,0.2,0,0.2,0c0.4,0,0.8-0.3,1-0.7c0.1-0.6-0.2-1.1-0.7-1.3l-0.7-0.2h-0.1
		L21.7,370.9z"/>
	<path style="fill:#A1ABD0;" d="M21.4,368.7h0.1H21.4z"/>
	<path style="fill:#A1ABD0;" d="M15.3,368.6c0.1,0.2,0.2,0.3,0.4,0.4l0,0C15.6,368.9,15.4,368.8,15.3,368.6z"/>
	<polygon style="fill:#A1ABD0;" points="17.3,368.1 18.2,367.6 17.6,367.4 	"/>
	<path style="fill:#A1ABD0;" d="M19.1,362.7c0.1-0.6-0.2-1.1-0.7-1.3c-0.6-0.1-1.1,0.2-1.3,0.7l-1.5,4.7l2.6-1.4L19.1,362.7z"/>
	<path style="fill:#A1ABD0;" d="M16.6,367.1l1,0.3l0.7-2.1l-2.6,1.4l-0.3,1C15.3,367.2,15.9,367,16.6,367.1z"/>
	<path style="fill:#A1ABD0;" d="M15.9,369.1c0.1,0,0.2,0,0.3,0c0.4,0,0.8-0.3,1-0.7l0.1-0.3l-1.6,0.8
		C15.8,369,15.8,369.1,15.9,369.1z"/>
	<path style="fill:#A1ABD0;" d="M16.6,367.1c-0.6-0.1-1.2,0.1-1.3,0.7c0,0.3,0,0.6,0.1,0.8c0.1,0.2,0.2,0.3,0.4,0.4l1.6-0.8l0.2-0.7
		L16.6,367.1z"/>
	<polygon style="fill:#A1ABD0;" points="69.8,468.9 67.9,470.8 67.9,498.2 69.9,500.2 69.9,469 	"/>
	<path style="fill:#A1ABD0;" d="M69.8,342.9l-1.9,1V392l1.2-1.2c0.1-0.1,0.2-0.2,0.3-0.2c0.1-0.1,0.2-0.1,0.4-0.1h0.1v-50.2
		l-1.1,0.6L69.8,342.9z"/>
	<path style="fill:#A1ABD0;" d="M67.9,394.8V430l1.2-1.2c0.1-0.1,0.2-0.2,0.3-0.2c0.1-0.1,0.2-0.1,0.4-0.1h0.1V393l-0.1-0.1
		L67.9,394.8z"/>
	<path style="fill:#A1ABD0;" d="M67.9,432.8V468l1.2-1.2c0.1-0.1,0.2-0.2,0.3-0.2c0.1-0.1,0.2-0.1,0.4-0.1h0.1V431l-0.1-0.1
		L67.9,432.8z"/>
	<polygon style="fill:#A1ABD0;" points="68.8,340.9 67.9,341.4 67.9,343.9 69.8,342.9 	"/>
	<path style="fill:#A1ABD0;" d="M68.9,338.7c-0.4,0-0.8,0.2-0.9,0.6l0.8,1.6l1.1-0.6v-0.6C69.9,339.1,69.6,338.7,68.9,338.7z"/>
	<path style="fill:#A1ABD0;" d="M68.1,339.3c0,0.1-0.1,0.3-0.1,0.4v1.7l0.9-0.5L68.1,339.3z"/>
	<path style="fill:#A1ABD0;" d="M69.2,392.2c-0.4-0.4-0.4-1,0-1.4c0.1-0.1,0.2-0.2,0.3-0.2c-0.1,0-0.2,0.1-0.3,0.2l-1.2,1.2v2.8
		l1.9-1.9L69.2,392.2z"/>
	<polygon style="fill:#A1ABD0;" points="69.8,392.9 69.9,393 69.9,392.8 	"/>
	<path style="fill:#A1ABD0;" d="M69.4,390.6c-0.1,0-0.2,0.1-0.3,0.2c-0.4,0.4-0.4,1,0,1.4l0.7,0.7l0.1-0.1v-2.3h-0.1
		C69.7,390.5,69.7,390.5,69.4,390.6z"/>
	<path style="fill:#A1ABD0;" d="M69.2,430.2c-0.4-0.4-0.4-1,0-1.4c0.1-0.1,0.2-0.2,0.3-0.2c-0.1,0-0.2,0.1-0.3,0.2l-1.2,1.2v2.8
		l1.9-1.9L69.2,430.2z"/>
	<polygon style="fill:#A1ABD0;" points="69.8,430.9 69.9,431 69.9,430.8 	"/>
	<path style="fill:#A1ABD0;" d="M69.4,428.6c-0.1,0-0.2,0.1-0.3,0.2c-0.4,0.4-0.4,1,0,1.4l0.7,0.7l0.1-0.1v-2.3h-0.1
		C69.7,428.5,69.7,428.5,69.4,428.6z"/>
	<path style="fill:#A1ABD0;" d="M69.2,466.8c0.1-0.1,0.2-0.2,0.3-0.2C69.3,466.6,69.2,466.7,69.2,466.8l-1.2,1.2v2.8l1.9-1.9
		l-0.7-0.7C68.7,467.8,68.7,467.2,69.2,466.8z"/>
	<polygon style="fill:#A1ABD0;" points="69.8,468.9 69.9,469 69.9,468.8 	"/>
	<path style="fill:#A1ABD0;" d="M69.4,466.6c-0.1,0-0.2,0.1-0.3,0.2c-0.4,0.4-0.4,1,0,1.4l0.7,0.7l0.1-0.1v-2.3h-0.1
		C69.7,466.5,69.7,466.5,69.4,466.6z"/>
	<path style="fill:#A1ABD0;" d="M98.9,462.8V498l1.2-1.2c0.1-0.1,0.2-0.2,0.3-0.2c0.1-0.1,0.2-0.1,0.4-0.1h0.1V461l-0.1-0.1
		L98.9,462.8z"/>
	<path style="fill:#A1ABD0;" d="M100.4,420.6c0.1-0.1,0.2-0.1,0.4-0.1h0.1v-23.4l-0.5,0.1c-0.5,0-0.9-0.4-1-0.9c0-0.2,0-0.4,0.1-0.5
		c-0.4,0.1-0.6,0.5-0.6,0.9V422l1.2-1.2C100.2,420.7,100.3,420.6,100.4,420.6z"/>
	<polygon style="fill:#A1ABD0;" points="100.8,498.9 98.9,500.8 98.9,502.5 100.9,500.5 100.9,499 	"/>
	<path style="fill:#A1ABD0;" d="M100.4,458.6c0.1-0.1,0.2-0.1,0.4-0.1h0.1V423l-0.1-0.1l-1.9,1.9V460l1.2-1.2
		C100.2,458.7,100.3,458.6,100.4,458.6z"/>
	<path style="fill:#A1ABD0;" d="M100.4,397.2l0.5-0.1v-0.4c0-0.6-0.4-1-1-1c-0.1,0-0.3,0-0.4,0.1c-0.1,0.2-0.1,0.3-0.1,0.5
		C99.6,396.8,99.9,397.2,100.4,397.2z"/>
	<path style="fill:#A1ABD0;" d="M100.2,422.2c-0.4-0.4-0.4-1,0-1.4c0.1-0.1,0.2-0.2,0.3-0.2c-0.1,0-0.2,0.1-0.3,0.2l-1.2,1.2v2.8
		l1.9-1.9L100.2,422.2z"/>
	<polygon style="fill:#A1ABD0;" points="100.9,423 100.9,422.8 100.8,422.9 	"/>
	<path style="fill:#A1ABD0;" d="M100.4,420.6c-0.1,0-0.2,0.1-0.3,0.2c-0.4,0.4-0.4,1,0,1.4l0.7,0.7l0.1-0.1v-2.3h-0.1
		C100.7,420.5,100.7,420.5,100.4,420.6z"/>
	<path style="fill:#A1ABD0;" d="M100.2,460.2c-0.4-0.4-0.4-1,0-1.4c0.1-0.1,0.2-0.2,0.3-0.2c-0.1,0-0.2,0.1-0.3,0.2l-1.2,1.2v2.8
		l1.9-1.9L100.2,460.2z"/>
	<polygon style="fill:#A1ABD0;" points="100.8,460.9 100.9,461 100.9,460.8 	"/>
	<path style="fill:#A1ABD0;" d="M100.4,458.6c-0.1,0-0.2,0.1-0.3,0.2c-0.4,0.4-0.4,1,0,1.4l0.7,0.7l0.1-0.1v-2.3h-0.1
		C100.7,458.5,100.7,458.5,100.4,458.6z"/>
	<path style="fill:#A1ABD0;" d="M100.2,496.8c0.1-0.1,0.2-0.2,0.3-0.2C100.3,496.6,100.2,496.7,100.2,496.8l-1.2,1.2v2.8l1.9-1.9
		l-0.7-0.7C99.7,497.8,99.7,497.2,100.2,496.8z"/>
	<polygon style="fill:#A1ABD0;" points="100.9,499 100.9,498.8 100.8,498.9 	"/>
	<path style="fill:#A1ABD0;" d="M100.4,496.6c-0.1,0-0.2,0.1-0.3,0.2c-0.4,0.4-0.4,1,0,1.4l0.7,0.7l0.1-0.1v-2.3h-0.1
		C100.7,496.5,100.7,496.5,100.4,496.6z"/>
</g>
</svg>
