<?xml version="1.0" encoding="utf-8"?>
<!-- Generator: Adobe Illustrator 19.0.0, SVG Export Plug-In . SVG Version: 6.00 Build 0)  -->
<svg version="1.1" id="Layer_1" xmlns="http://www.w3.org/2000/svg" xmlns:xlink="http://www.w3.org/1999/xlink" x="0px" y="0px"
	 viewBox="0 0 476 373" enable-background="new 0 0 476 373" xml:space="preserve">
<path id="XMLID_1081_" fill="#A9DEEB" d="M359.6,334.1l-2.9,1.8L355,333c-0.4-0.7-1.1-1.1-1.8-0.7c-0.7,0.4-0.6,1.2-0.2,1.9l1.8,2.8
	l-2.9,1.8c-0.7,0.4-1.1,1.1-0.7,1.8c0.4,0.7,1.2,0.6,1.9,0.2l2.9-1.8l1.8,2.9c0.4,0.7,1.1,1.1,1.8,0.7c0.7-0.4,0.6-1.2,0.2-1.9
	l-1.8-2.9l2.9-1.8c0.7-0.4,1.1-1.1,0.7-1.8C361.1,333.6,360.3,333.6,359.6,334.1z"/>
<path id="XMLID_1077_" fill="#FF7676" d="M414.1,202l-1.8-2.9l2.8-1.8c0.7-0.4,1.1-1,0.7-1.8s-1.2-0.6-1.9-0.2l-2.8,1.8l-1.8-2.9
	c-0.4-0.7-1-1.1-1.8-0.7c-0.7,0.4-0.6,1.2-0.2,1.9l1.8,2.9l-2.9,1.8c-0.7,0.4-1.1,1-0.7,1.8c0.4,0.7,1.2,0.6,1.9,0.2l2.9-1.8
	l1.8,2.9c0.4,0.7,1,1.1,1.8,0.7C414.6,203.5,414.5,202.7,414.1,202z"/>
<circle id="XMLID_1076_" fill="#FFB8C7" cx="166.1" cy="350.4" r="2.4"/>
<circle id="XMLID_1075_" fill="#FFB8C7" cx="392.7" cy="63.9" r="2.4"/>
<circle id="XMLID_1074_" fill="#4B5E7F" cx="69.3" cy="277.8" r="2.4"/>
<circle id="XMLID_951_" fill="#FFB8C7" cx="74.7" cy="143.1" r="2.4"/>
<circle id="XMLID_10_" fill="#FFB8C7" cx="103.3" cy="313.4" r="2.4"/>
<circle id="XMLID_953_" fill="#FFB8C7" cx="164" cy="31.6" r="2.4"/>
<circle id="XMLID_1073_" fill="#A9DEEB" cx="364.2" cy="9.5" r="2.4"/>
<circle id="XMLID_1085_" fill="#A9DEEB" cx="183.8" cy="350.4" r="2.4"/>
<circle id="XMLID_1086_" fill="#F6F7F9" cx="314.6" cy="34" r="2.4"/>
<circle id="XMLID_952_" fill="#F6F7F9" cx="366.6" cy="311.1" r="2.4"/>
<g id="XMLID_11_">
	<g id="XMLID_33_">
		<path id="XMLID_35_" fill="#A9DEEB" d="M99.9,51.5c-0.3-3.2,2.1-6,5.3-6.3c3.2-0.3,6,2.1,6.3,5.3c0.3,3.2-2.1,6-5.3,6.3
			C103.1,57.1,100.2,54.7,99.9,51.5z M109.5,50.7c-0.2-2.1-2-3.6-4.1-3.4c-2.1,0.2-3.6,2-3.4,4.1c0.2,2.1,2,3.6,4.1,3.4
			C108.1,54.6,109.7,52.7,109.5,50.7z"/>
	</g>
	<g id="XMLID_12_">
		<path id="XMLID_32_" fill="#A9DEEB" d="M96.1,60.9c0-0.3,0.1-0.6,0.2-0.8l5-6.2c0.4-0.5,1.1-0.6,1.6-0.2c0.5,0.4,0.6,1.1,0.2,1.6
			l-5,6.2c-0.4,0.5-1.1,0.6-1.6,0.2C96.2,61.5,96.1,61.2,96.1,60.9z"/>
	</g>
</g>
<g id="XMLID_353_">
	<defs>
		<path id="XMLID_38_" d="M86.9,256l0.2-129c0-15.1,8.1-29,21.2-36.4l112-64c13-7.4,29-7.4,42,0.1l112,65.1
			c13,7.5,20.9,21.4,20.9,36.4l-0.2,129c0,15.1-8.1,29-21.2,36.4l-112,64c-13,7.4-29,7.4-42-0.1l-112-65.1
			C94.8,284.9,86.8,271,86.9,256z"/>
	</defs>
	<clipPath id="XMLID_615_">
		<use xlink:href="#XMLID_38_"  overflow="visible"/>
	</clipPath>
	<g id="XMLID_31_" clip-path="url(#XMLID_615_)">
		<polyline id="XMLID_39_" fill="#F4F4F4" points="468.2,566 6.4,566 6.4,-0.1 468.2,-0.1 468.2,566 		"/>
		<polyline id="XMLID_40_" fill="#FCFCFC" points="272.2,280.5 437.4,280.5 437.4,273.7 272.2,273.7 		"/>
		<polyline id="XMLID_41_" fill="#FCFCFC" points="272.2,227.7 437.4,227.7 437.4,220.8 272.2,220.8 		"/>
		<polyline id="XMLID_42_" fill="#FCFCFC" points="39.5,273.7 204.7,273.7 204.7,280.5 39.5,280.5 		"/>
		<polyline id="XMLID_43_" fill="#FCFCFC" points="47.2,438.5 212.4,438.5 212.4,445.4 47.2,445.4 		"/>
		<polyline id="XMLID_44_" fill="#FCFCFC" points="267.5,438.5 432.7,438.5 432.7,445.4 267.5,445.4 		"/>
		<polyline id="XMLID_45_" fill="#FCFCFC" points="267.5,390.3 518.8,390.3 518.8,397.2 267.5,397.2 		"/>
		<polyline id="XMLID_46_" fill="#FCFCFC" points="-41.9,390.3 212.4,390.3 212.4,397.2 -41.9,397.2 		"/>
		<polyline id="XMLID_47_" fill="#FCFCFC" points="39.5,227.7 204.7,227.7 204.7,220.8 39.5,220.8 		"/>
		<polyline id="XMLID_48_" fill="#FCFCFC" points="270.6,221.3 270.6,24.1 263.7,24.1 263.7,221.3 		"/>
		<polyline id="XMLID_49_" fill="#FCFCFC" points="217.8,221.3 217.8,24.1 210.9,24.1 210.9,221.3 		"/>
		<polyline id="XMLID_50_" fill="#FCFCFC" points="270.6,491.3 270.6,281.9 263.7,281.9 263.7,491.3 		"/>
		<polyline id="XMLID_51_" fill="#FCFCFC" points="217.8,491.3 217.8,281.9 210.9,281.9 210.9,491.3 		"/>
		<path id="XMLID_52_" fill="#FCFCFC" d="M444.7,252.1h-4.8c0,7.6-1.3,15-3.9,22.2c-4.5,12.6-12.7,24.6-24.2,35.6
			c-17.3,16.4-41.8,30.4-71.3,40.1c-29.4,9.8-63.7,15.4-100.2,15.4c-55.7,0-106.1-13.1-142.1-33.9c-18-10.4-32.5-22.8-42.3-36.2
			c-4.9-6.7-8.7-13.7-11.3-20.9c-2.6-7.2-3.9-14.6-3.9-22.2c0-7.6,1.3-15,3.9-22.2c4.5-12.6,12.7-24.6,24.2-35.6
			C86,177.9,110.6,164,140,154.2c29.4-9.8,63.7-15.4,100.2-15.4c55.7,0,106.1,13.1,142.1,33.9c18,10.4,32.5,22.8,42.3,36.2
			c4.9,6.7,8.7,13.7,11.3,20.9c2.6,7.2,3.9,14.6,3.9,22.2H444.7h4.8c0-8.7-1.5-17.2-4.4-25.4c-5.1-14.3-14.3-27.5-26.7-39.3
			c-18.6-17.7-44.4-32.2-74.9-42.3c-30.5-10.1-65.7-15.9-103.3-15.9c-57.2,0-109,13.4-146.9,35.2c-18.9,11-34.4,24.1-45.3,38.9
			c-5.4,7.4-9.7,15.2-12.6,23.4c-2.9,8.2-4.4,16.7-4.4,25.4c0,8.7,1.5,17.2,4.4,25.4c5.1,14.3,14.3,27.5,26.7,39.3
			c18.6,17.7,44.4,32.2,74.9,42.3c30.5,10.1,65.7,15.9,103.3,15.9c57.2,0,109-13.4,146.9-35.2c18.9-11,34.4-24.1,45.3-38.9
			c5.4-7.4,9.7-15.2,12.6-23.4c2.9-8.2,4.4-16.7,4.4-25.4H444.7z"/>
		<path id="XMLID_53_" fill="#FCFCFC" d="M46.5,391.6c0.2-0.2,4.9-6.4,9.7-16.6c4.8-10.2,9.6-24.5,9.6-40.8c0-7.5-1-15.5-3.6-23.6
			c-2.5-8.1-6.6-16.5-12.6-24.7l-7.7,5.6c5.4,7.4,8.9,14.7,11.2,21.9c2.2,7.2,3.1,14.1,3.1,20.8c0,14.5-4.3,27.4-8.7,36.8
			c-2.2,4.7-4.4,8.4-6,11c-0.8,1.3-1.5,2.3-1.9,2.9c-0.2,0.3-0.4,0.6-0.5,0.7l-0.1,0.2l0,0l0.3,0.2l-0.3-0.2l0,0l0.3,0.2l-0.3-0.2
			L46.5,391.6L46.5,391.6z"/>
		<path id="XMLID_54_" fill="#FCFCFC" d="M441.8,388l-0.3,0.2L441.8,388L441.8,388l-0.3,0.2L441.8,388c-0.1-0.2-4.5-5.9-8.8-15.2
			c-4.3-9.3-8.5-22.1-8.5-36.3c0-6.7,0.9-13.6,3.1-20.8c2.2-7.2,5.8-14.5,11.2-21.9l-7.7-5.6c-6,8.2-10,16.5-12.6,24.7
			c-2.5,8.1-3.6,16.1-3.6,23.6c0,16.4,4.8,30.6,9.6,40.8c4.8,10.2,9.6,16.4,9.7,16.6L441.8,388L441.8,388z"/>
		<path id="XMLID_55_" fill="#FCFCFC" d="M134.9,348.5c-0.1,0-1.9-0.2-4.9-0.2c-7.1,0-21.3,0.8-38.4,6.2
			c-17.1,5.4-37,15.5-55.4,33.9l6.8,6.8c17.2-17.2,35.7-26.5,51.6-31.5c15.9-5,29.1-5.8,35.5-5.8c1.4,0,2.4,0,3.1,0.1
			c0.3,0,0.6,0,0.8,0l0.2,0l0,0l0.1-1l-0.1,1l0,0l0.1-1l-0.1,1L134.9,348.5L134.9,348.5z"/>
		<path id="XMLID_56_" fill="#FCFCFC" d="M346.7,360.3l-0.1-1L346.7,360.3L346.7,360.3l-0.1-1L346.7,360.3c0.1,0,1.5-0.1,4.1-0.1
			c6.4,0,19.6,0.7,35.5,5.8c15.9,5,34.4,14.3,51.6,31.5l6.8-6.8c-18.4-18.4-38.4-28.4-55.4-33.9c-17.1-5.4-31.3-6.2-38.4-6.2
			c-3.1,0-4.8,0.2-4.9,0.2L346.7,360.3L346.7,360.3z"/>
		<path id="XMLID_57_" fill="#FCFCFC" d="M36.7,118.9l0.3-0.2L36.7,118.9L36.7,118.9l0.3-0.2L36.7,118.9c0.1,0.2,4.5,5.9,8.8,15.2
			c4.3,9.3,8.5,22.1,8.5,36.3c0,6.7-0.9,13.6-3.1,20.8c-2.2,7.2-5.8,14.5-11.2,21.9l7.7,5.6c6-8.2,10-16.5,12.6-24.7
			c2.5-8.1,3.6-16.1,3.6-23.6c0-16.4-4.8-30.6-9.6-40.8c-4.8-10.2-9.6-16.4-9.7-16.6L36.7,118.9L36.7,118.9z"/>
		<path id="XMLID_58_" fill="#FCFCFC" d="M432,110.8c-0.2,0.2-4.9,6.4-9.7,16.6c-4.8,10.2-9.6,24.5-9.6,40.8c0,7.5,1,15.5,3.6,23.6
			c2.5,8.1,6.6,16.5,12.6,24.7l7.7-5.6c-5.4-7.4-8.9-14.7-11.2-21.9c-2.2-7.2-3.1-14.1-3.1-20.8c0-14.5,4.3-27.4,8.7-36.8
			c2.2-4.7,4.4-8.4,6-11c0.8-1.3,1.5-2.3,1.9-2.9c0.2-0.3,0.4-0.6,0.5-0.7l0.1-0.2l0,0l-0.3-0.2l0.3,0.2l0,0l-0.3-0.2l0.3,0.2
			L432,110.8L432,110.8z"/>
		<path id="XMLID_59_" fill="#FCFCFC" d="M131.8,146.7l0.1,0.9L131.8,146.7L131.8,146.7l0.1,0.9L131.8,146.7c-0.1,0-1.5,0.1-4.1,0.1
			c-6.4,0-19.6-0.7-35.5-5.8c-15.9-5-34.4-14.3-51.6-31.5l-6.8,6.8c18.4,18.4,38.4,28.4,55.4,33.9c17.1,5.4,31.3,6.2,38.4,6.2
			c3.1,0,4.8-0.2,4.9-0.2L131.8,146.7L131.8,146.7z"/>
		<path id="XMLID_60_" fill="#FCFCFC" d="M343.6,153.9c0.1,0,1.9,0.2,4.9,0.2c7.1,0,21.3-0.8,38.4-6.2c17.1-5.4,37-15.5,55.4-33.9
			l-6.8-6.8c-17.2,17.2-35.7,26.5-51.6,31.5c-15.9,5-29.1,5.8-35.5,5.8c-1.4,0-2.4,0-3.1-0.1c-0.3,0-0.6,0-0.8,0l-0.2,0l0,0l-0.1,1
			l0.1-1l0,0l-0.1,1l0.1-1L343.6,153.9L343.6,153.9z"/>
		<path id="XMLID_61_" fill="#E5E5E5" d="M315.6,408.2h-5.4c-0.6,0-1.1,0.5-1.1,1.2v18.5c0,0.6,0.5,1.2,1.1,1.2h5.4
			c0.6,0,1.1-0.5,1.1-1.2v-18.5C316.7,408.7,316.2,408.2,315.6,408.2"/>
		<path id="XMLID_62_" fill="#E5E5E5" d="M326.3,408.2H321c-0.6,0-1.1,0.5-1.1,1.2v18.5c0,0.6,0.5,1.2,1.1,1.2h5.4
			c0.6,0,1.1-0.5,1.1-1.2v-18.5C327.4,408.7,326.9,408.2,326.3,408.2"/>
		<path id="XMLID_63_" fill="#E5E5E5" d="M290.8,408.2h-9.4c-0.6,0-1.1,0.5-1.1,1.2v18.5c0,0.6,0.5,1.2,1.1,1.2h9.4
			c0.6,0,1.1-0.5,1.1-1.2v-18.5C291.9,408.7,291.4,408.2,290.8,408.2"/>
		<path id="XMLID_64_" fill="#E5E5E5" d="M305.3,408.2h-9.4c-0.6,0-1.1,0.5-1.1,1.2v18.5c0,0.6,0.5,1.2,1.1,1.2h9.4
			c0.6,0,1.1-0.5,1.1-1.2v-18.5C306.4,408.7,305.9,408.2,305.3,408.2"/>
		<path id="XMLID_65_" fill="#E5E5E5" d="M340.1,408.2h-9.4c-0.6,0-1.1,0.5-1.1,1.2v18.5c0,0.6,0.5,1.2,1.1,1.2h9.4
			c0.6,0,1.1-0.5,1.1-1.2v-18.5C341.2,408.7,340.7,408.2,340.1,408.2"/>
		<path id="XMLID_66_" fill="#E5E5E5" d="M354.8,408.2h-9.4c-0.6,0-1.1,0.5-1.1,1.2v18.5c0,0.6,0.5,1.2,1.1,1.2h9.4
			c0.6,0,1.1-0.5,1.1-1.2v-18.5C355.9,408.7,355.4,408.2,354.8,408.2"/>
		<path id="XMLID_67_" fill="#E5E5E5" d="M394.9,408.2h-5.4c-0.6,0-1.1,0.5-1.1,1.2v18.5c0,0.6,0.5,1.2,1.1,1.2h5.4
			c0.6,0,1.1-0.5,1.1-1.2v-18.5C396,408.7,395.5,408.2,394.9,408.2"/>
		<path id="XMLID_68_" fill="#E5E5E5" d="M405.6,408.2h-5.4c-0.6,0-1.1,0.5-1.1,1.2v18.5c0,0.6,0.5,1.2,1.1,1.2h5.4
			c0.6,0,1.1-0.5,1.1-1.2v-18.5C406.7,408.7,406.2,408.2,405.6,408.2"/>
		<path id="XMLID_69_" fill="#E5E5E5" d="M370.1,408.2h-9.4c-0.6,0-1.1,0.5-1.1,1.2v18.5c0,0.6,0.5,1.2,1.1,1.2h9.4
			c0.6,0,1.1-0.5,1.1-1.2v-18.5C371.2,408.7,370.7,408.2,370.1,408.2"/>
		<path id="XMLID_70_" fill="#E5E5E5" d="M384.6,408.2h-9.4c-0.6,0-1.1,0.5-1.1,1.2v18.5c0,0.6,0.5,1.2,1.1,1.2h9.4
			c0.6,0,1.1-0.5,1.1-1.2v-18.5C385.7,408.7,385.2,408.2,384.6,408.2"/>
		<path id="XMLID_71_" fill="#E5E5E5" d="M419.4,408.2h-9.4c-0.6,0-1.1,0.5-1.1,1.2v18.5c0,0.6,0.5,1.2,1.1,1.2h9.4
			c0.6,0,1.1-0.5,1.1-1.2v-18.5C420.5,408.7,420,408.2,419.4,408.2"/>
		<path id="XMLID_72_" fill="#E5E5E5" d="M434.1,408.2h-9.4c-0.6,0-1.1,0.5-1.1,1.2v18.5c0,0.6,0.5,1.2,1.1,1.2h9.4
			c0.6,0,1.1-0.5,1.1-1.2v-18.5C435.2,408.7,434.7,408.2,434.1,408.2"/>
		<path id="XMLID_73_" fill="#E5E5E5" d="M80,408.2h-5.4c-0.6,0-1.1,0.5-1.1,1.2v18.5c0,0.6,0.5,1.2,1.1,1.2H80
			c0.6,0,1.1-0.5,1.1-1.2v-18.5C81.2,408.7,80.6,408.2,80,408.2"/>
		<path id="XMLID_74_" fill="#E5E5E5" d="M90.7,408.2h-5.4c-0.6,0-1.1,0.5-1.1,1.2v18.5c0,0.6,0.5,1.2,1.1,1.2h5.4
			c0.6,0,1.1-0.5,1.1-1.2v-18.5C91.9,408.7,91.3,408.2,90.7,408.2"/>
		<path id="XMLID_75_" fill="#E5E5E5" d="M55.2,408.2h-9.4c-0.6,0-1.1,0.5-1.1,1.2v18.5c0,0.6,0.5,1.2,1.1,1.2h9.4
			c0.6,0,1.1-0.5,1.1-1.2v-18.5C56.3,408.7,55.8,408.2,55.2,408.2"/>
		<path id="XMLID_76_" fill="#E5E5E5" d="M69.7,408.2h-9.4c-0.6,0-1.1,0.5-1.1,1.2v18.5c0,0.6,0.5,1.2,1.1,1.2h9.4
			c0.6,0,1.1-0.5,1.1-1.2v-18.5C70.9,408.7,70.3,408.2,69.7,408.2"/>
		<path id="XMLID_77_" fill="#E5E5E5" d="M104.5,408.2h-9.4c-0.6,0-1.1,0.5-1.1,1.2v18.5c0,0.6,0.5,1.2,1.1,1.2h9.4
			c0.6,0,1.1-0.5,1.1-1.2v-18.5C105.6,408.7,105.1,408.2,104.5,408.2"/>
		<path id="XMLID_78_" fill="#E5E5E5" d="M119.2,408.2h-9.4c-0.6,0-1.1,0.5-1.1,1.2v18.5c0,0.6,0.5,1.2,1.1,1.2h9.4
			c0.6,0,1.1-0.5,1.1-1.2v-18.5C120.3,408.7,119.8,408.2,119.2,408.2"/>
		<path id="XMLID_79_" fill="#E5E5E5" d="M159.3,408.2h-5.4c-0.6,0-1.1,0.5-1.1,1.2v18.5c0,0.6,0.5,1.2,1.1,1.2h5.4
			c0.6,0,1.1-0.5,1.1-1.2v-18.5C160.4,408.7,159.9,408.2,159.3,408.2"/>
		<path id="XMLID_80_" fill="#E5E5E5" d="M170,408.2h-5.4c-0.6,0-1.1,0.5-1.1,1.2v18.5c0,0.6,0.5,1.2,1.1,1.2h5.4
			c0.6,0,1.1-0.5,1.1-1.2v-18.5C171.1,408.7,170.6,408.2,170,408.2"/>
		<path id="XMLID_81_" fill="#E5E5E5" d="M134.5,408.2H125c-0.6,0-1.1,0.5-1.1,1.2v18.5c0,0.6,0.5,1.2,1.1,1.2h9.4
			c0.6,0,1.1-0.5,1.1-1.2v-18.5C135.6,408.7,135.1,408.2,134.5,408.2"/>
		<path id="XMLID_82_" fill="#E5E5E5" d="M149,408.2h-9.4c-0.6,0-1.1,0.5-1.1,1.2v18.5c0,0.6,0.5,1.2,1.1,1.2h9.4
			c0.6,0,1.1-0.5,1.1-1.2v-18.5C150.1,408.7,149.6,408.2,149,408.2"/>
		<path id="XMLID_83_" fill="#E5E5E5" d="M183.8,408.2h-9.4c-0.6,0-1.1,0.5-1.1,1.2v18.5c0,0.6,0.5,1.2,1.1,1.2h9.4
			c0.6,0,1.1-0.5,1.1-1.2v-18.5C184.9,408.7,184.4,408.2,183.8,408.2"/>
		<path id="XMLID_84_" fill="#E5E5E5" d="M198.5,408.2h-9.4c-0.6,0-1.1,0.5-1.1,1.2v18.5c0,0.6,0.5,1.2,1.1,1.2h9.4
			c0.6,0,1.1-0.5,1.1-1.2v-18.5C199.6,408.7,199.1,408.2,198.5,408.2"/>
		<polyline id="XMLID_85_" fill="#FCFCFC" points="-86.7,108.5 212.4,108.5 212.4,115.4 -86.7,115.4 		"/>
		<polyline id="XMLID_86_" fill="#FCFCFC" points="267.5,108.5 486,108.5 486,115.4 267.5,115.4 		"/>
		<polyline id="XMLID_87_" fill="#FCFCFC" points="267.5,60.3 518.8,60.3 518.8,67.2 267.5,67.2 		"/>
		<polyline id="XMLID_88_" fill="#FCFCFC" points="-41.9,60.3 212.4,60.3 212.4,67.2 -41.9,67.2 		"/>
		<path id="XMLID_89_" fill="#E5E5E5" d="M315.6,78.2h-5.4c-0.6,0-1.1,0.5-1.1,1.2v18.5c0,0.6,0.5,1.2,1.1,1.2h5.4
			c0.6,0,1.1-0.5,1.1-1.2V79.3C316.7,78.7,316.2,78.2,315.6,78.2"/>
		<path id="XMLID_90_" fill="#E5E5E5" d="M326.3,78.2H321c-0.6,0-1.1,0.5-1.1,1.2v18.5c0,0.6,0.5,1.2,1.1,1.2h5.4
			c0.6,0,1.1-0.5,1.1-1.2V79.3C327.4,78.7,326.9,78.2,326.3,78.2"/>
		<path id="XMLID_91_" fill="#E5E5E5" d="M290.8,78.2h-9.4c-0.6,0-1.1,0.5-1.1,1.2v18.5c0,0.6,0.5,1.2,1.1,1.2h9.4
			c0.6,0,1.1-0.5,1.1-1.2V79.3C291.9,78.7,291.4,78.2,290.8,78.2"/>
		<path id="XMLID_92_" fill="#E5E5E5" d="M305.3,78.2h-9.4c-0.6,0-1.1,0.5-1.1,1.2v18.5c0,0.6,0.5,1.2,1.1,1.2h9.4
			c0.6,0,1.1-0.5,1.1-1.2V79.3C306.4,78.7,305.9,78.2,305.3,78.2"/>
		<path id="XMLID_93_" fill="#E5E5E5" d="M340.1,78.2h-9.4c-0.6,0-1.1,0.5-1.1,1.2v18.5c0,0.6,0.5,1.2,1.1,1.2h9.4
			c0.6,0,1.1-0.5,1.1-1.2V79.3C341.2,78.7,340.7,78.2,340.1,78.2"/>
		<path id="XMLID_94_" fill="#E5E5E5" d="M354.8,78.2h-9.4c-0.6,0-1.1,0.5-1.1,1.2v18.5c0,0.6,0.5,1.2,1.1,1.2h9.4
			c0.6,0,1.1-0.5,1.1-1.2V79.3C355.9,78.7,355.4,78.2,354.8,78.2"/>
		<path id="XMLID_95_" fill="#E5E5E5" d="M394.9,78.2h-5.4c-0.6,0-1.1,0.5-1.1,1.2v18.5c0,0.6,0.5,1.2,1.1,1.2h5.4
			c0.6,0,1.1-0.5,1.1-1.2V79.3C396,78.7,395.5,78.2,394.9,78.2"/>
		<path id="XMLID_96_" fill="#E5E5E5" d="M405.6,78.2h-5.4c-0.6,0-1.1,0.5-1.1,1.2v18.5c0,0.6,0.5,1.2,1.1,1.2h5.4
			c0.6,0,1.1-0.5,1.1-1.2V79.3C406.7,78.7,406.2,78.2,405.6,78.2"/>
		<path id="XMLID_97_" fill="#E5E5E5" d="M370.1,78.2h-9.4c-0.6,0-1.1,0.5-1.1,1.2v18.5c0,0.6,0.5,1.2,1.1,1.2h9.4
			c0.6,0,1.1-0.5,1.1-1.2V79.3C371.2,78.7,370.7,78.2,370.1,78.2"/>
		<path id="XMLID_98_" fill="#E5E5E5" d="M384.6,78.2h-9.4c-0.6,0-1.1,0.5-1.1,1.2v18.5c0,0.6,0.5,1.2,1.1,1.2h9.4
			c0.6,0,1.1-0.5,1.1-1.2V79.3C385.7,78.7,385.2,78.2,384.6,78.2"/>
		<path id="XMLID_99_" fill="#E5E5E5" d="M419.4,78.2h-9.4c-0.6,0-1.1,0.5-1.1,1.2v18.5c0,0.6,0.5,1.2,1.1,1.2h9.4
			c0.6,0,1.1-0.5,1.1-1.2V79.3C420.5,78.7,420,78.2,419.4,78.2"/>
		<path id="XMLID_100_" fill="#E5E5E5" d="M434.1,78.2h-9.4c-0.6,0-1.1,0.5-1.1,1.2v18.5c0,0.6,0.5,1.2,1.1,1.2h9.4
			c0.6,0,1.1-0.5,1.1-1.2V79.3C435.2,78.7,434.7,78.2,434.1,78.2"/>
		<path id="XMLID_101_" fill="#E5E5E5" d="M80,78.2h-5.4c-0.6,0-1.1,0.5-1.1,1.2v18.5c0,0.6,0.5,1.2,1.1,1.2H80
			c0.6,0,1.1-0.5,1.1-1.2V79.3C81.2,78.7,80.6,78.2,80,78.2"/>
		<path id="XMLID_102_" fill="#E5E5E5" d="M90.7,78.2h-5.4c-0.6,0-1.1,0.5-1.1,1.2v18.5c0,0.6,0.5,1.2,1.1,1.2h5.4
			c0.6,0,1.1-0.5,1.1-1.2V79.3C91.9,78.7,91.3,78.2,90.7,78.2"/>
		<path id="XMLID_103_" fill="#E5E5E5" d="M55.2,78.2h-9.4c-0.6,0-1.1,0.5-1.1,1.2v18.5c0,0.6,0.5,1.2,1.1,1.2h9.4
			c0.6,0,1.1-0.5,1.1-1.2V79.3C56.3,78.7,55.8,78.2,55.2,78.2"/>
		<path id="XMLID_104_" fill="#E5E5E5" d="M69.7,78.2h-9.4c-0.6,0-1.1,0.5-1.1,1.2v18.5c0,0.6,0.5,1.2,1.1,1.2h9.4
			c0.6,0,1.1-0.5,1.1-1.2V79.3C70.9,78.7,70.3,78.2,69.7,78.2"/>
		<path id="XMLID_105_" fill="#E5E5E5" d="M104.5,78.2h-9.4c-0.6,0-1.1,0.5-1.1,1.2v18.5c0,0.6,0.5,1.2,1.1,1.2h9.4
			c0.6,0,1.1-0.5,1.1-1.2V79.3C105.6,78.7,105.1,78.2,104.5,78.2"/>
		<path id="XMLID_106_" fill="#E5E5E5" d="M119.2,78.2h-9.4c-0.6,0-1.1,0.5-1.1,1.2v18.5c0,0.6,0.5,1.2,1.1,1.2h9.4
			c0.6,0,1.1-0.5,1.1-1.2V79.3C120.3,78.7,119.8,78.2,119.2,78.2"/>
		<path id="XMLID_107_" fill="#E5E5E5" d="M159.3,78.2h-5.4c-0.6,0-1.1,0.5-1.1,1.2v18.5c0,0.6,0.5,1.2,1.1,1.2h5.4
			c0.6,0,1.1-0.5,1.1-1.2V79.3C160.4,78.7,159.9,78.2,159.3,78.2"/>
		<path id="XMLID_108_" fill="#E5E5E5" d="M170,78.2h-5.4c-0.6,0-1.1,0.5-1.1,1.2v18.5c0,0.6,0.5,1.2,1.1,1.2h5.4
			c0.6,0,1.1-0.5,1.1-1.2V79.3C171.1,78.7,170.6,78.2,170,78.2"/>
		<path id="XMLID_109_" fill="#E5E5E5" d="M134.5,78.2H125c-0.6,0-1.1,0.5-1.1,1.2v18.5c0,0.6,0.5,1.2,1.1,1.2h9.4
			c0.6,0,1.1-0.5,1.1-1.2V79.3C135.6,78.7,135.1,78.2,134.5,78.2"/>
		<path id="XMLID_110_" fill="#E5E5E5" d="M149,78.2h-9.4c-0.6,0-1.1,0.5-1.1,1.2v18.5c0,0.6,0.5,1.2,1.1,1.2h9.4
			c0.6,0,1.1-0.5,1.1-1.2V79.3C150.1,78.7,149.6,78.2,149,78.2"/>
		<path id="XMLID_111_" fill="#E5E5E5" d="M183.8,78.2h-9.4c-0.6,0-1.1,0.5-1.1,1.2v18.5c0,0.6,0.5,1.2,1.1,1.2h9.4
			c0.6,0,1.1-0.5,1.1-1.2V79.3C184.9,78.7,184.4,78.2,183.8,78.2"/>
		<path id="XMLID_112_" fill="#E5E5E5" d="M198.5,78.2h-9.4c-0.6,0-1.1,0.5-1.1,1.2v18.5c0,0.6,0.5,1.2,1.1,1.2h9.4
			c0.6,0,1.1-0.5,1.1-1.2V79.3C199.6,78.7,199.1,78.2,198.5,78.2"/>
		<rect id="XMLID_113_" x="201.3" y="212.5" fill="#FCFCFC" width="76.2" height="76.2"/>
		<ellipse id="XMLID_114_" fill="#9ACFE2" cx="239.8" cy="251.5" rx="21.5" ry="22"/>
		<circle id="XMLID_37_" fill="none" cx="241.5" cy="254.9" r="213.5"/>
		<path id="XMLID_36_" fill="#A1ABD0" d="M57.6,395.7H216c0.7,0,1.2-0.5,1.2-1.2c0-0.7-0.5-1.2-1.2-1.2H57.6c-0.7,0-1.2,0.5-1.2,1.2
			C56.4,395.2,56.9,395.7,57.6,395.7"/>
		<path id="XMLID_115_" fill="#A1ABD0" d="M83.9,390.4l5,5c0.5,0.5,1.2,0.5,1.7,0c0.5-0.5,0.5-1.2,0-1.7l-5-5
			c-0.5-0.5-1.2-0.5-1.7,0C83.5,389.2,83.5,389.9,83.9,390.4"/>
		<path id="XMLID_116_" fill="#A1ABD0" d="M88.9,393.7l-5,5c-0.5,0.5-0.5,1.2,0,1.7c0.5,0.5,1.2,0.5,1.7,0l5-5
			c0.5-0.5,0.5-1.2,0-1.7C90.1,393.2,89.4,393.2,88.9,393.7"/>
		<path id="XMLID_117_" fill="#A1ABD0" d="M124.2,390.4l5,5c0.5,0.5,1.2,0.5,1.7,0c0.5-0.5,0.5-1.2,0-1.7l-5-5
			c-0.5-0.5-1.2-0.5-1.7,0S123.7,389.9,124.2,390.4"/>
		<path id="XMLID_118_" fill="#A1ABD0" d="M129.1,393.7l-5,5c-0.5,0.5-0.5,1.2,0,1.7s1.2,0.5,1.7,0l5-5c0.5-0.5,0.5-1.2,0-1.7
			C130.3,393.2,129.6,393.2,129.1,393.7"/>
		<path id="XMLID_119_" fill="#A1ABD0" d="M164.4,390.4l5,5c0.5,0.5,1.2,0.5,1.7,0c0.5-0.5,0.5-1.2,0-1.7l-5-5
			c-0.5-0.5-1.2-0.5-1.7,0C163.9,389.2,163.9,389.9,164.4,390.4"/>
		<path id="XMLID_120_" fill="#A1ABD0" d="M169.3,393.7l-5,5c-0.5,0.5-0.5,1.2,0,1.7s1.2,0.5,1.7,0l5-5c0.5-0.5,0.5-1.2,0-1.7
			C170.5,393.2,169.8,393.2,169.3,393.7"/>
		<path id="XMLID_121_" fill="#A1ABD0" d="M269.3,395.7h158.5c0.7,0,1.2-0.5,1.2-1.2c0-0.7-0.5-1.2-1.2-1.2H269.3
			c-0.7,0-1.2,0.5-1.2,1.2C268.1,395.2,268.6,395.7,269.3,395.7"/>
		<path id="XMLID_122_" fill="#A1ABD0" d="M295.6,390.4l5,5c0.5,0.5,1.2,0.5,1.7,0s0.5-1.2,0-1.7l-5-5c-0.5-0.5-1.2-0.5-1.7,0
			S295.1,389.9,295.6,390.4"/>
		<path id="XMLID_123_" fill="#A1ABD0" d="M300.6,393.7l-5,5c-0.5,0.5-0.5,1.2,0,1.7s1.2,0.5,1.7,0l5-5c0.5-0.5,0.5-1.2,0-1.7
			C301.8,393.2,301,393.2,300.6,393.7"/>
		<path id="XMLID_124_" fill="#A1ABD0" d="M335.8,390.4l5,5c0.5,0.5,1.2,0.5,1.7,0s0.5-1.2,0-1.7l-5-5c-0.5-0.5-1.2-0.5-1.7,0
			S335.4,389.9,335.8,390.4"/>
		<path id="XMLID_125_" fill="#A1ABD0" d="M340.8,393.7l-5,5c-0.5,0.5-0.5,1.2,0,1.7s1.2,0.5,1.7,0l5-5c0.5-0.5,0.5-1.2,0-1.7
			C342,393.2,341.2,393.2,340.8,393.7"/>
		<path id="XMLID_126_" fill="#A1ABD0" d="M376,390.4l5,5c0.5,0.5,1.2,0.5,1.7,0s0.5-1.2,0-1.7l-5-5c-0.5-0.5-1.2-0.5-1.7,0
			S375.6,389.9,376,390.4"/>
		<path id="XMLID_127_" fill="#A1ABD0" d="M381,393.7l-5,5c-0.5,0.5-0.5,1.2,0,1.7s1.2,0.5,1.7,0l5-5c0.5-0.5,0.5-1.2,0-1.7
			C382.2,393.2,381.4,393.2,381,393.7"/>
		<path id="XMLID_128_" fill="#A1ABD0" d="M426.5,113.1H268.1c-0.7,0-1.2,0.5-1.2,1.2c0,0.7,0.5,1.2,1.2,1.2h158.5
			c0.7,0,1.2-0.5,1.2-1.2C427.7,113.7,427.2,113.1,426.5,113.1"/>
		<path id="XMLID_129_" fill="#A1ABD0" d="M400.2,118.4l-5-5c-0.5-0.5-1.2-0.5-1.7,0c-0.5,0.5-0.5,1.2,0,1.7l5,5
			c0.5,0.5,1.2,0.5,1.7,0S400.6,118.9,400.2,118.4"/>
		<path id="XMLID_130_" fill="#A1ABD0" d="M395.2,115.1l5-5c0.5-0.5,0.5-1.2,0-1.7c-0.5-0.5-1.2-0.5-1.7,0l-5,5
			c-0.5,0.5-0.5,1.2,0,1.7S394.7,115.6,395.2,115.1"/>
		<path id="XMLID_131_" fill="#A1ABD0" d="M360,118.4l-5-5c-0.5-0.5-1.2-0.5-1.7,0c-0.5,0.5-0.5,1.2,0,1.7l5,5
			c0.5,0.5,1.2,0.5,1.7,0S360.4,118.9,360,118.4"/>
		<path id="XMLID_132_" fill="#A1ABD0" d="M355,115.1l5-5c0.5-0.5,0.5-1.2,0-1.7c-0.5-0.5-1.2-0.5-1.7,0l-5,5
			c-0.5,0.5-0.5,1.2,0,1.7S354.5,115.6,355,115.1"/>
		<path id="XMLID_133_" fill="#A1ABD0" d="M319.8,118.4l-5-5c-0.5-0.5-1.2-0.5-1.7,0c-0.5,0.5-0.5,1.2,0,1.7l5,5
			c0.5,0.5,1.2,0.5,1.7,0S320.2,118.9,319.8,118.4"/>
		<path id="XMLID_134_" fill="#A1ABD0" d="M314.8,115.1l5-5c0.5-0.5,0.5-1.2,0-1.7c-0.5-0.5-1.2-0.5-1.7,0l-5,5
			c-0.5,0.5-0.5,1.2,0,1.7S314.3,115.6,314.8,115.1"/>
		<path id="XMLID_135_" fill="#A1ABD0" d="M214.9,113.1H56.4c-0.7,0-1.2,0.5-1.2,1.2c0,0.7,0.5,1.2,1.2,1.2h158.5
			c0.7,0,1.2-0.5,1.2-1.2C216,113.7,215.5,113.1,214.9,113.1"/>
		<path id="XMLID_136_" fill="#A1ABD0" d="M188.5,118.4l-5-5c-0.5-0.5-1.2-0.5-1.7,0c-0.5,0.5-0.5,1.2,0,1.7l5,5
			c0.5,0.5,1.2,0.5,1.7,0C189,119.6,189,118.9,188.5,118.4"/>
		<path id="XMLID_137_" fill="#A1ABD0" d="M183.5,115.1l5-5c0.5-0.5,0.5-1.2,0-1.7c-0.5-0.5-1.2-0.5-1.7,0l-5,5
			c-0.5,0.5-0.5,1.2,0,1.7C182.3,115.6,183.1,115.6,183.5,115.1"/>
		<path id="XMLID_138_" fill="#A1ABD0" d="M148.3,118.4l-5-5c-0.5-0.5-1.2-0.5-1.7,0c-0.5,0.5-0.5,1.2,0,1.7l5,5
			c0.5,0.5,1.2,0.5,1.7,0C148.8,119.6,148.8,118.9,148.3,118.4"/>
		<path id="XMLID_139_" fill="#A1ABD0" d="M143.3,115.1l5-5c0.5-0.5,0.5-1.2,0-1.7c-0.5-0.5-1.2-0.5-1.7,0l-5,5
			c-0.5,0.5-0.5,1.2,0,1.7C142.1,115.6,142.9,115.6,143.3,115.1"/>
		<path id="XMLID_140_" fill="#A1ABD0" d="M108.1,118.4l-5-5c-0.5-0.5-1.2-0.5-1.7,0c-0.5,0.5-0.5,1.2,0,1.7l5,5
			c0.5,0.5,1.2,0.5,1.7,0C108.5,119.6,108.5,118.9,108.1,118.4"/>
		<path id="XMLID_141_" fill="#A1ABD0" d="M103.1,115.1l5-5c0.5-0.5,0.5-1.2,0-1.7c-0.5-0.5-1.2-0.5-1.7,0l-5,5
			c-0.5,0.5-0.5,1.2,0,1.7C101.9,115.6,102.7,115.6,103.1,115.1"/>
		<path id="XMLID_157_" fill="#FFB8C7" d="M267.6,251.8c0,1.5-0.1,2.9-0.3,4.3c-0.1,0.9,0.5,1.7,1.3,1.8c0.9,0.1,1.7-0.5,1.8-1.3
			c0.2-1.6,0.4-3.2,0.4-4.8c0-0.9-0.7-1.6-1.6-1.6C268.4,250.2,267.6,250.9,267.6,251.8L267.6,251.8z M265.8,241.8
			c0.5,1.3,0.9,2.7,1.2,4.2c0.2,0.9,1,1.4,1.9,1.2c0.9-0.2,1.4-1,1.2-1.9c-0.3-1.6-0.8-3.1-1.3-4.6c-0.3-0.8-1.2-1.3-2.1-0.9
			C266,240.1,265.5,241,265.8,241.8L265.8,241.8z M259.4,231.9c1,1,2,2.1,2.8,3.3c0.5,0.7,1.5,0.9,2.2,0.4c0.7-0.5,0.9-1.5,0.4-2.2
			c-1-1.3-2-2.5-3.1-3.7c-0.6-0.6-1.6-0.6-2.3,0C258.8,230.2,258.8,231.2,259.4,231.9L259.4,231.9z M249.5,225.4
			c1.4,0.5,2.7,1.1,3.9,1.9c0.8,0.4,1.8,0.2,2.2-0.6c0.4-0.8,0.2-1.8-0.6-2.2c-1.4-0.8-2.9-1.5-4.4-2.1c-0.8-0.3-1.8,0.1-2.1,0.9
			C248.2,224.1,248.6,225.1,249.5,225.4L249.5,225.4z M237.7,223.6c0.5,0,1.1,0,1.6,0c0.9,0,1.8,0,2.7,0.1c0.9,0.1,1.7-0.6,1.8-1.4
			c0.1-0.9-0.6-1.7-1.4-1.8c-1-0.1-2-0.1-3-0.1c-0.6,0-1.2,0-1.8,0.1c-0.9,0.1-1.6,0.8-1.5,1.7C236.1,222.9,236.9,223.6,237.7,223.6
			L237.7,223.6z M226.3,226.7c1.3-0.7,2.6-1.2,4-1.7c0.8-0.3,1.3-1.2,1-2c-0.3-0.8-1.2-1.3-2-1c-1.5,0.5-3,1.2-4.4,1.9
			c-0.8,0.4-1.1,1.4-0.7,2.2C224.6,226.8,225.5,227.1,226.3,226.7L226.3,226.7z M217.2,234.3c0.9-1.1,1.9-2.2,2.9-3.2
			c0.6-0.6,0.7-1.6,0.1-2.3c-0.6-0.6-1.6-0.7-2.3-0.1c-1.2,1.1-2.3,2.3-3.3,3.6c-0.5,0.7-0.4,1.7,0.3,2.3
			C215.6,235.1,216.6,235,217.2,234.3L217.2,234.3z M212,245c0.4-1.4,0.8-2.8,1.4-4.1c0.3-0.8,0-1.8-0.9-2.1c-0.8-0.3-1.8,0-2.1,0.9
			c-0.6,1.5-1.1,3-1.5,4.6c-0.2,0.9,0.3,1.7,1.2,1.9C210.9,246.4,211.8,245.8,212,245L212,245z M211.6,256.8
			c-0.3-1.4-0.4-2.8-0.4-4.3c0-0.9-0.8-1.6-1.6-1.6c-0.9,0-1.6,0.8-1.6,1.6c0,1.6,0.2,3.2,0.5,4.8c0.2,0.9,1,1.5,1.9,1.3
			C211.2,258.5,211.8,257.7,211.6,256.8L211.6,256.8z M216.1,267.8c-0.8-1.2-1.6-2.4-2.2-3.8c-0.4-0.8-1.3-1.1-2.1-0.7
			c-0.8,0.4-1.1,1.3-0.7,2.1c0.7,1.5,1.5,2.9,2.4,4.2c0.5,0.7,1.5,0.9,2.2,0.4C216.4,269.5,216.6,268.5,216.1,267.8z M224.8,275.9
			c-1.2-0.8-2.4-1.6-3.5-2.5c-0.7-0.6-1.7-0.5-2.3,0.2c-0.6,0.7-0.5,1.7,0.2,2.3c1.2,1,2.5,2,3.9,2.8c0.8,0.5,1.7,0.2,2.2-0.5
			C225.8,277.4,225.5,276.4,224.8,275.9L224.8,275.9z M236,279.8c-1.5-0.2-2.9-0.5-4.3-0.9c-0.9-0.2-1.7,0.3-2,1.1
			c-0.2,0.9,0.3,1.7,1.1,2c1.5,0.4,3.1,0.8,4.7,0.9c0.9,0.1,1.7-0.5,1.8-1.4C237.5,280.7,236.8,279.9,236,279.8z M247.8,278.8
			c-1.4,0.4-2.8,0.7-4.2,1c-0.9,0.1-1.5,0.9-1.4,1.8c0.1,0.9,0.9,1.5,1.8,1.4c1.6-0.2,3.2-0.6,4.7-1.1c0.8-0.3,1.3-1.2,1.1-2
			C249.5,279,248.6,278.5,247.8,278.8L247.8,278.8z M258.1,272.9c-1.1,1-2.2,1.8-3.5,2.6c-0.7,0.5-1,1.5-0.5,2.2
			c0.5,0.7,1.5,1,2.2,0.5c1.4-0.9,2.6-1.9,3.9-2.9c0.7-0.6,0.7-1.6,0.1-2.3C259.8,272.4,258.8,272.3,258.1,272.9L258.1,272.9z
			 M265.2,263.4c-0.6,1.3-1.3,2.6-2.1,3.8c-0.5,0.7-0.3,1.7,0.5,2.2c0.7,0.5,1.7,0.3,2.2-0.5c0.9-1.3,1.7-2.8,2.3-4.2
			c0.4-0.8,0-1.8-0.8-2.1C266.5,262.2,265.5,262.6,265.2,263.4L265.2,263.4z"/>
		<path id="XMLID_170_" fill="#FFB8C7" d="M360.3,330.9c0.5,1.6,1.2,3.2,2.2,4.6c0.5,0.7,1.5,0.9,2.2,0.4c0.7-0.5,0.9-1.5,0.4-2.2
			c-0.8-1.1-1.3-2.3-1.7-3.7c-0.3-0.8-1.2-1.3-2-1.1C360.5,329.2,360,330.1,360.3,330.9L360.3,330.9z M357.1,319
			c0.6,1.2,1,2.5,1.4,4c0.2,0.9,1.1,1.4,1.9,1.2c0.9-0.2,1.4-1.1,1.2-1.9c-0.4-1.6-0.9-3.2-1.7-4.7c-0.4-0.8-1.4-1.1-2.2-0.7
			C357,317.3,356.6,318.2,357.1,319L357.1,319z M348.2,314.1c0.2,0,0.5,0,0.7,0c1,0,2,0.2,3.1,0.6c0.8,0.3,1.8-0.1,2.1-0.9
			c0.3-0.8-0.1-1.8-0.9-2.1c-1.5-0.5-2.9-0.8-4.3-0.8c-0.3,0-0.6,0-1,0c-0.9,0.1-1.5,0.8-1.5,1.7
			C346.5,313.5,347.3,314.2,348.2,314.1L348.2,314.1z M337.2,318.8c1.4-0.7,2.8-1.5,4.1-2.2c0.8-0.4,1.1-1.4,0.6-2.2
			c-0.4-0.8-1.4-1.1-2.2-0.6c-1.4,0.7-2.7,1.5-4,2.1c-0.8,0.4-1.1,1.4-0.7,2.2C335.5,318.9,336.4,319.2,337.2,318.8L337.2,318.8z
			 M323.7,319.1c0.3,0.2,0.7,0.4,1,0.5c1.3,0.6,2.7,1,3.9,1.1c0.9,0.1,1.7-0.5,1.8-1.4c0.1-0.9-0.5-1.7-1.4-1.8
			c-0.9-0.1-1.9-0.4-2.9-0.8c-0.3-0.1-0.5-0.3-0.8-0.4c-0.8-0.4-1.8-0.2-2.2,0.6C322.6,317.7,322.9,318.6,323.7,319.1L323.7,319.1z
			 M316.8,307.5c0.3,1.6,0.7,3.1,1.2,4.7c0.3,0.8,1.2,1.3,2.1,1c0.8-0.3,1.3-1.2,1-2.1c-0.5-1.3-0.8-2.7-1.1-4.2
			c-0.2-0.9-1-1.4-1.9-1.3C317.2,305.7,316.6,306.6,316.8,307.5L316.8,307.5z M312.7,296.8c1,0.9,1.6,2,2.2,3.2
			c0.4,0.8,1.3,1.2,2.1,0.8c0.8-0.4,1.2-1.3,0.8-2.1c-0.7-1.5-1.6-3-2.9-4.3c-0.6-0.6-1.7-0.6-2.3,0.1
			C312,295.1,312,296.2,312.7,296.8L312.7,296.8z M302.6,294.9c1.3-0.5,2.5-0.7,3.7-0.7l0.2,0c0.9,0,1.6-0.7,1.6-1.6
			c0-0.9-0.7-1.6-1.6-1.6l-0.2,0c-1.7,0-3.3,0.4-4.8,0.9c-0.8,0.3-1.3,1.2-1,2.1C300.8,294.8,301.8,295.2,302.6,294.9L302.6,294.9z
			 M291.1,300.4c1.6-0.5,3.1-1.2,4.5-1.9c0.8-0.4,1.1-1.4,0.7-2.2c-0.4-0.8-1.4-1.1-2.2-0.7c-1.3,0.7-2.6,1.3-3.9,1.7
			c-0.9,0.3-1.3,1.1-1.1,2C289.3,300.1,290.2,300.6,291.1,300.4L291.1,300.4z M277.9,296.7c1.1,1.2,2.4,2.3,4.2,3.1l0,0
			c0.8,0.4,1.8,0,2.1-0.8c0.4-0.8,0-1.8-0.8-2.1l0,0c-1.3-0.6-2.3-1.4-3.1-2.3c-0.6-0.7-1.6-0.7-2.3-0.2
			C277.4,295,277.4,296,277.9,296.7z M273.5,284.2c0.3,1.4,0.6,3,0.9,4.5c0.2,0.9,1,1.4,1.9,1.2c0.9-0.2,1.4-1,1.2-1.9
			c-0.3-1.4-0.6-3-0.9-4.5c-0.2-0.9-1-1.4-1.9-1.2C273.9,282.4,273.3,283.3,273.5,284.2z M267.6,275.2c1.4,0.6,2.3,1.4,3.1,2.3
			c0.6,0.7,1.6,0.8,2.3,0.2c0.7-0.6,0.8-1.6,0.2-2.3c-1.1-1.2-2.4-2.3-4.2-3.1c-0.8-0.4-1.8,0-2.1,0.8
			C266.4,273.9,266.8,274.9,267.6,275.2L267.6,275.2z"/>
		<path id="XMLID_183_" fill="#FFB8C7" d="M209.6,224.9c0.8,1.5,1.9,2.9,3.4,4c0.7,0.5,1.7,0.4,2.2-0.3c0.5-0.7,0.4-1.7-0.3-2.2
			c-1.1-0.8-1.8-1.8-2.5-2.9c-0.4-0.8-1.4-1.1-2.2-0.7C209.5,223.1,209.2,224.1,209.6,224.9L209.6,224.9z M206.1,212.5
			c0.4,1.3,0.8,2.8,1.1,4.3c0.2,0.9,1,1.4,1.9,1.2c0.9-0.2,1.4-1,1.2-1.9c-0.3-1.5-0.7-3.1-1.2-4.6c-0.3-0.8-1.2-1.3-2-1
			C206.3,210.8,205.8,211.7,206.1,212.5L206.1,212.5z M198.4,205.8c0.8,0.1,1.6,0.3,2.5,0.7c0.4,0.2,0.8,0.4,1.1,0.6
			c0.8,0.5,1.7,0.2,2.2-0.5c0.5-0.8,0.2-1.7-0.5-2.2c-0.5-0.3-1-0.5-1.5-0.8c-1.2-0.5-2.3-0.8-3.4-0.9c-0.9-0.1-1.7,0.5-1.8,1.4
			C196.9,205,197.6,205.7,198.4,205.8L198.4,205.8z M187.8,209.9c1.3-0.8,2.6-1.6,3.9-2.3c0.8-0.4,1.1-1.4,0.7-2.2
			c-0.4-0.8-1.4-1.1-2.2-0.7c-1.4,0.8-2.7,1.6-4,2.4c-0.8,0.5-1,1.4-0.5,2.2C186.1,210.1,187.1,210.4,187.8,209.9z M174.6,212.6
			c1.3,0.5,2.6,0.7,3.8,0.7c0.5,0,1,0,1.4-0.1c0.9-0.1,1.5-0.9,1.4-1.8c-0.1-0.9-0.9-1.5-1.8-1.4c-0.3,0-0.7,0.1-1,0.1
			c-0.9,0-1.8-0.1-2.7-0.5c-0.8-0.3-1.8,0.1-2,1C173.3,211.4,173.7,212.3,174.6,212.6L174.6,212.6z M166.1,202
			c0.4,1.6,0.9,3.2,1.6,4.7c0.4,0.8,1.4,1.1,2.2,0.7c0.8-0.4,1.1-1.4,0.7-2.2c-0.6-1.2-1-2.5-1.4-4c-0.2-0.9-1.1-1.4-1.9-1.2
			C166.5,200.3,165.9,201.2,166.1,202L166.1,202z M162.4,190.8c0.8,1,1.4,2.2,1.9,3.5c0.3,0.8,1.2,1.3,2,1c0.8-0.3,1.3-1.2,1-2
			c-0.6-1.6-1.3-3.1-2.4-4.5c-0.6-0.7-1.6-0.8-2.3-0.2C161.9,189.1,161.8,190.1,162.4,190.8z M152.7,188.3c1-0.4,2.1-0.6,3.1-0.6
			c0.2,0,0.5,0,0.7,0c0.9,0.1,1.7-0.6,1.8-1.5c0.1-0.9-0.6-1.7-1.5-1.8c-0.3,0-0.7,0-1,0c-1.5,0-2.9,0.3-4.2,0.7
			c-0.8,0.3-1.3,1.2-1,2C150.9,188.1,151.9,188.6,152.7,188.3L152.7,188.3z M141.6,194.2c1.5-0.6,2.9-1.4,4.3-2.2
			c0.8-0.5,1-1.4,0.6-2.2c-0.5-0.8-1.4-1-2.2-0.6c-1.3,0.8-2.6,1.5-3.8,2c-0.8,0.3-1.2,1.3-0.9,2.1
			C139.9,194.1,140.8,194.5,141.6,194.2L141.6,194.2z M128.2,191.7c1,1,2.2,1.9,3.7,2.5c0.2,0.1,0.5,0.2,0.7,0.3
			c0.8,0.3,1.8-0.1,2.1-1c0.3-0.8-0.1-1.8-1-2.1c-0.2-0.1-0.3-0.1-0.5-0.2c-1.2-0.5-2-1.1-2.7-1.8c-0.6-0.6-1.6-0.6-2.3,0
			C127.6,190,127.6,191.1,128.2,191.7L128.2,191.7z M123.4,179.3c0.3,1.4,0.6,3,1,4.5c0.2,0.9,1.1,1.4,1.9,1.2
			c0.9-0.2,1.4-1.1,1.2-1.9c-0.3-1.4-0.6-2.9-1-4.5c-0.2-0.9-1.1-1.4-1.9-1.2C123.7,177.6,123.2,178.4,123.4,179.3L123.4,179.3z
			 M117.5,170.4c1.4,0.6,2.3,1.3,3.1,2.2c0.6,0.7,1.6,0.7,2.3,0.2c0.7-0.6,0.7-1.6,0.2-2.3c-1.1-1.2-2.5-2.3-4.3-3.1
			c-0.8-0.4-1.8,0-2.1,0.8C116.3,169.1,116.6,170.1,117.5,170.4L117.5,170.4z"/>
		<path id="XMLID_184_" fill="#4B5E7F" d="M335.8,260.9h-1.2v3.6h-2.4v-2.4l3.6,0V260.9h-1.2H335.8v-1.2H331c-0.3,0-0.6,0.1-0.8,0.3
			c-0.2,0.2-0.3,0.5-0.3,0.8v4.8c0,0.3,0.1,0.6,0.3,0.8c0.2,0.2,0.5,0.3,0.8,0.3h4.8c0.3,0,0.6-0.1,0.8-0.3c0.2-0.2,0.3-0.5,0.3-0.8
			v-4.8c0-0.3-0.1-0.6-0.3-0.8c-0.2-0.2-0.5-0.3-0.8-0.3V260.9z"/>
		<path id="XMLID_185_" fill="#4B5E7F" d="M335.8,240v-1.2h-3.6v-2.4h2.4v3.6H335.8v-1.2V240h1.2v-4.8c0-0.3-0.1-0.6-0.3-0.8
			c-0.2-0.2-0.5-0.3-0.8-0.3H331c-0.3,0-0.6,0.1-0.8,0.3c-0.2,0.2-0.3,0.5-0.3,0.8v4.8c0,0.3,0.1,0.6,0.3,0.8
			c0.2,0.2,0.5,0.3,0.8,0.3h4.8c0.3,0,0.6-0.1,0.8-0.3c0.2-0.2,0.3-0.5,0.3-0.8H335.8z"/>
		<path id="XMLID_186_" fill="#4B5E7F" d="M291.6,260.4h-1.2v3.6H288v-2.4l3.6,0V260.4h-1.2H291.6v-1.2h-4.8c-0.3,0-0.6,0.1-0.8,0.3
			c-0.2,0.2-0.3,0.5-0.3,0.8v4.8c0,0.3,0.1,0.6,0.3,0.8c0.2,0.2,0.5,0.3,0.8,0.3h4.8c0.3,0,0.6-0.1,0.8-0.3c0.2-0.2,0.3-0.5,0.3-0.8
			v-4.8c0-0.3-0.1-0.6-0.3-0.8c-0.2-0.2-0.5-0.3-0.8-0.3V260.4z"/>
		<path id="XMLID_187_" fill="#4B5E7F" d="M291.6,240v-1.2H288v-2.4h2.4v3.6H291.6v-1.2V240h1.2v-4.8c0-0.3-0.1-0.6-0.3-0.8
			c-0.2-0.2-0.5-0.3-0.8-0.3h-4.8c-0.3,0-0.6,0.1-0.8,0.3c-0.2,0.2-0.3,0.5-0.3,0.8v4.8c0,0.3,0.1,0.6,0.3,0.8
			c0.2,0.2,0.5,0.3,0.8,0.3h4.8c0.3,0,0.6-0.1,0.8-0.3c0.2-0.2,0.3-0.5,0.3-0.8H291.6z"/>
		<path id="XMLID_188_" fill="#A1ABD0" d="M269.3,217.2V216h-3.6v-2.4h2.4v3.6H269.3V216V217.2h1.2v-4.8c0-0.3-0.1-0.6-0.3-0.8
			c-0.2-0.2-0.5-0.3-0.8-0.3h-4.8c-0.3,0-0.6,0.1-0.8,0.3c-0.2,0.2-0.3,0.5-0.3,0.8v4.8c0,0.3,0.1,0.6,0.3,0.8
			c0.2,0.2,0.5,0.3,0.8,0.3h4.8c0.3,0,0.6-0.1,0.8-0.3c0.2-0.2,0.3-0.5,0.3-0.8H269.3z"/>
		<path id="XMLID_189_" fill="#A1ABD0" d="M217.2,217.2V216h-3.6v-2.4h2.4v3.6H217.2V216V217.2h1.2v-4.8c0-0.3-0.1-0.6-0.3-0.8
			c-0.2-0.2-0.5-0.3-0.8-0.3h-4.8c-0.3,0-0.6,0.1-0.8,0.3c-0.2,0.2-0.3,0.5-0.3,0.8v4.8c0,0.3,0.1,0.6,0.3,0.8
			c0.2,0.2,0.5,0.3,0.8,0.3h4.8c0.3,0,0.6-0.1,0.8-0.3c0.2-0.2,0.3-0.5,0.3-0.8H217.2z"/>
		<path id="XMLID_190_" fill="#A1ABD0" d="M269.3,292.9v-1.2h-3.6v-2.4h2.4v3.6H269.3v-1.2V292.9h1.2v-4.8c0-0.3-0.1-0.6-0.3-0.8
			c-0.2-0.2-0.5-0.3-0.8-0.3h-4.8c-0.3,0-0.6,0.1-0.8,0.3c-0.2,0.2-0.3,0.5-0.3,0.8v4.8c0,0.3,0.1,0.6,0.3,0.8
			c0.2,0.2,0.5,0.3,0.8,0.3h4.8c0.3,0,0.6-0.1,0.8-0.3c0.2-0.2,0.3-0.5,0.3-0.8H269.3z"/>
		<path id="XMLID_191_" fill="#A1ABD0" d="M217.2,292.9v-1.2h-3.6v-2.4h2.4v3.6H217.2v-1.2V292.9h1.2v-4.8c0-0.3-0.1-0.6-0.3-0.8
			c-0.2-0.2-0.5-0.3-0.8-0.3h-4.8c-0.3,0-0.6,0.1-0.8,0.3c-0.2,0.2-0.3,0.5-0.3,0.8v4.8c0,0.3,0.1,0.6,0.3,0.8
			c0.2,0.2,0.5,0.3,0.8,0.3h4.8c0.3,0,0.6-0.1,0.8-0.3c0.2-0.2,0.3-0.5,0.3-0.8H217.2z"/>
		<path id="XMLID_199_" fill="#4B5E7F" d="M328.4,239.7h1.2c0.7,0,1.2-0.5,1.2-1.2c0-0.7-0.5-1.2-1.2-1.2h-1.2
			c-0.7,0-1.2,0.5-1.2,1.2C327.2,239.1,327.7,239.7,328.4,239.7z M322.5,239.7h1.2c0.7,0,1.2-0.5,1.2-1.2c0-0.7-0.5-1.2-1.2-1.2
			h-1.2c-0.7,0-1.2,0.5-1.2,1.2C321.3,239.1,321.8,239.7,322.5,239.7z M316.5,239.7h1.2c0.7,0,1.2-0.5,1.2-1.2
			c0-0.7-0.5-1.2-1.2-1.2h-1.2c-0.7,0-1.2,0.5-1.2,1.2C315.4,239.1,315.9,239.7,316.5,239.7z M310.6,239.7h1.2
			c0.7,0,1.2-0.5,1.2-1.2c0-0.7-0.5-1.2-1.2-1.2h-1.2c-0.7,0-1.2,0.5-1.2,1.2C309.5,239.1,310,239.7,310.6,239.7z M304.7,239.7h1.2
			c0.7,0,1.2-0.5,1.2-1.2c0-0.7-0.5-1.2-1.2-1.2h-1.2c-0.7,0-1.2,0.5-1.2,1.2C303.5,239.1,304.1,239.7,304.7,239.7z M298.8,239.7
			h1.2c0.7,0,1.2-0.5,1.2-1.2c0-0.7-0.5-1.2-1.2-1.2h-1.2c-0.7,0-1.2,0.5-1.2,1.2C297.6,239.1,298.2,239.7,298.8,239.7z
			 M292.9,239.7h1.2c0.7,0,1.2-0.5,1.2-1.2c0-0.7-0.5-1.2-1.2-1.2h-1.2c-0.7,0-1.2,0.5-1.2,1.2C291.7,239.1,292.2,239.7,292.9,239.7
			z"/>
		<path id="XMLID_207_" fill="#4B5E7F" d="M328.4,264.5h1.2c0.7,0,1.2-0.5,1.2-1.2c0-0.7-0.5-1.2-1.2-1.2h-1.2
			c-0.7,0-1.2,0.5-1.2,1.2C327.2,264,327.7,264.5,328.4,264.5z M322.5,264.5h1.2c0.7,0,1.2-0.5,1.2-1.2c0-0.7-0.5-1.2-1.2-1.2h-1.2
			c-0.7,0-1.2,0.5-1.2,1.2C321.3,264,321.8,264.5,322.5,264.5z M316.5,264.5h1.2c0.7,0,1.2-0.5,1.2-1.2c0-0.7-0.5-1.2-1.2-1.2h-1.2
			c-0.7,0-1.2,0.5-1.2,1.2C315.4,264,315.9,264.5,316.5,264.5z M310.6,264.5h1.2c0.7,0,1.2-0.5,1.2-1.2c0-0.7-0.5-1.2-1.2-1.2h-1.2
			c-0.7,0-1.2,0.5-1.2,1.2C309.5,264,310,264.5,310.6,264.5z M304.7,264.5h1.2c0.7,0,1.2-0.5,1.2-1.2c0-0.7-0.5-1.2-1.2-1.2h-1.2
			c-0.7,0-1.2,0.5-1.2,1.2C303.5,264,304.1,264.5,304.7,264.5z M298.8,264.5h1.2c0.7,0,1.2-0.5,1.2-1.2c0-0.7-0.5-1.2-1.2-1.2h-1.2
			c-0.7,0-1.2,0.5-1.2,1.2C297.6,264,298.2,264.5,298.8,264.5z M292.9,264.5h1.2c0.7,0,1.2-0.5,1.2-1.2c0-0.7-0.5-1.2-1.2-1.2h-1.2
			c-0.7,0-1.2,0.5-1.2,1.2C291.7,264,292.2,264.5,292.9,264.5z"/>
		<path id="XMLID_212_" fill="#4B5E7F" d="M288.2,258.6v1.2c0,0.7,0.5,1.2,1.2,1.2c0.7,0,1.2-0.5,1.2-1.2v-1.2
			c0-0.7-0.5-1.2-1.2-1.2C288.7,257.4,288.2,257.9,288.2,258.6z M288.2,252.7v1.2c0,0.7,0.5,1.2,1.2,1.2c0.7,0,1.2-0.5,1.2-1.2v-1.2
			c0-0.7-0.5-1.2-1.2-1.2C288.7,251.5,288.2,252,288.2,252.7z M288.2,246.8v1.2c0,0.7,0.5,1.2,1.2,1.2c0.7,0,1.2-0.5,1.2-1.2v-1.2
			c0-0.7-0.5-1.2-1.2-1.2C288.7,245.6,288.2,246.1,288.2,246.8z M288.2,240.8v1.2c0,0.7,0.5,1.2,1.2,1.2c0.7,0,1.2-0.5,1.2-1.2v-1.2
			c0-0.7-0.5-1.2-1.2-1.2C288.7,239.7,288.2,240.2,288.2,240.8z"/>
		<path id="XMLID_217_" fill="#4B5E7F" d="M331.9,258.6v1.2c0,0.7,0.5,1.2,1.2,1.2c0.7,0,1.2-0.5,1.2-1.2v-1.2
			c0-0.7-0.5-1.2-1.2-1.2C332.5,257.4,331.9,257.9,331.9,258.6z M331.9,252.7v1.2c0,0.7,0.5,1.2,1.2,1.2c0.7,0,1.2-0.5,1.2-1.2v-1.2
			c0-0.7-0.5-1.2-1.2-1.2C332.5,251.5,331.9,252,331.9,252.7z M331.9,246.8v1.2c0,0.7,0.5,1.2,1.2,1.2c0.7,0,1.2-0.5,1.2-1.2v-1.2
			c0-0.7-0.5-1.2-1.2-1.2C332.5,245.6,331.9,246.1,331.9,246.8z M331.9,240.8v1.2c0,0.7,0.5,1.2,1.2,1.2c0.7,0,1.2-0.5,1.2-1.2v-1.2
			c0-0.7-0.5-1.2-1.2-1.2C332.5,239.7,331.9,240.2,331.9,240.8z"/>
		<path id="XMLID_221_" fill="#4B5E7F" d="M246.9,249.3c0.3-0.1,0.7-0.1,1.1-0.2c0.6-0.1,1.1-0.7,1-1.3c-0.1-0.6-0.7-1.1-1.3-1
			c-0.4,0.1-0.9,0.1-1.3,0.2c-0.6,0.2-1,0.8-0.9,1.4C245.7,249,246.3,249.4,246.9,249.3L246.9,249.3z M242.5,251.8
			c0.2-0.2,0.5-0.5,0.7-0.7c0.5-0.4,0.6-1.2,0.1-1.7c-0.4-0.5-1.2-0.6-1.7-0.1c-0.4,0.3-0.7,0.6-1,0.9c-0.4,0.5-0.4,1.2,0.1,1.7
			C241.3,252.4,242.1,252.3,242.5,251.8L242.5,251.8z M240.6,256.4L240.6,256.4L240.6,256.4L240.6,256.4L240.6,256.4L240.6,256.4
			c0,0,0-0.4,0.1-1c0.1-0.6-0.3-1.3-0.9-1.4c-0.6-0.1-1.3,0.3-1.4,0.9c-0.2,0.8-0.2,1.3-0.2,1.4c0,0.7,0.5,1.2,1.2,1.2
			C240,257.6,240.6,257.1,240.6,256.4L240.6,256.4z"/>
		<path id="XMLID_225_" fill="#4B5E7F" d="M232.7,247c-0.4-0.1-0.8-0.2-1.3-0.2c-0.6-0.1-1.2,0.3-1.3,1c-0.1,0.6,0.3,1.2,1,1.3
			c0.4,0.1,0.7,0.1,1.1,0.2c0.6,0.2,1.3-0.2,1.4-0.9C233.7,247.8,233.3,247.1,232.7,247L232.7,247z M238.3,250.3
			c-0.3-0.3-0.6-0.6-1-0.9c-0.5-0.4-1.2-0.4-1.7,0.1c-0.4,0.5-0.4,1.2,0.1,1.7c0.3,0.2,0.5,0.5,0.7,0.7c0.4,0.5,1.2,0.5,1.7,0.1
			C238.7,251.5,238.8,250.7,238.3,250.3L238.3,250.3z M240.9,256.4c0-0.1,0-0.6-0.2-1.4c-0.1-0.6-0.8-1-1.4-0.9
			c-0.6,0.1-1,0.8-0.9,1.4c0.1,0.3,0.1,0.6,0.1,0.7l0,0.2l0,0l0,0l0,0v0l0,0l0,0c0,0.7,0.6,1.2,1.2,1.2
			C240.4,257.6,240.9,257,240.9,256.4L240.9,256.4z"/>
		<path id="XMLID_226_" fill="#A1ABD0" d="M38.7,225.5H203c0.7,0,1.2-0.5,1.2-1.2c0-0.7-0.5-1.2-1.2-1.2H38.7
			c-0.7,0-1.2,0.5-1.2,1.2C37.5,224.9,38,225.5,38.7,225.5"/>
		<path id="XMLID_227_" fill="#A1ABD0" d="M38.7,278.7H203c0.7,0,1.2-0.5,1.2-1.2c0-0.7-0.5-1.2-1.2-1.2H38.7
			c-0.7,0-1.2,0.5-1.2,1.2C37.5,278.1,38,278.7,38.7,278.7"/>
		<path id="XMLID_228_" fill="#A1ABD0" d="M277.5,225.5h164.4c0.7,0,1.2-0.5,1.2-1.2c0-0.7-0.5-1.2-1.2-1.2H277.5
			c-0.7,0-1.2,0.5-1.2,1.2C276.3,224.9,276.9,225.5,277.5,225.5"/>
		<path id="XMLID_229_" fill="#A1ABD0" d="M277.5,278.7h164.4c0.7,0,1.2-0.5,1.2-1.2c0-0.7-0.5-1.2-1.2-1.2H277.5
			c-0.7,0-1.2,0.5-1.2,1.2C276.3,278.1,276.9,278.7,277.5,278.7"/>
		<path id="XMLID_230_" fill="#A1ABD0" d="M102.5,273.9v7.1c0,0.7,0.5,1.2,1.2,1.2c0.7,0,1.2-0.5,1.2-1.2v-7.1
			c0-0.7-0.5-1.2-1.2-1.2C103,272.8,102.5,273.3,102.5,273.9"/>
		<path id="XMLID_231_" fill="#A1ABD0" d="M133.3,273.9v7.1c0,0.7,0.5,1.2,1.2,1.2c0.7,0,1.2-0.5,1.2-1.2v-7.1
			c0-0.7-0.5-1.2-1.2-1.2C133.8,272.8,133.3,273.3,133.3,273.9"/>
		<path id="XMLID_232_" fill="#A1ABD0" d="M164,273.9v7.1c0,0.7,0.5,1.2,1.2,1.2c0.7,0,1.2-0.5,1.2-1.2v-7.1c0-0.7-0.5-1.2-1.2-1.2
			C164.5,272.8,164,273.3,164,273.9"/>
		<path id="XMLID_233_" fill="#A1ABD0" d="M102.5,220.7v7.1c0,0.7,0.5,1.2,1.2,1.2c0.7,0,1.2-0.5,1.2-1.2v-7.1
			c0-0.7-0.5-1.2-1.2-1.2C103,219.6,102.5,220.1,102.5,220.7"/>
		<path id="XMLID_234_" fill="#A1ABD0" d="M133.3,220.7v7.1c0,0.7,0.5,1.2,1.2,1.2c0.7,0,1.2-0.5,1.2-1.2v-7.1
			c0-0.7-0.5-1.2-1.2-1.2C133.8,219.6,133.3,220.1,133.3,220.7"/>
		<path id="XMLID_235_" fill="#A1ABD0" d="M164,220.7v7.1c0,0.7,0.5,1.2,1.2,1.2c0.7,0,1.2-0.5,1.2-1.2v-7.1c0-0.7-0.5-1.2-1.2-1.2
			C164.5,219.6,164,220.1,164,220.7"/>
		<path id="XMLID_236_" fill="#A1ABD0" d="M304.7,220.7v7.1c0,0.7,0.5,1.2,1.2,1.2c0.7,0,1.2-0.5,1.2-1.2v-7.1
			c0-0.7-0.5-1.2-1.2-1.2C305.3,219.6,304.7,220.1,304.7,220.7"/>
		<path id="XMLID_237_" fill="#A1ABD0" d="M335.5,220.7v7.1c0,0.7,0.5,1.2,1.2,1.2c0.7,0,1.2-0.5,1.2-1.2v-7.1
			c0-0.7-0.5-1.2-1.2-1.2C336,219.6,335.5,220.1,335.5,220.7"/>
		<path id="XMLID_238_" fill="#A1ABD0" d="M366.2,220.7v7.1c0,0.7,0.5,1.2,1.2,1.2c0.7,0,1.2-0.5,1.2-1.2v-7.1
			c0-0.7-0.5-1.2-1.2-1.2C366.7,219.6,366.2,220.1,366.2,220.7"/>
		<path id="XMLID_239_" fill="#A1ABD0" d="M397,220.7v7.1c0,0.7,0.5,1.2,1.2,1.2c0.7,0,1.2-0.5,1.2-1.2v-7.1c0-0.7-0.5-1.2-1.2-1.2
			C397.5,219.6,397,220.1,397,220.7"/>
		<path id="XMLID_240_" fill="#A1ABD0" d="M304.7,273.9v7.1c0,0.7,0.5,1.2,1.2,1.2c0.7,0,1.2-0.5,1.2-1.2v-7.1
			c0-0.7-0.5-1.2-1.2-1.2C305.3,272.8,304.7,273.3,304.7,273.9"/>
		<path id="XMLID_241_" fill="#A1ABD0" d="M335.5,273.9v7.1c0,0.7,0.5,1.2,1.2,1.2c0.7,0,1.2-0.5,1.2-1.2v-7.1
			c0-0.7-0.5-1.2-1.2-1.2C336,272.8,335.5,273.3,335.5,273.9"/>
		<path id="XMLID_242_" fill="#A1ABD0" d="M366.2,273.9v7.1c0,0.7,0.5,1.2,1.2,1.2c0.7,0,1.2-0.5,1.2-1.2v-7.1
			c0-0.7-0.5-1.2-1.2-1.2C366.7,272.8,366.2,273.3,366.2,273.9"/>
		<path id="XMLID_243_" fill="#A1ABD0" d="M397,273.9v7.1c0,0.7,0.5,1.2,1.2,1.2c0.7,0,1.2-0.5,1.2-1.2v-7.1c0-0.7-0.5-1.2-1.2-1.2
			C397.5,272.8,397,273.3,397,273.9"/>
		<path id="XMLID_244_" fill="#A1ABD0" d="M265.7,43.4v169.1c0,0.7,0.5,1.2,1.2,1.2c0.7,0,1.2-0.5,1.2-1.2V43.4
			c0-0.7-0.5-1.2-1.2-1.2C266.2,42.2,265.7,42.7,265.7,43.4"/>
		<path id="XMLID_245_" fill="#A1ABD0" d="M213.7,43.4v169.1c0,0.7,0.5,1.2,1.2,1.2c0.7,0,1.2-0.5,1.2-1.2V43.4
			c0-0.7-0.5-1.2-1.2-1.2C214.2,42.2,213.7,42.7,213.7,43.4"/>
		<path id="XMLID_246_" fill="#A1ABD0" d="M265.7,292.9V462c0,0.7,0.5,1.2,1.2,1.2c0.7,0,1.2-0.5,1.2-1.2V292.9
			c0-0.7-0.5-1.2-1.2-1.2C266.2,291.7,265.7,292.2,265.7,292.9"/>
		<path id="XMLID_247_" fill="#A1ABD0" d="M213.7,292.9V462c0,0.7,0.5,1.2,1.2,1.2c0.7,0,1.2-0.5,1.2-1.2V292.9
			c0-0.7-0.5-1.2-1.2-1.2C214.2,291.7,213.7,292.2,213.7,292.9"/>
		<path id="XMLID_330_" fill="#FFB8C7" d="M443.1,252.1c0,1.5,0,3-0.1,4.5c-0.1,0.9,0.6,1.7,1.5,1.7c0.9,0.1,1.7-0.6,1.7-1.5
			c0.1-1.6,0.2-3.1,0.2-4.7c0-0.9-0.7-1.6-1.6-1.6C443.8,250.5,443.1,251.3,443.1,252.1L443.1,252.1z M442.6,244.2
			c0.2,1.5,0.3,3,0.4,4.5c0,0.9,0.8,1.6,1.7,1.5c0.9,0,1.6-0.8,1.5-1.7c-0.1-1.6-0.2-3.1-0.4-4.7c-0.1-0.9-0.9-1.5-1.8-1.4
			C443.1,242.5,442.5,243.3,442.6,244.2z M440.1,232.2c0.4,1.4,0.8,2.9,1.2,4.3c0.2,0.9,1.1,1.4,1.9,1.2c0.9-0.2,1.4-1.1,1.2-1.9
			c-0.4-1.5-0.8-3-1.2-4.5c-0.3-0.9-1.2-1.3-2-1.1C440.3,230.4,439.8,231.3,440.1,232.2L440.1,232.2z M435.6,220.7
			c0.7,1.4,1.3,2.7,1.9,4.1c0.3,0.8,1.3,1.2,2.1,0.9c0.8-0.3,1.2-1.3,0.9-2.1c-0.6-1.4-1.2-2.9-1.9-4.3c-0.4-0.8-1.4-1.1-2.2-0.7
			C435.5,218.9,435.2,219.9,435.6,220.7L435.6,220.7z M429.3,210c0.9,1.3,1.7,2.5,2.4,3.8c0.5,0.8,1.5,1,2.2,0.5
			c0.8-0.5,1-1.5,0.5-2.2c-0.8-1.3-1.6-2.6-2.5-3.9c-0.5-0.7-1.5-0.9-2.2-0.4C429,208.2,428.8,209.2,429.3,210L429.3,210z
			 M421.7,200.1c1,1.1,2,2.3,2.9,3.5c0.6,0.7,1.6,0.8,2.3,0.3c0.7-0.6,0.8-1.6,0.3-2.3c-1-1.2-2-2.4-3-3.6c-0.6-0.7-1.6-0.7-2.3-0.2
			C421.2,198.5,421.2,199.5,421.7,200.1L421.7,200.1z M413.1,191.2c1.1,1,2.2,2.1,3.3,3.2c0.6,0.6,1.6,0.6,2.3,0
			c0.6-0.6,0.6-1.6,0-2.3c-1.1-1.1-2.2-2.2-3.3-3.2c-0.6-0.6-1.7-0.6-2.3,0.1C412.4,189.6,412.4,190.6,413.1,191.2L413.1,191.2z
			 M403.6,183.1c1.2,0.9,2.4,1.9,3.5,2.8c0.7,0.6,1.7,0.5,2.3-0.2c0.6-0.7,0.5-1.7-0.2-2.3c-1.2-1-2.4-2-3.6-2.9
			c-0.7-0.5-1.7-0.4-2.3,0.3C402.7,181.6,402.9,182.6,403.6,183.1L403.6,183.1z M393.4,175.8c1.3,0.8,2.5,1.7,3.8,2.6
			c0.7,0.5,1.7,0.3,2.2-0.4c0.5-0.7,0.3-1.7-0.4-2.2c-1.3-0.9-2.5-1.8-3.8-2.6c-0.7-0.5-1.7-0.3-2.2,0.5
			C392.4,174.3,392.6,175.3,393.4,175.8L393.4,175.8z M382.7,169.3c1.3,0.8,2.6,1.5,3.9,2.3c0.8,0.5,1.7,0.2,2.2-0.6
			c0.5-0.8,0.2-1.7-0.6-2.2c-1.3-0.8-2.7-1.6-4-2.3c-0.8-0.4-1.8-0.2-2.2,0.6C381.7,167.9,381.9,168.8,382.7,169.3z M371.6,163.4
			c1.4,0.7,2.7,1.4,4.1,2c0.8,0.4,1.8,0.1,2.2-0.7c0.4-0.8,0.1-1.8-0.7-2.2c-1.4-0.7-2.7-1.4-4.1-2.1c-0.8-0.4-1.8-0.1-2.2,0.7
			C370.5,162.1,370.8,163,371.6,163.4L371.6,163.4z M360.2,158.2c1.4,0.6,2.8,1.2,4.2,1.8c0.8,0.4,1.8,0,2.1-0.8
			c0.4-0.8,0-1.8-0.8-2.1c-1.4-0.6-2.8-1.2-4.2-1.8c-0.8-0.3-1.8,0-2.1,0.9C359,156.9,359.4,157.9,360.2,158.2L360.2,158.2z
			 M348.5,153.6c1.4,0.5,2.9,1.1,4.3,1.6c0.8,0.3,1.8-0.1,2.1-0.9c0.3-0.8-0.1-1.8-0.9-2.1c-1.4-0.6-2.9-1.1-4.3-1.6
			c-0.8-0.3-1.8,0.1-2.1,1C347.2,152.4,347.7,153.3,348.5,153.6L348.5,153.6z M336.6,149.6c1.5,0.5,2.9,0.9,4.4,1.4
			c0.8,0.3,1.8-0.2,2-1c0.3-0.8-0.2-1.8-1-2c-1.5-0.5-2.9-1-4.4-1.4c-0.8-0.3-1.7,0.2-2,1.1C335.3,148.5,335.8,149.4,336.6,149.6
			L336.6,149.6z M324.5,146.2c1.5,0.4,3,0.8,4.4,1.2c0.9,0.2,1.7-0.3,2-1.1c0.2-0.9-0.3-1.7-1.1-2c-1.5-0.4-3-0.8-4.5-1.2
			c-0.9-0.2-1.7,0.3-2,1.1C323.1,145.1,323.7,145.9,324.5,146.2L324.5,146.2z M312.3,143.2c1.5,0.3,3,0.7,4.5,1
			c0.9,0.2,1.7-0.3,1.9-1.2c0.2-0.9-0.3-1.7-1.2-1.9c-1.5-0.4-3-0.7-4.5-1c-0.9-0.2-1.7,0.4-1.9,1.2
			C310.9,142.2,311.4,143,312.3,143.2L312.3,143.2z M300,140.8c1.5,0.3,3,0.5,4.5,0.8c0.9,0.2,1.7-0.4,1.9-1.3
			c0.2-0.9-0.4-1.7-1.3-1.9c-1.5-0.3-3-0.6-4.5-0.8c-0.9-0.2-1.7,0.4-1.9,1.3C298.5,139.8,299.1,140.6,300,140.8L300,140.8z
			 M287.5,138.8c1.5,0.2,3,0.4,4.5,0.7c0.9,0.1,1.7-0.5,1.8-1.3c0.1-0.9-0.5-1.7-1.3-1.8c-1.5-0.2-3-0.5-4.6-0.7
			c-0.9-0.1-1.7,0.5-1.8,1.4C286,137.9,286.7,138.7,287.5,138.8L287.5,138.8z M275,137.4c1.5,0.2,3,0.3,4.5,0.5
			c0.9,0.1,1.7-0.5,1.8-1.4c0.1-0.9-0.5-1.7-1.4-1.8c-1.5-0.2-3.1-0.3-4.6-0.5c-0.9-0.1-1.7,0.6-1.8,1.4
			C273.5,136.5,274.2,137.3,275,137.4L275,137.4z M262.5,136.3c1.5,0.1,3,0.2,4.6,0.3c0.9,0.1,1.7-0.6,1.7-1.5
			c0.1-0.9-0.6-1.7-1.5-1.7c-1.5-0.1-3.1-0.2-4.6-0.3c-0.9-0.1-1.6,0.6-1.7,1.5C260.9,135.5,261.6,136.3,262.5,136.3L262.5,136.3z
			 M249.9,135.8c1.5,0,3.1,0.1,4.6,0.2c0.9,0,1.6-0.7,1.7-1.5c0-0.9-0.7-1.6-1.5-1.7c-1.5-0.1-3.1-0.1-4.6-0.2
			c-0.9,0-1.6,0.7-1.7,1.6C248.4,135,249.1,135.8,249.9,135.8L249.9,135.8z M237.4,135.7c1,0,1.9,0,2.9,0c0.6,0,1.1,0,1.7,0
			c0.9,0,1.6-0.7,1.6-1.6c0-0.9-0.7-1.6-1.6-1.6c-0.6,0-1.1,0-1.7,0c-1,0-2,0-2.9,0c-0.9,0-1.6,0.7-1.6,1.6
			C235.7,135,236.5,135.7,237.4,135.7z M224.8,136c1.5-0.1,3-0.1,4.6-0.2c0.9,0,1.6-0.8,1.6-1.7c0-0.9-0.8-1.6-1.7-1.6
			c-1.5,0-3.1,0.1-4.6,0.2c-0.9,0-1.6,0.8-1.5,1.7C223.1,135.3,223.9,136,224.8,136L224.8,136z M212.2,136.8c1.5-0.1,3-0.2,4.6-0.3
			c0.9-0.1,1.6-0.8,1.5-1.7c-0.1-0.9-0.8-1.6-1.7-1.5c-1.5,0.1-3.1,0.2-4.6,0.3c-0.9,0.1-1.5,0.8-1.5,1.7
			C210.6,136.2,211.3,136.8,212.2,136.8L212.2,136.8z M199.7,138c1.5-0.2,3-0.3,4.5-0.5c0.9-0.1,1.5-0.9,1.4-1.8
			c-0.1-0.9-0.9-1.5-1.8-1.4c-1.5,0.2-3.1,0.3-4.6,0.5c-0.9,0.1-1.5,0.9-1.4,1.8C198,137.5,198.8,138.1,199.7,138L199.7,138z
			 M187.2,139.7c1.5-0.2,3-0.5,4.5-0.7c0.9-0.1,1.5-0.9,1.4-1.8c-0.1-0.9-0.9-1.5-1.8-1.4c-1.5,0.2-3.1,0.4-4.6,0.7
			c-0.9,0.1-1.5,1-1.3,1.8C185.5,139.2,186.4,139.8,187.2,139.7L187.2,139.7z M174.9,141.9c1.5-0.3,3-0.6,4.5-0.8
			c0.9-0.2,1.5-1,1.3-1.9c-0.2-0.9-1-1.5-1.9-1.3c-1.5,0.3-3,0.6-4.5,0.9c-0.9,0.2-1.4,1-1.3,1.9C173.1,141.5,174,142,174.9,141.9
			L174.9,141.9z M162.6,144.5c1.5-0.4,3-0.7,4.5-1c0.9-0.2,1.4-1.1,1.2-1.9c-0.2-0.9-1.1-1.4-1.9-1.2c-1.5,0.3-3,0.7-4.5,1
			c-0.9,0.2-1.4,1.1-1.2,1.9C160.8,144.2,161.7,144.7,162.6,144.5L162.6,144.5z M150.4,147.7c1.5-0.4,2.9-0.8,4.4-1.2
			c0.9-0.2,1.4-1.1,1.1-2c-0.2-0.9-1.1-1.4-2-1.1c-1.5,0.4-3,0.8-4.5,1.2c-0.9,0.2-1.3,1.1-1.1,2C148.7,147.5,149.6,148,150.4,147.7
			L150.4,147.7z M138.4,151.4c1.4-0.5,2.9-1,4.3-1.4c0.8-0.3,1.3-1.2,1-2c-0.3-0.8-1.2-1.3-2-1c-1.5,0.5-2.9,0.9-4.4,1.4
			c-0.8,0.3-1.3,1.2-1,2C136.7,151.3,137.6,151.7,138.4,151.4z M126.6,155.7c1.4-0.6,2.8-1.1,4.3-1.6c0.8-0.3,1.3-1.2,1-2.1
			c-0.3-0.8-1.2-1.3-2.1-1c-1.5,0.5-2.9,1.1-4.3,1.6c-0.8,0.3-1.2,1.3-0.9,2.1C124.8,155.6,125.8,156,126.6,155.7z M115,160.6
			c1.4-0.6,2.8-1.2,4.2-1.8c0.8-0.4,1.2-1.3,0.8-2.1c-0.4-0.8-1.3-1.2-2.1-0.8c-1.4,0.6-2.8,1.2-4.2,1.9c-0.8,0.4-1.2,1.3-0.8,2.1
			C113.3,160.6,114.2,160.9,115,160.6L115,160.6z M103.7,166.1c1.3-0.7,2.7-1.4,4.1-2.1c0.8-0.4,1.1-1.4,0.7-2.2
			c-0.4-0.8-1.4-1.1-2.2-0.7c-1.4,0.7-2.8,1.4-4.1,2.1c-0.8,0.4-1.1,1.4-0.7,2.2C102,166.2,103,166.5,103.7,166.1L103.7,166.1z
			 M92.8,172.2c1.3-0.8,2.6-1.6,3.9-2.3c0.8-0.4,1-1.4,0.6-2.2c-0.4-0.8-1.4-1-2.2-0.6c-1.3,0.8-2.7,1.6-4,2.4
			c-0.8,0.5-1,1.5-0.5,2.2C91.1,172.4,92.1,172.7,92.8,172.2L92.8,172.2z M82.4,179.1c1.2-0.9,2.5-1.7,3.7-2.6
			c0.7-0.5,0.9-1.5,0.4-2.2c-0.5-0.7-1.5-0.9-2.2-0.4c-1.3,0.9-2.6,1.7-3.8,2.6c-0.7,0.5-0.9,1.5-0.4,2.2
			C80.7,179.5,81.7,179.6,82.4,179.1L82.4,179.1z M72.5,186.8c1.1-1,2.3-1.9,3.5-2.9c0.7-0.6,0.8-1.6,0.3-2.3
			c-0.6-0.7-1.6-0.8-2.3-0.3c-1.2,1-2.4,1.9-3.6,2.9c-0.7,0.6-0.8,1.6-0.2,2.3C70.8,187.2,71.8,187.3,72.5,186.8L72.5,186.8z
			 M63.3,195.2c1-1.1,2.1-2.1,3.2-3.2c0.6-0.6,0.7-1.6,0.1-2.3c-0.6-0.6-1.6-0.7-2.3-0.1c-1.1,1.1-2.2,2.2-3.3,3.3
			c-0.6,0.6-0.6,1.7,0,2.3C61.7,195.9,62.7,195.9,63.3,195.2z M55.1,204.6c0.9-1.2,1.9-2.3,2.9-3.5c0.6-0.7,0.5-1.7-0.2-2.3
			c-0.7-0.6-1.7-0.5-2.3,0.2c-1,1.2-2,2.4-2.9,3.6c-0.5,0.7-0.4,1.7,0.3,2.3C53.6,205.4,54.6,205.3,55.1,204.6L55.1,204.6z
			 M48.1,214.8c0.8-1.3,1.6-2.6,2.4-3.8c0.5-0.7,0.3-1.7-0.5-2.2c-0.7-0.5-1.7-0.3-2.2,0.5c-0.9,1.3-1.7,2.6-2.5,4
			c-0.5,0.8-0.2,1.8,0.6,2.2C46.7,215.9,47.7,215.6,48.1,214.8L48.1,214.8z M42.6,225.9c0.6-1.4,1.2-2.8,1.8-4.1
			c0.4-0.8,0-1.8-0.8-2.1c-0.8-0.4-1.8,0-2.1,0.8c-0.7,1.4-1.3,2.9-1.9,4.3c-0.3,0.8,0.1,1.8,0.9,2.1
			C41.4,227.2,42.3,226.8,42.6,225.9z M39,237.7c0.3-1.5,0.7-2.9,1.1-4.4c0.2-0.9-0.3-1.7-1.1-2c-0.9-0.2-1.7,0.3-2,1.1
			c-0.4,1.5-0.8,3-1.1,4.6c-0.2,0.9,0.4,1.7,1.2,1.9C38,239.1,38.8,238.6,39,237.7z M37.5,249.9c0-1.5,0.1-3,0.3-4.5
			c0.1-0.9-0.6-1.7-1.4-1.8c-0.9-0.1-1.7,0.6-1.8,1.4c-0.2,1.6-0.3,3.1-0.3,4.7c0,0.9,0.7,1.6,1.6,1.7
			C36.7,251.5,37.5,250.8,37.5,249.9z M38.2,262.2c-0.2-1.5-0.4-3-0.5-4.5c-0.1-0.9-0.9-1.5-1.7-1.5c-0.9,0.1-1.5,0.9-1.5,1.7
			c0.1,1.6,0.3,3.1,0.5,4.7c0.1,0.9,1,1.5,1.8,1.4C37.8,263.9,38.4,263.1,38.2,262.2L38.2,262.2z M41.1,274.2
			c-0.5-1.4-0.9-2.9-1.3-4.3c-0.2-0.9-1.1-1.4-2-1.1c-0.9,0.2-1.4,1.1-1.1,2c0.4,1.5,0.9,3,1.4,4.5c0.3,0.8,1.2,1.3,2,1
			C41,276,41.4,275.1,41.1,274.2z M46,285.6c-0.7-1.3-1.4-2.7-2-4c-0.4-0.8-1.3-1.2-2.1-0.8c-0.8,0.4-1.2,1.3-0.8,2.1
			c0.6,1.4,1.3,2.8,2.1,4.2c0.4,0.8,1.4,1.1,2.2,0.7C46.1,287.3,46.4,286.4,46,285.6L46,285.6z M52.5,296.1
			c-0.9-1.2-1.7-2.5-2.5-3.7c-0.5-0.7-1.5-1-2.2-0.5c-0.7,0.5-1,1.5-0.5,2.2c0.8,1.3,1.7,2.6,2.6,3.9c0.5,0.7,1.5,0.9,2.2,0.4
			C52.8,297.9,53,296.9,52.5,296.1L52.5,296.1z M60.3,305.8c-1-1.1-2-2.3-3-3.4c-0.6-0.7-1.6-0.8-2.3-0.2c-0.7,0.6-0.8,1.6-0.2,2.3
			c1,1.2,2,2.4,3.1,3.5c0.6,0.7,1.6,0.7,2.3,0.1C60.8,307.5,60.9,306.5,60.3,305.8L60.3,305.8z M69.1,314.6c-1.1-1-2.2-2.1-3.3-3.1
			c-0.6-0.6-1.7-0.6-2.3,0c-0.6,0.6-0.6,1.7,0,2.3c1.1,1.1,2.2,2.1,3.4,3.2c0.7,0.6,1.7,0.5,2.3-0.1
			C69.9,316.2,69.8,315.2,69.1,314.6L69.1,314.6z M78.8,322.5c-1.2-0.9-2.4-1.9-3.6-2.8c-0.7-0.6-1.7-0.4-2.3,0.2
			c-0.6,0.7-0.4,1.7,0.2,2.3c1.2,1,2.4,1.9,3.7,2.9c0.7,0.5,1.7,0.4,2.3-0.3C79.6,324.1,79.5,323.1,78.8,322.5z M89,329.7
			c-1.3-0.8-2.6-1.7-3.8-2.5c-0.7-0.5-1.7-0.3-2.2,0.4c-0.5,0.7-0.3,1.7,0.4,2.2c1.3,0.9,2.6,1.7,3.9,2.6c0.7,0.5,1.7,0.3,2.2-0.5
			C90,331.2,89.8,330.2,89,329.7L89,329.7z M99.8,336.1c-1.3-0.7-2.7-1.5-4-2.3c-0.8-0.4-1.8-0.2-2.2,0.6c-0.4,0.8-0.2,1.8,0.6,2.2
			c1.3,0.8,2.7,1.5,4,2.3c0.8,0.4,1.8,0.1,2.2-0.6C100.9,337.5,100.6,336.5,99.8,336.1z M111,341.8c-1.4-0.7-2.7-1.3-4.1-2
			c-0.8-0.4-1.8-0.1-2.2,0.7c-0.4,0.8-0.1,1.8,0.7,2.2c1.4,0.7,2.8,1.4,4.2,2c0.8,0.4,1.8,0,2.1-0.8
			C112.1,343.2,111.8,342.2,111,341.8z M122.4,346.9c-1.4-0.6-2.8-1.2-4.2-1.8c-0.8-0.4-1.8,0-2.1,0.8c-0.4,0.8,0,1.8,0.8,2.1
			c1.4,0.6,2.8,1.2,4.3,1.8c0.8,0.3,1.8-0.1,2.1-0.9C123.7,348.2,123.3,347.3,122.4,346.9L122.4,346.9z M134.2,351.4
			c-1.4-0.5-2.9-1-4.3-1.6c-0.8-0.3-1.8,0.1-2.1,0.9c-0.3,0.8,0.1,1.8,0.9,2.1c1.4,0.5,2.9,1.1,4.3,1.6c0.8,0.3,1.8-0.1,2.1-1
			C135.4,352.6,135,351.7,134.2,351.4L134.2,351.4z M146.1,355.3c-1.5-0.4-2.9-0.9-4.4-1.4c-0.8-0.3-1.8,0.2-2,1
			c-0.3,0.8,0.2,1.8,1,2c1.5,0.5,2.9,0.9,4.4,1.4c0.8,0.3,1.7-0.2,2-1.1C147.4,356.5,147,355.6,146.1,355.3L146.1,355.3z
			 M158.2,358.7c-1.5-0.4-3-0.8-4.4-1.2c-0.9-0.2-1.7,0.3-2,1.1c-0.2,0.9,0.3,1.7,1.1,2c1.5,0.4,3,0.8,4.5,1.2
			c0.9,0.2,1.7-0.3,2-1.2C159.6,359.8,159.1,358.9,158.2,358.7L158.2,358.7z M170.5,361.5c-1.5-0.3-3-0.6-4.5-1
			c-0.9-0.2-1.7,0.3-1.9,1.2c-0.2,0.9,0.3,1.7,1.2,1.9c1.5,0.3,3,0.7,4.5,1c0.9,0.2,1.7-0.4,1.9-1.2
			C171.9,362.6,171.3,361.7,170.5,361.5L170.5,361.5z M182.8,363.9c-1.5-0.3-3-0.5-4.5-0.8c-0.9-0.2-1.7,0.4-1.9,1.3
			c-0.2,0.9,0.4,1.7,1.3,1.9c1.5,0.3,3,0.5,4.5,0.8c0.9,0.1,1.7-0.4,1.9-1.3C184.3,364.9,183.7,364,182.8,363.9L182.8,363.9z
			 M195.3,365.7c-1.5-0.2-3-0.4-4.5-0.6c-0.9-0.1-1.7,0.5-1.8,1.4c-0.1,0.9,0.5,1.7,1.4,1.8c1.5,0.2,3,0.4,4.6,0.6
			c0.9,0.1,1.7-0.5,1.8-1.4C196.8,366.7,196.1,365.9,195.3,365.7L195.3,365.7z M207.8,367.1c-1.5-0.1-3-0.3-4.6-0.5
			c-0.9-0.1-1.7,0.5-1.8,1.4c-0.1,0.9,0.5,1.7,1.4,1.8c1.5,0.2,3.1,0.3,4.6,0.5c0.9,0.1,1.7-0.6,1.7-1.5
			C209.3,368,208.6,367.2,207.8,367.1L207.8,367.1z M220.3,368.1c-1.5-0.1-3-0.2-4.6-0.3c-0.9-0.1-1.7,0.6-1.7,1.5
			c-0.1,0.9,0.6,1.7,1.5,1.7c1.5,0.1,3.1,0.2,4.6,0.3c0.9,0,1.6-0.6,1.7-1.5C221.9,368.9,221.2,368.1,220.3,368.1L220.3,368.1z
			 M232.9,368.6c-1.5,0-3.1-0.1-4.6-0.1c-0.9,0-1.6,0.7-1.7,1.6c0,0.9,0.7,1.6,1.6,1.7c1.5,0.1,3.1,0.1,4.6,0.1
			c0.9,0,1.6-0.7,1.6-1.6C234.5,369.3,233.8,368.6,232.9,368.6L232.9,368.6z M245.5,368.6c-1.5,0-3,0-4.6,0c-0.9,0-1.6,0.7-1.6,1.6
			c0,0.9,0.7,1.6,1.6,1.6c1.5,0,3.1,0,4.6,0c0.9,0,1.6-0.7,1.6-1.6C247.1,369.3,246.3,368.6,245.5,368.6L245.5,368.6z M258,368.2
			c-1.5,0.1-3,0.1-4.6,0.2c-0.9,0-1.6,0.8-1.5,1.7c0,0.9,0.8,1.6,1.7,1.5c1.5-0.1,3.1-0.1,4.6-0.2c0.9,0,1.6-0.8,1.5-1.7
			C259.7,368.8,258.9,368.1,258,368.2L258,368.2z M270.6,367.3c-1.5,0.1-3,0.3-4.6,0.4c-0.9,0.1-1.6,0.8-1.5,1.7
			c0.1,0.9,0.8,1.6,1.7,1.5c1.5-0.1,3.1-0.2,4.6-0.4c0.9-0.1,1.5-0.9,1.5-1.7C272.2,367.9,271.5,367.3,270.6,367.3L270.6,367.3z
			 M283.1,366c-1.5,0.2-3,0.4-4.5,0.5c-0.9,0.1-1.5,0.9-1.4,1.8c0.1,0.9,0.9,1.5,1.8,1.4c1.5-0.2,3.1-0.3,4.6-0.5
			c0.9-0.1,1.5-0.9,1.4-1.8C284.8,366.5,284,365.9,283.1,366L283.1,366z M295.5,364.2c-1.5,0.2-3,0.5-4.5,0.7
			c-0.9,0.1-1.5,0.9-1.4,1.8c0.1,0.9,0.9,1.5,1.8,1.4c1.5-0.2,3-0.5,4.6-0.7c0.9-0.1,1.5-1,1.3-1.8
			C297.2,364.7,296.4,364.1,295.5,364.2L295.5,364.2z M307.9,362c-1.5,0.3-3,0.6-4.5,0.9c-0.9,0.2-1.4,1-1.3,1.9
			c0.2,0.9,1,1.4,1.9,1.3c1.5-0.3,3-0.6,4.5-0.9c0.9-0.2,1.4-1,1.3-1.9C309.6,362.4,308.8,361.8,307.9,362L307.9,362z M320.2,359.2
			c-1.5,0.4-3,0.7-4.4,1.1c-0.9,0.2-1.4,1.1-1.2,1.9c0.2,0.9,1.1,1.4,1.9,1.2c1.5-0.3,3-0.7,4.5-1.1c0.9-0.2,1.4-1.1,1.2-1.9
			C321.9,359.5,321,359,320.2,359.2z M332.3,355.9c-1.5,0.4-2.9,0.8-4.4,1.3c-0.9,0.2-1.4,1.1-1.1,2c0.2,0.9,1.1,1.4,2,1.1
			c1.5-0.4,3-0.8,4.4-1.3c0.9-0.3,1.3-1.1,1.1-2C334.1,356.2,333.2,355.7,332.3,355.9L332.3,355.9z M344.3,352.1
			c-1.4,0.5-2.9,1-4.3,1.5c-0.8,0.3-1.3,1.2-1,2c0.3,0.8,1.2,1.3,2,1c1.5-0.5,2.9-1,4.4-1.5c0.8-0.3,1.3-1.2,1-2
			C346,352.3,345.1,351.8,344.3,352.1L344.3,352.1z M356,347.8c-1.4,0.6-2.8,1.1-4.3,1.7c-0.8,0.3-1.2,1.2-0.9,2.1
			c0.3,0.8,1.2,1.2,2.1,0.9c1.4-0.6,2.9-1.1,4.3-1.7c0.8-0.3,1.2-1.3,0.9-2.1C357.8,347.8,356.9,347.4,356,347.8z M367.6,342.8
			c-1.4,0.6-2.8,1.3-4.2,1.9c-0.8,0.4-1.2,1.3-0.8,2.1c0.4,0.8,1.3,1.2,2.1,0.8c1.4-0.6,2.8-1.3,4.2-1.9c0.8-0.4,1.2-1.3,0.8-2.1
			C369.3,342.8,368.4,342.4,367.6,342.8L367.6,342.8z M378.8,337.2c-1.3,0.7-2.7,1.4-4,2.1c-0.8,0.4-1.1,1.4-0.7,2.2
			c0.4,0.8,1.4,1.1,2.2,0.7c1.4-0.7,2.8-1.4,4.1-2.1c0.8-0.4,1.1-1.4,0.7-2.2C380.5,337,379.6,336.7,378.8,337.2z M389.6,330.9
			c-1.3,0.8-2.6,1.6-3.9,2.4c-0.8,0.5-1,1.4-0.6,2.2c0.5,0.8,1.4,1,2.2,0.6c1.3-0.8,2.7-1.6,4-2.4c0.8-0.5,1-1.5,0.5-2.2
			C391.4,330.6,390.4,330.4,389.6,330.9z M400,323.9c-1.2,0.9-2.4,1.8-3.7,2.6c-0.7,0.5-0.9,1.5-0.4,2.2c0.5,0.7,1.5,0.9,2.2,0.4
			c1.3-0.9,2.5-1.8,3.8-2.7c0.7-0.5,0.9-1.5,0.3-2.2C401.7,323.5,400.7,323.3,400,323.9L400,323.9z M409.8,316.1
			c-1.1,1-2.3,2-3.5,2.9c-0.7,0.6-0.8,1.6-0.2,2.3c0.6,0.7,1.6,0.8,2.3,0.2c1.2-1,2.4-2,3.6-3c0.7-0.6,0.7-1.6,0.2-2.3
			C411.4,315.5,410.4,315.5,409.8,316.1z M418.8,307.4c-1,1.1-2.1,2.2-3.2,3.2c-0.6,0.6-0.6,1.6,0,2.3c0.6,0.6,1.6,0.6,2.3,0
			c1.1-1.1,2.2-2.2,3.3-3.3c0.6-0.6,0.6-1.7-0.1-2.3C420.4,306.8,419.4,306.8,418.8,307.4L418.8,307.4z M426.8,297.9
			c-0.9,1.2-1.8,2.4-2.8,3.6c-0.6,0.7-0.5,1.7,0.2,2.3c0.7,0.6,1.7,0.5,2.3-0.2c1-1.2,1.9-2.4,2.9-3.7c0.5-0.7,0.4-1.7-0.3-2.3
			C428.3,297.1,427.3,297.2,426.8,297.9L426.8,297.9z M433.5,287.5c-0.7,1.3-1.5,2.6-2.3,3.9c-0.5,0.8-0.2,1.7,0.5,2.2
			c0.8,0.5,1.7,0.2,2.2-0.5c0.8-1.3,1.6-2.7,2.4-4c0.4-0.8,0.2-1.8-0.6-2.2C434.9,286.5,434,286.7,433.5,287.5L433.5,287.5z
			 M438.7,276.3c-0.5,1.4-1.1,2.8-1.7,4.2c-0.4,0.8,0,1.8,0.8,2.1c0.8,0.4,1.8,0,2.1-0.8c0.6-1.4,1.2-2.9,1.7-4.3
			c0.3-0.8-0.1-1.8-1-2.1C439.9,275,439,275.5,438.7,276.3L438.7,276.3z M442,264.4c-0.3,1.5-0.6,2.9-0.9,4.4
			c-0.2,0.9,0.3,1.7,1.2,1.9c0.9,0.2,1.7-0.3,1.9-1.2c0.4-1.5,0.7-3,1-4.6c0.2-0.9-0.4-1.7-1.3-1.9C443,262.9,442.1,263.5,442,264.4
			L442,264.4z"/>
		<rect id="XMLID_331_" x="212.5" y="392.7" fill="#EFEFEF" width="4.8" height="4.8"/>
		<path id="XMLID_332_" fill="#A1ABD0" d="M217.2,397.4v-1.2h-3.6v-2.4h2.4v3.6H217.2v-1.2V397.4h1.2v-4.8c0-0.3-0.1-0.6-0.3-0.8
			c-0.2-0.2-0.5-0.3-0.8-0.3h-4.8c-0.3,0-0.6,0.1-0.8,0.3c-0.2,0.2-0.3,0.5-0.3,0.8v4.8c0,0.3,0.1,0.6,0.3,0.8
			c0.2,0.2,0.5,0.3,0.8,0.3h4.8c0.3,0,0.6-0.1,0.8-0.3c0.2-0.2,0.3-0.5,0.3-0.8H217.2z"/>
		<rect id="XMLID_333_" x="264.5" y="392.7" fill="#EFEFEF" width="4.8" height="4.8"/>
		<path id="XMLID_334_" fill="#A1ABD0" d="M269.3,397.4v-1.2h-3.6v-2.4h2.4v3.6H269.3v-1.2V397.4h1.2v-4.8c0-0.3-0.1-0.6-0.3-0.8
			c-0.2-0.2-0.5-0.3-0.8-0.3h-4.8c-0.3,0-0.6,0.1-0.8,0.3c-0.2,0.2-0.3,0.5-0.3,0.8v4.8c0,0.3,0.1,0.6,0.3,0.8
			c0.2,0.2,0.5,0.3,0.8,0.3h4.8c0.3,0,0.6-0.1,0.8-0.3c0.2-0.2,0.3-0.5,0.3-0.8H269.3z"/>
		<rect id="XMLID_335_" x="212.5" y="111.9" fill="#EFEFEF" width="4.8" height="4.8"/>
		<path id="XMLID_336_" fill="#A1ABD0" d="M217.2,116.7v-1.2h-3.6v-2.4h2.4v3.6H217.2v-1.2V116.7h1.2v-4.8c0-0.3-0.1-0.6-0.3-0.8
			c-0.2-0.2-0.5-0.3-0.8-0.3h-4.8c-0.3,0-0.6,0.1-0.8,0.3c-0.2,0.2-0.3,0.5-0.3,0.8v4.8c0,0.3,0.1,0.6,0.3,0.8
			c0.2,0.2,0.5,0.3,0.8,0.3h4.8c0.3,0,0.6-0.1,0.8-0.3c0.2-0.2,0.3-0.5,0.3-0.8H217.2z"/>
		<rect id="XMLID_337_" x="264.5" y="111.9" fill="#EFEFEF" width="4.8" height="4.8"/>
		<path id="XMLID_338_" fill="#A1ABD0" d="M269.3,116.7v-1.2h-3.6v-2.4h2.4v3.6H269.3v-1.2V116.7h1.2v-4.8c0-0.3-0.1-0.6-0.3-0.8
			c-0.2-0.2-0.5-0.3-0.8-0.3h-4.8c-0.3,0-0.6,0.1-0.8,0.3c-0.2,0.2-0.3,0.5-0.3,0.8v4.8c0,0.3,0.1,0.6,0.3,0.8
			c0.2,0.2,0.5,0.3,0.8,0.3h4.8c0.3,0,0.6-0.1,0.8-0.3c0.2-0.2,0.3-0.5,0.3-0.8H269.3z"/>
		<circle id="XMLID_34_" fill="none" cx="241" cy="254.3" r="214.1"/>
	</g>
</g>
</svg>
