<?xml version="1.0" encoding="utf-8"?>
<!-- Generator: Adobe Illustrator 19.0.0, SVG Export Plug-In . SVG Version: 6.00 Build 0)  -->
<svg version="1.1" id="Layer_1" xmlns="http://www.w3.org/2000/svg" xmlns:xlink="http://www.w3.org/1999/xlink" x="0px" y="0px"
	 viewBox="0 0 404 382" enable-background="new 0 0 404 382" xml:space="preserve">
<path id="XMLID_1081_" fill="#A9DEEB" d="M319.3,332.1l-2.9,1.8l-1.8-2.8c-0.4-0.7-1.1-1.1-1.8-0.7c-0.7,0.4-0.6,1.2-0.2,1.9
	l1.8,2.8l-2.9,1.8c-0.7,0.4-1.1,1.1-0.7,1.8s1.2,0.6,1.9,0.2l2.9-1.8l1.8,2.9c0.4,0.7,1.1,1.1,1.8,0.7s0.6-1.2,0.2-1.9l-1.8-2.9
	l2.9-1.8c0.7-0.4,1.1-1.1,0.7-1.8S320,331.6,319.3,332.1z"/>
<path id="XMLID_1077_" fill="#FF7676" d="M373.7,200l-1.8-2.9l2.8-1.8c0.7-0.4,1.1-1,0.7-1.8s-1.2-0.6-1.9-0.2l-2.8,1.8l-1.8-2.9
	c-0.4-0.7-1-1.1-1.8-0.7c-0.7,0.4-0.6,1.2-0.2,1.9l1.8,2.9l-2.9,1.8c-0.7,0.4-1.1,1-0.7,1.8c0.4,0.7,1.2,0.6,1.9,0.2l2.9-1.8
	l1.8,2.9c0.4,0.7,1,1.1,1.8,0.7C374.2,201.5,374.2,200.7,373.7,200z"/>
<circle id="XMLID_1076_" fill="#FFB8C7" cx="125.8" cy="348.4" r="2.4"/>
<circle id="XMLID_1075_" fill="#FFB8C7" cx="352.4" cy="61.9" r="2.4"/>
<circle id="XMLID_1074_" fill="#4B5E7F" cx="46" cy="269.1" r="2.4"/>
<circle id="XMLID_951_" fill="#FFB8C7" cx="34.4" cy="141.1" r="2.4"/>
<circle id="XMLID_10_" fill="#FFB8C7" cx="82" cy="304.3" r="2.4"/>
<circle id="XMLID_953_" fill="#FFB8C7" cx="123.6" cy="29.6" r="2.4"/>
<circle id="XMLID_1073_" fill="#A9DEEB" cx="323.9" cy="7.5" r="2.4"/>
<circle id="XMLID_1085_" fill="#A9DEEB" cx="143.4" cy="348.4" r="2.4"/>
<circle id="XMLID_1086_" fill="#F6F7F9" cx="274.3" cy="32" r="2.4"/>
<circle id="XMLID_952_" fill="#F6F7F9" cx="326.3" cy="309.1" r="2.4"/>
<g id="XMLID_11_">
	<g id="XMLID_33_">
		<path id="XMLID_35_" fill="#A9DEEB" d="M59.6,49.5c-0.3-3.2,2.1-6,5.3-6.3c3.2-0.3,6,2.1,6.3,5.3c0.3,3.2-2.1,6-5.3,6.3
			S59.9,52.7,59.6,49.5z M69.2,48.7c-0.2-2.1-2-3.6-4.1-3.4c-2.1,0.2-3.6,2-3.4,4.1c0.2,2.1,2,3.6,4.1,3.4
			C67.8,52.6,69.3,50.7,69.2,48.7z"/>
	</g>
	<g id="XMLID_12_">
		<path id="XMLID_32_" fill="#A9DEEB" d="M55.7,58.9c0-0.3,0.1-0.6,0.2-0.8l5-6.2c0.4-0.5,1.1-0.6,1.6-0.2c0.5,0.4,0.6,1.1,0.2,1.6
			l-5,6.2c-0.4,0.5-1.1,0.6-1.6,0.2C55.9,59.5,55.7,59.2,55.7,58.9z"/>
	</g>
</g>
<g id="XMLID_353_">
	<defs>
		<path id="XMLID_38_" d="M46.5,254l0.2-129c0-15.1,8.1-29,21.2-36.4l112-64c13-7.4,29-7.4,42,0.1l112,65.1
			c13,7.5,20.9,21.4,20.9,36.4l-0.2,129c0,15.1-8.1,29-21.2,36.4l-112,64c-13,7.4-29,7.4-42-0.1l-112-65.1
			C54.5,282.9,46.5,269,46.5,254z"/>
	</defs>
	<clipPath id="XMLID_498_">
		<use xlink:href="#XMLID_38_"  overflow="visible"/>
	</clipPath>
	<g id="XMLID_31_" clip-path="url(#XMLID_498_)">
		<polyline id="XMLID_39_" fill="#F2F2F2" points="427.9,564 -33.9,564 -33.9,-2.1 427.9,-2.1 427.9,564 		"/>
		<polyline id="XMLID_40_" fill="#FCFCFC" points="231.8,278.5 397.1,278.5 397.1,271.7 231.8,271.7 		"/>
		<polyline id="XMLID_41_" fill="#FCFCFC" points="231.8,225.7 397.1,225.7 397.1,218.8 231.8,218.8 		"/>
		<polyline id="XMLID_42_" fill="#FCFCFC" points="-0.8,271.7 164.4,271.7 164.4,278.5 -0.8,278.5 		"/>
		<polyline id="XMLID_43_" fill="#FCFCFC" points="6.8,436.5 172,436.5 172,443.4 6.8,443.4 		"/>
		<polyline id="XMLID_44_" fill="#FCFCFC" points="227.1,436.5 392.4,436.5 392.4,443.4 227.1,443.4 		"/>
		<polyline id="XMLID_45_" fill="#FCFCFC" points="227.1,388.3 478.5,388.3 478.5,395.2 227.1,395.2 		"/>
		<polyline id="XMLID_46_" fill="#FCFCFC" points="-82.2,388.3 172,388.3 172,395.2 -82.2,395.2 		"/>
		<polyline id="XMLID_47_" fill="#FCFCFC" points="-0.8,225.7 164.4,225.7 164.4,218.8 -0.8,218.8 		"/>
		<polyline id="XMLID_48_" fill="#FCFCFC" points="230.3,219.3 230.3,22.1 223.4,22.1 223.4,219.3 		"/>
		<polyline id="XMLID_49_" fill="#FCFCFC" points="177.4,219.3 177.4,22.1 170.6,22.1 170.6,219.3 		"/>
		<polyline id="XMLID_50_" fill="#FCFCFC" points="230.3,489.3 230.3,279.9 223.4,279.9 223.4,489.3 		"/>
		<polyline id="XMLID_51_" fill="#FCFCFC" points="177.4,489.3 177.4,279.9 170.6,279.9 170.6,489.3 		"/>
		<path id="XMLID_52_" fill="#FCFCFC" d="M404.4,250.1h-4.8c0,7.6-1.3,15-3.9,22.2c-4.5,12.6-12.7,24.6-24.2,35.6
			c-17.3,16.4-41.8,30.4-71.3,40.1c-29.4,9.8-63.7,15.4-100.2,15.4c-55.7,0-106.1-13.1-142.1-33.9c-18-10.4-32.5-22.8-42.3-36.2
			c-4.9-6.7-8.7-13.7-11.3-20.9c-2.6-7.2-3.9-14.6-3.9-22.2c0-7.6,1.3-15,3.9-22.2c4.5-12.6,12.7-24.6,24.2-35.6
			c17.3-16.4,41.8-30.4,71.3-40.1c29.4-9.8,63.7-15.4,100.2-15.4c55.7,0,106.1,13.1,142.1,33.9c18,10.4,32.5,22.8,42.3,36.2
			c4.9,6.7,8.7,13.7,11.3,20.9c2.6,7.2,3.9,14.6,3.9,22.2H404.4h4.8c0-8.7-1.5-17.2-4.4-25.4c-5.1-14.3-14.3-27.5-26.7-39.3
			c-18.6-17.7-44.4-32.2-74.9-42.3c-30.5-10.1-65.7-15.9-103.3-15.9c-57.2,0-109,13.4-146.9,35.2c-18.9,11-34.4,24.1-45.3,38.9
			c-5.4,7.4-9.7,15.2-12.6,23.4c-2.9,8.2-4.4,16.7-4.4,25.4c0,8.7,1.5,17.2,4.4,25.4c5.1,14.3,14.3,27.5,26.7,39.3
			c18.6,17.7,44.4,32.2,74.9,42.3c30.5,10.1,65.7,15.9,103.3,15.9c57.2,0,109-13.4,146.9-35.2c18.9-11,34.4-24.1,45.3-38.9
			c5.4-7.4,9.7-15.2,12.6-23.4c2.9-8.2,4.4-16.7,4.4-25.4H404.4z"/>
		<path id="XMLID_53_" fill="#FCFCFC" d="M6.2,389.6c0.2-0.2,4.9-6.4,9.7-16.6c4.8-10.2,9.6-24.5,9.6-40.8c0-7.5-1-15.5-3.6-23.6
			c-2.5-8.1-6.6-16.5-12.6-24.7l-7.7,5.6c5.4,7.4,8.9,14.7,11.2,21.9c2.2,7.2,3.1,14.1,3.1,20.8c0,14.5-4.3,27.4-8.7,36.8
			c-2.2,4.7-4.4,8.4-6,11c-0.8,1.3-1.5,2.3-1.9,2.9c-0.2,0.3-0.4,0.6-0.5,0.7l-0.1,0.2l0,0l0.3,0.2l-0.3-0.2l0,0l0.3,0.2l-0.3-0.2
			L6.2,389.6L6.2,389.6z"/>
		<path id="XMLID_54_" fill="#FCFCFC" d="M401.5,386l-0.3,0.2L401.5,386L401.5,386l-0.3,0.2L401.5,386c-0.1-0.2-4.5-5.9-8.8-15.2
			c-4.3-9.3-8.5-22.1-8.5-36.3c0-6.7,0.9-13.6,3.1-20.8c2.2-7.2,5.8-14.5,11.2-21.9l-7.7-5.6c-6,8.2-10,16.5-12.6,24.7
			c-2.5,8.1-3.6,16.1-3.6,23.6c0,16.4,4.8,30.6,9.6,40.8c4.8,10.2,9.6,16.4,9.7,16.6L401.5,386L401.5,386z"/>
		<path id="XMLID_55_" fill="#FCFCFC" d="M94.6,346.5c-0.1,0-1.9-0.2-4.9-0.2c-7.1,0-21.3,0.8-38.4,6.2c-17.1,5.4-37,15.5-55.4,33.9
			l6.8,6.8c17.2-17.2,35.7-26.5,51.6-31.5c15.9-5,29.1-5.8,35.5-5.8c1.4,0,2.4,0,3.1,0.1c0.3,0,0.6,0,0.8,0l0.2,0l0,0l0.1-1l-0.1,1
			l0,0l0.1-1l-0.1,1L94.6,346.5L94.6,346.5z"/>
		<path id="XMLID_56_" fill="#FCFCFC" d="M306.4,358.3l-0.1-1L306.4,358.3L306.4,358.3l-0.1-1L306.4,358.3c0.1,0,1.5-0.1,4.1-0.1
			c6.4,0,19.6,0.7,35.5,5.8c15.9,5,34.4,14.3,51.6,31.5l6.8-6.8c-18.4-18.4-38.4-28.4-55.4-33.9c-17.1-5.4-31.3-6.2-38.4-6.2
			c-3.1,0-4.8,0.2-4.9,0.2L306.4,358.3L306.4,358.3z"/>
		<path id="XMLID_57_" fill="#FCFCFC" d="M-3.7,116.9l0.3-0.2L-3.7,116.9L-3.7,116.9l0.3-0.2L-3.7,116.9c0.1,0.2,4.5,5.9,8.8,15.2
			c4.3,9.3,8.5,22.1,8.5,36.3c0,6.7-0.9,13.6-3.1,20.8c-2.2,7.2-5.8,14.5-11.2,21.9l7.7,5.6c6-8.2,10-16.5,12.6-24.7
			c2.5-8.1,3.6-16.1,3.6-23.6c0-16.4-4.8-30.6-9.6-40.8c-4.8-10.2-9.6-16.4-9.7-16.6L-3.7,116.9L-3.7,116.9z"/>
		<path id="XMLID_58_" fill="#FCFCFC" d="M391.6,108.8c-0.2,0.2-4.9,6.4-9.7,16.6c-4.8,10.2-9.6,24.5-9.6,40.8
			c0,7.5,1,15.5,3.6,23.6c2.5,8.1,6.6,16.5,12.6,24.7l7.7-5.6c-5.4-7.4-8.9-14.7-11.2-21.9c-2.2-7.2-3.1-14.1-3.1-20.8
			c0-14.5,4.3-27.4,8.7-36.8c2.2-4.7,4.4-8.4,6-11c0.8-1.3,1.5-2.3,1.9-2.9c0.2-0.3,0.4-0.6,0.5-0.7l0.1-0.2l0,0l-0.3-0.2l0.3,0.2
			l0,0l-0.3-0.2l0.3,0.2L391.6,108.8L391.6,108.8z"/>
		<path id="XMLID_59_" fill="#FCFCFC" d="M91.4,144.7l0.1,0.9L91.4,144.7L91.4,144.7l0.1,0.9L91.4,144.7c-0.1,0-1.5,0.1-4.1,0.1
			c-6.4,0-19.6-0.7-35.5-5.8c-15.9-5-34.4-14.3-51.6-31.5l-6.8,6.8c18.4,18.4,38.4,28.4,55.4,33.9c17.1,5.4,31.3,6.2,38.4,6.2
			c3.1,0,4.8-0.2,4.9-0.2L91.4,144.7L91.4,144.7z"/>
		<path id="XMLID_60_" fill="#FCFCFC" d="M303.2,151.9c0.1,0,1.9,0.2,4.9,0.2c7.1,0,21.3-0.8,38.4-6.2c17.1-5.4,37-15.5,55.4-33.9
			l-6.8-6.8c-17.2,17.2-35.7,26.5-51.6,31.5c-15.9,5-29.1,5.8-35.5,5.8c-1.4,0-2.4,0-3.1-0.1c-0.3,0-0.6,0-0.8,0l-0.2,0l0,0l-0.1,1
			l0.1-1l0,0l-0.1,1l0.1-1L303.2,151.9L303.2,151.9z"/>
		<path id="XMLID_61_" fill="#E5E5E5" d="M275.3,406.2h-5.4c-0.6,0-1.1,0.5-1.1,1.2v18.5c0,0.6,0.5,1.2,1.1,1.2h5.4
			c0.6,0,1.1-0.5,1.1-1.2v-18.5C276.4,406.7,275.9,406.2,275.3,406.2"/>
		<path id="XMLID_62_" fill="#E5E5E5" d="M286,406.2h-5.4c-0.6,0-1.1,0.5-1.1,1.2v18.5c0,0.6,0.5,1.2,1.1,1.2h5.4
			c0.6,0,1.1-0.5,1.1-1.2v-18.5C287.1,406.7,286.6,406.2,286,406.2"/>
		<path id="XMLID_63_" fill="#E5E5E5" d="M250.5,406.2H241c-0.6,0-1.1,0.5-1.1,1.2v18.5c0,0.6,0.5,1.2,1.1,1.2h9.4
			c0.6,0,1.1-0.5,1.1-1.2v-18.5C251.6,406.7,251.1,406.2,250.5,406.2"/>
		<path id="XMLID_64_" fill="#E5E5E5" d="M265,406.2h-9.4c-0.6,0-1.1,0.5-1.1,1.2v18.5c0,0.6,0.5,1.2,1.1,1.2h9.4
			c0.6,0,1.1-0.5,1.1-1.2v-18.5C266.1,406.7,265.6,406.2,265,406.2"/>
		<path id="XMLID_65_" fill="#E5E5E5" d="M299.8,406.2h-9.4c-0.6,0-1.1,0.5-1.1,1.2v18.5c0,0.6,0.5,1.2,1.1,1.2h9.4
			c0.6,0,1.1-0.5,1.1-1.2v-18.5C300.9,406.7,300.4,406.2,299.8,406.2"/>
		<path id="XMLID_66_" fill="#E5E5E5" d="M314.5,406.2H305c-0.6,0-1.1,0.5-1.1,1.2v18.5c0,0.6,0.5,1.2,1.1,1.2h9.4
			c0.6,0,1.1-0.5,1.1-1.2v-18.5C315.6,406.7,315.1,406.2,314.5,406.2"/>
		<path id="XMLID_67_" fill="#E5E5E5" d="M354.6,406.2h-5.4c-0.6,0-1.1,0.5-1.1,1.2v18.5c0,0.6,0.5,1.2,1.1,1.2h5.4
			c0.6,0,1.1-0.5,1.1-1.2v-18.5C355.7,406.7,355.2,406.2,354.6,406.2"/>
		<path id="XMLID_68_" fill="#E5E5E5" d="M365.3,406.2h-5.4c-0.6,0-1.1,0.5-1.1,1.2v18.5c0,0.6,0.5,1.2,1.1,1.2h5.4
			c0.6,0,1.1-0.5,1.1-1.2v-18.5C366.4,406.7,365.9,406.2,365.3,406.2"/>
		<path id="XMLID_69_" fill="#E5E5E5" d="M329.7,406.2h-9.4c-0.6,0-1.1,0.5-1.1,1.2v18.5c0,0.6,0.5,1.2,1.1,1.2h9.4
			c0.6,0,1.1-0.5,1.1-1.2v-18.5C330.9,406.7,330.3,406.2,329.7,406.2"/>
		<path id="XMLID_70_" fill="#E5E5E5" d="M344.3,406.2h-9.4c-0.6,0-1.1,0.5-1.1,1.2v18.5c0,0.6,0.5,1.2,1.1,1.2h9.4
			c0.6,0,1.1-0.5,1.1-1.2v-18.5C345.4,406.7,344.9,406.2,344.3,406.2"/>
		<path id="XMLID_71_" fill="#E5E5E5" d="M379,406.2h-9.4c-0.6,0-1.1,0.5-1.1,1.2v18.5c0,0.6,0.5,1.2,1.1,1.2h9.4
			c0.6,0,1.1-0.5,1.1-1.2v-18.5C380.2,406.7,379.6,406.2,379,406.2"/>
		<path id="XMLID_72_" fill="#E5E5E5" d="M393.7,406.2h-9.4c-0.6,0-1.1,0.5-1.1,1.2v18.5c0,0.6,0.5,1.2,1.1,1.2h9.4
			c0.6,0,1.1-0.5,1.1-1.2v-18.5C394.9,406.7,394.3,406.2,393.7,406.2"/>
		<path id="XMLID_73_" fill="#E5E5E5" d="M39.7,406.2h-5.4c-0.6,0-1.1,0.5-1.1,1.2v18.5c0,0.6,0.5,1.2,1.1,1.2h5.4
			c0.6,0,1.1-0.5,1.1-1.2v-18.5C40.8,406.7,40.3,406.2,39.7,406.2"/>
		<path id="XMLID_74_" fill="#E5E5E5" d="M50.4,406.2H45c-0.6,0-1.1,0.5-1.1,1.2v18.5c0,0.6,0.5,1.2,1.1,1.2h5.4
			c0.6,0,1.1-0.5,1.1-1.2v-18.5C51.5,406.7,51,406.2,50.4,406.2"/>
		<path id="XMLID_75_" fill="#E5E5E5" d="M14.9,406.2H5.4c-0.6,0-1.1,0.5-1.1,1.2v18.5c0,0.6,0.5,1.2,1.1,1.2h9.4
			c0.6,0,1.1-0.5,1.1-1.2v-18.5C16,406.7,15.5,406.2,14.9,406.2"/>
		<path id="XMLID_76_" fill="#E5E5E5" d="M29.4,406.2H20c-0.6,0-1.1,0.5-1.1,1.2v18.5c0,0.6,0.5,1.2,1.1,1.2h9.4
			c0.6,0,1.1-0.5,1.1-1.2v-18.5C30.5,406.7,30,406.2,29.4,406.2"/>
		<path id="XMLID_77_" fill="#E5E5E5" d="M64.2,406.2h-9.4c-0.6,0-1.1,0.5-1.1,1.2v18.5c0,0.6,0.5,1.2,1.1,1.2h9.4
			c0.6,0,1.1-0.5,1.1-1.2v-18.5C65.3,406.7,64.8,406.2,64.2,406.2"/>
		<path id="XMLID_78_" fill="#E5E5E5" d="M78.9,406.2h-9.4c-0.6,0-1.1,0.5-1.1,1.2v18.5c0,0.6,0.5,1.2,1.1,1.2h9.4
			c0.6,0,1.1-0.5,1.1-1.2v-18.5C80,406.7,79.5,406.2,78.9,406.2"/>
		<path id="XMLID_79_" fill="#E5E5E5" d="M119,406.2h-5.4c-0.6,0-1.1,0.5-1.1,1.2v18.5c0,0.6,0.5,1.2,1.1,1.2h5.4
			c0.6,0,1.1-0.5,1.1-1.2v-18.5C120.1,406.7,119.6,406.2,119,406.2"/>
		<path id="XMLID_80_" fill="#E5E5E5" d="M129.7,406.2h-5.4c-0.6,0-1.1,0.5-1.1,1.2v18.5c0,0.6,0.5,1.2,1.1,1.2h5.4
			c0.6,0,1.1-0.5,1.1-1.2v-18.5C130.8,406.7,130.3,406.2,129.7,406.2"/>
		<path id="XMLID_81_" fill="#E5E5E5" d="M94.1,406.2h-9.4c-0.6,0-1.1,0.5-1.1,1.2v18.5c0,0.6,0.5,1.2,1.1,1.2h9.4
			c0.6,0,1.1-0.5,1.1-1.2v-18.5C95.3,406.7,94.8,406.2,94.1,406.2"/>
		<path id="XMLID_82_" fill="#E5E5E5" d="M108.7,406.2h-9.4c-0.6,0-1.1,0.5-1.1,1.2v18.5c0,0.6,0.5,1.2,1.1,1.2h9.4
			c0.6,0,1.1-0.5,1.1-1.2v-18.5C109.8,406.7,109.3,406.2,108.7,406.2"/>
		<path id="XMLID_83_" fill="#E5E5E5" d="M143.4,406.2H134c-0.6,0-1.1,0.5-1.1,1.2v18.5c0,0.6,0.5,1.2,1.1,1.2h9.4
			c0.6,0,1.1-0.5,1.1-1.2v-18.5C144.6,406.7,144,406.2,143.4,406.2"/>
		<path id="XMLID_84_" fill="#E5E5E5" d="M158.2,406.2h-9.4c-0.6,0-1.1,0.5-1.1,1.2v18.5c0,0.6,0.5,1.2,1.1,1.2h9.4
			c0.6,0,1.1-0.5,1.1-1.2v-18.5C159.3,406.7,158.8,406.2,158.2,406.2"/>
		<polyline id="XMLID_85_" fill="#FCFCFC" points="-127,106.5 172,106.5 172,113.4 -127,113.4 		"/>
		<polyline id="XMLID_86_" fill="#FCFCFC" points="227.1,106.5 445.7,106.5 445.7,113.4 227.1,113.4 		"/>
		<polyline id="XMLID_87_" fill="#FCFCFC" points="227.1,58.3 478.5,58.3 478.5,65.2 227.1,65.2 		"/>
		<polyline id="XMLID_88_" fill="#FCFCFC" points="-82.2,58.3 172,58.3 172,65.2 -82.2,65.2 		"/>
		<path id="XMLID_89_" fill="#E5E5E5" d="M275.3,76.2h-5.4c-0.6,0-1.1,0.5-1.1,1.2v18.5c0,0.6,0.5,1.2,1.1,1.2h5.4
			c0.6,0,1.1-0.5,1.1-1.2V77.3C276.4,76.7,275.9,76.2,275.3,76.2"/>
		<path id="XMLID_90_" fill="#E5E5E5" d="M286,76.2h-5.4c-0.6,0-1.1,0.5-1.1,1.2v18.5c0,0.6,0.5,1.2,1.1,1.2h5.4
			c0.6,0,1.1-0.5,1.1-1.2V77.3C287.1,76.7,286.6,76.2,286,76.2"/>
		<path id="XMLID_91_" fill="#E5E5E5" d="M250.5,76.2H241c-0.6,0-1.1,0.5-1.1,1.2v18.5c0,0.6,0.5,1.2,1.1,1.2h9.4
			c0.6,0,1.1-0.5,1.1-1.2V77.3C251.6,76.7,251.1,76.2,250.5,76.2"/>
		<path id="XMLID_92_" fill="#E5E5E5" d="M265,76.2h-9.4c-0.6,0-1.1,0.5-1.1,1.2v18.5c0,0.6,0.5,1.2,1.1,1.2h9.4
			c0.6,0,1.1-0.5,1.1-1.2V77.3C266.1,76.7,265.6,76.2,265,76.2"/>
		<path id="XMLID_93_" fill="#E5E5E5" d="M299.8,76.2h-9.4c-0.6,0-1.1,0.5-1.1,1.2v18.5c0,0.6,0.5,1.2,1.1,1.2h9.4
			c0.6,0,1.1-0.5,1.1-1.2V77.3C300.9,76.7,300.4,76.2,299.8,76.2"/>
		<path id="XMLID_94_" fill="#E5E5E5" d="M314.5,76.2H305c-0.6,0-1.1,0.5-1.1,1.2v18.5c0,0.6,0.5,1.2,1.1,1.2h9.4
			c0.6,0,1.1-0.5,1.1-1.2V77.3C315.6,76.7,315.1,76.2,314.5,76.2"/>
		<path id="XMLID_95_" fill="#E5E5E5" d="M354.6,76.2h-5.4c-0.6,0-1.1,0.5-1.1,1.2v18.5c0,0.6,0.5,1.2,1.1,1.2h5.4
			c0.6,0,1.1-0.5,1.1-1.2V77.3C355.7,76.7,355.2,76.2,354.6,76.2"/>
		<path id="XMLID_96_" fill="#E5E5E5" d="M365.3,76.2h-5.4c-0.6,0-1.1,0.5-1.1,1.2v18.5c0,0.6,0.5,1.2,1.1,1.2h5.4
			c0.6,0,1.1-0.5,1.1-1.2V77.3C366.4,76.7,365.9,76.2,365.3,76.2"/>
		<path id="XMLID_97_" fill="#E5E5E5" d="M329.7,76.2h-9.4c-0.6,0-1.1,0.5-1.1,1.2v18.5c0,0.6,0.5,1.2,1.1,1.2h9.4
			c0.6,0,1.1-0.5,1.1-1.2V77.3C330.9,76.7,330.3,76.2,329.7,76.2"/>
		<path id="XMLID_98_" fill="#E5E5E5" d="M344.3,76.2h-9.4c-0.6,0-1.1,0.5-1.1,1.2v18.5c0,0.6,0.5,1.2,1.1,1.2h9.4
			c0.6,0,1.1-0.5,1.1-1.2V77.3C345.4,76.7,344.9,76.2,344.3,76.2"/>
		<path id="XMLID_99_" fill="#E5E5E5" d="M379,76.2h-9.4c-0.6,0-1.1,0.5-1.1,1.2v18.5c0,0.6,0.5,1.2,1.1,1.2h9.4
			c0.6,0,1.1-0.5,1.1-1.2V77.3C380.2,76.7,379.6,76.2,379,76.2"/>
		<path id="XMLID_100_" fill="#E5E5E5" d="M393.7,76.2h-9.4c-0.6,0-1.1,0.5-1.1,1.2v18.5c0,0.6,0.5,1.2,1.1,1.2h9.4
			c0.6,0,1.1-0.5,1.1-1.2V77.3C394.9,76.7,394.3,76.2,393.7,76.2"/>
		<path id="XMLID_101_" fill="#E5E5E5" d="M39.7,76.2h-5.4c-0.6,0-1.1,0.5-1.1,1.2v18.5c0,0.6,0.5,1.2,1.1,1.2h5.4
			c0.6,0,1.1-0.5,1.1-1.2V77.3C40.8,76.7,40.3,76.2,39.7,76.2"/>
		<path id="XMLID_102_" fill="#E5E5E5" d="M50.4,76.2H45c-0.6,0-1.1,0.5-1.1,1.2v18.5c0,0.6,0.5,1.2,1.1,1.2h5.4
			c0.6,0,1.1-0.5,1.1-1.2V77.3C51.5,76.7,51,76.2,50.4,76.2"/>
		<path id="XMLID_103_" fill="#E5E5E5" d="M14.9,76.2H5.4c-0.6,0-1.1,0.5-1.1,1.2v18.5c0,0.6,0.5,1.2,1.1,1.2h9.4
			c0.6,0,1.1-0.5,1.1-1.2V77.3C16,76.7,15.5,76.2,14.9,76.2"/>
		<path id="XMLID_104_" fill="#E5E5E5" d="M29.4,76.2H20c-0.6,0-1.1,0.5-1.1,1.2v18.5c0,0.6,0.5,1.2,1.1,1.2h9.4
			c0.6,0,1.1-0.5,1.1-1.2V77.3C30.5,76.7,30,76.2,29.4,76.2"/>
		<path id="XMLID_105_" fill="#E5E5E5" d="M64.2,76.2h-9.4c-0.6,0-1.1,0.5-1.1,1.2v18.5c0,0.6,0.5,1.2,1.1,1.2h9.4
			c0.6,0,1.1-0.5,1.1-1.2V77.3C65.3,76.7,64.8,76.2,64.2,76.2"/>
		<path id="XMLID_106_" fill="#E5E5E5" d="M78.9,76.2h-9.4c-0.6,0-1.1,0.5-1.1,1.2v18.5c0,0.6,0.5,1.2,1.1,1.2h9.4
			c0.6,0,1.1-0.5,1.1-1.2V77.3C80,76.7,79.5,76.2,78.9,76.2"/>
		<path id="XMLID_107_" fill="#E5E5E5" d="M119,76.2h-5.4c-0.6,0-1.1,0.5-1.1,1.2v18.5c0,0.6,0.5,1.2,1.1,1.2h5.4
			c0.6,0,1.1-0.5,1.1-1.2V77.3C120.1,76.7,119.6,76.2,119,76.2"/>
		<path id="XMLID_108_" fill="#E5E5E5" d="M129.7,76.2h-5.4c-0.6,0-1.1,0.5-1.1,1.2v18.5c0,0.6,0.5,1.2,1.1,1.2h5.4
			c0.6,0,1.1-0.5,1.1-1.2V77.3C130.8,76.7,130.3,76.2,129.7,76.2"/>
		<path id="XMLID_109_" fill="#E5E5E5" d="M94.1,76.2h-9.4c-0.6,0-1.1,0.5-1.1,1.2v18.5c0,0.6,0.5,1.2,1.1,1.2h9.4
			c0.6,0,1.1-0.5,1.1-1.2V77.3C95.3,76.7,94.8,76.2,94.1,76.2"/>
		<path id="XMLID_110_" fill="#E5E5E5" d="M108.7,76.2h-9.4c-0.6,0-1.1,0.5-1.1,1.2v18.5c0,0.6,0.5,1.2,1.1,1.2h9.4
			c0.6,0,1.1-0.5,1.1-1.2V77.3C109.8,76.7,109.3,76.2,108.7,76.2"/>
		<path id="XMLID_111_" fill="#E5E5E5" d="M143.4,76.2H134c-0.6,0-1.1,0.5-1.1,1.2v18.5c0,0.6,0.5,1.2,1.1,1.2h9.4
			c0.6,0,1.1-0.5,1.1-1.2V77.3C144.6,76.7,144,76.2,143.4,76.2"/>
		<path id="XMLID_112_" fill="#E5E5E5" d="M158.2,76.2h-9.4c-0.6,0-1.1,0.5-1.1,1.2v18.5c0,0.6,0.5,1.2,1.1,1.2h9.4
			c0.6,0,1.1-0.5,1.1-1.2V77.3C159.3,76.7,158.8,76.2,158.2,76.2"/>
		<rect id="XMLID_113_" x="161" y="210.5" fill="#FCFCFC" width="76.2" height="76.2"/>
		<ellipse id="XMLID_114_" fill="#9ACFE2" cx="199.5" cy="249.5" rx="21.5" ry="22"/>
		<circle id="XMLID_37_" fill="none" cx="201.2" cy="252.9" r="213.5"/>
		<path id="XMLID_36_" fill="#A1ABD0" d="M17.3,393.7h158.5c0.7,0,1.2-0.5,1.2-1.2c0-0.7-0.5-1.2-1.2-1.2H17.3
			c-0.7,0-1.2,0.5-1.2,1.2C16.1,393.2,16.6,393.7,17.3,393.7"/>
		<path id="XMLID_115_" fill="#A1ABD0" d="M43.6,388.4l5,5c0.5,0.5,1.2,0.5,1.7,0c0.5-0.5,0.5-1.2,0-1.7l-5-5
			c-0.5-0.5-1.2-0.5-1.7,0C43.2,387.2,43.2,387.9,43.6,388.4"/>
		<path id="XMLID_116_" fill="#A1ABD0" d="M48.6,391.7l-5,5c-0.5,0.5-0.5,1.2,0,1.7c0.5,0.5,1.2,0.5,1.7,0l5-5
			c0.5-0.5,0.5-1.2,0-1.7C49.8,391.2,49,391.2,48.6,391.7"/>
		<path id="XMLID_117_" fill="#A1ABD0" d="M83.8,388.4l5,5c0.5,0.5,1.2,0.5,1.7,0s0.5-1.2,0-1.7l-5-5c-0.5-0.5-1.2-0.5-1.7,0
			C83.4,387.2,83.4,387.9,83.8,388.4"/>
		<path id="XMLID_118_" fill="#A1ABD0" d="M88.8,391.7l-5,5c-0.5,0.5-0.5,1.2,0,1.7c0.5,0.5,1.2,0.5,1.7,0l5-5
			c0.5-0.5,0.5-1.2,0-1.7C90,391.2,89.2,391.2,88.8,391.7"/>
		<path id="XMLID_119_" fill="#A1ABD0" d="M124,388.4l5,5c0.5,0.5,1.2,0.5,1.7,0s0.5-1.2,0-1.7l-5-5c-0.5-0.5-1.2-0.5-1.7,0
			C123.6,387.2,123.6,387.9,124,388.4"/>
		<path id="XMLID_120_" fill="#A1ABD0" d="M129,391.7l-5,5c-0.5,0.5-0.5,1.2,0,1.7c0.5,0.5,1.2,0.5,1.7,0l5-5c0.5-0.5,0.5-1.2,0-1.7
			C130.2,391.2,129.4,391.2,129,391.7"/>
		<path id="XMLID_121_" fill="#A1ABD0" d="M228.9,393.7h158.5c0.7,0,1.2-0.5,1.2-1.2c0-0.7-0.5-1.2-1.2-1.2H228.9
			c-0.7,0-1.2,0.5-1.2,1.2C227.7,393.2,228.3,393.7,228.9,393.7"/>
		<path id="XMLID_122_" fill="#A1ABD0" d="M255.3,388.4l5,5c0.5,0.5,1.2,0.5,1.7,0c0.5-0.5,0.5-1.2,0-1.7l-5-5
			c-0.5-0.5-1.2-0.5-1.7,0S254.8,387.9,255.3,388.4"/>
		<path id="XMLID_123_" fill="#A1ABD0" d="M260.2,391.7l-5,5c-0.5,0.5-0.5,1.2,0,1.7c0.5,0.5,1.2,0.5,1.7,0l5-5
			c0.5-0.5,0.5-1.2,0-1.7C261.4,391.2,260.7,391.2,260.2,391.7"/>
		<path id="XMLID_124_" fill="#A1ABD0" d="M295.5,388.4l5,5c0.5,0.5,1.2,0.5,1.7,0c0.5-0.5,0.5-1.2,0-1.7l-5-5
			c-0.5-0.5-1.2-0.5-1.7,0S295,387.9,295.5,388.4"/>
		<path id="XMLID_125_" fill="#A1ABD0" d="M300.4,391.7l-5,5c-0.5,0.5-0.5,1.2,0,1.7c0.5,0.5,1.2,0.5,1.7,0l5-5
			c0.5-0.5,0.5-1.2,0-1.7C301.6,391.2,300.9,391.2,300.4,391.7"/>
		<path id="XMLID_126_" fill="#A1ABD0" d="M335.7,388.4l5,5c0.5,0.5,1.2,0.5,1.7,0c0.5-0.5,0.5-1.2,0-1.7l-5-5
			c-0.5-0.5-1.2-0.5-1.7,0S335.2,387.9,335.7,388.4"/>
		<path id="XMLID_127_" fill="#A1ABD0" d="M340.6,391.7l-5,5c-0.5,0.5-0.5,1.2,0,1.7c0.5,0.5,1.2,0.5,1.7,0l5-5
			c0.5-0.5,0.5-1.2,0-1.7C341.8,391.2,341.1,391.2,340.6,391.7"/>
		<path id="XMLID_128_" fill="#A1ABD0" d="M386.2,111.1H227.7c-0.7,0-1.2,0.5-1.2,1.2c0,0.7,0.5,1.2,1.2,1.2h158.5
			c0.7,0,1.2-0.5,1.2-1.2C387.4,111.7,386.8,111.1,386.2,111.1"/>
		<path id="XMLID_129_" fill="#A1ABD0" d="M359.8,116.4l-5-5c-0.5-0.5-1.2-0.5-1.7,0c-0.5,0.5-0.5,1.2,0,1.7l5,5
			c0.5,0.5,1.2,0.5,1.7,0C360.3,117.6,360.3,116.9,359.8,116.4"/>
		<path id="XMLID_130_" fill="#A1ABD0" d="M354.9,113.1l5-5c0.5-0.5,0.5-1.2,0-1.7c-0.5-0.5-1.2-0.5-1.7,0l-5,5
			c-0.5,0.5-0.5,1.2,0,1.7S354.4,113.6,354.9,113.1"/>
		<path id="XMLID_131_" fill="#A1ABD0" d="M319.6,116.4l-5-5c-0.5-0.5-1.2-0.5-1.7,0c-0.5,0.5-0.5,1.2,0,1.7l5,5
			c0.5,0.5,1.2,0.5,1.7,0C320.1,117.6,320.1,116.9,319.6,116.4"/>
		<path id="XMLID_132_" fill="#A1ABD0" d="M314.7,113.1l5-5c0.5-0.5,0.5-1.2,0-1.7c-0.5-0.5-1.2-0.5-1.7,0l-5,5
			c-0.5,0.5-0.5,1.2,0,1.7S314.2,113.6,314.7,113.1"/>
		<path id="XMLID_133_" fill="#A1ABD0" d="M279.4,116.4l-5-5c-0.5-0.5-1.2-0.5-1.7,0c-0.5,0.5-0.5,1.2,0,1.7l5,5
			c0.5,0.5,1.2,0.5,1.7,0C279.9,117.6,279.9,116.9,279.4,116.4"/>
		<path id="XMLID_134_" fill="#A1ABD0" d="M274.5,113.1l5-5c0.5-0.5,0.5-1.2,0-1.7c-0.5-0.5-1.2-0.5-1.7,0l-5,5
			c-0.5,0.5-0.5,1.2,0,1.7S274,113.6,274.5,113.1"/>
		<path id="XMLID_135_" fill="#A1ABD0" d="M174.5,111.1H16.1c-0.7,0-1.2,0.5-1.2,1.2c0,0.7,0.5,1.2,1.2,1.2h158.5
			c0.7,0,1.2-0.5,1.2-1.2C175.7,111.7,175.2,111.1,174.5,111.1"/>
		<path id="XMLID_136_" fill="#A1ABD0" d="M148.2,116.4l-5-5c-0.5-0.5-1.2-0.5-1.7,0c-0.5,0.5-0.5,1.2,0,1.7l5,5
			c0.5,0.5,1.2,0.5,1.7,0S148.6,116.9,148.2,116.4"/>
		<path id="XMLID_137_" fill="#A1ABD0" d="M143.2,113.1l5-5c0.5-0.5,0.5-1.2,0-1.7c-0.5-0.5-1.2-0.5-1.7,0l-5,5
			c-0.5,0.5-0.5,1.2,0,1.7S142.7,113.6,143.2,113.1"/>
		<path id="XMLID_138_" fill="#A1ABD0" d="M108,116.4l-5-5c-0.5-0.5-1.2-0.5-1.7,0c-0.5,0.5-0.5,1.2,0,1.7l5,5
			c0.5,0.5,1.2,0.5,1.7,0S108.4,116.9,108,116.4"/>
		<path id="XMLID_139_" fill="#A1ABD0" d="M103,113.1l5-5c0.5-0.5,0.5-1.2,0-1.7c-0.5-0.5-1.2-0.5-1.7,0l-5,5
			c-0.5,0.5-0.5,1.2,0,1.7C101.8,113.6,102.5,113.6,103,113.1"/>
		<path id="XMLID_140_" fill="#A1ABD0" d="M67.8,116.4l-5-5c-0.5-0.5-1.2-0.5-1.7,0c-0.5,0.5-0.5,1.2,0,1.7l5,5
			c0.5,0.5,1.2,0.5,1.7,0C68.2,117.6,68.2,116.9,67.8,116.4"/>
		<path id="XMLID_141_" fill="#A1ABD0" d="M62.8,113.1l5-5c0.5-0.5,0.5-1.2,0-1.7c-0.5-0.5-1.2-0.5-1.7,0l-5,5
			c-0.5,0.5-0.5,1.2,0,1.7C61.6,113.6,62.3,113.6,62.8,113.1"/>
		<path id="XMLID_157_" fill="#FFB8C7" d="M227.3,249.8c0,1.5-0.1,2.9-0.3,4.3c-0.1,0.9,0.5,1.7,1.3,1.8c0.9,0.1,1.7-0.5,1.8-1.3
			c0.2-1.6,0.4-3.2,0.4-4.8c0-0.9-0.7-1.6-1.6-1.6C228,248.2,227.3,248.9,227.3,249.8L227.3,249.8z M225.5,239.8
			c0.5,1.3,0.9,2.7,1.2,4.2c0.2,0.9,1,1.4,1.9,1.2c0.9-0.2,1.4-1,1.2-1.9c-0.3-1.6-0.8-3.1-1.3-4.6c-0.3-0.8-1.2-1.3-2.1-0.9
			C225.6,238.1,225.2,239,225.5,239.8L225.5,239.8z M219.1,229.9c1,1,2,2.1,2.8,3.3c0.5,0.7,1.5,0.9,2.2,0.4
			c0.7-0.5,0.9-1.5,0.4-2.2c-1-1.3-2-2.5-3.1-3.7c-0.6-0.6-1.6-0.6-2.3,0C218.5,228.2,218.5,229.2,219.1,229.9L219.1,229.9z
			 M209.1,223.4c1.4,0.5,2.7,1.1,3.9,1.9c0.8,0.4,1.8,0.2,2.2-0.6c0.4-0.8,0.2-1.8-0.6-2.2c-1.4-0.8-2.9-1.5-4.4-2.1
			c-0.8-0.3-1.8,0.1-2.1,0.9C207.9,222.1,208.3,223.1,209.1,223.4L209.1,223.4z M197.4,221.6c0.5,0,1.1,0,1.6,0c0.9,0,1.8,0,2.7,0.1
			c0.9,0.1,1.7-0.6,1.8-1.4c0.1-0.9-0.6-1.7-1.4-1.8c-1-0.1-2-0.1-3-0.1c-0.6,0-1.2,0-1.8,0.1c-0.9,0.1-1.6,0.8-1.5,1.7
			C195.8,220.9,196.5,221.6,197.4,221.6L197.4,221.6z M186,224.7c1.3-0.7,2.6-1.2,4-1.7c0.8-0.3,1.3-1.2,1-2c-0.3-0.8-1.2-1.3-2-1
			c-1.5,0.5-3,1.2-4.4,1.9c-0.8,0.4-1.1,1.4-0.7,2.2C184.2,224.8,185.2,225.1,186,224.7L186,224.7z M176.9,232.3
			c0.9-1.1,1.9-2.2,2.9-3.2c0.6-0.6,0.7-1.6,0.1-2.3c-0.6-0.6-1.6-0.7-2.3-0.1c-1.2,1.1-2.3,2.3-3.3,3.6c-0.5,0.7-0.4,1.7,0.3,2.3
			C175.3,233.1,176.3,233,176.9,232.3L176.9,232.3z M171.6,243c0.4-1.4,0.8-2.8,1.4-4.1c0.3-0.8,0-1.8-0.9-2.1
			c-0.8-0.3-1.8,0-2.1,0.9c-0.6,1.5-1.1,3-1.5,4.6c-0.2,0.9,0.3,1.7,1.2,1.9C170.5,244.4,171.4,243.8,171.6,243L171.6,243z
			 M171.3,254.8c-0.3-1.4-0.4-2.8-0.4-4.3c0-0.9-0.8-1.6-1.6-1.6c-0.9,0-1.6,0.8-1.6,1.6c0,1.6,0.2,3.2,0.5,4.8
			c0.2,0.9,1,1.5,1.9,1.3C170.8,256.5,171.4,255.7,171.3,254.8L171.3,254.8z M175.8,265.8c-0.8-1.2-1.6-2.4-2.2-3.8
			c-0.4-0.8-1.3-1.1-2.1-0.7c-0.8,0.4-1.1,1.3-0.7,2.1c0.7,1.5,1.5,2.9,2.4,4.2c0.5,0.7,1.5,0.9,2.2,0.4
			C176.1,267.5,176.3,266.5,175.8,265.8z M184.4,273.9c-1.2-0.8-2.4-1.6-3.5-2.5c-0.7-0.6-1.7-0.5-2.3,0.2c-0.6,0.7-0.5,1.7,0.2,2.3
			c1.2,1,2.5,2,3.9,2.8c0.8,0.5,1.7,0.2,2.2-0.5C185.4,275.4,185.2,274.4,184.4,273.9L184.4,273.9z M195.6,277.8
			c-1.5-0.2-2.9-0.5-4.3-0.9c-0.9-0.2-1.7,0.3-2,1.1c-0.2,0.9,0.3,1.7,1.1,2c1.5,0.4,3.1,0.8,4.7,0.9c0.9,0.1,1.7-0.5,1.8-1.4
			C197.1,278.7,196.5,277.9,195.6,277.8z M207.4,276.8c-1.4,0.4-2.8,0.7-4.2,1c-0.9,0.1-1.5,0.9-1.4,1.8c0.1,0.9,0.9,1.5,1.8,1.4
			c1.6-0.2,3.2-0.6,4.7-1.1c0.8-0.3,1.3-1.2,1.1-2C209.2,277,208.3,276.5,207.4,276.8L207.4,276.8z M217.8,270.9
			c-1.1,1-2.2,1.8-3.5,2.6c-0.7,0.5-1,1.5-0.5,2.2c0.5,0.7,1.5,1,2.2,0.5c1.4-0.9,2.6-1.9,3.9-2.9c0.7-0.6,0.7-1.6,0.1-2.3
			C219.5,270.4,218.4,270.3,217.8,270.9L217.8,270.9z M224.8,261.4c-0.6,1.3-1.3,2.6-2.1,3.8c-0.5,0.7-0.3,1.7,0.5,2.2
			c0.7,0.5,1.7,0.3,2.2-0.5c0.9-1.3,1.7-2.8,2.3-4.2c0.4-0.8,0-1.8-0.8-2.1C226.1,260.2,225.2,260.6,224.8,261.4L224.8,261.4z"/>
		<path id="XMLID_170_" fill="#FFB8C7" d="M319.9,328.9c0.5,1.6,1.2,3.2,2.2,4.6c0.5,0.7,1.5,0.9,2.2,0.4c0.7-0.5,0.9-1.5,0.4-2.2
			c-0.8-1.1-1.3-2.3-1.7-3.7c-0.3-0.8-1.2-1.3-2-1.1C320.1,327.2,319.7,328.1,319.9,328.9L319.9,328.9z M316.7,317
			c0.6,1.2,1,2.5,1.4,4c0.2,0.9,1.1,1.4,1.9,1.2c0.9-0.2,1.4-1.1,1.2-1.9c-0.4-1.6-0.9-3.2-1.7-4.7c-0.4-0.8-1.4-1.1-2.2-0.7
			C316.6,315.3,316.3,316.2,316.7,317L316.7,317z M307.9,312.1c0.2,0,0.5,0,0.7,0c1,0,2,0.2,3.1,0.6c0.8,0.3,1.8-0.1,2.1-0.9
			c0.3-0.8-0.1-1.8-0.9-2.1c-1.5-0.5-2.9-0.8-4.3-0.8c-0.3,0-0.6,0-1,0c-0.9,0.1-1.5,0.8-1.5,1.7C306.2,311.5,307,312.2,307.9,312.1
			L307.9,312.1z M296.9,316.8c1.4-0.7,2.8-1.5,4.1-2.2c0.8-0.4,1.1-1.4,0.6-2.2c-0.4-0.8-1.4-1.1-2.2-0.6c-1.4,0.7-2.7,1.5-4,2.1
			c-0.8,0.4-1.1,1.4-0.7,2.2C295.1,316.9,296.1,317.2,296.9,316.8L296.9,316.8z M283.3,317.1c0.3,0.2,0.7,0.4,1,0.5
			c1.3,0.6,2.7,1,3.9,1.1c0.9,0.1,1.7-0.5,1.8-1.4c0.1-0.9-0.5-1.7-1.4-1.8c-0.9-0.1-1.9-0.4-2.9-0.8c-0.3-0.1-0.5-0.3-0.8-0.4
			c-0.8-0.4-1.8-0.2-2.2,0.6C282.3,315.7,282.6,316.6,283.3,317.1L283.3,317.1z M276.4,305.5c0.3,1.6,0.7,3.1,1.2,4.7
			c0.3,0.8,1.2,1.3,2.1,1c0.8-0.3,1.3-1.2,1-2.1c-0.5-1.3-0.8-2.7-1.1-4.2c-0.2-0.9-1-1.4-1.9-1.3
			C276.8,303.7,276.3,304.6,276.4,305.5L276.4,305.5z M272.3,294.8c1,0.9,1.6,2,2.2,3.2c0.4,0.8,1.3,1.2,2.1,0.8
			c0.8-0.4,1.2-1.3,0.8-2.1c-0.7-1.5-1.6-3-2.9-4.3c-0.6-0.6-1.7-0.6-2.3,0.1C271.7,293.1,271.7,294.2,272.3,294.8L272.3,294.8z
			 M262.3,292.9c1.3-0.5,2.5-0.7,3.7-0.7l0.2,0c0.9,0,1.6-0.7,1.6-1.6c0-0.9-0.7-1.6-1.6-1.6l-0.2,0c-1.7,0-3.3,0.4-4.8,0.9
			c-0.8,0.3-1.3,1.2-1,2.1C260.5,292.8,261.4,293.2,262.3,292.9L262.3,292.9z M250.8,298.4c1.6-0.5,3.1-1.2,4.5-1.9
			c0.8-0.4,1.1-1.4,0.7-2.2c-0.4-0.8-1.4-1.1-2.2-0.7c-1.3,0.7-2.6,1.3-3.9,1.7c-0.9,0.3-1.3,1.1-1.1,2
			C249,298.1,249.9,298.6,250.8,298.4L250.8,298.4z M237.6,294.7c1.1,1.2,2.4,2.3,4.2,3.1l0,0c0.8,0.4,1.8,0,2.1-0.8
			c0.4-0.8,0-1.8-0.8-2.1l0,0c-1.3-0.6-2.3-1.4-3.1-2.3c-0.6-0.7-1.6-0.7-2.3-0.2C237.1,293,237,294,237.6,294.7z M233.2,282.2
			c0.3,1.4,0.6,3,0.9,4.5c0.2,0.9,1,1.4,1.9,1.2c0.9-0.2,1.4-1,1.2-1.9c-0.3-1.4-0.6-3-0.9-4.5c-0.2-0.9-1-1.4-1.9-1.2
			C233.5,280.4,233,281.3,233.2,282.2z M227.3,273.2c1.4,0.6,2.3,1.4,3.1,2.3c0.6,0.7,1.6,0.8,2.3,0.2c0.7-0.6,0.8-1.6,0.2-2.3
			c-1.1-1.2-2.4-2.3-4.2-3.1c-0.8-0.4-1.8,0-2.1,0.8C226.1,271.9,226.5,272.9,227.3,273.2L227.3,273.2z"/>
		<path id="XMLID_183_" fill="#FFB8C7" d="M169.3,222.9c0.8,1.5,1.9,2.9,3.4,4c0.7,0.5,1.7,0.4,2.2-0.3c0.5-0.7,0.4-1.7-0.3-2.2
			c-1.1-0.8-1.8-1.8-2.5-2.9c-0.4-0.8-1.4-1.1-2.2-0.7C169.2,221.1,168.9,222.1,169.3,222.9L169.3,222.9z M165.8,210.5
			c0.4,1.3,0.8,2.8,1.1,4.3c0.2,0.9,1,1.4,1.9,1.2c0.9-0.2,1.4-1,1.2-1.9c-0.3-1.5-0.7-3.1-1.2-4.6c-0.3-0.8-1.2-1.3-2-1
			C165.9,208.8,165.5,209.7,165.8,210.5L165.8,210.5z M158.1,203.8c0.8,0.1,1.6,0.3,2.5,0.7c0.4,0.2,0.8,0.4,1.1,0.6
			c0.8,0.5,1.7,0.2,2.2-0.5c0.5-0.8,0.2-1.7-0.5-2.2c-0.5-0.3-1-0.5-1.5-0.8c-1.2-0.5-2.3-0.8-3.4-0.9c-0.9-0.1-1.7,0.5-1.8,1.4
			C156.6,203,157.2,203.7,158.1,203.8L158.1,203.8z M147.5,207.9c1.3-0.8,2.6-1.6,3.9-2.3c0.8-0.4,1.1-1.4,0.7-2.2
			c-0.4-0.8-1.4-1.1-2.2-0.7c-1.4,0.8-2.7,1.6-4,2.4c-0.8,0.5-1,1.4-0.5,2.2C145.7,208.1,146.7,208.4,147.5,207.9z M134.2,210.6
			c1.3,0.5,2.6,0.7,3.8,0.7c0.5,0,1,0,1.4-0.1c0.9-0.1,1.5-0.9,1.4-1.8c-0.1-0.9-0.9-1.5-1.8-1.4c-0.3,0-0.7,0.1-1,0.1
			c-0.9,0-1.8-0.1-2.7-0.5c-0.8-0.3-1.8,0.1-2,1C133,209.4,133.4,210.3,134.2,210.6L134.2,210.6z M125.8,200
			c0.4,1.6,0.9,3.2,1.6,4.7c0.4,0.8,1.4,1.1,2.2,0.7c0.8-0.4,1.1-1.4,0.7-2.2c-0.6-1.2-1-2.5-1.4-4c-0.2-0.9-1.1-1.4-1.9-1.2
			C126.1,198.3,125.6,199.2,125.8,200L125.8,200z M122.1,188.8c0.8,1,1.4,2.2,1.9,3.5c0.3,0.8,1.2,1.3,2,1c0.8-0.3,1.3-1.2,1-2
			c-0.6-1.6-1.3-3.1-2.4-4.5c-0.6-0.7-1.6-0.8-2.3-0.2C121.6,187.1,121.5,188.1,122.1,188.8z M112.4,186.3c1-0.4,2.1-0.6,3.1-0.6
			c0.2,0,0.5,0,0.7,0c0.9,0.1,1.7-0.6,1.8-1.5c0.1-0.9-0.6-1.7-1.5-1.8c-0.3,0-0.7,0-1,0c-1.5,0-2.9,0.3-4.2,0.7
			c-0.8,0.3-1.3,1.2-1,2C110.6,186.1,111.5,186.6,112.4,186.3L112.4,186.3z M101.3,192.2c1.5-0.6,2.9-1.4,4.3-2.2
			c0.8-0.5,1-1.4,0.6-2.2c-0.5-0.8-1.4-1-2.2-0.6c-1.3,0.8-2.6,1.5-3.8,2c-0.8,0.3-1.2,1.3-0.9,2.1
			C99.5,192.1,100.5,192.5,101.3,192.2L101.3,192.2z M87.9,189.7c1,1,2.2,1.9,3.7,2.5c0.2,0.1,0.5,0.2,0.7,0.3
			c0.8,0.3,1.8-0.1,2.1-1c0.3-0.8-0.1-1.8-1-2.1c-0.2-0.1-0.3-0.1-0.5-0.2c-1.2-0.5-2-1.1-2.7-1.8c-0.6-0.6-1.6-0.6-2.3,0
			C87.2,188,87.2,189.1,87.9,189.7L87.9,189.7z M83,177.3c0.3,1.4,0.6,3,1,4.5c0.2,0.9,1.1,1.4,1.9,1.2c0.9-0.2,1.4-1.1,1.2-1.9
			c-0.3-1.4-0.6-2.9-1-4.5c-0.2-0.9-1.1-1.4-1.9-1.2C83.4,175.6,82.8,176.4,83,177.3L83,177.3z M77.1,168.4c1.4,0.6,2.3,1.3,3.1,2.2
			c0.6,0.7,1.6,0.7,2.3,0.2c0.7-0.6,0.7-1.6,0.2-2.3c-1.1-1.2-2.5-2.3-4.3-3.1c-0.8-0.4-1.8,0-2.1,0.8
			C75.9,167.1,76.3,168.1,77.1,168.4L77.1,168.4z"/>
		<path id="XMLID_184_" fill="#4B5E7F" d="M295.4,258.9h-1.2v3.6h-2.4v-2.4l3.6,0V258.9h-1.2H295.4v-1.2h-4.8
			c-0.3,0-0.6,0.1-0.8,0.3c-0.2,0.2-0.3,0.5-0.3,0.8v4.8c0,0.3,0.1,0.6,0.3,0.8c0.2,0.2,0.5,0.3,0.8,0.3h4.8c0.3,0,0.6-0.1,0.8-0.3
			c0.2-0.2,0.3-0.5,0.3-0.8v-4.8c0-0.3-0.1-0.6-0.3-0.8c-0.2-0.2-0.5-0.3-0.8-0.3V258.9z"/>
		<path id="XMLID_185_" fill="#4B5E7F" d="M295.4,238v-1.2h-3.6v-2.4h2.4v3.6H295.4v-1.2V238h1.2v-4.8c0-0.3-0.1-0.6-0.3-0.8
			c-0.2-0.2-0.5-0.3-0.8-0.3h-4.8c-0.3,0-0.6,0.1-0.8,0.3c-0.2,0.2-0.3,0.5-0.3,0.8v4.8c0,0.3,0.1,0.6,0.3,0.8
			c0.2,0.2,0.5,0.3,0.8,0.3h4.8c0.3,0,0.6-0.1,0.8-0.3c0.2-0.2,0.3-0.5,0.3-0.8H295.4z"/>
		<path id="XMLID_186_" fill="#4B5E7F" d="M251.2,258.4H250v3.6h-2.4v-2.4l3.6,0V258.4H250H251.2v-1.2h-4.8c-0.3,0-0.6,0.1-0.8,0.3
			c-0.2,0.2-0.3,0.5-0.3,0.8v4.8c0,0.3,0.1,0.6,0.3,0.8c0.2,0.2,0.5,0.3,0.8,0.3h4.8c0.3,0,0.6-0.1,0.8-0.3c0.2-0.2,0.3-0.5,0.3-0.8
			v-4.8c0-0.3-0.1-0.6-0.3-0.8c-0.2-0.2-0.5-0.3-0.8-0.3V258.4z"/>
		<path id="XMLID_187_" fill="#4B5E7F" d="M251.2,238v-1.2h-3.6v-2.4h2.4v3.6H251.2v-1.2V238h1.2v-4.8c0-0.3-0.1-0.6-0.3-0.8
			c-0.2-0.2-0.5-0.3-0.8-0.3h-4.8c-0.3,0-0.6,0.1-0.8,0.3c-0.2,0.2-0.3,0.5-0.3,0.8v4.8c0,0.3,0.1,0.6,0.3,0.8
			c0.2,0.2,0.5,0.3,0.8,0.3h4.8c0.3,0,0.6-0.1,0.8-0.3c0.2-0.2,0.3-0.5,0.3-0.8H251.2z"/>
		<path id="XMLID_188_" fill="#A1ABD0" d="M228.9,215.2V214h-3.6v-2.4h2.4v3.6H228.9V214V215.2h1.2v-4.8c0-0.3-0.1-0.6-0.3-0.8
			c-0.2-0.2-0.5-0.3-0.8-0.3h-4.8c-0.3,0-0.6,0.1-0.8,0.3c-0.2,0.2-0.3,0.5-0.3,0.8v4.8c0,0.3,0.1,0.6,0.3,0.8
			c0.2,0.2,0.5,0.3,0.8,0.3h4.8c0.3,0,0.6-0.1,0.8-0.3c0.2-0.2,0.3-0.5,0.3-0.8H228.9z"/>
		<path id="XMLID_189_" fill="#A1ABD0" d="M176.9,215.2V214h-3.6v-2.4h2.4v3.6H176.9V214V215.2h1.2v-4.8c0-0.3-0.1-0.6-0.3-0.8
			c-0.2-0.2-0.5-0.3-0.8-0.3h-4.8c-0.3,0-0.6,0.1-0.8,0.3c-0.2,0.2-0.3,0.5-0.3,0.8v4.8c0,0.3,0.1,0.6,0.3,0.8
			c0.2,0.2,0.5,0.3,0.8,0.3h4.8c0.3,0,0.6-0.1,0.8-0.3c0.2-0.2,0.3-0.5,0.3-0.8H176.9z"/>
		<path id="XMLID_190_" fill="#A1ABD0" d="M228.9,290.9v-1.2h-3.6v-2.4h2.4v3.6H228.9v-1.2V290.9h1.2v-4.8c0-0.3-0.1-0.6-0.3-0.8
			c-0.2-0.2-0.5-0.3-0.8-0.3h-4.8c-0.3,0-0.6,0.1-0.8,0.3c-0.2,0.2-0.3,0.5-0.3,0.8v4.8c0,0.3,0.1,0.6,0.3,0.8
			c0.2,0.2,0.5,0.3,0.8,0.3h4.8c0.3,0,0.6-0.1,0.8-0.3c0.2-0.2,0.3-0.5,0.3-0.8H228.9z"/>
		<path id="XMLID_191_" fill="#A1ABD0" d="M176.9,290.9v-1.2h-3.6v-2.4h2.4v3.6H176.9v-1.2V290.9h1.2v-4.8c0-0.3-0.1-0.6-0.3-0.8
			c-0.2-0.2-0.5-0.3-0.8-0.3h-4.8c-0.3,0-0.6,0.1-0.8,0.3c-0.2,0.2-0.3,0.5-0.3,0.8v4.8c0,0.3,0.1,0.6,0.3,0.8
			c0.2,0.2,0.5,0.3,0.8,0.3h4.8c0.3,0,0.6-0.1,0.8-0.3c0.2-0.2,0.3-0.5,0.3-0.8H176.9z"/>
		<path id="XMLID_199_" fill="#4B5E7F" d="M288,237.7h1.2c0.7,0,1.2-0.5,1.2-1.2c0-0.7-0.5-1.2-1.2-1.2H288c-0.7,0-1.2,0.5-1.2,1.2
			C286.9,237.1,287.4,237.7,288,237.7z M282.1,237.7h1.2c0.7,0,1.2-0.5,1.2-1.2c0-0.7-0.5-1.2-1.2-1.2h-1.2c-0.7,0-1.2,0.5-1.2,1.2
			C280.9,237.1,281.5,237.7,282.1,237.7z M276.2,237.7h1.2c0.7,0,1.2-0.5,1.2-1.2c0-0.7-0.5-1.2-1.2-1.2h-1.2
			c-0.7,0-1.2,0.5-1.2,1.2C275,237.1,275.6,237.7,276.2,237.7z M270.3,237.7h1.2c0.7,0,1.2-0.5,1.2-1.2c0-0.7-0.5-1.2-1.2-1.2h-1.2
			c-0.7,0-1.2,0.5-1.2,1.2C269.1,237.1,269.7,237.7,270.3,237.7z M264.4,237.7h1.2c0.7,0,1.2-0.5,1.2-1.2c0-0.7-0.5-1.2-1.2-1.2
			h-1.2c-0.7,0-1.2,0.5-1.2,1.2C263.2,237.1,263.7,237.7,264.4,237.7z M258.5,237.7h1.2c0.7,0,1.2-0.5,1.2-1.2
			c0-0.7-0.5-1.2-1.2-1.2h-1.2c-0.7,0-1.2,0.5-1.2,1.2C257.3,237.1,257.8,237.7,258.5,237.7z M252.6,237.7h1.2
			c0.7,0,1.2-0.5,1.2-1.2c0-0.7-0.5-1.2-1.2-1.2h-1.2c-0.7,0-1.2,0.5-1.2,1.2C251.4,237.1,251.9,237.7,252.6,237.7z"/>
		<path id="XMLID_207_" fill="#4B5E7F" d="M288,262.5h1.2c0.7,0,1.2-0.5,1.2-1.2c0-0.7-0.5-1.2-1.2-1.2H288c-0.7,0-1.2,0.5-1.2,1.2
			C286.9,262,287.4,262.5,288,262.5z M282.1,262.5h1.2c0.7,0,1.2-0.5,1.2-1.2c0-0.7-0.5-1.2-1.2-1.2h-1.2c-0.7,0-1.2,0.5-1.2,1.2
			C280.9,262,281.5,262.5,282.1,262.5z M276.2,262.5h1.2c0.7,0,1.2-0.5,1.2-1.2c0-0.7-0.5-1.2-1.2-1.2h-1.2c-0.7,0-1.2,0.5-1.2,1.2
			C275,262,275.6,262.5,276.2,262.5z M270.3,262.5h1.2c0.7,0,1.2-0.5,1.2-1.2c0-0.7-0.5-1.2-1.2-1.2h-1.2c-0.7,0-1.2,0.5-1.2,1.2
			C269.1,262,269.7,262.5,270.3,262.5z M264.4,262.5h1.2c0.7,0,1.2-0.5,1.2-1.2c0-0.7-0.5-1.2-1.2-1.2h-1.2c-0.7,0-1.2,0.5-1.2,1.2
			C263.2,262,263.7,262.5,264.4,262.5z M258.5,262.5h1.2c0.7,0,1.2-0.5,1.2-1.2c0-0.7-0.5-1.2-1.2-1.2h-1.2c-0.7,0-1.2,0.5-1.2,1.2
			C257.3,262,257.8,262.5,258.5,262.5z M252.6,262.5h1.2c0.7,0,1.2-0.5,1.2-1.2c0-0.7-0.5-1.2-1.2-1.2h-1.2c-0.7,0-1.2,0.5-1.2,1.2
			C251.4,262,251.9,262.5,252.6,262.5z"/>
		<path id="XMLID_212_" fill="#4B5E7F" d="M247.8,256.6v1.2c0,0.7,0.5,1.2,1.2,1.2c0.7,0,1.2-0.5,1.2-1.2v-1.2
			c0-0.7-0.5-1.2-1.2-1.2C248.4,255.4,247.8,255.9,247.8,256.6z M247.8,250.7v1.2c0,0.7,0.5,1.2,1.2,1.2c0.7,0,1.2-0.5,1.2-1.2v-1.2
			c0-0.7-0.5-1.2-1.2-1.2C248.4,249.5,247.8,250,247.8,250.7z M247.8,244.8v1.2c0,0.7,0.5,1.2,1.2,1.2c0.7,0,1.2-0.5,1.2-1.2v-1.2
			c0-0.7-0.5-1.2-1.2-1.2C248.4,243.6,247.8,244.1,247.8,244.8z M247.8,238.8v1.2c0,0.7,0.5,1.2,1.2,1.2c0.7,0,1.2-0.5,1.2-1.2v-1.2
			c0-0.7-0.5-1.2-1.2-1.2C248.4,237.7,247.8,238.2,247.8,238.8z"/>
		<path id="XMLID_217_" fill="#4B5E7F" d="M291.6,256.6v1.2c0,0.7,0.5,1.2,1.2,1.2c0.7,0,1.2-0.5,1.2-1.2v-1.2
			c0-0.7-0.5-1.2-1.2-1.2C292.1,255.4,291.6,255.9,291.6,256.6z M291.6,250.7v1.2c0,0.7,0.5,1.2,1.2,1.2c0.7,0,1.2-0.5,1.2-1.2v-1.2
			c0-0.7-0.5-1.2-1.2-1.2C292.1,249.5,291.6,250,291.6,250.7z M291.6,244.8v1.2c0,0.7,0.5,1.2,1.2,1.2c0.7,0,1.2-0.5,1.2-1.2v-1.2
			c0-0.7-0.5-1.2-1.2-1.2C292.1,243.6,291.6,244.1,291.6,244.8z M291.6,238.8v1.2c0,0.7,0.5,1.2,1.2,1.2c0.7,0,1.2-0.5,1.2-1.2v-1.2
			c0-0.7-0.5-1.2-1.2-1.2C292.1,237.7,291.6,238.2,291.6,238.8z"/>
		<path id="XMLID_221_" fill="#4B5E7F" d="M206.6,247.3c0.3-0.1,0.7-0.1,1.1-0.2c0.6-0.1,1.1-0.7,1-1.3c-0.1-0.6-0.7-1.1-1.3-1
			c-0.4,0.1-0.9,0.1-1.3,0.2c-0.6,0.2-1,0.8-0.9,1.4C205.3,247,206,247.4,206.6,247.3L206.6,247.3z M202.2,249.8
			c0.2-0.2,0.5-0.5,0.7-0.7c0.5-0.4,0.6-1.2,0.1-1.7c-0.4-0.5-1.2-0.6-1.7-0.1c-0.4,0.3-0.7,0.6-1,0.9c-0.4,0.5-0.4,1.2,0.1,1.7
			C201,250.4,201.8,250.3,202.2,249.8L202.2,249.8z M200.2,254.4L200.2,254.4L200.2,254.4L200.2,254.4L200.2,254.4L200.2,254.4
			c0,0,0-0.4,0.1-1c0.1-0.6-0.3-1.3-0.9-1.4c-0.6-0.1-1.3,0.3-1.4,0.9c-0.2,0.8-0.2,1.3-0.2,1.4c0,0.7,0.5,1.2,1.2,1.2
			C199.7,255.6,200.2,255.1,200.2,254.4L200.2,254.4z"/>
		<path id="XMLID_225_" fill="#4B5E7F" d="M192.4,245c-0.4-0.1-0.8-0.2-1.3-0.2c-0.6-0.1-1.2,0.3-1.3,1c-0.1,0.6,0.3,1.2,1,1.3
			c0.4,0.1,0.7,0.1,1.1,0.2c0.6,0.2,1.3-0.2,1.4-0.9C193.4,245.8,193,245.1,192.4,245L192.4,245z M198,248.3c-0.3-0.3-0.6-0.6-1-0.9
			c-0.5-0.4-1.2-0.4-1.7,0.1c-0.4,0.5-0.4,1.2,0.1,1.7c0.3,0.2,0.5,0.5,0.7,0.7c0.4,0.5,1.2,0.5,1.7,0.1
			C198.4,249.5,198.4,248.7,198,248.3L198,248.3z M200.5,254.4c0-0.1,0-0.6-0.2-1.4c-0.1-0.6-0.8-1-1.4-0.9c-0.6,0.1-1,0.8-0.9,1.4
			c0.1,0.3,0.1,0.6,0.1,0.7l0,0.2l0,0l0,0l0,0v0l0,0l0,0c0,0.7,0.6,1.2,1.2,1.2C200,255.6,200.6,255,200.5,254.4L200.5,254.4z"/>
		<path id="XMLID_226_" fill="#A1ABD0" d="M-1.7,223.5h164.4c0.7,0,1.2-0.5,1.2-1.2c0-0.7-0.5-1.2-1.2-1.2H-1.7
			c-0.7,0-1.2,0.5-1.2,1.2C-2.9,222.9-2.3,223.5-1.7,223.5"/>
		<path id="XMLID_227_" fill="#A1ABD0" d="M-1.7,276.7h164.4c0.7,0,1.2-0.5,1.2-1.2c0-0.7-0.5-1.2-1.2-1.2H-1.7
			c-0.7,0-1.2,0.5-1.2,1.2C-2.9,276.1-2.3,276.7-1.7,276.7"/>
		<path id="XMLID_228_" fill="#A1ABD0" d="M237.2,223.5h164.4c0.7,0,1.2-0.5,1.2-1.2c0-0.7-0.5-1.2-1.2-1.2H237.2
			c-0.7,0-1.2,0.5-1.2,1.2C236,222.9,236.5,223.5,237.2,223.5"/>
		<path id="XMLID_229_" fill="#A1ABD0" d="M237.2,276.7h164.4c0.7,0,1.2-0.5,1.2-1.2c0-0.7-0.5-1.2-1.2-1.2H237.2
			c-0.7,0-1.2,0.5-1.2,1.2C236,276.1,236.5,276.7,237.2,276.7"/>
		<path id="XMLID_230_" fill="#A1ABD0" d="M62.2,271.9v7.1c0,0.7,0.5,1.2,1.2,1.2c0.7,0,1.2-0.5,1.2-1.2v-7.1c0-0.7-0.5-1.2-1.2-1.2
			C62.7,270.8,62.2,271.3,62.2,271.9"/>
		<path id="XMLID_231_" fill="#A1ABD0" d="M92.9,271.9v7.1c0,0.7,0.5,1.2,1.2,1.2c0.7,0,1.2-0.5,1.2-1.2v-7.1c0-0.7-0.5-1.2-1.2-1.2
			C93.5,270.8,92.9,271.3,92.9,271.9"/>
		<path id="XMLID_232_" fill="#A1ABD0" d="M123.7,271.9v7.1c0,0.7,0.5,1.2,1.2,1.2c0.7,0,1.2-0.5,1.2-1.2v-7.1
			c0-0.7-0.5-1.2-1.2-1.2C124.2,270.8,123.7,271.3,123.7,271.9"/>
		<path id="XMLID_233_" fill="#A1ABD0" d="M62.2,218.7v7.1c0,0.7,0.5,1.2,1.2,1.2c0.7,0,1.2-0.5,1.2-1.2v-7.1c0-0.7-0.5-1.2-1.2-1.2
			C62.7,217.6,62.2,218.1,62.2,218.7"/>
		<path id="XMLID_234_" fill="#A1ABD0" d="M92.9,218.7v7.1c0,0.7,0.5,1.2,1.2,1.2c0.7,0,1.2-0.5,1.2-1.2v-7.1c0-0.7-0.5-1.2-1.2-1.2
			C93.5,217.6,92.9,218.1,92.9,218.7"/>
		<path id="XMLID_235_" fill="#A1ABD0" d="M123.7,218.7v7.1c0,0.7,0.5,1.2,1.2,1.2c0.7,0,1.2-0.5,1.2-1.2v-7.1
			c0-0.7-0.5-1.2-1.2-1.2C124.2,217.6,123.7,218.1,123.7,218.7"/>
		<path id="XMLID_236_" fill="#A1ABD0" d="M264.4,218.7v7.1c0,0.7,0.5,1.2,1.2,1.2c0.7,0,1.2-0.5,1.2-1.2v-7.1
			c0-0.7-0.5-1.2-1.2-1.2C264.9,217.6,264.4,218.1,264.4,218.7"/>
		<path id="XMLID_237_" fill="#A1ABD0" d="M295.1,218.7v7.1c0,0.7,0.5,1.2,1.2,1.2c0.7,0,1.2-0.5,1.2-1.2v-7.1
			c0-0.7-0.5-1.2-1.2-1.2C295.7,217.6,295.1,218.1,295.1,218.7"/>
		<path id="XMLID_238_" fill="#A1ABD0" d="M325.9,218.7v7.1c0,0.7,0.5,1.2,1.2,1.2c0.7,0,1.2-0.5,1.2-1.2v-7.1
			c0-0.7-0.5-1.2-1.2-1.2C326.4,217.6,325.9,218.1,325.9,218.7"/>
		<path id="XMLID_239_" fill="#A1ABD0" d="M356.6,218.7v7.1c0,0.7,0.5,1.2,1.2,1.2c0.7,0,1.2-0.5,1.2-1.2v-7.1
			c0-0.7-0.5-1.2-1.2-1.2C357.2,217.6,356.6,218.1,356.6,218.7"/>
		<path id="XMLID_240_" fill="#A1ABD0" d="M264.4,271.9v7.1c0,0.7,0.5,1.2,1.2,1.2c0.7,0,1.2-0.5,1.2-1.2v-7.1
			c0-0.7-0.5-1.2-1.2-1.2C264.9,270.8,264.4,271.3,264.4,271.9"/>
		<path id="XMLID_241_" fill="#A1ABD0" d="M295.1,271.9v7.1c0,0.7,0.5,1.2,1.2,1.2c0.7,0,1.2-0.5,1.2-1.2v-7.1
			c0-0.7-0.5-1.2-1.2-1.2C295.7,270.8,295.1,271.3,295.1,271.9"/>
		<path id="XMLID_242_" fill="#A1ABD0" d="M325.9,271.9v7.1c0,0.7,0.5,1.2,1.2,1.2c0.7,0,1.2-0.5,1.2-1.2v-7.1
			c0-0.7-0.5-1.2-1.2-1.2C326.4,270.8,325.9,271.3,325.9,271.9"/>
		<path id="XMLID_243_" fill="#A1ABD0" d="M356.6,271.9v7.1c0,0.7,0.5,1.2,1.2,1.2c0.7,0,1.2-0.5,1.2-1.2v-7.1
			c0-0.7-0.5-1.2-1.2-1.2C357.2,270.8,356.6,271.3,356.6,271.9"/>
		<path id="XMLID_244_" fill="#A1ABD0" d="M225.4,41.4v169.1c0,0.7,0.5,1.2,1.2,1.2c0.7,0,1.2-0.5,1.2-1.2V41.4
			c0-0.7-0.5-1.2-1.2-1.2C225.9,40.2,225.4,40.7,225.4,41.4"/>
		<path id="XMLID_245_" fill="#A1ABD0" d="M173.3,41.4v169.1c0,0.7,0.5,1.2,1.2,1.2c0.7,0,1.2-0.5,1.2-1.2V41.4
			c0-0.7-0.5-1.2-1.2-1.2C173.9,40.2,173.3,40.7,173.3,41.4"/>
		<path id="XMLID_246_" fill="#A1ABD0" d="M225.4,290.9V460c0,0.7,0.5,1.2,1.2,1.2c0.7,0,1.2-0.5,1.2-1.2V290.9
			c0-0.7-0.5-1.2-1.2-1.2C225.9,289.7,225.4,290.2,225.4,290.9"/>
		<path id="XMLID_247_" fill="#A1ABD0" d="M173.3,290.9V460c0,0.7,0.5,1.2,1.2,1.2c0.7,0,1.2-0.5,1.2-1.2V290.9
			c0-0.7-0.5-1.2-1.2-1.2C173.9,289.7,173.3,290.2,173.3,290.9"/>
		<path id="XMLID_330_" fill="#FFB8C7" d="M402.7,250.1c0,1.5,0,3-0.1,4.5c-0.1,0.9,0.6,1.7,1.5,1.7c0.9,0.1,1.7-0.6,1.7-1.5
			c0.1-1.6,0.2-3.1,0.2-4.7c0-0.9-0.7-1.6-1.6-1.6C403.5,248.5,402.7,249.3,402.7,250.1L402.7,250.1z M402.3,242.2
			c0.2,1.5,0.3,3,0.4,4.5c0,0.9,0.8,1.6,1.7,1.5c0.9,0,1.6-0.8,1.5-1.7c-0.1-1.6-0.2-3.1-0.4-4.7c-0.1-0.9-0.9-1.5-1.8-1.4
			C402.8,240.5,402.2,241.3,402.3,242.2z M399.8,230.2c0.4,1.4,0.8,2.9,1.2,4.3c0.2,0.9,1.1,1.4,1.9,1.2c0.9-0.2,1.4-1.1,1.2-1.9
			c-0.4-1.5-0.8-3-1.2-4.5c-0.3-0.9-1.2-1.3-2-1.1C400,228.4,399.5,229.3,399.8,230.2L399.8,230.2z M395.2,218.7
			c0.7,1.4,1.3,2.7,1.9,4.1c0.3,0.8,1.3,1.2,2.1,0.9c0.8-0.3,1.2-1.3,0.9-2.1c-0.6-1.4-1.2-2.9-1.9-4.3c-0.4-0.8-1.4-1.1-2.2-0.7
			C395.2,216.9,394.8,217.9,395.2,218.7L395.2,218.7z M389,208c0.9,1.3,1.7,2.5,2.4,3.8c0.5,0.8,1.5,1,2.2,0.5
			c0.8-0.5,1-1.5,0.5-2.2c-0.8-1.3-1.6-2.6-2.5-3.9c-0.5-0.7-1.5-0.9-2.2-0.4C388.7,206.2,388.5,207.2,389,208L389,208z
			 M381.4,198.1c1,1.1,2,2.3,2.9,3.5c0.6,0.7,1.6,0.8,2.3,0.3c0.7-0.6,0.8-1.6,0.3-2.3c-1-1.2-2-2.4-3-3.6c-0.6-0.7-1.6-0.7-2.3-0.2
			C380.9,196.5,380.8,197.5,381.4,198.1L381.4,198.1z M372.7,189.2c1.1,1,2.2,2.1,3.3,3.2c0.6,0.6,1.6,0.6,2.3,0
			c0.6-0.6,0.6-1.6,0-2.3c-1.1-1.1-2.2-2.2-3.3-3.2c-0.6-0.6-1.7-0.6-2.3,0.1C372,187.6,372.1,188.6,372.7,189.2L372.7,189.2z
			 M363.2,181.1c1.2,0.9,2.4,1.9,3.5,2.8c0.7,0.6,1.7,0.5,2.3-0.2c0.6-0.7,0.5-1.7-0.2-2.3c-1.2-1-2.4-2-3.6-2.9
			c-0.7-0.5-1.7-0.4-2.3,0.3C362.4,179.6,362.5,180.6,363.2,181.1L363.2,181.1z M353.1,173.8c1.3,0.8,2.5,1.7,3.8,2.6
			c0.7,0.5,1.7,0.3,2.2-0.4c0.5-0.7,0.3-1.7-0.4-2.2c-1.3-0.9-2.5-1.8-3.8-2.6c-0.7-0.5-1.7-0.3-2.2,0.5
			C352.1,172.3,352.3,173.3,353.1,173.8L353.1,173.8z M342.4,167.3c1.3,0.8,2.6,1.5,3.9,2.3c0.8,0.5,1.7,0.2,2.2-0.6
			c0.5-0.8,0.2-1.7-0.6-2.2c-1.3-0.8-2.7-1.6-4-2.3c-0.8-0.4-1.8-0.2-2.2,0.6C341.3,165.9,341.6,166.8,342.4,167.3z M331.3,161.4
			c1.4,0.7,2.7,1.4,4.1,2c0.8,0.4,1.8,0.1,2.2-0.7c0.4-0.8,0.1-1.8-0.7-2.2c-1.4-0.7-2.7-1.4-4.1-2.1c-0.8-0.4-1.8-0.1-2.2,0.7
			C330.2,160.1,330.5,161,331.3,161.4L331.3,161.4z M319.9,156.2c1.4,0.6,2.8,1.2,4.2,1.8c0.8,0.4,1.8,0,2.1-0.8
			c0.4-0.8,0-1.8-0.8-2.1c-1.4-0.6-2.8-1.2-4.2-1.8c-0.8-0.3-1.8,0-2.1,0.9C318.7,154.9,319,155.9,319.9,156.2L319.9,156.2z
			 M308.2,151.6c1.4,0.5,2.9,1.1,4.3,1.6c0.8,0.3,1.8-0.1,2.1-0.9c0.3-0.8-0.1-1.8-0.9-2.1c-1.4-0.6-2.9-1.1-4.3-1.6
			c-0.8-0.3-1.8,0.1-2.1,1C306.9,150.4,307.3,151.3,308.2,151.6L308.2,151.6z M296.3,147.6c1.5,0.5,2.9,0.9,4.4,1.4
			c0.8,0.3,1.8-0.2,2-1c0.3-0.8-0.2-1.8-1-2c-1.5-0.5-2.9-1-4.4-1.4c-0.8-0.3-1.7,0.2-2,1.1C294.9,146.5,295.4,147.4,296.3,147.6
			L296.3,147.6z M284.2,144.2c1.5,0.4,3,0.8,4.4,1.2c0.9,0.2,1.7-0.3,2-1.1c0.2-0.9-0.3-1.7-1.1-2c-1.5-0.4-3-0.8-4.5-1.2
			c-0.9-0.2-1.7,0.3-2,1.1C282.8,143.1,283.3,143.9,284.2,144.2L284.2,144.2z M272,141.2c1.5,0.3,3,0.7,4.5,1
			c0.9,0.2,1.7-0.3,1.9-1.2c0.2-0.9-0.3-1.7-1.2-1.9c-1.5-0.4-3-0.7-4.5-1c-0.9-0.2-1.7,0.4-1.9,1.2
			C270.5,140.2,271.1,141,272,141.2L272,141.2z M259.6,138.8c1.5,0.3,3,0.5,4.5,0.8c0.9,0.2,1.7-0.4,1.9-1.3
			c0.2-0.9-0.4-1.7-1.3-1.9c-1.5-0.3-3-0.6-4.5-0.8c-0.9-0.2-1.7,0.4-1.9,1.3C258.2,137.8,258.8,138.6,259.6,138.8L259.6,138.8z
			 M247.2,136.8c1.5,0.2,3,0.4,4.5,0.7c0.9,0.1,1.7-0.5,1.8-1.3c0.1-0.9-0.5-1.7-1.3-1.8c-1.5-0.2-3-0.5-4.6-0.7
			c-0.9-0.1-1.7,0.5-1.8,1.4C245.7,135.9,246.3,136.7,247.2,136.8L247.2,136.8z M234.7,135.4c1.5,0.2,3,0.3,4.5,0.5
			c0.9,0.1,1.7-0.5,1.8-1.4c0.1-0.9-0.5-1.7-1.4-1.8c-1.5-0.2-3.1-0.3-4.6-0.5c-0.9-0.1-1.7,0.6-1.8,1.4
			C233.2,134.5,233.8,135.3,234.7,135.4L234.7,135.4z M222.2,134.3c1.5,0.1,3,0.2,4.6,0.3c0.9,0.1,1.7-0.6,1.7-1.5
			c0.1-0.9-0.6-1.7-1.5-1.7c-1.5-0.1-3.1-0.2-4.6-0.3c-0.9-0.1-1.6,0.6-1.7,1.5C220.6,133.5,221.3,134.3,222.2,134.3L222.2,134.3z
			 M209.6,133.8c1.5,0,3.1,0.1,4.6,0.2c0.9,0,1.6-0.7,1.7-1.5c0-0.9-0.7-1.6-1.5-1.7c-1.5-0.1-3.1-0.1-4.6-0.2
			c-0.9,0-1.6,0.7-1.7,1.6C208,133,208.7,133.8,209.6,133.8L209.6,133.8z M197,133.7c1,0,1.9,0,2.9,0c0.6,0,1.1,0,1.7,0
			c0.9,0,1.6-0.7,1.6-1.6c0-0.9-0.7-1.6-1.6-1.6c-0.6,0-1.1,0-1.7,0c-1,0-2,0-2.9,0c-0.9,0-1.6,0.7-1.6,1.6
			C195.4,133,196.1,133.7,197,133.7z M184.4,134c1.5-0.1,3-0.1,4.6-0.2c0.9,0,1.6-0.8,1.6-1.7c0-0.9-0.8-1.6-1.7-1.6
			c-1.5,0-3.1,0.1-4.6,0.2c-0.9,0-1.6,0.8-1.5,1.7C182.8,133.3,183.6,134,184.4,134L184.4,134z M171.9,134.8c1.5-0.1,3-0.2,4.6-0.3
			c0.9-0.1,1.6-0.8,1.5-1.7c-0.1-0.9-0.8-1.6-1.7-1.5c-1.5,0.1-3.1,0.2-4.6,0.3c-0.9,0.1-1.5,0.8-1.5,1.7
			C170.2,134.2,171,134.8,171.9,134.8L171.9,134.8z M159.4,136c1.5-0.2,3-0.3,4.5-0.5c0.9-0.1,1.5-0.9,1.4-1.8
			c-0.1-0.9-0.9-1.5-1.8-1.4c-1.5,0.2-3.1,0.3-4.6,0.5c-0.9,0.1-1.5,0.9-1.4,1.8C157.7,135.5,158.5,136.1,159.4,136L159.4,136z
			 M146.9,137.7c1.5-0.2,3-0.5,4.5-0.7c0.9-0.1,1.5-0.9,1.4-1.8c-0.1-0.9-0.9-1.5-1.8-1.4c-1.5,0.2-3.1,0.4-4.6,0.7
			c-0.9,0.1-1.5,1-1.3,1.8C145.2,137.2,146,137.8,146.9,137.7L146.9,137.7z M134.5,139.9c1.5-0.3,3-0.6,4.5-0.8
			c0.9-0.2,1.5-1,1.3-1.9c-0.2-0.9-1-1.5-1.9-1.3c-1.5,0.3-3,0.6-4.5,0.9c-0.9,0.2-1.4,1-1.3,1.9C132.8,139.5,133.7,140,134.5,139.9
			L134.5,139.9z M122.2,142.5c1.5-0.4,3-0.7,4.5-1c0.9-0.2,1.4-1.1,1.2-1.9c-0.2-0.9-1.1-1.4-1.9-1.2c-1.5,0.3-3,0.7-4.5,1
			c-0.9,0.2-1.4,1.1-1.2,1.9C120.5,142.2,121.4,142.7,122.2,142.5L122.2,142.5z M110.1,145.7c1.5-0.4,2.9-0.8,4.4-1.2
			c0.9-0.2,1.4-1.1,1.1-2c-0.2-0.9-1.1-1.4-2-1.1c-1.5,0.4-3,0.8-4.5,1.2c-0.9,0.2-1.3,1.1-1.1,2C108.3,145.5,109.2,146,110.1,145.7
			L110.1,145.7z M98.1,149.4c1.4-0.5,2.9-1,4.3-1.4c0.8-0.3,1.3-1.2,1-2c-0.3-0.8-1.2-1.3-2-1c-1.5,0.5-2.9,0.9-4.4,1.4
			c-0.8,0.3-1.3,1.2-1,2C96.3,149.3,97.2,149.7,98.1,149.4z M86.3,153.7c1.4-0.6,2.8-1.1,4.3-1.6c0.8-0.3,1.3-1.2,1-2.1
			c-0.3-0.8-1.2-1.3-2.1-1c-1.5,0.5-2.9,1.1-4.3,1.6c-0.8,0.3-1.2,1.3-0.9,2.1C84.5,153.6,85.4,154,86.3,153.7z M74.7,158.6
			c1.4-0.6,2.8-1.2,4.2-1.8c0.8-0.4,1.2-1.3,0.8-2.1c-0.4-0.8-1.3-1.2-2.1-0.8c-1.4,0.6-2.8,1.2-4.2,1.9c-0.8,0.4-1.2,1.3-0.8,2.1
			C72.9,158.6,73.9,158.9,74.7,158.6L74.7,158.6z M63.4,164.1c1.3-0.7,2.7-1.4,4.1-2.1c0.8-0.4,1.1-1.4,0.7-2.2
			c-0.4-0.8-1.4-1.1-2.2-0.7c-1.4,0.7-2.8,1.4-4.1,2.1c-0.8,0.4-1.1,1.4-0.7,2.2C61.7,164.2,62.6,164.5,63.4,164.1L63.4,164.1z
			 M52.5,170.2c1.3-0.8,2.6-1.6,3.9-2.3c0.8-0.4,1-1.4,0.6-2.2c-0.4-0.8-1.4-1-2.2-0.6c-1.3,0.8-2.7,1.6-4,2.4
			c-0.8,0.5-1,1.5-0.5,2.2C50.8,170.4,51.7,170.7,52.5,170.2L52.5,170.2z M42,177.1c1.2-0.9,2.5-1.7,3.7-2.6
			c0.7-0.5,0.9-1.5,0.4-2.2c-0.5-0.7-1.5-0.9-2.2-0.4c-1.3,0.9-2.6,1.7-3.8,2.6c-0.7,0.5-0.9,1.5-0.4,2.2
			C40.3,177.5,41.3,177.6,42,177.1L42,177.1z M32.2,184.8c1.1-1,2.3-1.9,3.5-2.9c0.7-0.6,0.8-1.6,0.3-2.3c-0.6-0.7-1.6-0.8-2.3-0.3
			c-1.2,1-2.4,1.9-3.6,2.9c-0.7,0.6-0.8,1.6-0.2,2.3C30.5,185.2,31.5,185.3,32.2,184.8L32.2,184.8z M23,193.2c1-1.1,2.1-2.1,3.2-3.2
			c0.6-0.6,0.7-1.6,0.1-2.3c-0.6-0.6-1.6-0.7-2.3-0.1c-1.1,1.1-2.2,2.2-3.3,3.3c-0.6,0.6-0.6,1.7,0,2.3
			C21.4,193.9,22.4,193.9,23,193.2z M14.8,202.6c0.9-1.2,1.9-2.3,2.9-3.5c0.6-0.7,0.5-1.7-0.2-2.3c-0.7-0.6-1.7-0.5-2.3,0.2
			c-1,1.2-2,2.4-2.9,3.6c-0.5,0.7-0.4,1.7,0.3,2.3C13.2,203.4,14.3,203.3,14.8,202.6L14.8,202.6z M7.8,212.8
			c0.8-1.3,1.6-2.6,2.4-3.8c0.5-0.7,0.3-1.7-0.5-2.2c-0.7-0.5-1.7-0.3-2.2,0.5c-0.9,1.3-1.7,2.6-2.5,4c-0.5,0.8-0.2,1.8,0.6,2.2
			C6.4,213.9,7.3,213.6,7.8,212.8L7.8,212.8z M2.3,223.9c0.6-1.4,1.2-2.8,1.8-4.1c0.4-0.8,0-1.8-0.8-2.1c-0.8-0.4-1.8,0-2.1,0.8
			c-0.7,1.4-1.3,2.9-1.9,4.3c-0.3,0.8,0.1,1.8,0.9,2.1C1,225.2,2,224.8,2.3,223.9z M-1.3,235.7c0.3-1.5,0.7-2.9,1.1-4.4
			c0.2-0.9-0.3-1.7-1.1-2c-0.9-0.2-1.7,0.3-2,1.1c-0.4,1.5-0.8,3-1.1,4.6c-0.2,0.9,0.4,1.7,1.2,1.9C-2.4,237.1-1.5,236.6-1.3,235.7z
			 M-2.8,247.9c0-1.5,0.1-3,0.3-4.5c0.1-0.9-0.6-1.7-1.4-1.8c-0.9-0.1-1.7,0.6-1.8,1.4c-0.2,1.6-0.3,3.1-0.3,4.7
			c0,0.9,0.7,1.6,1.6,1.7C-3.6,249.5-2.8,248.8-2.8,247.9z M-2.1,260.2c-0.2-1.5-0.4-3-0.5-4.5c-0.1-0.9-0.9-1.5-1.7-1.5
			c-0.9,0.1-1.5,0.9-1.5,1.7c0.1,1.6,0.3,3.1,0.5,4.7c0.1,0.9,1,1.5,1.8,1.4C-2.6,261.9-2,261.1-2.1,260.2L-2.1,260.2z M0.8,272.2
			c-0.5-1.4-0.9-2.9-1.3-4.3c-0.2-0.9-1.1-1.4-2-1.1c-0.9,0.2-1.4,1.1-1.1,2c0.4,1.5,0.9,3,1.4,4.5c0.3,0.8,1.2,1.3,2,1
			C0.6,274,1.1,273.1,0.8,272.2z M5.7,283.6c-0.7-1.3-1.4-2.7-2-4c-0.4-0.8-1.3-1.2-2.1-0.8c-0.8,0.4-1.2,1.3-0.8,2.1
			c0.6,1.4,1.3,2.8,2.1,4.2c0.4,0.8,1.4,1.1,2.2,0.7C5.8,285.3,6.1,284.4,5.7,283.6L5.7,283.6z M12.2,294.1
			c-0.9-1.2-1.7-2.5-2.5-3.7c-0.5-0.7-1.5-1-2.2-0.5c-0.7,0.5-1,1.5-0.5,2.2c0.8,1.3,1.7,2.6,2.6,3.9c0.5,0.7,1.5,0.9,2.2,0.4
			C12.5,295.9,12.7,294.9,12.2,294.1L12.2,294.1z M20,303.8c-1-1.1-2-2.3-3-3.4c-0.6-0.7-1.6-0.8-2.3-0.2c-0.7,0.6-0.8,1.6-0.2,2.3
			c1,1.2,2,2.4,3.1,3.5c0.6,0.7,1.6,0.7,2.3,0.1C20.5,305.5,20.6,304.5,20,303.8L20,303.8z M28.8,312.6c-1.1-1-2.2-2.1-3.3-3.1
			c-0.6-0.6-1.7-0.6-2.3,0c-0.6,0.6-0.6,1.7,0,2.3c1.1,1.1,2.2,2.1,3.4,3.2c0.7,0.6,1.7,0.5,2.3-0.1
			C29.5,314.2,29.5,313.2,28.8,312.6L28.8,312.6z M38.4,320.5c-1.2-0.9-2.4-1.9-3.6-2.8c-0.7-0.6-1.7-0.4-2.3,0.2
			c-0.6,0.7-0.4,1.7,0.2,2.3c1.2,1,2.4,1.9,3.7,2.9c0.7,0.5,1.7,0.4,2.3-0.3C39.3,322.1,39.2,321.1,38.4,320.5z M48.7,327.7
			c-1.3-0.8-2.6-1.7-3.8-2.5c-0.7-0.5-1.7-0.3-2.2,0.4c-0.5,0.7-0.3,1.7,0.4,2.2c1.3,0.9,2.6,1.7,3.9,2.6c0.7,0.5,1.7,0.3,2.2-0.5
			C49.7,329.2,49.5,328.2,48.7,327.7L48.7,327.7z M59.5,334.1c-1.3-0.7-2.7-1.5-4-2.3c-0.8-0.4-1.8-0.2-2.2,0.6
			c-0.4,0.8-0.2,1.8,0.6,2.2c1.3,0.8,2.7,1.5,4,2.3c0.8,0.4,1.8,0.1,2.2-0.6C60.5,335.5,60.3,334.5,59.5,334.1z M70.6,339.8
			c-1.4-0.7-2.7-1.3-4.1-2c-0.8-0.4-1.8-0.1-2.2,0.7c-0.4,0.8-0.1,1.8,0.7,2.2c1.4,0.7,2.8,1.4,4.2,2c0.8,0.4,1.8,0,2.1-0.8
			C71.8,341.2,71.4,340.2,70.6,339.8z M82.1,344.9c-1.4-0.6-2.8-1.2-4.2-1.8c-0.8-0.4-1.8,0-2.1,0.8c-0.4,0.8,0,1.8,0.8,2.1
			c1.4,0.6,2.8,1.2,4.3,1.8c0.8,0.3,1.8-0.1,2.1-0.9C83.3,346.2,82.9,345.3,82.1,344.9L82.1,344.9z M93.8,349.4
			c-1.4-0.5-2.9-1-4.3-1.6c-0.8-0.3-1.8,0.1-2.1,0.9c-0.3,0.8,0.1,1.8,0.9,2.1c1.4,0.5,2.9,1.1,4.3,1.6c0.8,0.3,1.8-0.1,2.1-1
			C95.1,350.6,94.7,349.7,93.8,349.4L93.8,349.4z M105.8,353.3c-1.5-0.4-2.9-0.9-4.4-1.4c-0.8-0.3-1.8,0.2-2,1c-0.3,0.8,0.2,1.8,1,2
			c1.5,0.5,2.9,0.9,4.4,1.4c0.8,0.3,1.7-0.2,2-1.1C107.1,354.5,106.6,353.6,105.8,353.3L105.8,353.3z M117.9,356.7
			c-1.5-0.4-3-0.8-4.4-1.2c-0.9-0.2-1.7,0.3-2,1.1c-0.2,0.9,0.3,1.7,1.1,2c1.5,0.4,3,0.8,4.5,1.2c0.9,0.2,1.7-0.3,2-1.2
			C119.3,357.8,118.7,356.9,117.9,356.7L117.9,356.7z M130.1,359.5c-1.5-0.3-3-0.6-4.5-1c-0.9-0.2-1.7,0.3-1.9,1.2
			c-0.2,0.9,0.3,1.7,1.2,1.9c1.5,0.3,3,0.7,4.5,1c0.9,0.2,1.7-0.4,1.9-1.2C131.6,360.6,131,359.7,130.1,359.5L130.1,359.5z
			 M142.5,361.9c-1.5-0.3-3-0.5-4.5-0.8c-0.9-0.2-1.7,0.4-1.9,1.3c-0.2,0.9,0.4,1.7,1.3,1.9c1.5,0.3,3,0.5,4.5,0.8
			c0.9,0.1,1.7-0.4,1.9-1.3C143.9,362.9,143.4,362,142.5,361.9L142.5,361.9z M154.9,363.7c-1.5-0.2-3-0.4-4.5-0.6
			c-0.9-0.1-1.7,0.5-1.8,1.4c-0.1,0.9,0.5,1.7,1.4,1.8c1.5,0.2,3,0.4,4.6,0.6c0.9,0.1,1.7-0.5,1.8-1.4
			C156.4,364.7,155.8,363.9,154.9,363.7L154.9,363.7z M167.4,365.1c-1.5-0.1-3-0.3-4.6-0.5c-0.9-0.1-1.7,0.5-1.8,1.4
			c-0.1,0.9,0.5,1.7,1.4,1.8c1.5,0.2,3.1,0.3,4.6,0.5c0.9,0.1,1.7-0.6,1.7-1.5C169,366,168.3,365.2,167.4,365.1L167.4,365.1z
			 M180,366.1c-1.5-0.1-3-0.2-4.6-0.3c-0.9-0.1-1.7,0.6-1.7,1.5c-0.1,0.9,0.6,1.7,1.5,1.7c1.5,0.1,3.1,0.2,4.6,0.3
			c0.9,0,1.6-0.6,1.7-1.5C181.5,366.9,180.9,366.1,180,366.1L180,366.1z M192.5,366.6c-1.5,0-3.1-0.1-4.6-0.1
			c-0.9,0-1.6,0.7-1.7,1.6c0,0.9,0.7,1.6,1.6,1.7c1.5,0.1,3.1,0.1,4.6,0.1c0.9,0,1.6-0.7,1.6-1.6
			C194.1,367.3,193.4,366.6,192.5,366.6L192.5,366.6z M205.1,366.6c-1.5,0-3,0-4.6,0c-0.9,0-1.6,0.7-1.6,1.6c0,0.9,0.7,1.6,1.6,1.6
			c1.5,0,3.1,0,4.6,0c0.9,0,1.6-0.7,1.6-1.6C206.7,367.3,206,366.6,205.1,366.6L205.1,366.6z M217.7,366.2c-1.5,0.1-3,0.1-4.6,0.2
			c-0.9,0-1.6,0.8-1.5,1.7c0,0.9,0.8,1.6,1.7,1.5c1.5-0.1,3.1-0.1,4.6-0.2c0.9,0,1.6-0.8,1.5-1.7
			C219.3,366.8,218.6,366.1,217.7,366.2L217.7,366.2z M230.2,365.3c-1.5,0.1-3,0.3-4.6,0.4c-0.9,0.1-1.6,0.8-1.5,1.7
			c0.1,0.9,0.8,1.6,1.7,1.5c1.5-0.1,3.1-0.2,4.6-0.4c0.9-0.1,1.5-0.9,1.5-1.7C231.9,365.9,231.1,365.3,230.2,365.3L230.2,365.3z
			 M242.8,364c-1.5,0.2-3,0.4-4.5,0.5c-0.9,0.1-1.5,0.9-1.4,1.8c0.1,0.9,0.9,1.5,1.8,1.4c1.5-0.2,3.1-0.3,4.6-0.5
			c0.9-0.1,1.5-0.9,1.4-1.8C244.4,364.5,243.6,363.9,242.8,364L242.8,364z M255.2,362.2c-1.5,0.2-3,0.5-4.5,0.7
			c-0.9,0.1-1.5,0.9-1.4,1.8c0.1,0.9,0.9,1.5,1.8,1.4c1.5-0.2,3-0.5,4.6-0.7c0.9-0.1,1.5-1,1.3-1.8
			C256.9,362.7,256.1,362.1,255.2,362.2L255.2,362.2z M267.6,360c-1.5,0.3-3,0.6-4.5,0.9c-0.9,0.2-1.4,1-1.3,1.9
			c0.2,0.9,1,1.4,1.9,1.3c1.5-0.3,3-0.6,4.5-0.9c0.9-0.2,1.4-1,1.3-1.9C269.3,360.4,268.4,359.8,267.6,360L267.6,360z M279.8,357.2
			c-1.5,0.4-3,0.7-4.4,1.1c-0.9,0.2-1.4,1.1-1.2,1.9c0.2,0.9,1.1,1.4,1.9,1.2c1.5-0.3,3-0.7,4.5-1.1c0.9-0.2,1.4-1.1,1.2-1.9
			C281.6,357.5,280.7,357,279.8,357.2z M292,353.9c-1.5,0.4-2.9,0.8-4.4,1.3c-0.9,0.2-1.4,1.1-1.1,2c0.2,0.9,1.1,1.4,2,1.1
			c1.5-0.4,3-0.8,4.4-1.3c0.9-0.3,1.3-1.1,1.1-2C293.7,354.2,292.8,353.7,292,353.9L292,353.9z M303.9,350.1c-1.4,0.5-2.9,1-4.3,1.5
			c-0.8,0.3-1.3,1.2-1,2c0.3,0.8,1.2,1.3,2,1c1.5-0.5,2.9-1,4.4-1.5c0.8-0.3,1.3-1.2,1-2C305.7,350.3,304.8,349.8,303.9,350.1
			L303.9,350.1z M315.7,345.8c-1.4,0.6-2.8,1.1-4.3,1.7c-0.8,0.3-1.2,1.2-0.9,2.1c0.3,0.8,1.2,1.2,2.1,0.9c1.4-0.6,2.9-1.1,4.3-1.7
			c0.8-0.3,1.2-1.3,0.9-2.1C317.5,345.8,316.5,345.4,315.7,345.8z M327.2,340.8c-1.4,0.6-2.8,1.3-4.2,1.9c-0.8,0.4-1.2,1.3-0.8,2.1
			c0.4,0.8,1.3,1.2,2.1,0.8c1.4-0.6,2.8-1.3,4.2-1.9c0.8-0.4,1.2-1.3,0.8-2.1C329,340.8,328,340.4,327.2,340.8L327.2,340.8z
			 M338.5,335.2c-1.3,0.7-2.7,1.4-4,2.1c-0.8,0.4-1.1,1.4-0.7,2.2c0.4,0.8,1.4,1.1,2.2,0.7c1.4-0.7,2.8-1.4,4.1-2.1
			c0.8-0.4,1.1-1.4,0.7-2.2C340.2,335,339.2,334.7,338.5,335.2z M349.3,328.9c-1.3,0.8-2.6,1.6-3.9,2.4c-0.8,0.5-1,1.4-0.6,2.2
			c0.5,0.8,1.4,1,2.2,0.6c1.3-0.8,2.7-1.6,4-2.4c0.8-0.5,1-1.5,0.5-2.2C351,328.6,350,328.4,349.3,328.9z M359.7,321.9
			c-1.2,0.9-2.4,1.8-3.7,2.6c-0.7,0.5-0.9,1.5-0.4,2.2c0.5,0.7,1.5,0.9,2.2,0.4c1.3-0.9,2.5-1.8,3.8-2.7c0.7-0.5,0.9-1.5,0.3-2.2
			C361.4,321.5,360.4,321.3,359.7,321.9L359.7,321.9z M369.4,314.1c-1.1,1-2.3,2-3.5,2.9c-0.7,0.6-0.8,1.6-0.2,2.3
			c0.6,0.7,1.6,0.8,2.3,0.2c1.2-1,2.4-2,3.6-3c0.7-0.6,0.7-1.6,0.2-2.3C371.1,313.5,370.1,313.5,369.4,314.1z M378.4,305.4
			c-1,1.1-2.1,2.2-3.2,3.2c-0.6,0.6-0.6,1.6,0,2.3c0.6,0.6,1.6,0.6,2.3,0c1.1-1.1,2.2-2.2,3.3-3.3c0.6-0.6,0.6-1.7-0.1-2.3
			C380,304.8,379,304.8,378.4,305.4L378.4,305.4z M386.4,295.9c-0.9,1.2-1.8,2.4-2.8,3.6c-0.6,0.7-0.5,1.7,0.2,2.3
			c0.7,0.6,1.7,0.5,2.3-0.2c1-1.2,1.9-2.4,2.9-3.7c0.5-0.7,0.4-1.7-0.3-2.3C388,295.1,387,295.2,386.4,295.9L386.4,295.9z
			 M393.2,285.5c-0.7,1.3-1.5,2.6-2.3,3.9c-0.5,0.8-0.2,1.7,0.5,2.2c0.8,0.5,1.7,0.2,2.2-0.5c0.8-1.3,1.6-2.7,2.4-4
			c0.4-0.8,0.2-1.8-0.6-2.2C394.6,284.5,393.6,284.7,393.2,285.5L393.2,285.5z M398.4,274.3c-0.5,1.4-1.1,2.8-1.7,4.2
			c-0.4,0.8,0,1.8,0.8,2.1c0.8,0.4,1.8,0,2.1-0.8c0.6-1.4,1.2-2.9,1.7-4.3c0.3-0.8-0.1-1.8-1-2.1C399.6,273,398.7,273.5,398.4,274.3
			L398.4,274.3z M401.6,262.4c-0.3,1.5-0.6,2.9-0.9,4.4c-0.2,0.9,0.3,1.7,1.2,1.9c0.9,0.2,1.7-0.3,1.9-1.2c0.4-1.5,0.7-3,1-4.6
			c0.2-0.9-0.4-1.7-1.3-1.9C402.6,260.9,401.8,261.5,401.6,262.4L401.6,262.4z"/>
		<rect id="XMLID_331_" x="172.1" y="390.7" fill="#EFEFEF" width="4.8" height="4.8"/>
		<path id="XMLID_332_" fill="#A1ABD0" d="M176.9,395.4v-1.2h-3.6v-2.4h2.4v3.6H176.9v-1.2V395.4h1.2v-4.8c0-0.3-0.1-0.6-0.3-0.8
			c-0.2-0.2-0.5-0.3-0.8-0.3h-4.8c-0.3,0-0.6,0.1-0.8,0.3c-0.2,0.2-0.3,0.5-0.3,0.8v4.8c0,0.3,0.1,0.6,0.3,0.8
			c0.2,0.2,0.5,0.3,0.8,0.3h4.8c0.3,0,0.6-0.1,0.8-0.3c0.2-0.2,0.3-0.5,0.3-0.8H176.9z"/>
		<rect id="XMLID_333_" x="224.2" y="390.7" fill="#EFEFEF" width="4.8" height="4.8"/>
		<path id="XMLID_334_" fill="#A1ABD0" d="M228.9,395.4v-1.2h-3.6v-2.4h2.4v3.6H228.9v-1.2V395.4h1.2v-4.8c0-0.3-0.1-0.6-0.3-0.8
			c-0.2-0.2-0.5-0.3-0.8-0.3h-4.8c-0.3,0-0.6,0.1-0.8,0.3c-0.2,0.2-0.3,0.5-0.3,0.8v4.8c0,0.3,0.1,0.6,0.3,0.8
			c0.2,0.2,0.5,0.3,0.8,0.3h4.8c0.3,0,0.6-0.1,0.8-0.3c0.2-0.2,0.3-0.5,0.3-0.8H228.9z"/>
		<rect id="XMLID_335_" x="172.1" y="109.9" fill="#EFEFEF" width="4.8" height="4.8"/>
		<path id="XMLID_336_" fill="#A1ABD0" d="M176.9,114.7v-1.2h-3.6v-2.4h2.4v3.6H176.9v-1.2V114.7h1.2v-4.8c0-0.3-0.1-0.6-0.3-0.8
			c-0.2-0.2-0.5-0.3-0.8-0.3h-4.8c-0.3,0-0.6,0.1-0.8,0.3c-0.2,0.2-0.3,0.5-0.3,0.8v4.8c0,0.3,0.1,0.6,0.3,0.8
			c0.2,0.2,0.5,0.3,0.8,0.3h4.8c0.3,0,0.6-0.1,0.8-0.3c0.2-0.2,0.3-0.5,0.3-0.8H176.9z"/>
		<rect id="XMLID_337_" x="224.2" y="109.9" fill="#EFEFEF" width="4.8" height="4.8"/>
		<path id="XMLID_338_" fill="#A1ABD0" d="M228.9,114.7v-1.2h-3.6v-2.4h2.4v3.6H228.9v-1.2V114.7h1.2v-4.8c0-0.3-0.1-0.6-0.3-0.8
			c-0.2-0.2-0.5-0.3-0.8-0.3h-4.8c-0.3,0-0.6,0.1-0.8,0.3c-0.2,0.2-0.3,0.5-0.3,0.8v4.8c0,0.3,0.1,0.6,0.3,0.8
			c0.2,0.2,0.5,0.3,0.8,0.3h4.8c0.3,0,0.6-0.1,0.8-0.3c0.2-0.2,0.3-0.5,0.3-0.8H228.9z"/>
		<circle id="XMLID_34_" fill="none" cx="200.6" cy="252.3" r="214.1"/>
	</g>
</g>
</svg>
