<svg viewBox="0 0 400 352.5"><defs><path id="a" d="M86.7 40.5h221.8c8.3 0 15 6.7 15 15v221.8c0 8.3-6.7 15-15 15H86.7c-8.3 0-15-6.7-15-15V55.4c0-8.2 6.7-14.9 15-14.9"/></defs><clipPath id="b"><use xlink:href="#a" overflow="visible"/></clipPath><path clip-path="url(#b)" fill="#FBFBFB" d="M104.3 322.4V33.1h219.2v289.3H104.3"/><path clip-path="url(#b)" fill="#F6F7F9" d="M-8 32.5h343.6v289.2H-8V32.5"/><ellipse clip-path="url(#b)" fill="#9ACFE2" cx="81.8" cy="261.1" rx="82.9" ry="84.9"/><path clip-path="url(#b)" fill="#FCFCFC" d="M332.3 106.5l-174.4 93.2 4.6 9 174.4-93.3"/><path clip-path="url(#b)" fill="#FCFCFC" d="M339 297.3L188.3 1.1l-8.8 4.6 150.8 296.2 8.7-4.6"/><path clip-path="url(#b)" fill="#FCFCFC" d="M213.6 175.5L199.3 24.6l-9.8 1 14.3 150.9 9.8-1M-9.3 259.7h4.9c0-25 9.9-47.7 25.9-64.1 16-16.4 38.2-26.6 62.6-26.6s46.6 10.1 62.6 26.6c16 16.4 25.9 39.1 25.9 64.1s-9.9 47.7-25.9 64.1c-16 16.4-38.2 26.6-62.6 26.6s-46.6-10.1-62.6-26.6c-16-16.4-25.9-39.1-25.9-64.1h-9.8c0 55.6 44 100.7 98.4 100.7 54.3 0 98.4-45.1 98.4-100.7S138.4 159 84.1 159s-98.4 45.1-98.4 100.7h5z"/><path clip-path="url(#b)" fill="#F6F7F9" d="M332.5 98.3l-66.7 35.6c-.7.4-1.6.1-2-.7L205 14.2 322.8-.1l9.7 98.4"/><path clip-path="url(#b)" fill="#EFEFEF" d="M276.2 69.5c-.2-.4-.8-.4-1 0l-3.3 8.5-3.5 9.1c-.2.4.2.7.5.7h13.6c.4 0 .6-.4.5-.7l-3.5-9.1-3.3-8.5"/><path clip-path="url(#b)" fill="#B8BCC0" d="M276.3 87.9h-1.4v1.3c.1.4.3.7.7.7s.7-.3.7-.7v-1.3"/><path clip-path="url(#b)" fill="#EFEFEF" d="M249.1 47.9c-.2-.4-.8-.4-1 0l-3.3 8.5-3.5 9.1c-.2.4.2.7.5.7h13.6c.4 0 .6-.4.5-.7l-3.5-9.1-3.3-8.5"/><path clip-path="url(#b)" fill="#B8BCC0" d="M249.3 66.3h-1.4v1.3c.1.4.3.7.7.7.4 0 .7-.3.7-.7v-1.3"/><path clip-path="url(#b)" fill="#EFEFEF" d="M293.7 42.5c-.2-.4-.8-.4-1 0l-3.3 8.5-3.5 9.1c-.2.4.2.7.5.7H300c.4 0 .6-.4.5-.7L297 51l-3.3-8.5"/><path clip-path="url(#b)" fill="#B8BCC0" d="M293.9 61h-1.4v1.3c.1.4.3.7.7.7s.7-.3.7-.7V61"/><path clip-path="url(#b)" fill="#FCFCFC" d="M200.6 106.3H36.5v6.8h164.1M286 209.1l68 .1.1-9.9-68.1-.3v10.1M203.9 176.8l23.6 147.4 9.6-1.6-23.5-147.4-9.7 1.6"/><path clip-path="url(#b)" fill="#F1F2F3" d="M187.6 76.1h-8.5c-1.5 0-2.6 1.2-2.6 2.6v15.4c0 1.5 1.2 2.6 2.6 2.6H190c1.6 0 2.9-1.4 2.6-3.1l-2.4-15.4c-.2-1.2-1.3-2.1-2.6-2.1M173.4 76.1h-5.3c-.6 0-1.1.5-1.1 1.2v18.4c-.1.6.5 1.2 1.1 1.2h5.3c.6 0 1.1-.5 1.1-1.2V77.2c.1-.6-.5-1.1-1.1-1.1M151.2 76.1h-5.3c-.6 0-1.1.5-1.1 1.2v18.4c0 .6.5 1.2 1.1 1.2h5.3c.6 0 1.1-.5 1.1-1.2V77.2c0-.6-.5-1.1-1.1-1.1M74.4 76.1h-2.7v20.7h2.7c.6 0 1.1-.5 1.1-1.2V77.2c0-.6-.5-1.1-1.1-1.1M164.4 76.1H155c-.6 0-1.1.5-1.1 1.2v18.4c0 .6.5 1.2 1.1 1.2h9.4c.6 0 1.1-.5 1.1-1.2V77.2c0-.6-.5-1.1-1.1-1.1M184.9 40.5h-19.2v12.2c0 .7 1 1.4 2 1.4h17c1.1 0 2-.7 2-1.4l-1.8-12.2M101.9 76.1h-9.4c-.6 0-1.1.5-1.1 1.2v18.4c0 .6.5 1.2 1.1 1.2h9.4c.6 0 1.1-.5 1.1-1.2V77.2c.1-.6-.5-1.1-1.1-1.1M88.7 76.1h-9.4c-.6 0-1.1.5-1.1 1.2v18.4c0 .6.5 1.2 1.1 1.2h9.4c.6 0 1.1-.5 1.1-1.2V77.2c0-.6-.5-1.1-1.1-1.1M191.4 117.4h-12.5c-.5 0-1 .5-1 1v18.8c.2.5.5.9 1 .9h14.7c.6 0 1-.5.9-1.1l-2.2-18.8c0-.4-.4-.8-.9-.8M175 117.4h-5.3c-.6 0-1.1.5-1.1 1.2V137c0 .6.5 1.2 1.1 1.2h5.3c.6 0 1.1-.5 1.1-1.2v-18.4c0-.7-.5-1.2-1.1-1.2M137.8 117.4h-5.3c-.6 0-1.1.5-1.1 1.2V137c0 .6.5 1.2 1.1 1.2h5.3c.6 0 1.1-.5 1.1-1.2v-18.4c.1-.7-.5-1.2-1.1-1.2M99.3 117.4H94c-.6 0-1.1.5-1.1 1.2V137c0 .6.5 1.2 1.1 1.2h5.3c.6 0 1.1-.5 1.1-1.2v-18.4c0-.7-.5-1.2-1.1-1.2M89 117.4h-5.3c-.6 0-1.1.5-1.1 1.2V137c0 .6.5 1.2 1.1 1.2H89c.6 0 1.1-.5 1.1-1.2v-18.4c0-.7-.5-1.2-1.1-1.2M166 117.4h-9.4c-.6 0-1.1.5-1.1 1.2V137c0 .6.4 1.2 1.1 1.2h9.4c.6 0 1.1-.5 1.1-1.2v-18.4c0-.7-.5-1.2-1.1-1.2M152.1 117.4h-9.4c-.6 0-1.1.5-1.1 1.2V137c0 .6.5 1.2 1.1 1.2h9.4c.6 0 1.1-.5 1.1-1.2v-18.4c0-.7-.5-1.2-1.1-1.2M127.4 117.4H118c-.6 0-1.1.5-1.1 1.2V137c0 .6.5 1.2 1.1 1.2h9.4c.6 0 1.1-.5 1.1-1.2v-18.4c0-.7-.5-1.2-1.1-1.2M78.6 117.4h-6.9v20.7h6.9c.6 0 1.1-.5 1.1-1.2v-18.4c0-.6-.5-1.1-1.1-1.1M113.1 117.4h-9.4c-.6 0-1.1.5-1.1 1.2V137c0 .6.5 1.2 1.1 1.2h9.4c.6 0 1.1-.5 1.1-1.2v-18.4c0-.7-.5-1.2-1.1-1.2M255.2 170c-.2 0-.4.1-.5.2l-33.6 16.7c-.5.2-.7.8-.7 1.4l4.7 25.1c.1.6.6 1 1.1 1 .1 0 .4-.1.5-.2l39.8-19.6c.6-.3.8-1.1.5-1.7l-10.9-22.1c0-.6-.5-.8-.9-.8M269.8 199.3c-.1 0-.4.1-.5.2l-7.6 4c-.5.3-.7 1-.5 1.5l2.4 4.8c.2.4.6.6 1 .6.2 0 .4-.1.5-.2l7.6-4c.5-.3.7-1 .5-1.5l-2.4-4.8c-.2-.4-.6-.6-1-.6M286.4 236.2c-.1 0-.4.1-.5.2l-7.6 4c-.5.3-.8 1-.5 1.5l2.4 4.8c.2.4.6.6 1 .6.2 0 .4-.1.5-.2l7.6-4c.5-.3.7-1 .5-1.5l-2.4-4.8c-.2-.4-.5-.6-1-.6M274.1 208.2c-.2 0-.4.1-.5.2l-16 8.2c-.5.3-.7 1-.5 1.5l4.3 8.6c.2.4.6.6 1 .6.1 0 .4-.1.5-.2l16-8.3c.5-.3.7-1 .5-1.5l-4.2-8.5c-.3-.4-.6-.6-1.1-.6M280.4 221.9c-.1 0-.4.1-.5.2l-16 8.2c-.5.3-.7 1-.5 1.5l4.3 8.6c.2.4.6.6 1 .6.2 0 .4-.1.5-.2l16-8.3c.5-.3.7-1 .5-1.5l-4.2-8.5c-.3-.4-.7-.6-1.1-.6M242.3 255.3h-.2l-8.4 1.5c-.6.1-1 .7-.9 1.4l.9 5.4c.2.6.6 1 1.1 1h.2l8.4-1.5c.6-.1 1-.7.9-1.4l-.9-5.4c0-.6-.5-1-1.1-1M249.4 239.9h-.2l-17.7 3.1c-.6.1-1 .7-.9 1.4l1.6 9.4c.1.6.5 1 1.1 1h.2l17.7-3.1c.6-.1 1-.7.9-1.4l-1.6-9.4c-.1-.6-.6-1-1.1-1M247 226h-.2l-17.7 3.1c-.6.1-1 .7-.9 1.4l1.6 9.4c.1.6.5 1 1 1h.2l17.7-3.1c.6-.1 1-.7.9-1.4L248 227c0-.5-.5-1-1-1M244.3 215.7h-.2l-17.7 3.1c-.6.1-1 .7-.9 1.4l.9 5.4c.1.6.5 1 1.1 1h.2l17.7-3.1c.6-.1 1-.7.9-1.4l-.9-5.4c-.1-.6-.6-1-1.1-1M185.9 57.2H169c-1.1 0-1.9.9-1.9 2v10.9c-.1 1.2.8 2.1 1.9 2.1h18.9c1.2 0 2.2-1.2 1.9-2.4l-1.9-10.9c-.2-1-1-1.7-2-1.7M210 79.8c-.7 0-1.3.5-1.2 1.4l7.5 80c.2.6.7 1.1 1.3 1.1.2 0 .4-.1.6-.2l27.2-15.3c.6-.3.8-1.1.4-1.7L211 80.5c-.2-.5-.6-.7-1-.7"/><circle clip-path="url(#b)" fill="#4B5E7F" cx="274.2" cy="229.2" r="2.4"/><circle clip-path="url(#b)" fill="#FFB8C7" cx="300.4" cy="157.2" r="2.4"/><circle clip-path="url(#b)" fill="#A9DEEB" cx="111.9" cy="293.5" r="2.4"/><circle clip-path="url(#b)" fill="#F6F7F9" cx="305.2" cy="172.3" r="2.4"/><path clip-path="url(#b)" fill="#A1ABD0" d="M202.4 108.9h-153c-.6 0-1 .4-1 1s.4 1 1 1h153c.6 0 1-.4 1-1s-.4-1-1-1"/><path clip-path="url(#b)" fill="#A1ABD0" d="M177.3 114.3l-4.8-4.8c-.4-.4-1.2-.4-1.6 0-.4.4-.4 1.2 0 1.6l4.8 4.8c.4.4 1.2.4 1.6 0 .5-.4.5-1.1 0-1.6"/><path clip-path="url(#b)" fill="#A1ABD0" d="M172.5 111.1l4.8-4.8c.4-.4.4-1.2 0-1.6-.4-.4-1.2-.4-1.6 0l-4.8 4.8c-.4.4-.4 1.2 0 1.6.5.5 1.2.5 1.6 0M138.5 114.3l-4.8-4.8c-.4-.4-1.2-.4-1.6 0-.4.4-.4 1.2 0 1.6l4.8 4.8c.4.4 1.2.4 1.6 0 .5-.4.5-1.1 0-1.6"/><path clip-path="url(#b)" fill="#A1ABD0" d="M133.7 111.1l4.8-4.8c.4-.4.4-1.2 0-1.6-.4-.4-1.2-.4-1.6 0l-4.8 4.8c-.4.4-.4 1.2 0 1.6.5.5 1.2.5 1.6 0M99.7 114.3l-4.8-4.8c-.4-.4-1.2-.4-1.6 0-.4.4-.4 1.2 0 1.6l4.8 4.8c.4.4 1.2.4 1.6 0 .5-.4.5-1.1 0-1.6"/><path clip-path="url(#b)" fill="#A1ABD0" d="M94.9 111.1l4.8-4.8c.4-.4.4-1.2 0-1.6-.4-.4-1.2-.4-1.6 0l-4.8 4.8c-.4.4-.4 1.2 0 1.6.5.5 1.2.5 1.6 0"/><path clip-path="url(#b)" fill="#FF7676" d="M208.2 176.8L183.9 190c-.6.3-.8 1-.5 1.5.3.6 1 .8 1.5.5l24.3-13.3c.6-.3.8-1 .5-1.5-.3-.5-.9-.7-1.5-.4M177.8 193.2l-9.1 4.7c-.6.3-.8 1-.5 1.5s1 .8 1.5.5l9.1-4.7c.6-.3.8-1 .5-1.5s-.9-.8-1.5-.5"/><path clip-path="url(#b)" fill="#FF7676" d="M186 193l-7.9.2c-.6 0-1.1.5-1.1 1.2 0 .6.5 1.1 1.2 1.1l7.9-.2c.6 0 1.1-.5 1.1-1.2 0-.6-.6-1.1-1.2-1.1"/><path clip-path="url(#b)" fill="#FF7676" d="M179.1 195l4.6-6.4c.4-.5.2-1.2-.3-1.6-.5-.4-1.2-.2-1.6.3l-4.6 6.4c-.4.5-.2 1.2.3 1.6.5.3 1.3.2 1.6-.3"/><path clip-path="url(#b)" fill="#FF7676" d="M187 193.5l-3.2-6.1c-.3-.6-1-.8-1.5-.5s-.8 1-.5 1.5l3.2 6.1c.3.6 1 .8 1.5.5s.8-.9.5-1.5"/><path clip-path="url(#b)" fill="#FFB8C7" d="M274.1 105.6c-.4-2.9-2.8-5.3-5.7-5.6-3.9-.3-7.1 2.7-7 6.5 0 1.5.6 2.9 1.5 4l4.7 5.1c.2.2.5.2.6 0 1.1-1.3 4.6-5.4 4.9-5.7.8-1.2 1.2-2.7 1-4.3zm-6.3 3.2c-1.3 0-2.3-1-2.3-2.2 0-1.3 1-2.3 2.2-2.3 1.3 0 2.3 1 2.3 2.2.1 1.2-.9 2.2-2.2 2.3z"/><path fill="#4B5E7F" d="M38.4 80.9h317c.8 0 1.5-.7 1.5-1.5s-.7-1.5-1.5-1.5h-317c-.8 0-1.5.7-1.5 1.5s.7 1.5 1.5 1.5"/><circle fill="#4B5E7F" cx="52.3" cy="71.8" r="2.9"/><circle fill="#4B5E7F" cx="60.3" cy="71.8" r="2.9"/><circle fill="#4B5E7F" cx="68.3" cy="71.8" r="2.9"/><path fill="#4B5E7F" d="M345.1 269.9v-1.4H48.8c-2.6 0-4.9-1-6.6-2.7-1.7-1.7-2.7-4-2.7-6.6V74.7c0-2.6 1-4.9 2.7-6.6 1.7-1.7 4-2.7 6.6-2.7h296.3c2.6 0 4.9 1 6.6 2.7 1.7 1.7 2.7 4 2.7 6.6v184.5c0 2.6-1 4.9-2.7 6.6-1.7 1.7-4 2.7-6.6 2.7v2.8c6.7 0 12.2-5.5 12.2-12.2V74.7c0-6.7-5.5-12.2-12.2-12.2H48.8c-6.7 0-12.2 5.5-12.2 12.2v184.5c0 6.7 5.5 12.2 12.2 12.2h296.3v-1.5z"/><path fill="#4B5E7F" d="M50.2 130.7c1.3 0 2.4-1.1 2.4-2.4 0-.4-.1-.7-.3-1l5.9-5.9c.3.1.6.2.9.2 1.3 0 2.4-1.1 2.4-2.4 0-1.3-1.1-2.4-2.4-2.4-1.3 0-2.4 1.1-2.4 2.4 0 .4.1.8.3 1.1l-5.9 5.9c-.3-.1-.6-.2-.9-.2-1.3 0-2.4 1.1-2.4 2.4 0 1.3 1.1 2.3 2.4 2.3zm8.9-12.3c.5 0 .9.4.9.9s-.4.9-.9.9-.9-.4-.9-.9c0-.6.4-.9.9-.9zm-8.9 9.1c.5 0 .9.4.9.9s-.4.9-.9.9-.9-.4-.9-.9.4-.9.9-.9zM51.9 105.4h4.6c.3.5 1.2 1.3 2.2 1.3 1.3 0 2.4-1.2 2.4-2.5 0-1-.4-1.9-1.4-2.3v-5.2c1-.4 1.4-1.2 1.4-2.2 0-1.3-1.1-2.2-2.4-2.2-.9 0-1.6.4-2 1.4h-4.9c-.4-1-1.2-1.4-2-1.4-1.3 0-2.4 1-2.4 2.3 0 .9.8 1.6 1.3 2v5.3c-.5.4-1.3 1.2-1.3 2.1 0 1.3 1.1 2.6 2.4 2.6.9.1 1.8-.7 2.1-1.2zm-1.2-3.4v-5.2c.5-.2 1-.4 1.3-.9h4.6c.2.5.6.6 1.1.8v5.3c-.5.2-.7.8-1 1.3h-4.9c-.3-.5-.6-1.1-1.1-1.3zm8.9 2.1c0 .5-.4.9-.9.9s-.9-.4-.9-.9.4-.9.9-.9c.6.1.9.5.9.9zm.1-9.5c0 .5-.4.9-.9.9s-.9-.4-.9-.9.4-.9.9-.9.9.4.9.9zm-10.8 0c0-.5.4-.9.9-.9s.9.4.9.9-.4.9-.9.9c-.5-.1-.9-.5-.9-.9zm0 9.5c0-.5.4-.9.9-.9s.9.4.9.9-.4.9-.9.9-.9-.4-.9-.9zM52.2 147.3c0-2.8 2.3-5.1 5.1-5.1s5.1 2.3 5.1 5.1-2.3 5.1-5.1 5.1c-2.8.1-5.1-2.3-5.1-5.1zm8.4 0c0-1.8-1.5-3.3-3.3-3.3-1.8 0-3.3 1.5-3.3 3.3 0 1.8 1.5 3.3 3.3 3.3 1.8 0 3.3-1.5 3.3-3.3z"/><path fill="#4B5E7F" d="M48 155.2c0-.2.1-.5.3-.7l4.8-5c.4-.4 1-.4 1.4 0 .4.4.4 1 0 1.4l-4.8 5c-.4.4-1 .4-1.4 0-.2-.2-.3-.4-.3-.7zM225.2 213.3l1.4-.3-4.5-24.1 32.5-17 10.2 21.8-40.2 18.3.6 1.3 1.4-.3-1.4.3.6 1.3 41.5-18.8c.3-.2.6-.4.8-.8s.1-.8 0-1.1l-11.4-24.5c-.2-.4-.5-.6-.8-.8-.4-.1-.8-.1-1.1.1L220 186.9c-.6.3-.9.9-.7 1.5l4.7 25.1c.1.4.4.8.7 1s.9.2 1.3 0l-.8-1.2z"/><path fill="#EDEDED" d="M265.1 197.4c-.5 0-1.1-.3-1.3-.9l-1.1-2.5c-.2-.3-.2-.7 0-1.1.1-.4.4-.6.8-.8l2.5-1.1c.2-.1.4-.1.6-.1.5 0 1.1.3 1.3.9l1.1 2.5c.3.7 0 1.6-.7 1.9l-2.5 1.1c-.3 0-.5.1-.7.1z"/><path fill="#4B5E7F" d="M266.5 192.4l1.1 2.5-2.5 1.1-1.1-2.5 2.5-1.1m0-2.9c-.4 0-.8.1-1.2.2l-2.5 1.1c-1.4.6-2.1 2.3-1.5 3.8l1.1 2.5c.5 1.1 1.5 1.7 2.6 1.7.4 0 .8-.1 1.2-.2l2.5-1.1c.7-.3 1.2-.9 1.5-1.6.3-.7.3-1.5-.1-2.2l-1.1-2.5c-.3-.7-.9-1.2-1.6-1.5-.2-.1-.6-.2-.9-.2z"/><path fill="#EDEDED" d="M225.1 215.5c-.2 0-.3 0-.5-.1-.4-.1-.6-.4-.8-.8l-1.1-2.5c-.3-.7 0-1.6.7-1.9l2.5-1.1c.2-.1.4-.1.6-.1.2 0 .3 0 .5.1.4.1.6.4.8.8l1.1 2.5c.3.7 0 1.6-.7 1.9l-2.5 1.1c-.2.1-.4.1-.6.1z"/><path fill="#4B5E7F" d="M226.5 210.5l1.1 2.5-2.5 1.1-1.1-2.5 2.5-1.1m0-2.9c-.4 0-.8.1-1.2.2l-2.5 1.1c-.7.3-1.2.9-1.5 1.6-.3.7-.3 1.5.1 2.2l1.1 2.5c.5 1.1 1.5 1.7 2.6 1.7.4 0 .8-.1 1.2-.2l2.5-1.1c.7-.3 1.2-.9 1.5-1.6.3-.7.3-1.5-.1-2.2l-1.1-2.5c-.5-1-1.5-1.7-2.6-1.7z"/><path fill="#EDEDED" d="M219.8 191.3c-.5 0-1.1-.3-1.3-.9l-1.1-2.5c-.3-.7 0-1.6.7-1.9l2.5-1.1c.2-.1.4-.1.6-.1.2 0 .3 0 .5.1.4.1.6.4.8.8l1.1 2.5c.2.3.2.7 0 1.1-.1.4-.4.6-.8.8l-2.5 1.1c-.1.1-.3.1-.5.1z"/><path fill="#4B5E7F" d="M221.1 186.3l1.1 2.5-2.5 1.1-1.1-2.5 2.5-1.1m0-2.8c-.4 0-.8.1-1.2.2l-2.5 1.1c-1.4.6-2.1 2.3-1.5 3.8l1.1 2.5c.5 1.1 1.5 1.7 2.6 1.7.4 0 .8-.1 1.2-.2l2.5-1.1c1.4-.6 2.1-2.3 1.5-3.8l-1.1-2.5c-.4-1.1-1.5-1.7-2.6-1.7z"/><path fill="#EDEDED" d="M254.2 173.7c-.2 0-.3 0-.5-.1-.4-.1-.6-.4-.8-.8l-1.1-2.5c-.3-.7 0-1.6.7-1.9l2.5-1.1c.2-.1.4-.1.6-.1.5 0 1.1.3 1.3.9l1.1 2.5c.2.3.2.7 0 1.1s-.4.6-.8.8l-2.5 1.1c-.1 0-.3.1-.5.1z"/><path fill="#4B5E7F" d="M255.6 168.7l1.1 2.5-2.5 1.1-1.1-2.5 2.5-1.1m0-2.9c-.4 0-.8.1-1.2.2l-2.5 1.1c-1.4.6-2.1 2.3-1.5 3.8l1.1 2.5c.5 1.1 1.5 1.7 2.6 1.7.4 0 .8-.1 1.2-.2l2.5-1.1c1.4-.6 2.1-2.3 1.5-3.8l-1.1-2.5c-.5-1.1-1.5-1.7-2.6-1.7z"/><path fill="#A9DEEB" d="M41 31.9h-2.6v-2.8c0-.7-.3-1.3-1-1.3s-1 .6-1 1.3v2.8H33c-.7 0-1.3.3-1.3 1s.6 1 1.3 1h3.4V37c0 .7.3 1.3 1 1.3s1-.6 1-1.3v-3.1H41c.7 0 1.3-.3 1.3-1s-.6-1-1.3-1zM356.8 299.1l-2.5 1.6-1.5-2.5c-.4-.6-.9-1-1.5-.6s-.5 1-.2 1.6l1.5 2.5-2.5 1.6c-.6.4-1 .9-.6 1.5s1 .5 1.6.2l2.5-1.6 1.6 2.5c.4.6.9 1 1.5.6s.5-1 .2-1.6l-1.6-2.5 2.5-1.6c.6-.4 1-.9.6-1.5s-1-.6-1.6-.2z"/><path fill="#FF7676" d="M378.9 171.9l-1.6-2.5 2.5-1.5c.6-.4 1-.9.6-1.5s-1-.5-1.6-.2l-2.5 1.5-1.6-2.5c-.4-.6-.9-1-1.5-.6s-.5 1-.2 1.6l1.6 2.5-2.5 1.6c-.6.4-1 .9-.6 1.5s1 .5 1.6.2l2.5-1.6 1.6 2.5c.4.6.9 1 1.5.6.7-.4.6-1 .2-1.6z"/><circle fill="#FFB8C7" cx="132.4" cy="306.7" r="2.1"/><circle fill="#FFB8C7" cx="376.5" cy="78.8" r="2.1"/><circle fill="#4B5E7F" cx="31.7" cy="282.9" r="2.1"/><circle fill="#FFB8C7" cx="15.4" cy="172.4" r="2.1"/><circle fill="#FFB8C7" cx="113.5" cy="30.9" r="2.1"/><circle fill="#A9DEEB" cx="351.4" cy="30.9" r="2.1"/><circle fill="#A9DEEB" cx="163.5" cy="314.8" r="2.1"/><circle fill="#F6F7F9" cx="202.1" cy="19" r="2.1"/><circle fill="#F6F7F9" cx="11.2" cy="159.2" r="2.1"/></svg>
