<svg viewBox="-189 127.8 539 425.5"><path d="M-88.8 329.7c-.4 1.6-.6 3.2-.5 4.8h.5v-4.8zM235.2 404c-1.1 0-2 .9-2 2s.9 2 2 2 2-.9 2-2-.8-2-2-2z" fill="none"/><path d="M-95.6 367.7h-3.5v-3.4c0-.7-.3-1.3-1-1.3s-1 .6-1 1.3v3.4h-2.5c-.7 0-1.3.3-1.3 1s.6 1 1.3 1h2.5v2.5c0 .7.3 1.3 1 1.3s1-.6 1-1.3v-2.5h3.5c.7 0 1.3-.3 1.3-1s-.5-1-1.3-1zM237.5 277.2l2.5-1.6 1.6 2.5c.4.6.9 1 1.5.6s.5-1 .2-1.6l-1.6-2.5 2.5-1.6c.6-.4 1-.9.6-1.5s-1-.6-1.6-.2l-2.5 1.6-1.5-2.5c-.4-.6-.9-1-1.5-.6s-.5 1-.2 1.6l1.5 2.5-2.5 1.6c-.6.4-1 .9-.6 1.5.5.6 1 .5 1.6.2zM204.2 444.3l-2.5 1.6-1.5-2.5c-.4-.6-.9-1-1.5-.6s-.5 1-.2 1.6l1.5 2.5-2.5 1.6c-.6.4-1 .9-.6 1.5s1 .5 1.6.2l2.5-1.6 1.6 2.5c.4.6.9 1 1.5.6s.5-1 .2-1.6l-1.6-2.5 2.5-1.6c.6-.4 1-.9.6-1.5s-.9-.6-1.6-.2z" fill="#A9DEEB"/><path d="M-71.4 255.2l2.5-1.6 1.6 2.5c.4.6.9 1 1.5.6.7-.4.6-1 .2-1.6l-1.6-2.5 2.5-1.5c.6-.4 1-.9.6-1.5s-1-.5-1.6-.2l-2.5 1.5-1.6-2.5c-.4-.6-.9-1-1.5-.6s-.5 1-.2 1.6l1.6 2.5-2.5 1.6c-.6.4-1 .9-.6 1.5s.9.5 1.6.2zM-8.8 469.4l-2.5 1.5-1.6-2.5c-.4-.6-.9-1-1.5-.6s-.5 1-.2 1.6l1.6 2.5-2.5 1.6c-.6.4-1 .9-.6 1.5s1 .5 1.6.2l2.5-1.6 1.6 2.5c.4.6.9 1 1.5.6.7-.4.6-1 .2-1.6l-1.6-2.5 2.5-1.5c.6-.4 1-.9.6-1.5s-1-.5-1.6-.2z" fill="#FF7676"/><circle cx="233.2" cy="199.5" r="2.1" fill="#FFB8C7"/><circle cx="-48.8" cy="449.2" r="2.1" fill="#4B5E7F"/><circle cx="120.4" cy="137.1" r="2.1" fill="#4B5E7F"/><circle cx="34.2" cy="165.8" r="2.1" fill="#FFB8C7"/><circle cx="13.7" cy="505.8" r="2.1" fill="#FFB8C7"/><circle cx="147.7" cy="489.2" r="2.1" fill="#FFB8C7"/><circle cx="277.2" cy="346.2" r="2.1" fill="#FFB8C7"/><circle cx="156.4" cy="180.4" r="2.1" fill="#A9DEEB"/><circle cx="279.4" cy="328.2" r="2.1" fill="#F6F7F9"/><circle cx="-2.4" cy="191.2" r="2.1" fill="#F6F7F9"/><circle cx="-84.9" cy="413.2" r="2.1" fill="#F6F7F9"/><circle cx="84.8" cy="532.2" r="2.1" fill="#F6F7F9"/><path d="M235.7 400.3c-3.4-.3-6.2 2.4-6.1 5.7 0 1.3.5 2.6 1.3 3.5l4.1 4.5c.2.2.4.2.6 0 1-1.1 4-4.7 4.3-5 .6-1.1 1-2.4.8-3.8-.3-2.6-2.3-4.6-5-4.9zm-.5 7.7c-1.1 0-2-.9-2-2s.9-2 2-2 2 .9 2 2-.8 2-2 2z" fill="#FFB8C7"/><path d="M-86.1 334.6v-10.8c-1.3 1.8-2.3 3.8-2.8 5.9v4.8l2.8.1zM-86.4 343.4c.1.2.3.4.4.5v-.5h-.4zM255.9 345.5c6.3-6.5 6.3-16.8 0-23.4v23.4zM29.7 364.3l10 105.7 24.2 24.2V346.1l-34.2 18.2zm20.7 4.6c0-.5.5-1 1-1h4.7c.6 0 1.1.5 1 1V385c0 .5-.5 1-1 1h-4.7c-.5 0-1-.5-1-1v-16.1zm-15.7 1.6c-.3-1.3.8-2.6 2.3-2.6h9.6c1.3 0 2.3 1 2.3 2.3v13.5c0 1.3-1 2.3-2.3 2.3h-7.5c-1.1 0-2.1-.8-2.3-2l-2.1-13.5zm4.1 30.7l-1.7-9.6c-.2-1.1.6-2.1 1.7-2.1h16.6c1 0 1.8.8 1.6 1.9v9.6c0 .9-.7 1.7-1.7 1.7H40.6c-.9 0-1.7-.6-1.8-1.5zm19.4 25.1c0 .6-.8 1.2-1.8 1.2h-11c-.9 0 2.2-.4-2.6-.8l-3-20.1c0-.6.8-1.2 1.8-1.2h14.9c.9 0 1.8.5 1.7 1.2v19.7zM210.2 386.7c-.2.3-.5.4-.8.4-.2 0-.4-.1-.6-.2-.3-.2-.4-.6-.4-.9l-26.1 3.2-1.1 1.5c-.2.3-.5.4-.8.4-.2 0-.4-.1-.6-.2-.4-.3-.5-.9-.2-1.3l-21.6 2.7v51.2l34.6-34.6-1.5-13.3c0-.5.4-1 .9-1.1l4.6-.5h.1c.5 0 .9.4 1 .9l.9 8 2.5-2.5-.7-5.9c0-.5.4-1 .9-1.1l4.6-.5h.1c.4 0 .9.4 1 .8l.1.7 9.4-9.4-5.4.7-.9 1zm-32 27.6l-8.2.9h-.1c-.5 0-.9-.4-1-.9l-1.9-16c0-.5.4-1 .9-1.1l8.1-.9h.1c.5 0 1 .4 1.1.9l1.9 16c.1.5-.4 1-.9 1.1zm10.2-1.3l-6.8.8h-.1c-.5 0-.9-.4-1-.9l-1.9-16c0-.5.4-1 .9-1.1l8.2-.9h.1c.5 0 .9.4.9.8l1.8 15.2-2.1 2.1zM232.2 298.4l-5-5-18.6 45.2c-.3.7-1 .9-1.5.6-.4-.2-.6-.5-.6-.9l-.7-64.3c-.1-.6.4-1 .9-1.1l-7.1-7.1.8 105.6 31.8-73zM63.9 173.4l-48.2 48.3h48.2M255.5 321.7l-16.4-16.4-30.4 71.6.2.1 17.5-2.2 29-29 .3-.3V322c0-.1 0-.2-.2-.3zM155.5 221.7l-51.6-51.6v51.6" fill="#F6F7F9"/><path d="M-49.6 334.7l-16.1-31.6-18.7 18.8c-.6.6-1.2 1.3-1.7 2v10.8h36.5zM21.7 370.9l-2.7-.8-32 17.1.2.3c.4.2.6.6.6 1.1l30.4 59.7 12.1 12.1-8.6-89.5zm2.5 77c-.4 0-.7-.1-.9-.5l-30.5-56.6c-.3-.6-.1-1.2.4-1.5L17 375.8c.2 0 .3-.1.5-.1.6 0 1 .4 1.2.9l6.6 70.1c0 .7-.5 1.2-1.1 1.2zM-45.1 343.5l-41-.1v.5c.5.7 1.1 1.4 1.7 2l45.2 45.2 14.4-7.7-20.3-39.9zM-59.3 369c-1.2 0-2.1-.9-2.1-2.1 0-1.2.9-2.1 2.1-2.1s2.1.9 2.1 2.1c0 1.2-.9 2.1-2.1 2.1zM-32.7 397.6l30.9 30.9-19-37.2M20.2 359.4L4.7 261.7h-29l-34.9 34.9 42.1 82.7 37.3-19.9zM8.8 319.3c.5 0 .9.4 1 .9l.8 4.7c.1.6-.3 1.1-.8 1.2l-15.5 2.8h-.2c-.5 0-.9-.4-1-.9l-.8-4.7c-.1-.6.3-1.1.8-1.2l15.5-2.8h.2zm-2-11.7l1.4 8.3c.1.6-.3 1.1-.8 1.2l-15.5 2.8h-.2c-.5 0-.9-.4-1-.9l-1.4-8.3c-.1-.6.3-1.1.8-1.2l15.5-2.8h.2c.5 0 .9.3 1 .9zm-12-20.2l7.4-1.3h.2c.4 0 .8.3 1 .9l.8 4.7c.1.6-.3 1.1-.8 1.2l-7.4 1.3h-.2c-.5 0-.9-.4-1-.9l-.8-4.7c-.1-.6.3-1.1.8-1.2zm-6.7 10l15.5-2.8h.2c.6 0 1 .3 1 .9l1.4 8.3c.1.6-.3 1.1-.8 1.2l-15.5 2.8h-.2c-.5 0-.9-.4-1-.9l-1.4-8.3c-.1-.6.3-1.1.8-1.2zm-30.9 13.3c-.4 0-.7-.2-.9-.5l-2.1-4.2c-.2-.4 0-1 .5-1.3l6.7-3.5c.2 0 .4-.1.5-.1.4 0 .7.2.9.5l2.1 4.2c.2.4 0 1-.5 1.3l-6.7 3.5c-.3 0-.5.1-.5.1zm5.1 12.7c-.4 0-.7-.2-.9-.5l-3.7-7.5c-.2-.4 0-1 .5-1.3l14.1-7.3c.2 0 .4-.1.5-.1.4 0 .7.2.9.6l3.7 7.5c.2.4 0 1-.5 1.3l-14.1 7.2c-.1 0-.4.1-.5.1zm5.5 12c-.4 0-.7-.2-.9-.5l-3.7-7.5c-.2-.4 0-1 .5-1.3l14.1-7.3c.2 0 .4-.1.5-.1.4 0 .7.2.9.6l3.7 7.5c.2.4 0 1-.5 1.3l-14.1 7.2c-.1 0-.4.1-.5.1zm3.9 7.7c-.4 0-.7-.2-.9-.5l-2.1-4.2c-.2-.4 0-1 .5-1.3l6.7-3.5c.2 0 .4-.1.5-.1.3 0 .7.2.9.5l2.1 4.2c.2.4 0 1-.5 1.3l-6.7 3.5c-.1 0-.4.1-.5.1zm2.9 4.3l34.9-17.2c.2 0 .4-.1.5-.1.4 0 .9.3.9.9l4.1 22c.1.5-.1 1-.6 1.2L-15 368.8c-.2 0-.4.1-.5.1-.3 0-.7-.2-.9-.6l-9.5-19.4c-.3-.6 0-1.2.5-1.5zM28.2 355.1L63.9 336v-74.3H13.3M137.9 261.7h-34v4.2l.7.3-.7.5v123.4l34-4.2V261.7zm-24.7 8.9c0-.5.5-1 1-1h16.1c.6 0 1.1.5 1 1v8.2c0 .5-.5 1-1 1h-16.1c-.5 0-1-.5-1-1v-8.2zm0 12.8c0-.5.5-1 1-1h16.1c.6 0 1.1.4 1 1v4.7c0 .5-.5 1-1 1h-16.1c-.5 0-1-.5-1-1v-4.7zm0 9c0-.5.5-1 1-1h16.1c.6 0 1.1.4 1 1v4.7c0 .5-.5 1-1 1h-16.1c-.5 0-1-.5-1-1v-4.7zm0 8.5c0-.5.5-1 1-1h16.1c.6 0 1.1.5 1 1v8.2c0 .5-.5 1-1 1h-16.1c-.5 0-1-.5-1-1v-8.2zm0 12.5c0-.5.5-1 1-1h16.1c.6 0 1.1.5 1 1v8.2c0 .5-.5 1-1 1h-16.1c-.5 0-1-.5-1-1v-8.2zm0 12.7c0-.5.5-1 1-1h16.1c.6 0 1.1.5 1 1v4.7c0 .5-.5 1-1 1h-16.1c-.5 0-1-.5-1-1v-4.7zm0 9c0-.5.5-1 1-1h16.1c.6 0 1.1.4 1 1v8.2c0 .5-.5 1-1 1h-16.1c-.5 0-1-.5-1-1v-8.2zm0 12.2c0-.6.5-1 1-1h16.1c.6 0 1.1.5 1 1v8.2c0 .5-.5 1-1 1h-16.1c-.5 0-1-.5-1-1v-8.2zm0 11.4c0-.5.5-1 1-1h16.1c.6 0 1.1.5 1 1v4.7c0 .5-.5 1-1 1h-16.1c-.5 0-1-.5-1-1v-4.7zm18 19c0 .4-.3.7-.7.8l-16.5 2h-.1c-.4 0-.8-.3-.8-.8v-12.9c0-.4.4-.8.8-.9h16.5c.4 0 .9.4.8.8v11zM124.9 396.3l-1.8 2.4c-.2.3-.5.4-.8.4-.2 0-.4-.1-.6-.2-.4-.3-.5-1-.2-1.4l.6-.8-18.2 2.3v24.3l1.8 1.8c.4.4.4 1 0 1.4-.2.2-.4.3-.7.3s-.5-.1-.7-.3l-.4-.4v35.2l1.8 1.8c.4.4.4 1 0 1.4-.2.2-.4.3-.7.3s-.5-.1-.7-.3l-.4-.4v33.4l34-34v-68.8l-13 1.6zm6.3 69.6c0 .5-.5 1-1 1h-16.1c-.5 0-1-.5-1-1v-8.2c0-.5.5-1 1-1h16.1c.6 0 1.1.5 1 1v8.2zm0-11.6c0 .5-.5 1-1 1h-16.1c-.5 0-1-.5-1-1v-8.2c0-.5.5-1 1-1h16.1c.6 0 1.1.5 1 1v8.2zm0-12.5c0 .5-.5 1-1 1h-16.1c-.5 0-1-.5-1-1v-4.7c0-.5.5-1 1-1h16.1c.6 0 1.1.5 1 1v4.7zm0-9.3c0 .5-.5 1-1 1h-16.1c-.5 0-1-.5-1-1v-4.7c0-.5.5-1 1-1h16.1c.6 0 1.1.5 1 1v4.7zm0-8.5c0 .5-.5 1-1 1h-16.1c-.5 0-1-.5-1-1v-8.2c0-.5.5-1 1-1h16.1c.6 0 1.1.5 1 1v8.2zm0-12.8c0 .5-.5 1-1 1h-16.1c-.5 0-1-.5-1-1V403c0-.5.5-1 1-1h16.1c.6 0 1.1.5 1 1v8.2zM179 380.8h.2l12.6-1.6-.8-117.5h-33.1v121.7l21.1-2.6zm-13.8-102.4c0-.5.5-1 1-1h16.1c.6 0 1.1.4 1 1v4.7c0 .5-.5 1-1 1h-16.1c-.5 0-1-.5-1-1v-4.7zm0 9c0-.5.5-1 1-1h16.1c.6 0 1.1.4 1 1v4.7c0 .5-.5 1-1 1h-16.1c-.5 0-1-.5-1-1v-4.7zm0 8.5c0-.5.5-1 1-1h16.1c.6 0 1.1.5 1 1v8.2c0 .5-.5 1-1 1h-16.1c-.5 0-1-.5-1-1v-8.2zm0 12.5c0-.5.5-1 1-1h16.1c.6 0 1.1.5 1 1v8.2c0 .5-.5 1-1 1h-16.1c-.5 0-1-.5-1-1v-8.2zm0 12.7c0-.5.5-1 1-1h16.1c.6 0 1.1.5 1 1v4.7c0 .5-.5 1-1 1h-16.1c-.5 0-1-.5-1-1v-4.7zm0 9c0-.5.5-1 1-1h16.1c.6 0 1.1.4 1 1v8.2c0 .5-.5 1-1 1h-16.1c-.5 0-1-.5-1-1v-8.2zm0 12.2c0-.6.5-1 1-1h16.1c.6 0 1.1.5 1 1v8.2c0 .5-.5 1-1 1h-16.1c-.5 0-1-.5-1-1v-8.2zm0 11.4c0-.5.5-1 1-1h16.1c.6 0 1.1.5 1 1v4.7c0 .5-.5 1-1 1h-16.1c-.5 0-1-.5-1-1v-4.7zm0 8.1c0-.4.4-.8.8-.9h16.5c.4 0 .9.4.8.8v11c0 .4-.3.7-.7.8l-16.5 2h-.1c-.4 0-.8-.3-.8-.8v-12.9z" fill="#F6F7F9"/><path d="M10.2 241.7h4.9c.6 0 1 .4 1 1s-.5 1-1 1h-4.6l2.9 18H64v-17.8h-.4c-.6 0-1-.5-.9-1.1 0-.6.5-1 1.1-.9h.2v-8.2H45.9l1 1c.4.4.4 1 0 1.4-.2.2-.5.3-.7.3-.3 0-.5-.1-.7-.3l-2.4-2.4H11.8l1 1c.4.4.4 1 0 1.4-.2.2-.5.3-.7.3-.3 0-.5-.1-.7-.3L9 233.7H3.6l-1.2 1.2 6.3-1.1 1.5 7.9zm35 0H52c.6 0 1 .4 1 1s-.4 1-1 1h-6.8c-.6 0-1-.4-1-1s.4-1 1-1zm-18.5 0h6.8c.6 0 1 .4 1 1s-.5 1-1 1h-6.8c-.6 0-1-.4-1-1s.5-1 1-1zM.7 236.7l-5 5h.9c.6 0 1 .4 1 1s-.5 1-1 1h-2.8l-18 18h29l-4.1-25zM103.9 230.7h4.2c0-.1.1-.1.1-.2l4.2-4.2c.4-.4 1-.4 1.4 0 .4.4.4 1 0 1.4l-3 3h34.3c0-.1.1-.1.1-.2l4.2-4.2c.4-.4 1-.4 1.4 0 .4.4.4 1 0 1.4l-3 3h16.7l-9-9h-51.6v9zM11.4 226.3c.4-.4 1-.4 1.4 0 .4.4.4 1 0 1.4H44l1.4-1.4c.4-.4 1-.4 1.4 0 .4.4.4 1 0 1.4h17.1v-6H15.7l-6 6h.4l1.3-1.4zM150.9 234.7c.4.4.4 1 0 1.4-.2.2-.5.3-.7.3-.3 0-.5-.1-.7-.3l-3.4-3.4h-34.2l2 2c.4.4.4 1 0 1.4-.2.2-.5.3-.7.3-.3 0-.5-.1-.7-.3l-3.4-3.4H104v9.8c.8-.1 1.7-.3 2.6-.4.6-.1 1 .4 1.1.9s-.4 1-.9 1.1c-1 .1-2 .2-2.8.4v17.2h34v-2h20v2h33v-4.6l-13.5-13.4h-3.9c-.6 0-1-.4-1-1s.4-1 1-1h1.9l-9-9h-17.7l2.1 2zm-25.9 9h-6.8c-.6 0-1-.4-1-1s.4-1 1-1h6.8c.6 0 1 .4 1 1s-.3 1-1 1zm18.5 0h-6.8c-.6 0-1-.4-1-1s.4-1 1-1h6.8c.6 0 1 .4 1 1s-.5 1-1 1zm11.7-2h6.8c.6 0 1 .4 1 1s-.4 1-1 1h-6.8c-.6 0-1-.4-1-1s.3-1 1-1zM76.9 166.8c5-.6 10-.7 15-.1V160c-4.8-1.9-10.4-1.5-15 1.2v5.6c0-.1 0 0 0 0zM74.9 166.7v-4.1c-.5.4-1 .8-1.4 1.2l-4.5 4.5c2-.5 3.9-.9 5.9-1.2v-.4zM93.9 166.9c2.9.4 5.8 1 8.7 1.8l-5-5c-1.1-1.1-2.4-2.1-3.7-2.8v6zM89.4 264.7h-4.5v8.6c1.3-1.9 3.5-4.1 7-5.6 0-.6.4-1 1-1 .3 0 .6.1.8.3.7-.2 1.4-.5 2.2-.6l-.5-4.2 8.5 3.7v-4.2H87.7l1.7 3z" fill="#FCFCFC"/><path d="M74.9 221.7v-5c0-.6.4-1 1-1s1 .4 1 1v5h15v-5c0-.6.4-1 1-1s1 .4 1 1v5h10v-51.6l-1.3-1.3c-2.9-.8-5.8-1.4-8.7-1.8-.1.5-.4.8-1 .8s-1-.4-1-1c-5-.5-10-.5-15 .1 0 .5-.4.9-1 .9-.5 0-.8-.2-.9-.6-2 .3-4 .7-5.9 1.2l-5.1 5.1v48.2h10.9zm17-43c0-.6.4-1 1-1s1 .4 1 1v7c0 .6-.4 1-1 1s-1-.4-1-1v-7zm0 19c0-.6.4-1 1-1s1 .4 1 1v7c0 .6-.4 1-1 1s-1-.4-1-1v-7zm-17-19c0-.6.4-1 1-1s1 .4 1 1v7c0 .6-.4 1-1 1s-1-.4-1-1v-7zm0 19c0-.6.4-1 1-1s1 .4 1 1v7c0 .6-.4 1-1 1s-1-.4-1-1v-7zM100.9 458.5c.1 0 .2 0 .3.1.1 0 .2.1.3.2l2.4 2.5v-35.2l-3-3.1v35.5zM66.3 472.4c-.2.2-.4.3-.7.3s-.5-.1-.7-.3c-.4-.4-.4-1 0-1.4l3-3v-35.2l-1.6 1.6c-.2.2-.4.3-.7.3s-.5-.1-.7-.3c-.4-.4-.4-1 0-1.4l3-3v-35.2l-1.6 1.6c-.2.2-.4.3-.7.3s-.5-.1-.7-.3c-.4-.4-.4-1 0-1.4l3-3v-48.1l-4 2.1v148.1l4 4v-27.4l-1.6 1.7z" fill="#FCFCFC"/><path d="M97.3 502.4c-.2.2-.4.3-.7.3s-.5-.1-.7-.3c-.4-.4-.4-1 0-1.4l3-3v-35.2l-1.6 1.6c-.2.2-.4.3-.7.3s-.5-.1-.7-.3c-.4-.4-.4-1 0-1.4l3-3v-35.2l-1.6 1.6c-.2.2-.4.3-.7.3s-.5-.1-.7-.3c-.4-.4-.4-1 0-1.4l3-3v-25.3c0-.5.2-.8.6-.9.1-.3.4-.5.8-.6l2.9-.4-.5-4.5 1.2-.2V266.7l-7.3 5.5-.5-3.8c-.8.2-1.6.4-2.2.7v1.6c0 .6-.4 1-1 1s-1-.4-1-1v-.7c-3.9 1.9-5.6 4.6-6.4 6.5.3 1 .4 1.7.4 1.8v36.4c0 .7-.4 1.1-1 1.1-.2 0-.4-.1-.5-.1-.1.1-.3.1-.5.1-.6 0-1-.4-1-1v-39.3c-.9-1.8-2.7-4-6-5.6v.8c0 .6-.4 1-1 1s-1-.4-1-1V269c-.6-.2-1.3-.4-2-.6l-.5 3.8-8-6 9.2-4-.5 4.1 2.1.6c.2-.2.4-.3.7-.3.6 0 .9.4 1 .9 2.8 1.2 4.7 2.8 6 4.3v-7.1h-3.5l1.7-3H63.9V336l1.9-1 2.1 4.1 1-.6c.5-.3 1.1-.1 1.4.4s.1 1.1-.4 1.4v50.2c.1 0 .2 0 .3.1.1 0 .2.1.3.2l4.2 4.3c.4.4.4 1 0 1.4-.2.2-.4.3-.7.3s-.5-.1-.7-.3l-3.4-3.5v35.5c.1 0 .2 0 .3.1.1 0 .2.1.3.2l4.2 4.3c.4.4.4 1 0 1.4-.2.2-.4.3-.7.3s-.5-.1-.7-.3l-3.4-3.5v35.5c.1 0 .2 0 .3.1.1 0 .2.1.3.2l4.2 4.3c.4.4.4 1 0 1.4-.2.2-.4.3-.7.3s-.5-.1-.7-.3l-3.4-3.5v31.2l3.6 3.6c6.7 6.7 17.5 6.7 24.1 0l1.3-1.3v-1.7l-1.6 1.6zm-20.4-3.7c0 .6-.4 1-1 1s-1-.4-1-1v-7c0-.6.4-1 1-1s1 .4 1 1v7zm0-19c0 .6-.4 1-1 1s-1-.4-1-1v-7c0-.6.4-1 1-1s1 .4 1 1v7zm0-19c0 .6-.4 1-1 1s-1-.4-1-1v-7c0-.6.4-1 1-1s1 .4 1 1v7zm0-19c0 .6-.4 1-1 1s-1-.4-1-1v-7c0-.6.4-1 1-1s1 .4 1 1v7zm0-19c0 .6-.4 1-1 1s-1-.4-1-1v-7c0-.6.4-1 1-1s1 .4 1 1v7zm0-19c0 .6-.4 1-1 1s-1-.4-1-1v-7c0-.6.4-1 1-1s1 .4 1 1v7zm0-19c0 .6-.4 1-1 1s-1-.4-1-1v-7c0-.6.4-1 1-1s1 .4 1 1v7zm0-19c0 .6-.4 1-1 1s-1-.4-1-1v-7c0-.6.4-1 1-1s1 .4 1 1v7zm0-19c0 .6-.4 1-1 1s-1-.4-1-1v-7c0-.6.4-1 1-1s1 .4 1 1v7zm0-19c0 .6-.4 1-1 1s-1-.4-1-1v-7c0-.6.4-1 1-1s1 .4 1 1v7zm0-19c0 .6-.4 1-1 1s-1-.4-1-1v-7c0-.6.4-1 1-1s1 .4 1 1v7zm0-19c0 .6-.4 1-1 1s-1-.4-1-1v-7c0-.6.4-1 1-1s1 .4 1 1v7zm17 209c0 .6-.4 1-1 1s-1-.4-1-1v-7c0-.6.4-1 1-1s1 .4 1 1v7zm0-19c0 .6-.4 1-1 1s-1-.4-1-1v-7c0-.6.4-1 1-1s1 .4 1 1v7zm0-19c0 .6-.4 1-1 1s-1-.4-1-1v-7c0-.6.4-1 1-1s1 .4 1 1v7zm0-19c0 .6-.4 1-1 1s-1-.4-1-1v-7c0-.6.4-1 1-1s1 .4 1 1v7zm0-19c0 .6-.4 1-1 1s-1-.4-1-1v-7c0-.6.4-1 1-1s1 .4 1 1v7zm0-19c0 .6-.4 1-1 1s-1-.4-1-1v-7c0-.6.4-1 1-1s1 .4 1 1v7zm0-19c0 .6-.4 1-1 1s-1-.4-1-1v-7c0-.6.4-1 1-1s1 .4 1 1v7zm0-19c0 .6-.4 1-1 1s-1-.4-1-1v-7c0-.6.4-1 1-1s1 .4 1 1v7zm0-19c0 .6-.4 1-1 1s-1-.4-1-1v-7c0-.6.4-1 1-1s1 .4 1 1v7zm0-19c0 .6-.4 1-1 1s-1-.4-1-1v-7c0-.6.4-1 1-1s1 .4 1 1v7zm0-19c0 .6-.4 1-1 1s-1-.4-1-1v-7c0-.6.4-1 1-1s1 .4 1 1v7zm0-19c0 .6-.4 1-1 1s-1-.4-1-1v-7c0-.6.4-1 1-1s1 .4 1 1v7zM100.9 500.5l.8-.7-.8-.8" fill="#FCFCFC"/><path d="M103.4 396.8l-2.5.3v23.4c.1 0 .2 0 .3.1.1 0 .2.1.3.2l2.4 2.5V399h-.3l-.2-2.2zM100.9 461v35.5c.1 0 .2 0 .3.1.1 0 .2.1.3.2l1.5 1.6.9-.9v-33.4l-3-3.1zM67.2 230.7h3.9c0-.1.1-.1.1-.2l4.2-4.2c.4-.4 1-.4 1.4 0 .4.4.4 1 0 1.4l-3 3h30.1v-9h-10c0 .6-.4 1-1 1s-1-.4-1-1h-15c0 .6-.4 1-1 1s-1-.4-1-1h-11v6h3.3v3zM87.7 261.7h16.2v-17.2c-1.4.2-2.5.5-3.6.9-.1 0-.3.1-.4.1-.4 0-.8-.2-.9-.6-.2-.5 0-1.1.6-1.3 1.2-.5 2.6-.9 4.3-1.1v-9.8H74.8l2 2c.4.4.4 1 0 1.4-.2.2-.5.3-.7.3-.3 0-.5-.1-.7-.3l-3.4-3.4h-4.8v1h-3.3v8.2c2.9.2 5 .7 6.8 1.4.5.2.8.8.5 1.3-.1.3-.5.6-.9.6-.1 0-.3 0-.4-.1-1.5-.6-3.4-1-6-1.2v17.8h17.2l3.3-5.6 3.3 5.6zm5-8.9c.1-.5.6-.9 1.1-.9.5.1.9.6.9 1.1-.1 1-.2 2.1-.2 3.4 0 .6-.4 1-1 1s-1-.4-1-1c-.1-1.3.1-2.5.2-3.6zm-16.3 4.6c-.6 0-1-.4-1-1 0-1.2-.1-2.4-.2-3.4-.1-.5.3-1 .9-1.1.6-.1 1 .3 1.1.9.1 1.1.2 2.3.2 3.6 0 .6-.3 1-1 1z" fill="#FCFCFC"/><path d="M74.9 270.7c0 .6.4 1 1 1s1-.4 1-1v-.8c-.6-.3-1.3-.6-2-.9v1.7zM75.9 266.7c-.3 0-.5.1-.7.3.6.2 1.2.4 1.7.7-.1-.6-.3-1-1-1zM75.9 300.7c-.6 0-1 .4-1 1v7c0 .6.4 1 1 1s1-.4 1-1v-7c0-.6-.3-1-1-1zM75.9 357.7c-.6 0-1 .4-1 1v7c0 .6.4 1 1 1s1-.4 1-1v-7c0-.6-.3-1-1-1zM75.9 338.7c-.6 0-1 .4-1 1v7c0 .6.4 1 1 1s1-.4 1-1v-7c0-.6-.3-1-1-1zM75.9 376.7c-.6 0-1 .4-1 1v7c0 .6.4 1 1 1s1-.4 1-1v-7c0-.6-.3-1-1-1zM75.9 281.7c-.6 0-1 .4-1 1v7c0 .6.4 1 1 1s1-.4 1-1v-7c0-.6-.3-1-1-1zM75.9 319.7c-.6 0-1 .4-1 1v7c0 .6.4 1 1 1s1-.4 1-1v-7c0-.6-.3-1-1-1zM75.9 395.7c-.6 0-1 .4-1 1v7c0 .6.4 1 1 1s1-.4 1-1v-7c0-.6-.3-1-1-1zM75.9 471.7c-.6 0-1 .4-1 1v7c0 .6.4 1 1 1s1-.4 1-1v-7c0-.6-.3-1-1-1zM75.9 490.7c-.6 0-1 .4-1 1v7c0 .6.4 1 1 1s1-.4 1-1v-7c0-.6-.3-1-1-1zM75.9 452.7c-.6 0-1 .4-1 1v7c0 .6.4 1 1 1s1-.4 1-1v-7c0-.6-.3-1-1-1zM75.9 414.7c-.6 0-1 .4-1 1v7c0 .6.4 1 1 1s1-.4 1-1v-7c0-.6-.3-1-1-1zM75.9 433.7c-.6 0-1 .4-1 1v7c0 .6.4 1 1 1s1-.4 1-1v-7c0-.6-.3-1-1-1zM91.9 270.7c0 .6.4 1 1 1s1-.4 1-1v-1.6c-.7.3-1.4.5-2 .9v.7zM91.9 267.7c.6-.2 1.1-.5 1.8-.7-.2-.2-.5-.3-.8-.3-.6 0-1 .4-1 1zM92.9 319.7c-.6 0-1 .4-1 1v7c0 .6.4 1 1 1s1-.4 1-1v-7c0-.6-.3-1-1-1zM92.9 433.7c-.6 0-1 .4-1 1v7c0 .6.4 1 1 1s1-.4 1-1v-7c0-.6-.3-1-1-1zM92.9 300.7c-.6 0-1 .4-1 1v7c0 .6.4 1 1 1s1-.4 1-1v-7c0-.6-.3-1-1-1zM92.9 452.7c-.6 0-1 .4-1 1v7c0 .6.4 1 1 1s1-.4 1-1v-7c0-.6-.3-1-1-1zM92.9 281.7c-.6 0-1 .4-1 1v7c0 .6.4 1 1 1s1-.4 1-1v-7c0-.6-.3-1-1-1zM92.9 395.7c-.6 0-1 .4-1 1v7c0 .6.4 1 1 1s1-.4 1-1v-7c0-.6-.3-1-1-1zM92.9 414.7c-.6 0-1 .4-1 1v7c0 .6.4 1 1 1s1-.4 1-1v-7c0-.6-.3-1-1-1zM92.9 338.7c-.6 0-1 .4-1 1v7c0 .6.4 1 1 1s1-.4 1-1v-7c0-.6-.3-1-1-1zM92.9 471.7c-.6 0-1 .4-1 1v7c0 .6.4 1 1 1s1-.4 1-1v-7c0-.6-.3-1-1-1zM92.9 376.7c-.6 0-1 .4-1 1v7c0 .6.4 1 1 1s1-.4 1-1v-7c0-.6-.3-1-1-1zM92.9 490.7c-.6 0-1 .4-1 1v7c0 .6.4 1 1 1s1-.4 1-1v-7c0-.6-.3-1-1-1zM92.9 357.7c-.6 0-1 .4-1 1v7c0 .6.4 1 1 1s1-.4 1-1v-7c0-.6-.3-1-1-1zM75.1 167.1c.6-.1 1.3-.2 1.9-.3v-5.6c-.7.4-1.4.9-2 1.4v4.1c-.1.1-.1.3.1.4zM76.9 216.7c0-.6-.4-1-1-1s-1 .4-1 1v5h2v-5z" fill="#D1D1D1"/><path d="M75.9 167.7c.6 0 .9-.4 1-.9-.6.1-1.3.2-1.9.3.2.4.4.6.9.6zM75.9 205.7c.6 0 1-.4 1-1v-7c0-.6-.4-1-1-1s-1 .4-1 1v7c0 .6.4 1 1 1zM75.9 186.7c.6 0 1-.4 1-1v-7c0-.6-.4-1-1-1s-1 .4-1 1v7c0 .6.4 1 1 1zM75.9 222.7c.6 0 1-.4 1-1h-2c0 .6.4 1 1 1zM93.9 166.9V161c-.7-.4-1.3-.7-2-1v6.7c.8.1 1.3.1 2 .2zM92.9 205.7c.6 0 1-.4 1-1v-7c0-.6-.4-1-1-1s-1 .4-1 1v7c0 .6.4 1 1 1zM92.9 186.7c.6 0 1-.4 1-1v-7c0-.6-.4-1-1-1s-1 .4-1 1v7c0 .6.4 1 1 1zM93.9 216.7c0-.6-.4-1-1-1s-1 .4-1 1v5h2v-5z" fill="#D1D1D1"/><path d="M91.9 166.7c0 .6.4 1 1 1 .5 0 .9-.3 1-.8-.7-.1-1.2-.1-2-.2zM92.9 222.7c.6 0 1-.4 1-1h-2c0 .6.4 1 1 1zM76.2 251.9c-.6.1-1 .6-.9 1.1.1 1 .2 2.2.2 3.4 0 .6.4 1 1 1s1-.4 1-1c0-1.3-.1-2.5-.2-3.6-.1-.6-.6-1-1.1-.9zM16.1 242.7c0-.6-.4-1-1-1h-4.9l.3 2h4.6c.5 0 1-.4 1-1zM45.2 243.7H52c.6 0 1-.4 1-1s-.4-1-1-1h-6.8c-.6 0-1 .4-1 1s.4 1 1 1zM63.7 241.9c-.6-.1-1.1.3-1.1.9-.1.6.3 1.1.9 1.1h.4v-2h-.2zM26.7 243.7h6.8c.5 0 1-.4 1-1s-.4-1-1-1h-6.8c-.6 0-1 .4-1 1s.5 1 1 1zM-2.4 242.7c0-.6-.4-1-1-1h-.9l-2 2h2.8c.6 0 1.1-.4 1.1-1zM70.3 245.2c.4 0 .8-.3.9-.6.3-.5 0-1.1-.5-1.3-1.8-.7-3.9-1.2-6.8-1.4v2c2.6.2 4.5.6 6 1.2.2.1.3.1.4.1zM93.4 257.4c.6 0 1-.4 1-1 0-1.3.1-2.4.2-3.4 0-.5-.4-1-.9-1.1-.5 0-1 .4-1.1.9-.1 1.1-.2 2.3-.2 3.6 0 .6.4 1 1 1zM106.7 244.1c.5-.1 1-.6.9-1.1s-.5-1-1.1-.9c-.9.1-1.8.2-2.6.4v2c.8-.2 1.8-.3 2.8-.4zM172.7 242.7c0 .6.4 1 1 1h3.9l-2-2h-1.9c-.7 0-1 .4-1 1zM155.2 243.7h6.8c.6 0 1-.4 1-1s-.4-1-1-1h-6.8c-.6 0-1 .4-1 1s.3 1 1 1zM143.5 241.7h-6.8c-.6 0-1 .4-1 1s.4 1 1 1h6.8c.5 0 1-.4 1-1s-.3-1-1-1zM125 241.7h-6.8c-.6 0-1 .4-1 1s.4 1 1 1h6.8c.6 0 1-.4 1-1s-.3-1-1-1z" fill="#D1D1D1"/><path d="M99.1 244.9c.1.4.5.6.9.6.1 0 .3-.1.4-.1 1.1-.4 2.2-.7 3.6-.9v-2c-1.7.3-3.1.7-4.3 1.1-.6.2-.9.8-.6 1.3z" fill="#D1D1D1"/><path d="M82.9 275.5v2.9c0-.1.1-.9.4-2-.1-.2-.1-.6-.4-.9zM84.9 273.3v-8.6h-2v7.2c.6.7 1.1 1.5 1.5 2.1.3-.2.3-.4.5-.7zM83.9 262.7c.6 0 1 .4 1 1v1h4.5l-1.7-3h-6.5l-1.7 3H83v-1c-.1-.6.3-1 .9-1z" fill="#FF7676"/><path fill="#FF7676" d="M84.4 256.1l-3.2 5.6h6.5M84.9 263.7c0-.6-.4-1-1-1s-1 .4-1 1v1h2v-1zM83.9 315.7c.2 0 .4-.1.5-.1-.1 0-.2.1-.5.1zM93.7 267c.1.2.2.4.2.7v1.4c.7-.3 1.4-.5 2.2-.7l-.2-2c-.7.2-1.5.4-2.2.6zM84.9 273.3v1.6c.3.5.5 1.1.6 1.5.8-1.8 2.5-4.5 6.4-6.5v-2.2c-3.5 1.6-5.7 3.7-7 5.6z"/><path d="M93.7 267c-.6.2-1.2.4-1.8.7v2.2c.6-.3 1.3-.6 2-.9v-1.3c0-.3-.1-.5-.2-.7zM84.9 274.9v-1.6c-.2.2-.3.5-.5.7.3.4.4.7.5.9zM83.9 314.7v-36.3c0-.2-.1-.9-.6-2-.4 1.1-.4 1.8-.4 2v36.3c0 .6.4 1 1 1 .2 0 .4-.1.5-.1-.2-.2-.5-.5-.5-.9zM103.9 265.9v.8l.8-.5M95.4 262.2l.5 4.2c.3-.1.5-.1.8-.2.5-.1 1.1.2 1.2.8.1.5-.2 1.1-.8 1.2-.3.1-.6.1-1 .2l.5 3.8 7.3-5.5v-.8l-8.5-3.7z" fill="#FF7676"/><path d="M97.9 267c-.1-.6-.7-.9-1.2-.8-.3.1-.5.1-.8.2l.2 2c.3-.1.6-.2 1-.2.6-.1 1-.7.8-1.2zM84.9 314.7c0 .4-.2.7-.5.9.1.1.3.1.5.1.6 0 1-.4 1-1.1v-36.4c0-.1-.1-.8-.4-1.8-.4 1.1-.6 1.9-.6 2.1v36.2zM76.9 267.6s0 .1 0 0v2.2c3.3 1.7 5.1 3.9 6 5.6v-3.6c-1.2-1.4-3.2-3-6-4.2zM75.2 267l-2.1-.6-.2 2c.7.2 1.4.4 2 .6v-1.3c0-.3.2-.6.3-.7z" fill="#FF7676"/><path d="M76.9 267.6c-.5-.2-1.1-.5-1.7-.7-.2.2-.3.5-.3.8v1.3c.7.3 1.4.5 2 .9v-2.3c0 .1 0 0 0 0zM84.4 274.1c-.4-.7-.9-1.4-1.5-2.1v3.6c.2.3.3.7.4 1 .4-.8.6-1.7 1.1-2.5zM84.9 314.8c0 .3-.2.6-.5.8.3-.2.5-.5.5-.8zM84.9 278.5c0-.2.2-1 .6-2.1-.1-.4-.3-.9-.6-1.5v3.6z" fill="#FF7676"/><path d="M83.3 276.4c.4 1 .5 1.8.6 2v36.3c0 .4.2.7.5.9.3-.2.5-.5.5-.9V274.9c-.1-.3-.3-.6-.5-.9-.5.9-.7 1.8-1.1 2.4zM70.9 266.9c.1-.5.6-.9 1.2-.8.3.1.7.2 1 .2l.5-4.1-9.2 4 8 6 .5-3.8-1.2-.3c-.5-.1-.9-.6-.8-1.2z" fill="#FF7676"/><path d="M72.2 266.1c-.6-.1-1.1.3-1.2.8-.1.6.3 1.1.8 1.2l1.2.3.2-2c-.4-.1-.8-.2-1-.3z" fill="#FF7676"/><path d="M7.2 230.5l2.8-2.8h-.4l-3 3H7c.2-.1.2-.1.2-.2zM63.9 230.7v-3H46.8l-3 3M41.2 230.7c0-.1.1-.1.1-.2l2.8-2.8H12.8l-3 3h31.4zM10.8 232.7l1 1h31.3l-1-1M8.1 232.7H4.7l-1 1h5.4M44.8 232.7l1 1h18.1v-1M63.9 227.7h3.3v3h-3.3zM63.9 232.7h3.3v1h-3.3z" fill="#FCFCFC"/><path d="M111.9 232.7h34.2l-.8-.8c-.3-.3-.4-.8-.1-1.2h-34.3l-.5.5 1.5 1.5zM147.4 231.2l1.5 1.5h17.6l-2-2h-16.6M109 232.7l-.8-.8c-.3-.3-.4-.8-.1-1.2h-4.2v2h5.1zM73.3 231.2l1.5 1.5h29.1v-2H73.8M71.2 230.7h-3.9v2h4.8l-.8-.8c-.4-.3-.5-.8-.1-1.2zM43.8 230.7l-.5.5 1.5 1.5h19.1v-2M41.2 230.7H9.9l-.5.5 1.5 1.5h31.2l-.8-.8c-.4-.3-.5-.8-.1-1.2zM7.2 231.9c-.3-.3-.4-.8-.1-1.2h-.4l-2 2h3.4l-.9-.8zM63.9 230.7h3.3v2h-3.3zM45.4 236.1c.2.2.4.3.7.3.2 0 .5-.1.7-.3.4-.4.4-1 0-1.4l-1-1H43l2.4 2.4zM42.1 232.7l1 1h2.7l-1-1" fill="#A1ABD0"/><path d="M42.7 231.9c-.2.2-.4.3-.7.3s-.5-.1-.7-.3l.8.8h2.8l-1.5-1.5-.7.7zM46.8 226.3c-.4-.4-1-.4-1.4 0l-1.4 1.4h2.8c.4-.4.4-1 0-1.4z" fill="#A1ABD0"/><path d="M42.7 230.5l.2.2h1l3-3h-2.8l-2.8 2.8c.4-.4.9-.4 1.4 0zM43.8 230.7h-1l.5.5" fill="#A1ABD0"/><path d="M42.7 230.5c-.4-.4-1-.4-1.4 0-.1.1-.1.1-.1.2h1.7l-.2-.2zM41.2 231.9c.2.2.4.3.7.3s.5-.1.7-.3l.7-.7-.5-.5h-1.7c-.3.4-.2.9.1 1.2zM11.4 236.1c.2.2.4.3.7.3.2 0 .5-.1.7-.3.4-.4.4-1 0-1.4l-1-1H9.1l2.3 2.4zM8.1 232.7l1 1h2.7l-1-1M9.3 231.2l-.7.7c-.2.2-.4.3-.7.3s-.5-.1-.7-.3l.8.8h2.8l-1.5-1.5zM12.8 226.3c-.4-.4-1-.4-1.4 0l-1.4 1.4h2.8c.4-.4.4-1 0-1.4z" fill="#A1ABD0"/><path d="M8.7 230.5l.2.2h1l3-3h-2.8l-2.8 2.8c.4-.4.9-.4 1.4 0zM8.8 230.7l.5.5.5-.5" fill="#A1ABD0"/><path d="M8.7 230.5c-.4-.4-1-.4-1.4 0-.1.1-.1.1-.1.2h1.7l-.2-.2zM8.7 231.9l.7-.7-.5-.5H7.2c-.2.4-.2.9.1 1.2.2.2.4.3.7.3s.4-.1.7-.3zM75.4 236.1c.2.2.4.3.7.3.2 0 .5-.1.7-.3.4-.4.4-1 0-1.4l-2-2H72l3.4 3.4z" fill="#A1ABD0"/><path d="M72.7 231.9c-.2.2-.4.3-.7.3s-.5-.1-.7-.3l.8.8h2.8l-1.5-1.5-.7.7zM72.7 230.5l.2.2h1l3-3c.4-.4.4-1 0-1.4-.4-.4-1-.4-1.4 0l-4.2 4.2c.4-.4.9-.4 1.4 0zM73.3 231.2l.5-.5h-1" fill="#A1ABD0"/><path d="M72.7 230.5c-.4-.4-1-.4-1.4 0-.1.1-.1.1-.1.2h1.7l-.2-.2zM71.2 231.9c.2.2.4.3.7.3s.5-.1.7-.3l.7-.7-.5-.5h-1.7c-.3.4-.2.9.1 1.2zM112.4 236.1c.2.2.4.3.7.3.2 0 .5-.1.7-.3.4-.4.4-1 0-1.4l-2-2H109l3.4 3.4z" fill="#A1ABD0"/><path d="M109.7 231.9c-.2.2-.4.3-.7.3s-.5-.1-.7-.3l.8.8h2.8l-1.5-1.5-.7.7zM109.7 230.5l.2.2h1l3-3c.4-.4.4-1 0-1.4-.4-.4-1-.4-1.4 0l-4.2 4.2c.4-.4.9-.4 1.4 0zM110.4 231.2l.5-.5h-1" fill="#A1ABD0"/><path d="M109.7 230.5c-.4-.4-1-.4-1.4 0-.1.1-.1.1-.1.2h1.7l-.2-.2zM108.2 231.9c.2.2.4.3.7.3s.5-.1.7-.3l.7-.7-.5-.5h-1.7c-.2.4-.2.9.1 1.2zM149.4 236.1c.2.2.4.3.7.3.2 0 .5-.1.7-.3.4-.4.4-1 0-1.4l-2-2H146l3.4 3.4zM145.9 232.2c-.3 0-.5-.1-.7-.3l.8.8h2.8l-1.5-1.5-.7.7c-.2.2-.4.3-.7.3zM146.7 230.5l.2.2h1l3-3c.4-.4.4-1 0-1.4-.4-.4-1-.4-1.4 0l-4.2 4.2c.4-.4.9-.4 1.4 0zM147.4 231.2l.5-.5h-1" fill="#A1ABD0"/><path d="M146.7 230.5c-.4-.4-1-.4-1.4 0-.1.1-.1.1-.1.2h1.7l-.2-.2zM145.2 231.9c.2.2.4.3.7.3s.5-.1.7-.3l.7-.7-.5-.5h-1.7c-.2.4-.2.9.1 1.2z" fill="#A1ABD0"/><path d="M-16.2 381.1l1 1.9 30.8-16.3 1.5-4.7c.2-.5.7-.8 1.3-.7.5.2.8.7.7 1.3l-.8 2.7 2.8-1.5-.7-4.5-37.3 20 .4.8c.2.2.3.6.3 1zM29.3 361.8l.3 1.1-3.4.6h-.1l3.6-.3v1.1l34.2-18.2v-2.6M15.7 369l-30 15.9 1.2 2.3 32-17.1-3-1c-.1 0-.1-.1-.2-.1zM21.4 368.7l-.2-2.6-3 1.5M-21.9 388.9l-12.8 6.7 2 2 11.9-6.3M29.1 359.6l34.8-18.5V336l-35.7 19.1M-24.8 383.4l-14.4 7.7 3 3 13.4-7M67.9 339.1l-2.1-4.1-1.9 1v5.1" fill="#FCFCFC"/><path fill="#FCFCFC" d="M63.9 343.5v2.6l4-2.2v-2.5M210.4 383.1l-4.4.6-.1.2-.6-.1-20.8 2.7-2.1 2.8 26.1-3.2c0-.2.1-.3.2-.5l1.7-2.5zM213.4 380.4c.1 0 .2.1.2.1.1 0 .1.1.1.2l7.9-1 4.8-4.8-17.5 2.2 4.5 3.3zM122.9 392.3l-2.3-1.8c-.4-.3-.5-1-.2-1.4s1-.5 1.4-.2l4 3 12.1-1.6v-4.5l-34 4.2v4.6l19-2.3zM126.9 393.8s0 .1 0 0l-1.9 2.5 13-1.6v-2.3l-11.1 1.4zM179.9 380.9l4.6 3.5h.1l9.6-1.2H192v-4l-12.6 1.6c0-.1.3 0 .5.1zM103.9 396.8v2.2l18.3-2.3 2-2.5M210.9 385.6l5.5-.6 3-3-6.2.8M181.7 384.8l-3-2.3c-.4-.3-.5-1-.2-1.4.1-.2.3-.3.6-.3l-21.1 2.6v4.4l23.7-3zM181.7 386.8l-23.7 3v2.4l21.6-2.7v-.1l2.1-2.6zM210.9 381l-2.9-2.2-1.1 2.8M103.9 390.1l-1.2.2.5 4.5.7-.1M103.4 396.8l.3 2.2h.2v-2.2M-42.3 334.7l-.1 8.8h-2.7l20.3 39.9 7.7-4.1-42.1-82.7-6.5 6.4 16.1 31.7M-12.3 388.7c-.1.5-.5.7-1 .7h-.3l-2.2-.7-4.8 2.6 19 37.2 19.8 19.8-30.4-59.7c-.1 0-.1.1-.1.1zM-13.1 387.4l.1.1-.2-.3-.2.1.3.1zM-17.1 384l1.8-1-1-1.9v.2l-.8 2.7z"/><path fill="#FCFCFC" d="M-16.8 386.2l3.5 1.1.2-.1-1.2-2.3M-19.3 387.7c-.1 0-.1-.1-.2-.1l-2.5 1.3 1.2 2.4 4.8-2.6-3.1-1h-.2zM-18.2 380.7c.2-.5.7-.8 1.3-.7.1 0 .1.1.2.1l-.4-.8-7.6 4.1 1.9 3.7 3.2-1.7 1.4-4.7zM21.6 368.7l.7.2c.5.2.8.7.7 1.3-.2.4-.6.7-1 .7h-.2l8.5 89.5 9.6 9.6-10-105.7-8.3 4.4z"/><path fill="#FCFCFC" d="M26.1 363.5l-4.9 2.6.2 2.6h.2l8.1-4.4v-1.1M-89.3 334.5c0 1.1.2 2.3.5 3.4v-3.4h-.5z"/><path d="M-86.1 334.6h-2.8v3.4c.5 1.9 1.3 3.7 2.4 5.4h.4v-8.8z" fill="#FCFCFC"/><path fill="#FCFCFC" d="M-86.1 334.6v8.8l41 .1-4.5-8.8M-42.3 334.7h-7.3l4.5 8.8h2.7M13.3 261.7H4.7l15.5 97.7 8-4.3"/><path d="M13.3 261.7l-2.9-18H8.2c-.6 0-1-.4-1-1s.4-1 1-1h1.9l-1.3-7.9-6.3 1.1-1.9 1.9 4 25h8.7v-.1z" fill="#FCFCFC"/><path d="M8.2 241.7c-.6 0-1 .4-1 1s.4 1 1 1h2.2l-.3-2H8.2zM29.1 359.6l-.9-4.5-8 4.3.7 4.5M29.6 362.9l-.3-1.1-3.1 1.7" fill="#FCFCFC"/><path d="M39.2 386h7.5c1.3 0 2.3-1 2.3-2.3v-13.5c0-1.3-1-2.3-2.3-2.3h-9.6c-1.5 0-2.6 1.3-2.3 2.6l2.1 13.5c.2 1.2 1.2 2 2.3 2zM51.4 386h4.7c.5 0 1-.5 1-1v-16.1c.1-.5-.4-1-1-1h-4.7c-.5 0-1 .5-1 1V385c0 .5.5 1 1 1z" fill="#E5E5E5"/><path d="M130.2 436.1h-16.1c-.5 0-1 .5-1 1v4.7c0 .5.5 1 1 1h16.1c.5 0 1-.5 1-1v-4.7c.2-.5-.3-1-1-1zM130.2 426.8h-16.1c-.5 0-1 .5-1 1v4.7c0 .5.5 1 1 1h16.1c.5 0 1-.5 1-1v-4.7c.2-.5-.3-1-1-1z" fill="#EAEAEB"/><path d="M56.6 405.4H41.7c-1 0-1.8.6-1.8 1.2l3 20.1c4.8.4 1.7.8 2.6.8h11c1 0 1.8-.6 1.8-1.2v-19.7c0-.7-.9-1.2-1.7-1.2z" fill="#E5E5E5"/><path d="M130.2 456.7h-16.1c-.5 0-1 .5-1 1v8.2c0 .5.5 1 1 1h16.1c.5 0 1-.5 1-1v-8.2c.2-.5-.3-1-1-1zM130.2 445.1h-16.1c-.5 0-1 .5-1 1v8.2c0 .5.5 1 1 1h16.1c.5 0 1-.5 1-1v-8.2c.2-.5-.3-1-1-1zM130.2 414.8h-16.1c-.5 0-1 .5-1 1v8.2c0 .5.5 1 1 1h16.1c.5 0 1-.5 1-1v-8.2c.2-.5-.3-1-1-1zM130.2 402h-16.1c-.5 0-1 .5-1 1v8.2c0 .5.5 1 1 1h16.1c.5 0 1-.5 1-1V403c.2-.5-.3-1-1-1zM196.7 393.9l-4.7.5c-.5.1-.9.6-.9 1.1l1.5 13.3 6-6-.9-8c-.2-.5-.5-.9-1-.9zM205.9 392.8l-4.7.5c-.5.1-.9.6-.9 1.1l.7 5.9 6-6-.1-.7c0-.4-.5-.8-1-.8zM176.2 396.3l-8.2.9c-.5.1-.9.6-.9 1.1l1.9 16c.1.5.5.9 1 .9h.1l8.2-.9c.5-.1.9-.6.9-1.1l-1.9-16c-.1-.5-.6-.9-1.1-.9zM187.7 394.9l-8.3.9c-.5.1-.9.6-.9 1.1l1.9 16c.1.5.5.9 1 .9h.1l6.8-.8 2.1-2.1-1.8-15.2c.1-.4-.4-.8-.9-.8zM130.4 365.9h-16.5c-.4.1-.8.5-.8.9v12.9c0 .5.4.8.8.8h.1l16.5-2c.4-.1.7-.4.7-.8v-11c.2-.4-.3-.8-.8-.8zM114.2 364.4h16.1c.5 0 1-.5 1-1v-4.7c.1-.5-.4-1-1-1h-16.1c-.5 0-1 .5-1 1v4.7c0 .5.5 1 1 1zM114.2 331.8h16.1c.5 0 1-.5 1-1v-4.7c.1-.5-.4-1-1-1h-16.1c-.5 0-1 .5-1 1v4.7c0 .5.5 1 1 1zM114.2 298.1h16.1c.5 0 1-.5 1-1v-4.7c.1-.6-.4-1-1-1h-16.1c-.5 0-1 .5-1 1v4.7c0 .5.5 1 1 1zM114.2 289.1h16.1c.5 0 1-.5 1-1v-4.7c.1-.6-.4-1-1-1h-16.1c-.5 0-1 .5-1 1v4.7c0 .5.5 1 1 1zM114.2 356.5h16.1c.5 0 1-.5 1-1v-8.2c.1-.5-.4-1-1-1h-16.1c-.5 0-1 .4-1 1v8.2c0 .5.5 1 1 1zM114.2 344.3h16.1c.5 0 1-.5 1-1v-8.2c.1-.6-.4-1-1-1h-16.1c-.5 0-1 .5-1 1v8.2c0 .5.5 1 1 1zM114.2 322.6h16.1c.5 0 1-.5 1-1v-8.2c.1-.5-.4-1-1-1h-16.1c-.5 0-1 .5-1 1v8.2c0 .5.5 1 1 1zM114.2 279.8h16.1c.5 0 1-.5 1-1v-8.2c.1-.5-.4-1-1-1h-16.1c-.5 0-1 .5-1 1v8.2c0 .5.5 1 1 1zM114.2 310.1h16.1c.5 0 1-.5 1-1v-8.2c.1-.5-.4-1-1-1h-16.1c-.5 0-1 .5-1 1v8.2c0 .5.5 1 1 1zM165.9 375.5l16.6-2c.4-.1.7-.4.7-.8v-11c.1-.4-.4-.8-.8-.8h-16.5c-.4.1-.8.5-.8.9v12.9c.1.5.4.8.8.8zM166.2 359.4h16.1c.5 0 1-.5 1-1v-4.7c.1-.5-.4-1-1-1h-16.1c-.5 0-1 .5-1 1v4.7c0 .5.5 1 1 1zM166.2 326.8h16.1c.5 0 1-.5 1-1v-4.7c.1-.5-.4-1-1-1h-16.1c-.5 0-1 .5-1 1v4.7c0 .5.5 1 1 1zM166.2 293.1h16.1c.5 0 1-.5 1-1v-4.7c.1-.6-.4-1-1-1h-16.1c-.5 0-1 .5-1 1v4.7c0 .5.5 1 1 1zM166.2 284.1h16.1c.5 0 1-.5 1-1v-4.7c.1-.6-.4-1-1-1h-16.1c-.5 0-1 .5-1 1v4.7c0 .5.5 1 1 1zM166.2 351.5h16.1c.5 0 1-.5 1-1v-8.2c.1-.5-.4-1-1-1h-16.1c-.5 0-1 .4-1 1v8.2c0 .5.5 1 1 1zM166.2 339.3h16.1c.5 0 1-.5 1-1v-8.2c.1-.6-.4-1-1-1h-16.1c-.5 0-1 .5-1 1v8.2c0 .5.5 1 1 1zM166.2 317.6h16.1c.5 0 1-.5 1-1v-8.2c.1-.5-.4-1-1-1h-16.1c-.5 0-1 .5-1 1v8.2c0 .5.5 1 1 1zM166.2 305.1h16.1c.5 0 1-.5 1-1v-8.2c.1-.5-.4-1-1-1h-16.1c-.5 0-1 .5-1 1v8.2c0 .5.5 1 1 1z" fill="#EAEAEB"/><path d="M-15.6 368.9c.1 0 .3-.1.5-.1l29.4-14.6c.5-.2.7-.7.6-1.2l-4.1-22c0-.6-.5-.9-.9-.9-.1 0-.3.1-.5.1l-34.9 17.2c-.5.3-.7.9-.5 1.5l9.5 19.4c.2.4.7.6.9.6zM-20.6 338.2l-2.1-4.2c-.2-.3-.6-.5-.9-.5-.1 0-.3.1-.5.1l-6.7 3.5c-.5.3-.7.9-.5 1.3l2.1 4.2c.2.3.5.5.9.5.1 0 .3-.1.5-.1l6.7-3.5c.5-.3.8-.9.5-1.3zM-35.2 305.8l-2.1-4.2c-.2-.3-.5-.5-.9-.5-.1 0-.3.1-.5.1l-6.7 3.5c-.5.3-.7.9-.5 1.3l2.1 4.2c.2.3.5.5.9.5.1 0 .3-.1.5-.1l6.7-3.5c.5-.3.8-.9.5-1.3zM-17.1 326.8l-3.7-7.5c-.2-.4-.5-.6-.9-.6-.1 0-.3.1-.5.1l-14.1 7.3c-.5.3-.7.9-.5 1.3l3.7 7.5c.2.3.5.5.9.5.1 0 .3-.1.5-.1l14.1-7.2c.5-.3.8-.9.5-1.3zM-22.6 314.8l-3.7-7.5c-.2-.4-.5-.6-.9-.6-.1 0-.3.1-.5.1l-14.1 7.3c-.5.3-.7.9-.5 1.3l3.7 7.5c.2.3.5.5.9.5.1 0 .3-.1.5-.1l14.1-7.2c.5-.3.8-.9.5-1.3zM-4.2 294.2h.2l7.4-1.3c.5-.1.9-.6.8-1.2l-.8-4.7c-.2-.6-.6-.9-1-.9h-.2l-7.4 1.3c-.5.1-.9.6-.8 1.2l.8 4.7c.1.5.5.9 1 .9zM-10.3 307.8h.2L5.4 305c.5-.1.9-.6.8-1.2l-1.4-8.3c0-.6-.4-.9-1-.9h-.2l-15.5 2.8c-.5.1-.9.6-.8 1.2l1.4 8.3c0 .5.5.9 1 .9zM5.7 306.7l-15.5 2.8c-.5.1-.9.6-.8 1.2l1.4 8.3c.1.5.5.9 1 .9h.2l15.5-2.8c.5-.1.9-.6.8-1.2l-1.4-8.3c-.1-.6-.5-.9-1-.9h-.2zM-7.7 323.3l.8 4.7c.1.5.5.9 1 .9h.2l15.5-2.8c.5-.1.9-.6.8-1.2l-.8-4.7c-.1-.5-.5-.9-1-.9h-.2l-15.5 2.8c-.4.1-.9.6-.8 1.2zM55.3 402.7c1 0 1.7-.8 1.7-1.7v-9.6c.2-1.1-.6-1.9-1.6-1.9H38.8c-1.1 0-1.9 1-1.7 2.1l1.7 9.6c.1.9.9 1.5 1.7 1.5h14.8zM17.6 375.7c-.2 0-.3.1-.5.1l-23.8 13.5c-.5.3-.7.9-.4 1.5l30.5 56.6c.2.4.5.5.9.5.6 0 1.1-.5 1.1-1.2l-6.6-70.1c-.2-.5-.6-.9-1.2-.9z" fill="#E5E5E5"/><path fill="#FCFCFC" d="M191.9 379.2l5.5-.7 3-7.1-.7-105.6-4.2-4.1H191"/><path fill="#FCFCFC" d="M195.5 261.7l-4.6-4.6.1 4.6M194 383.2l4.4-.6-2.7-.4 1.7-3.7-5.5.7v4M200.5 378.1l6.9-.9s0-.1.1-.1c.3-.4 1-.5 1.4-.2l30.4-71.6-7-7-31.8 73v6.8zM205.9 383.9v-.2l-.7.1"/><path d="M206.9 381.6l1.2-2.8-.4-.3c-.4-.3-.5-.9-.3-1.3l-6.9.9v4.3l6.4-.8z" fill="#FCFCFC"/><path fill="#FCFCFC" d="M200.4 371.4l-3 7.1 3.1-.4"/><path fill="#FCFCFC" d="M198.4 382.6l2.1-.2v-4.3l-3.1.4-1.7 3.7"/><path d="M205.9 274l.7 64.3c0 .4.2.7.6.9.5.3 1.2.1 1.5-.6l18.6-45.2-20.5-20.5c-.6.1-1.1.5-.9 1.1z" fill="#E5E5E5"/><circle cx="-59.3" cy="366.9" r="2.1" fill="#F6F7F9"/><path d="M153.7 392.8l-1.5 1.9c-.2.3-.5.4-.8.4-.2 0-.4-.1-.6-.2-.4-.3-.5-1-.2-1.4l.3-.4-12.9 1.6v68.7l20-20v-51.2l-4.3.6zM157.9 383.4V261.7h-20v124.2M137.9 259.7h20v2h-20zM149.7 386.5c-.4-.3-.5-1-.2-1.4.3-.4 1-.5 1.4-.2l4.3 3.3 2.8-.4v-4.4l-20 2.5v4.5l14.4-1.8-2.7-2.1z" fill="#FCFCFC"/><path fill="#FCFCFC" d="M155.7 390.1l-2 2.7 4.2-.6v-2.4M137.9 392.4v2.3l13-1.6 2-2.6"/><path d="M68.9 338.7c.6 0 1 .4 1 1v.6c.5-.3.7-.9.4-1.4s-.9-.7-1.4-.4l-1 .6.1.2c.2-.4.6-.6.9-.6zM26.1 363.5h.1l-1 .1M63.9 343.5v-2.4l-34.8 18.5.2 2.2M15.3 368.6c-.1-.2-.2-.5-.1-.8l.3-1-30.8 16.3.9 1.8 30-15.9c0-.1-.2-.2-.3-.4zM-22.8 387.1l-13.4 7 1.5 1.5 12.8-6.7M21.1 364.3l-.2-.4-2.7 1.5-.6 2 .6.2 3-1.5" fill="#A1ABD0"/><path d="M63.9 343.5l4-2.1v-1.7c0-.2 0-.3.1-.4l-.1-.2-4 2.1v2.3zM-19.7 387.4c-.3-.3-.5-.7-.4-1.1.1-.1.1-.3.2-.4l.2-.5-3.2 1.7.9 1.8 2.5-1.3-.2-.2zM-17.1 384l-.6 2 .9.2 2.5-1.3-.9-1.9M21.1 364.3l.1 1.8 4.9-2.6-.9.1" fill="#A1ABD0"/><path fill="#A1ABD0" d="M21.1 364.3v-.3l4.1-.4 1-.1 3.1-1.7-.2-2.2-8.2 4.3"/><path fill="#A1ABD0" d="M21.1 364v.3l4.1-.7M100.9 396.7v.4l2.5-.3-.2-2-2.9.4c-.4.1-.7.3-.8.6.1 0 .3-.1.4-.1.7 0 1 .4 1 1zM122.9 392.3l-19 2.4v2.1l20.3-2.6.5-.7M181.7 384.8l-23.8 3v2l23.8-3 1-1.3M200.5 383.2H194l-9.6 1.2c.1 0 .1 0 .2.1.4.3.5 1 .2 1.4l-.4.6 20.8-2.7-4.7-.8v.2zM213.9 381.9l-.7.9 6.2-.8 2.3-2.3-7.9 1c.2.3.4.9.1 1.2zM125.9 391.9l.6.5c.1 0 .2.1.2.1.4.3.5.9.2 1.3l11.1-1.4v-2l-12.1 1.5zM205.9 383.7l4.5-.6 1.3-1.6-.8-.5-4 .6"/><path fill="#A1ABD0" d="M103.9 396.8v-2.1l-.7.1.2 2M200.5 383l-2.1-.4-4.4.6h6.5M200.5 382.4v.6l4.7.8.7-.1 1-2.1"/><path fill="#A1ABD0" d="M200.5 382.4l-2.1.2 2.1.4M152.4 388.5l-14.5 1.9v2l15-1.9.8-1M155.2 388.2l.3.2c.1 0 .2.1.2.1.4.3.5 1 .2 1.4l-.2.2 2.3-.3v-2l-2.8.4zM-12.9 387.5l.6 1.1c0-.5-.3-.9-.6-1.1zM-13.3 387.3l-2.6 1.4 2.2.7h.3c.5 0 .9-.2 1-.7v-.1l-.6-1.1-.1-.1-.2-.1zM-16.8 386.2l-1.1.6-.1.2c-.2.4-.6.7-1 .7h-.1l3.1 1 2.6-1.4-3.4-1.1z"/><path fill="#A1ABD0" d="M-17.8 386.8l1-.6-.9-.2M-19.9 386.4l.1-.5c-.1.1-.2.2-.2.4-.1.5.1.9.4 1.1-.2-.2-.5-.6-.3-1zM-16.7 380.1l.5 1c0-.4-.1-.8-.5-1zM-19.3 387.6c0 .1.1.1.1.1h.2l-.3-.1z"/><path d="M-16.2 381.3v-.2l-.5-1c-.1 0-.1-.1-.2-.1-.6-.1-1.1.2-1.3.7l-1.5 4.7 2.6-1.4.9-2.7zM-19.7 387.4l.2.2c.1-.1-.1-.1-.2-.2z" fill="#A1ABD0"/><path d="M-18.8 385.6l1.1.4.6-2-2.6 1.4-.2.5c.3-.2.7-.4 1.1-.3zM-19.3 387.6l.3.1h.1c.4 0 .8-.3 1-.7l.1-.2-1.5.8z" fill="#A1ABD0"/><path d="M-18.8 385.6c-.4-.1-.8.1-1.1.3l-.1.5c-.1.4.1.8.3 1 .1.1.2.1.2.2l1.5-.8.3-.8-1.1-.4zM121.9 388.9c-.4-.3-1.1-.2-1.4.2-.3.4-.2 1.1.2 1.4l2.3 1.8 2.8-.4-3.9-3zM125.2 392.7c.2-.3.8-.4 1.2-.3l-.6-.5-2.8.4 1.6 1.2.6-.8zM121.5 397.5c-.3.4-.2 1.1.2 1.4.2.1.4.2.6.2.3 0 .6-.1.8-.4l1.8-2.4-2.8.3-.6.9z" fill="#A1ABD0"/><path d="M126.9 393.8c-.1 0-.1 0-.1.1-.2.3-.5.4-.8.4-.2 0-.4-.1-.6-.2l-.1-.1-1.1.1-1.9 2.5 2.8-.3 1.8-2.5c0 .1 0 0 0 0zM126.7 392.5c-.1-.1-.2-.1-.2-.1l.1.1c.4.3.5.9.2 1.3h.1c.3-.4.1-1-.2-1.3z" fill="#A1ABD0"/><path fill="#A1ABD0" d="M124.2 394.2l1-.2-.5-.5M125.4 394.1c.2.1.4.2.6.2.3 0 .6-.1.8-.4v-.1l-1.4.3z"/><path d="M126.5 392.5l-.1-.1c-.4-.1-.9 0-1.2.3l-.6.8.6.5 1.5-.2c.3-.4.2-1-.2-1.3zM149.4 385.1c-.3.4-.2 1.1.2 1.4l2.7 2 2.8-.4-4.3-3.3c-.4-.2-1.1-.1-1.4.3zM153.7 389.5l.6-.8c.2-.3.8-.4 1.2-.3l-.3-.2-2.8.4 1.3.9zM150.5 393.5c-.3.4-.2 1.1.2 1.4.2.1.4.2.6.2.3 0 .6-.1.8-.4l1.5-1.9-2.8.3-.3.4z" fill="#A1ABD0"/><path d="M155.4 390.2c-.2.1-.3.1-.5.1h-.2l-1.9.2-2 2.6 2.8-.3 2-2.6h-.2z" fill="#A1ABD0"/><path d="M153.7 389.5l-.7 1 1.9-.2c-.1 0-.3-.1-.4-.2l-.8-.6zM155.7 388.5c-.1-.1-.2-.1-.2-.1l.1.1c.4.3.5 1 .2 1.4l-.3.3h.2l.2-.2c.3-.5.1-1.2-.2-1.5z" fill="#A1ABD0"/><path d="M154.9 390.3c.2 0 .4 0 .5-.1l-.7.1h.2z" fill="#A1ABD0"/><path d="M155.5 388.5l-.1-.1c-.4-.1-.9 0-1.2.3l-.6.8.7.6c.1.1.3.1.4.2l.7-.1c.1-.1.2-.1.3-.3.3-.4.2-1.1-.2-1.4zM178.7 382.5l3 2.3 1.8-.2c.3-.2.7-.3 1-.2l-4.6-3.5c-.2-.1-.4-.2-.6-.2h-.2l-.6.3c-.3.5-.3 1.2.2 1.5z" fill="#A1ABD0"/><path d="M183.4 384.6l-1.8.2 1 .7.6-.8c0-.1.2-.1.2-.1zM179.7 390.9c.2.1.4.2.6.2.3 0 .6-.1.8-.4l1.1-1.5-2.8.3c-.2.5 0 1.1.3 1.4zM184.4 384.4z" fill="#A1ABD0"/><path d="M181.7 386.8l-2.1 2.7v.1l2.8-.3 2.1-2.8-2.8.3zM184.7 384.5s-.1 0-.2-.1l.1.1c.4.3.5 1 .2 1.4-.2.3-.5.4-.8.4-.2 0-.4-.1-.6-.2l-.7-.6-1 1.3 2.8-.4.4-.6c.3-.3.1-1-.2-1.3z" fill="#A1ABD0"/><path d="M183.4 384.6l1-.1c-.4-.2-.7-.2-1 .1z" fill="#A1ABD0"/><path d="M183.2 384.7l-.6.8.7.6c.2.1.4.2.6.2.3 0 .6-.1.8-.4.3-.4.2-1.1-.2-1.4l-.1-.1-1 .1c0 .1-.2.1-.2.2zM209 377l-.2-.1-.1.2.3-.1zM208 378.8l2.9 2.3 1.1-.1.1-.2c.2-.3.8-.4 1.2-.3l-4.4-3.4h-.2l-.7 1.7zM207.4 377.1s0 .1-.1.1l1.4-.2.1-.2c-.4-.2-1.1-.1-1.4.3z" fill="#A1ABD0"/><path d="M207.7 378.5l.4.3.7-1.7-1.4.2c-.2.3-.2.9.3 1.2zM212.2 380.9l-1.3.1.8.5M208.7 386.9c.2.1.4.2.6.2.3 0 .6-.1.8-.4l.8-1.1-2.6.3c.1.4.1.8.4 1z" fill="#A1ABD0"/><path d="M208.5 385.5c-.1.1-.1.3-.2.5l2.6-.3 2.2-2.9-2.8.4-1.8 2.3zM213.7 380.7c0-.1 0-.1-.1-.2s-.2-.1-.2-.1l.1.1c.2 0 .2.1.2.2z" fill="#A1ABD0"/><path d="M213.7 381.9c-.2.3-.5.4-.8.4-.2 0-.4-.1-.6-.2l-.7-.6-1.2 1.6 2.8-.4.7-.9c.3-.3.2-.9-.1-1.2h-.1c.2.4.3 1 0 1.3z" fill="#A1ABD0"/><path d="M212.2 380.7l-.1.2 1.6-.2c0-.1-.1-.1-.2-.2l-.1-.1c-.4-.1-1 0-1.2.3zM212.4 382.1c.2.1.4.2.6.2.3 0 .6-.1.8-.4.3-.3.2-.9 0-1.2l-1.6.2-.5.6.7.6zM101.6 420.8c-.1-.1-.2-.2-.3-.2 0 0 .1.1.3.2zM95.9 425c-.4.4-.4 1 0 1.4.2.2.4.3.7.3s.5-.1.7-.3l1.6-1.6V422l-3 3zM104.3 426.5c.2.2.4.3.7.3s.5-.1.7-.3c.4-.4.4-1 0-1.4l-1.8-1.8v2.8l.4.4z" fill="#A1ABD0"/><path d="M101.6 422.2l-.6.6v.2l3 3.1v-2.8l-2.4-2.5c.3.4.3 1 0 1.4z" fill="#A1ABD0"/><path d="M101.6 422.2c.4-.4.4-1 0-1.4-.1-.1-.2-.2-.3-.2-.1 0-.2-.1-.3-.1v2.3l.6-.6zM101.6 458.8c-.1-.1-.2-.2-.3-.2 0 0 .1.1.3.2zM95.9 463c-.4.4-.4 1 0 1.4.2.2.4.3.7.3s.5-.1.7-.3l1.6-1.6V460l-3 3zM104.3 464.5c.2.2.4.3.7.3s.5-.1.7-.3c.4-.4.4-1 0-1.4l-1.8-1.8v2.8l.4.4z" fill="#A1ABD0"/><path d="M101.6 460.2l-.6.6v.2l3 3.1v-2.8l-2.4-2.5c.3.4.3 1 0 1.4z" fill="#A1ABD0"/><path d="M101.6 460.2c.4-.4.4-1 0-1.4-.1-.1-.2-.2-.3-.2-.1 0-.2-.1-.3-.1v2.3l.6-.6zM101.6 496.8c-.1-.1-.2-.2-.3-.2 0 0 .1.1.3.2zM95.9 501c-.4.4-.4 1 0 1.4.2.2.4.3.7.3s.5-.1.7-.3l1.6-1.6V498l-3 3z" fill="#A1ABD0"/><path d="M101.6 498.2l-.6.6v.2l.7.7 1.4-1.4-1.5-1.6c.3.5.3 1.1 0 1.5z" fill="#A1ABD0"/><path d="M101.6 498.2c.4-.4.4-1 0-1.4-.1-.1-.2-.2-.3-.2-.1 0-.2-.1-.3-.1v2.3l.6-.6zM70.6 390.8c-.1-.1-.2-.2-.3-.2 0 0 .1.1.3.2zM64.9 395c-.4.4-.4 1 0 1.4.2.2.4.3.7.3s.5-.1.7-.3l1.6-1.6V392l-3 3zM70.6 392.2l-.6.6v.2l3.4 3.5c.2.2.4.3.7.3s.5-.1.7-.3c.4-.4.4-1 0-1.4l-4.2-4.3c.3.4.3 1 0 1.4z" fill="#A1ABD0"/><path d="M70.6 392.2c.4-.4.4-1 0-1.4-.1-.1-.2-.2-.3-.2-.1 0-.2-.1-.3-.1v2.3l.6-.6zM70.6 428.8c-.1-.1-.2-.2-.3-.2 0 0 .1.1.3.2zM64.9 433c-.4.4-.4 1 0 1.4.2.2.4.3.7.3s.5-.1.7-.3l1.6-1.6V430l-3 3zM70.6 430.2l-.6.6v.2l3.4 3.5c.2.2.4.3.7.3s.5-.1.7-.3c.4-.4.4-1 0-1.4l-4.2-4.3c.3.4.3 1 0 1.4z" fill="#A1ABD0"/><path d="M70.6 430.2c.4-.4.4-1 0-1.4-.1-.1-.2-.2-.3-.2-.1 0-.2-.1-.3-.1v2.3l.6-.6zM64.9 471c-.4.4-.4 1 0 1.4.2.2.4.3.7.3s.5-.1.7-.3l1.6-1.6V468l-3 3zM70.6 466.8c-.1-.1-.2-.2-.3-.2 0 0 .1.1.3.2zM70.6 468.2l-.6.6v.2l3.4 3.5c.2.2.4.3.7.3s.5-.1.7-.3c.4-.4.4-1 0-1.4l-4.2-4.3c.3.4.3 1 0 1.4z" fill="#A1ABD0"/><path d="M70.6 468.2c.4-.4.4-1 0-1.4-.1-.1-.2-.2-.3-.2-.1 0-.2-.1-.3-.1v2.3l.6-.6zM18.9 370.1l2.7.8h.1l-.2-2.2-2.6 1.4z" fill="#A1ABD0"/><path d="M21.4 368.7l-3.2-1-.9.5-.1.3c-.2.4-.6.7-1 .7h-.3c-.1 0-.1-.1-.2-.1.1 0 .1.1.2.1l3 1 2.5-1.5zM21.7 370.9h.2c.4 0 .8-.3 1-.7.1-.6-.2-1.1-.7-1.3l-.7-.2h-.1l.3 2.2zM21.4 368.7h.1-.1zM15.3 368.6c.1.2.2.3.4.4-.1-.1-.3-.2-.4-.4zM17.3 368.1l.9-.5-.6-.2M19.1 362.7c.1-.6-.2-1.1-.7-1.3-.6-.1-1.1.2-1.3.7l-1.5 4.7 2.6-1.4.9-2.7z" fill="#A1ABD0"/><path d="M16.6 367.1l1 .3.7-2.1-2.6 1.4-.3 1c-.1-.5.5-.7 1.2-.6zM15.9 369.1h.3c.4 0 .8-.3 1-.7l.1-.3-1.6.8c.1.1.1.2.2.2z" fill="#A1ABD0"/><path d="M16.6 367.1c-.6-.1-1.2.1-1.3.7 0 .3 0 .6.1.8.1.2.2.3.4.4l1.6-.8.2-.7-1-.4zM69.8 468.9l-1.9 1.9v27.4l2 2V469M69.8 342.9l-1.9 1V392l1.2-1.2c.1-.1.2-.2.3-.2.1-.1.2-.1.4-.1h.1v-50.2l-1.1.6 1 2zM67.9 394.8V430l1.2-1.2c.1-.1.2-.2.3-.2.1-.1.2-.1.4-.1h.1V393l-.1-.1-1.9 1.9zM67.9 432.8V468l1.2-1.2c.1-.1.2-.2.3-.2.1-.1.2-.1.4-.1h.1V431l-.1-.1-1.9 1.9z" fill="#A1ABD0"/><path fill="#A1ABD0" d="M68.8 340.9l-.9.5v2.5l1.9-1"/><path d="M68.9 338.7c-.4 0-.8.2-.9.6l.8 1.6 1.1-.6v-.6c0-.6-.3-1-1-1z" fill="#A1ABD0"/><path d="M68.1 339.3c0 .1-.1.3-.1.4v1.7l.9-.5-.8-1.6zM69.2 392.2c-.4-.4-.4-1 0-1.4.1-.1.2-.2.3-.2-.1 0-.2.1-.3.2L68 392v2.8l1.9-1.9-.7-.7z" fill="#A1ABD0"/><path fill="#A1ABD0" d="M69.8 392.9l.1.1v-.2M69.4 390.6c-.1 0-.2.1-.3.2-.4.4-.4 1 0 1.4l.7.7.1-.1v-2.3h-.1c-.1 0-.1 0-.4.1zM69.2 430.2c-.4-.4-.4-1 0-1.4.1-.1.2-.2.3-.2-.1 0-.2.1-.3.2L68 430v2.8l1.9-1.9-.7-.7z"/><path fill="#A1ABD0" d="M69.8 430.9l.1.1v-.2M69.4 428.6c-.1 0-.2.1-.3.2-.4.4-.4 1 0 1.4l.7.7.1-.1v-2.3h-.1c-.1 0-.1 0-.4.1zM69.2 466.8c.1-.1.2-.2.3-.2-.2 0-.3.1-.3.2L68 468v2.8l1.9-1.9-.7-.7c-.5-.4-.5-1 0-1.4z"/><path fill="#A1ABD0" d="M69.8 468.9l.1.1v-.2M69.4 466.6c-.1 0-.2.1-.3.2-.4.4-.4 1 0 1.4l.7.7.1-.1v-2.3h-.1c-.1 0-.1 0-.4.1zM98.9 462.8V498l1.2-1.2c.1-.1.2-.2.3-.2.1-.1.2-.1.4-.1h.1V461l-.1-.1-1.9 1.9zM100.4 420.6c.1-.1.2-.1.4-.1h.1v-23.4l-.5.1c-.5 0-.9-.4-1-.9 0-.2 0-.4.1-.5-.4.1-.6.5-.6.9V422l1.2-1.2c.1-.1.2-.2.3-.2zM100.8 498.9l-1.9 1.9v1.7l2-2V499M100.4 458.6c.1-.1.2-.1.4-.1h.1V423l-.1-.1-1.9 1.9V460l1.2-1.2c.1-.1.2-.2.3-.2z"/><path d="M100.4 397.2l.5-.1v-.4c0-.6-.4-1-1-1-.1 0-.3 0-.4.1-.1.2-.1.3-.1.5.2.5.5.9 1 .9zM100.2 422.2c-.4-.4-.4-1 0-1.4.1-.1.2-.2.3-.2-.1 0-.2.1-.3.2L99 422v2.8l1.9-1.9-.7-.7z" fill="#A1ABD0"/><path fill="#A1ABD0" d="M100.9 423v-.2l-.1.1M100.4 420.6c-.1 0-.2.1-.3.2-.4.4-.4 1 0 1.4l.7.7.1-.1v-2.3h-.1c-.1 0-.1 0-.4.1zM100.2 460.2c-.4-.4-.4-1 0-1.4.1-.1.2-.2.3-.2-.1 0-.2.1-.3.2L99 460v2.8l1.9-1.9-.7-.7z"/><path fill="#A1ABD0" d="M100.8 460.9l.1.1v-.2M100.4 458.6c-.1 0-.2.1-.3.2-.4.4-.4 1 0 1.4l.7.7.1-.1v-2.3h-.1c-.1 0-.1 0-.4.1zM100.2 496.8c.1-.1.2-.2.3-.2-.2 0-.3.1-.3.2L99 498v2.8l1.9-1.9-.7-.7c-.5-.4-.5-1 0-1.4z"/><path fill="#A1ABD0" d="M100.9 499v-.2l-.1.1M100.4 496.6c-.1 0-.2.1-.3.2-.4.4-.4 1 0 1.4l.7.7.1-.1v-2.3h-.1c-.1 0-.1 0-.4.1z"/></svg>
