<svg viewBox="0 0 476 373"><path fill="#A9DEEB" d="M359.6 334.1l-2.9 1.8-1.7-2.9c-.4-.7-1.1-1.1-1.8-.7-.7.4-.6 1.2-.2 1.9l1.8 2.8-2.9 1.8c-.7.4-1.1 1.1-.7 1.8.4.7 1.2.6 1.9.2l2.9-1.8 1.8 2.9c.4.7 1.1 1.1 1.8.7.7-.4.6-1.2.2-1.9l-1.8-2.9 2.9-1.8c.7-.4 1.1-1.1.7-1.8-.5-.6-1.3-.6-2-.1z"/><path fill="#FF7676" d="M414.1 202l-1.8-2.9 2.8-1.8c.7-.4 1.1-1 .7-1.8s-1.2-.6-1.9-.2l-2.8 1.8-1.8-2.9c-.4-.7-1-1.1-1.8-.7-.7.4-.6 1.2-.2 1.9l1.8 2.9-2.9 1.8c-.7.4-1.1 1-.7 1.8.4.7 1.2.6 1.9.2l2.9-1.8 1.8 2.9c.4.7 1 1.1 1.8.7.7-.4.6-1.2.2-1.9z"/><circle fill="#FFB8C7" cx="166.1" cy="350.4" r="2.4"/><circle fill="#FFB8C7" cx="392.7" cy="63.9" r="2.4"/><circle fill="#4B5E7F" cx="69.3" cy="277.8" r="2.4"/><circle fill="#FFB8C7" cx="74.7" cy="143.1" r="2.4"/><circle fill="#FFB8C7" cx="103.3" cy="313.4" r="2.4"/><circle fill="#FFB8C7" cx="164" cy="31.6" r="2.4"/><circle fill="#A9DEEB" cx="364.2" cy="9.5" r="2.4"/><circle fill="#A9DEEB" cx="183.8" cy="350.4" r="2.4"/><circle fill="#F6F7F9" cx="314.6" cy="34" r="2.4"/><circle fill="#F6F7F9" cx="366.6" cy="311.1" r="2.4"/><path fill="#A9DEEB" d="M99.9 51.5c-.3-3.2 2.1-6 5.3-6.3 3.2-.3 6 2.1 6.3 5.3.3 3.2-2.1 6-5.3 6.3-3.1.3-6-2.1-6.3-5.3zm9.6-.8c-.2-2.1-2-3.6-4.1-3.4-2.1.2-3.6 2-3.4 4.1.2 2.1 2 3.6 4.1 3.4 2-.2 3.6-2.1 3.4-4.1z"/><path fill="#A9DEEB" d="M96.1 60.9c0-.3.1-.6.2-.8l5-6.2c.4-.5 1.1-.6 1.6-.2.5.4.6 1.1.2 1.6l-5 6.2c-.4.5-1.1.6-1.6.2-.3-.2-.4-.5-.4-.8z"/><g><defs><path id="a" d="M86.9 256l.2-129c0-15.1 8.1-29 21.2-36.4l112-64c13-7.4 29-7.4 42 .1l112 65.1c13 7.5 20.9 21.4 20.9 36.4l-.2 129c0 15.1-8.1 29-21.2 36.4l-112 64c-13 7.4-29 7.4-42-.1l-112-65.1c-13-7.5-21-21.4-20.9-36.4z"/></defs><clipPath id="b"><use xlink:href="#a" overflow="visible"/></clipPath><g clip-path="url(#b)"><path fill="#F4F4F4" d="M468.2 566H6.4V-.1h461.8V566"/><path fill="#FCFCFC" d="M272.2 280.5h165.2v-6.8H272.2M272.2 227.7h165.2v-6.9H272.2M39.5 273.7h165.2v6.8H39.5M47.2 438.5h165.2v6.9H47.2M267.5 438.5h165.2v6.9H267.5M267.5 390.3h251.3v6.9H267.5M-41.9 390.3h254.3v6.9H-41.9M39.5 227.7h165.2v-6.9H39.5M270.6 221.3V24.1h-6.9v197.2M217.8 221.3V24.1h-6.9v197.2"/><path fill="#FCFCFC" d="M270.6 491.3V281.9h-6.9v209.4M217.8 491.3V281.9h-6.9v209.4"/><path fill="#FCFCFC" d="M444.7 252.1h-4.8c0 7.6-1.3 15-3.9 22.2-4.5 12.6-12.7 24.6-24.2 35.6-17.3 16.4-41.8 30.4-71.3 40.1-29.4 9.8-63.7 15.4-100.2 15.4-55.7 0-106.1-13.1-142.1-33.9-18-10.4-32.5-22.8-42.3-36.2-4.9-6.7-8.7-13.7-11.3-20.9-2.6-7.2-3.9-14.6-3.9-22.2s1.3-15 3.9-22.2c4.5-12.6 12.7-24.6 24.2-35.6C86 177.9 110.6 164 140 154.2c29.4-9.8 63.7-15.4 100.2-15.4 55.7 0 106.1 13.1 142.1 33.9 18 10.4 32.5 22.8 42.3 36.2 4.9 6.7 8.7 13.7 11.3 20.9 2.6 7.2 3.9 14.6 3.9 22.2h9.7c0-8.7-1.5-17.2-4.4-25.4-5.1-14.3-14.3-27.5-26.7-39.3-18.6-17.7-44.4-32.2-74.9-42.3-30.5-10.1-65.7-15.9-103.3-15.9-57.2 0-109 13.4-146.9 35.2-18.9 11-34.4 24.1-45.3 38.9-5.4 7.4-9.7 15.2-12.6 23.4-2.9 8.2-4.4 16.7-4.4 25.4s1.5 17.2 4.4 25.4c5.1 14.3 14.3 27.5 26.7 39.3 18.6 17.7 44.4 32.2 74.9 42.3 30.5 10.1 65.7 15.9 103.3 15.9 57.2 0 109-13.4 146.9-35.2 18.9-11 34.4-24.1 45.3-38.9 5.4-7.4 9.7-15.2 12.6-23.4 2.9-8.2 4.4-16.7 4.4-25.4h-4.8z"/><path fill="#FCFCFC" d="M46.5 391.6c.2-.2 4.9-6.4 9.7-16.6 4.8-10.2 9.6-24.5 9.6-40.8 0-7.5-1-15.5-3.6-23.6-2.5-8.1-6.6-16.5-12.6-24.7l-7.7 5.6c5.4 7.4 8.9 14.7 11.2 21.9 2.2 7.2 3.1 14.1 3.1 20.8 0 14.5-4.3 27.4-8.7 36.8-2.2 4.7-4.4 8.4-6 11-.8 1.3-1.5 2.3-1.9 2.9-.2.3-.4.6-.5.7l-.1.2.3.2-.3-.2.3.2-.3-.2 7.5 5.8zM441.8 388l-.3.2.3-.2-.3.2.3-.2c-.1-.2-4.5-5.9-8.8-15.2-4.3-9.3-8.5-22.1-8.5-36.3 0-6.7.9-13.6 3.1-20.8 2.2-7.2 5.8-14.5 11.2-21.9l-7.7-5.6c-6 8.2-10 16.5-12.6 24.7-2.5 8.1-3.6 16.1-3.6 23.6 0 16.4 4.8 30.6 9.6 40.8 4.8 10.2 9.6 16.4 9.7 16.6l7.6-5.9z"/><path fill="#FCFCFC" d="M134.9 348.5c-.1 0-1.9-.2-4.9-.2-7.1 0-21.3.8-38.4 6.2-17.1 5.4-37 15.5-55.4 33.9l6.8 6.8c17.2-17.2 35.7-26.5 51.6-31.5 15.9-5 29.1-5.8 35.5-5.8 1.4 0 2.4 0 3.1.1h1l.1-1-.1 1 .1-1-.1 1 .7-9.5zM346.7 360.3l-.1-1 .1 1-.1-1 .1 1c.1 0 1.5-.1 4.1-.1 6.4 0 19.6.7 35.5 5.8 15.9 5 34.4 14.3 51.6 31.5l6.8-6.8c-18.4-18.4-38.4-28.4-55.4-33.9-17.1-5.4-31.3-6.2-38.4-6.2-3.1 0-4.8.2-4.9.2l.7 9.5zM36.7 118.9l.3-.2-.3.2.3-.2-.3.2c.1.2 4.5 5.9 8.8 15.2 4.3 9.3 8.5 22.1 8.5 36.3 0 6.7-.9 13.6-3.1 20.8-2.2 7.2-5.8 14.5-11.2 21.9l7.7 5.6c6-8.2 10-16.5 12.6-24.7 2.5-8.1 3.6-16.1 3.6-23.6 0-16.4-4.8-30.6-9.6-40.8-4.8-10.2-9.6-16.4-9.7-16.6l-7.6 5.9zM432 110.8c-.2.2-4.9 6.4-9.7 16.6-4.8 10.2-9.6 24.5-9.6 40.8 0 7.5 1 15.5 3.6 23.6 2.5 8.1 6.6 16.5 12.6 24.7l7.7-5.6c-5.4-7.4-8.9-14.7-11.2-21.9-2.2-7.2-3.1-14.1-3.1-20.8 0-14.5 4.3-27.4 8.7-36.8 2.2-4.7 4.4-8.4 6-11 .8-1.3 1.5-2.3 1.9-2.9.2-.3.4-.6.5-.7l.1-.2-.3-.2.3.2-.3-.2.3.2-7.5-5.8z"/><path fill="#FCFCFC" d="M131.8 146.7l.1.9-.1-.9.1.9-.1-.9c-.1 0-1.5.1-4.1.1-6.4 0-19.6-.7-35.5-5.8-15.9-5-34.4-14.3-51.6-31.5l-6.8 6.8c18.4 18.4 38.4 28.4 55.4 33.9 17.1 5.4 31.3 6.2 38.4 6.2 3.1 0 4.8-.2 4.9-.2l-.7-9.5zM343.6 153.9c.1 0 1.9.2 4.9.2 7.1 0 21.3-.8 38.4-6.2 17.1-5.4 37-15.5 55.4-33.9l-6.8-6.8c-17.2 17.2-35.7 26.5-51.6 31.5-15.9 5-29.1 5.8-35.5 5.8-1.4 0-2.4 0-3.1-.1h-1l-.1 1 .1-1-.1 1 .1-1-.7 9.5z"/><path fill="#E5E5E5" d="M315.6 408.2h-5.4c-.6 0-1.1.5-1.1 1.2v18.5c0 .6.5 1.2 1.1 1.2h5.4c.6 0 1.1-.5 1.1-1.2v-18.5c0-.7-.5-1.2-1.1-1.2M326.3 408.2H321c-.6 0-1.1.5-1.1 1.2v18.5c0 .6.5 1.2 1.1 1.2h5.4c.6 0 1.1-.5 1.1-1.2v-18.5c-.1-.7-.6-1.2-1.2-1.2M290.8 408.2h-9.4c-.6 0-1.1.5-1.1 1.2v18.5c0 .6.5 1.2 1.1 1.2h9.4c.6 0 1.1-.5 1.1-1.2v-18.5c0-.7-.5-1.2-1.1-1.2M305.3 408.2h-9.4c-.6 0-1.1.5-1.1 1.2v18.5c0 .6.5 1.2 1.1 1.2h9.4c.6 0 1.1-.5 1.1-1.2v-18.5c0-.7-.5-1.2-1.1-1.2M340.1 408.2h-9.4c-.6 0-1.1.5-1.1 1.2v18.5c0 .6.5 1.2 1.1 1.2h9.4c.6 0 1.1-.5 1.1-1.2v-18.5c0-.7-.5-1.2-1.1-1.2M354.8 408.2h-9.4c-.6 0-1.1.5-1.1 1.2v18.5c0 .6.5 1.2 1.1 1.2h9.4c.6 0 1.1-.5 1.1-1.2v-18.5c0-.7-.5-1.2-1.1-1.2M394.9 408.2h-5.4c-.6 0-1.1.5-1.1 1.2v18.5c0 .6.5 1.2 1.1 1.2h5.4c.6 0 1.1-.5 1.1-1.2v-18.5c0-.7-.5-1.2-1.1-1.2M405.6 408.2h-5.4c-.6 0-1.1.5-1.1 1.2v18.5c0 .6.5 1.2 1.1 1.2h5.4c.6 0 1.1-.5 1.1-1.2v-18.5c0-.7-.5-1.2-1.1-1.2M370.1 408.2h-9.4c-.6 0-1.1.5-1.1 1.2v18.5c0 .6.5 1.2 1.1 1.2h9.4c.6 0 1.1-.5 1.1-1.2v-18.5c0-.7-.5-1.2-1.1-1.2M384.6 408.2h-9.4c-.6 0-1.1.5-1.1 1.2v18.5c0 .6.5 1.2 1.1 1.2h9.4c.6 0 1.1-.5 1.1-1.2v-18.5c0-.7-.5-1.2-1.1-1.2M419.4 408.2H410c-.6 0-1.1.5-1.1 1.2v18.5c0 .6.5 1.2 1.1 1.2h9.4c.6 0 1.1-.5 1.1-1.2v-18.5c0-.7-.5-1.2-1.1-1.2M434.1 408.2h-9.4c-.6 0-1.1.5-1.1 1.2v18.5c0 .6.5 1.2 1.1 1.2h9.4c.6 0 1.1-.5 1.1-1.2v-18.5c0-.7-.5-1.2-1.1-1.2M80 408.2h-5.4c-.6 0-1.1.5-1.1 1.2v18.5c0 .6.5 1.2 1.1 1.2H80c.6 0 1.1-.5 1.1-1.2v-18.5c.1-.7-.5-1.2-1.1-1.2M90.7 408.2h-5.4c-.6 0-1.1.5-1.1 1.2v18.5c0 .6.5 1.2 1.1 1.2h5.4c.6 0 1.1-.5 1.1-1.2v-18.5c.1-.7-.5-1.2-1.1-1.2M55.2 408.2h-9.4c-.6 0-1.1.5-1.1 1.2v18.5c0 .6.5 1.2 1.1 1.2h9.4c.6 0 1.1-.5 1.1-1.2v-18.5c0-.7-.5-1.2-1.1-1.2M69.7 408.2h-9.4c-.6 0-1.1.5-1.1 1.2v18.5c0 .6.5 1.2 1.1 1.2h9.4c.6 0 1.1-.5 1.1-1.2v-18.5c.1-.7-.5-1.2-1.1-1.2M104.5 408.2h-9.4c-.6 0-1.1.5-1.1 1.2v18.5c0 .6.5 1.2 1.1 1.2h9.4c.6 0 1.1-.5 1.1-1.2v-18.5c0-.7-.5-1.2-1.1-1.2M119.2 408.2h-9.4c-.6 0-1.1.5-1.1 1.2v18.5c0 .6.5 1.2 1.1 1.2h9.4c.6 0 1.1-.5 1.1-1.2v-18.5c0-.7-.5-1.2-1.1-1.2M159.3 408.2h-5.4c-.6 0-1.1.5-1.1 1.2v18.5c0 .6.5 1.2 1.1 1.2h5.4c.6 0 1.1-.5 1.1-1.2v-18.5c0-.7-.5-1.2-1.1-1.2M170 408.2h-5.4c-.6 0-1.1.5-1.1 1.2v18.5c0 .6.5 1.2 1.1 1.2h5.4c.6 0 1.1-.5 1.1-1.2v-18.5c0-.7-.5-1.2-1.1-1.2M134.5 408.2H125c-.6 0-1.1.5-1.1 1.2v18.5c0 .6.5 1.2 1.1 1.2h9.4c.6 0 1.1-.5 1.1-1.2v-18.5c.1-.7-.4-1.2-1-1.2M149 408.2h-9.4c-.6 0-1.1.5-1.1 1.2v18.5c0 .6.5 1.2 1.1 1.2h9.4c.6 0 1.1-.5 1.1-1.2v-18.5c0-.7-.5-1.2-1.1-1.2M183.8 408.2h-9.4c-.6 0-1.1.5-1.1 1.2v18.5c0 .6.5 1.2 1.1 1.2h9.4c.6 0 1.1-.5 1.1-1.2v-18.5c0-.7-.5-1.2-1.1-1.2M198.5 408.2h-9.4c-.6 0-1.1.5-1.1 1.2v18.5c0 .6.5 1.2 1.1 1.2h9.4c.6 0 1.1-.5 1.1-1.2v-18.5c0-.7-.5-1.2-1.1-1.2"/><path fill="#FCFCFC" d="M-86.7 108.5h299.1v6.9H-86.7M267.5 108.5H486v6.9H267.5M267.5 60.3h251.3v6.9H267.5M-41.9 60.3h254.3v6.9H-41.9"/><path fill="#E5E5E5" d="M315.6 78.2h-5.4c-.6 0-1.1.5-1.1 1.2v18.5c0 .6.5 1.2 1.1 1.2h5.4c.6 0 1.1-.5 1.1-1.2V79.3c0-.6-.5-1.1-1.1-1.1M326.3 78.2H321c-.6 0-1.1.5-1.1 1.2v18.5c0 .6.5 1.2 1.1 1.2h5.4c.6 0 1.1-.5 1.1-1.2V79.3c-.1-.6-.6-1.1-1.2-1.1M290.8 78.2h-9.4c-.6 0-1.1.5-1.1 1.2v18.5c0 .6.5 1.2 1.1 1.2h9.4c.6 0 1.1-.5 1.1-1.2V79.3c0-.6-.5-1.1-1.1-1.1M305.3 78.2h-9.4c-.6 0-1.1.5-1.1 1.2v18.5c0 .6.5 1.2 1.1 1.2h9.4c.6 0 1.1-.5 1.1-1.2V79.3c0-.6-.5-1.1-1.1-1.1M340.1 78.2h-9.4c-.6 0-1.1.5-1.1 1.2v18.5c0 .6.5 1.2 1.1 1.2h9.4c.6 0 1.1-.5 1.1-1.2V79.3c0-.6-.5-1.1-1.1-1.1M354.8 78.2h-9.4c-.6 0-1.1.5-1.1 1.2v18.5c0 .6.5 1.2 1.1 1.2h9.4c.6 0 1.1-.5 1.1-1.2V79.3c0-.6-.5-1.1-1.1-1.1M394.9 78.2h-5.4c-.6 0-1.1.5-1.1 1.2v18.5c0 .6.5 1.2 1.1 1.2h5.4c.6 0 1.1-.5 1.1-1.2V79.3c0-.6-.5-1.1-1.1-1.1M405.6 78.2h-5.4c-.6 0-1.1.5-1.1 1.2v18.5c0 .6.5 1.2 1.1 1.2h5.4c.6 0 1.1-.5 1.1-1.2V79.3c0-.6-.5-1.1-1.1-1.1M370.1 78.2h-9.4c-.6 0-1.1.5-1.1 1.2v18.5c0 .6.5 1.2 1.1 1.2h9.4c.6 0 1.1-.5 1.1-1.2V79.3c0-.6-.5-1.1-1.1-1.1M384.6 78.2h-9.4c-.6 0-1.1.5-1.1 1.2v18.5c0 .6.5 1.2 1.1 1.2h9.4c.6 0 1.1-.5 1.1-1.2V79.3c0-.6-.5-1.1-1.1-1.1M419.4 78.2H410c-.6 0-1.1.5-1.1 1.2v18.5c0 .6.5 1.2 1.1 1.2h9.4c.6 0 1.1-.5 1.1-1.2V79.3c0-.6-.5-1.1-1.1-1.1M434.1 78.2h-9.4c-.6 0-1.1.5-1.1 1.2v18.5c0 .6.5 1.2 1.1 1.2h9.4c.6 0 1.1-.5 1.1-1.2V79.3c0-.6-.5-1.1-1.1-1.1M80 78.2h-5.4c-.6 0-1.1.5-1.1 1.2v18.5c0 .6.5 1.2 1.1 1.2H80c.6 0 1.1-.5 1.1-1.2V79.3c.1-.6-.5-1.1-1.1-1.1M90.7 78.2h-5.4c-.6 0-1.1.5-1.1 1.2v18.5c0 .6.5 1.2 1.1 1.2h5.4c.6 0 1.1-.5 1.1-1.2V79.3c.1-.6-.5-1.1-1.1-1.1M55.2 78.2h-9.4c-.6 0-1.1.5-1.1 1.2v18.5c0 .6.5 1.2 1.1 1.2h9.4c.6 0 1.1-.5 1.1-1.2V79.3c0-.6-.5-1.1-1.1-1.1M69.7 78.2h-9.4c-.6 0-1.1.5-1.1 1.2v18.5c0 .6.5 1.2 1.1 1.2h9.4c.6 0 1.1-.5 1.1-1.2V79.3c.1-.6-.5-1.1-1.1-1.1M104.5 78.2h-9.4c-.6 0-1.1.5-1.1 1.2v18.5c0 .6.5 1.2 1.1 1.2h9.4c.6 0 1.1-.5 1.1-1.2V79.3c0-.6-.5-1.1-1.1-1.1M119.2 78.2h-9.4c-.6 0-1.1.5-1.1 1.2v18.5c0 .6.5 1.2 1.1 1.2h9.4c.6 0 1.1-.5 1.1-1.2V79.3c0-.6-.5-1.1-1.1-1.1M159.3 78.2h-5.4c-.6 0-1.1.5-1.1 1.2v18.5c0 .6.5 1.2 1.1 1.2h5.4c.6 0 1.1-.5 1.1-1.2V79.3c0-.6-.5-1.1-1.1-1.1M170 78.2h-5.4c-.6 0-1.1.5-1.1 1.2v18.5c0 .6.5 1.2 1.1 1.2h5.4c.6 0 1.1-.5 1.1-1.2V79.3c0-.6-.5-1.1-1.1-1.1M134.5 78.2H125c-.6 0-1.1.5-1.1 1.2v18.5c0 .6.5 1.2 1.1 1.2h9.4c.6 0 1.1-.5 1.1-1.2V79.3c.1-.6-.4-1.1-1-1.1M149 78.2h-9.4c-.6 0-1.1.5-1.1 1.2v18.5c0 .6.5 1.2 1.1 1.2h9.4c.6 0 1.1-.5 1.1-1.2V79.3c0-.6-.5-1.1-1.1-1.1M183.8 78.2h-9.4c-.6 0-1.1.5-1.1 1.2v18.5c0 .6.5 1.2 1.1 1.2h9.4c.6 0 1.1-.5 1.1-1.2V79.3c0-.6-.5-1.1-1.1-1.1M198.5 78.2h-9.4c-.6 0-1.1.5-1.1 1.2v18.5c0 .6.5 1.2 1.1 1.2h9.4c.6 0 1.1-.5 1.1-1.2V79.3c0-.6-.5-1.1-1.1-1.1"/><path fill="#FCFCFC" d="M201.3 212.5h76.2v76.2h-76.2z"/><ellipse fill="#9ACFE2" cx="239.8" cy="251.5" rx="21.5" ry="22"/><circle fill="none" cx="241.5" cy="254.9" r="213.5"/><path fill="#A1ABD0" d="M57.6 395.7H216c.7 0 1.2-.5 1.2-1.2s-.5-1.2-1.2-1.2H57.6c-.7 0-1.2.5-1.2 1.2s.5 1.2 1.2 1.2"/><path fill="#A1ABD0" d="M83.9 390.4l5 5c.5.5 1.2.5 1.7 0s.5-1.2 0-1.7l-5-5c-.5-.5-1.2-.5-1.7 0-.4.5-.4 1.2 0 1.7"/><path fill="#A1ABD0" d="M88.9 393.7l-5 5c-.5.5-.5 1.2 0 1.7s1.2.5 1.7 0l5-5c.5-.5.5-1.2 0-1.7s-1.2-.5-1.7 0M124.2 390.4l5 5c.5.5 1.2.5 1.7 0s.5-1.2 0-1.7l-5-5c-.5-.5-1.2-.5-1.7 0s-.5 1.2 0 1.7"/><path fill="#A1ABD0" d="M129.1 393.7l-5 5c-.5.5-.5 1.2 0 1.7s1.2.5 1.7 0l5-5c.5-.5.5-1.2 0-1.7s-1.2-.5-1.7 0M164.4 390.4l5 5c.5.5 1.2.5 1.7 0s.5-1.2 0-1.7l-5-5c-.5-.5-1.2-.5-1.7 0s-.5 1.2 0 1.7"/><path fill="#A1ABD0" d="M169.3 393.7l-5 5c-.5.5-.5 1.2 0 1.7s1.2.5 1.7 0l5-5c.5-.5.5-1.2 0-1.7s-1.2-.5-1.7 0M269.3 395.7h158.5c.7 0 1.2-.5 1.2-1.2s-.5-1.2-1.2-1.2H269.3c-.7 0-1.2.5-1.2 1.2s.5 1.2 1.2 1.2"/><path fill="#A1ABD0" d="M295.6 390.4l5 5c.5.5 1.2.5 1.7 0s.5-1.2 0-1.7l-5-5c-.5-.5-1.2-.5-1.7 0s-.5 1.2 0 1.7"/><path fill="#A1ABD0" d="M300.6 393.7l-5 5c-.5.5-.5 1.2 0 1.7s1.2.5 1.7 0l5-5c.5-.5.5-1.2 0-1.7s-1.3-.5-1.7 0M335.8 390.4l5 5c.5.5 1.2.5 1.7 0s.5-1.2 0-1.7l-5-5c-.5-.5-1.2-.5-1.7 0s-.4 1.2 0 1.7"/><path fill="#A1ABD0" d="M340.8 393.7l-5 5c-.5.5-.5 1.2 0 1.7s1.2.5 1.7 0l5-5c.5-.5.5-1.2 0-1.7s-1.3-.5-1.7 0M376 390.4l5 5c.5.5 1.2.5 1.7 0s.5-1.2 0-1.7l-5-5c-.5-.5-1.2-.5-1.7 0s-.4 1.2 0 1.7"/><path fill="#A1ABD0" d="M381 393.7l-5 5c-.5.5-.5 1.2 0 1.7s1.2.5 1.7 0l5-5c.5-.5.5-1.2 0-1.7s-1.3-.5-1.7 0M426.5 113.1H268.1c-.7 0-1.2.5-1.2 1.2s.5 1.2 1.2 1.2h158.5c.7 0 1.2-.5 1.2-1.2-.1-.6-.6-1.2-1.3-1.2"/><path fill="#A1ABD0" d="M400.2 118.4l-5-5c-.5-.5-1.2-.5-1.7 0s-.5 1.2 0 1.7l5 5c.5.5 1.2.5 1.7 0s.4-1.2 0-1.7"/><path fill="#A1ABD0" d="M395.2 115.1l5-5c.5-.5.5-1.2 0-1.7s-1.2-.5-1.7 0l-5 5c-.5.5-.5 1.2 0 1.7s1.2.5 1.7 0M360 118.4l-5-5c-.5-.5-1.2-.5-1.7 0s-.5 1.2 0 1.7l5 5c.5.5 1.2.5 1.7 0s.4-1.2 0-1.7"/><path fill="#A1ABD0" d="M355 115.1l5-5c.5-.5.5-1.2 0-1.7s-1.2-.5-1.7 0l-5 5c-.5.5-.5 1.2 0 1.7s1.2.5 1.7 0M319.8 118.4l-5-5c-.5-.5-1.2-.5-1.7 0s-.5 1.2 0 1.7l5 5c.5.5 1.2.5 1.7 0s.4-1.2 0-1.7"/><path fill="#A1ABD0" d="M314.8 115.1l5-5c.5-.5.5-1.2 0-1.7s-1.2-.5-1.7 0l-5 5c-.5.5-.5 1.2 0 1.7s1.2.5 1.7 0M214.9 113.1H56.4c-.7 0-1.2.5-1.2 1.2s.5 1.2 1.2 1.2h158.5c.7 0 1.2-.5 1.2-1.2-.1-.6-.6-1.2-1.2-1.2"/><path fill="#A1ABD0" d="M188.5 118.4l-5-5c-.5-.5-1.2-.5-1.7 0s-.5 1.2 0 1.7l5 5c.5.5 1.2.5 1.7 0s.5-1.2 0-1.7"/><path fill="#A1ABD0" d="M183.5 115.1l5-5c.5-.5.5-1.2 0-1.7s-1.2-.5-1.7 0l-5 5c-.5.5-.5 1.2 0 1.7s1.3.5 1.7 0M148.3 118.4l-5-5c-.5-.5-1.2-.5-1.7 0s-.5 1.2 0 1.7l5 5c.5.5 1.2.5 1.7 0s.5-1.2 0-1.7"/><path fill="#A1ABD0" d="M143.3 115.1l5-5c.5-.5.5-1.2 0-1.7s-1.2-.5-1.7 0l-5 5c-.5.5-.5 1.2 0 1.7s1.3.5 1.7 0M108.1 118.4l-5-5c-.5-.5-1.2-.5-1.7 0s-.5 1.2 0 1.7l5 5c.5.5 1.2.5 1.7 0 .4-.5.4-1.2 0-1.7"/><path fill="#A1ABD0" d="M103.1 115.1l5-5c.5-.5.5-1.2 0-1.7s-1.2-.5-1.7 0l-5 5c-.5.5-.5 1.2 0 1.7s1.3.5 1.7 0"/><path fill="#FFB8C7" d="M267.6 251.8c0 1.5-.1 2.9-.3 4.3-.1.9.5 1.7 1.3 1.8.9.1 1.7-.5 1.8-1.3.2-1.6.4-3.2.4-4.8 0-.9-.7-1.6-1.6-1.6-.8 0-1.6.7-1.6 1.6zm-1.8-10c.5 1.3.9 2.7 1.2 4.2.2.9 1 1.4 1.9 1.2.9-.2 1.4-1 1.2-1.9-.3-1.6-.8-3.1-1.3-4.6-.3-.8-1.2-1.3-2.1-.9-.7.3-1.2 1.2-.9 2zm-6.4-9.9c1 1 2 2.1 2.8 3.3.5.7 1.5.9 2.2.4.7-.5.9-1.5.4-2.2-1-1.3-2-2.5-3.1-3.7-.6-.6-1.6-.6-2.3 0-.6.5-.6 1.5 0 2.2zm-9.9-6.5c1.4.5 2.7 1.1 3.9 1.9.8.4 1.8.2 2.2-.6.4-.8.2-1.8-.6-2.2-1.4-.8-2.9-1.5-4.4-2.1-.8-.3-1.8.1-2.1.9-.3.8.1 1.8 1 2.1zm-11.8-1.8h1.6c.9 0 1.8 0 2.7.1.9.1 1.7-.6 1.8-1.4.1-.9-.6-1.7-1.4-1.8-1-.1-2-.1-3-.1-.6 0-1.2 0-1.8.1-.9.1-1.6.8-1.5 1.7 0 .7.8 1.4 1.6 1.4zm-11.4 3.1c1.3-.7 2.6-1.2 4-1.7.8-.3 1.3-1.2 1-2-.3-.8-1.2-1.3-2-1-1.5.5-3 1.2-4.4 1.9-.8.4-1.1 1.4-.7 2.2.4.7 1.3 1 2.1.6zm-9.1 7.6c.9-1.1 1.9-2.2 2.9-3.2.6-.6.7-1.6.1-2.3-.6-.6-1.6-.7-2.3-.1-1.2 1.1-2.3 2.3-3.3 3.6-.5.7-.4 1.7.3 2.3.7.5 1.7.4 2.3-.3zM212 245c.4-1.4.8-2.8 1.4-4.1.3-.8 0-1.8-.9-2.1-.8-.3-1.8 0-2.1.9-.6 1.5-1.1 3-1.5 4.6-.2.9.3 1.7 1.2 1.9.8.2 1.7-.4 1.9-1.2zm-.4 11.8c-.3-1.4-.4-2.8-.4-4.3 0-.9-.8-1.6-1.6-1.6-.9 0-1.6.8-1.6 1.6 0 1.6.2 3.2.5 4.8.2.9 1 1.5 1.9 1.3.8-.1 1.4-.9 1.2-1.8zm4.5 11c-.8-1.2-1.6-2.4-2.2-3.8-.4-.8-1.3-1.1-2.1-.7-.8.4-1.1 1.3-.7 2.1.7 1.5 1.5 2.9 2.4 4.2.5.7 1.5.9 2.2.4.7-.5.9-1.5.4-2.2zm8.7 8.1c-1.2-.8-2.4-1.6-3.5-2.5-.7-.6-1.7-.5-2.3.2-.6.7-.5 1.7.2 2.3 1.2 1 2.5 2 3.9 2.8.8.5 1.7.2 2.2-.5.5-.8.2-1.8-.5-2.3zm11.2 3.9c-1.5-.2-2.9-.5-4.3-.9-.9-.2-1.7.3-2 1.1-.2.9.3 1.7 1.1 2 1.5.4 3.1.8 4.7.9.9.1 1.7-.5 1.8-1.4.2-.8-.5-1.6-1.3-1.7zm11.8-1c-1.4.4-2.8.7-4.2 1-.9.1-1.5.9-1.4 1.8.1.9.9 1.5 1.8 1.4 1.6-.2 3.2-.6 4.7-1.1.8-.3 1.3-1.2 1.1-2-.3-.9-1.2-1.4-2-1.1zm10.3-5.9c-1.1 1-2.2 1.8-3.5 2.6-.7.5-1 1.5-.5 2.2.5.7 1.5 1 2.2.5 1.4-.9 2.6-1.9 3.9-2.9.7-.6.7-1.6.1-2.3-.5-.6-1.5-.7-2.2-.1zm7.1-9.5c-.6 1.3-1.3 2.6-2.1 3.8-.5.7-.3 1.7.5 2.2.7.5 1.7.3 2.2-.5.9-1.3 1.7-2.8 2.3-4.2.4-.8 0-1.8-.8-2.1-.8-.4-1.8 0-2.1.8zM360.3 330.9c.5 1.6 1.2 3.2 2.2 4.6.5.7 1.5.9 2.2.4.7-.5.9-1.5.4-2.2-.8-1.1-1.3-2.3-1.7-3.7-.3-.8-1.2-1.3-2-1.1-.9.3-1.4 1.2-1.1 2zm-3.2-11.9c.6 1.2 1 2.5 1.4 4 .2.9 1.1 1.4 1.9 1.2.9-.2 1.4-1.1 1.2-1.9-.4-1.6-.9-3.2-1.7-4.7-.4-.8-1.4-1.1-2.2-.7-.7.4-1.1 1.3-.6 2.1zm-8.9-4.9h.7c1 0 2 .2 3.1.6.8.3 1.8-.1 2.1-.9.3-.8-.1-1.8-.9-2.1-1.5-.5-2.9-.8-4.3-.8h-1c-.9.1-1.5.8-1.5 1.7.1.9.9 1.6 1.8 1.5zm-11 4.7c1.4-.7 2.8-1.5 4.1-2.2.8-.4 1.1-1.4.6-2.2-.4-.8-1.4-1.1-2.2-.6-1.4.7-2.7 1.5-4 2.1-.8.4-1.1 1.4-.7 2.2.5.8 1.4 1.1 2.2.7zm-13.5.3c.3.2.7.4 1 .5 1.3.6 2.7 1 3.9 1.1.9.1 1.7-.5 1.8-1.4.1-.9-.5-1.7-1.4-1.8-.9-.1-1.9-.4-2.9-.8-.3-.1-.5-.3-.8-.4-.8-.4-1.8-.2-2.2.6-.5.8-.2 1.7.6 2.2zm-6.9-11.6c.3 1.6.7 3.1 1.2 4.7.3.8 1.2 1.3 2.1 1 .8-.3 1.3-1.2 1-2.1-.5-1.3-.8-2.7-1.1-4.2-.2-.9-1-1.4-1.9-1.3-.9.1-1.5 1-1.3 1.9zm-4.1-10.7c1 .9 1.6 2 2.2 3.2.4.8 1.3 1.2 2.1.8.8-.4 1.2-1.3.8-2.1-.7-1.5-1.6-3-2.9-4.3-.6-.6-1.7-.6-2.3.1-.6.6-.6 1.7.1 2.3zm-10.1-1.9c1.3-.5 2.5-.7 3.7-.7h.2c.9 0 1.6-.7 1.6-1.6 0-.9-.7-1.6-1.6-1.6h-.2c-1.7 0-3.3.4-4.8.9-.8.3-1.3 1.2-1 2.1.3.8 1.3 1.2 2.1.9zm-11.5 5.5c1.6-.5 3.1-1.2 4.5-1.9.8-.4 1.1-1.4.7-2.2-.4-.8-1.4-1.1-2.2-.7-1.3.7-2.6 1.3-3.9 1.7-.9.3-1.3 1.1-1.1 2 .2.8 1.1 1.3 2 1.1zm-13.2-3.7c1.1 1.2 2.4 2.3 4.2 3.1.8.4 1.8 0 2.1-.8.4-.8 0-1.8-.8-2.1-1.3-.6-2.3-1.4-3.1-2.3-.6-.7-1.6-.7-2.3-.2-.6.6-.6 1.6-.1 2.3zm-4.4-12.5c.3 1.4.6 3 .9 4.5.2.9 1 1.4 1.9 1.2.9-.2 1.4-1 1.2-1.9-.3-1.4-.6-3-.9-4.5-.2-.9-1-1.4-1.9-1.2-.8.1-1.4 1-1.2 1.9zm-5.9-9c1.4.6 2.3 1.4 3.1 2.3.6.7 1.6.8 2.3.2.7-.6.8-1.6.2-2.3-1.1-1.2-2.4-2.3-4.2-3.1-.8-.4-1.8 0-2.1.8-.5.8-.1 1.8.7 2.1zM209.6 224.9c.8 1.5 1.9 2.9 3.4 4 .7.5 1.7.4 2.2-.3.5-.7.4-1.7-.3-2.2-1.1-.8-1.8-1.8-2.5-2.9-.4-.8-1.4-1.1-2.2-.7-.7.3-1 1.3-.6 2.1zm-3.5-12.4c.4 1.3.8 2.8 1.1 4.3.2.9 1 1.4 1.9 1.2.9-.2 1.4-1 1.2-1.9-.3-1.5-.7-3.1-1.2-4.6-.3-.8-1.2-1.3-2-1-.8.3-1.3 1.2-1 2zm-7.7-6.7c.8.1 1.6.3 2.5.7.4.2.8.4 1.1.6.8.5 1.7.2 2.2-.5.5-.8.2-1.7-.5-2.2-.5-.3-1-.5-1.5-.8-1.2-.5-2.3-.8-3.4-.9-.9-.1-1.7.5-1.8 1.4-.1.9.6 1.6 1.4 1.7zm-10.6 4.1c1.3-.8 2.6-1.6 3.9-2.3.8-.4 1.1-1.4.7-2.2-.4-.8-1.4-1.1-2.2-.7-1.4.8-2.7 1.6-4 2.4-.8.5-1 1.4-.5 2.2.4.8 1.4 1.1 2.1.6zm-13.2 2.7c1.3.5 2.6.7 3.8.7.5 0 1 0 1.4-.1.9-.1 1.5-.9 1.4-1.8-.1-.9-.9-1.5-1.8-1.4-.3 0-.7.1-1 .1-.9 0-1.8-.1-2.7-.5-.8-.3-1.8.1-2 1-.4.8 0 1.7.9 2zm-8.5-10.6c.4 1.6.9 3.2 1.6 4.7.4.8 1.4 1.1 2.2.7.8-.4 1.1-1.4.7-2.2-.6-1.2-1-2.5-1.4-4-.2-.9-1.1-1.4-1.9-1.2-.8.3-1.4 1.2-1.2 2zm-3.7-11.2c.8 1 1.4 2.2 1.9 3.5.3.8 1.2 1.3 2 1 .8-.3 1.3-1.2 1-2-.6-1.6-1.3-3.1-2.4-4.5-.6-.7-1.6-.8-2.3-.2-.7.5-.8 1.5-.2 2.2zm-9.7-2.5c1-.4 2.1-.6 3.1-.6h.7c.9.1 1.7-.6 1.8-1.5.1-.9-.6-1.7-1.5-1.8h-1c-1.5 0-2.9.3-4.2.7-.8.3-1.3 1.2-1 2 .3 1 1.3 1.5 2.1 1.2zm-11.1 5.9c1.5-.6 2.9-1.4 4.3-2.2.8-.5 1-1.4.6-2.2-.5-.8-1.4-1-2.2-.6-1.3.8-2.6 1.5-3.8 2-.8.3-1.2 1.3-.9 2.1.3.8 1.2 1.2 2 .9zm-13.4-2.5c1 1 2.2 1.9 3.7 2.5.2.1.5.2.7.3.8.3 1.8-.1 2.1-1 .3-.8-.1-1.8-1-2.1-.2-.1-.3-.1-.5-.2-1.2-.5-2-1.1-2.7-1.8-.6-.6-1.6-.6-2.3 0-.6.6-.6 1.7 0 2.3zm-4.8-12.4c.3 1.4.6 3 1 4.5.2.9 1.1 1.4 1.9 1.2.9-.2 1.4-1.1 1.2-1.9-.3-1.4-.6-2.9-1-4.5-.2-.9-1.1-1.4-1.9-1.2-.9.2-1.4 1-1.2 1.9zm-5.9-8.9c1.4.6 2.3 1.3 3.1 2.2.6.7 1.6.7 2.3.2.7-.6.7-1.6.2-2.3-1.1-1.2-2.5-2.3-4.3-3.1-.8-.4-1.8 0-2.1.8-.4.9-.1 1.9.8 2.2z"/><path fill="#4B5E7F" d="M335.8 260.9h-1.2v3.6h-2.4v-2.4h3.6v-1.2h-1.2 1.2v-1.2H331c-.3 0-.6.1-.8.3-.2.2-.3.5-.3.8v4.8c0 .3.1.6.3.8.2.2.5.3.8.3h4.8c.3 0 .6-.1.8-.3.2-.2.3-.5.3-.8v-4.8c0-.3-.1-.6-.3-.8-.2-.2-.5-.3-.8-.3v1.2zM335.8 240v-1.2h-3.6v-2.4h2.4v3.6h1.2v-1.2 1.2h1.2v-4.8c0-.3-.1-.6-.3-.8-.2-.2-.5-.3-.8-.3H331c-.3 0-.6.1-.8.3-.2.2-.3.5-.3.8v4.8c0 .3.1.6.3.8.2.2.5.3.8.3h4.8c.3 0 .6-.1.8-.3.2-.2.3-.5.3-.8h-1.1zM291.6 260.4h-1.2v3.6H288v-2.4h3.6v-1.2h-1.2 1.2v-1.2h-4.8c-.3 0-.6.1-.8.3-.2.2-.3.5-.3.8v4.8c0 .3.1.6.3.8.2.2.5.3.8.3h4.8c.3 0 .6-.1.8-.3.2-.2.3-.5.3-.8v-4.8c0-.3-.1-.6-.3-.8-.2-.2-.5-.3-.8-.3v1.2zM291.6 240v-1.2H288v-2.4h2.4v3.6h1.2v-1.2 1.2h1.2v-4.8c0-.3-.1-.6-.3-.8-.2-.2-.5-.3-.8-.3h-4.8c-.3 0-.6.1-.8.3-.2.2-.3.5-.3.8v4.8c0 .3.1.6.3.8.2.2.5.3.8.3h4.8c.3 0 .6-.1.8-.3.2-.2.3-.5.3-.8h-1.2z"/><path fill="#A1ABD0" d="M269.3 217.2V216h-3.6v-2.4h2.4v3.6h1.2V216v1.2h1.2v-4.8c0-.3-.1-.6-.3-.8-.2-.2-.5-.3-.8-.3h-4.8c-.3 0-.6.1-.8.3-.2.2-.3.5-.3.8v4.8c0 .3.1.6.3.8.2.2.5.3.8.3h4.8c.3 0 .6-.1.8-.3.2-.2.3-.5.3-.8h-1.2zM217.2 217.2V216h-3.6v-2.4h2.4v3.6h1.2V216v1.2h1.2v-4.8c0-.3-.1-.6-.3-.8-.2-.2-.5-.3-.8-.3h-4.8c-.3 0-.6.1-.8.3-.2.2-.3.5-.3.8v4.8c0 .3.1.6.3.8.2.2.5.3.8.3h4.8c.3 0 .6-.1.8-.3.2-.2.3-.5.3-.8h-1.2zM269.3 292.9v-1.2h-3.6v-2.4h2.4v3.6h1.2v-1.2 1.2h1.2v-4.8c0-.3-.1-.6-.3-.8-.2-.2-.5-.3-.8-.3h-4.8c-.3 0-.6.1-.8.3-.2.2-.3.5-.3.8v4.8c0 .3.1.6.3.8.2.2.5.3.8.3h4.8c.3 0 .6-.1.8-.3.2-.2.3-.5.3-.8h-1.2zM217.2 292.9v-1.2h-3.6v-2.4h2.4v3.6h1.2v-1.2 1.2h1.2v-4.8c0-.3-.1-.6-.3-.8-.2-.2-.5-.3-.8-.3h-4.8c-.3 0-.6.1-.8.3-.2.2-.3.5-.3.8v4.8c0 .3.1.6.3.8.2.2.5.3.8.3h4.8c.3 0 .6-.1.8-.3.2-.2.3-.5.3-.8h-1.2z"/><path fill="#4B5E7F" d="M328.4 239.7h1.2c.7 0 1.2-.5 1.2-1.2s-.5-1.2-1.2-1.2h-1.2c-.7 0-1.2.5-1.2 1.2 0 .6.5 1.2 1.2 1.2zm-5.9 0h1.2c.7 0 1.2-.5 1.2-1.2s-.5-1.2-1.2-1.2h-1.2c-.7 0-1.2.5-1.2 1.2 0 .6.5 1.2 1.2 1.2zm-6 0h1.2c.7 0 1.2-.5 1.2-1.2s-.5-1.2-1.2-1.2h-1.2c-.7 0-1.2.5-1.2 1.2.1.6.6 1.2 1.2 1.2zm-5.9 0h1.2c.7 0 1.2-.5 1.2-1.2s-.5-1.2-1.2-1.2h-1.2c-.7 0-1.2.5-1.2 1.2.1.6.6 1.2 1.2 1.2zm-5.9 0h1.2c.7 0 1.2-.5 1.2-1.2s-.5-1.2-1.2-1.2h-1.2c-.7 0-1.2.5-1.2 1.2 0 .6.6 1.2 1.2 1.2zm-5.9 0h1.2c.7 0 1.2-.5 1.2-1.2s-.5-1.2-1.2-1.2h-1.2c-.7 0-1.2.5-1.2 1.2 0 .6.6 1.2 1.2 1.2zm-5.9 0h1.2c.7 0 1.2-.5 1.2-1.2s-.5-1.2-1.2-1.2h-1.2c-.7 0-1.2.5-1.2 1.2 0 .6.5 1.2 1.2 1.2zM328.4 264.5h1.2c.7 0 1.2-.5 1.2-1.2s-.5-1.2-1.2-1.2h-1.2c-.7 0-1.2.5-1.2 1.2s.5 1.2 1.2 1.2zm-5.9 0h1.2c.7 0 1.2-.5 1.2-1.2s-.5-1.2-1.2-1.2h-1.2c-.7 0-1.2.5-1.2 1.2s.5 1.2 1.2 1.2zm-6 0h1.2c.7 0 1.2-.5 1.2-1.2s-.5-1.2-1.2-1.2h-1.2c-.7 0-1.2.5-1.2 1.2.1.7.6 1.2 1.2 1.2zm-5.9 0h1.2c.7 0 1.2-.5 1.2-1.2s-.5-1.2-1.2-1.2h-1.2c-.7 0-1.2.5-1.2 1.2.1.7.6 1.2 1.2 1.2zm-5.9 0h1.2c.7 0 1.2-.5 1.2-1.2s-.5-1.2-1.2-1.2h-1.2c-.7 0-1.2.5-1.2 1.2s.6 1.2 1.2 1.2zm-5.9 0h1.2c.7 0 1.2-.5 1.2-1.2s-.5-1.2-1.2-1.2h-1.2c-.7 0-1.2.5-1.2 1.2s.6 1.2 1.2 1.2zm-5.9 0h1.2c.7 0 1.2-.5 1.2-1.2s-.5-1.2-1.2-1.2h-1.2c-.7 0-1.2.5-1.2 1.2s.5 1.2 1.2 1.2zM288.2 258.6v1.2c0 .7.5 1.2 1.2 1.2s1.2-.5 1.2-1.2v-1.2c0-.7-.5-1.2-1.2-1.2s-1.2.5-1.2 1.2zm0-5.9v1.2c0 .7.5 1.2 1.2 1.2s1.2-.5 1.2-1.2v-1.2c0-.7-.5-1.2-1.2-1.2s-1.2.5-1.2 1.2zm0-5.9v1.2c0 .7.5 1.2 1.2 1.2s1.2-.5 1.2-1.2v-1.2c0-.7-.5-1.2-1.2-1.2s-1.2.5-1.2 1.2zm0-6v1.2c0 .7.5 1.2 1.2 1.2s1.2-.5 1.2-1.2v-1.2c0-.7-.5-1.2-1.2-1.2-.7.1-1.2.6-1.2 1.2zM331.9 258.6v1.2c0 .7.5 1.2 1.2 1.2s1.2-.5 1.2-1.2v-1.2c0-.7-.5-1.2-1.2-1.2-.6 0-1.2.5-1.2 1.2zm0-5.9v1.2c0 .7.5 1.2 1.2 1.2s1.2-.5 1.2-1.2v-1.2c0-.7-.5-1.2-1.2-1.2-.6 0-1.2.5-1.2 1.2zm0-5.9v1.2c0 .7.5 1.2 1.2 1.2s1.2-.5 1.2-1.2v-1.2c0-.7-.5-1.2-1.2-1.2-.6 0-1.2.5-1.2 1.2zm0-6v1.2c0 .7.5 1.2 1.2 1.2s1.2-.5 1.2-1.2v-1.2c0-.7-.5-1.2-1.2-1.2-.6.1-1.2.6-1.2 1.2zM246.9 249.3c.3-.1.7-.1 1.1-.2.6-.1 1.1-.7 1-1.3-.1-.6-.7-1.1-1.3-1-.4.1-.9.1-1.3.2-.6.2-1 .8-.9 1.4.2.6.8 1 1.4.9zm-4.4 2.5l.7-.7c.5-.4.6-1.2.1-1.7-.4-.5-1.2-.6-1.7-.1-.4.3-.7.6-1 .9-.4.5-.4 1.2.1 1.7.6.5 1.4.4 1.8-.1zm-1.9 4.6s0-.4.1-1-.3-1.3-.9-1.4c-.6-.1-1.3.3-1.4.9-.2.8-.2 1.3-.2 1.4 0 .7.5 1.2 1.2 1.2.6.1 1.2-.4 1.2-1.1z"/><path fill="#4B5E7F" d="M232.7 247c-.4-.1-.8-.2-1.3-.2-.6-.1-1.2.3-1.3 1-.1.6.3 1.2 1 1.3.4.1.7.1 1.1.2.6.2 1.3-.2 1.4-.9.1-.6-.3-1.3-.9-1.4zm5.6 3.3c-.3-.3-.6-.6-1-.9-.5-.4-1.2-.4-1.7.1-.4.5-.4 1.2.1 1.7.3.2.5.5.7.7.4.5 1.2.5 1.7.1.6-.5.7-1.3.2-1.7zm2.6 6.1c0-.1 0-.6-.2-1.4-.1-.6-.8-1-1.4-.9-.6.1-1 .8-.9 1.4.1.3.1.6.1.7v.2c0 .7.6 1.2 1.2 1.2.7 0 1.2-.6 1.2-1.2z"/><path fill="#A1ABD0" d="M38.7 225.5H203c.7 0 1.2-.5 1.2-1.2s-.5-1.2-1.2-1.2H38.7c-.7 0-1.2.5-1.2 1.2 0 .6.5 1.2 1.2 1.2M38.7 278.7H203c.7 0 1.2-.5 1.2-1.2s-.5-1.2-1.2-1.2H38.7c-.7 0-1.2.5-1.2 1.2 0 .6.5 1.2 1.2 1.2M277.5 225.5h164.4c.7 0 1.2-.5 1.2-1.2s-.5-1.2-1.2-1.2H277.5c-.7 0-1.2.5-1.2 1.2 0 .6.6 1.2 1.2 1.2M277.5 278.7h164.4c.7 0 1.2-.5 1.2-1.2s-.5-1.2-1.2-1.2H277.5c-.7 0-1.2.5-1.2 1.2 0 .6.6 1.2 1.2 1.2"/><path fill="#A1ABD0" d="M102.5 273.9v7.1c0 .7.5 1.2 1.2 1.2s1.2-.5 1.2-1.2v-7.1c0-.7-.5-1.2-1.2-1.2-.7.1-1.2.6-1.2 1.2M133.3 273.9v7.1c0 .7.5 1.2 1.2 1.2s1.2-.5 1.2-1.2v-7.1c0-.7-.5-1.2-1.2-1.2-.7.1-1.2.6-1.2 1.2M164 273.9v7.1c0 .7.5 1.2 1.2 1.2s1.2-.5 1.2-1.2v-7.1c0-.7-.5-1.2-1.2-1.2-.7.1-1.2.6-1.2 1.2M102.5 220.7v7.1c0 .7.5 1.2 1.2 1.2s1.2-.5 1.2-1.2v-7.1c0-.7-.5-1.2-1.2-1.2-.7.1-1.2.6-1.2 1.2M133.3 220.7v7.1c0 .7.5 1.2 1.2 1.2s1.2-.5 1.2-1.2v-7.1c0-.7-.5-1.2-1.2-1.2-.7.1-1.2.6-1.2 1.2M164 220.7v7.1c0 .7.5 1.2 1.2 1.2s1.2-.5 1.2-1.2v-7.1c0-.7-.5-1.2-1.2-1.2-.7.1-1.2.6-1.2 1.2M304.7 220.7v7.1c0 .7.5 1.2 1.2 1.2s1.2-.5 1.2-1.2v-7.1c0-.7-.5-1.2-1.2-1.2-.6.1-1.2.6-1.2 1.2M335.5 220.7v7.1c0 .7.5 1.2 1.2 1.2s1.2-.5 1.2-1.2v-7.1c0-.7-.5-1.2-1.2-1.2-.7.1-1.2.6-1.2 1.2M366.2 220.7v7.1c0 .7.5 1.2 1.2 1.2s1.2-.5 1.2-1.2v-7.1c0-.7-.5-1.2-1.2-1.2-.7.1-1.2.6-1.2 1.2M397 220.7v7.1c0 .7.5 1.2 1.2 1.2s1.2-.5 1.2-1.2v-7.1c0-.7-.5-1.2-1.2-1.2-.7.1-1.2.6-1.2 1.2M304.7 273.9v7.1c0 .7.5 1.2 1.2 1.2s1.2-.5 1.2-1.2v-7.1c0-.7-.5-1.2-1.2-1.2-.6.1-1.2.6-1.2 1.2M335.5 273.9v7.1c0 .7.5 1.2 1.2 1.2s1.2-.5 1.2-1.2v-7.1c0-.7-.5-1.2-1.2-1.2-.7.1-1.2.6-1.2 1.2M366.2 273.9v7.1c0 .7.5 1.2 1.2 1.2s1.2-.5 1.2-1.2v-7.1c0-.7-.5-1.2-1.2-1.2-.7.1-1.2.6-1.2 1.2M397 273.9v7.1c0 .7.5 1.2 1.2 1.2s1.2-.5 1.2-1.2v-7.1c0-.7-.5-1.2-1.2-1.2-.7.1-1.2.6-1.2 1.2M265.7 43.4v169.1c0 .7.5 1.2 1.2 1.2s1.2-.5 1.2-1.2V43.4c0-.7-.5-1.2-1.2-1.2s-1.2.5-1.2 1.2M213.7 43.4v169.1c0 .7.5 1.2 1.2 1.2s1.2-.5 1.2-1.2V43.4c0-.7-.5-1.2-1.2-1.2s-1.2.5-1.2 1.2M265.7 292.9V462c0 .7.5 1.2 1.2 1.2s1.2-.5 1.2-1.2V292.9c0-.7-.5-1.2-1.2-1.2s-1.2.5-1.2 1.2M213.7 292.9V462c0 .7.5 1.2 1.2 1.2s1.2-.5 1.2-1.2V292.9c0-.7-.5-1.2-1.2-1.2s-1.2.5-1.2 1.2"/><path fill="#FFB8C7" d="M443.1 252.1c0 1.5 0 3-.1 4.5-.1.9.6 1.7 1.5 1.7.9.1 1.7-.6 1.7-1.5.1-1.6.2-3.1.2-4.7 0-.9-.7-1.6-1.6-1.6-1 0-1.7.8-1.7 1.6zm-.5-7.9c.2 1.5.3 3 .4 4.5 0 .9.8 1.6 1.7 1.5.9 0 1.6-.8 1.5-1.7-.1-1.6-.2-3.1-.4-4.7-.1-.9-.9-1.5-1.8-1.4-.9.1-1.5.9-1.4 1.8zm-2.5-12c.4 1.4.8 2.9 1.2 4.3.2.9 1.1 1.4 1.9 1.2.9-.2 1.4-1.1 1.2-1.9l-1.2-4.5c-.3-.9-1.2-1.3-2-1.1-.9.2-1.4 1.1-1.1 2zm-4.5-11.5c.7 1.4 1.3 2.7 1.9 4.1.3.8 1.3 1.2 2.1.9.8-.3 1.2-1.3.9-2.1-.6-1.4-1.2-2.9-1.9-4.3-.4-.8-1.4-1.1-2.2-.7-.9.3-1.2 1.3-.8 2.1zm-6.3-10.7c.9 1.3 1.7 2.5 2.4 3.8.5.8 1.5 1 2.2.5.8-.5 1-1.5.5-2.2-.8-1.3-1.6-2.6-2.5-3.9-.5-.7-1.5-.9-2.2-.4-.7.4-.9 1.4-.4 2.2zm-7.6-9.9c1 1.1 2 2.3 2.9 3.5.6.7 1.6.8 2.3.3.7-.6.8-1.6.3-2.3l-3-3.6c-.6-.7-1.6-.7-2.3-.2-.7.7-.7 1.7-.2 2.3zm-8.6-8.9c1.1 1 2.2 2.1 3.3 3.2.6.6 1.6.6 2.3 0 .6-.6.6-1.6 0-2.3-1.1-1.1-2.2-2.2-3.3-3.2-.6-.6-1.7-.6-2.3.1-.7.6-.7 1.6 0 2.2zm-9.5-8.1c1.2.9 2.4 1.9 3.5 2.8.7.6 1.7.5 2.3-.2.6-.7.5-1.7-.2-2.3-1.2-1-2.4-2-3.6-2.9-.7-.5-1.7-.4-2.3.3-.6.8-.4 1.8.3 2.3zm-10.2-7.3c1.3.8 2.5 1.7 3.8 2.6.7.5 1.7.3 2.2-.4.5-.7.3-1.7-.4-2.2-1.3-.9-2.5-1.8-3.8-2.6-.7-.5-1.7-.3-2.2.5-.6.6-.4 1.6.4 2.1zm-10.7-6.5c1.3.8 2.6 1.5 3.9 2.3.8.5 1.7.2 2.2-.6.5-.8.2-1.7-.6-2.2-1.3-.8-2.7-1.6-4-2.3-.8-.4-1.8-.2-2.2.6-.3.8-.1 1.7.7 2.2zm-11.1-5.9c1.4.7 2.7 1.4 4.1 2 .8.4 1.8.1 2.2-.7.4-.8.1-1.8-.7-2.2-1.4-.7-2.7-1.4-4.1-2.1-.8-.4-1.8-.1-2.2.7-.4 1-.1 1.9.7 2.3zm-11.4-5.2l4.2 1.8c.8.4 1.8 0 2.1-.8.4-.8 0-1.8-.8-2.1l-4.2-1.8c-.8-.3-1.8 0-2.1.9-.4.7 0 1.7.8 2zm-11.7-4.6c1.4.5 2.9 1.1 4.3 1.6.8.3 1.8-.1 2.1-.9.3-.8-.1-1.8-.9-2.1-1.4-.6-2.9-1.1-4.3-1.6-.8-.3-1.8.1-2.1 1-.4.8.1 1.7.9 2zm-11.9-4c1.5.5 2.9.9 4.4 1.4.8.3 1.8-.2 2-1 .3-.8-.2-1.8-1-2-1.5-.5-2.9-1-4.4-1.4-.8-.3-1.7.2-2 1.1-.3.8.2 1.7 1 1.9zm-12.1-3.4c1.5.4 3 .8 4.4 1.2.9.2 1.7-.3 2-1.1.2-.9-.3-1.7-1.1-2l-4.5-1.2c-.9-.2-1.7.3-2 1.1-.2.9.4 1.7 1.2 2zm-12.2-3c1.5.3 3 .7 4.5 1 .9.2 1.7-.3 1.9-1.2.2-.9-.3-1.7-1.2-1.9-1.5-.4-3-.7-4.5-1-.9-.2-1.7.4-1.9 1.2-.2.9.3 1.7 1.2 1.9zm-12.3-2.4c1.5.3 3 .5 4.5.8.9.2 1.7-.4 1.9-1.3.2-.9-.4-1.7-1.3-1.9-1.5-.3-3-.6-4.5-.8-.9-.2-1.7.4-1.9 1.3-.2.9.4 1.7 1.3 1.9zm-12.5-2c1.5.2 3 .4 4.5.7.9.1 1.7-.5 1.8-1.3.1-.9-.5-1.7-1.3-1.8-1.5-.2-3-.5-4.6-.7-.9-.1-1.7.5-1.8 1.4-.1.8.6 1.6 1.4 1.7zm-12.5-1.4c1.5.2 3 .3 4.5.5.9.1 1.7-.5 1.8-1.4.1-.9-.5-1.7-1.4-1.8-1.5-.2-3.1-.3-4.6-.5-.9-.1-1.7.6-1.8 1.4 0 .9.7 1.7 1.5 1.8zm-12.5-1.1c1.5.1 3 .2 4.6.3.9.1 1.7-.6 1.7-1.5.1-.9-.6-1.7-1.5-1.7-1.5-.1-3.1-.2-4.6-.3-.9-.1-1.6.6-1.7 1.5-.1.9.6 1.7 1.5 1.7zm-12.6-.5c1.5 0 3.1.1 4.6.2.9 0 1.6-.7 1.7-1.5 0-.9-.7-1.6-1.5-1.7-1.5-.1-3.1-.1-4.6-.2-.9 0-1.6.7-1.7 1.6 0 .8.7 1.6 1.5 1.6zm-12.5-.1h4.6c.9 0 1.6-.7 1.6-1.6 0-.9-.7-1.6-1.6-1.6h-4.6c-.9 0-1.6.7-1.6 1.6-.1.9.7 1.6 1.6 1.6zm-12.6.3c1.5-.1 3-.1 4.6-.2.9 0 1.6-.8 1.6-1.7 0-.9-.8-1.6-1.7-1.6-1.5 0-3.1.1-4.6.2-.9 0-1.6.8-1.5 1.7-.1.9.7 1.6 1.6 1.6zm-12.6.8c1.5-.1 3-.2 4.6-.3.9-.1 1.6-.8 1.5-1.7-.1-.9-.8-1.6-1.7-1.5-1.5.1-3.1.2-4.6.3-.9.1-1.5.8-1.5 1.7.1.9.8 1.5 1.7 1.5zm-12.5 1.2c1.5-.2 3-.3 4.5-.5.9-.1 1.5-.9 1.4-1.8-.1-.9-.9-1.5-1.8-1.4-1.5.2-3.1.3-4.6.5-.9.1-1.5.9-1.4 1.8.2.9 1 1.5 1.9 1.4zm-12.5 1.7c1.5-.2 3-.5 4.5-.7.9-.1 1.5-.9 1.4-1.8-.1-.9-.9-1.5-1.8-1.4-1.5.2-3.1.4-4.6.7-.9.1-1.5 1-1.3 1.8.1.9 1 1.5 1.8 1.4zm-12.3 2.2c1.5-.3 3-.6 4.5-.8.9-.2 1.5-1 1.3-1.9-.2-.9-1-1.5-1.9-1.3l-4.5.9c-.9.2-1.4 1-1.3 1.9.1.8 1 1.3 1.9 1.2zm-12.3 2.6c1.5-.4 3-.7 4.5-1 .9-.2 1.4-1.1 1.2-1.9-.2-.9-1.1-1.4-1.9-1.2-1.5.3-3 .7-4.5 1-.9.2-1.4 1.1-1.2 1.9.1.9 1 1.4 1.9 1.2zm-12.2 3.2c1.5-.4 2.9-.8 4.4-1.2.9-.2 1.4-1.1 1.1-2-.2-.9-1.1-1.4-2-1.1l-4.5 1.2c-.9.2-1.3 1.1-1.1 2 .4.9 1.3 1.4 2.1 1.1zm-12 3.7c1.4-.5 2.9-1 4.3-1.4.8-.3 1.3-1.2 1-2-.3-.8-1.2-1.3-2-1-1.5.5-2.9.9-4.4 1.4-.8.3-1.3 1.2-1 2 .4.9 1.3 1.3 2.1 1zm-11.8 4.3c1.4-.6 2.8-1.1 4.3-1.6.8-.3 1.3-1.2 1-2.1-.3-.8-1.2-1.3-2.1-1-1.5.5-2.9 1.1-4.3 1.6-.8.3-1.2 1.3-.9 2.1.2.9 1.2 1.3 2 1zm-11.6 4.9l4.2-1.8c.8-.4 1.2-1.3.8-2.1-.4-.8-1.3-1.2-2.1-.8-1.4.6-2.8 1.2-4.2 1.9-.8.4-1.2 1.3-.8 2.1.4.7 1.3 1 2.1.7zm-11.3 5.5c1.3-.7 2.7-1.4 4.1-2.1.8-.4 1.1-1.4.7-2.2-.4-.8-1.4-1.1-2.2-.7-1.4.7-2.8 1.4-4.1 2.1-.8.4-1.1 1.4-.7 2.2.5.8 1.5 1.1 2.2.7zm-10.9 6.1c1.3-.8 2.6-1.6 3.9-2.3.8-.4 1-1.4.6-2.2-.4-.8-1.4-1-2.2-.6-1.3.8-2.7 1.6-4 2.4-.8.5-1 1.5-.5 2.2.5.7 1.5 1 2.2.5zm-10.4 6.9c1.2-.9 2.5-1.7 3.7-2.6.7-.5.9-1.5.4-2.2-.5-.7-1.5-.9-2.2-.4-1.3.9-2.6 1.7-3.8 2.6-.7.5-.9 1.5-.4 2.2.6.8 1.6.9 2.3.4zm-9.9 7.7c1.1-1 2.3-1.9 3.5-2.9.7-.6.8-1.6.3-2.3-.6-.7-1.6-.8-2.3-.3-1.2 1-2.4 1.9-3.6 2.9-.7.6-.8 1.6-.2 2.3.6.7 1.6.8 2.3.3zm-9.2 8.4c1-1.1 2.1-2.1 3.2-3.2.6-.6.7-1.6.1-2.3-.6-.6-1.6-.7-2.3-.1l-3.3 3.3c-.6.6-.6 1.7 0 2.3.7.7 1.7.7 2.3 0zm-8.2 9.4c.9-1.2 1.9-2.3 2.9-3.5.6-.7.5-1.7-.2-2.3-.7-.6-1.7-.5-2.3.2-1 1.2-2 2.4-2.9 3.6-.5.7-.4 1.7.3 2.3.7.5 1.7.4 2.2-.3zm-7 10.2c.8-1.3 1.6-2.6 2.4-3.8.5-.7.3-1.7-.5-2.2-.7-.5-1.7-.3-2.2.5-.9 1.3-1.7 2.6-2.5 4-.5.8-.2 1.8.6 2.2.8.4 1.8.1 2.2-.7zm-5.5 11.1c.6-1.4 1.2-2.8 1.8-4.1.4-.8 0-1.8-.8-2.1-.8-.4-1.8 0-2.1.8-.7 1.4-1.3 2.9-1.9 4.3-.3.8.1 1.8.9 2.1.9.3 1.8-.1 2.1-1zM39 237.7c.3-1.5.7-2.9 1.1-4.4.2-.9-.3-1.7-1.1-2-.9-.2-1.7.3-2 1.1-.4 1.5-.8 3-1.1 4.6-.2.9.4 1.7 1.2 1.9.9.2 1.7-.3 1.9-1.2zm-1.5 12.2c0-1.5.1-3 .3-4.5.1-.9-.6-1.7-1.4-1.8-.9-.1-1.7.6-1.8 1.4-.2 1.6-.3 3.1-.3 4.7 0 .9.7 1.6 1.6 1.7.8.1 1.6-.6 1.6-1.5zm.7 12.3c-.2-1.5-.4-3-.5-4.5-.1-.9-.9-1.5-1.7-1.5-.9.1-1.5.9-1.5 1.7.1 1.6.3 3.1.5 4.7.1.9 1 1.5 1.8 1.4 1-.1 1.6-.9 1.4-1.8zm2.9 12c-.5-1.4-.9-2.9-1.3-4.3-.2-.9-1.1-1.4-2-1.1-.9.2-1.4 1.1-1.1 2 .4 1.5.9 3 1.4 4.5.3.8 1.2 1.3 2 1 .9-.3 1.3-1.2 1-2.1zm4.9 11.4c-.7-1.3-1.4-2.7-2-4-.4-.8-1.3-1.2-2.1-.8-.8.4-1.2 1.3-.8 2.1.6 1.4 1.3 2.8 2.1 4.2.4.8 1.4 1.1 2.2.7.7-.5 1-1.4.6-2.2zm6.5 10.5c-.9-1.2-1.7-2.5-2.5-3.7-.5-.7-1.5-1-2.2-.5-.7.5-1 1.5-.5 2.2.8 1.3 1.7 2.6 2.6 3.9.5.7 1.5.9 2.2.4.7-.5.9-1.5.4-2.3zm7.8 9.7c-1-1.1-2-2.3-3-3.4-.6-.7-1.6-.8-2.3-.2-.7.6-.8 1.6-.2 2.3 1 1.2 2 2.4 3.1 3.5.6.7 1.6.7 2.3.1.6-.6.7-1.6.1-2.3zm8.8 8.8c-1.1-1-2.2-2.1-3.3-3.1-.6-.6-1.7-.6-2.3 0-.6.6-.6 1.7 0 2.3 1.1 1.1 2.2 2.1 3.4 3.2.7.6 1.7.5 2.3-.1.7-.7.6-1.7-.1-2.3zm9.7 7.9c-1.2-.9-2.4-1.9-3.6-2.8-.7-.6-1.7-.4-2.3.2-.6.7-.4 1.7.2 2.3 1.2 1 2.4 1.9 3.7 2.9.7.5 1.7.4 2.3-.3.5-.7.4-1.7-.3-2.3zm10.2 7.2c-1.3-.8-2.6-1.7-3.8-2.5-.7-.5-1.7-.3-2.2.4-.5.7-.3 1.7.4 2.2 1.3.9 2.6 1.7 3.9 2.6.7.5 1.7.3 2.2-.5.5-.7.3-1.7-.5-2.2zm10.8 6.4c-1.3-.7-2.7-1.5-4-2.3-.8-.4-1.8-.2-2.2.6-.4.8-.2 1.8.6 2.2 1.3.8 2.7 1.5 4 2.3.8.4 1.8.1 2.2-.6.5-.8.2-1.8-.6-2.2zm11.2 5.7c-1.4-.7-2.7-1.3-4.1-2-.8-.4-1.8-.1-2.2.7-.4.8-.1 1.8.7 2.2 1.4.7 2.8 1.4 4.2 2 .8.4 1.8 0 2.1-.8.4-.7.1-1.7-.7-2.1zm11.4 5.1l-4.2-1.8c-.8-.4-1.8 0-2.1.8-.4.8 0 1.8.8 2.1 1.4.6 2.8 1.2 4.3 1.8.8.3 1.8-.1 2.1-.9.4-.7 0-1.6-.9-2zm11.8 4.5c-1.4-.5-2.9-1-4.3-1.6-.8-.3-1.8.1-2.1.9-.3.8.1 1.8.9 2.1 1.4.5 2.9 1.1 4.3 1.6.8.3 1.8-.1 2.1-1 .3-.8-.1-1.7-.9-2zm11.9 3.9c-1.5-.4-2.9-.9-4.4-1.4-.8-.3-1.8.2-2 1-.3.8.2 1.8 1 2 1.5.5 2.9.9 4.4 1.4.8.3 1.7-.2 2-1.1.3-.7-.1-1.6-1-1.9zm12.1 3.4c-1.5-.4-3-.8-4.4-1.2-.9-.2-1.7.3-2 1.1-.2.9.3 1.7 1.1 2l4.5 1.2c.9.2 1.7-.3 2-1.2.2-.8-.3-1.7-1.2-1.9zm12.3 2.8c-1.5-.3-3-.6-4.5-1-.9-.2-1.7.3-1.9 1.2-.2.9.3 1.7 1.2 1.9 1.5.3 3 .7 4.5 1 .9.2 1.7-.4 1.9-1.2.2-.8-.4-1.7-1.2-1.9zm12.3 2.4c-1.5-.3-3-.5-4.5-.8-.9-.2-1.7.4-1.9 1.3-.2.9.4 1.7 1.3 1.9 1.5.3 3 .5 4.5.8.9.1 1.7-.4 1.9-1.3.2-.9-.4-1.8-1.3-1.9zm12.5 1.8l-4.5-.6c-.9-.1-1.7.5-1.8 1.4-.1.9.5 1.7 1.4 1.8 1.5.2 3 .4 4.6.6.9.1 1.7-.5 1.8-1.4 0-.8-.7-1.6-1.5-1.8zm12.5 1.4c-1.5-.1-3-.3-4.6-.5-.9-.1-1.7.5-1.8 1.4-.1.9.5 1.7 1.4 1.8 1.5.2 3.1.3 4.6.5.9.1 1.7-.6 1.7-1.5.2-.8-.5-1.6-1.3-1.7zm12.5 1c-1.5-.1-3-.2-4.6-.3-.9-.1-1.7.6-1.7 1.5-.1.9.6 1.7 1.5 1.7 1.5.1 3.1.2 4.6.3.9 0 1.6-.6 1.7-1.5.1-.9-.6-1.7-1.5-1.7zm12.6.5c-1.5 0-3.1-.1-4.6-.1-.9 0-1.6.7-1.7 1.6 0 .9.7 1.6 1.6 1.7 1.5.1 3.1.1 4.6.1.9 0 1.6-.7 1.6-1.6.1-1-.6-1.7-1.5-1.7zm12.6 0h-4.6c-.9 0-1.6.7-1.6 1.6 0 .9.7 1.6 1.6 1.6h4.6c.9 0 1.6-.7 1.6-1.6 0-.9-.8-1.6-1.6-1.6zm12.5-.4c-1.5.1-3 .1-4.6.2-.9 0-1.6.8-1.5 1.7 0 .9.8 1.6 1.7 1.5 1.5-.1 3.1-.1 4.6-.2.9 0 1.6-.8 1.5-1.7 0-.9-.8-1.6-1.7-1.5zm12.6-.9c-1.5.1-3 .3-4.6.4-.9.1-1.6.8-1.5 1.7.1.9.8 1.6 1.7 1.5 1.5-.1 3.1-.2 4.6-.4.9-.1 1.5-.9 1.5-1.7-.1-.9-.8-1.5-1.7-1.5zm12.5-1.3c-1.5.2-3 .4-4.5.5-.9.1-1.5.9-1.4 1.8.1.9.9 1.5 1.8 1.4 1.5-.2 3.1-.3 4.6-.5.9-.1 1.5-.9 1.4-1.8-.2-.9-1-1.5-1.9-1.4zm12.4-1.8c-1.5.2-3 .5-4.5.7-.9.1-1.5.9-1.4 1.8.1.9.9 1.5 1.8 1.4 1.5-.2 3-.5 4.6-.7.9-.1 1.5-1 1.3-1.8-.1-.9-.9-1.5-1.8-1.4zm12.4-2.2l-4.5.9c-.9.2-1.4 1-1.3 1.9.2.9 1 1.4 1.9 1.3l4.5-.9c.9-.2 1.4-1 1.3-1.9-.2-.9-1-1.5-1.9-1.3zm12.3-2.8c-1.5.4-3 .7-4.4 1.1-.9.2-1.4 1.1-1.2 1.9.2.9 1.1 1.4 1.9 1.2 1.5-.3 3-.7 4.5-1.1.9-.2 1.4-1.1 1.2-1.9-.3-.9-1.2-1.4-2-1.2zm12.1-3.3c-1.5.4-2.9.8-4.4 1.3-.9.2-1.4 1.1-1.1 2 .2.9 1.1 1.4 2 1.1 1.5-.4 3-.8 4.4-1.3.9-.3 1.3-1.1 1.1-2-.2-.8-1.1-1.3-2-1.1zm12-3.8c-1.4.5-2.9 1-4.3 1.5-.8.3-1.3 1.2-1 2 .3.8 1.2 1.3 2 1 1.5-.5 2.9-1 4.4-1.5.8-.3 1.3-1.2 1-2-.4-.8-1.3-1.3-2.1-1zm11.7-4.3c-1.4.6-2.8 1.1-4.3 1.7-.8.3-1.2 1.2-.9 2.1.3.8 1.2 1.2 2.1.9 1.4-.6 2.9-1.1 4.3-1.7.8-.3 1.2-1.3.9-2.1-.3-.9-1.2-1.3-2.1-.9zm11.6-5c-1.4.6-2.8 1.3-4.2 1.9-.8.4-1.2 1.3-.8 2.1.4.8 1.3 1.2 2.1.8 1.4-.6 2.8-1.3 4.2-1.9.8-.4 1.2-1.3.8-2.1-.4-.8-1.3-1.2-2.1-.8zm11.2-5.6c-1.3.7-2.7 1.4-4 2.1-.8.4-1.1 1.4-.7 2.2.4.8 1.4 1.1 2.2.7 1.4-.7 2.8-1.4 4.1-2.1.8-.4 1.1-1.4.7-2.2-.6-.9-1.5-1.2-2.3-.7zm10.8-6.3l-3.9 2.4c-.8.5-1 1.4-.6 2.2.5.8 1.4 1 2.2.6 1.3-.8 2.7-1.6 4-2.4.8-.5 1-1.5.5-2.2-.4-.9-1.4-1.1-2.2-.6zm10.4-7c-1.2.9-2.4 1.8-3.7 2.6-.7.5-.9 1.5-.4 2.2.5.7 1.5.9 2.2.4 1.3-.9 2.5-1.8 3.8-2.7.7-.5.9-1.5.3-2.2-.5-.7-1.5-.9-2.2-.3zm9.8-7.8c-1.1 1-2.3 2-3.5 2.9-.7.6-.8 1.6-.2 2.3.6.7 1.6.8 2.3.2l3.6-3c.7-.6.7-1.6.2-2.3-.8-.7-1.8-.7-2.4-.1zm9-8.7c-1 1.1-2.1 2.2-3.2 3.2-.6.6-.6 1.6 0 2.3.6.6 1.6.6 2.3 0l3.3-3.3c.6-.6.6-1.7-.1-2.3-.7-.5-1.7-.5-2.3.1zm8-9.5c-.9 1.2-1.8 2.4-2.8 3.6-.6.7-.5 1.7.2 2.3.7.6 1.7.5 2.3-.2 1-1.2 1.9-2.4 2.9-3.7.5-.7.4-1.7-.3-2.3-.8-.5-1.8-.4-2.3.3zm6.7-10.4c-.7 1.3-1.5 2.6-2.3 3.9-.5.8-.2 1.7.5 2.2.8.5 1.7.2 2.2-.5.8-1.3 1.6-2.7 2.4-4 .4-.8.2-1.8-.6-2.2-.8-.4-1.7-.2-2.2.6zm5.2-11.2c-.5 1.4-1.1 2.8-1.7 4.2-.4.8 0 1.8.8 2.1.8.4 1.8 0 2.1-.8.6-1.4 1.2-2.9 1.7-4.3.3-.8-.1-1.8-1-2.1-.7-.4-1.6.1-1.9.9zm3.3-11.9c-.3 1.5-.6 2.9-.9 4.4-.2.9.3 1.7 1.2 1.9.9.2 1.7-.3 1.9-1.2.4-1.5.7-3 1-4.6.2-.9-.4-1.7-1.3-1.9-.9-.1-1.8.5-1.9 1.4z"/><path fill="#EFEFEF" d="M212.5 392.7h4.8v4.8h-4.8z"/><path fill="#A1ABD0" d="M217.2 397.4v-1.2h-3.6v-2.4h2.4v3.6h1.2v-1.2 1.2h1.2v-4.8c0-.3-.1-.6-.3-.8-.2-.2-.5-.3-.8-.3h-4.8c-.3 0-.6.1-.8.3-.2.2-.3.5-.3.8v4.8c0 .3.1.6.3.8.2.2.5.3.8.3h4.8c.3 0 .6-.1.8-.3.2-.2.3-.5.3-.8h-1.2z"/><path fill="#EFEFEF" d="M264.5 392.7h4.8v4.8h-4.8z"/><path fill="#A1ABD0" d="M269.3 397.4v-1.2h-3.6v-2.4h2.4v3.6h1.2v-1.2 1.2h1.2v-4.8c0-.3-.1-.6-.3-.8-.2-.2-.5-.3-.8-.3h-4.8c-.3 0-.6.1-.8.3-.2.2-.3.5-.3.8v4.8c0 .3.1.6.3.8.2.2.5.3.8.3h4.8c.3 0 .6-.1.8-.3.2-.2.3-.5.3-.8h-1.2z"/><path fill="#EFEFEF" d="M212.5 111.9h4.8v4.8h-4.8z"/><path fill="#A1ABD0" d="M217.2 116.7v-1.2h-3.6v-2.4h2.4v3.6h1.2v-1.2 1.2h1.2v-4.8c0-.3-.1-.6-.3-.8-.2-.2-.5-.3-.8-.3h-4.8c-.3 0-.6.1-.8.3-.2.2-.3.5-.3.8v4.8c0 .3.1.6.3.8.2.2.5.3.8.3h4.8c.3 0 .6-.1.8-.3.2-.2.3-.5.3-.8h-1.2z"/><path fill="#EFEFEF" d="M264.5 111.9h4.8v4.8h-4.8z"/><path fill="#A1ABD0" d="M269.3 116.7v-1.2h-3.6v-2.4h2.4v3.6h1.2v-1.2 1.2h1.2v-4.8c0-.3-.1-.6-.3-.8-.2-.2-.5-.3-.8-.3h-4.8c-.3 0-.6.1-.8.3-.2.2-.3.5-.3.8v4.8c0 .3.1.6.3.8.2.2.5.3.8.3h4.8c.3 0 .6-.1.8-.3.2-.2.3-.5.3-.8h-1.2z"/><circle fill="none" cx="241" cy="254.3" r="214.1"/></g></g></svg>
