<?xml version="1.0" encoding="utf-8"?>
<!-- Generator: Adobe Illustrator 19.0.0, SVG Export Plug-In . SVG Version: 6.00 Build 0)  -->
<svg version="1.1" id="Layer_1" xmlns="http://www.w3.org/2000/svg" xmlns:xlink="http://www.w3.org/1999/xlink" x="0px" y="0px"
	 viewBox="0 0 579 425.5" enable-background="new 0 0 579 425.5" xml:space="preserve">
<path id="XMLID_2304_" fill="#A9DEEB" d="M110.5,253.5H107v-3.4c0-0.7-0.3-1.3-1-1.3s-1,0.6-1,1.3v3.4h-2.5c-0.7,0-1.3,0.3-1.3,1
	s0.6,1,1.3,1h2.5v2.5c0,0.7,0.3,1.3,1,1.3s1-0.6,1-1.3v-2.5h3.5c0.7,0,1.3-0.3,1.3-1S111.2,253.5,110.5,253.5z"/>
<path id="XMLID_2303_" fill="#A9DEEB" d="M449.3,157.1l-2.5,1.6l-1.5-2.5c-0.4-0.6-0.9-1-1.5-0.6s-0.5,1-0.2,1.6l1.5,2.5l-2.5,1.6
	c-0.6,0.4-1,0.9-0.6,1.5s1,0.5,1.6,0.2l2.5-1.6l1.6,2.5c0.4,0.6,0.9,1,1.5,0.6s0.5-1,0.2-1.6l-1.6-2.5l2.5-1.6
	c0.6-0.4,1-0.9,0.6-1.5S449.9,156.7,449.3,157.1z"/>
<path id="XMLID_2325_" fill="#A9DEEB" d="M410.3,330.1l-2.5,1.6l-1.5-2.5c-0.4-0.6-0.9-1-1.5-0.6c-0.6,0.4-0.5,1-0.2,1.6l1.5,2.5
	l-2.5,1.6c-0.6,0.4-1,0.9-0.6,1.5s1,0.5,1.6,0.2l2.5-1.6l1.6,2.5c0.4,0.6,0.9,1,1.5,0.6c0.6-0.4,0.5-1,0.2-1.6l-1.6-2.5l2.5-1.6
	c0.6-0.4,1-0.9,0.6-1.5S410.9,329.7,410.3,330.1z"/>
<path id="XMLID_2302_" fill="#FF7676" d="M140.4,140.9l-1.6-2.5l2.5-1.5c0.6-0.4,1-0.9,0.6-1.5s-1-0.5-1.6-0.2l-2.5,1.5l-1.6-2.5
	c-0.4-0.6-0.9-1-1.5-0.6c-0.6,0.4-0.5,1-0.2,1.6l1.6,2.5l-2.5,1.6c-0.6,0.4-1,0.9-0.6,1.5c0.4,0.6,1,0.5,1.6,0.2l2.5-1.6l1.6,2.5
	c0.4,0.6,0.9,1,1.5,0.6C140.9,142.1,140.8,141.5,140.4,140.9z"/>
<path id="XMLID_2321_" fill="#FF7676" d="M197.4,360.9l-1.6-2.5l2.5-1.5c0.6-0.4,1-0.9,0.6-1.5c-0.4-0.6-1-0.5-1.6-0.2l-2.5,1.5
	l-1.6-2.5c-0.4-0.6-0.9-1-1.5-0.6c-0.6,0.4-0.5,1-0.2,1.6l1.6,2.5l-2.5,1.6c-0.6,0.4-1,0.9-0.6,1.5c0.4,0.6,1,0.5,1.6,0.2l2.5-1.6
	l1.6,2.5c0.4,0.6,0.9,1,1.5,0.6C197.9,362.1,197.8,361.5,197.4,360.9z"/>
<circle id="XMLID_2300_" fill="#FFB8C7" cx="439.2" cy="85.3" r="2.1"/>
<circle id="XMLID_2299_" fill="#4B5E7F" cx="157.2" cy="335" r="2.1"/>
<circle id="XMLID_1941_" fill="#4B5E7F" cx="326.5" cy="22.9" r="2.1"/>
<circle id="XMLID_2298_" fill="#FFB8C7" cx="240.2" cy="51.6" r="2.1"/>
<circle id="XMLID_2323_" fill="#FFB8C7" cx="219.8" cy="391.6" r="2.1"/>
<circle id="XMLID_2324_" fill="#FFB8C7" cx="353.7" cy="375" r="2.1"/>
<circle id="XMLID_2297_" fill="#FFB8C7" cx="483.3" cy="232" r="2.1"/>
<circle id="XMLID_2296_" fill="#A9DEEB" cx="362.5" cy="66.2" r="2.1"/>
<circle id="XMLID_2294_" fill="#F6F7F9" cx="485.4" cy="214" r="2.1"/>
<circle id="XMLID_2293_" fill="#F6F7F9" cx="203.6" cy="77" r="2.1"/>
<circle id="XMLID_2322_" fill="#F6F7F9" cx="121.1" cy="299" r="2.1"/>
<circle id="XMLID_2329_" fill="#F6F7F9" cx="290.9" cy="418" r="2.1"/>
<path id="XMLID_2326_" fill="#FFB8C7" d="M446.8,291c-0.3-2.6-2.4-4.6-5-4.9c-3.4-0.3-6.2,2.4-6.1,5.7c0,1.3,0.5,2.6,1.3,3.5
	l4.1,4.5c0.2,0.2,0.4,0.2,0.6,0c1-1.1,4-4.7,4.3-5l0,0h0C446.6,293.7,447,292.4,446.8,291z M441.3,293.8c-1.1,0-2-0.9-2-2
	c0-1.1,0.9-2,2-2c1.1,0,2,0.9,2,2S442.4,293.8,441.3,293.8z"/>
<g id="XMLID_167_">
	<g id="XMLID_304_">
		<defs>
			<path id="XMLID_303_" d="M279.6,389.6L121.7,231.7c-6.7-6.7-6.7-17.5,0-24.1L279.6,49.6c6.7-6.7,17.5-6.7,24.1,0l157.9,157.9
				c6.7,6.7,6.7,17.5,0,24.1L303.7,389.6C297.1,396.3,286.3,396.3,279.6,389.6"/>
		</defs>
		<clipPath id="XMLID_106_">
			<use xlink:href="#XMLID_303_"  overflow="visible"/>
		</clipPath>
		<polyline id="XMLID_305_" clip-path="url(#XMLID_106_)" fill="#F6F7F9" points="475.2,418 117.2,418 117.2,20 475.2,20 475.2,418 
					"/>
		<path id="XMLID_306_" clip-path="url(#XMLID_106_)" fill="#F6F7F9" d="M429.4,122c20.1,11.6,32.5,33.1,32.5,56.3v122.3
			c0,23.2-12.4,44.7-32.5,56.3l-106,61.2c-20.1,11.6-44.8,11.6-64.9,0l-106-61.2c-20.1-11.6-32.5-33.1-32.5-56.3V178.3
			c0-23.2,12.4-44.7,32.5-56.3l106-61.2c20.1-11.6,44.8-11.6,64.9,0L429.4,122"/>
		<rect id="XMLID_307_" x="63" y="107.5" clip-path="url(#XMLID_106_)" fill="#FCFCFC" width="454" height="40"/>
		<rect id="XMLID_308_" x="270" y="20.5" clip-path="url(#XMLID_106_)" fill="#FCFCFC" width="40" height="454"/>
		<path id="XMLID_309_" clip-path="url(#XMLID_106_)" fill="#D1D1D1" d="M282,157.5c-0.6,0-1-0.4-1-1v-3c0-0.6,0.4-1,1-1s1,0.4,1,1
			v3C283,157.1,282.6,157.5,282,157.5z"/>
		<path id="XMLID_329_" clip-path="url(#XMLID_106_)" fill="#D1D1D1" d="M282,518.5c-0.6,0-1-0.4-1-1v-7c0-0.6,0.4-1,1-1s1,0.4,1,1
			v7C283,518.1,282.6,518.5,282,518.5z M282,499.5c-0.6,0-1-0.4-1-1v-7c0-0.6,0.4-1,1-1s1,0.4,1,1v7
			C283,499.1,282.6,499.5,282,499.5z M282,480.5c-0.6,0-1-0.4-1-1v-7c0-0.6,0.4-1,1-1s1,0.4,1,1v7C283,480.1,282.6,480.5,282,480.5z
			 M282,461.5c-0.6,0-1-0.4-1-1v-7c0-0.6,0.4-1,1-1s1,0.4,1,1v7C283,461.1,282.6,461.5,282,461.5z M282,442.5c-0.6,0-1-0.4-1-1v-7
			c0-0.6,0.4-1,1-1s1,0.4,1,1v7C283,442.1,282.6,442.5,282,442.5z M282,423.5c-0.6,0-1-0.4-1-1v-7c0-0.6,0.4-1,1-1s1,0.4,1,1v7
			C283,423.1,282.6,423.5,282,423.5z M282,404.5c-0.6,0-1-0.4-1-1v-7c0-0.6,0.4-1,1-1s1,0.4,1,1v7C283,404.1,282.6,404.5,282,404.5z
			 M282,385.5c-0.6,0-1-0.4-1-1v-7c0-0.6,0.4-1,1-1s1,0.4,1,1v7C283,385.1,282.6,385.5,282,385.5z M282,366.5c-0.6,0-1-0.4-1-1v-7
			c0-0.6,0.4-1,1-1s1,0.4,1,1v7C283,366.1,282.6,366.5,282,366.5z M282,347.5c-0.6,0-1-0.4-1-1v-7c0-0.6,0.4-1,1-1s1,0.4,1,1v7
			C283,347.1,282.6,347.5,282,347.5z M282,328.5c-0.6,0-1-0.4-1-1v-7c0-0.6,0.4-1,1-1s1,0.4,1,1v7C283,328.1,282.6,328.5,282,328.5z
			 M282,309.5c-0.6,0-1-0.4-1-1v-7c0-0.6,0.4-1,1-1s1,0.4,1,1v7C283,309.1,282.6,309.5,282,309.5z M282,290.5c-0.6,0-1-0.4-1-1v-7
			c0-0.6,0.4-1,1-1s1,0.4,1,1v7C283,290.1,282.6,290.5,282,290.5z M282,271.5c-0.6,0-1-0.4-1-1v-7c0-0.6,0.4-1,1-1s1,0.4,1,1v7
			C283,271.1,282.6,271.5,282,271.5z M282,252.5c-0.6,0-1-0.4-1-1v-7c0-0.6,0.4-1,1-1s1,0.4,1,1v7C283,252.1,282.6,252.5,282,252.5z
			 M282,233.5c-0.6,0-1-0.4-1-1v-7c0-0.6,0.4-1,1-1s1,0.4,1,1v7C283,233.1,282.6,233.5,282,233.5z M282,214.5c-0.6,0-1-0.4-1-1v-7
			c0-0.6,0.4-1,1-1s1,0.4,1,1v7C283,214.1,282.6,214.5,282,214.5z M282,195.5c-0.6,0-1-0.4-1-1v-7c0-0.6,0.4-1,1-1s1,0.4,1,1v7
			C283,195.1,282.6,195.5,282,195.5z M282,176.5c-0.6,0-1-0.4-1-1v-7c0-0.6,0.4-1,1-1s1,0.4,1,1v7C283,176.1,282.6,176.5,282,176.5z
			"/>
		<path id="XMLID_330_" clip-path="url(#XMLID_106_)" fill="#D1D1D1" d="M299,157.5c-0.6,0-1-0.4-1-1v-3c0-0.6,0.4-1,1-1s1,0.4,1,1
			v3C300,157.1,299.6,157.5,299,157.5z"/>
		<path id="XMLID_358_" clip-path="url(#XMLID_106_)" fill="#D1D1D1" d="M299,669.5c-0.6,0-1-0.4-1-1v-6c0-0.6,0.4-1,1-1s1,0.4,1,1
			v6C300,669.1,299.6,669.5,299,669.5z M299,651.5c-0.6,0-1-0.4-1-1v-7c0-0.6,0.4-1,1-1s1,0.4,1,1v7
			C300,651.1,299.6,651.5,299,651.5z M299,632.5c-0.6,0-1-0.4-1-1v-7c0-0.6,0.4-1,1-1s1,0.4,1,1v7C300,632.1,299.6,632.5,299,632.5z
			 M299,613.5c-0.6,0-1-0.4-1-1v-7c0-0.6,0.4-1,1-1s1,0.4,1,1v7C300,613.1,299.6,613.5,299,613.5z M299,594.5c-0.6,0-1-0.4-1-1v-7
			c0-0.6,0.4-1,1-1s1,0.4,1,1v7C300,594.1,299.6,594.5,299,594.5z M299,575.5c-0.6,0-1-0.4-1-1v-7c0-0.6,0.4-1,1-1s1,0.4,1,1v7
			C300,575.1,299.6,575.5,299,575.5z M299,556.5c-0.6,0-1-0.4-1-1v-7c0-0.6,0.4-1,1-1s1,0.4,1,1v7C300,556.1,299.6,556.5,299,556.5z
			 M299,537.5c-0.6,0-1-0.4-1-1v-7c0-0.6,0.4-1,1-1s1,0.4,1,1v7C300,537.1,299.6,537.5,299,537.5z M299,518.5c-0.6,0-1-0.4-1-1v-7
			c0-0.6,0.4-1,1-1s1,0.4,1,1v7C300,518.1,299.6,518.5,299,518.5z M299,499.5c-0.6,0-1-0.4-1-1v-7c0-0.6,0.4-1,1-1s1,0.4,1,1v7
			C300,499.1,299.6,499.5,299,499.5z M299,480.5c-0.6,0-1-0.4-1-1v-7c0-0.6,0.4-1,1-1s1,0.4,1,1v7C300,480.1,299.6,480.5,299,480.5z
			 M299,461.5c-0.6,0-1-0.4-1-1v-7c0-0.6,0.4-1,1-1s1,0.4,1,1v7C300,461.1,299.6,461.5,299,461.5z M299,442.5c-0.6,0-1-0.4-1-1v-7
			c0-0.6,0.4-1,1-1s1,0.4,1,1v7C300,442.1,299.6,442.5,299,442.5z M299,423.5c-0.6,0-1-0.4-1-1v-7c0-0.6,0.4-1,1-1s1,0.4,1,1v7
			C300,423.1,299.6,423.5,299,423.5z M299,404.5c-0.6,0-1-0.4-1-1v-7c0-0.6,0.4-1,1-1s1,0.4,1,1v7C300,404.1,299.6,404.5,299,404.5z
			 M299,385.5c-0.6,0-1-0.4-1-1v-7c0-0.6,0.4-1,1-1s1,0.4,1,1v7C300,385.1,299.6,385.5,299,385.5z M299,366.5c-0.6,0-1-0.4-1-1v-7
			c0-0.6,0.4-1,1-1s1,0.4,1,1v7C300,366.1,299.6,366.5,299,366.5z M299,347.5c-0.6,0-1-0.4-1-1v-7c0-0.6,0.4-1,1-1s1,0.4,1,1v7
			C300,347.1,299.6,347.5,299,347.5z M299,328.5c-0.6,0-1-0.4-1-1v-7c0-0.6,0.4-1,1-1s1,0.4,1,1v7C300,328.1,299.6,328.5,299,328.5z
			 M299,309.5c-0.6,0-1-0.4-1-1v-7c0-0.6,0.4-1,1-1s1,0.4,1,1v7C300,309.1,299.6,309.5,299,309.5z M299,290.5c-0.6,0-1-0.4-1-1v-7
			c0-0.6,0.4-1,1-1s1,0.4,1,1v7C300,290.1,299.6,290.5,299,290.5z M299,271.5c-0.6,0-1-0.4-1-1v-7c0-0.6,0.4-1,1-1s1,0.4,1,1v7
			C300,271.1,299.6,271.5,299,271.5z M299,252.5c-0.6,0-1-0.4-1-1v-7c0-0.6,0.4-1,1-1s1,0.4,1,1v7C300,252.1,299.6,252.5,299,252.5z
			 M299,233.5c-0.6,0-1-0.4-1-1v-7c0-0.6,0.4-1,1-1s1,0.4,1,1v7C300,233.1,299.6,233.5,299,233.5z M299,214.5c-0.6,0-1-0.4-1-1v-7
			c0-0.6,0.4-1,1-1s1,0.4,1,1v7C300,214.1,299.6,214.5,299,214.5z M299,195.5c-0.6,0-1-0.4-1-1v-7c0-0.6,0.4-1,1-1s1,0.4,1,1v7
			C300,195.1,299.6,195.5,299,195.5z M299,176.5c-0.6,0-1-0.4-1-1v-7c0-0.6,0.4-1,1-1s1,0.4,1,1v7C300,176.1,299.6,176.5,299,176.5z
			"/>
		<path id="XMLID_380_" clip-path="url(#XMLID_106_)" fill="#D1D1D1" d="M282,108.5c-0.6,0-1-0.4-1-1v-5c0-0.6,0.4-1,1-1s1,0.4,1,1
			v5C283,108.1,282.6,108.5,282,108.5z M282,91.5c-0.6,0-1-0.4-1-1v-7c0-0.6,0.4-1,1-1s1,0.4,1,1v7C283,91.1,282.6,91.5,282,91.5z
			 M282,72.5c-0.6,0-1-0.4-1-1v-7c0-0.6,0.4-1,1-1s1,0.4,1,1v7C283,72.1,282.6,72.5,282,72.5z M282,53.5c-0.6,0-1-0.4-1-1v-7
			c0-0.6,0.4-1,1-1s1,0.4,1,1v7C283,53.1,282.6,53.5,282,53.5z M282,34.5c-0.6,0-1-0.4-1-1v-7c0-0.6,0.4-1,1-1s1,0.4,1,1v7
			C283,34.1,282.6,34.5,282,34.5z M282,15.5c-0.6,0-1-0.4-1-1v-7c0-0.6,0.4-1,1-1s1,0.4,1,1v7C283,15.1,282.6,15.5,282,15.5z
			 M282-3.5c-0.6,0-1-0.4-1-1v-7c0-0.6,0.4-1,1-1s1,0.4,1,1v7C283-3.9,282.6-3.5,282-3.5z M282-22.5c-0.6,0-1-0.4-1-1v-7
			c0-0.6,0.4-1,1-1s1,0.4,1,1v7C283-22.9,282.6-22.5,282-22.5z M282-41.5c-0.6,0-1-0.4-1-1v-7c0-0.6,0.4-1,1-1s1,0.4,1,1v7
			C283-41.9,282.6-41.5,282-41.5z M282-60.5c-0.6,0-1-0.4-1-1v-7c0-0.6,0.4-1,1-1s1,0.4,1,1v7C283-60.9,282.6-60.5,282-60.5z
			 M282-79.5c-0.6,0-1-0.4-1-1v-7c0-0.6,0.4-1,1-1s1,0.4,1,1v7C283-79.9,282.6-79.5,282-79.5z M282-98.5c-0.6,0-1-0.4-1-1v-7
			c0-0.6,0.4-1,1-1s1,0.4,1,1v7C283-98.9,282.6-98.5,282-98.5z M282-117.5c-0.6,0-1-0.4-1-1v-7c0-0.6,0.4-1,1-1s1,0.4,1,1v7
			C283-117.9,282.6-117.5,282-117.5z M282-136.5c-0.6,0-1-0.4-1-1v-7c0-0.6,0.4-1,1-1s1,0.4,1,1v7C283-136.9,282.6-136.5,282-136.5z
			 M282-155.5c-0.6,0-1-0.4-1-1v-7c0-0.6,0.4-1,1-1s1,0.4,1,1v7C283-155.9,282.6-155.5,282-155.5z M282-174.5c-0.6,0-1-0.4-1-1v-7
			c0-0.6,0.4-1,1-1s1,0.4,1,1v7C283-174.9,282.6-174.5,282-174.5z M282-193.5c-0.6,0-1-0.4-1-1v-7c0-0.6,0.4-1,1-1s1,0.4,1,1v7
			C283-193.9,282.6-193.5,282-193.5z M282-212.5c-0.6,0-1-0.4-1-1v-7c0-0.6,0.4-1,1-1s1,0.4,1,1v7C283-212.9,282.6-212.5,282-212.5z
			 M282-231.5c-0.6,0-1-0.4-1-1v-7c0-0.6,0.4-1,1-1s1,0.4,1,1v7C283-231.9,282.6-231.5,282-231.5z M282-250.5c-0.6,0-1-0.4-1-1v-7
			c0-0.6,0.4-1,1-1s1,0.4,1,1v7C283-250.9,282.6-250.5,282-250.5z M282-269.5c-0.6,0-1-0.4-1-1v-7c0-0.6,0.4-1,1-1s1,0.4,1,1v7
			C283-269.9,282.6-269.5,282-269.5z"/>
		<path id="XMLID_402_" clip-path="url(#XMLID_106_)" fill="#D1D1D1" d="M299,108.5c-0.6,0-1-0.4-1-1v-5c0-0.6,0.4-1,1-1s1,0.4,1,1
			v5C300,108.1,299.6,108.5,299,108.5z M299,91.5c-0.6,0-1-0.4-1-1v-7c0-0.6,0.4-1,1-1s1,0.4,1,1v7C300,91.1,299.6,91.5,299,91.5z
			 M299,72.5c-0.6,0-1-0.4-1-1v-7c0-0.6,0.4-1,1-1s1,0.4,1,1v7C300,72.1,299.6,72.5,299,72.5z M299,53.5c-0.6,0-1-0.4-1-1v-7
			c0-0.6,0.4-1,1-1s1,0.4,1,1v7C300,53.1,299.6,53.5,299,53.5z M299,34.5c-0.6,0-1-0.4-1-1v-7c0-0.6,0.4-1,1-1s1,0.4,1,1v7
			C300,34.1,299.6,34.5,299,34.5z M299,15.5c-0.6,0-1-0.4-1-1v-7c0-0.6,0.4-1,1-1s1,0.4,1,1v7C300,15.1,299.6,15.5,299,15.5z
			 M299-3.5c-0.6,0-1-0.4-1-1v-7c0-0.6,0.4-1,1-1s1,0.4,1,1v7C300-3.9,299.6-3.5,299-3.5z M299-22.5c-0.6,0-1-0.4-1-1v-7
			c0-0.6,0.4-1,1-1s1,0.4,1,1v7C300-22.9,299.6-22.5,299-22.5z M299-41.5c-0.6,0-1-0.4-1-1v-7c0-0.6,0.4-1,1-1s1,0.4,1,1v7
			C300-41.9,299.6-41.5,299-41.5z M299-60.5c-0.6,0-1-0.4-1-1v-7c0-0.6,0.4-1,1-1s1,0.4,1,1v7C300-60.9,299.6-60.5,299-60.5z
			 M299-79.5c-0.6,0-1-0.4-1-1v-7c0-0.6,0.4-1,1-1s1,0.4,1,1v7C300-79.9,299.6-79.5,299-79.5z M299-98.5c-0.6,0-1-0.4-1-1v-7
			c0-0.6,0.4-1,1-1s1,0.4,1,1v7C300-98.9,299.6-98.5,299-98.5z M299-117.5c-0.6,0-1-0.4-1-1v-7c0-0.6,0.4-1,1-1s1,0.4,1,1v7
			C300-117.9,299.6-117.5,299-117.5z M299-136.5c-0.6,0-1-0.4-1-1v-7c0-0.6,0.4-1,1-1s1,0.4,1,1v7C300-136.9,299.6-136.5,299-136.5z
			 M299-155.5c-0.6,0-1-0.4-1-1v-7c0-0.6,0.4-1,1-1s1,0.4,1,1v7C300-155.9,299.6-155.5,299-155.5z M299-174.5c-0.6,0-1-0.4-1-1v-7
			c0-0.6,0.4-1,1-1s1,0.4,1,1v7C300-174.9,299.6-174.5,299-174.5z M299-193.5c-0.6,0-1-0.4-1-1v-7c0-0.6,0.4-1,1-1s1,0.4,1,1v7
			C300-193.9,299.6-193.5,299-193.5z M299-212.5c-0.6,0-1-0.4-1-1v-7c0-0.6,0.4-1,1-1s1,0.4,1,1v7C300-212.9,299.6-212.5,299-212.5z
			 M299-231.5c-0.6,0-1-0.4-1-1v-7c0-0.6,0.4-1,1-1s1,0.4,1,1v7C300-231.9,299.6-231.5,299-231.5z M299-250.5c-0.6,0-1-0.4-1-1v-7
			c0-0.6,0.4-1,1-1s1,0.4,1,1v7C300-250.9,299.6-250.5,299-250.5z M299-269.5c-0.6,0-1-0.4-1-1v-7c0-0.6,0.4-1,1-1s1,0.4,1,1v7
			C300-269.9,299.6-269.5,299-269.5z"/>
		<path id="XMLID_403_" clip-path="url(#XMLID_106_)" fill="#D1D1D1" d="M282.5,143.2c-0.6,0-1-0.4-1-1c0-1.2-0.1-2.4-0.2-3.4
			c-0.1-0.5,0.3-1,0.9-1.1c0.6-0.1,1,0.3,1.1,0.9c0.1,1.1,0.2,2.3,0.2,3.6C283.5,142.8,283.1,143.2,282.5,143.2z"/>
		<path id="XMLID_417_" clip-path="url(#XMLID_106_)" fill="#D1D1D1" d="M276.4,131c-0.1,0-0.3,0-0.4-0.1c-1.6-0.6-3.6-1-6.4-1.2
			c-0.6,0-1-0.5-0.9-1.1c0-0.6,0.5-1,1.1-0.9c3,0.2,5.2,0.7,7,1.4c0.5,0.2,0.8,0.8,0.5,1.3C277.2,130.7,276.8,131,276.4,131z
			 M257,129.5h-5.8c-0.6,0-1-0.4-1-1s0.4-1,1-1l6.8,0h0c0.6,0,1,0.4,1,1c0,0.6-0.4,1-1,1L257,129.5z M239.6,129.5h-6.8
			c-0.6,0-1-0.4-1-1s0.4-1,1-1h6.8c0.6,0,1,0.4,1,1S240.1,129.5,239.6,129.5z M221.1,129.5h-6.8c-0.6,0-1-0.4-1-1s0.4-1,1-1h6.8
			c0.6,0,1,0.4,1,1S221.6,129.5,221.1,129.5z M202.6,129.5h-6.8c-0.6,0-1-0.4-1-1s0.4-1,1-1h6.8c0.6,0,1,0.4,1,1
			S203.1,129.5,202.6,129.5z M184.1,129.5h-6.8c-0.6,0-1-0.4-1-1s0.4-1,1-1h6.8c0.6,0,1,0.4,1,1S184.6,129.5,184.1,129.5z
			 M165.6,129.5h-6.8c-0.6,0-1-0.4-1-1s0.4-1,1-1h6.8c0.6,0,1,0.4,1,1S166.1,129.5,165.6,129.5z M147.1,129.5h-6.8c-0.6,0-1-0.4-1-1
			s0.4-1,1-1h6.8c0.6,0,1,0.4,1,1S147.6,129.5,147.1,129.5z M128.6,129.5h-6.8c-0.6,0-1-0.4-1-1s0.4-1,1-1h6.8c0.6,0,1,0.4,1,1
			S129.1,129.5,128.6,129.5z M110.1,129.5h-6.8c-0.6,0-1-0.4-1-1s0.4-1,1-1h6.8c0.6,0,1,0.4,1,1S110.6,129.5,110.1,129.5z
			 M91.6,129.5h-6.8c-0.6,0-1-0.4-1-1s0.4-1,1-1h6.8c0.6,0,1,0.4,1,1S92.1,129.5,91.6,129.5z M73.1,129.5h-6.8c-0.6,0-1-0.4-1-1
			s0.4-1,1-1h6.8c0.6,0,1,0.4,1,1S73.6,129.5,73.1,129.5z M54.6,129.5h-6.8c-0.6,0-1-0.4-1-1s0.4-1,1-1h6.8c0.6,0,1,0.4,1,1
			S55.1,129.5,54.6,129.5z"/>
		<path id="XMLID_418_" clip-path="url(#XMLID_106_)" fill="#D1D1D1" d="M299.5,143.2c-0.6,0-1-0.4-1-1c0-1.3,0.1-2.5,0.2-3.6
			c0.1-0.5,0.6-0.9,1.1-0.9c0.5,0.1,0.9,0.6,0.9,1.1c-0.1,1-0.2,2.1-0.2,3.4C300.5,142.8,300.1,143.2,299.5,143.2z"/>
		<path id="XMLID_432_" clip-path="url(#XMLID_106_)" fill="#D1D1D1" d="M306,131.3c-0.4,0-0.8-0.2-0.9-0.6c-0.2-0.5,0-1.1,0.6-1.3
			c1.8-0.7,4-1.2,6.9-1.5c0.6-0.1,1,0.4,1.1,0.9c0.1,0.5-0.4,1-0.9,1.1c-2.7,0.3-4.7,0.7-6.4,1.3C306.3,131.2,306.1,131.3,306,131.3
			z M534.2,129.5h-6.8c-0.6,0-1-0.4-1-1s0.4-1,1-1h6.8c0.6,0,1,0.4,1,1S534.8,129.5,534.2,129.5z M515.8,129.5H509c-0.6,0-1-0.4-1-1
			s0.4-1,1-1h6.8c0.6,0,1,0.4,1,1S516.3,129.5,515.8,129.5z M497.3,129.5h-6.8c-0.6,0-1-0.4-1-1s0.4-1,1-1h6.8c0.6,0,1,0.4,1,1
			S497.9,129.5,497.3,129.5z M478.8,129.5H472c-0.6,0-1-0.4-1-1s0.4-1,1-1h6.8c0.6,0,1,0.4,1,1S479.4,129.5,478.8,129.5z
			 M460.4,129.5h-6.8c-0.6,0-1-0.4-1-1s0.4-1,1-1h6.8c0.6,0,1,0.4,1,1S460.9,129.5,460.4,129.5z M441.9,129.5h-6.8c-0.6,0-1-0.4-1-1
			s0.4-1,1-1h6.8c0.6,0,1,0.4,1,1S442.5,129.5,441.9,129.5z M423.4,129.5h-6.8c-0.6,0-1-0.4-1-1s0.4-1,1-1h6.8c0.6,0,1,0.4,1,1
			S424,129.5,423.4,129.5z M405,129.5h-6.8c-0.6,0-1-0.4-1-1s0.4-1,1-1h6.8c0.6,0,1,0.4,1,1S405.5,129.5,405,129.5z M386.5,129.5
			h-6.8c-0.6,0-1-0.4-1-1s0.4-1,1-1h6.8c0.6,0,1,0.4,1,1S387.1,129.5,386.5,129.5z M368,129.5h-6.8c-0.6,0-1-0.4-1-1s0.4-1,1-1h6.8
			c0.6,0,1,0.4,1,1S368.6,129.5,368,129.5z M349.6,129.5h-6.8c-0.6,0-1-0.4-1-1s0.4-1,1-1h6.8c0.6,0,1,0.4,1,1
			S350.1,129.5,349.6,129.5z M331.1,129.5h-6.8c-0.6,0-1-0.4-1-1s0.4-1,1-1h6.8c0.6,0,1,0.4,1,1S331.7,129.5,331.1,129.5z"/>
		<path id="XMLID_433_" clip-path="url(#XMLID_106_)" fill="#FF7676" d="M290,201.5c-0.6,0-1-0.4-1-1v-51c0-0.6,0.4-1,1-1s1,0.4,1,1
			v51C291,201.1,290.6,201.5,290,201.5z"/>
		<polygon id="XMLID_434_" clip-path="url(#XMLID_106_)" fill="#FF7676" points="295.5,150.5 290.5,141.9 285.5,150.5 		"/>
		<path id="XMLID_435_" clip-path="url(#XMLID_106_)" fill="#FF7676" d="M290,201.5c-0.6,0-1-0.4-1-1v-36.3c0-0.5,1.1-9.5,13.8-12.2
			c0.5-0.1,1.1,0.2,1.2,0.8c0.1,0.5-0.2,1.1-0.8,1.2c-10.9,2.3-12.1,9.6-12.2,10.3v36.3C291,201.1,290.6,201.5,290,201.5z"/>
		<polygon id="XMLID_436_" clip-path="url(#XMLID_106_)" fill="#FF7676" points="302.7,158 310.7,152 301.5,148 		"/>
		<path id="XMLID_437_" clip-path="url(#XMLID_106_)" fill="#FF7676" d="M291,201.5c-0.6,0-1-0.4-1-1v-36.3
			c-0.1-0.7-1.3-8-12.2-10.3c-0.5-0.1-0.9-0.6-0.8-1.2c0.1-0.5,0.6-0.9,1.2-0.8c12.7,2.7,13.8,11.7,13.8,12.1l0,36.4
			C292,201.1,291.6,201.5,291,201.5z"/>
		<polygon id="XMLID_438_" clip-path="url(#XMLID_106_)" fill="#FF7676" points="279.7,148 270.5,152 278.5,158 		"/>
		<polyline id="XMLID_439_" clip-path="url(#XMLID_106_)" fill="#FCFCFC" points="273.3,113.5 129.5,113.5 129.5,119.5 273.3,119.5 
					"/>
		<path id="XMLID_440_" clip-path="url(#XMLID_106_)" fill="#A1ABD0" d="M521,118.5H149c-0.6,0-1-0.4-1-1s0.4-1,1-1h372
			c0.6,0,1,0.4,1,1S521.6,118.5,521,118.5z"/>
		<path id="XMLID_441_" clip-path="url(#XMLID_106_)" fill="#A1ABD0" d="M252.2,122.2c-0.3,0-0.5-0.1-0.7-0.3l-4.2-4.2
			c-0.4-0.4-0.4-1,0-1.4s1-0.4,1.4,0l4.2,4.2c0.4,0.4,0.4,1,0,1.4C252.7,122.1,252.4,122.2,252.2,122.2z"/>
		<path id="XMLID_442_" clip-path="url(#XMLID_106_)" fill="#A1ABD0" d="M248,118c-0.3,0-0.5-0.1-0.7-0.3c-0.4-0.4-0.4-1,0-1.4
			l4.2-4.2c0.4-0.4,1-0.4,1.4,0s0.4,1,0,1.4l-4.2,4.2C248.5,117.9,248.3,118,248,118z"/>
		<path id="XMLID_443_" clip-path="url(#XMLID_106_)" fill="#A1ABD0" d="M218.2,122.2c-0.3,0-0.5-0.1-0.7-0.3l-4.2-4.2
			c-0.4-0.4-0.4-1,0-1.4s1-0.4,1.4,0l4.2,4.2c0.4,0.4,0.4,1,0,1.4C218.7,122.1,218.4,122.2,218.2,122.2z"/>
		<path id="XMLID_444_" clip-path="url(#XMLID_106_)" fill="#A1ABD0" d="M214,118c-0.3,0-0.5-0.1-0.7-0.3c-0.4-0.4-0.4-1,0-1.4
			l4.2-4.2c0.4-0.4,1-0.4,1.4,0s0.4,1,0,1.4l-4.2,4.2C214.5,117.9,214.3,118,214,118z"/>
		<path id="XMLID_445_" clip-path="url(#XMLID_106_)" fill="#A1ABD0" d="M184.2,122.2c-0.3,0-0.5-0.1-0.7-0.3l-4.2-4.2
			c-0.4-0.4-0.4-1,0-1.4s1-0.4,1.4,0l4.2,4.2c0.4,0.4,0.4,1,0,1.4C184.7,122.1,184.4,122.2,184.2,122.2z"/>
		<path id="XMLID_446_" clip-path="url(#XMLID_106_)" fill="#A1ABD0" d="M180,118c-0.3,0-0.5-0.1-0.7-0.3c-0.4-0.4-0.4-1,0-1.4
			l4.2-4.2c0.4-0.4,1-0.4,1.4,0s0.4,1,0,1.4l-4.2,4.2C180.5,117.9,180.3,118,180,118z"/>
		<path id="XMLID_447_" clip-path="url(#XMLID_106_)" fill="#A1ABD0" d="M282.2,122.2c-0.3,0-0.5-0.1-0.7-0.3l-4.2-4.2
			c-0.4-0.4-0.4-1,0-1.4s1-0.4,1.4,0l4.2,4.2c0.4,0.4,0.4,1,0,1.4C282.7,122.1,282.4,122.2,282.2,122.2z"/>
		<path id="XMLID_448_" clip-path="url(#XMLID_106_)" fill="#A1ABD0" d="M278,118c-0.3,0-0.5-0.1-0.7-0.3c-0.4-0.4-0.4-1,0-1.4
			l4.2-4.2c0.4-0.4,1-0.4,1.4,0s0.4,1,0,1.4l-4.2,4.2C278.5,117.9,278.3,118,278,118z"/>
		<path id="XMLID_449_" clip-path="url(#XMLID_106_)" fill="#A1ABD0" d="M319.2,122.2c-0.3,0-0.5-0.1-0.7-0.3l-4.2-4.2
			c-0.4-0.4-0.4-1,0-1.4s1-0.4,1.4,0l4.2,4.2c0.4,0.4,0.4,1,0,1.4C319.7,122.1,319.4,122.2,319.2,122.2z"/>
		<path id="XMLID_450_" clip-path="url(#XMLID_106_)" fill="#A1ABD0" d="M315,118c-0.3,0-0.5-0.1-0.7-0.3c-0.4-0.4-0.4-1,0-1.4
			l4.2-4.2c0.4-0.4,1-0.4,1.4,0s0.4,1,0,1.4l-4.2,4.2C315.5,117.9,315.3,118,315,118z"/>
		<path id="XMLID_451_" clip-path="url(#XMLID_106_)" fill="#A1ABD0" d="M356.2,122.2c-0.3,0-0.5-0.1-0.7-0.3l-4.2-4.2
			c-0.4-0.4-0.4-1,0-1.4s1-0.4,1.4,0l4.2,4.2c0.4,0.4,0.4,1,0,1.4C356.7,122.1,356.4,122.2,356.2,122.2z"/>
		<path id="XMLID_452_" clip-path="url(#XMLID_106_)" fill="#A1ABD0" d="M352,118c-0.3,0-0.5-0.1-0.7-0.3c-0.4-0.4-0.4-1,0-1.4
			l4.2-4.2c0.4-0.4,1-0.4,1.4,0s0.4,1,0,1.4l-4.2,4.2C352.5,117.9,352.3,118,352,118z"/>
		<path id="XMLID_453_" clip-path="url(#XMLID_106_)" fill="#A1ABD0" d="M393.2,122.2c-0.3,0-0.5-0.1-0.7-0.3l-4.2-4.2
			c-0.4-0.4-0.4-1,0-1.4s1-0.4,1.4,0l4.2,4.2c0.4,0.4,0.4,1,0,1.4C393.7,122.1,393.4,122.2,393.2,122.2z"/>
		<path id="XMLID_454_" clip-path="url(#XMLID_106_)" fill="#A1ABD0" d="M389,118c-0.3,0-0.5-0.1-0.7-0.3c-0.4-0.4-0.4-1,0-1.4
			l4.2-4.2c0.4-0.4,1-0.4,1.4,0s0.4,1,0,1.4l-4.2,4.2C389.5,117.9,389.3,118,389,118z"/>
		<path id="XMLID_455_" clip-path="url(#XMLID_106_)" fill="#A1ABD0" d="M430.2,122.2c-0.3,0-0.5-0.1-0.7-0.3l-4.2-4.2
			c-0.4-0.4-0.4-1,0-1.4s1-0.4,1.4,0l4.2,4.2c0.4,0.4,0.4,1,0,1.4C430.7,122.1,430.4,122.2,430.2,122.2z"/>
		<path id="XMLID_456_" clip-path="url(#XMLID_106_)" fill="#A1ABD0" d="M426,118c-0.3,0-0.5-0.1-0.7-0.3c-0.4-0.4-0.4-1,0-1.4
			l4.2-4.2c0.4-0.4,1-0.4,1.4,0s0.4,1,0,1.4l-4.2,4.2C426.5,117.9,426.3,118,426,118z"/>
		<polyline id="XMLID_457_" clip-path="url(#XMLID_106_)" fill="#FCFCFC" points="123.1,310.3 275.9,228.7 271.9,220.8 119.1,302.5 
					"/>
		<polyline id="XMLID_458_" clip-path="url(#XMLID_106_)" fill="#FCFCFC" points="309.7,284.8 481.7,263.4 480.8,254.6 308.8,276.1 
					"/>
		<polyline id="XMLID_459_" clip-path="url(#XMLID_106_)" fill="#FCFCFC" points="117.2,143.2 249.3,402.7 257,398.7 124.8,139.1 
			117.2,143.2 		"/>
		<polyline id="XMLID_460_" clip-path="url(#XMLID_106_)" fill="#FCFCFC" points="227.1,249.8 239.6,382.1 248.2,381.3 235.7,249 
			227.1,249.8 		"/>
		<polyline id="XMLID_461_" clip-path="url(#XMLID_106_)" fill="#FCFCFC" points="163.7,220.5 104,220.3 103.9,229.1 163.6,229.3 
			163.7,220.5 		"/>
		<polyline id="XMLID_462_" clip-path="url(#XMLID_106_)" fill="#FCFCFC" points="235.6,248.7 214.9,119.6 206.5,121 227.1,250.1 
			235.6,248.7 		"/>
		<path id="XMLID_463_" clip-path="url(#XMLID_106_)" fill="#E5E5E5" d="M243.1,253.7h9.6c1.3,0,2.3,1,2.3,2.3v13.5
			c0,1.3-1,2.3-2.3,2.3h-7.5c-1.1,0-2.1-0.8-2.3-2l-2.1-13.5C240.5,255,241.6,253.7,243.1,253.7z"/>
		<path id="XMLID_464_" clip-path="url(#XMLID_106_)" fill="#E5E5E5" d="M262.2,253.7h-4.7c-0.5,0-1,0.5-1,1v16.1c0,0.5,0.5,1,1,1
			h4.7c0.5,0,1-0.5,1-1v-16.1C263.3,254.2,262.8,253.7,262.2,253.7"/>
		<path id="XMLID_465_" clip-path="url(#XMLID_106_)" fill="#EAEAEB" d="M336.3,321.9h-16.1c-0.5,0-1,0.5-1,1v4.7c0,0.5,0.5,1,1,1
			h16.1c0.5,0,1-0.5,1-1v-4.7C337.4,322.4,336.9,321.9,336.3,321.9"/>
		<path id="XMLID_466_" clip-path="url(#XMLID_106_)" fill="#EAEAEB" d="M336.3,312.6h-16.1c-0.5,0-1,0.5-1,1v4.7c0,0.5,0.5,1,1,1
			h16.1c0.5,0,1-0.5,1-1v-4.7C337.4,313.1,336.9,312.6,336.3,312.6"/>
		<path id="XMLID_467_" clip-path="url(#XMLID_106_)" fill="#E5E5E5" d="M262.6,291.2h-14.9c-1,0-1.8,0.6-1.8,1.2l3,20.1
			c4.8,0.4,1.7,0.8,2.6,0.8h11c1,0,1.8-0.6,1.8-1.2v-19.7C264.4,291.7,263.5,291.2,262.6,291.2"/>
		<path id="XMLID_468_" clip-path="url(#XMLID_106_)" fill="#EAEAEB" d="M336.3,342.5h-16.1c-0.5,0-1,0.5-1,1v8.2c0,0.5,0.5,1,1,1
			h16.1c0.5,0,1-0.5,1-1v-8.2C337.4,343,336.9,342.5,336.3,342.5"/>
		<path id="XMLID_469_" clip-path="url(#XMLID_106_)" fill="#EAEAEB" d="M336.3,330.9h-16.1c-0.5,0-1,0.5-1,1v8.2c0,0.5,0.5,1,1,1
			h16.1c0.5,0,1-0.5,1-1v-8.2C337.4,331.4,336.9,330.9,336.3,330.9"/>
		<path id="XMLID_470_" clip-path="url(#XMLID_106_)" fill="#EAEAEB" d="M336.3,300.6h-16.1c-0.5,0-1,0.5-1,1v8.2c0,0.5,0.5,1,1,1
			h16.1c0.5,0,1-0.5,1-1v-8.2C337.4,301.1,336.9,300.6,336.3,300.6"/>
		<path id="XMLID_471_" clip-path="url(#XMLID_106_)" fill="#EAEAEB" d="M336.3,287.8h-16.1c-0.5,0-1,0.5-1,1v8.2c0,0.5,0.5,1,1,1
			h16.1c0.5,0,1-0.5,1-1v-8.2C337.4,288.3,336.9,287.8,336.3,287.8"/>
		<path id="XMLID_472_" clip-path="url(#XMLID_106_)" fill="#EAEAEB" d="M402.7,279.7c0,0-0.1,0-0.1,0l-4.6,0.5
			c-0.5,0.1-0.9,0.6-0.9,1.1l1.5,13.4l6-6l-0.9-8.1C403.6,280.1,403.2,279.7,402.7,279.7"/>
		<path id="XMLID_473_" clip-path="url(#XMLID_106_)" fill="#EAEAEB" d="M412,278.6c0,0-0.1,0-0.1,0l-4.6,0.5
			c-0.5,0.1-0.9,0.6-0.9,1.1l0.7,6l6-6l-0.1-0.8C412.9,279,412.4,278.6,412,278.6"/>
		<path id="XMLID_474_" clip-path="url(#XMLID_106_)" fill="#EAEAEB" d="M382.2,282.1c0,0-0.1,0-0.1,0L374,283
			c-0.5,0.1-0.9,0.6-0.9,1.1l1.9,16c0.1,0.5,0.5,0.9,1,0.9c0,0,0.1,0,0.1,0l8.2-0.9c0.5-0.1,0.9-0.6,0.9-1.1l-1.9-16
			C383.2,282.5,382.7,282.1,382.2,282.1"/>
		<path id="XMLID_475_" clip-path="url(#XMLID_106_)" fill="#EAEAEB" d="M393.8,280.7c0,0-0.1,0-0.1,0l-8.2,0.9
			c-0.5,0.1-0.9,0.6-0.9,1.1l1.9,16c0.1,0.5,0.5,0.9,1,0.9c0,0,0.1,0,0.1,0l6.8-0.8l2.1-2.1l-1.8-15.2
			C394.7,281.1,394.3,280.7,393.8,280.7"/>
		<path id="XMLID_476_" clip-path="url(#XMLID_106_)" fill="#EAEAEB" d="M336.5,251.7H320c-0.4,0.1-0.8,0.5-0.8,0.9v12.9
			c0,0.5,0.4,0.8,0.8,0.8c0,0,0.1,0,0.1,0l16.5-2c0.4-0.1,0.7-0.4,0.7-0.8v-11C337.4,252.1,336.9,251.7,336.5,251.7"/>
		<path id="XMLID_477_" clip-path="url(#XMLID_106_)" fill="#EAEAEB" d="M336.3,243.5h-16.1c-0.5,0-1,0.5-1,1v4.7c0,0.5,0.5,1,1,1
			h16.1c0.5,0,1-0.5,1-1v-4.7C337.4,244,336.9,243.5,336.3,243.5"/>
		<path id="XMLID_478_" clip-path="url(#XMLID_106_)" fill="#EAEAEB" d="M336.3,210.9h-16.1c-0.5,0-1,0.5-1,1v4.7c0,0.5,0.5,1,1,1
			h16.1c0.5,0,1-0.5,1-1v-4.7C337.4,211.4,336.9,210.9,336.3,210.9"/>
		<path id="XMLID_479_" clip-path="url(#XMLID_106_)" fill="#EAEAEB" d="M336.3,177.2h-16.1c-0.5,0-1,0.5-1,1v4.7c0,0.5,0.5,1,1,1
			h16.1c0.5,0,1-0.5,1-1v-4.7C337.4,177.6,336.9,177.2,336.3,177.2"/>
		<path id="XMLID_480_" clip-path="url(#XMLID_106_)" fill="#EAEAEB" d="M336.3,168.2h-16.1c-0.5,0-1,0.5-1,1v4.7c0,0.5,0.5,1,1,1
			h16.1c0.5,0,1-0.5,1-1v-4.7C337.4,168.6,336.9,168.2,336.3,168.2"/>
		<path id="XMLID_481_" clip-path="url(#XMLID_106_)" fill="#EAEAEB" d="M336.3,232.1h-16.1c-0.5,0-1,0.4-1,1v8.2c0,0.5,0.5,1,1,1
			h16.1c0.5,0,1-0.5,1-1v-8.2C337.4,232.6,336.9,232.1,336.3,232.1"/>
		<path id="XMLID_482_" clip-path="url(#XMLID_106_)" fill="#EAEAEB" d="M336.3,219.9h-16.1c-0.5,0-1,0.5-1,1v8.2c0,0.5,0.5,1,1,1
			h16.1c0.5,0,1-0.5,1-1v-8.2C337.4,220.3,336.9,219.9,336.3,219.9"/>
		<path id="XMLID_483_" clip-path="url(#XMLID_106_)" fill="#EAEAEB" d="M336.3,198.2h-16.1c-0.5,0-1,0.5-1,1v8.2c0,0.5,0.5,1,1,1
			h16.1c0.5,0,1-0.5,1-1v-8.2C337.4,198.7,336.9,198.2,336.3,198.2"/>
		<path id="XMLID_484_" clip-path="url(#XMLID_106_)" fill="#EAEAEB" d="M336.3,155.4h-16.1c-0.5,0-1,0.5-1,1v8.2c0,0.5,0.5,1,1,1
			h16.1c0.5,0,1-0.5,1-1v-8.2C337.4,155.9,336.9,155.4,336.3,155.4"/>
		<path id="XMLID_485_" clip-path="url(#XMLID_106_)" fill="#EAEAEB" d="M336.3,185.7h-16.1c-0.5,0-1,0.5-1,1v8.2c0,0.5,0.5,1,1,1
			h16.1c0.5,0,1-0.5,1-1v-8.2C337.4,186.2,336.9,185.7,336.3,185.7"/>
		<path id="XMLID_486_" clip-path="url(#XMLID_106_)" fill="#EAEAEB" d="M388.5,246.7H372c-0.4,0.1-0.8,0.5-0.8,0.9v12.9
			c0,0.5,0.4,0.8,0.8,0.8c0,0,0.1,0,0.1,0l16.5-2c0.4-0.1,0.7-0.4,0.7-0.8v-11C389.4,247.1,388.9,246.7,388.5,246.7"/>
		<path id="XMLID_487_" clip-path="url(#XMLID_106_)" fill="#EAEAEB" d="M388.3,238.5h-16.1c-0.5,0-1,0.5-1,1v4.7c0,0.5,0.5,1,1,1
			h16.1c0.5,0,1-0.5,1-1v-4.7C389.4,239,388.9,238.5,388.3,238.5"/>
		<path id="XMLID_488_" clip-path="url(#XMLID_106_)" fill="#EAEAEB" d="M388.3,205.9h-16.1c-0.5,0-1,0.5-1,1v4.7c0,0.5,0.5,1,1,1
			h16.1c0.5,0,1-0.5,1-1v-4.7C389.4,206.4,388.9,205.9,388.3,205.9"/>
		<path id="XMLID_489_" clip-path="url(#XMLID_106_)" fill="#EAEAEB" d="M388.3,172.2h-16.1c-0.5,0-1,0.5-1,1v4.7c0,0.5,0.5,1,1,1
			h16.1c0.5,0,1-0.5,1-1v-4.7C389.4,172.6,388.9,172.2,388.3,172.2"/>
		<path id="XMLID_490_" clip-path="url(#XMLID_106_)" fill="#EAEAEB" d="M388.3,163.2h-16.1c-0.5,0-1,0.5-1,1v4.7c0,0.5,0.5,1,1,1
			h16.1c0.5,0,1-0.5,1-1v-4.7C389.4,163.6,388.9,163.2,388.3,163.2"/>
		<path id="XMLID_491_" clip-path="url(#XMLID_106_)" fill="#EAEAEB" d="M388.3,227.1h-16.1c-0.5,0-1,0.4-1,1v8.2c0,0.5,0.5,1,1,1
			h16.1c0.5,0,1-0.5,1-1v-8.2C389.4,227.6,388.9,227.1,388.3,227.1"/>
		<path id="XMLID_492_" clip-path="url(#XMLID_106_)" fill="#EAEAEB" d="M388.3,214.9h-16.1c-0.5,0-1,0.5-1,1v8.2c0,0.5,0.5,1,1,1
			h16.1c0.5,0,1-0.5,1-1v-8.2C389.4,215.3,388.9,214.9,388.3,214.9"/>
		<path id="XMLID_493_" clip-path="url(#XMLID_106_)" fill="#EAEAEB" d="M388.3,193.2h-16.1c-0.5,0-1,0.5-1,1v8.2c0,0.5,0.5,1,1,1
			h16.1c0.5,0,1-0.5,1-1v-8.2C389.4,193.7,388.9,193.2,388.3,193.2"/>
		<path id="XMLID_494_" clip-path="url(#XMLID_106_)" fill="#EAEAEB" d="M388.3,180.7h-16.1c-0.5,0-1,0.5-1,1v8.2c0,0.5,0.5,1,1,1
			h16.1c0.5,0,1-0.5,1-1v-8.2C389.4,181.2,388.9,180.7,388.3,180.7"/>
		<path id="XMLID_495_" clip-path="url(#XMLID_106_)" fill="#E5E5E5" d="M216,215.9c-0.1,0-0.3,0.1-0.5,0.1l-34.9,17.2
			c-0.5,0.3-0.7,0.9-0.5,1.5l9.5,19.4c0.2,0.4,0.6,0.6,0.9,0.6c0.1,0,0.3-0.1,0.5-0.1l29.4-14.6c0.5-0.2,0.7-0.7,0.6-1.2l-4.1-22
			C216.9,216.2,216.4,215.9,216,215.9"/>
		<path id="XMLID_496_" clip-path="url(#XMLID_106_)" fill="#E5E5E5" d="M182.5,219.3c-0.1,0-0.3,0.1-0.5,0.1l-6.7,3.5
			c-0.5,0.3-0.7,0.9-0.5,1.3l2.1,4.2c0.2,0.3,0.5,0.5,0.9,0.5c0.1,0,0.3-0.1,0.5-0.1l6.7-3.5c0.5-0.3,0.7-0.9,0.5-1.3l-2.1-4.2
			C183.2,219.5,182.8,219.3,182.5,219.3"/>
		<path id="XMLID_497_" clip-path="url(#XMLID_106_)" fill="#E5E5E5" d="M167.9,186.9c-0.1,0-0.3,0.1-0.5,0.1l-6.7,3.5
			c-0.5,0.3-0.7,0.9-0.5,1.3l2.1,4.2c0.2,0.3,0.5,0.5,0.9,0.5c0.1,0,0.3-0.1,0.5-0.1l6.7-3.5c0.5-0.3,0.7-0.9,0.5-1.3l-2.1-4.2
			C168.6,187.1,168.3,186.9,167.9,186.9"/>
		<path id="XMLID_498_" clip-path="url(#XMLID_106_)" fill="#E5E5E5" d="M184.4,204.5c-0.1,0-0.3,0.1-0.5,0.1l-14.1,7.3
			c-0.5,0.3-0.7,0.9-0.5,1.3l3.7,7.5c0.2,0.3,0.5,0.5,0.9,0.5c0.1,0,0.3-0.1,0.5-0.1l14.1-7.2c0.5-0.3,0.7-0.9,0.5-1.3l-3.7-7.5
			C185.1,204.7,184.8,204.5,184.4,204.5"/>
		<path id="XMLID_499_" clip-path="url(#XMLID_106_)" fill="#E5E5E5" d="M178.9,192.5c-0.1,0-0.3,0.1-0.5,0.1l-14.1,7.3
			c-0.5,0.3-0.7,0.9-0.5,1.3l3.7,7.5c0.2,0.3,0.5,0.5,0.9,0.5c0.1,0,0.3-0.1,0.5-0.1l14.1-7.2c0.5-0.3,0.7-0.9,0.5-1.3l-3.7-7.5
			C179.6,192.7,179.3,192.5,178.9,192.5"/>
		<path id="XMLID_500_" clip-path="url(#XMLID_106_)" fill="#E5E5E5" d="M208.5,171.9h-0.2l-7.4,1.3c-0.5,0.1-0.9,0.6-0.8,1.2
			l0.8,4.7c0.1,0.5,0.5,0.9,1,0.9h0.2l7.4-1.3c0.5-0.1,0.9-0.6,0.8-1.2l-0.8-4.7C209.3,172.2,208.9,171.9,208.5,171.9"/>
		<path id="XMLID_501_" clip-path="url(#XMLID_106_)" fill="#E5E5E5" d="M209.8,180.4h-0.2l-15.5,2.8c-0.5,0.1-0.9,0.6-0.8,1.2
			l1.4,8.3c0.1,0.5,0.5,0.9,1,0.9h0.2l15.5-2.8c0.5-0.1,0.9-0.6,0.8-1.2l-1.4-8.3C210.8,180.7,210.4,180.4,209.8,180.4"/>
		<path id="XMLID_502_" clip-path="url(#XMLID_106_)" fill="#E5E5E5" d="M211.9,192.5L211.9,192.5h-0.2l-15.5,2.8
			c-0.5,0.1-0.9,0.6-0.8,1.2l1.4,8.3c0.1,0.5,0.5,0.9,1,0.9h0.2l15.5-2.8c0.5-0.1,0.9-0.6,0.8-1.2l-1.4-8.3
			C212.8,192.8,212.4,192.5,211.9,192.5"/>
		<path id="XMLID_503_" clip-path="url(#XMLID_106_)" fill="#E5E5E5" d="M214.9,205.1L214.9,205.1h-0.2l-15.5,2.8
			c-0.5,0.1-0.9,0.6-0.8,1.2l0.8,4.7c0.1,0.5,0.5,0.9,1,0.9h0.2l15.5-2.8c0.5-0.1,0.9-0.6,0.8-1.2l-0.8-4.7
			C215.8,205.5,215.4,205.1,214.9,205.1"/>
		<path id="XMLID_504_" clip-path="url(#XMLID_106_)" fill="#E5E5E5" d="M261.5,275.3h-16.6c-1.1,0-1.9,1-1.7,2.1l1.7,9.6
			c0.1,0.9,0.9,1.5,1.7,1.5h14.8c1,0,1.7-0.8,1.7-1.7v-9.6C263.3,276.1,262.5,275.3,261.5,275.3"/>
		<path id="XMLID_505_" clip-path="url(#XMLID_106_)" fill="#E5E5E5" d="M223.6,261.5L223.6,261.5c-0.2,0-0.3,0.1-0.5,0.1
			l-23.8,13.5c-0.5,0.3-0.7,0.9-0.4,1.5l30.5,56.6c0.2,0.4,0.5,0.5,0.9,0.5c0.6,0,1.1-0.5,1.1-1.2l-6.6-70.1
			C224.6,261.9,224.2,261.5,223.6,261.5"/>
		<polyline id="XMLID_506_" clip-path="url(#XMLID_106_)" fill="#FCFCFC" points="397,139.2 397.9,269 406.6,269 405.6,139.1 		"/>
		<polyline id="XMLID_508_" clip-path="url(#XMLID_106_)" fill="#FCFCFC" points="457.3,140.4 401.8,268 411.9,269.7 465.4,143.6 
			457.3,140.4 		"/>
		<path id="XMLID_509_" clip-path="url(#XMLID_106_)" fill="#E5E5E5" d="M440.8,158L440.8,158c-0.2-0.1-0.3-0.1-0.5-0.1l-27.4,0.8
			c-0.6,0-1.1,0.5-1,1.1l0.7,64.3c0,0.4,0.2,0.7,0.6,0.9c0.5,0.3,1.2,0.1,1.5-0.6l26.7-65.1C441.5,158.8,441.3,158.3,440.8,158"/>
		<circle id="XMLID_510_" clip-path="url(#XMLID_106_)" fill="#FFB8C7" cx="151" cy="265.9" r="2.1"/>
		<circle id="XMLID_511_" clip-path="url(#XMLID_106_)" fill="#F6F7F9" cx="146.8" cy="252.7" r="2.1"/>
		<rect id="XMLID_512_" x="344" y="145.5" clip-path="url(#XMLID_106_)" fill="#FCFCFC" width="20" height="290"/>
		<ellipse id="XMLID_513_" clip-path="url(#XMLID_106_)" fill="#9ACFE2" cx="461.4" cy="385.8" rx="72.7" ry="74.4"/>
		<path id="XMLID_514_" clip-path="url(#XMLID_106_)" fill="#FCFCFC" d="M541.2,387.1h-4.3c0,21.9-8.7,41.8-22.7,56.2
			c-14.1,14.4-33.4,23.3-54.9,23.3c-21.4,0-40.8-8.9-54.9-23.3c-14.1-14.4-22.7-34.2-22.7-56.2c0-21.9,8.7-41.8,22.7-56.2
			c14.1-14.4,33.4-23.3,54.9-23.3c21.4,0,40.8,8.9,54.9,23.3c14.1,14.4,22.7,34.2,22.7,56.2H541.2h4.3c0-48.8-38.6-88.2-86.2-88.2
			c-47.6,0-86.2,39.5-86.2,88.2s38.6,88.2,86.2,88.2c47.6,0,86.2-39.5,86.2-88.2H541.2z"/>
		<circle id="XMLID_515_" clip-path="url(#XMLID_106_)" fill="#A9DEEB" cx="435" cy="357.4" r="2.1"/>
		<path id="XMLID_516_" clip-path="url(#XMLID_106_)" fill="#A1ABD0" d="M-60,403.8c-0.4,0-0.7-0.2-0.9-0.5
			c-0.3-0.5-0.1-1.1,0.4-1.4L275,224.3c0.5-0.3,1.1-0.1,1.4,0.4c0.3,0.5,0.1,1.1-0.4,1.4L-59.5,403.6
			C-59.7,403.7-59.8,403.8-60,403.8z"/>
		<path id="XMLID_517_" clip-path="url(#XMLID_106_)" fill="#A1ABD0" d="M306.5,283c-0.5,0-0.9-0.4-1-0.9c-0.1-0.5,0.3-1,0.9-1.1
			L486,258c0.6-0.1,1,0.3,1.1,0.9c0.1,0.5-0.3,1-0.9,1.1l-179.7,23L306.5,283z"/>
		<path id="XMLID_518_" clip-path="url(#XMLID_106_)" fill="#A1ABD0" d="M157.5,293.8c-0.1,0-0.2,0-0.3,0l-5.7-1.8
			c-0.5-0.2-0.8-0.7-0.7-1.3c0.2-0.5,0.7-0.8,1.3-0.7l5.7,1.8c0.5,0.2,0.8,0.7,0.7,1.3C158.3,293.5,157.9,293.8,157.5,293.8z"/>
		<path id="XMLID_519_" clip-path="url(#XMLID_106_)" fill="#A1ABD0" d="M151.8,292c-0.1,0-0.2,0-0.3,0c-0.5-0.2-0.8-0.7-0.7-1.3
			l1.8-5.7c0.2-0.5,0.7-0.8,1.3-0.7c0.5,0.2,0.8,0.7,0.7,1.3l-1.8,5.7C152.7,291.8,152.3,292,151.8,292z"/>
		<path id="XMLID_520_" clip-path="url(#XMLID_106_)" fill="#A1ABD0" d="M192.7,275.2c-0.1,0-0.2,0-0.3,0l-5.7-1.8
			c-0.5-0.2-0.8-0.7-0.7-1.3c0.2-0.5,0.7-0.8,1.3-0.7l5.7,1.8c0.5,0.2,0.8,0.7,0.7,1.3C193.6,275,193.2,275.2,192.7,275.2z"/>
		<path id="XMLID_521_" clip-path="url(#XMLID_106_)" fill="#A1ABD0" d="M187.1,273.5c-0.1,0-0.2,0-0.3,0c-0.5-0.2-0.8-0.7-0.7-1.3
			l1.8-5.7c0.2-0.5,0.7-0.8,1.3-0.7c0.5,0.2,0.8,0.7,0.7,1.3l-1.8,5.7C187.9,273.2,187.5,273.5,187.1,273.5z"/>
		<path id="XMLID_522_" clip-path="url(#XMLID_106_)" fill="#A1ABD0" d="M332,280.1c-0.2,0-0.4-0.1-0.6-0.2l-4.7-3.6
			c-0.4-0.3-0.5-1-0.2-1.4c0.3-0.4,1-0.5,1.4-0.2l4.7,3.6c0.4,0.3,0.5,1,0.2,1.4C332.6,280,332.3,280.1,332,280.1z"/>
		<path id="XMLID_523_" clip-path="url(#XMLID_106_)" fill="#A1ABD0" d="M328.4,284.9c-0.2,0-0.4-0.1-0.6-0.2
			c-0.4-0.3-0.5-1-0.2-1.4l3.7-4.8c0.3-0.4,1-0.5,1.4-0.2c0.4,0.3,0.5,1,0.2,1.4l-3.7,4.8C329,284.8,328.7,284.9,328.4,284.9z"/>
		<path id="XMLID_524_" clip-path="url(#XMLID_106_)" fill="#A1ABD0" d="M361,276.1c-0.2,0-0.4-0.1-0.6-0.2l-4.7-3.6
			c-0.4-0.3-0.5-1-0.2-1.4c0.3-0.4,1-0.5,1.4-0.2l4.7,3.6c0.4,0.3,0.5,1,0.2,1.4C361.6,276,361.3,276.1,361,276.1z"/>
		<path id="XMLID_525_" clip-path="url(#XMLID_106_)" fill="#A1ABD0" d="M357.4,280.9c-0.2,0-0.4-0.1-0.6-0.2
			c-0.4-0.3-0.5-1-0.2-1.4l3.7-4.8c0.3-0.4,1-0.5,1.4-0.2c0.4,0.3,0.5,1,0.2,1.4l-3.7,4.8C358,280.8,357.7,280.9,357.4,280.9z"/>
		<path id="XMLID_526_" clip-path="url(#XMLID_106_)" fill="#A1ABD0" d="M390,272.1c-0.2,0-0.4-0.1-0.6-0.2l-4.7-3.6
			c-0.4-0.3-0.5-1-0.2-1.4c0.3-0.4,1-0.5,1.4-0.2l4.7,3.6c0.4,0.3,0.5,1,0.2,1.4C390.6,272,390.3,272.1,390,272.1z"/>
		<path id="XMLID_527_" clip-path="url(#XMLID_106_)" fill="#A1ABD0" d="M386.4,276.9c-0.2,0-0.4-0.1-0.6-0.2
			c-0.4-0.3-0.5-1-0.2-1.4l3.7-4.8c0.3-0.4,1-0.5,1.4-0.2c0.4,0.3,0.5,1,0.2,1.4l-3.7,4.8C387,276.8,386.7,276.9,386.4,276.9z"/>
		<path id="XMLID_528_" clip-path="url(#XMLID_106_)" fill="#A1ABD0" d="M419,268.1c-0.2,0-0.4-0.1-0.6-0.2l-4.7-3.6
			c-0.4-0.3-0.5-1-0.2-1.4c0.3-0.4,1-0.5,1.4-0.2l4.7,3.6c0.4,0.3,0.5,1,0.2,1.4C419.6,268,419.3,268.1,419,268.1z"/>
		<path id="XMLID_529_" clip-path="url(#XMLID_106_)" fill="#A1ABD0" d="M415.4,272.9c-0.2,0-0.4-0.1-0.6-0.2
			c-0.4-0.3-0.5-1-0.2-1.4l3.7-4.8c0.3-0.4,1-0.5,1.4-0.2c0.4,0.3,0.5,1,0.2,1.4l-3.7,4.8C416,272.8,415.7,272.9,415.4,272.9z"/>
		<path id="XMLID_530_" clip-path="url(#XMLID_106_)" fill="#A1ABD0" d="M448,264.1c-0.2,0-0.4-0.1-0.6-0.2l-4.7-3.6
			c-0.4-0.3-0.5-1-0.2-1.4c0.3-0.4,1-0.5,1.4-0.2l4.7,3.6c0.4,0.3,0.5,1,0.2,1.4C448.6,264,448.3,264.1,448,264.1z"/>
		<path id="XMLID_531_" clip-path="url(#XMLID_106_)" fill="#A1ABD0" d="M444.4,268.9c-0.2,0-0.4-0.1-0.6-0.2
			c-0.4-0.3-0.5-1-0.2-1.4l3.7-4.8c0.3-0.4,1-0.5,1.4-0.2s0.5,1,0.2,1.4l-3.7,4.8C445,268.8,444.7,268.9,444.4,268.9z"/>
		<path id="XMLID_532_" clip-path="url(#XMLID_106_)" fill="#A1ABD0" d="M302.7,312.5c-0.3,0-0.5-0.1-0.7-0.3c-0.4-0.4-0.4-1,0-1.4
			l4.2-4.2c0.4-0.4,1-0.4,1.4,0c0.4,0.4,0.4,1,0,1.4l-4.2,4.2C303.2,312.4,303,312.5,302.7,312.5z"/>
		<path id="XMLID_533_" clip-path="url(#XMLID_106_)" fill="#A1ABD0" d="M311.1,312.6c-0.3,0-0.5-0.1-0.7-0.3l-4.2-4.3
			c-0.4-0.4-0.4-1,0-1.4c0.4-0.4,1-0.4,1.4,0l4.2,4.3c0.4,0.4,0.4,1,0,1.4C311.6,312.5,311.4,312.6,311.1,312.6z"/>
		<path id="XMLID_534_" clip-path="url(#XMLID_106_)" fill="#A1ABD0" d="M302.7,350.5c-0.3,0-0.5-0.1-0.7-0.3c-0.4-0.4-0.4-1,0-1.4
			l4.2-4.2c0.4-0.4,1-0.4,1.4,0c0.4,0.4,0.4,1,0,1.4l-4.2,4.2C303.2,350.4,303,350.5,302.7,350.5z"/>
		<path id="XMLID_535_" clip-path="url(#XMLID_106_)" fill="#A1ABD0" d="M311.1,350.6c-0.3,0-0.5-0.1-0.7-0.3l-4.2-4.3
			c-0.4-0.4-0.4-1,0-1.4c0.4-0.4,1-0.4,1.4,0l4.2,4.3c0.4,0.4,0.4,1,0,1.4C311.6,350.5,311.4,350.6,311.1,350.6z"/>
		<path id="XMLID_536_" clip-path="url(#XMLID_106_)" fill="#A1ABD0" d="M302.7,388.5c-0.3,0-0.5-0.1-0.7-0.3c-0.4-0.4-0.4-1,0-1.4
			l4.2-4.2c0.4-0.4,1-0.4,1.4,0c0.4,0.4,0.4,1,0,1.4l-4.2,4.2C303.2,388.4,303,388.5,302.7,388.5z"/>
		<path id="XMLID_537_" clip-path="url(#XMLID_106_)" fill="#A1ABD0" d="M311.1,388.6c-0.3,0-0.5-0.1-0.7-0.3l-4.2-4.3
			c-0.4-0.4-0.4-1,0-1.4c0.4-0.4,1-0.4,1.4,0l4.2,4.3c0.4,0.4,0.4,1,0,1.4C311.6,388.5,311.4,388.6,311.1,388.6z"/>
		<path id="XMLID_538_" clip-path="url(#XMLID_106_)" fill="#A1ABD0" d="M271.7,282.5c-0.3,0-0.5-0.1-0.7-0.3c-0.4-0.4-0.4-1,0-1.4
			l4.2-4.2c0.4-0.4,1-0.4,1.4,0c0.4,0.4,0.4,1,0,1.4l-4.2,4.2C272.2,282.4,272,282.5,271.7,282.5z"/>
		<path id="XMLID_539_" clip-path="url(#XMLID_106_)" fill="#A1ABD0" d="M280.1,282.6c-0.3,0-0.5-0.1-0.7-0.3l-4.2-4.3
			c-0.4-0.4-0.4-1,0-1.4c0.4-0.4,1-0.4,1.4,0l4.2,4.3c0.4,0.4,0.4,1,0,1.4C280.6,282.5,280.4,282.6,280.1,282.6z"/>
		<path id="XMLID_540_" clip-path="url(#XMLID_106_)" fill="#A1ABD0" d="M271.7,320.5c-0.3,0-0.5-0.1-0.7-0.3c-0.4-0.4-0.4-1,0-1.4
			l4.2-4.2c0.4-0.4,1-0.4,1.4,0c0.4,0.4,0.4,1,0,1.4l-4.2,4.2C272.2,320.4,272,320.5,271.7,320.5z"/>
		<path id="XMLID_541_" clip-path="url(#XMLID_106_)" fill="#A1ABD0" d="M280.1,320.6c-0.3,0-0.5-0.1-0.7-0.3l-4.2-4.3
			c-0.4-0.4-0.4-1,0-1.4c0.4-0.4,1-0.4,1.4,0l4.2,4.3c0.4,0.4,0.4,1,0,1.4C280.6,320.5,280.4,320.6,280.1,320.6z"/>
		<path id="XMLID_542_" clip-path="url(#XMLID_106_)" fill="#A1ABD0" d="M271.7,358.5c-0.3,0-0.5-0.1-0.7-0.3c-0.4-0.4-0.4-1,0-1.4
			l4.2-4.2c0.4-0.4,1-0.4,1.4,0c0.4,0.4,0.4,1,0,1.4l-4.2,4.2C272.2,358.4,272,358.5,271.7,358.5z"/>
		<path id="XMLID_543_" clip-path="url(#XMLID_106_)" fill="#A1ABD0" d="M280.1,358.6c-0.3,0-0.5-0.1-0.7-0.3l-4.2-4.3
			c-0.4-0.4-0.4-1,0-1.4c0.4-0.4,1-0.4,1.4,0l4.2,4.3c0.4,0.4,0.4,1,0,1.4C280.6,358.5,280.4,358.6,280.1,358.6z"/>
		<path id="XMLID_544_" clip-path="url(#XMLID_106_)" fill="#A1ABD0" d="M228,256.7c-0.1,0-0.2,0-0.3,0l-5.7-1.8
			c-0.5-0.2-0.8-0.7-0.7-1.3s0.7-0.8,1.3-0.7l5.7,1.8c0.5,0.2,0.8,0.7,0.7,1.3C228.8,256.4,228.4,256.7,228,256.7z"/>
		<path id="XMLID_545_" clip-path="url(#XMLID_106_)" fill="#A1ABD0" d="M222.3,254.9c-0.1,0-0.2,0-0.3,0c-0.5-0.2-0.8-0.7-0.7-1.3
			l1.8-5.7c0.2-0.5,0.7-0.8,1.3-0.7c0.5,0.2,0.8,0.7,0.7,1.3l-1.8,5.7C223.1,254.6,222.7,254.9,222.3,254.9z"/>
		<path id="XMLID_546_" clip-path="url(#XMLID_106_)" fill="#A1ABD0" d="M275,428.5c-0.6,0-1-0.4-1-1v-202c0-0.6,0.4-1,1-1
			s1,0.4,1,1v202C276,428.1,275.6,428.5,275,428.5z"/>
		<path id="XMLID_547_" clip-path="url(#XMLID_106_)" fill="#A1ABD0" d="M306,485.5c-0.6,0-1-0.4-1-1v-202c0-0.6,0.4-1,1-1
			s1,0.4,1,1v202C307,485.1,306.6,485.5,306,485.5z"/>
	</g>
</g>
</svg>
