<?xml version="1.0" encoding="utf-8"?>
<!-- Generator: Adobe Illustrator 19.0.0, SVG Export Plug-In . SVG Version: 6.00 Build 0)  -->
<svg version="1.1" id="Layer_1" xmlns="http://www.w3.org/2000/svg" xmlns:xlink="http://www.w3.org/1999/xlink" x="0px" y="0px"
	 viewBox="0 0 400 352.5" enable-background="new 0 0 400 352.5" xml:space="preserve">
<g id="XMLID_53_">
	<g id="XMLID_57_">
		<defs>
			<path id="XMLID_56_" d="M86.7,40.5h221.8c8.3,0,15,6.7,15,15v221.8c0,8.3-6.7,15-15,15H86.7c-8.3,0-15-6.7-15-15V55.4
				C71.7,47.2,78.4,40.5,86.7,40.5"/>
		</defs>
		<clipPath id="XMLID_172_">
			<use xlink:href="#XMLID_56_"  overflow="visible"/>
		</clipPath>
		<polyline id="XMLID_58_" clip-path="url(#XMLID_172_)" fill="#FBFBFB" points="104.3,322.4 104.3,33.1 323.5,33.1 323.5,322.4 
			104.3,322.4 		"/>
		<polyline id="XMLID_59_" clip-path="url(#XMLID_172_)" fill="#F6F7F9" points="-8,32.5 335.6,32.5 335.6,321.7 -8,321.7 -8,32.5 
					"/>
		<ellipse id="XMLID_60_" clip-path="url(#XMLID_172_)" fill="#9ACFE2" cx="81.8" cy="261.1" rx="82.9" ry="84.9"/>
		<polyline id="XMLID_61_" clip-path="url(#XMLID_172_)" fill="#FCFCFC" points="332.3,106.5 157.9,199.7 162.5,208.7 336.9,115.4 
					"/>
		<polyline id="XMLID_62_" clip-path="url(#XMLID_172_)" fill="#FCFCFC" points="339,297.3 188.3,1.1 179.5,5.7 330.3,301.9 
			339,297.3 		"/>
		<polyline id="XMLID_63_" clip-path="url(#XMLID_172_)" fill="#FCFCFC" points="213.6,175.5 199.3,24.6 189.5,25.6 203.8,176.5 
			213.6,175.5 		"/>
		<path id="XMLID_64_" clip-path="url(#XMLID_172_)" fill="#FCFCFC" d="M-9.3,259.7h4.9c0-25,9.9-47.7,25.9-64.1
			c16-16.4,38.2-26.6,62.6-26.6c24.4,0,46.6,10.1,62.6,26.6c16,16.4,25.9,39.1,25.9,64.1s-9.9,47.7-25.9,64.1
			c-16,16.4-38.2,26.6-62.6,26.6c-24.4,0-46.6-10.1-62.6-26.6c-16-16.4-25.9-39.1-25.9-64.1H-9.3h-4.9c0,55.6,44,100.7,98.4,100.7
			c54.3,0,98.4-45.1,98.4-100.7S138.4,159,84.1,159c-54.3,0-98.4,45.1-98.4,100.7H-9.3z"/>
		<path id="XMLID_65_" clip-path="url(#XMLID_172_)" fill="#F6F7F9" d="M332.5,98.3l-66.7,35.6c-0.7,0.4-1.6,0.1-2-0.7l-58.8-119
			L322.8-0.1L332.5,98.3"/>
		<path id="XMLID_66_" clip-path="url(#XMLID_172_)" fill="#EFEFEF" d="M276.2,69.5c-0.2-0.4-0.8-0.4-1,0l-3.3,8.5l-3.5,9.1
			c-0.2,0.4,0.2,0.7,0.5,0.7h6.8h6.8c0.4,0,0.6-0.4,0.5-0.7l-3.5-9.1L276.2,69.5"/>
		<path id="XMLID_67_" clip-path="url(#XMLID_172_)" fill="#B8BCC0" d="M276.3,87.9h-1.4v1.3c0.1,0.4,0.3,0.7,0.7,0.7
			s0.7-0.3,0.7-0.7V87.9"/>
		<path id="XMLID_68_" clip-path="url(#XMLID_172_)" fill="#EFEFEF" d="M249.1,47.9c-0.2-0.4-0.8-0.4-1,0l-3.3,8.5l-3.5,9.1
			c-0.2,0.4,0.2,0.7,0.5,0.7h6.8h6.8c0.4,0,0.6-0.4,0.5-0.7l-3.5-9.1L249.1,47.9"/>
		<path id="XMLID_69_" clip-path="url(#XMLID_172_)" fill="#B8BCC0" d="M249.3,66.3h-1.4v1.3c0.1,0.4,0.3,0.7,0.7,0.7
			c0.4,0,0.7-0.3,0.7-0.7V66.3"/>
		<path id="XMLID_70_" clip-path="url(#XMLID_172_)" fill="#EFEFEF" d="M293.7,42.5c-0.2-0.4-0.8-0.4-1,0l-3.3,8.5l-3.5,9.1
			c-0.2,0.4,0.2,0.7,0.5,0.7h6.8h6.8c0.4,0,0.6-0.4,0.5-0.7l-3.5-9.1L293.7,42.5"/>
		<path id="XMLID_71_" clip-path="url(#XMLID_172_)" fill="#B8BCC0" d="M293.9,61h-1.4v1.3c0.1,0.4,0.3,0.7,0.7,0.7s0.7-0.3,0.7-0.7
			V61"/>
		<polyline id="XMLID_72_" clip-path="url(#XMLID_172_)" fill="#FCFCFC" points="200.6,106.3 36.5,106.3 36.5,113.1 200.6,113.1 		
			"/>
		<polyline id="XMLID_73_" clip-path="url(#XMLID_172_)" fill="#FCFCFC" points="286,209.1 354,209.2 354.1,199.3 286,199 
			286,209.1 		"/>
		<polyline id="XMLID_74_" clip-path="url(#XMLID_172_)" fill="#FCFCFC" points="203.9,176.8 227.5,324.2 237.1,322.6 213.6,175.2 
			203.9,176.8 		"/>
		<path id="XMLID_75_" clip-path="url(#XMLID_172_)" fill="#F1F2F3" d="M187.6,76.1h-8.5c-1.5,0-2.6,1.2-2.6,2.6v15.4
			c0,1.5,1.2,2.6,2.6,2.6H190c1.6,0,2.9-1.4,2.6-3.1l-2.4-15.4C190,77,188.9,76.1,187.6,76.1"/>
		<path id="XMLID_76_" clip-path="url(#XMLID_172_)" fill="#F1F2F3" d="M173.4,76.1h-5.3c-0.6,0-1.1,0.5-1.1,1.2v18.4
			c-0.1,0.6,0.5,1.2,1.1,1.2h5.3c0.6,0,1.1-0.5,1.1-1.2V77.2C174.6,76.6,174,76.1,173.4,76.1"/>
		<path id="XMLID_77_" clip-path="url(#XMLID_172_)" fill="#F1F2F3" d="M151.2,76.1h-5.3c-0.6,0-1.1,0.5-1.1,1.2v18.4
			c0,0.6,0.5,1.2,1.1,1.2h5.3c0.6,0,1.1-0.5,1.1-1.2V77.2C152.3,76.6,151.8,76.1,151.2,76.1"/>
		<path id="XMLID_78_" clip-path="url(#XMLID_172_)" fill="#F1F2F3" d="M74.4,76.1h-2.7v20.7h2.7c0.6,0,1.1-0.5,1.1-1.2V77.2
			C75.5,76.6,75,76.1,74.4,76.1"/>
		<path id="XMLID_79_" clip-path="url(#XMLID_172_)" fill="#F1F2F3" d="M164.4,76.1H155c-0.6,0-1.1,0.5-1.1,1.2v18.4
			c0,0.6,0.5,1.2,1.1,1.2h9.4c0.6,0,1.1-0.5,1.1-1.2V77.2C165.5,76.6,165,76.1,164.4,76.1"/>
		<path id="XMLID_80_" clip-path="url(#XMLID_172_)" fill="#F1F2F3" d="M184.9,40.5h-19.2v12.2c0,0.7,1,1.4,2,1.4h17
			c1.1,0,2-0.7,2-1.4L184.9,40.5"/>
		<path id="XMLID_81_" clip-path="url(#XMLID_172_)" fill="#F1F2F3" d="M101.9,76.1h-9.4c-0.6,0-1.1,0.5-1.1,1.2v18.4
			c0,0.6,0.5,1.2,1.1,1.2h9.4c0.6,0,1.1-0.5,1.1-1.2V77.2C103.1,76.6,102.5,76.1,101.9,76.1"/>
		<path id="XMLID_82_" clip-path="url(#XMLID_172_)" fill="#F1F2F3" d="M88.7,76.1h-9.4c-0.6,0-1.1,0.5-1.1,1.2v18.4
			c0,0.6,0.5,1.2,1.1,1.2h9.4c0.6,0,1.1-0.5,1.1-1.2V77.2C89.8,76.6,89.3,76.1,88.7,76.1"/>
		<path id="XMLID_83_" clip-path="url(#XMLID_172_)" fill="#F1F2F3" d="M191.4,117.4h-12.5c-0.5,0-1,0.5-1,1v18.8
			c0.2,0.5,0.5,0.9,1,0.9h14.7c0.6,0,1-0.5,0.9-1.1l-2.2-18.8C192.3,117.8,191.9,117.4,191.4,117.4"/>
		<path id="XMLID_84_" clip-path="url(#XMLID_172_)" fill="#F1F2F3" d="M175,117.4h-5.3c-0.6,0-1.1,0.5-1.1,1.2v18.4
			c0,0.6,0.5,1.2,1.1,1.2h5.3c0.6,0,1.1-0.5,1.1-1.2v-18.4C176.1,117.9,175.6,117.4,175,117.4"/>
		<path id="XMLID_85_" clip-path="url(#XMLID_172_)" fill="#F1F2F3" d="M137.8,117.4h-5.3c-0.6,0-1.1,0.5-1.1,1.2v18.4
			c0,0.6,0.5,1.2,1.1,1.2h5.3c0.6,0,1.1-0.5,1.1-1.2v-18.4C139,117.9,138.4,117.4,137.8,117.4"/>
		<path id="XMLID_86_" clip-path="url(#XMLID_172_)" fill="#F1F2F3" d="M99.3,117.4H94c-0.6,0-1.1,0.5-1.1,1.2v18.4
			c0,0.6,0.5,1.2,1.1,1.2h5.3c0.6,0,1.1-0.5,1.1-1.2v-18.4C100.4,117.9,99.9,117.4,99.3,117.4"/>
		<path id="XMLID_87_" clip-path="url(#XMLID_172_)" fill="#F1F2F3" d="M89,117.4h-5.3c-0.6,0-1.1,0.5-1.1,1.2v18.4
			c0,0.6,0.5,1.2,1.1,1.2H89c0.6,0,1.1-0.5,1.1-1.2v-18.4C90.1,117.9,89.6,117.4,89,117.4"/>
		<path id="XMLID_88_" clip-path="url(#XMLID_172_)" fill="#F1F2F3" d="M166,117.4h-9.4c-0.6,0-1.1,0.5-1.1,1.2v18.4
			c0,0.6,0.4,1.2,1.1,1.2h9.4c0.6,0,1.1-0.5,1.1-1.2v-18.4C167.1,117.9,166.6,117.4,166,117.4"/>
		<path id="XMLID_89_" clip-path="url(#XMLID_172_)" fill="#F1F2F3" d="M152.1,117.4h-9.4c-0.6,0-1.1,0.5-1.1,1.2v18.4
			c0,0.6,0.5,1.2,1.1,1.2h9.4c0.6,0,1.1-0.5,1.1-1.2v-18.4C153.2,117.9,152.7,117.4,152.1,117.4"/>
		<path id="XMLID_90_" clip-path="url(#XMLID_172_)" fill="#F1F2F3" d="M127.4,117.4H118c-0.6,0-1.1,0.5-1.1,1.2v18.4
			c0,0.6,0.5,1.2,1.1,1.2h9.4c0.6,0,1.1-0.5,1.1-1.2v-18.4C128.5,117.9,128,117.4,127.4,117.4"/>
		<path id="XMLID_91_" clip-path="url(#XMLID_172_)" fill="#F1F2F3" d="M78.6,117.4h-6.9v20.7h6.9c0.6,0,1.1-0.5,1.1-1.2v-18.4
			C79.7,117.9,79.2,117.4,78.6,117.4"/>
		<path id="XMLID_92_" clip-path="url(#XMLID_172_)" fill="#F1F2F3" d="M113.1,117.4h-9.4c-0.6,0-1.1,0.5-1.1,1.2v18.4
			c0,0.6,0.5,1.2,1.1,1.2h9.4c0.6,0,1.1-0.5,1.1-1.2v-18.4C114.2,117.9,113.7,117.4,113.1,117.4"/>
		<path id="XMLID_93_" clip-path="url(#XMLID_172_)" fill="#F1F2F3" d="M255.2,170c-0.2,0-0.4,0.1-0.5,0.2l-33.6,16.7
			c-0.5,0.2-0.7,0.8-0.7,1.4l4.7,25.1c0.1,0.6,0.6,1,1.1,1c0.1,0,0.4-0.1,0.5-0.2l39.8-19.6c0.6-0.3,0.8-1.1,0.5-1.7l-10.9-22.1
			C256.1,170.2,255.6,170,255.2,170"/>
		<path id="XMLID_94_" clip-path="url(#XMLID_172_)" fill="#F1F2F3" d="M269.8,199.3c-0.1,0-0.4,0.1-0.5,0.2l-7.6,4
			c-0.5,0.3-0.7,1-0.5,1.5l2.4,4.8c0.2,0.4,0.6,0.6,1,0.6c0.2,0,0.4-0.1,0.5-0.2l7.6-4c0.5-0.3,0.7-1,0.5-1.5l-2.4-4.8
			C270.6,199.5,270.2,199.3,269.8,199.3"/>
		<path id="XMLID_95_" clip-path="url(#XMLID_172_)" fill="#F1F2F3" d="M286.4,236.2c-0.1,0-0.4,0.1-0.5,0.2l-7.6,4
			c-0.5,0.3-0.8,1-0.5,1.5l2.4,4.8c0.2,0.4,0.6,0.6,1,0.6c0.2,0,0.4-0.1,0.5-0.2l7.6-4c0.5-0.3,0.7-1,0.5-1.5l-2.4-4.8
			C287.2,236.4,286.9,236.2,286.4,236.2"/>
		<path id="XMLID_96_" clip-path="url(#XMLID_172_)" fill="#F1F2F3" d="M274.1,208.2c-0.2,0-0.4,0.1-0.5,0.2l-16,8.2
			c-0.5,0.3-0.7,1-0.5,1.5l4.3,8.6c0.2,0.4,0.6,0.6,1,0.6c0.1,0,0.4-0.1,0.5-0.2l16-8.3c0.5-0.3,0.7-1,0.5-1.5l-4.2-8.5
			C274.9,208.4,274.6,208.2,274.1,208.2"/>
		<path id="XMLID_97_" clip-path="url(#XMLID_172_)" fill="#F1F2F3" d="M280.4,221.9c-0.1,0-0.4,0.1-0.5,0.2l-16,8.2
			c-0.5,0.3-0.7,1-0.5,1.5l4.3,8.6c0.2,0.4,0.6,0.6,1,0.6c0.2,0,0.4-0.1,0.5-0.2l16-8.3c0.5-0.3,0.7-1,0.5-1.5l-4.2-8.5
			C281.2,222.1,280.8,221.9,280.4,221.9"/>
		<path id="XMLID_98_" clip-path="url(#XMLID_172_)" fill="#F1F2F3" d="M242.3,255.3h-0.2l-8.4,1.5c-0.6,0.1-1,0.7-0.9,1.4l0.9,5.4
			c0.2,0.6,0.6,1,1.1,1h0.2l8.4-1.5c0.6-0.1,1-0.7,0.9-1.4l-0.9-5.4C243.4,255.7,242.9,255.3,242.3,255.3"/>
		<path id="XMLID_99_" clip-path="url(#XMLID_172_)" fill="#F1F2F3" d="M249.4,239.9h-0.2l-17.7,3.1c-0.6,0.1-1,0.7-0.9,1.4l1.6,9.4
			c0.1,0.6,0.5,1,1.1,1h0.2l17.7-3.1c0.6-0.1,1-0.7,0.9-1.4l-1.6-9.4C250.4,240.3,249.9,239.9,249.4,239.9"/>
		<path id="XMLID_100_" clip-path="url(#XMLID_172_)" fill="#F1F2F3" d="M247,226h-0.2l-17.7,3.1c-0.6,0.1-1,0.7-0.9,1.4l1.6,9.4
			c0.1,0.6,0.5,1,1,1h0.2l17.7-3.1c0.6-0.1,1-0.7,0.9-1.4l-1.6-9.4C248,226.5,247.5,226,247,226"/>
		<path id="XMLID_101_" clip-path="url(#XMLID_172_)" fill="#F1F2F3" d="M244.3,215.7h-0.2l-17.7,3.1c-0.6,0.1-1,0.7-0.9,1.4
			l0.9,5.4c0.1,0.6,0.5,1,1.1,1h0.2l17.7-3.1c0.6-0.1,1-0.7,0.9-1.4l-0.9-5.4C245.3,216.1,244.8,215.7,244.3,215.7"/>
		<path id="XMLID_102_" clip-path="url(#XMLID_172_)" fill="#F1F2F3" d="M185.9,57.2h-16.9c-1.1,0-1.9,0.9-1.9,2v10.9
			c-0.1,1.2,0.8,2.1,1.9,2.1h18.9c1.2,0,2.2-1.2,1.9-2.4l-1.9-10.9C187.7,57.9,186.9,57.2,185.9,57.2"/>
		<path id="XMLID_103_" clip-path="url(#XMLID_172_)" fill="#F1F2F3" d="M210,79.8c-0.7,0-1.3,0.5-1.2,1.4l7.5,80
			c0.2,0.6,0.7,1.1,1.3,1.1c0.2,0,0.4-0.1,0.6-0.2l27.2-15.3c0.6-0.3,0.8-1.1,0.4-1.7L211,80.5C210.8,80,210.4,79.8,210,79.8"/>
		<circle id="XMLID_104_" clip-path="url(#XMLID_172_)" fill="#4B5E7F" cx="274.2" cy="229.2" r="2.4"/>
		<circle id="XMLID_105_" clip-path="url(#XMLID_172_)" fill="#FFB8C7" cx="300.4" cy="157.2" r="2.4"/>
		<circle id="XMLID_106_" clip-path="url(#XMLID_172_)" fill="#A9DEEB" cx="111.9" cy="293.5" r="2.4"/>
		<circle id="XMLID_107_" clip-path="url(#XMLID_172_)" fill="#F6F7F9" cx="305.2" cy="172.3" r="2.4"/>
		<path id="XMLID_108_" clip-path="url(#XMLID_172_)" fill="#A1ABD0" d="M202.4,108.9h-153c-0.6,0-1,0.4-1,1c0,0.6,0.4,1,1,1h153
			c0.6,0,1-0.4,1-1C203.4,109.3,203,108.9,202.4,108.9"/>
		<path id="XMLID_109_" clip-path="url(#XMLID_172_)" fill="#A1ABD0" d="M177.3,114.3l-4.8-4.8c-0.4-0.4-1.2-0.4-1.6,0
			c-0.4,0.4-0.4,1.2,0,1.6l4.8,4.8c0.4,0.4,1.2,0.4,1.6,0C177.8,115.5,177.8,114.8,177.3,114.3"/>
		<path id="XMLID_110_" clip-path="url(#XMLID_172_)" fill="#A1ABD0" d="M172.5,111.1l4.8-4.8c0.4-0.4,0.4-1.2,0-1.6
			c-0.4-0.4-1.2-0.4-1.6,0l-4.8,4.8c-0.4,0.4-0.4,1.2,0,1.6C171.4,111.6,172.1,111.6,172.5,111.1"/>
		<path id="XMLID_111_" clip-path="url(#XMLID_172_)" fill="#A1ABD0" d="M138.5,114.3l-4.8-4.8c-0.4-0.4-1.2-0.4-1.6,0
			c-0.4,0.4-0.4,1.2,0,1.6l4.8,4.8c0.4,0.4,1.2,0.4,1.6,0C139,115.5,139,114.8,138.5,114.3"/>
		<path id="XMLID_112_" clip-path="url(#XMLID_172_)" fill="#A1ABD0" d="M133.7,111.1l4.8-4.8c0.4-0.4,0.4-1.2,0-1.6
			c-0.4-0.4-1.2-0.4-1.6,0l-4.8,4.8c-0.4,0.4-0.4,1.2,0,1.6C132.6,111.6,133.3,111.6,133.7,111.1"/>
		<path id="XMLID_113_" clip-path="url(#XMLID_172_)" fill="#A1ABD0" d="M99.7,114.3l-4.8-4.8c-0.4-0.4-1.2-0.4-1.6,0
			c-0.4,0.4-0.4,1.2,0,1.6l4.8,4.8c0.4,0.4,1.2,0.4,1.6,0C100.2,115.5,100.2,114.8,99.7,114.3"/>
		<path id="XMLID_114_" clip-path="url(#XMLID_172_)" fill="#A1ABD0" d="M94.9,111.1l4.8-4.8c0.4-0.4,0.4-1.2,0-1.6
			c-0.4-0.4-1.2-0.4-1.6,0l-4.8,4.8c-0.4,0.4-0.4,1.2,0,1.6C93.8,111.6,94.5,111.6,94.9,111.1"/>
		<path id="XMLID_115_" clip-path="url(#XMLID_172_)" fill="#FF7676" d="M208.2,176.8L183.9,190c-0.6,0.3-0.8,1-0.5,1.5
			c0.3,0.6,1,0.8,1.5,0.5l24.3-13.3c0.6-0.3,0.8-1,0.5-1.5C209.4,176.7,208.8,176.5,208.2,176.8"/>
		<path id="XMLID_116_" clip-path="url(#XMLID_172_)" fill="#FF7676" d="M177.8,193.2l-9.1,4.7c-0.6,0.3-0.8,1-0.5,1.5
			s1,0.8,1.5,0.5l9.1-4.7c0.6-0.3,0.8-1,0.5-1.5S178.4,192.9,177.8,193.2"/>
		<path id="XMLID_117_" clip-path="url(#XMLID_172_)" fill="#FF7676" d="M186,193l-7.9,0.2c-0.6,0-1.1,0.5-1.1,1.2
			c0,0.6,0.5,1.1,1.2,1.1l7.9-0.2c0.6,0,1.1-0.5,1.1-1.2C187.2,193.5,186.6,193,186,193"/>
		<path id="XMLID_118_" clip-path="url(#XMLID_172_)" fill="#FF7676" d="M179.1,195l4.6-6.4c0.4-0.5,0.2-1.2-0.3-1.6
			c-0.5-0.4-1.2-0.2-1.6,0.3l-4.6,6.4c-0.4,0.5-0.2,1.2,0.3,1.6C178,195.6,178.8,195.5,179.1,195"/>
		<path id="XMLID_119_" clip-path="url(#XMLID_172_)" fill="#FF7676" d="M187,193.5l-3.2-6.1c-0.3-0.6-1-0.8-1.5-0.5s-0.8,1-0.5,1.5
			l3.2,6.1c0.3,0.6,1,0.8,1.5,0.5S187.3,194.1,187,193.5"/>
		<path id="XMLID_122_" clip-path="url(#XMLID_172_)" fill="#FFB8C7" d="M274.1,105.6c-0.4-2.9-2.8-5.3-5.7-5.6
			c-3.9-0.3-7.1,2.7-7,6.5c0,1.5,0.6,2.9,1.5,4l4.7,5.1c0.2,0.2,0.5,0.2,0.6,0c1.1-1.3,4.6-5.4,4.9-5.7l0,0h0
			C273.9,108.7,274.3,107.2,274.1,105.6z M267.8,108.8c-1.3,0-2.3-1-2.3-2.2c0-1.3,1-2.3,2.2-2.3c1.3,0,2.3,1,2.3,2.2
			C270.1,107.7,269.1,108.7,267.8,108.8z"/>
	</g>
	<path id="XMLID_55_" fill="#4B5E7F" d="M38.4,80.9h317c0.8,0,1.5-0.7,1.5-1.5c0-0.8-0.7-1.5-1.5-1.5h-317c-0.8,0-1.5,0.7-1.5,1.5
		C36.9,80.2,37.6,80.9,38.4,80.9"/>
	<circle id="XMLID_123_" fill="#4B5E7F" cx="52.3" cy="71.8" r="2.9"/>
	<circle id="XMLID_124_" fill="#4B5E7F" cx="60.3" cy="71.8" r="2.9"/>
	<circle id="XMLID_125_" fill="#4B5E7F" cx="68.3" cy="71.8" r="2.9"/>
	<path id="XMLID_126_" fill="#4B5E7F" d="M345.1,269.9v-1.4H48.8c-2.6,0-4.9-1-6.6-2.7c-1.7-1.7-2.7-4-2.7-6.6V74.7
		c0-2.6,1-4.9,2.7-6.6c1.7-1.7,4-2.7,6.6-2.7h296.3c2.6,0,4.9,1,6.6,2.7c1.7,1.7,2.7,4,2.7,6.6v184.5c0,2.6-1,4.9-2.7,6.6
		c-1.7,1.7-4,2.7-6.6,2.7V269.9v1.4c6.7,0,12.2-5.5,12.2-12.2V74.7c0-6.7-5.5-12.2-12.2-12.2H48.8c-6.7,0-12.2,5.5-12.2,12.2v184.5
		c0,6.7,5.5,12.2,12.2,12.2h296.3V269.9z"/>
	<path id="XMLID_130_" fill="#4B5E7F" d="M50.2,130.7c1.3,0,2.4-1.1,2.4-2.4c0-0.4-0.1-0.7-0.3-1l5.9-5.9c0.3,0.1,0.6,0.2,0.9,0.2
		c1.3,0,2.4-1.1,2.4-2.4c0-1.3-1.1-2.4-2.4-2.4c-1.3,0-2.4,1.1-2.4,2.4c0,0.4,0.1,0.8,0.3,1.1l-5.9,5.9c-0.3-0.1-0.6-0.2-0.9-0.2
		c-1.3,0-2.4,1.1-2.4,2.4C47.8,129.7,48.9,130.7,50.2,130.7z M59.1,118.4c0.5,0,0.9,0.4,0.9,0.9c0,0.5-0.4,0.9-0.9,0.9
		s-0.9-0.4-0.9-0.9C58.2,118.7,58.6,118.4,59.1,118.4z M50.2,127.5c0.5,0,0.9,0.4,0.9,0.9c0,0.5-0.4,0.9-0.9,0.9
		c-0.5,0-0.9-0.4-0.9-0.9C49.3,127.9,49.7,127.5,50.2,127.5z"/>
	<path id="XMLID_137_" fill="#4B5E7F" d="M51.9,105.4l4.6,0c0.3,0.5,1.2,1.3,2.2,1.3c1.3,0,2.4-1.2,2.4-2.5c0-1-0.4-1.9-1.4-2.3
		l0-5.2c1-0.4,1.4-1.2,1.4-2.2c0-1.3-1.1-2.2-2.4-2.2c-0.9,0-1.6,0.4-2,1.4l-4.9,0c-0.4-1-1.2-1.4-2-1.4c-1.3,0-2.4,1-2.4,2.3
		c0,0.9,0.8,1.6,1.3,2l0,5.3c-0.5,0.4-1.3,1.2-1.3,2.1c0,1.3,1.1,2.6,2.4,2.6C50.7,106.7,51.6,105.9,51.9,105.4z M50.7,102l0-5.2
		c0.5-0.2,1-0.4,1.3-0.9l4.6,0c0.2,0.5,0.6,0.6,1.1,0.8l0,5.3c-0.5,0.2-0.7,0.8-1,1.3l-4.9,0C51.5,102.8,51.2,102.2,50.7,102z
		 M59.6,104.1c0,0.5-0.4,0.9-0.9,0.9c-0.5,0-0.9-0.4-0.9-0.9c0-0.5,0.4-0.9,0.9-0.9C59.3,103.3,59.6,103.7,59.6,104.1z M59.7,94.6
		c0,0.5-0.4,0.9-0.9,0.9c-0.5,0-0.9-0.4-0.9-0.9c0-0.5,0.4-0.9,0.9-0.9C59.3,93.7,59.7,94.1,59.7,94.6z M48.9,94.6
		c0-0.5,0.4-0.9,0.9-0.9c0.5,0,0.9,0.4,0.9,0.9c0,0.5-0.4,0.9-0.9,0.9C49.3,95.4,48.9,95,48.9,94.6z M48.9,104.1
		c0-0.5,0.4-0.9,0.9-0.9c0.5,0,0.9,0.4,0.9,0.9c0,0.5-0.4,0.9-0.9,0.9C49.3,105,48.9,104.6,48.9,104.1z"/>
	<path id="XMLID_140_" fill="#4B5E7F" d="M52.2,147.3c0-2.8,2.3-5.1,5.1-5.1c2.8,0,5.1,2.3,5.1,5.1s-2.3,5.1-5.1,5.1
		C54.5,152.5,52.2,150.1,52.2,147.3z M60.6,147.3c0-1.8-1.5-3.3-3.3-3.3c-1.8,0-3.3,1.5-3.3,3.3c0,1.8,1.5,3.3,3.3,3.3
		C59.1,150.6,60.6,149.1,60.6,147.3z"/>
	<path id="XMLID_141_" fill="#4B5E7F" d="M48,155.2c0-0.2,0.1-0.5,0.3-0.7l4.8-5c0.4-0.4,1-0.4,1.4,0c0.4,0.4,0.4,1,0,1.4l-4.8,5
		c-0.4,0.4-1,0.4-1.4,0C48.1,155.7,48,155.5,48,155.2z"/>
	<path id="XMLID_142_" fill="#4B5E7F" d="M225.2,213.3l1.4-0.3l-4.5-24.1l32.5-17l10.2,21.8L224.6,212L225.2,213.3l1.4-0.3
		L225.2,213.3l0.6,1.3l41.5-18.8c0.3-0.2,0.6-0.4,0.8-0.8s0.1-0.8,0-1.1l-11.4-24.5c-0.2-0.4-0.5-0.6-0.8-0.8
		c-0.4-0.1-0.8-0.1-1.1,0.1l-34.8,18.2c-0.6,0.3-0.9,0.9-0.7,1.5l4.7,25.1c0.1,0.4,0.4,0.8,0.7,1s0.9,0.2,1.3,0L225.2,213.3z"/>
	<path id="XMLID_143_" fill="#EDEDED" d="M265.1,197.4c-0.5,0-1.1-0.3-1.3-0.9l-1.1-2.5c-0.2-0.3-0.2-0.7,0-1.1
		c0.1-0.4,0.4-0.6,0.8-0.8l2.5-1.1c0.2-0.1,0.4-0.1,0.6-0.1c0.5,0,1.1,0.3,1.3,0.9l1.1,2.5c0.3,0.7,0,1.6-0.7,1.9l-2.5,1.1
		C265.5,197.3,265.3,197.4,265.1,197.4z"/>
	<path id="XMLID_146_" fill="#4B5E7F" d="M266.5,192.4l1.1,2.5l-2.5,1.1l-1.1-2.5L266.5,192.4 M266.5,189.5c-0.4,0-0.8,0.1-1.2,0.2
		l-2.5,1.1c-1.4,0.6-2.1,2.3-1.5,3.8l1.1,2.5c0.5,1.1,1.5,1.7,2.6,1.7c0.4,0,0.8-0.1,1.2-0.2l2.5-1.1c0.7-0.3,1.2-0.9,1.5-1.6
		c0.3-0.7,0.3-1.5-0.1-2.2l-1.1-2.5c-0.3-0.7-0.9-1.2-1.6-1.5C267.2,189.6,266.8,189.5,266.5,189.5z"/>
	<path id="XMLID_147_" fill="#EDEDED" d="M225.1,215.5c-0.2,0-0.3,0-0.5-0.1c-0.4-0.1-0.6-0.4-0.8-0.8l-1.1-2.5
		c-0.3-0.7,0-1.6,0.7-1.9l2.5-1.1c0.2-0.1,0.4-0.1,0.6-0.1c0.2,0,0.3,0,0.5,0.1c0.4,0.1,0.6,0.4,0.8,0.8l1.1,2.5
		c0.3,0.7,0,1.6-0.7,1.9l-2.5,1.1C225.5,215.5,225.3,215.5,225.1,215.5z"/>
	<path id="XMLID_150_" fill="#4B5E7F" d="M226.5,210.5l1.1,2.5l-2.5,1.1l-1.1-2.5L226.5,210.5 M226.5,207.6c-0.4,0-0.8,0.1-1.2,0.2
		l-2.5,1.1c-0.7,0.3-1.2,0.9-1.5,1.6c-0.3,0.7-0.3,1.5,0.1,2.2l1.1,2.5c0.5,1.1,1.5,1.7,2.6,1.7c0.4,0,0.8-0.1,1.2-0.2l2.5-1.1
		c0.7-0.3,1.2-0.9,1.5-1.6c0.3-0.7,0.3-1.5-0.1-2.2l-1.1-2.5C228.6,208.3,227.6,207.6,226.5,207.6z"/>
	<path id="XMLID_151_" fill="#EDEDED" d="M219.8,191.3c-0.5,0-1.1-0.3-1.3-0.9l-1.1-2.5c-0.3-0.7,0-1.6,0.7-1.9l2.5-1.1
		c0.2-0.1,0.4-0.1,0.6-0.1c0.2,0,0.3,0,0.5,0.1c0.4,0.1,0.6,0.4,0.8,0.8l1.1,2.5c0.2,0.3,0.2,0.7,0,1.1c-0.1,0.4-0.4,0.6-0.8,0.8
		l-2.5,1.1C220.2,191.3,220,191.3,219.8,191.3z"/>
	<path id="XMLID_154_" fill="#4B5E7F" d="M221.1,186.3l1.1,2.5l-2.5,1.1l-1.1-2.5L221.1,186.3 M221.1,183.5c-0.4,0-0.8,0.1-1.2,0.2
		l-2.5,1.1c-1.4,0.6-2.1,2.3-1.5,3.8l1.1,2.5c0.5,1.1,1.5,1.7,2.6,1.7c0.4,0,0.8-0.1,1.2-0.2l2.5-1.1c1.4-0.6,2.1-2.3,1.5-3.8
		l-1.1-2.5C223.3,184.1,222.2,183.5,221.1,183.5z"/>
	<path id="XMLID_155_" fill="#EDEDED" d="M254.2,173.7c-0.2,0-0.3,0-0.5-0.1c-0.4-0.1-0.6-0.4-0.8-0.8l-1.1-2.5
		c-0.3-0.7,0-1.6,0.7-1.9l2.5-1.1c0.2-0.1,0.4-0.1,0.6-0.1c0.5,0,1.1,0.3,1.3,0.9l1.1,2.5c0.2,0.3,0.2,0.7,0,1.1s-0.4,0.6-0.8,0.8
		l-2.5,1.1C254.6,173.6,254.4,173.7,254.2,173.7z"/>
	<path id="XMLID_158_" fill="#4B5E7F" d="M255.6,168.7l1.1,2.5l-2.5,1.1l-1.1-2.5L255.6,168.7 M255.6,165.8c-0.4,0-0.8,0.1-1.2,0.2
		l-2.5,1.1c-1.4,0.6-2.1,2.3-1.5,3.8l1.1,2.5c0.5,1.1,1.5,1.7,2.6,1.7c0.4,0,0.8-0.1,1.2-0.2l2.5-1.1c1.4-0.6,2.1-2.3,1.5-3.8
		l-1.1-2.5C257.7,166.4,256.7,165.8,255.6,165.8z"/>
</g>
<path id="XMLID_1078_" fill="#A9DEEB" d="M41,31.9h-2.6v-2.8c0-0.7-0.3-1.3-1-1.3s-1,0.6-1,1.3v2.8H33c-0.7,0-1.3,0.3-1.3,1
	s0.6,1,1.3,1h3.4V37c0,0.7,0.3,1.3,1,1.3s1-0.6,1-1.3v-3.1H41c0.7,0,1.3-0.3,1.3-1S41.7,31.9,41,31.9z"/>
<path id="XMLID_1081_" fill="#A9DEEB" d="M356.8,299.1l-2.5,1.6l-1.5-2.5c-0.4-0.6-0.9-1-1.5-0.6c-0.6,0.4-0.5,1-0.2,1.6l1.5,2.5
	l-2.5,1.6c-0.6,0.4-1,0.9-0.6,1.5s1,0.5,1.6,0.2l2.5-1.6l1.6,2.5c0.4,0.6,0.9,1,1.5,0.6s0.5-1,0.2-1.6l-1.6-2.5l2.5-1.6
	c0.6-0.4,1-0.9,0.6-1.5S357.4,298.7,356.8,299.1z"/>
<path id="XMLID_1077_" fill="#FF7676" d="M378.9,171.9l-1.6-2.5l2.5-1.5c0.6-0.4,1-0.9,0.6-1.5c-0.4-0.6-1-0.5-1.6-0.2l-2.5,1.5
	l-1.6-2.5c-0.4-0.6-0.9-1-1.5-0.6c-0.6,0.4-0.5,1-0.2,1.6l1.6,2.5l-2.5,1.6c-0.6,0.4-1,0.9-0.6,1.5c0.4,0.6,1,0.5,1.6,0.2l2.5-1.6
	l1.6,2.5c0.4,0.6,0.9,1,1.5,0.6C379.4,173.1,379.3,172.5,378.9,171.9z"/>
<circle id="XMLID_1076_" fill="#FFB8C7" cx="132.4" cy="306.7" r="2.1"/>
<circle id="XMLID_1075_" fill="#FFB8C7" cx="376.5" cy="78.8" r="2.1"/>
<circle id="XMLID_1074_" fill="#4B5E7F" cx="31.7" cy="282.9" r="2.1"/>
<circle id="XMLID_951_" fill="#FFB8C7" cx="15.4" cy="172.4" r="2.1"/>
<circle id="XMLID_953_" fill="#FFB8C7" cx="113.5" cy="30.9" r="2.1"/>
<circle id="XMLID_1073_" fill="#A9DEEB" cx="351.4" cy="30.9" r="2.1"/>
<circle id="XMLID_1085_" fill="#A9DEEB" cx="163.5" cy="314.8" r="2.1"/>
<circle id="XMLID_1086_" fill="#F6F7F9" cx="202.1" cy="19" r="2.1"/>
<circle id="XMLID_952_" fill="#F6F7F9" cx="11.2" cy="159.2" r="2.1"/>
</svg>
