<svg viewBox="0 0 382 327"><path fill="#F6F7F9" d="M194.5 270.2c-39.9 0-79-19.7-102-55.8-3.5-5.4-1.9-12.6 3.5-16 5.4-3.5 12.6-1.9 16 3.5 18.6 29.1 50.2 45 82.4 45 18 0 36.1-4.9 52.4-15.3 22-14 37.2-35.8 42.8-61.2 5.6-25.5 1-51.6-13-73.5-3.5-5.4-1.9-12.6 3.5-16 5.4-3.5 12.6-1.9 16 3.5 17.4 27.2 23.1 59.5 16.1 91s-25.8 58.4-53 75.8c-20 12.9-42.5 19-64.7 19zM87.1 180.1c-5.6 0-10.5-4-11.4-9.7-8.1-48 13.1-95.9 54.1-122.1 19.5-12.4 41.9-19 64.9-19h.7c6.4 0 11.6 5.3 11.5 11.7 0 6.4-5.2 11.5-11.6 11.5h-.7c-18.6 0-36.7 5.3-52.4 15.3-33.1 21.2-50.3 59.9-43.7 98.6 1.1 6.3-3.2 12.3-9.5 13.4-.6.2-1.3.3-1.9.3z"/><path fill="#F6F7F9" d="M196.8 235.5c-6.1 0-12.3-.7-18.5-2-6.3-1.4-10.2-7.5-8.9-13.8 1.4-6.3 7.5-10.2 13.8-8.9 16.4 3.6 33.2.5 47.3-8.5 14.1-9.1 23.9-23.1 27.4-39.5 1.8-8.5 1.9-17.1.3-25.5-2.5-12.6-8.7-24-17.9-32.9-4.6-4.5-4.7-11.8-.2-16.4 4.5-4.6 11.8-4.7 16.4-.2 12.6 12.3 21 27.9 24.4 45.1 2.3 11.6 2.2 23.3-.4 34.9-4.9 22.5-18.2 41.7-37.6 54.1-13.8 9-29.8 13.6-46.1 13.6zM133.9 200.6c-3.8 0-7.6-1.9-9.8-5.4-24.9-39-13.4-90.9 25.6-115.8 5.4-3.5 12.6-1.9 16 3.5s1.9 12.6-3.5 16c-28.2 18-36.5 55.6-18.5 83.7 3.5 5.4 1.9 12.6-3.5 16-2 1.4-4.1 2-6.3 2z"/><path fill="#F6F7F9" d="M197.1 187.8c-12.6 0-25-6.2-32.2-17.6-5.5-8.6-7.3-18.8-5.1-28.8s8.1-18.5 16.7-24c17.7-11.3 41.4-6.1 52.7 11.6 11.3 17.7 6.1 41.4-11.6 52.7-6.4 4.1-13.5 6.1-20.5 6.1zm-.1-53.2c-2.8 0-5.5.8-8 2.3-3.4 2.2-5.7 5.5-6.6 9.4-.9 3.9-.2 7.9 2 11.3 4.4 7 13.7 9 20.7 4.6s9-13.7 4.6-20.7c-2.9-4.4-7.8-6.9-12.7-6.9z"/><g opacity=".5"><path fill="#FFF" d="M153.8 244.9l-52.1.1c-2.2 0-3.9-1.7-3.9-3.9l-.1-28c0-2.2 1.7-3.9 3.9-3.9l52.1-.1c2.2 0 3.9 1.7 3.9 3.9l.1 28c0 2.1-1.7 3.9-3.9 3.9z"/><path fill="#C5C6D1" d="M101.8 246.5c-1.4 0-2.8-.6-3.8-1.6s-1.6-2.4-1.6-3.8l-.1-28c0-3 2.4-5.4 5.4-5.4l52.1-.1c1.4 0 2.8.6 3.8 1.6s1.6 2.4 1.6 3.8l.1 28c0 1.4-.6 2.8-1.6 3.8s-2.4 1.6-3.8 1.6l-52.1.1zm52-36c-.1 0-.1 0 0 0l-52.1.1c-1.3 0-2.4 1.1-2.4 2.4l.1 28c0 .6.3 1.3.7 1.7.5.5 1.1.7 1.7.7l52.1-.1c.6 0 1.3-.3 1.7-.7.5-.5.7-1.1.7-1.7l-.1-28c0-.6-.3-1.3-.7-1.7-.5-.4-1.1-.7-1.7-.7z"/></g><path fill="#FFB8C7" d="M94.9 70c-.4-3-2.9-5.3-5.9-5.6-3.9-.3-7.1 2.8-7 6.6 0 1.5.6 3 1.6 4l4.8 5.1c.2.2.5.2.7 0 1.1-1.3 4.6-5.5 4.8-5.9.8-1.1 1.2-2.6 1-4.2zm-6.3 3.3c-1.3 0-2.3-1-2.4-2.2 0-1.3 1-2.3 2.2-2.4 1.3 0 2.3 1 2.4 2.2s-1 2.3-2.2 2.4z"/><path fill="#A9DEEB" d="M73 191h-3v-2.9c0-.7-.3-1.3-1-1.3s-1 .6-1 1.3v2.9h-3c-.7 0-1.3.3-1.3 1s.6 1 1.3 1h3v3c0 .7.3 1.3 1 1.3s1-.6 1-1.3v-3h3c.7 0 1.3-.3 1.3-1s-.6-1-1.3-1z"/><path fill="#FF7676" d="M179.9 45.9l-1.6-2.5 2.5-1.5c.6-.4 1-.9.6-1.5s-1-.5-1.6-.2l-2.5 1.5-1.6-2.5c-.4-.6-.9-1-1.5-.6s-.5 1-.2 1.6l1.6 2.5-2.5 1.6c-.6.4-1 .9-.6 1.5s1 .5 1.6.2l2.5-1.6 1.6 2.5c.4.6.9 1 1.5.6s.6-1 .2-1.6z"/><path fill="#4B5E7F" d="M301.4 103.4l-18.1-18.1-6-6c-.4-.4-1.2-.4-1.6 0l-1.4 1.4-2.1-2.1 1-1c.1-.1.2-.2.2-.3.1 0 .1-.1.2-.1.1-.1.2-.3.3-.4 1.2-1.6 1.9-3.4 1.9-5.4 0-2-.7-3.9-1.9-5.4l1.3-1.5c5.2 3.3 11.1 3.6 14.5.2.2-.2.4-.5.4-1.1 0-2.3-5.4-8.2-7.8-10.6l1-1c.6.1 1.1-.1 1.6-.5.7-.7.7-1.9 0-2.7-.7-.7-1.9-.7-2.7 0-.4.4-.6 1-.5 1.6l-1 1c-2.3-2.2-4.6-4.2-6.4-5.6-2.9-2.2-4.3-2.6-5.2-1.7l-.2.2c-1.5 1.6-2.2 3.7-2.2 6.1 0 2.6.9 5.5 2.6 8.2l-1.5 1.3c-3.2-2.5-7.7-2.5-10.8 0-.1.1-.3.1-.4.3 0 0-.1.1-.1.2-.1.1-.2.1-.3.2l-1 1-2.1-2.1 1.4-1.4c.4-.4.4-1.2 0-1.6l-12-12-12-12c-.4-.4-1.2-.4-1.6 0l-7.1 7.1-7.1 7.1c-.1.1-.2.2-.2.4-.1.1-.1.3-.1.4s0 .3.1.4c.1.1.1.3.2.4l6 6 18.1 18.1c.4.4 1.2.4 1.6 0l1.4-1.4 2.1 2.1-1 1c-.1.1-.2.2-.2.3-.1 0-.1.1-.2.1-.1.1-.2.3-.3.4-1.2 1.6-1.9 3.4-1.9 5.4 0 1.8.6 3.5 1.6 5l1.5 1.7 3.6 3.6 1.7 1.5c3.2 2.3 7.5 2.2 10.5-.3.1-.1.3-.1.4-.3 0 0 .1-.1.1-.2.1-.1.2-.1.3-.2l1-1 2.1 2.1-1.4 1.4c-.2.2-.3.5-.3.8 0 .3.1.6.3.8l24.1 24.1c.1.1.2.2.4.2.4.2.9.1 1.3-.2l14.3-14.3c0-.4 0-1.1-.4-1.6zm-8.4-5.2l-5.5 5.5-4.4-4.4 5.5-5.5 4.4 4.4zm-6.1-6l-5.5 5.5-4.4-4.4 5.5-5.5 4.4 4.4zm-10.4-10.5l4.4 4.4-5.5 5.5-4.4-4.4 1.4-1.4.8-.8 3.3-3.3zm-3.8.6l-1.1 1.1-2.1-2.1 1.1-1.1 2.1 2.1zm-2.7 2.8l-1.4 1.4-1.4 1.4-2.1-2.1 2.8-2.8 2.1 2.1zm10.7-30.5c3.1 3.2 5.1 5.7 6.2 7.3-1.6-1.1-4.1-3.1-7.3-6.2l1.1-1.1zm-1.6-1.6l-1.1 1.1c-3.1-3.2-5.1-5.7-6.2-7.2 1.6 1 4.2 3 7.3 6.1zm-9.6-5.6c2 3.3 6.6 8 7.7 9.1 3.9 3.9 7 6.5 9.1 7.7-3.5 1.6-8.8 0-12.8-4-4-4.1-5.5-9.3-4-12.8zm3.9 15.7l-1 1.2-2.9-2.9 1.2-1c.4.5.8 1 1.3 1.4.4.5.9.9 1.4 1.3zm-6.4-1l4.7 4.7c1.2 1.2 1.9 2.9 1.9 4.6 0 1.2-.3 2.3-.9 3.2l-13.5-13.5c2.4-1.4 5.6-1.1 7.8 1zm-13.5 1l-1.1 1.1-2.1-2.1 1.1-1.1 2.1 2.1zm-2.7 2.7l-2.8 2.8-2.1-2.1 1.4-1.4 1.4-1.4 2.1 2.1zm1.2-8.6l-5.5 5.5-4.4-4.4 5.5-5.5 4.4 4.4zm-6-6l-5.5 5.5-4.4-4.4 5.5-5.5 4.4 4.4zm-6.1-6l-5.5 5.5-4.4-4.4 5.5-5.5 4.4 4.4zm-10.4-10.4l4.4 4.4-5.5 5.5-4.4-4.4 5.5-5.5zm-12.6 12.6l5.5-5.5 4.4 4.4-5.5 5.5-4.4-4.4zm6 6l5.5-5.5 4.4 4.4-5.5 5.5-4.4-4.4zm6 6.1l5.5-5.5 4.4 4.4-5.5 5.5-4.4-4.4zm10.4 10.4l-4.4-4.4 5.5-5.5 4.4 4.4-5.5 5.5zm3.9-.6l1.1-1.1 2.1 2.1-1.1 1.1-2.1-2.1zm10.3 22.1c-1.7 0-3.4-.7-4.6-1.9l-4.7-4.7c-1.2-1.2-1.9-2.9-1.9-4.6 0-1.2.3-2.3.9-3.2l13.5 13.5c-.9.6-2 .9-3.2.9zm5-2.3l-13.9-13.9 12.7-12.7 13.9 13.9-12.7 12.7zm3.9-.6l1.1-1.1 2.1 2.1-1.1 1.1-2.1-2.1zm1.5 5.9l3.3-3.3.8-.8 1.4-1.4 4.4 4.4-5.5 5.5-4.4-4.4zm6 6l5.5-5.5 4.4 4.4-5.5 5.5-4.4-4.4zm6 6l5.5-5.5 4.4 4.4-5.5 5.5-4.4-4.4zm10.4 10.5l-4.4-4.4 5.5-5.5 4.4 4.4-5.5 5.5zm7.2-7.2l-4.4-4.4 5.5-5.5 4.4 4.4-5.5 5.5zM284.6 37.4c6.5 0 11.9 5.3 11.9 11.9 0 .6.5 1.1 1.1 1.1.6 0 1.1-.5 1.1-1.1 0-7.8-6.4-14.1-14.2-14.1-.6 0-1.1.5-1.1 1.1.1.6.6 1.1 1.2 1.1z"/><path fill="#4B5E7F" d="M284.6 41.7c2 0 3.9.8 5.3 2.2 1.4 1.4 2.2 3.3 2.2 5.3 0 .6.5 1.1 1.1 1.1.6 0 1.1-.5 1.1-1.1 0-2.6-1-5.1-2.9-6.9-1.9-1.9-4.3-2.9-6.9-2.9-.6 0-1.1.5-1.1 1.1.1.7.6 1.2 1.2 1.2zM262.5 71.4c-1.2-1.2-2.8-1.9-4.5-1.9-1.7 0-3.3.7-4.5 1.9-1.2 1.2-1.9 2.8-1.9 4.5 0 1.7.7 3.3 1.9 4.5 2.5 2.5 6.6 2.5 9 0 1.2-1.2 1.9-2.8 1.9-4.5 0-1.7-.7-3.3-1.9-4.5zm-1.6 7.4c-1.6 1.6-4.2 1.6-5.8 0-1.6-1.6-1.6-4.3 0-5.8.8-.8 1.8-1.2 2.9-1.2 1.1 0 2.1.4 2.9 1.2.8.8 1.2 1.8 1.2 2.9 0 1.1-.4 2.1-1.2 2.9z"/><path fill="#4B5E7F" d="M284.6 46.1c1.8 0 3.2 1.4 3.2 3.2 0 .6.5 1.1 1.1 1.1.6 0 1.1-.5 1.1-1.1 0-3-2.5-5.5-5.5-5.5-.6 0-1.1.5-1.1 1.1.1.6.6 1.2 1.2 1.2z"/><path fill="#A1ABD0" d="M213.8 68.3c0 1.2.9 2.1 2.1 2.1s2.1-.9 2.1-2.1c0-1.2-.9-2.1-2.1-2.1s-2.1 1-2.1 2.1"/><path fill="#4B5E7F" d="M213.4 75.5c-1.7 0-3.2 1.4-3.2 3.2 0 1.7 1.4 3.1 3.2 3.1 1.7 0 3.2-1.4 3.2-3.1-.1-1.8-1.5-3.2-3.2-3.2zm0 4.2c-.6 0-1-.5-1-1 0-.6.5-1 1-1s1 .5 1 1-.5 1-1 1z"/><circle fill="#FFB8C7" cx="224" cy="74.6" r="2.1"/><circle fill="#F6F7F9" cx="148.9" cy="162.3" r="2.1"/><circle fill="#F6F7F9" cx="59.5" cy="109.2" r="2.1"/><circle fill="#F6F7F9" cx="127.8" cy="266.4" r="2.1"/><circle fill="#F6F7F9" cx="236.1" cy="186.7" r="2.1"/><circle fill="#FFB8C7" cx="226.1" cy="278.7" r="2.1"/><circle fill="#F6F7F9" cx="312" cy="220.4" r="2.1"/><circle fill="#FFB8C7" cx="305.7" cy="73.3" r="2.1"/><circle fill="#4B5E7F" cx="291.1" cy="79.7" r="2.1"/><circle fill="#4B5E7F" cx="300.8" cy="64.8" r="2.1"/><circle fill="#4B5E7F" cx="255.8" cy="46.3" r="2.1"/><circle fill="#A9DEEB" cx="270.6" cy="35.4" r="2.1"/><circle fill="#4B5E7F" cx="248.4" cy="107.1" r="2.1"/><path fill="#4B5E7F" d="M258 107.3c-2.5 0-4.4 2-4.4 4.5s2 4.5 4.4 4.5c2.5 0 4.5-2 4.5-4.5s-2-4.5-4.5-4.5zm0 6.8c-1.3 0-2.3-1-2.3-2.3 0-1.3 1-2.3 2.3-2.3s2.3 1 2.3 2.3c.1 1.2-1 2.3-2.3 2.3zM259 28.8c-2.5 0-4.4 2-4.4 4.5s2 4.4 4.4 4.4c2.5 0 4.4-2 4.4-4.4s-2-4.5-4.4-4.5zm0 6.8c-1.3 0-2.3-1-2.3-2.3 0-1.3 1-2.3 2.3-2.3 1.3 0 2.3 1 2.3 2.3 0 1.3-1.1 2.3-2.3 2.3zM241.4 78.6c0 1 .4 1.9 1.1 2.5l11.2 11.2c1.1 1.1 2.9 1.3 4.2.6L241.8 77c-.2.5-.4 1-.4 1.6zM244.4 92l2.4 2.4 2.2-3.6-1.7-1.8M250.1 97.7l1.6-4.3-1.1-1.1-2.3 3.6M242.6 84.3l-1.2-1.1h-.1l1.2 1.1M242.9 90.5l2.9-2.9-1.7-1.7-3.6 2.2"/><path fill="#4B5E7F" d="M245.8 87.5l-1.7-1.7v.1l1.7 1.7M239 86.6l3.5-2.3-1.2-1.1-4.1 1.6"/><path fill="#4B5E7F" d="M242.9 90.5l-2.4-2.4 3.5-2.2-1.6-1.5-3.5 2.2-1.8-1.8 4.1-1.6v-2.3l-6.4 2.5c-.3.1-.6.4-.7.8-.1.4 0 .7.3 1l15.3 15.3c.2.2.5.3.8.3h.2c.4-.1.6-.3.8-.7l2.6-6.9-8.6-5.3-2.6 2.6zm8.8 2.9l-1.6 4.3-1.8-1.8 2.3-3.6 1.1 1.1zm-4.9 1l-2.4-2.4 2.9-2.9 1.7 1.7-2.2 3.6z"/><path fill="#FFB8C7" d="M185.7 146.1c-.4 0-.8-.2-1.1-.5-.9-1.1-1.7-2.3-2.3-3.8-.3-.7.1-1.5.8-1.8.7-.3 1.5.1 1.8.8.5 1.2 1.1 2.2 1.8 3 .5.6.4 1.5-.1 2-.3.1-.6.3-.9.3zm-3.8-10.2c-.6 0-1.2-.5-1.4-1.1-.2-1.1-.5-2.4-1-3.7-.3-.7.1-1.5.8-1.8.7-.3 1.5.1 1.8.8.5 1.4.8 2.8 1.1 4.1.2.8-.3 1.5-1.1 1.7h-.2zm-28-7.5c-.7 0-1.3-.1-2-.2-.8-.1-1.3-.9-1.1-1.6.1-.8.8-1.3 1.6-1.1.5.1 1 .1 1.5.1.6 0 1.3-.1 2-.2.8-.1 1.5.4 1.6 1.1.1.8-.4 1.5-1.1 1.6-.9.3-1.8.3-2.5.3zm23-2c-.3 0-.6-.1-.8-.3-.4-.3-.9-.6-1.4-.8-.6-.3-1.2-.6-1.8-.8-.7-.2-1.1-1-.9-1.8.2-.7 1-1.1 1.8-.9.7.2 1.5.6 2.2 1 .6.3 1.2.7 1.7 1.1.6.5.8 1.3.3 2-.3.3-.7.5-1.1.5zm-14.2-.5c-.6 0-1.1-.3-1.3-.9-.3-.7 0-1.5.8-1.8 1.4-.6 2.6-1.1 3.9-1.4.7-.2 1.5.2 1.7 1 .2.7-.2 1.5-1 1.7-1.1.3-2.3.7-3.6 1.3-.2.1-.3.1-.5.1zm-16.8-.7c-.3 0-.7-.1-1-.4-1.1-1-2-2.2-2.6-3.6-.3-.7-.1-1.5.6-1.9.7-.3 1.5-.1 1.9.6.5 1.1 1.2 2 2.1 2.8.6.5.6 1.4.1 2-.3.4-.7.5-1.1.5zm-4.3-9.9c-.7 0-1.2-.5-1.4-1.1-.2-1.2-.5-2.5-.9-3.8-.2-.7.2-1.5.9-1.7.7-.2 1.5.2 1.7.9.4 1.4.7 2.8.9 4 .2.8-.3 1.5-1.1 1.6.1.1 0 .1-.1.1zm-28.3-8.5h-.8c-.8 0-1.4-.7-1.3-1.5s.7-1.4 1.5-1.3c1.1.1 2.2-.1 3.5-.4.8-.2 1.5.3 1.7 1 .2.7-.3 1.5-1 1.7-1.2.3-2.4.5-3.6.5zm23.9-1.3c-.3 0-.7-.1-.9-.4-.6-.5-1.3-1-2.1-1.4-.3-.2-.6-.3-.9-.4-.7-.3-1-1.1-.7-1.8.3-.7 1.1-1 1.8-.7.4.2.7.3 1.1.5 1 .5 1.9 1.1 2.6 1.8.6.5.6 1.4.1 2-.2.2-.6.4-1 .4zm-31-1.2c-.3 0-.6-.1-.9-.3-1.2-.9-2.2-2-3-3.3-.4-.7-.2-1.5.5-1.9.7-.4 1.5-.2 1.9.5.6 1 1.4 1.8 2.3 2.6.6.5.7 1.3.3 2-.2.2-.7.4-1.1.4zm17-.4c-.6 0-1.1-.3-1.3-.9-.3-.7.1-1.5.8-1.8 1.1-.4 2.5-.9 4-1.3.8-.2 1.5.3 1.6 1.1.2.8-.3 1.5-1.1 1.6-1 .2-2.1.6-3.6 1.1-.1.2-.3.2-.4.2zm-21.9-9.2c-.7 0-1.2-.5-1.4-1.1l-.2-1c-.2-1-.4-2-.6-2.9-.2-.7.3-1.5 1-1.7.8-.2 1.5.3 1.7 1 .3 1 .5 2 .7 3l.2.9c.2.8-.3 1.5-1.1 1.7-.1.1-.2.1-.3.1zm-3.9-10.1c-.4 0-.8-.2-1-.5-.8-.8-1.7-1.5-2.8-2.1-.7-.4-.9-1.2-.6-1.9.4-.7 1.2-.9 1.9-.6 1.4.7 2.6 1.6 3.5 2.7.5.6.5 1.5-.1 2-.2.3-.5.4-.9.4z"/><path fill="#A1ABD0" d="M101.8 246.4c-1.4 0-2.7-.6-3.8-1.6-1-1-1.6-2.3-1.6-3.8l-.1-28c0-2.9 2.4-5.3 5.3-5.3l52.1-.1c1.4 0 2.7.6 3.8 1.6 1 1 1.6 2.3 1.6 3.8l.1 28c0 1.4-.5 2.8-1.6 3.8-1 1-2.3 1.6-3.8 1.6h-52zm52-36c-.1 0-.1 0 0 0l-52.1.1c-1.4 0-2.5 1.1-2.5 2.5l.1 28c0 1.4 1.1 2.5 2.5 2.5l52.1-.1c.7 0 1.3-.3 1.8-.7.5-.5.7-1.1.7-1.8l-.1-28c0-.7-.3-1.3-.7-1.8-.5-.4-1.2-.7-1.8-.7z"/><path fill="#A1ABD0" d="M127.7 240c-7.4 0-13.4-6.1-13.4-13.5s6-13.5 13.4-13.5 13.4 6.1 13.4 13.5-6 13.5-13.4 13.5zm0-24c-5.9 0-10.6 4.7-10.6 10.5s4.8 10.5 10.6 10.5c5.9 0 10.6-4.7 10.6-10.5 0-5.9-4.8-10.5-10.6-10.5z"/><path fill="#A1ABD0" d="M127.7 235c-2.3 0-4.5-.7-6.2-2.4-1.7-1.7-2.6-3.7-2.6-6 0-4.8 3.9-8.6 8.8-8.6 4.8 0 8.8 3.8 8.8 8.7 0 2.3-.9 4.3-2.6 6s-3.8 2.3-6.2 2.3zm0-14c-3.3 0-6 2.5-6 5.8 0 1.6.6 3.2 1.8 4.3 1.1 1.1 2.6 1.9 4.2 1.9s3.1-.8 4.2-2c1.1-1.1 1.7-2.5 1.7-4.1.1-3.3-2.6-5.9-5.9-5.9z"/><g><path fill="#A1ABD0" d="M98.6 224c-.8 0-1.4-.8-1.4-1.6s.6-1.4 1.4-1.4h16.7c.8 0 1.4.5 1.4 1.3s-.6 1.5-1.4 1.5l-16.7.2z"/></g><g><path fill="#A1ABD0" d="M139.2 224c-.8 0-1.4-.8-1.4-1.6s.6-1.4 1.4-1.4h17.9c.8 0 1.4.5 1.4 1.3s-.6 1.6-1.4 1.6l-17.9.1z"/></g><g><path fill="#A1ABD0" d="M150.8 220c-1.1 0-2-.4-2.8-1.2-.7-.7-1.2-1.8-1.2-2.8 0-1.1.4-2.1 1.2-2.8s1.7-1.2 2.8-1.2c1.1 0 2 .4 2.8 1.2.7.7 1.2 1.8 1.2 2.8 0 2.2-1.8 4-4 4zm0-5c-.3 0-.6 0-.8.2-.2.2-.3.5-.3.8s.1.5.3.7c.2.2.5.3.8.3.6 0 1.2-.5 1.2-1.1 0-.3-.1-.5-.3-.7-.3-.2-.6-.2-.9-.2z"/></g><g><path fill="#A1ABD0" d="M103.5 220c-.6 0-1.2-.2-1.7-.7-.5-.5-.7-1.1-.7-1.7v-3.9c0-.6.2-1.2.7-1.7.5-.5 1.1-.7 1.7-.7h7.5c.6 0 1.2.2 1.7.7.5.5.7 1.1.7 1.7v3.9c0 .6-.2 1.2-.7 1.7-.5.5-1.1.7-1.7.7h-7.5zm.4-5.9v3.1h6.8v-3.1h-6.8z"/></g><g><path fill="#A1ABD0" d="M141.8 210.4c-.4 0-.7-.1-1-.4-.3-.3-.4-.6-.4-1v-4.7c0-.8.6-1.4 1.4-1.4h11.1c.4 0 .7.1 1 .4.3.3.4.6.4 1v4.7c0 .8-.6 1.4-1.4 1.4h-11.1zm1.4-4.7v1.9h8.3v-1.9h-8.3z"/></g><g><path fill="#FFB8C7" d="M189.5 154.4c-3.3 0-5.9-2.6-5.9-5.9s2.6-5.9 5.9-5.9 5.9 2.6 5.9 5.9-2.6 5.9-5.9 5.9zm0-9c-1.7 0-3.1 1.4-3.1 3.1s1.4 3.1 3.1 3.1c1.7 0 3.1-1.4 3.1-3.1s-1.4-3.1-3.1-3.1z"/></g><g><path fill="#FFF" d="M281.7 201.2c1.2 3.1 1.1 6.5-.3 9.5-1.4 3-3.8 5.3-6.9 6.5-3.1 1.2-6.5 1.1-9.5-.3-3-1.4-5.3-3.8-6.5-6.9-2.4-6.4.8-13.6 7.2-16 3.1-1.2 6.5-1.1 9.5.3 3 1.4 5.3 3.8 6.5 6.9zm-3.5 2.2c.3-.2.4-.6.3-.9-.1-.3-.5-.5-.8-.5l-8.5.6c-.2 0-.3.1-.4.2l-6.8 5.3c-.3.2-.4.6-.2.9.1.2.2.4.4.4.1.1.2.1.4.1l8.5-.6c.2 0 .3-.1.4-.2l6.7-5.3z"/><path fill="#A9DEEB" d="M271.4 206.7l3.9-3-4.9.3 1 2.7zm-2.5-2.1l-3.9 3 5-.3-1.1-2.7zm2.1 4.2l-8.5.6c-.1 0-.3 0-.4-.1-.2-.1-.3-.2-.4-.4-.1-.3 0-.7.2-.9l6.8-5.3c.1-.1.3-.1.4-.2l8.5-.6c.3 0 .7.2.8.5.1.3 0 .7-.3.9l-6.8 5.3c.1.1-.1.2-.3.2z"/><path fill="#A9DEEB" d="M278.3 191.3c.4-.8 0-1.8-.8-2.2-.8-.4-1.8 0-2.2.8-.4.8 0 1.8.8 2.2.9.4 1.9.1 2.2-.8zm-13.4.5c2.9-1.1 5.9-1.3 8.9-.5-.1-.6-.1-1.3.2-2 .7-1.6 2.6-2.3 4.2-1.6 1.6.7 2.3 2.6 1.6 4.2-.3.6-.8 1.1-1.3 1.5 2.5 1.7 4.4 4.1 5.5 7 1.4 3.7 1.3 7.7-.3 11.3-1.6 3.6-4.5 6.4-8.2 7.8-3.7 1.4-7.7 1.3-11.3-.3-3.6-1.6-6.3-4.5-7.8-8.2-3-7.7.8-16.3 8.5-19.2zm10.3 2.5c-3-1.4-6.4-1.5-9.5-.3-6.4 2.4-9.6 9.6-7.2 16 1.2 3.1 3.5 5.6 6.5 6.9 3 1.4 6.4 1.5 9.5.3 3.1-1.2 5.6-3.5 6.9-6.5 1.4-3 1.5-6.4.3-9.5-1.2-3.1-3.5-5.5-6.5-6.9z"/></g></svg>
