<?xml version="1.0" encoding="utf-8"?>
<!-- Generator: Adobe Illustrator 19.0.0, SVG Export Plug-In . SVG Version: 6.00 Build 0)  -->
<svg version="1.1" id="Layer_1" xmlns="http://www.w3.org/2000/svg" xmlns:xlink="http://www.w3.org/1999/xlink" x="0px" y="0px"
	 viewBox="0 0 382 327" enable-background="new 0 0 382 327" xml:space="preserve">
<g id="XMLID_852_">
	<path id="XMLID_121_" fill="#F6F7F9" d="M194.5,270.2c-39.9,0-79-19.7-102-55.8c-3.5-5.4-1.9-12.6,3.5-16c5.4-3.5,12.6-1.9,16,3.5
		c18.6,29.1,50.2,45,82.4,45c18,0,36.1-4.9,52.4-15.3c22-14,37.2-35.8,42.8-61.2c5.6-25.5,1-51.6-13-73.5c-3.5-5.4-1.9-12.6,3.5-16
		c5.4-3.5,12.6-1.9,16,3.5c17.4,27.2,23.1,59.5,16.1,91c-7,31.5-25.8,58.4-53,75.8C239.2,264.1,216.7,270.2,194.5,270.2z"/>
</g>
<g id="XMLID_836_">
	<path id="XMLID_120_" fill="#F6F7F9" d="M87.1,180.1c-5.6,0-10.5-4-11.4-9.7c-8.1-48,13.1-95.9,54.1-122.1
		c19.5-12.4,41.9-19,64.9-19c0.2,0,0.5,0,0.7,0c6.4,0,11.6,5.3,11.5,11.7c0,6.4-5.2,11.5-11.6,11.5c-0.2,0-0.4,0-0.7,0
		c-18.6,0-36.7,5.3-52.4,15.3c-33.1,21.2-50.3,59.9-43.7,98.6c1.1,6.3-3.2,12.3-9.5,13.4C88.4,180,87.7,180.1,87.1,180.1z"/>
</g>
<g id="XMLID_854_">
	<path id="XMLID_119_" fill="#F6F7F9" d="M196.8,235.5c-6.1,0-12.3-0.7-18.5-2c-6.3-1.4-10.2-7.5-8.9-13.8
		c1.4-6.3,7.5-10.2,13.8-8.9c16.4,3.6,33.2,0.5,47.3-8.5c14.1-9.1,23.9-23.1,27.4-39.5c1.8-8.5,1.9-17.1,0.3-25.5
		c-2.5-12.6-8.7-24-17.9-32.9c-4.6-4.5-4.7-11.8-0.2-16.4c4.5-4.6,11.8-4.7,16.4-0.2c12.6,12.3,21,27.9,24.4,45.1
		c2.3,11.6,2.2,23.3-0.4,34.9c-4.9,22.5-18.2,41.7-37.6,54.1C229.1,230.9,213.1,235.5,196.8,235.5z"/>
</g>
<g id="XMLID_857_">
	<path id="XMLID_118_" fill="#F6F7F9" d="M133.9,200.6c-3.8,0-7.6-1.9-9.8-5.4c-24.9-39-13.4-90.9,25.6-115.8
		c5.4-3.5,12.6-1.9,16,3.5s1.9,12.6-3.5,16c-28.2,18-36.5,55.6-18.5,83.7c3.5,5.4,1.9,12.6-3.5,16
		C138.2,200,136.1,200.6,133.9,200.6z"/>
</g>
<g id="XMLID_858_">
	<path id="XMLID_115_" fill="#F6F7F9" d="M197.1,187.8c-12.6,0-25-6.2-32.2-17.6l0,0c-5.5-8.6-7.3-18.8-5.1-28.8
		c2.2-10,8.1-18.5,16.7-24c17.7-11.3,41.4-6.1,52.7,11.6c11.3,17.7,6.1,41.4-11.6,52.7C211.2,185.8,204.1,187.8,197.1,187.8z
		 M197,134.6c-2.8,0-5.5,0.8-8,2.3c-3.4,2.2-5.7,5.5-6.6,9.4c-0.9,3.9-0.2,7.9,2,11.3l0,0c4.4,7,13.7,9,20.7,4.6
		c7-4.4,9-13.7,4.6-20.7C206.8,137.1,201.9,134.6,197,134.6z"/>
</g>
<g id="XMLID_921_" opacity="0.5">
	<path id="XMLID_111_" fill="#FFFFFF" d="M153.8,244.9l-52.1,0.1c-2.2,0-3.9-1.7-3.9-3.9l-0.1-28c0-2.2,1.7-3.9,3.9-3.9l52.1-0.1
		c2.2,0,3.9,1.7,3.9,3.9l0.1,28C157.7,243.1,156,244.9,153.8,244.9z"/>
	<path id="XMLID_112_" fill="#C5C6D1" d="M101.8,246.5c-1.4,0-2.8-0.6-3.8-1.6c-1-1-1.6-2.4-1.6-3.8l-0.1-28c0-3,2.4-5.4,5.4-5.4
		l52.1-0.1c0,0,0,0,0,0c1.4,0,2.8,0.6,3.8,1.6c1,1,1.6,2.4,1.6,3.8l0.1,28c0,1.4-0.6,2.8-1.6,3.8c-1,1-2.4,1.6-3.8,1.6c0,0,0,0,0,0
		L101.8,246.5C101.8,246.5,101.8,246.5,101.8,246.5z M153.8,210.5C153.7,210.5,153.7,210.5,153.8,210.5l-52.1,0.1
		c-1.3,0-2.4,1.1-2.4,2.4l0.1,28c0,0.6,0.3,1.3,0.7,1.7c0.5,0.5,1.1,0.7,1.7,0.7c0,0,0,0,0,0l52.1-0.1h0c0.6,0,1.3-0.3,1.7-0.7
		c0.5-0.5,0.7-1.1,0.7-1.7l-0.1-28c0-0.6-0.3-1.3-0.7-1.7C155,210.8,154.4,210.5,153.8,210.5z"/>
</g>
<g id="XMLID_826_">
	<path id="XMLID_109_" fill="#FFB8C7" d="M94.9,70c-0.4-3-2.9-5.3-5.9-5.6c-3.9-0.3-7.1,2.8-7,6.6c0,1.5,0.6,3,1.6,4l4.8,5.1
		c0.2,0.2,0.5,0.2,0.7,0c1.1-1.3,4.6-5.5,4.8-5.9l0,0l0,0C94.7,73.1,95.1,71.6,94.9,70z M88.6,73.3c-1.3,0-2.3-1-2.4-2.2
		c0-1.3,1-2.3,2.2-2.4c1.3,0,2.3,1,2.4,2.2S89.8,73.2,88.6,73.3z"/>
</g>
<g id="XMLID_859_">
	<path fill="#A9DEEB" d="M73,191h-3v-2.9c0-0.7-0.3-1.3-1-1.3s-1,0.6-1,1.3v2.9h-3c-0.7,0-1.3,0.3-1.3,1s0.6,1,1.3,1h3v3
		c0,0.7,0.3,1.3,1,1.3s1-0.6,1-1.3v-3h3c0.7,0,1.3-0.3,1.3-1S73.7,191,73,191z"/>
</g>
<g id="XMLID_772_">
	<path fill="#FF7676" d="M179.9,45.9l-1.6-2.5l2.5-1.5c0.6-0.4,1-0.9,0.6-1.5c-0.4-0.6-1-0.5-1.6-0.2l-2.5,1.5l-1.6-2.5
		c-0.4-0.6-0.9-1-1.5-0.6s-0.5,1-0.2,1.6l1.6,2.5l-2.5,1.6c-0.6,0.4-1,0.9-0.6,1.5c0.4,0.6,1,0.5,1.6,0.2l2.5-1.6l1.6,2.5
		c0.4,0.6,0.9,1,1.5,0.6S180.3,46.5,179.9,45.9z"/>
</g>
<g id="XMLID_960_">
	<path fill="#4B5E7F" d="M301.4,103.4C301.4,103.4,301.4,103.4,301.4,103.4l-18.1-18.1c0,0,0,0,0,0c0,0,0,0,0,0l-6-6
		c-0.4-0.4-1.2-0.4-1.6,0l-1.4,1.4l-2.1-2.1l1-1c0.1-0.1,0.2-0.2,0.2-0.3c0.1,0,0.1-0.1,0.2-0.1c0.1-0.1,0.2-0.3,0.3-0.4
		c1.2-1.6,1.9-3.4,1.9-5.4c0-2-0.7-3.9-1.9-5.4l1.3-1.5c5.2,3.3,11.1,3.6,14.5,0.2c0.2-0.2,0.4-0.5,0.4-1.1c0-2.3-5.4-8.2-7.8-10.6
		l1-1c0.6,0.1,1.1-0.1,1.6-0.5c0.7-0.7,0.7-1.9,0-2.7c-0.7-0.7-1.9-0.7-2.7,0c-0.4,0.4-0.6,1-0.5,1.6l-1,1c-2.3-2.2-4.6-4.2-6.4-5.6
		c-2.9-2.2-4.3-2.6-5.2-1.7c-0.1,0.1-0.1,0.1-0.2,0.2c-1.5,1.6-2.2,3.7-2.2,6.1c0,2.6,0.9,5.5,2.6,8.2l-1.5,1.3
		c-3.2-2.5-7.7-2.5-10.8,0c-0.1,0.1-0.3,0.1-0.4,0.3c0,0-0.1,0.1-0.1,0.2c-0.1,0.1-0.2,0.1-0.3,0.2l-1,1l-2.1-2.1l1.4-1.4
		c0.4-0.4,0.4-1.2,0-1.6l-12-12c0,0,0,0,0,0c0,0,0,0,0,0l-12-12c-0.4-0.4-1.2-0.4-1.6,0l-7.1,7.1c0,0,0,0,0,0c0,0,0,0,0,0l-7.1,7.1
		c-0.1,0.1-0.2,0.2-0.2,0.4c-0.1,0.1-0.1,0.3-0.1,0.4s0,0.3,0.1,0.4c0.1,0.1,0.1,0.3,0.2,0.4l6,6v0c0,0,0,0,0,0l18.1,18.1
		c0.4,0.4,1.2,0.4,1.6,0l1.4-1.4l2.1,2.1l-1,1c-0.1,0.1-0.2,0.2-0.2,0.3c-0.1,0-0.1,0.1-0.2,0.1c-0.1,0.1-0.2,0.3-0.3,0.4
		c-1.2,1.6-1.9,3.4-1.9,5.4c0,1.8,0.6,3.5,1.6,5l1.5,1.7l3.6,3.6l1.7,1.5c3.2,2.3,7.5,2.2,10.5-0.3c0.1-0.1,0.3-0.1,0.4-0.3
		c0,0,0.1-0.1,0.1-0.2c0.1-0.1,0.2-0.1,0.3-0.2l1-1l2.1,2.1l-1.4,1.4c-0.2,0.2-0.3,0.5-0.3,0.8c0,0.3,0.1,0.6,0.3,0.8l24.1,24.1
		c0.1,0.1,0.2,0.2,0.4,0.2c0.4,0.2,0.9,0.1,1.3-0.2l14.3-14.3C301.8,104.6,301.8,103.9,301.4,103.4z M293,98.2l-5.5,5.5l-4.4-4.4
		l5.5-5.5L293,98.2z M286.9,92.2l-5.5,5.5l-4.4-4.4l5.5-5.5L286.9,92.2z M276.5,81.7l4.4,4.4l-5.5,5.5l-4.4-4.4l1.4-1.4c0,0,0,0,0,0
		l0.8-0.8L276.5,81.7z M272.7,82.3l-1.1,1.1l-2.1-2.1l1.1-1.1L272.7,82.3z M270,85.1l-1.4,1.4c0,0,0,0,0,0c0,0,0,0,0,0l-1.4,1.4
		l-2.1-2.1l2.8-2.8L270,85.1z M280.7,54.6c3.1,3.2,5.1,5.7,6.2,7.3c-1.6-1.1-4.1-3.1-7.3-6.2L280.7,54.6z M279.1,53l-1.1,1.1
		c-3.1-3.2-5.1-5.7-6.2-7.2C273.4,47.9,276,49.9,279.1,53z M269.5,47.4c2,3.3,6.6,8,7.7,9.1c3.9,3.9,7,6.5,9.1,7.7
		c-3.5,1.6-8.8,0-12.8-4C269.5,56.1,268,50.9,269.5,47.4z M273.4,63.1l-1,1.2l-2.9-2.9l1.2-1c0.4,0.5,0.8,1,1.3,1.4
		C272.4,62.3,272.9,62.7,273.4,63.1z M267,62.1l4.7,4.7c1.2,1.2,1.9,2.9,1.9,4.6c0,1.2-0.3,2.3-0.9,3.2l-13.5-13.5
		C261.6,59.7,264.8,60,267,62.1z M253.5,63.1l-1.1,1.1l-2.1-2.1l1.1-1.1L253.5,63.1z M250.8,65.8l-2.8,2.8l-2.1-2.1l1.4-1.4
		c0,0,0,0,0,0c0,0,0,0,0,0l1.4-1.4L250.8,65.8z M252,57.2l-5.5,5.5l-4.4-4.4l5.5-5.5L252,57.2z M246,51.2l-5.5,5.5l-4.4-4.4l5.5-5.5
		L246,51.2z M239.9,45.2l-5.5,5.5l-4.4-4.4l5.5-5.5L239.9,45.2z M229.5,34.8l4.4,4.4l-5.5,5.5l-4.4-4.4L229.5,34.8z M216.9,47.4
		l5.5-5.5l4.4,4.4l-5.5,5.5L216.9,47.4z M222.9,53.4l5.5-5.5l4.4,4.4l-5.5,5.5L222.9,53.4z M228.9,59.5l5.5-5.5l4.4,4.4l-5.5,5.5
		L228.9,59.5z M239.3,69.9l-4.4-4.4l5.5-5.5l4.4,4.4L239.3,69.9z M243.2,69.3l1.1-1.1l2.1,2.1l-1.1,1.1L243.2,69.3z M253.5,91.4
		c-1.7,0-3.4-0.7-4.6-1.9l-4.7-4.7c-1.2-1.2-1.9-2.9-1.9-4.6c0-1.2,0.3-2.3,0.9-3.2l13.5,13.5C255.8,91.1,254.7,91.4,253.5,91.4z
		 M258.5,89.1l-13.9-13.9l12.7-12.7l13.9,13.9L258.5,89.1z M262.4,88.5l1.1-1.1l2.1,2.1l-1.1,1.1L262.4,88.5z M263.9,94.4l3.3-3.3
		l0.8-0.8c0,0,0,0,0,0l1.4-1.4l4.4,4.4l-5.5,5.5L263.9,94.4z M269.9,100.4l5.5-5.5l4.4,4.4l-5.5,5.5L269.9,100.4z M275.9,106.4
		l5.5-5.5l4.4,4.4l-5.5,5.5L275.9,106.4z M286.3,116.9l-4.4-4.4l5.5-5.5l4.4,4.4L286.3,116.9z M293.5,109.7l-4.4-4.4l5.5-5.5
		l4.4,4.4L293.5,109.7z"/>
</g>
<g id="XMLID_888_">
	<path fill="#4B5E7F" d="M284.6,37.4c6.5,0,11.9,5.3,11.9,11.9c0,0.6,0.5,1.1,1.1,1.1c0.6,0,1.1-0.5,1.1-1.1
		c0-7.8-6.4-14.1-14.2-14.1c-0.6,0-1.1,0.5-1.1,1.1C283.5,36.9,284,37.4,284.6,37.4z"/>
</g>
<g id="XMLID_887_">
	<path fill="#4B5E7F" d="M284.6,41.7c2,0,3.9,0.8,5.3,2.2c1.4,1.4,2.2,3.3,2.2,5.3v0c0,0.6,0.5,1.1,1.1,1.1c0.6,0,1.1-0.5,1.1-1.1v0
		c0-2.6-1-5.1-2.9-6.9c-1.9-1.9-4.3-2.9-6.9-2.9c-0.6,0-1.1,0.5-1.1,1.1C283.5,41.2,284,41.7,284.6,41.7z"/>
</g>
<g id="XMLID_955_">
	<path fill="#4B5E7F" d="M262.5,71.4c-1.2-1.2-2.8-1.9-4.5-1.9c-1.7,0-3.3,0.7-4.5,1.9c-1.2,1.2-1.9,2.8-1.9,4.5
		c0,1.7,0.7,3.3,1.9,4.5c2.5,2.5,6.6,2.5,9,0c1.2-1.2,1.9-2.8,1.9-4.5C264.4,74.2,263.7,72.6,262.5,71.4z M260.9,78.8
		c-1.6,1.6-4.2,1.6-5.8,0c-1.6-1.6-1.6-4.3,0-5.8c0.8-0.8,1.8-1.2,2.9-1.2c1.1,0,2.1,0.4,2.9,1.2c0.8,0.8,1.2,1.8,1.2,2.9
		C262.1,77,261.7,78,260.9,78.8z"/>
</g>
<g id="XMLID_884_">
	<path fill="#4B5E7F" d="M284.6,46.1c1.8,0,3.2,1.4,3.2,3.2c0,0.6,0.5,1.1,1.1,1.1c0.6,0,1.1-0.5,1.1-1.1c0-3-2.5-5.5-5.5-5.5
		c-0.6,0-1.1,0.5-1.1,1.1C283.5,45.5,284,46.1,284.6,46.1z"/>
</g>
<g id="XMLID_883_">
	<path fill="#A1ABD0" d="M213.8,68.3c0,1.2,0.9,2.1,2.1,2.1s2.1-0.9,2.1-2.1c0-1.2-0.9-2.1-2.1-2.1S213.8,67.2,213.8,68.3"/>
</g>
<g id="XMLID_949_">
	<g id="XMLID_950_">
		<path id="XMLID_108_" fill="#4B5E7F" d="M213.4,75.5c-1.7,0-3.2,1.4-3.2,3.2c0,1.7,1.4,3.1,3.2,3.1c1.7,0,3.2-1.4,3.2-3.1
			C216.5,76.9,215.1,75.5,213.4,75.5z M213.4,79.7c-0.6,0-1-0.5-1-1c0-0.6,0.5-1,1-1s1,0.5,1,1C214.4,79.2,213.9,79.7,213.4,79.7z"
			/>
	</g>
</g>
<g id="XMLID_880_">
	<circle id="XMLID_107_" fill="#FFB8C7" cx="224" cy="74.6" r="2.1"/>
</g>
<g id="XMLID_774_">
	<circle fill="#F6F7F9" cx="148.9" cy="162.3" r="2.1"/>
</g>
<g id="XMLID_775_">
	<circle fill="#F6F7F9" cx="59.5" cy="109.2" r="2.1"/>
</g>
<g id="XMLID_776_">
	<circle fill="#F6F7F9" cx="127.8" cy="266.4" r="2.1"/>
</g>
<g id="XMLID_777_">
	<circle fill="#F6F7F9" cx="236.1" cy="186.7" r="2.1"/>
</g>
<g id="XMLID_944_">
	<circle id="XMLID_106_" fill="#FFB8C7" cx="226.1" cy="278.7" r="2.1"/>
</g>
<g id="XMLID_778_">
	<circle fill="#F6F7F9" cx="312" cy="220.4" r="2.1"/>
</g>
<g id="XMLID_879_">
	<circle id="XMLID_105_" fill="#FFB8C7" cx="305.7" cy="73.3" r="2.1"/>
</g>
<g id="XMLID_878_">
	<circle fill="#4B5E7F" cx="291.1" cy="79.7" r="2.1"/>
</g>
<g id="XMLID_877_">
	<circle fill="#4B5E7F" cx="300.8" cy="64.8" r="2.1"/>
</g>
<g id="XMLID_876_">
	<circle fill="#4B5E7F" cx="255.8" cy="46.3" r="2.1"/>
</g>
<g id="XMLID_875_">
	<circle fill="#A9DEEB" cx="270.6" cy="35.4" r="2.1"/>
</g>
<g id="XMLID_874_">
	<circle fill="#4B5E7F" cx="248.4" cy="107.1" r="2.1"/>
</g>
<g id="XMLID_938_">
	<g id="XMLID_939_">
		<path id="XMLID_104_" fill="#4B5E7F" d="M258,107.3c-2.5,0-4.4,2-4.4,4.5s2,4.5,4.4,4.5c2.5,0,4.5-2,4.5-4.5
			C262.5,109.3,260.5,107.3,258,107.3z M258,114.1c-1.3,0-2.3-1-2.3-2.3c0-1.3,1-2.3,2.3-2.3s2.3,1,2.3,2.3
			C260.4,113,259.3,114.1,258,114.1z"/>
	</g>
</g>
<g id="XMLID_934_">
	<g id="XMLID_935_">
		<path id="XMLID_103_" fill="#4B5E7F" d="M259,28.8c-2.5,0-4.4,2-4.4,4.5s2,4.4,4.4,4.4c2.5,0,4.4-2,4.4-4.4S261.4,28.8,259,28.8z
			 M259,35.6c-1.3,0-2.3-1-2.3-2.3c0-1.3,1-2.3,2.3-2.3c1.3,0,2.3,1,2.3,2.3C261.3,34.6,260.2,35.6,259,35.6z"/>
	</g>
</g>
<g id="XMLID_922_">
	<g id="XMLID_869_">
		<path fill="#4B5E7F" d="M241.4,78.6c0,1,0.4,1.9,1.1,2.5l11.2,11.2c1.1,1.1,2.9,1.3,4.2,0.6L241.8,77
			C241.6,77.5,241.4,78,241.4,78.6z"/>
	</g>
	<g id="XMLID_868_">
		<polygon fill="#4B5E7F" points="244.4,92 246.8,94.4 249,90.8 247.3,89 		"/>
	</g>
	<g id="XMLID_867_">
		<polygon fill="#4B5E7F" points="250.1,97.7 251.7,93.4 250.6,92.3 248.3,95.9 		"/>
	</g>
	<g id="XMLID_866_">
		<polygon fill="#4B5E7F" points="242.6,84.3 241.4,83.2 241.3,83.2 242.5,84.3 		"/>
	</g>
	<g id="XMLID_865_">
		<polygon fill="#4B5E7F" points="242.9,90.5 245.8,87.6 244.1,85.9 240.5,88.1 		"/>
	</g>
	<g id="XMLID_864_">
		<polygon fill="#4B5E7F" points="245.8,87.5 244.1,85.8 244.1,85.9 245.8,87.6 		"/>
	</g>
	<g id="XMLID_863_">
		<polygon fill="#4B5E7F" points="239,86.6 242.5,84.3 241.3,83.2 237.2,84.8 		"/>
	</g>
	<g id="XMLID_923_">
		<path id="XMLID_1_" fill="#4B5E7F" d="M242.9,90.5l-2.4-2.4l3.5-2.2l-1.6-1.5l-3.5,2.2l-1.8-1.8l4.1-1.6v-2.3l-6.4,2.5
			c-0.3,0.1-0.6,0.4-0.7,0.8c-0.1,0.4,0,0.7,0.3,1l15.3,15.3c0.2,0.2,0.5,0.3,0.8,0.3c0.1,0,0.1,0,0.2,0c0.4-0.1,0.6-0.3,0.8-0.7
			l2.6-6.9l-8.6-5.3L242.9,90.5z M251.7,93.4l-1.6,4.3l-1.8-1.8l2.3-3.6L251.7,93.4z M246.8,94.4l-2.4-2.4l2.9-2.9l1.7,1.7
			L246.8,94.4z"/>
	</g>
</g>
<g id="XMLID_919_">
	<path id="XMLID_89_" fill="#FFB8C7" d="M185.7,146.1c-0.4,0-0.8-0.2-1.1-0.5c-0.9-1.1-1.7-2.3-2.3-3.8c-0.3-0.7,0.1-1.5,0.8-1.8
		c0.7-0.3,1.5,0.1,1.8,0.8c0.5,1.2,1.1,2.2,1.8,3c0.5,0.6,0.4,1.5-0.1,2C186.3,145.9,186,146.1,185.7,146.1z M181.9,135.9
		c-0.6,0-1.2-0.5-1.4-1.1c-0.2-1.1-0.5-2.4-1-3.7c-0.3-0.7,0.1-1.5,0.8-1.8c0.7-0.3,1.5,0.1,1.8,0.8c0.5,1.4,0.8,2.8,1.1,4.1
		c0.2,0.8-0.3,1.5-1.1,1.7C182.1,135.9,182,135.9,181.9,135.9z M153.9,128.4c-0.7,0-1.3-0.1-2-0.2c-0.8-0.1-1.3-0.9-1.1-1.6
		c0.1-0.8,0.8-1.3,1.6-1.1c0.5,0.1,1,0.1,1.5,0.1c0.6,0,1.3-0.1,2-0.2c0.8-0.1,1.5,0.4,1.6,1.1c0.1,0.8-0.4,1.5-1.1,1.6
		C155.5,128.4,154.6,128.4,153.9,128.4z M176.9,126.4c-0.3,0-0.6-0.1-0.8-0.3c-0.4-0.3-0.9-0.6-1.4-0.8c-0.6-0.3-1.2-0.6-1.8-0.8
		c-0.7-0.2-1.1-1-0.9-1.8c0.2-0.7,1-1.1,1.8-0.9c0.7,0.2,1.5,0.6,2.2,1c0.6,0.3,1.2,0.7,1.7,1.1c0.6,0.5,0.8,1.3,0.3,2
		C177.7,126.2,177.3,126.4,176.9,126.4z M162.7,125.9c-0.6,0-1.1-0.3-1.3-0.9c-0.3-0.7,0-1.5,0.8-1.8c1.4-0.6,2.6-1.1,3.9-1.4
		c0.7-0.2,1.5,0.2,1.7,1c0.2,0.7-0.2,1.5-1,1.7c-1.1,0.3-2.3,0.7-3.6,1.3C163,125.9,162.9,125.9,162.7,125.9z M145.9,125.2
		c-0.3,0-0.7-0.1-1-0.4c-1.1-1-2-2.2-2.6-3.6c-0.3-0.7-0.1-1.5,0.6-1.9c0.7-0.3,1.5-0.1,1.9,0.6c0.5,1.1,1.2,2,2.1,2.8
		c0.6,0.5,0.6,1.4,0.1,2C146.7,125.1,146.3,125.2,145.9,125.2z M141.6,115.3c-0.7,0-1.2-0.5-1.4-1.1c-0.2-1.2-0.5-2.5-0.9-3.8
		c-0.2-0.7,0.2-1.5,0.9-1.7c0.7-0.2,1.5,0.2,1.7,0.9c0.4,1.4,0.7,2.8,0.9,4c0.2,0.8-0.3,1.5-1.1,1.6
		C141.8,115.3,141.7,115.3,141.6,115.3z M113.3,106.8c-0.3,0-0.5,0-0.8,0c-0.8,0-1.4-0.7-1.3-1.5s0.7-1.4,1.5-1.3
		c1.1,0.1,2.2-0.1,3.5-0.4c0.8-0.2,1.5,0.3,1.7,1c0.2,0.7-0.3,1.5-1,1.7C115.7,106.6,114.5,106.8,113.3,106.8z M137.2,105.5
		c-0.3,0-0.7-0.1-0.9-0.4c-0.6-0.5-1.3-1-2.1-1.4c-0.3-0.2-0.6-0.3-0.9-0.4c-0.7-0.3-1-1.1-0.7-1.8c0.3-0.7,1.1-1,1.8-0.7
		c0.4,0.2,0.7,0.3,1.1,0.5c1,0.5,1.9,1.1,2.6,1.8c0.6,0.5,0.6,1.4,0.1,2C138,105.3,137.6,105.5,137.2,105.5z M106.2,104.3
		c-0.3,0-0.6-0.1-0.9-0.3c-1.2-0.9-2.2-2-3-3.3c-0.4-0.7-0.2-1.5,0.5-1.9c0.7-0.4,1.5-0.2,1.9,0.5c0.6,1,1.4,1.8,2.3,2.6
		c0.6,0.5,0.7,1.3,0.3,2C107.1,104.1,106.6,104.3,106.2,104.3z M123.2,103.9c-0.6,0-1.1-0.3-1.3-0.9c-0.3-0.7,0.1-1.5,0.8-1.8
		c1.1-0.4,2.5-0.9,4-1.3c0.8-0.2,1.5,0.3,1.6,1.1c0.2,0.8-0.3,1.5-1.1,1.6c-1,0.2-2.1,0.6-3.6,1.1
		C123.5,103.9,123.3,103.9,123.2,103.9z M101.3,94.7c-0.7,0-1.2-0.5-1.4-1.1l-0.2-1c-0.2-1-0.4-2-0.6-2.9c-0.2-0.7,0.3-1.5,1-1.7
		c0.8-0.2,1.5,0.3,1.7,1c0.3,1,0.5,2,0.7,3l0.2,0.9c0.2,0.8-0.3,1.5-1.1,1.7C101.5,94.7,101.4,94.7,101.3,94.7z M97.4,84.6
		c-0.4,0-0.8-0.2-1-0.5c-0.8-0.8-1.7-1.5-2.8-2.1c-0.7-0.4-0.9-1.2-0.6-1.9c0.4-0.7,1.2-0.9,1.9-0.6c1.4,0.7,2.6,1.6,3.5,2.7
		c0.5,0.6,0.5,1.5-0.1,2C98.1,84.5,97.8,84.6,97.4,84.6z"/>
</g>
<g id="XMLID_920_">
	<path id="XMLID_86_" fill="#A1ABD0" d="M101.8,246.4c-1.4,0-2.7-0.6-3.8-1.6c-1-1-1.6-2.3-1.6-3.8l-0.1-28c0-2.9,2.4-5.3,5.3-5.3
		l52.1-0.1c0,0,0,0,0,0c1.4,0,2.7,0.6,3.8,1.6c1,1,1.6,2.3,1.6,3.8l0.1,28c0,1.4-0.5,2.8-1.6,3.8c-1,1-2.3,1.6-3.8,1.6l0,0
		L101.8,246.4C101.8,246.4,101.8,246.4,101.8,246.4z M153.8,210.4C153.7,210.4,153.7,210.4,153.8,210.4l-52.1,0.1
		c-1.4,0-2.5,1.1-2.5,2.5l0.1,28c0,1.4,1.1,2.5,2.5,2.5c0,0,0,0,0,0l52.1-0.1c0.7,0,1.3-0.3,1.8-0.7c0.5-0.5,0.7-1.1,0.7-1.8
		l-0.1-28c0-0.7-0.3-1.3-0.7-1.8C155.1,210.7,154.4,210.4,153.8,210.4z"/>
</g>
<g id="XMLID_924_">
	<path id="XMLID_83_" fill="#A1ABD0" d="M127.7,240c-7.4,0-13.4-6.1-13.4-13.5c0-7.4,6-13.5,13.4-13.5c0,0,0,0,0,0
		c7.4,0,13.4,6.1,13.4,13.5l0,0C141.1,233.9,135.1,240,127.7,240C127.7,240,127.7,240,127.7,240z M127.7,216
		C127.7,216,127.7,216,127.7,216c-5.9,0-10.6,4.7-10.6,10.5c0,5.8,4.8,10.5,10.6,10.5c0,0,0,0,0,0c5.9,0,10.6-4.7,10.6-10.5l0,0
		C138.3,220.6,133.5,216,127.7,216z"/>
</g>
<g id="XMLID_925_">
	<path id="XMLID_80_" fill="#A1ABD0" d="M127.7,235c-2.3,0-4.5-0.7-6.2-2.4c-1.7-1.7-2.6-3.7-2.6-6c0-4.8,3.9-8.6,8.8-8.6
		c0,0,0,0,0,0c4.8,0,8.8,3.8,8.8,8.7l0,0c0,2.3-0.9,4.3-2.6,6S130.1,235,127.7,235C127.7,235,127.7,235,127.7,235z M127.7,221
		C127.7,221,127.7,221,127.7,221c-3.3,0-6,2.5-6,5.8c0,1.6,0.6,3.2,1.8,4.3c1.1,1.1,2.6,1.9,4.2,1.9c0,0,0,0,0,0
		c1.6,0,3.1-0.8,4.2-2c1.1-1.1,1.7-2.5,1.7-4.1l0,0C133.7,223.6,131,221,127.7,221z"/>
</g>
<g id="XMLID_926_">
	<path id="XMLID_79_" fill="#A1ABD0" d="M98.6,224c-0.8,0-1.4-0.8-1.4-1.6c0-0.8,0.6-1.4,1.4-1.4l16.7,0c0,0,0,0,0,0
		c0.8,0,1.4,0.5,1.4,1.3c0,0.8-0.6,1.5-1.4,1.5L98.6,224C98.6,224,98.6,224,98.6,224z"/>
</g>
<g id="XMLID_927_">
	<path id="XMLID_78_" fill="#A1ABD0" d="M139.2,224c-0.8,0-1.4-0.8-1.4-1.6c0-0.8,0.6-1.4,1.4-1.4l17.9,0c0,0,0,0,0,0
		c0.8,0,1.4,0.5,1.4,1.3c0,0.8-0.6,1.6-1.4,1.6L139.2,224C139.2,224,139.2,224,139.2,224z"/>
</g>
<g id="XMLID_928_">
	<path id="XMLID_11_" fill="#A1ABD0" d="M150.8,220c-1.1,0-2-0.4-2.8-1.2c-0.7-0.7-1.2-1.8-1.2-2.8c0-1.1,0.4-2.1,1.2-2.8
		s1.7-1.2,2.8-1.2c0,0,0,0,0,0c1.1,0,2,0.4,2.8,1.2c0.7,0.7,1.2,1.8,1.2,2.8C154.8,218.2,153,220,150.8,220
		C150.8,220,150.8,220,150.8,220z M150.8,215C150.8,215,150.8,215,150.8,215c-0.3,0-0.6,0-0.8,0.2c-0.2,0.2-0.3,0.5-0.3,0.8
		s0.1,0.5,0.3,0.7c0.2,0.2,0.5,0.3,0.8,0.3c0,0,0,0,0,0c0.6,0,1.2-0.5,1.2-1.1c0-0.3-0.1-0.5-0.3-0.7C151.4,215,151.1,215,150.8,215
		z"/>
</g>
<g id="XMLID_931_">
	<path id="XMLID_8_" fill="#A1ABD0" d="M103.5,220c-0.6,0-1.2-0.2-1.7-0.7c-0.5-0.5-0.7-1.1-0.7-1.7l0-3.9c0-0.6,0.2-1.2,0.7-1.7
		c0.5-0.5,1.1-0.7,1.7-0.7l7.5,0c0,0,0,0,0,0c0.6,0,1.2,0.2,1.7,0.7c0.5,0.5,0.7,1.1,0.7,1.7l0,3.9c0,0.6-0.2,1.2-0.7,1.7
		c-0.5,0.5-1.1,0.7-1.7,0.7L103.5,220C103.5,220,103.5,220,103.5,220z M103.9,214.1l0,3.1l6.8,0l0-3.1L103.9,214.1z"/>
</g>
<g id="XMLID_770_">
	<path id="XMLID_5_" fill="#A1ABD0" d="M141.8,210.4c-0.4,0-0.7-0.1-1-0.4c-0.3-0.3-0.4-0.6-0.4-1l0-4.7c0-0.8,0.6-1.4,1.4-1.4
		l11.1,0c0,0,0,0,0,0c0.4,0,0.7,0.1,1,0.4c0.3,0.3,0.4,0.6,0.4,1l0,4.7c0,0.8-0.6,1.4-1.4,1.4L141.8,210.4
		C141.8,210.4,141.8,210.4,141.8,210.4z M143.2,205.7l0,1.9l8.3,0l0-1.9L143.2,205.7z"/>
</g>
<g id="XMLID_771_">
	<path id="XMLID_2_" fill="#FFB8C7" d="M189.5,154.4c-3.3,0-5.9-2.6-5.9-5.9s2.6-5.9,5.9-5.9s5.9,2.6,5.9,5.9
		S192.8,154.4,189.5,154.4z M189.5,145.4c-1.7,0-3.1,1.4-3.1,3.1s1.4,3.1,3.1,3.1c1.7,0,3.1-1.4,3.1-3.1S191.2,145.4,189.5,145.4z"
		/>
</g>
<g id="XMLID_833_">
	<g id="XMLID_773_">
		<g id="XMLID_66_">
			<path id="XMLID_75_" fill="#FFFFFF" d="M281.7,201.2c1.2,3.1,1.1,6.5-0.3,9.5c-1.4,3-3.8,5.3-6.9,6.5c-3.1,1.2-6.5,1.1-9.5-0.3
				c-3-1.4-5.3-3.8-6.5-6.9c-2.4-6.4,0.8-13.6,7.2-16c3.1-1.2,6.5-1.1,9.5,0.3C278.2,195.7,280.5,198.1,281.7,201.2z M278.2,203.4
				c0.3-0.2,0.4-0.6,0.3-0.9c-0.1-0.3-0.5-0.5-0.8-0.5l-8.5,0.6c-0.2,0-0.3,0.1-0.4,0.2l-6.8,5.3c-0.3,0.2-0.4,0.6-0.2,0.9
				c0.1,0.2,0.2,0.4,0.4,0.4c0.1,0.1,0.2,0.1,0.4,0.1l8.5-0.6c0.2,0,0.3-0.1,0.4-0.2L278.2,203.4z"/>
			<path id="XMLID_71_" fill="#A9DEEB" d="M271.4,206.7l3.9-3l-4.9,0.3L271.4,206.7z M268.9,204.6l-3.9,3l5-0.3L268.9,204.6z
				 M271,208.8l-8.5,0.6c-0.1,0-0.3,0-0.4-0.1c-0.2-0.1-0.3-0.2-0.4-0.4c-0.1-0.3,0-0.7,0.2-0.9l6.8-5.3c0.1-0.1,0.3-0.1,0.4-0.2
				l8.5-0.6c0.3,0,0.7,0.2,0.8,0.5c0.1,0.3,0,0.7-0.3,0.9l-6.8,5.3C271.4,208.7,271.2,208.8,271,208.8z"/>
			<path id="XMLID_67_" fill="#A9DEEB" d="M278.3,191.3c0.4-0.8,0-1.8-0.8-2.2c-0.8-0.4-1.8,0-2.2,0.8c-0.4,0.8,0,1.8,0.8,2.2
				C277,192.5,278,192.2,278.3,191.3z M264.9,191.8c2.9-1.1,5.9-1.3,8.9-0.5c-0.1-0.6-0.1-1.3,0.2-2c0.7-1.6,2.6-2.3,4.2-1.6
				c1.6,0.7,2.3,2.6,1.6,4.2c-0.3,0.6-0.8,1.1-1.3,1.5c2.5,1.7,4.4,4.1,5.5,7c1.4,3.7,1.3,7.7-0.3,11.3c-1.6,3.6-4.5,6.4-8.2,7.8
				c-3.7,1.4-7.7,1.3-11.3-0.3c-3.6-1.6-6.3-4.5-7.8-8.2C253.4,203.3,257.2,194.7,264.9,191.8z M275.2,194.3c-3-1.4-6.4-1.5-9.5-0.3
				c-6.4,2.4-9.6,9.6-7.2,16c1.2,3.1,3.5,5.6,6.5,6.9c3,1.4,6.4,1.5,9.5,0.3c3.1-1.2,5.6-3.5,6.9-6.5c1.4-3,1.5-6.4,0.3-9.5
				C280.5,198.1,278.2,195.7,275.2,194.3z"/>
		</g>
	</g>
</g>
</svg>
