<?xml version="1.0" encoding="utf-8"?>
<!-- Generator: Adobe Illustrator 19.0.0, SVG Export Plug-In . SVG Version: 6.00 Build 0)  -->
<svg version="1.1" id="Layer_1" xmlns="http://www.w3.org/2000/svg" xmlns:xlink="http://www.w3.org/1999/xlink" x="0px" y="0px"
	 viewBox="0 0 399 377" enable-background="new 0 0 399 377" xml:space="preserve">
<g id="XMLID_190_">
	<g id="XMLID_194_">
		<defs>
			<path id="XMLID_193_" d="M186.4,43.4c5.6-9.7,19.6-9.7,25.2,0l61.2,106.1L334,255.7c5.6,9.7-1.4,21.8-12.6,21.8H199H76.6
				c-11.2,0-18.2-12.1-12.6-21.8l61.2-106.1L186.4,43.4"/>
		</defs>
		<clipPath id="XMLID_67_">
			<use xlink:href="#XMLID_193_"  overflow="visible"/>
		</clipPath>
		<polyline id="XMLID_195_" clip-path="url(#XMLID_67_)" fill="#FBFBFB" points="259.3,25.1 259.3,278.6 67.2,278.6 67.2,25.1 
			259.3,25.1 		"/>
		<polyline id="XMLID_196_" clip-path="url(#XMLID_67_)" fill="#F6F7F9" points="357.7,279.2 56.6,279.2 56.6,25.7 357.7,25.7 
			357.7,279.2 		"/>
		<ellipse id="XMLID_197_" clip-path="url(#XMLID_67_)" fill="#9ACFE2" cx="279" cy="78.8" rx="72.7" ry="74.4"/>
		<polyline id="XMLID_198_" clip-path="url(#XMLID_67_)" fill="#FCFCFC" points="59.5,214.3 212.3,132.6 208.3,124.7 55.5,206.5 		
			"/>
		<polyline id="XMLID_199_" clip-path="url(#XMLID_67_)" fill="#FCFCFC" points="53.6,47.1 185.7,306.7 193.4,302.6 61.2,43.1 
			53.6,47.1 		"/>
		<polyline id="XMLID_200_" clip-path="url(#XMLID_67_)" fill="#FCFCFC" points="163.5,153.8 176,286.1 184.6,285.2 172.1,152.9 
			163.5,153.8 		"/>
		<path id="XMLID_201_" clip-path="url(#XMLID_67_)" fill="#FCFCFC" d="M358.8,80.1h-4.3c0,21.9-8.7,41.8-22.7,56.2
			c-14.1,14.4-33.4,23.3-54.9,23.3c-21.4,0-40.8-8.9-54.9-23.3c-14.1-14.4-22.7-34.2-22.7-56.2c0-21.9,8.7-41.8,22.7-56.2
			c14.1-14.4,33.4-23.3,54.9-23.3c21.4,0,40.8,8.9,54.9,23.3c14.1,14.4,22.7,34.2,22.7,56.2H358.8h4.3c0-48.8-38.6-88.2-86.2-88.2
			c-47.6,0-86.2,39.5-86.2,88.2c0,48.8,38.6,88.2,86.2,88.2c47.6,0,86.2-39.5,86.2-88.2H358.8z"/>
		<path id="XMLID_202_" clip-path="url(#XMLID_67_)" fill="#F6F7F9" d="M59.3,221.5l58.5-31.2c0.7-0.3,1.4-0.1,1.8,0.6l51.6,104.3
			L67.7,307.7L59.3,221.5"/>
		<path id="XMLID_203_" clip-path="url(#XMLID_67_)" fill="#EFEFEF" d="M109.5,247.5c0.1-0.4,0.7-0.4,0.9,0l2.9,7.5l3.1,8
			c0.1,0.3-0.1,0.6-0.5,0.6h-6h-6c-0.3,0-0.5-0.3-0.5-0.6l3.1-8L109.5,247.5"/>
		<path id="XMLID_204_" clip-path="url(#XMLID_67_)" fill="#28353D" d="M110,265.4c-0.3,0-0.6-0.3-0.6-0.6v-1.2h1.2v1.2
			C110.5,265.1,110.3,265.4,110,265.4"/>
		<path id="XMLID_205_" clip-path="url(#XMLID_67_)" fill="#EFEFEF" d="M133.2,228.5c0.1-0.4,0.7-0.4,0.9,0l2.9,7.5l3.1,8
			c0.1,0.3-0.1,0.6-0.5,0.6h-6h-6c-0.3,0-0.5-0.3-0.5-0.6l3.1-8L133.2,228.5"/>
		<path id="XMLID_206_" clip-path="url(#XMLID_67_)" fill="#28353D" d="M133.7,246.5c-0.3,0-0.6-0.3-0.6-0.6v-1.2h1.2v1.2
			C134.2,246.2,134,246.5,133.7,246.5"/>
		<path id="XMLID_207_" clip-path="url(#XMLID_67_)" fill="#EFEFEF" d="M94.1,223.9c0.1-0.4,0.7-0.4,0.9,0l2.9,7.5l3.1,8
			c0.1,0.3-0.1,0.6-0.5,0.6h-6h-6c-0.3,0-0.5-0.3-0.5-0.6l3.1-8L94.1,223.9"/>
		<path id="XMLID_208_" clip-path="url(#XMLID_67_)" fill="#28353D" d="M94.6,241.8c-0.3,0-0.6-0.3-0.6-0.6V240h1.2v1.2
			C95.1,241.5,94.9,241.8,94.6,241.8"/>
		<polyline id="XMLID_209_" clip-path="url(#XMLID_67_)" fill="#FCFCFC" points="174.9,214.5 318.7,214.5 318.7,208.5 174.9,208.5 
					"/>
		<polyline id="XMLID_210_" clip-path="url(#XMLID_67_)" fill="#FCFCFC" points="100.1,124.4 40.4,124.3 40.4,133 100,133.2 
			100.1,124.4 		"/>
		<polyline id="XMLID_211_" clip-path="url(#XMLID_67_)" fill="#FCFCFC" points="172,152.7 151.3,23.5 142.9,24.9 163.5,154.1 
			172,152.7 		"/>
		<path id="XMLID_212_" clip-path="url(#XMLID_67_)" fill="#F1F2F3" d="M193.7,222.8h-9.6c-1.4,0-2.5,1.3-2.3,2.7L184,239
			c0.2,1.1,1.1,2,2.3,2h7.5c1.3,0,2.3-1,2.3-2.3v-13.5C196.1,223.8,195,222.8,193.7,222.8"/>
		<path id="XMLID_213_" clip-path="url(#XMLID_67_)" fill="#F1F2F3" d="M203.3,222.8h-4.7c-0.5,0-1,0.5-1,1V240c0,0.5,0.5,1,1,1h4.7
			c0.5,0,1-0.5,1-1v-16.1C204.4,223.3,203.9,222.8,203.3,222.8"/>
		<path id="XMLID_214_" clip-path="url(#XMLID_67_)" fill="#F1F2F3" d="M222.9,222.8h-4.7c-0.5,0-1,0.5-1,1V240c0,0.5,0.5,1,1,1h4.7
			c0.5,0,1-0.5,1-1v-16.1C223.8,223.3,223.4,222.8,222.9,222.8"/>
		<path id="XMLID_215_" clip-path="url(#XMLID_67_)" fill="#F1F2F3" d="M290.2,222.8h-4.7c-0.5,0-1,0.5-1,1V240c0,0.5,0.5,1,1,1h4.7
			c0.5,0,1-0.5,1-1v-16.1C291.1,223.3,290.7,222.8,290.2,222.8"/>
		<path id="XMLID_216_" clip-path="url(#XMLID_67_)" fill="#F1F2F3" d="M299.5,222.8h-4.7c-0.5,0-1,0.5-1,1V240c0,0.5,0.5,1,1,1h4.7
			c0.5,0,1-0.5,1-1v-16.1C300.5,223.3,300,222.8,299.5,222.8"/>
		<path id="XMLID_217_" clip-path="url(#XMLID_67_)" fill="#F1F2F3" d="M214.8,222.8h-8.2c-0.5,0-1,0.5-1,1V240c0,0.5,0.5,1,1,1h8.2
			c0.5,0,1-0.5,1-1v-16.1C215.8,223.3,215.4,222.8,214.8,222.8"/>
		<path id="XMLID_218_" clip-path="url(#XMLID_67_)" fill="#F1F2F3" d="M203.7,260.2h-14.9c-1,0-1.8,0.6-1.8,1.2l2.4,16.1h9.6h6.5
			v-16.1C205.5,260.8,204.7,260.2,203.7,260.2"/>
		<path id="XMLID_219_" clip-path="url(#XMLID_67_)" fill="#F1F2F3" d="M269.6,222.8h-8.2c-0.5,0-1,0.5-1,1V240c0,0.5,0.5,1,1,1h8.2
			c0.5,0,1-0.5,1-1v-16.1C270.5,223.3,270.1,222.8,269.6,222.8"/>
		<path id="XMLID_220_" clip-path="url(#XMLID_67_)" fill="#F1F2F3" d="M281.2,222.8H273c-0.5,0-1,0.5-1,1V240c0,0.5,0.5,1,1,1h8.2
			c0.5,0,1-0.5,1-1v-16.1C282.2,223.3,281.7,222.8,281.2,222.8"/>
		<path id="XMLID_221_" clip-path="url(#XMLID_67_)" fill="#F1F2F3" d="M311.5,222.8h-8.2c-0.5,0-1,0.5-1,1V240c0,0.5,0.5,1,1,1h8.2
			c0.5,0,1-0.5,1-1v-16.1C312.5,223.3,312,222.8,311.5,222.8"/>
		<path id="XMLID_222_" clip-path="url(#XMLID_67_)" fill="#F1F2F3" d="M315.3,223.2c-0.1,0.2-0.2,0.4-0.2,0.6V240c0,0.5,0.5,1,1,1
			h8.2c0.4,0,0.7-0.3,0.9-0.6L315.3,223.2"/>
		<path id="XMLID_223_" clip-path="url(#XMLID_67_)" fill="#F1F2F3" d="M193.8,186.6h-12.9c-0.5,0-0.9,0.5-0.8,0.9l2,16.5
			c0.1,0.4,0.4,0.7,0.8,0.7h11c0.5,0,0.9-0.4,0.9-0.9v-16.5C194.6,187,194.3,186.6,193.8,186.6"/>
		<path id="XMLID_224_" clip-path="url(#XMLID_67_)" fill="#F1F2F3" d="M202,186.6h-4.7c-0.5,0-1,0.5-1,1v16.1c0,0.5,0.5,1,1,1h4.7
			c0.5,0,1-0.5,1-1v-16.1C203,187.1,202.5,186.6,202,186.6"/>
		<path id="XMLID_225_" clip-path="url(#XMLID_67_)" fill="#F1F2F3" d="M234.5,186.6h-4.7c-0.5,0-1,0.5-1,1v16.1c0,0.5,0.5,1,1,1
			h4.7c0.5,0,1-0.5,1-1v-16.1C235.5,187.1,235.1,186.6,234.5,186.6"/>
		<path id="XMLID_226_" clip-path="url(#XMLID_67_)" fill="#F1F2F3" d="M268.3,186.6h-4.7c-0.5,0-1,0.5-1,1v16.1c0,0.5,0.5,1,1,1
			h4.7c0.5,0,1-0.5,1-1v-16.1C269.3,187.1,268.8,186.6,268.3,186.6"/>
		<path id="XMLID_227_" clip-path="url(#XMLID_67_)" fill="#F1F2F3" d="M277.3,186.6h-4.7c-0.5,0-1,0.5-1,1v16.1c0,0.5,0.5,1,1,1
			h4.7c0.5,0,1-0.5,1-1v-16.1C278.3,187.1,277.9,186.6,277.3,186.6"/>
		<path id="XMLID_228_" clip-path="url(#XMLID_67_)" fill="#F1F2F3" d="M213.4,186.6h-8.2c-0.5,0-1,0.5-1,1v16.1c0,0.5,0.5,1,1,1
			h8.2c0.5,0,1-0.5,1-1v-16.1C214.4,187.1,214,186.6,213.4,186.6"/>
		<path id="XMLID_229_" clip-path="url(#XMLID_67_)" fill="#F1F2F3" d="M225.6,186.6h-8.2c-0.5,0-1,0.5-1,1v16.1c0,0.5,0.5,1,1,1
			h8.2c0.5,0,1-0.5,1-1v-16.1C226.6,187.1,226.1,186.6,225.6,186.6"/>
		<path id="XMLID_230_" clip-path="url(#XMLID_67_)" fill="#F1F2F3" d="M247.3,186.6h-8.2c-0.5,0-1,0.5-1,1v16.1c0,0.5,0.5,1,1,1
			h8.2c0.5,0,1-0.5,1-1v-16.1C248.2,187.1,247.8,186.6,247.3,186.6"/>
		<path id="XMLID_231_" clip-path="url(#XMLID_67_)" fill="#F1F2F3" d="M290,186.6h-8.2c-0.5,0-1,0.5-1,1v16.1c0,0.5,0.5,1,1,1h8.2
			c0.5,0,1-0.5,1-1v-16.1C291,187.1,290.6,186.6,290,186.6"/>
		<path id="XMLID_232_" clip-path="url(#XMLID_67_)" fill="#F1F2F3" d="M294.2,186.7c-0.3,0.2-0.6,0.5-0.6,0.9v16.1c0,0.5,0.5,1,1,1
			h8.2c0.5,0,1-0.5,1-1v-0.4L294.2,186.7"/>
		<path id="XMLID_233_" clip-path="url(#XMLID_67_)" fill="#F1F2F3" d="M259.8,186.6h-8.2c-0.5,0-1,0.5-1,1v16.1c0,0.5,0.5,1,1,1
			h8.2c0.5,0,1-0.5,1-1v-16.1C260.8,187.1,260.3,186.6,259.8,186.6"/>
		<path id="XMLID_234_" clip-path="url(#XMLID_67_)" fill="#F1F2F3" d="M152.4,119.8c-0.1,0-0.3,0.1-0.5,0.1l-13.5,6.7l-13.2,22.9
			l-1.8,3.1l2.7,5.4c0.2,0.4,0.6,0.6,0.9,0.6c0.1,0,0.3-0.1,0.5-0.1l29.4-14.6c0.5-0.2,0.7-0.7,0.6-1.2l-4.1-22
			C153.3,120.2,152.8,119.8,152.4,119.8"/>
		<path id="XMLID_235_" clip-path="url(#XMLID_67_)" fill="#F1F2F3" d="M150.7,105.4l-0.8,1.4l0.1,0c0.5-0.1,0.9-0.6,0.8-1.2
			L150.7,105.4"/>
		<path id="XMLID_236_" clip-path="url(#XMLID_67_)" fill="#F1F2F3" d="M151.3,109.1h-0.2l-2.9,0.5l-4.5,7.8l8.5-1.5
			c0.5-0.1,0.9-0.6,0.8-1.2l-0.8-4.7C152.2,109.4,151.8,109.1,151.3,109.1"/>
		<path id="XMLID_237_" clip-path="url(#XMLID_67_)" fill="#F1F2F3" d="M202.6,244.4h-16.6c-1.1,0-1.9,1-1.7,2.1l1.7,9.6
			c0.1,0.9,0.9,1.5,1.7,1.5h14.8c1,0,1.7-0.8,1.7-1.7v-9.6C204.4,245.1,203.6,244.4,202.6,244.4"/>
		<path id="XMLID_238_" clip-path="url(#XMLID_67_)" fill="#F1F2F3" d="M160.1,165.4c-0.2,0-0.3,0.1-0.5,0.1L135.7,179
			c-0.5,0.3-0.7,0.9-0.4,1.5l30.5,56.6c0.2,0.4,0.5,0.5,0.9,0.5c0.6,0,1.1-0.5,1.1-1.2l-6.6-70.1C161,165.8,160.6,165.4,160.1,165.4
			"/>
	</g>
	<path id="XMLID_192_" fill="#A9DEEB" d="M55,206h-3v-2.9c0-0.7-0.3-1.3-1-1.3s-1,0.6-1,1.3v2.9h-3c-0.7,0-1.3,0.3-1.3,1
		s0.6,1,1.3,1h3v3c0,0.7,0.3,1.3,1,1.3s1-0.6,1-1.3v-3h3c0.7,0,1.3-0.3,1.3-1S55.7,206,55,206z"/>
	<path id="XMLID_239_" fill="#A9DEEB" d="M304.8,149.1l-2.5,1.6l-1.5-2.5c-0.4-0.6-0.9-1-1.5-0.6s-0.5,1-0.2,1.6l1.5,2.5l-2.5,1.6
		c-0.6,0.4-1,0.9-0.6,1.5s1,0.5,1.6,0.2l2.5-1.6l1.6,2.5c0.4,0.6,0.9,1,1.5,0.6s0.5-1,0.2-1.6l-1.6-2.5l2.5-1.6
		c0.6-0.4,1-0.9,0.6-1.5S305.4,148.7,304.8,149.1z"/>
	<path id="XMLID_240_" fill="#FF7676" d="M157.9,60.9l-1.6-2.5l2.5-1.5c0.6-0.4,1-0.9,0.6-1.5c-0.4-0.6-1-0.5-1.6-0.2l-2.5,1.5
		l-1.6-2.5c-0.4-0.6-0.9-1-1.5-0.6c-0.6,0.4-0.5,1-0.2,1.6l1.6,2.5l-2.5,1.6c-0.6,0.4-1,0.9-0.6,1.5c0.4,0.6,1,0.5,1.6,0.2l2.5-1.6
		l1.6,2.5c0.4,0.6,0.9,1,1.5,0.6C158.4,62.1,158.3,61.5,157.9,60.9z"/>
	<circle id="XMLID_241_" fill="#FFB8C7" cx="208.1" cy="293.7" r="2.1"/>
	<circle id="XMLID_242_" fill="#FFB8C7" cx="277.7" cy="98.3" r="2.1"/>
	<circle id="XMLID_243_" fill="#4B5E7F" cx="110.4" cy="106.8" r="2.1"/>
	<circle id="XMLID_244_" fill="#FFB8C7" cx="87.4" cy="169.9" r="2.1"/>
	<circle id="XMLID_245_" fill="#FFB8C7" cx="331.8" cy="225" r="2.1"/>
	<circle id="XMLID_246_" fill="#A9DEEB" cx="252.6" cy="50.4" r="2.1"/>
	<circle id="XMLID_247_" fill="#A9DEEB" cx="87.4" cy="293.7" r="2.1"/>
	<circle id="XMLID_248_" fill="#F6F7F9" cx="333.9" cy="207" r="2.1"/>
	<circle id="XMLID_249_" fill="#F6F7F9" cx="83.2" cy="156.7" r="2.1"/>
	<path id="XMLID_252_" fill="#4B5E7F" d="M257.8,242.8h-3.1c-0.5,0-0.9-0.4-0.9-0.9v-3.1c0-0.5,0.4-0.9,0.9-0.9h3.1
		c0.5,0,0.9,0.4,0.9,0.9v3.1C258.7,242.3,258.3,242.8,257.8,242.8z M255.6,240.9h1.2v-1.2h-1.2V240.9z"/>
	<path id="XMLID_255_" fill="#4B5E7F" d="M257.8,225.3h-3.1c-0.5,0-0.9-0.4-0.9-0.9v-3.1c0-0.5,0.4-0.9,0.9-0.9h3.1
		c0.5,0,0.9,0.4,0.9,0.9v3.1C258.7,224.9,258.3,225.3,257.8,225.3z M255.6,223.4h1.2v-1.2h-1.2V223.4z"/>
	<path id="XMLID_258_" fill="#4B5E7F" d="M228.9,242.8h-3.1c-0.5,0-0.9-0.4-0.9-0.9v-3.1c0-0.5,0.4-0.9,0.9-0.9h3.1
		c0.5,0,0.9,0.4,0.9,0.9v3.1C229.9,242.3,229.5,242.8,228.9,242.8z M226.8,240.9h1.2v-1.2h-1.2V240.9z"/>
	<path id="XMLID_261_" fill="#4B5E7F" d="M228.9,225.3h-3.1c-0.5,0-0.9-0.4-0.9-0.9v-3.1c0-0.5,0.4-0.9,0.9-0.9h3.1
		c0.5,0,0.9,0.4,0.9,0.9v3.1C229.9,224.9,229.5,225.3,228.9,225.3z M226.8,223.4h1.2v-1.2h-1.2V223.4z"/>
	<path id="XMLID_262_" fill="#A1ABD0" d="M307,212H173c-0.6,0-1-0.4-1-1s0.4-1,1-1h134c0.6,0,1,0.4,1,1S307.6,212,307,212z"/>
	<path id="XMLID_263_" fill="#A1ABD0" d="M200.2,211.9c-0.3,0-0.5-0.1-0.7-0.3l-4.2-4.2c-0.4-0.4-0.4-1,0-1.4s1-0.4,1.4,0l4.2,4.2
		c0.4,0.4,0.4,1,0,1.4C200.7,211.8,200.4,211.9,200.2,211.9z"/>
	<path id="XMLID_264_" fill="#A1ABD0" d="M195.9,216.2c-0.3,0-0.5-0.1-0.7-0.3c-0.4-0.4-0.4-1,0-1.4l4.2-4.2c0.4-0.4,1-0.4,1.4,0
		s0.4,1,0,1.4l-4.2,4.2C196.4,216.1,196.2,216.2,195.9,216.2z"/>
	<path id="XMLID_265_" fill="#A1ABD0" d="M234.2,211.9c-0.3,0-0.5-0.1-0.7-0.3l-4.2-4.2c-0.4-0.4-0.4-1,0-1.4s1-0.4,1.4,0l4.2,4.2
		c0.4,0.4,0.4,1,0,1.4C234.7,211.8,234.4,211.9,234.2,211.9z"/>
	<path id="XMLID_266_" fill="#A1ABD0" d="M229.9,216.2c-0.3,0-0.5-0.1-0.7-0.3c-0.4-0.4-0.4-1,0-1.4l4.2-4.2c0.4-0.4,1-0.4,1.4,0
		s0.4,1,0,1.4l-4.2,4.2C230.4,216.1,230.2,216.2,229.9,216.2z"/>
	<path id="XMLID_267_" fill="#A1ABD0" d="M268.2,211.9c-0.3,0-0.5-0.1-0.7-0.3l-4.2-4.2c-0.4-0.4-0.4-1,0-1.4s1-0.4,1.4,0l4.2,4.2
		c0.4,0.4,0.4,1,0,1.4C268.7,211.8,268.4,211.9,268.2,211.9z"/>
	<path id="XMLID_268_" fill="#A1ABD0" d="M263.9,216.2c-0.3,0-0.5-0.1-0.7-0.3c-0.4-0.4-0.4-1,0-1.4l4.2-4.2c0.4-0.4,1-0.4,1.4,0
		s0.4,1,0,1.4l-4.2,4.2C264.4,216.1,264.2,216.2,263.9,216.2z"/>
	<path id="XMLID_269_" fill="#FF7676" d="M176.6,147.7c-0.4,0-0.7-0.2-0.9-0.5c-0.3-0.5-0.1-1.1,0.4-1.3l12.4-6.4
		c0.5-0.3,1.1-0.1,1.3,0.4c0.3,0.5,0.1,1.1-0.4,1.3l-12.4,6.4C176.9,147.6,176.8,147.7,176.6,147.7z"/>
	<path id="XMLID_270_" fill="#FF7676" d="M194.4,138.5c-0.4,0-0.7-0.2-0.9-0.5c-0.3-0.5-0.1-1.1,0.4-1.3l8-4.1
		c0.5-0.3,1.1-0.1,1.3,0.4c0.3,0.5,0.1,1.1-0.4,1.3l-8,4.1C194.7,138.4,194.5,138.5,194.4,138.5z"/>
	<path id="XMLID_271_" fill="#FF7676" d="M187.6,138c-0.5,0-1-0.2-1-0.7c0-0.6,0.4-0.9,1-0.9l6.9-0.1c0.5,0,1,0.5,1,1
		s-0.4,0.8-1,0.8L187.6,138L187.6,138z"/>
	<path id="XMLID_272_" fill="#FF7676" d="M190.5,144c-0.2,0-0.4-0.1-0.6-0.2c-0.4-0.3-0.6-0.9-0.2-1.4l4-5.6
		c0.3-0.4,0.9-0.6,1.4-0.2c0.4,0.3,0.6,0.9,0.2,1.4l-4,5.6C191.1,143.8,190.8,144,190.5,144z"/>
	<path id="XMLID_273_" fill="#FF7676" d="M190.4,143.9c-0.4,0-0.7-0.2-0.9-0.5l-2.8-5.3c-0.3-0.5-0.1-1.1,0.4-1.3
		c0.5-0.3,1.1-0.1,1.3,0.4l2.8,5.3c0.3,0.5,0.1,1.1-0.4,1.3C190.8,143.9,190.6,143.9,190.4,143.9z"/>
	<path id="XMLID_274_" fill="#A1ABD0" d="M180.5,278.5c-0.5,0-0.9-0.4-1-0.9L156.9,93c-0.1-0.5,0.3-1,0.9-1.1c0.5-0.1,1,0.3,1.1,0.9
		l22.7,184.5c0.1,0.5-0.3,1-0.9,1.1L180.5,278.5z"/>
	<path id="XMLID_281_" fill="#4B5E7F" d="M251,224h-1c-0.6,0-1-0.4-1-1s0.4-1,1-1h1c0.6,0,1,0.4,1,1S251.6,224,251,224z M247,224h-1
		c-0.6,0-1-0.4-1-1s0.4-1,1-1h1c0.6,0,1,0.4,1,1S247.6,224,247,224z M243,224h-1c-0.6,0-1-0.4-1-1s0.4-1,1-1h1c0.6,0,1,0.4,1,1
		S243.6,224,243,224z M239,224h-1c-0.6,0-1-0.4-1-1s0.4-1,1-1h1c0.6,0,1,0.4,1,1S239.6,224,239,224z M235,224h-1c-0.6,0-1-0.4-1-1
		s0.4-1,1-1h1c0.6,0,1,0.4,1,1S235.6,224,235,224z M231,224h-1c-0.6,0-1-0.4-1-1s0.4-1,1-1h1c0.6,0,1,0.4,1,1S231.6,224,231,224z"/>
	<path id="XMLID_288_" fill="#4B5E7F" d="M251,241h-1c-0.6,0-1-0.4-1-1s0.4-1,1-1h1c0.6,0,1,0.4,1,1S251.6,241,251,241z M247,241h-1
		c-0.6,0-1-0.4-1-1s0.4-1,1-1h1c0.6,0,1,0.4,1,1S247.6,241,247,241z M243,241h-1c-0.6,0-1-0.4-1-1s0.4-1,1-1h1c0.6,0,1,0.4,1,1
		S243.6,241,243,241z M239,241h-1c-0.6,0-1-0.4-1-1s0.4-1,1-1h1c0.6,0,1,0.4,1,1S239.6,241,239,241z M235,241h-1c-0.6,0-1-0.4-1-1
		s0.4-1,1-1h1c0.6,0,1,0.4,1,1S235.6,241,235,241z M231,241h-1c-0.6,0-1-0.4-1-1s0.4-1,1-1h1c0.6,0,1,0.4,1,1S231.6,241,231,241z"/>
	<path id="XMLID_293_" fill="#4B5E7F" d="M227,239c-0.6,0-1-0.4-1-1v-1c0-0.6,0.4-1,1-1s1,0.4,1,1v1C228,238.6,227.6,239,227,239z
		 M227,235c-0.6,0-1-0.4-1-1v-1c0-0.6,0.4-1,1-1s1,0.4,1,1v1C228,234.6,227.6,235,227,235z M227,231c-0.6,0-1-0.4-1-1v-1
		c0-0.6,0.4-1,1-1s1,0.4,1,1v1C228,230.6,227.6,231,227,231z M227,227c-0.6,0-1-0.4-1-1v-1c0-0.6,0.4-1,1-1s1,0.4,1,1v1
		C228,226.6,227.6,227,227,227z"/>
	<path id="XMLID_298_" fill="#4B5E7F" d="M256,239c-0.6,0-1-0.4-1-1v-1c0-0.6,0.4-1,1-1s1,0.4,1,1v1C257,238.6,256.6,239,256,239z
		 M256,235c-0.6,0-1-0.4-1-1v-1c0-0.6,0.4-1,1-1s1,0.4,1,1v1C257,234.6,256.6,235,256,235z M256,231c-0.6,0-1-0.4-1-1v-1
		c0-0.6,0.4-1,1-1s1,0.4,1,1v1C257,230.6,256.6,231,256,231z M256,227c-0.6,0-1-0.4-1-1v-1c0-0.6,0.4-1,1-1s1,0.4,1,1v1
		C257,226.6,256.6,227,256,227z"/>
	<path id="XMLID_301_" fill="#FFB8C7" d="M121.5,211c-0.3-2.6-2.4-4.6-5-4.9c-3.4-0.3-6.2,2.4-6.1,5.7c0,1.3,0.5,2.6,1.3,3.5
		l4.1,4.5c0.2,0.2,0.4,0.2,0.6,0c1-1.1,4-4.7,4.3-5l0,0h0C121.4,213.7,121.7,212.4,121.5,211z M116,213.8c-1.1,0-2-0.9-2-2
		c0-1.1,0.9-2,2-2c1.1,0,2,0.9,2,2C118,212.9,117.1,213.8,116,213.8z"/>
</g>
</svg>
