<?xml version="1.0" encoding="utf-8"?>
<!-- Generator: Adobe Illustrator 19.0.0, SVG Export Plug-In . SVG Version: 6.00 Build 0)  -->
<svg version="1.1" id="Layer_1" xmlns="http://www.w3.org/2000/svg" xmlns:xlink="http://www.w3.org/1999/xlink" x="0px" y="0px"
	 width="399px" height="377px" viewBox="110 -134 399 377" style="enable-background:new 110 -134 399 377;" xml:space="preserve">
<path style="fill:#9ACFE2;" d="M382.8,15.5L369.3-7.9l-45.9-79.5c-4.6,9.7-7.1,20.7-7.1,32.2c0,34.1,22.4,62.8,53,71.6
	c5,1.4,10.2,2.4,15.6,2.7L382.8,15.5z"/>
<path style="fill:#EFEFEF;" d="M223.3,121l-2.9-7.5c-0.2-0.4-0.8-0.4-0.9,0l-3,7.5l-3.1,8c0,0.3,0.2,0.6,0.5,0.6h5.5h0.5h0.7h5.3
	c0.4,0,0.6-0.3,0.5-0.6L223.3,121z"/>
<path style="fill:#28353D;" d="M219.4,129.6v1.2c0,0.3,0.3,0.6,0.6,0.6s0.5-0.3,0.6-0.6v-1.2h-0.7H219.4z"/>
<path style="fill:#EFEFEF;" d="M237.6,110.6h6h6c0.4,0,0.6-0.3,0.5-0.6l-3.1-8l-2.9-7.5c-0.2-0.4-0.8-0.4-0.9,0l-3,7.5l-3.1,8
	C237.1,110.3,237.3,110.6,237.6,110.6z"/>
<path style="fill:#28353D;" d="M243.1,111.9c0,0.3,0.3,0.6,0.6,0.6s0.5-0.3,0.6-0.6v-1.2h-1.2V111.9z"/>
<path style="fill:#EFEFEF;" d="M207.9,97.4l-2.9-7.5c-0.2-0.4-0.8-0.4-0.9,0l-3,7.5l-3.1,8c0,0.3,0.2,0.6,0.5,0.6h5.5h0.5h0.7h5.3
	c0.4,0,0.6-0.3,0.5-0.6L207.9,97.4z"/>
<path style="fill:#28353D;" d="M204,106v1.2c0,0.3,0.3,0.6,0.6,0.6c0.3,0,0.5-0.3,0.6-0.6V106h-0.7H204z"/>
<polygon style="fill:#FCFCFC;" points="302.8,4.1 298.8,4 300.5,7.2 "/>
<path style="fill:#FCFCFC;" d="M274.9,24l-0.5-4l0-0.2l-0.6-5.1l-6.6-54.3l-2.4,4.2l8.1,50.6l-37.3,20L230,24.6l-5.2,8.9l2.9,5.7
	l-8.9,4.8l-8.3,14.4L231.7,47l49.1,96.5h4.3h4.3l-0.4-2.9L274.9,24z M239.4,42.9l34.6-18.5l10,106L239.4,42.9z"/>
<path style="fill:#FCFCFC;" d="M417,78h-38.5l-2.5,2.5h44.3l-3.5-6h-39.6l1.5,1.5H417c0.6,0,1,0.4,1,1C418,77.6,417.6,78,417,78z"/>
<polygon style="fill:#FCFCFC;" points="369.3,74.5 343.2,74.5 344.7,76 369.3,76 375.9,76 374.4,74.5 "/>
<path style="fill:#FCFCFC;" d="M287.4,74.5L282.2,20l36.7-19.6c12.3,16.1,30,27.8,50.4,32.1c5.7,1.2,11.6,1.8,17.6,1.8
	c2.2,0,4.4-0.1,6.6-0.3l-4.9-8.5c-0.6,0-1.1,0-1.7,0c-6.1,0-11.9-0.7-17.6-2.1C355,20.1,342.1,12.6,332,2.3
	c-14.1-14.4-22.7-34.2-22.7-56.2c0-14.3,3.7-27.8,10.3-39.4c-2.1-2.2-4.8-3.6-7.6-4.2c-7.2,12.9-11.3,27.8-11.3,43.7
	c0,17.3,4.8,33.4,13.2,47l-33.2,17.8l-9.3-58.1l-3.1,5.3c0.3,0.2,0.5,0.4,0.5,0.8l6.7,54.7l0.7,6l0,0.1l0.4,3.3l6.5,53.1h1.6h2.6
	h20.4l-1.5-1.5H287.4z M286.1,11.9l11.6-6l-1-1.8c-0.2-0.3-0.2-0.5-0.1-0.8c0,0,0,0,0,0c0-0.6,0.4-0.9,1-0.9l6.9-0.1
	c0,0,0.1,0,0.1,0l7.3-3.7c0.5-0.3,1.1-0.1,1.3,0.4c0.3,0.5,0.1,1.1-0.4,1.3l-7.7,3.9l-3.8,5.4c-0.2,0.2-0.5,0.4-0.8,0.4
	c-0.2,0-0.4-0.1-0.6-0.2c0,0,0,0-0.1-0.1c-0.1-0.1-0.2-0.2-0.3-0.3l-0.9-1.8l-11.6,6c-0.1,0-0.2,0.1-0.4,0.1c-0.4,0-0.7-0.2-0.9-0.5
	C285.4,12.7,285.6,12.1,286.1,11.9z"/>
<polygon style="fill:#FCFCFC;" points="309.2,74.5 310.7,76 341.9,76 340.4,74.5 "/>
<polygon style="fill:#FCFCFC;" points="308,80.5 339.2,80.5 341.7,78 310.5,78 "/>
<polygon style="fill:#FCFCFC;" points="344.5,78 342,80.5 369.3,80.5 373.2,80.5 375.7,78 369.3,78 "/>
<path style="fill:#FCFCFC;" d="M284.9,78h-1.3l8,65.3c0,0.1,0,0.1,0,0.2h2.3l-6-63h17.3l2.5-2.5h-20H284.9z"/>
<path style="fill:#F1F2F3;" d="M296.3,107h7.5c1.3,0,2.3-1,2.3-2.3V91.2c0-1.4-1.1-2.4-2.4-2.4h-9.6c-1.4,0-2.5,1.3-2.3,2.7L294,105
	C294.2,106.1,295.1,107,296.3,107z"/>
<path style="fill:#F1F2F3;" d="M313.3,88.8h-4.7c-0.5,0-1,0.5-1,1V106c0,0.5,0.5,1,1,1h4.7c0.5,0,1-0.5,1-1V89.9
	C314.4,89.3,313.9,88.8,313.3,88.8z"/>
<path style="fill:#F1F2F3;" d="M332.9,88.8h-4.7c-0.5,0-1,0.5-1,1V106c0,0.5,0.5,1,1,1h4.7c0.5,0,1-0.5,1-1V89.9
	C333.8,89.3,333.4,88.8,332.9,88.8z"/>
<path style="fill:#F1F2F3;" d="M400.2,88.8h-4.7c-0.5,0-1,0.5-1,1V106c0,0.5,0.5,1,1,1h4.7c0.5,0,1-0.5,1-1V89.9
	C401.1,89.3,400.7,88.8,400.2,88.8z"/>
<path style="fill:#F1F2F3;" d="M409.5,88.8h-4.7c-0.5,0-1,0.5-1,1V106c0,0.5,0.5,1,1,1h4.7c0.5,0,1-0.5,1-1V89.9
	C410.5,89.3,410,88.8,409.5,88.8z"/>
<path style="fill:#F1F2F3;" d="M324.8,88.8h-8.2c-0.5,0-1,0.5-1,1V106c0,0.5,0.5,1,1,1h8.2c0.5,0,1-0.5,1-1V89.9
	C325.8,89.3,325.4,88.8,324.8,88.8z"/>
<path style="fill:#F1F2F3;" d="M313.7,126.2h-14.9c-1,0-1.8,0.6-1.8,1.2l2.4,16.1h9.6h6.5v-16.1
	C315.5,126.8,314.7,126.2,313.7,126.2z"/>
<path style="fill:#F1F2F3;" d="M379.6,88.8h-8.2c-0.5,0-1,0.5-1,1V106c0,0.5,0.5,1,1,1h8.2c0.5,0,1-0.5,1-1V89.9
	C380.5,89.3,380.1,88.8,379.6,88.8z"/>
<path style="fill:#F1F2F3;" d="M391.2,88.8H383c-0.5,0-1,0.5-1,1V106c0,0.5,0.5,1,1,1h8.2c0.5,0,1-0.5,1-1V89.9
	C392.2,89.3,391.7,88.8,391.2,88.8z"/>
<path style="fill:#F1F2F3;" d="M421.5,88.8h-8.2c-0.5,0-1,0.5-1,1V106c0,0.5,0.5,1,1,1h8.2c0.5,0,1-0.5,1-1V89.9
	C422.5,89.3,422,88.8,421.5,88.8z"/>
<path style="fill:#F1F2F3;" d="M425.1,106c0,0.5,0.5,1,1,1h8.2c0.4,0,0.7-0.3,0.9-0.6l-9.9-17.2c-0.1,0.2-0.2,0.4-0.2,0.6V106z"/>
<path style="fill:#F1F2F3;" d="M292.9,70.7h11c0.5,0,0.9-0.4,0.9-0.9V53.3c-0.2-0.3-0.5-0.7-1-0.7h-12.9c-0.5,0-0.9,0.5-0.8,0.9
	l2,16.5C292.2,70.4,292.5,70.7,292.9,70.7z"/>
<path style="fill:#F1F2F3;" d="M307.3,70.7h4.7c0.5,0,1-0.5,1-1V53.6c0-0.5-0.5-1-1-1h-4.7c-0.5,0-1,0.5-1,1v16.1
	C306.3,70.2,306.8,70.7,307.3,70.7z"/>
<path style="fill:#F1F2F3;" d="M339.8,70.7h4.7c0.5,0,1-0.5,1-1V53.6c0-0.5-0.4-1-1-1h-4.7c-0.5,0-1,0.5-1,1v16.1
	C338.8,70.2,339.3,70.7,339.8,70.7z"/>
<path style="fill:#F1F2F3;" d="M378.3,52.6h-4.7c-0.5,0-1,0.5-1,1v16.1c0,0.5,0.5,1,1,1h4.7c0.5,0,1-0.5,1-1V53.6
	C379.3,53.1,378.8,52.6,378.3,52.6z"/>
<path style="fill:#F1F2F3;" d="M381.6,53.6v16.1c0,0.5,0.5,1,1,1h4.7c0.5,0,1-0.5,1-1V53.6c0-0.5-0.4-1-1-1h-4.7
	C382.1,52.6,381.6,53.1,381.6,53.6z"/>
<path style="fill:#F1F2F3;" d="M315.2,70.7h8.2c0.5,0,1-0.5,1-1V53.6c0-0.5-0.4-1-1-1h-8.2c-0.5,0-1,0.5-1,1v16.1
	C314.2,70.2,314.7,70.7,315.2,70.7z"/>
<path style="fill:#F1F2F3;" d="M327.4,70.7h8.2c0.5,0,1-0.5,1-1V53.6c0-0.5-0.5-1-1-1h-8.2c-0.5,0-1,0.5-1,1v16.1
	C326.4,70.2,326.9,70.7,327.4,70.7z"/>
<path style="fill:#F1F2F3;" d="M349.1,70.7h8.2c0.5,0,1-0.5,1-1V53.6c-0.1-0.5-0.5-1-1-1h-8.2c-0.5,0-1,0.5-1,1v16.1
	C348.1,70.2,348.6,70.7,349.1,70.7z"/>
<path style="fill:#F1F2F3;" d="M391.8,70.7h8.2c0.5,0,1-0.5,1-1V53.6c0-0.5-0.4-1-1-1h-8.2c-0.5,0-1,0.5-1,1v16.1
	C390.8,70.2,391.3,70.7,391.8,70.7z"/>
<path style="fill:#F1F2F3;" d="M404.6,70.7h8.2c0.5,0,1-0.5,1-1v-0.4l-9.6-16.6c-0.3,0.2-0.6,0.5-0.6,0.9v16.1
	C403.6,70.2,404.1,70.7,404.6,70.7z"/>
<path style="fill:#F1F2F3;" d="M369.8,70.7c0.5,0,1-0.5,1-1V53.6c0-0.5-0.5-1-1-1h-0.5v18.1H369.8z"/>
<path style="fill:#F1F2F3;" d="M360.6,53.6v16.1c0,0.5,0.5,1,1,1h7.7V52.6h-7.7C361.1,52.6,360.6,53.1,360.6,53.6z"/>
<path style="fill:#F1F2F3;" d="M237,24.6c0.1,0,0.3-0.1,0.5-0.1l29.4-14.6c0.5-0.2,0.7-0.7,0.6-1.2l-4.1-22c-0.1-0.5-0.6-0.9-1-0.9
	c-0.1,0-0.3,0.1-0.5,0.1l-13.4,6.7l-13.3,23l-1.8,3.1l2.7,5.3C236.3,24.4,236.7,24.6,237,24.6z"/>
<path style="fill:#F1F2F3;" d="M259.9-27.2L259.9-27.2c0.6-0.1,1-0.6,0.9-1.2l-0.1-0.2L259.9-27.2z"/>
<path style="fill:#F1F2F3;" d="M263-19.3l-0.8-4.7c0-0.6-0.4-0.9-0.9-0.9h-0.2l-2.8,0.5l-4.5,7.8l8.4-1.5
	C262.7-18.2,263.1-18.7,263-19.3z"/>
<path style="fill:#F1F2F3;" d="M312.6,110.4H296c-1.1,0-1.9,1-1.7,2.1l1.7,9.6c0.1,0.9,0.9,1.5,1.7,1.5h14.8c1,0,1.7-0.8,1.7-1.7
	v-9.6C314.4,111.1,313.6,110.4,312.6,110.4z"/>
<path style="fill:#F1F2F3;" d="M270.1,31.4c-0.2,0-0.3,0.1-0.5,0.1L245.7,45c-0.5,0.3-0.7,0.9-0.4,1.5l30.5,56.6
	c0.2,0.4,0.5,0.5,0.9,0.5c0.6,0,1.1-0.5,1.1-1.2l-6.6-70.1C271,31.8,270.6,31.4,270.1,31.4z"/>
<path style="fill:#A9DEEB;" d="M165,72h-3v-2.9c0-0.7-0.3-1.3-1-1.3s-1,0.6-1,1.3V72h-3c-0.7,0-1.3,0.3-1.3,1s0.6,1,1.3,1h3v3
	c0,0.7,0.3,1.3,1,1.3s1-0.6,1-1.3v-3h3c0.7,0,1.3-0.3,1.3-1S165.7,72,165,72z"/>
<path style="fill:#A9DEEB;" d="M409.1,21l2.5-1.6l1.6,2.5c0.4,0.6,0.9,1,1.5,0.6c0.6-0.4,0.5-1,0.2-1.6l-1.6-2.5l2.5-1.6
	c0.6-0.4,1-0.9,0.6-1.5c-0.4-0.6-1-0.6-1.6-0.2l-2.5,1.6l-1.5-2.5c-0.4-0.6-0.9-1-1.5-0.6c-0.6,0.4-0.5,1-0.2,1.6l1.5,2.5l-2.5,1.6
	c-0.6,0.4-1,0.9-0.6,1.5C407.9,21.4,408.5,21.3,409.1,21z"/>
<circle style="fill:#FFB8C7;" cx="318.1" cy="159.7" r="2.1"/>
<circle style="fill:#FFB8C7;" cx="387.7" cy="-35.7" r="2.1"/>
<circle style="fill:#FFB8C7;" cx="197.4" cy="35.9" r="2.1"/>
<circle style="fill:#FFB8C7;" cx="441.8" cy="91" r="2.1"/>
<circle style="fill:#A9DEEB;" cx="362.6" cy="-83.6" r="2.1"/>
<circle style="fill:#A9DEEB;" cx="197.4" cy="159.7" r="2.1"/>
<path style="fill:#F6F7F9;" d="M435.2,106.4c-0.2,0.3-0.5,0.6-0.9,0.6h-8.2c-0.5,0-1-0.5-1-1V89.8c0-0.2,0.1-0.4,0.2-0.6l-5-8.7H376
	l-1.4,1.4c-0.2,0.2-0.4,0.3-0.7,0.3s-0.5-0.1-0.7-0.3c-0.4-0.4-0.4-1,0-1.4h-3.9H342l-1.4,1.4c-0.2,0.2-0.4,0.3-0.7,0.3
	c-0.3,0-0.5-0.1-0.7-0.3c-0.4-0.4-0.4-1,0-1.4H308l-1.4,1.4c-0.2,0.2-0.4,0.3-0.7,0.3c-0.3,0-0.5-0.1-0.7-0.3c-0.4-0.4-0.4-1,0-1.4
	h-17.3l6,63h5.5l-2.4-16.1c0-0.6,0.8-1.2,1.8-1.2h14.9c1,0,1.8,0.6,1.8,1.2v16.1h53.8h62.1c11.2,0,18.2-12.1,12.6-21.8L435.2,106.4z
	 M291.8,91.5c-0.2-1.4,0.9-2.7,2.3-2.7h9.6c1.3,0,2.4,1,2.4,2.4v13.5c0,1.3-1,2.3-2.3,2.3h-7.5c-1.2,0-2.1-0.9-2.3-2L291.8,91.5z
	 M314.2,112.3v9.6c0,0.9-0.7,1.7-1.7,1.7h-14.8c-0.8,0-1.6-0.6-1.7-1.5l-1.7-9.6c-0.2-1.1,0.6-2.1,1.7-2.1h16.6
	C313.6,110.4,314.4,111.1,314.2,112.3z M314.3,106c0,0.5-0.5,1-1,1h-4.7c-0.5,0-1-0.5-1-1V89.8c0-0.5,0.5-1,1-1h4.7
	c0.6,0,1.1,0.5,1,1.1V106z M325.8,106c0,0.5-0.5,1-1,1h-8.2c-0.5,0-1-0.5-1-1V89.8c0-0.5,0.5-1,1-1h8.2c0.6,0,1,0.5,1,1.1V106z
	 M333.9,106c0,0.5-0.5,1-1,1h-4.7c-0.5,0-1-0.5-1-1V89.8c0-0.5,0.5-1,1-1h4.7c0.5,0,0.9,0.5,1,1.1V106z M341,107h-1
	c-0.1,0-0.1,0-0.2,0v0.9c0.1,0.4-0.3,0.9-0.9,0.9h-3.1c-0.5,0-0.9-0.4-0.9-0.9v-3.1c0-0.5,0.4-0.9,0.9-0.9h0.2V103c0-0.6,0.4-1,1-1
	c0.6,0,1,0.4,1,1v0.9h0.9c0.5,0,0.9,0.4,0.9,0.9v0.2c0.1,0,0.1,0,0.2,0h1c0.6,0,1,0.4,1,1C342,106.6,341.6,107,341,107z M337,98
	c0.6,0,1,0.4,1,1v1c0,0.6-0.4,1-1,1c-0.6,0-1-0.4-1-1v-1C336,98.4,336.4,98,337,98z M336,96v-1c0-0.6,0.4-1,1-1c0.6,0,1,0.4,1,1v1
	c0,0.6-0.4,1-1,1C336.4,97,336,96.6,336,96z M341,90h-1c-0.1,0-0.1,0-0.2,0v0.4c0.1,0.5-0.3,0.9-0.9,0.9H338V92c0,0.6-0.4,1-1,1
	c-0.6,0-1-0.4-1-1v-0.7h-0.2c-0.5,0-0.9-0.4-0.9-0.9v-3.1c0-0.5,0.4-0.9,0.9-0.9h3.1c0.5,0,0.9,0.4,0.9,0.9V88c0.1,0,0.1,0,0.2,0h1
	c0.6,0,1,0.4,1,1C342,89.6,341.6,90,341,90z M345,107h-1c-0.6,0-1-0.4-1-1c0-0.6,0.4-1,1-1h1c0.6,0,1,0.4,1,1
	C346,106.6,345.6,107,345,107z M345,90h-1c-0.6,0-1-0.4-1-1c0-0.6,0.4-1,1-1h1c0.6,0,1,0.4,1,1C346,89.6,345.6,90,345,90z M349,107
	h-1c-0.6,0-1-0.4-1-1c0-0.6,0.4-1,1-1h1c0.6,0,1,0.4,1,1C350,106.6,349.6,107,349,107z M349,90h-1c-0.6,0-1-0.4-1-1c0-0.6,0.4-1,1-1
	h1c0.6,0,1,0.4,1,1C350,89.6,349.6,90,349,90z M353,107h-1c-0.6,0-1-0.4-1-1c0-0.6,0.4-1,1-1h1c0.6,0,1,0.4,1,1
	C354,106.6,353.6,107,353,107z M353,90h-1c-0.6,0-1-0.4-1-1c0-0.6,0.4-1,1-1h1c0.6,0,1,0.4,1,1C354,89.6,353.6,90,353,90z M357,107
	h-1c-0.6,0-1-0.4-1-1c0-0.6,0.4-1,1-1h1c0.6,0,1,0.4,1,1C358,106.6,357.6,107,357,107z M357,90h-1c-0.6,0-1-0.4-1-1c0-0.6,0.4-1,1-1
	h1c0.6,0,1,0.4,1,1C358,89.6,357.6,90,357,90z M361,107h-1c-0.6,0-1-0.4-1-1c0-0.6,0.4-1,1-1h1c0.6,0,1,0.4,1,1
	C362,106.6,361.6,107,361,107z M361,90h-1c-0.6,0-1-0.4-1-1c0-0.6,0.4-1,1-1h1c0.6,0,1,0.4,1,1C362,89.6,361.6,90,361,90z
	 M368.7,107.9c0,0.4-0.4,0.9-0.9,0.9h-3.1c-0.5,0-0.9-0.4-0.9-0.9v-3.1c0-0.5,0.4-0.9,0.9-0.9h0.3V103c0-0.6,0.4-1,1-1
	c0.6,0,1,0.4,1,1v0.9h0.8c0.5,0,0.9,0.4,0.9,0.9V107.9z M366,98c0.6,0,1,0.4,1,1v1c0,0.6-0.4,1-1,1c-0.6,0-1-0.4-1-1v-1
	C365,98.4,365.4,98,366,98z M365,96v-1c0-0.6,0.4-1,1-1c0.6,0,1,0.4,1,1v1c0,0.6-0.4,1-1,1C365.4,97,365,96.6,365,96z M368.7,90.4
	c0,0.5-0.4,0.9-0.9,0.9H367V92c0,0.6-0.4,1-1,1c-0.6,0-1-0.4-1-1v-0.7h-0.3c-0.5,0-0.9-0.4-0.9-0.9v-3.1c0-0.5,0.4-0.9,0.9-0.9h3.1
	c0.5,0,0.9,0.4,0.9,0.9V90.4z M380.6,106c0,0.5-0.5,1-1,1h-8.2c-0.5,0-1-0.5-1-1V89.8c0-0.5,0.5-1,1-1h8.2c0.5,0,0.9,0.5,1,1.1V106z
	 M392.2,106c0,0.5-0.5,1-1,1H383c-0.5,0-1-0.5-1-1V89.8c0-0.5,0.5-1,1-1h8.2c0.5,0,1,0.5,1,1.1V106z M401.2,106c0,0.5-0.5,1-1,1
	h-4.7c-0.5,0-1-0.5-1-1V89.8c0-0.5,0.5-1,1-1h4.7c0.5,0,0.9,0.5,1,1.1V106z M410.5,106c0,0.5-0.5,1-1,1h-4.7c-0.5,0-1-0.5-1-1V89.8
	c0-0.5,0.5-1,1-1h4.7c0.5,0,1,0.5,1,1.1V106z M422.5,106c0,0.5-0.5,1-1,1h-8.2c-0.5,0-1-0.5-1-1V89.8c0-0.5,0.5-1,1-1h8.2
	c0.5,0,1,0.5,1,1.1V106z"/>
<rect x="365.6" y="88.2" style="fill:#F6F7F9;" width="1.2" height="1.2"/>
<rect x="336.8" y="105.7" style="fill:#F6F7F9;" width="1.2" height="1.2"/>
<path style="fill:#F6F7F9;" d="M305.3,73.4c-0.4-0.4-0.4-1,0-1.4c0.4-0.4,1-0.4,1.4,0l2.5,2.5h31.2l-1.1-1.1c-0.4-0.4-0.4-1,0-1.4
	c0.4-0.4,1-0.4,1.4,0l2.5,2.5h26.1h5.1l-1.1-1.1c-0.4-0.4-0.4-1,0-1.4c0.4-0.4,1-0.4,1.4,0l2.5,2.5h39.6L393.5,34
	c-2.2,0.2-4.4,0.3-6.6,0.3c-6,0-11.9-0.6-17.6-1.8c-20.3-4.3-38-15.9-50.4-32.1L282.2,20l5.1,54.5h19L305.3,73.4z M403.6,53.6
	c0-0.4,0.3-0.7,0.6-0.9l9.6,16.6v0.4c0,0.5-0.5,1-1,1h-8.2c-0.5,0-1-0.5-1-1V53.6z M390.8,53.6c0-0.5,0.5-1,1-1h8.2c0.6,0,1,0.5,1,1
	v16.1c0,0.5-0.5,1-1,1h-8.2c-0.5,0-1-0.5-1-1V53.6z M381.6,53.6c0-0.5,0.5-1,1-1h4.7c0.6,0,1,0.5,1,1v16.1c0,0.5-0.5,1-1,1h-4.7
	c-0.5,0-1-0.5-1-1V53.6z M372.6,53.6c0-0.5,0.5-1,1-1h4.7c0.5,0,1,0.5,1,1v16.1c0,0.5-0.5,1-1,1h-4.7c-0.5,0-1-0.5-1-1V53.6z
	 M360.6,53.6c0-0.5,0.5-1,1-1h7.7h0.5c0.5,0,1,0.5,1,1v16.1c0,0.5-0.5,1-1,1h-0.5h-7.7c-0.5,0-1-0.5-1-1V53.6z M348.1,53.6
	c0-0.5,0.5-1,1-1h8.2c0.5,0,0.9,0.5,1,1v16.1c0,0.5-0.5,1-1,1h-8.2c-0.5,0-1-0.5-1-1V53.6z M338.8,53.6c0-0.5,0.5-1,1-1h4.7
	c0.6,0,1,0.5,1,1v16.1c0,0.5-0.5,1-1,1h-4.7c-0.5,0-1-0.5-1-1V53.6z M326.4,53.6c0-0.5,0.5-1,1-1h8.2c0.5,0,1,0.5,1,1v16.1
	c0,0.5-0.5,1-1,1h-8.2c-0.5,0-1-0.5-1-1V53.6z M314.2,53.6c0-0.5,0.5-1,1-1h8.2c0.6,0,1,0.5,1,1v16.1c0,0.5-0.5,1-1,1h-8.2
	c-0.5,0-1-0.5-1-1V53.6z M306.3,53.6c0-0.5,0.5-1,1-1h4.7c0.5,0,1,0.5,1,1v16.1c0,0.5-0.5,1-1,1h-4.7c-0.5,0-1-0.5-1-1V53.6z
	 M304.8,69.8c0,0.5-0.4,0.9-0.9,0.9h-11c-0.4,0-0.7-0.3-0.8-0.7l-2-16.5c-0.1-0.4,0.3-0.9,0.8-0.9h12.9c0.5,0,0.8,0.4,1,0.7V69.8z"
	/>
<path style="fill:#F6F7F9;" d="M332,2.3c10.1,10.3,23,17.8,37.3,21.2c5.7,1.3,11.5,2.1,17.6,2.1c0.6,0,1.1,0,1.7,0l-3.7-6.5
	c-5.4-0.3-10.6-1.2-15.6-2.7c-30.6-8.8-53-37.5-53-71.6c0-11.5,2.6-22.5,7.1-32.2l-1.8-3.2c-0.6-1-1.3-1.9-2-2.7
	c-6.5,11.6-10.3,25.1-10.3,39.4C309.3-31.9,317.9-12.1,332,2.3z"/>
<path style="fill:#F6F7F9;" d="M210.5,58.4l-6,10.3l-27.4,47.5l-3.2,5.5c-0.5,0.8-0.8,1.6-1.1,2.5c-1.5,4.2-0.9,8.6,1.2,12.2
	c0.8,1.4,1.9,2.7,3.1,3.7c2.5,2.1,5.7,3.4,9.4,3.4h85.8h8.4L231.7,47L210.5,58.4z M210.5,106h-5.3v1.2c-0.1,0.3-0.3,0.6-0.6,0.6
	c-0.3,0-0.6-0.3-0.6-0.6V106h-5.5c-0.3,0-0.5-0.3-0.5-0.6l3.1-8l3-7.5c0.1-0.4,0.7-0.4,0.9,0l2.9,7.5l3.1,8
	C211.1,105.7,210.9,106,210.5,106z M225.9,129.6h-5.3v1.2c-0.1,0.3-0.3,0.6-0.6,0.6s-0.6-0.3-0.6-0.6v-1.2h-5.5
	c-0.3,0-0.5-0.3-0.5-0.6l3.1-8l3-7.5c0.1-0.4,0.7-0.4,0.9,0l2.9,7.5l3.1,8C226.5,129.3,226.3,129.6,225.9,129.6z M230.7,80.8
	c-0.3,0.3-3.3,3.9-4.3,5c-0.2,0.2-0.4,0.2-0.6,0l-4.1-4.5c-0.8-0.9-1.3-2.2-1.3-3.5c-0.1-3.3,2.7-6,6.1-5.7c2.6,0.3,4.7,2.3,5,4.9
	C231.7,78.4,231.4,79.7,230.7,80.8z M244.3,111.9c-0.1,0.3-0.3,0.6-0.6,0.6s-0.6-0.3-0.6-0.6v-1.2h1.2V111.9z M249.6,110.6h-6h-6
	c-0.3,0-0.5-0.3-0.5-0.6l3.1-8l3-7.5c0.1-0.4,0.7-0.4,0.9,0l2.9,7.5l3.1,8C250.2,110.3,250,110.6,249.6,110.6z"/>
<polygon style="fill:#F6F7F9;" points="224.9,33.5 218.9,43.9 227.8,39.2 "/>
<rect x="336.8" y="88.2" style="fill:#F6F7F9;" width="1.2" height="1.2"/>
<rect x="365.6" y="105.7" style="fill:#F6F7F9;" width="1.2" height="1.2"/>
<path style="fill:#F6F7F9;" d="M313.9-6.9c-8.4-13.6-13.2-29.7-13.2-47c0-15.9,4.1-30.8,11.3-43.7c-5.8-1.2-12.2,1.1-15.6,7
	l-25,43.3l9.3,58.1L313.9-6.9z"/>
<path style="fill:#F6F7F9;" d="M272.7,15.1l-8.1-50.6l-6.4,11.1l2.8-0.5h0.2c0.5,0,0.9,0.3,0.9,0.9l0.8,4.7c0.1,0.6-0.3,1.1-0.8,1.2
	l-8.4,1.5l-5.3,9.2l13.4-6.7c0.2,0,0.4-0.1,0.5-0.1c0.4,0,0.9,0.4,1,0.9l4.1,22c0.1,0.5-0.1,1-0.6,1.2l-29.4,14.6
	c-0.2,0-0.4,0.1-0.5,0.1c-0.3,0-0.7-0.2-0.9-0.6l-2.7-5.3l-3.4,5.9l5.4,10.5L272.7,15.1z M260-27.2L260-27.2l0.7-1.4l0.1,0.2
	C260.9-27.8,260.5-27.3,260-27.2z"/>
<path style="fill:#F6F7F9;" d="M239.4,42.9l44.6,87.5l-10-106L239.4,42.9z M276.7,103.6c-0.4,0-0.7-0.1-0.9-0.5l-30.5-56.6
	c-0.3-0.6-0.1-1.2,0.4-1.5l23.9-13.5c0.2,0,0.3-0.1,0.5-0.1c0.5,0,0.9,0.4,1.1,0.9l6.6,70.1C277.8,103.1,277.3,103.6,276.7,103.6z"
	/>
<path style="fill:#F6F7F9;" d="M226,75.8c-1.1,0-2,0.9-2,2c0,1.1,0.9,2,2,2s2-0.9,2-2S227.1,75.8,226,75.8z"/>
<circle style="fill:#F6F7F9;" cx="443.9" cy="73" r="2.1"/>
<circle style="fill:#F6F7F9;" cx="193.2" cy="22.7" r="2.1"/>
<path style="fill:#FF7676;" d="M267.8-78.8l-2.5,1.5l-1.6-2.5c-0.4-0.6-0.9-1-1.5-0.6c-0.6,0.4-0.5,1-0.2,1.6l1.6,2.5l-2.5,1.6
	c-0.6,0.4-1,0.9-0.6,1.5c0.4,0.6,1,0.5,1.6,0.2l2.5-1.6l1.6,2.5c0.4,0.6,0.9,1,1.5,0.6c0.7-0.4,0.6-1,0.2-1.6l-1.6-2.5l2.5-1.5
	c0.6-0.4,1-0.9,0.6-1.5C269-79.2,268.4-79.1,267.8-78.8z"/>
<path style="fill:#FF7676;" d="M313.2-1c-0.2-0.5-0.8-0.7-1.3-0.4l-7.3,3.7c0,0-0.1,0-0.1,0l-6.9,0.1c-0.6,0-1,0.3-1,0.9
	c0,0,0,0,0,0c-0.1,0.2-0.1,0.5,0.1,0.8l1,1.8l-11.6,6c-0.5,0.2-0.7,0.8-0.4,1.3c0.2,0.3,0.5,0.5,0.9,0.5c0.2,0,0.3-0.1,0.4-0.1
	l11.6-6l0.9,1.8c0.1,0.1,0.2,0.3,0.3,0.3c0,0,0,0,0.1,0.1c0.2,0.1,0.4,0.2,0.6,0.2c0.3,0,0.6-0.2,0.8-0.4l3.8-5.4l7.7-3.9
	C313.3,0.1,313.5-0.5,313.2-1z M300.5,7.2L298.8,4l4,0.1L300.5,7.2z"/>
<path style="fill:#A1ABD0;" d="M417,76h-38.3l-1.5-1.5l-2.5-2.5c-0.4-0.4-1-0.4-1.4,0c-0.4,0.4-0.4,1,0,1.4l1.1,1.1l1.5,1.5h-6.6
	h-24.6l-1.5-1.5l-2.5-2.5c-0.4-0.4-1-0.4-1.4,0c-0.4,0.4-0.4,1,0,1.4l1.1,1.1l1.5,1.5h-31.2l-1.5-1.5l-2.5-2.5c-0.4-0.4-1-0.4-1.4,0
	c-0.4,0.4-0.4,1,0,1.4l1.1,1.1l1.5,1.5h-20.4h-2.6h-1.6l-6.5-53.1l-0.4-3.3l0-0.1l-0.7-6l-6.7-54.7c-0.1-0.4-0.3-0.6-0.5-0.8
	c-0.2-0.1-0.4-0.2-0.6-0.1c-0.6,0.1-1,0.6-0.9,1.1l0.2,1.3l6.6,54.3l0.6,5.1l0,0.2l0.5,4l14.3,116.6l0.4,2.9l0,0.1
	c0.1,0.5,0.5,0.9,1,0.9l0.2-0.1c0.5-0.1,0.9-0.5,0.9-0.9c0-0.1,0-0.1,0-0.2l-8-65.3h1.3h2.8h20l-2.5,2.5c-0.4,0.4-0.4,1,0,1.4
	c0.2,0.2,0.4,0.3,0.7,0.3c0.3,0,0.5-0.1,0.7-0.3l1.4-1.4l2.5-2.5h31.2l-2.5,2.5c-0.4,0.4-0.4,1,0,1.4c0.2,0.2,0.4,0.3,0.7,0.3
	c0.3,0,0.5-0.1,0.7-0.3l1.4-1.4l2.5-2.5h24.8h6.4l-2.5,2.5c-0.4,0.4-0.4,1,0,1.4c0.2,0.2,0.4,0.3,0.7,0.3s0.5-0.1,0.7-0.3l1.4-1.4
	l2.5-2.5H417c0.6,0,1-0.4,1-1C418,76.4,417.6,76,417,76z"/>
<circle style="fill:#4B5E7F;" cx="220.4" cy="-27.2" r="2.1"/>
<path style="fill:#4B5E7F;" d="M367.8,103.9H367V103c0-0.6-0.4-1-1-1c-0.6,0-1,0.4-1,1v0.9h-0.3c-0.5,0-0.9,0.4-0.9,0.9v3.1
	c0,0.5,0.4,0.9,0.9,0.9h3.1c0.5,0,0.9-0.5,0.9-0.9v-3.1C368.7,104.3,368.3,103.9,367.8,103.9z M366.8,106.9h-1.2v-1.2h1.2V106.9z"/>
<path style="fill:#4B5E7F;" d="M367.8,86.4h-3.1c-0.5,0-0.9,0.4-0.9,0.9v3.1c0,0.5,0.4,0.9,0.9,0.9h0.3V92c0,0.6,0.4,1,1,1
	c0.6,0,1-0.4,1-1v-0.7h0.8c0.5,0,0.9-0.4,0.9-0.9v-3.1C368.7,86.8,368.3,86.4,367.8,86.4z M365.6,88.2h1.2v1.2h-1.2V88.2z"/>
<path style="fill:#4B5E7F;" d="M361,88h-1c-0.6,0-1,0.4-1,1c0,0.6,0.4,1,1,1h1c0.6,0,1-0.4,1-1C362,88.4,361.6,88,361,88z"/>
<path style="fill:#4B5E7F;" d="M357,88h-1c-0.6,0-1,0.4-1,1c0,0.6,0.4,1,1,1h1c0.6,0,1-0.4,1-1C358,88.4,357.6,88,357,88z"/>
<path style="fill:#4B5E7F;" d="M341,88h-1c-0.1,0-0.1,0-0.2,0v-0.7c0-0.5-0.4-0.9-0.9-0.9h-3.1c-0.5,0-0.9,0.4-0.9,0.9v3.1
	c0,0.5,0.4,0.9,0.9,0.9h0.2V92c0,0.6,0.4,1,1,1c0.6,0,1-0.4,1-1v-0.7h0.9c0.6,0,1-0.4,0.9-0.9V90c0.1,0,0.1,0,0.2,0h1
	c0.6,0,1-0.4,1-1C342,88.4,341.6,88,341,88z M338,89.4h-1.2v-1.2h1.2V89.4z"/>
<path style="fill:#4B5E7F;" d="M353,88h-1c-0.6,0-1,0.4-1,1c0,0.6,0.4,1,1,1h1c0.6,0,1-0.4,1-1C354,88.4,353.6,88,353,88z"/>
<path style="fill:#4B5E7F;" d="M349,88h-1c-0.6,0-1,0.4-1,1c0,0.6,0.4,1,1,1h1c0.6,0,1-0.4,1-1C350,88.4,349.6,88,349,88z"/>
<path style="fill:#4B5E7F;" d="M345,88h-1c-0.6,0-1,0.4-1,1c0,0.6,0.4,1,1,1h1c0.6,0,1-0.4,1-1C346,88.4,345.6,88,345,88z"/>
<path style="fill:#4B5E7F;" d="M349,105h-1c-0.6,0-1,0.4-1,1c0,0.6,0.4,1,1,1h1c0.6,0,1-0.4,1-1C350,105.4,349.6,105,349,105z"/>
<path style="fill:#4B5E7F;" d="M353,105h-1c-0.6,0-1,0.4-1,1c0,0.6,0.4,1,1,1h1c0.6,0,1-0.4,1-1C354,105.4,353.6,105,353,105z"/>
<path style="fill:#4B5E7F;" d="M341,105h-1c-0.1,0-0.1,0-0.2,0v-0.2c0-0.5-0.4-0.9-0.9-0.9H338V103c0-0.6-0.4-1-1-1
	c-0.6,0-1,0.4-1,1v0.9h-0.2c-0.5,0-0.9,0.4-0.9,0.9v3.1c0,0.5,0.4,0.9,0.9,0.9h3.1c0.6,0,1-0.5,0.9-0.9V107c0.1,0,0.1,0,0.2,0h1
	c0.6,0,1-0.4,1-1C342,105.4,341.6,105,341,105z M338,106.9h-1.2v-1.2h1.2V106.9z"/>
<path style="fill:#4B5E7F;" d="M345,105h-1c-0.6,0-1,0.4-1,1c0,0.6,0.4,1,1,1h1c0.6,0,1-0.4,1-1C346,105.4,345.6,105,345,105z"/>
<path style="fill:#4B5E7F;" d="M361,105h-1c-0.6,0-1,0.4-1,1c0,0.6,0.4,1,1,1h1c0.6,0,1-0.4,1-1C362,105.4,361.6,105,361,105z"/>
<path style="fill:#4B5E7F;" d="M357,105h-1c-0.6,0-1,0.4-1,1c0,0.6,0.4,1,1,1h1c0.6,0,1-0.4,1-1C358,105.4,357.6,105,357,105z"/>
<path style="fill:#4B5E7F;" d="M336,100c0,0.6,0.4,1,1,1c0.6,0,1-0.4,1-1v-1c0-0.6-0.4-1-1-1c-0.6,0-1,0.4-1,1V100z"/>
<path style="fill:#4B5E7F;" d="M337,97c0.6,0,1-0.4,1-1v-1c0-0.6-0.4-1-1-1c-0.6,0-1,0.4-1,1v1C336,96.6,336.4,97,337,97z"/>
<path style="fill:#4B5E7F;" d="M365,100c0,0.6,0.4,1,1,1c0.6,0,1-0.4,1-1v-1c0-0.6-0.4-1-1-1c-0.6,0-1,0.4-1,1V100z"/>
<path style="fill:#4B5E7F;" d="M366,97c0.6,0,1-0.4,1-1v-1c0-0.6-0.4-1-1-1c-0.6,0-1,0.4-1,1v1C365,96.6,365.4,97,366,97z"/>
<path style="fill:#FFB8C7;" d="M220.4,77.8c0,1.3,0.5,2.6,1.3,3.5l4.1,4.5c0.2,0.2,0.4,0.2,0.6,0c1-1.1,4-4.7,4.3-5
	c0.7-1.1,1-2.4,0.8-3.8c-0.3-2.6-2.4-4.6-5-4.9C223.1,71.8,220.3,74.5,220.4,77.8z M228,77.8c0,1.1-0.9,2-2,2s-2-0.9-2-2
	c0-1.1,0.9-2,2-2S228,76.7,228,77.8z"/>
</svg>
