<svg viewBox="0 0 399 377"><path fill="#9ACFE2" d="M272.8 149.5l-13.5-23.4-45.9-79.5c-4.6 9.7-7.1 20.7-7.1 32.2 0 34.1 22.4 62.8 53 71.6 5 1.4 10.2 2.4 15.6 2.7l-2.1-3.6z"/><path fill="#EFEFEF" d="M113.3 255l-2.9-7.5c-.2-.4-.8-.4-.9 0l-3 7.5-3.1 8c0 .3.2.6.5.6h12c.4 0 .6-.3.5-.6l-3.1-8z"/><path fill="#28353D" d="M109.4 263.6v1.2c0 .3.3.6.6.6s.5-.3.6-.6v-1.2h-1.2z"/><path fill="#EFEFEF" d="M127.6 244.6h12c.4 0 .6-.3.5-.6l-3.1-8-2.9-7.5c-.2-.4-.8-.4-.9 0l-3 7.5-3.1 8c0 .3.2.6.5.6z"/><path fill="#28353D" d="M133.1 245.9c0 .3.3.6.6.6s.5-.3.6-.6v-1.2h-1.2v1.2z"/><path fill="#EFEFEF" d="M97.9 231.4l-2.9-7.5c-.2-.4-.8-.4-.9 0l-3 7.5-3.1 8c0 .3.2.6.5.6h12c.4 0 .6-.3.5-.6l-3.1-8z"/><path fill="#28353D" d="M94 240v1.2c0 .3.3.6.6.6s.5-.3.6-.6V240H94z"/><path fill="#FCFCFC" d="M192.8 138.1l-4-.1 1.7 3.2M164.9 158l-.5-4v-.2l-.6-5.1-6.6-54.3-2.4 4.2 8.1 50.6-37.3 20-5.6-10.6-5.2 8.9 2.9 5.7-8.9 4.8-8.3 14.4 21.2-11.4 49.1 96.5h8.6l-.4-2.9L164.9 158zm-35.5 18.9l34.6-18.5 10 106-44.6-87.5zM307 212h-38.5l-2.5 2.5h44.3l-3.5-6h-39.6l1.5 1.5H307c.6 0 1 .4 1 1s-.4 1-1 1zM259.3 208.5h-26.1l1.5 1.5H265.9l-1.5-1.5"/><path fill="#FCFCFC" d="M177.4 208.5l-5.2-54.5 36.7-19.6c12.3 16.1 30 27.8 50.4 32.1 5.7 1.2 11.6 1.8 17.6 1.8 2.2 0 4.4-.1 6.6-.3l-4.9-8.5h-1.7c-6.1 0-11.9-.7-17.6-2.1-14.3-3.3-27.2-10.8-37.3-21.1-14.1-14.4-22.7-34.2-22.7-56.2 0-14.3 3.7-27.8 10.3-39.4-2.1-2.2-4.8-3.6-7.6-4.2-7.2 12.9-11.3 27.8-11.3 43.7 0 17.3 4.8 33.4 13.2 47L170.7 145l-9.3-58.1-3.1 5.3c.3.2.5.4.5.8l6.7 54.7.7 6v.1l.4 3.3 6.5 53.1H197.7l-1.5-1.5h-18.8v-.2zm-1.3-62.6l11.6-6-1-1.8c-.2-.3-.2-.5-.1-.8 0-.6.4-.9 1-.9l6.9-.1h.1l7.3-3.7c.5-.3 1.1-.1 1.3.4.3.5.1 1.1-.4 1.3l-7.7 3.9-3.8 5.4c-.2.2-.5.4-.8.4-.2 0-.4-.1-.6-.2l-.1-.1-.3-.3-.9-1.8-11.6 6c-.1 0-.2.1-.4.1-.4 0-.7-.2-.9-.5-.3-.5-.1-1.1.4-1.3z"/><path fill="#FCFCFC" d="M199.2 208.5l1.5 1.5h31.2l-1.5-1.5M198 214.5h31.2l2.5-2.5h-31.2M234.5 212l-2.5 2.5h31.2l2.5-2.5h-6.4M174.9 212h-1.3l8 65.3v.2h2.3l-6-63h17.3l2.5-2.5h-22.8z"/><path fill="#F1F2F3" d="M186.3 241h7.5c1.3 0 2.3-1 2.3-2.3v-13.5c0-1.4-1.1-2.4-2.4-2.4h-9.6c-1.4 0-2.5 1.3-2.3 2.7L184 239c.2 1.1 1.1 2 2.3 2zM203.3 222.8h-4.7c-.5 0-1 .5-1 1V240c0 .5.5 1 1 1h4.7c.5 0 1-.5 1-1v-16.1c.1-.6-.4-1.1-1-1.1zM222.9 222.8h-4.7c-.5 0-1 .5-1 1V240c0 .5.5 1 1 1h4.7c.5 0 1-.5 1-1v-16.1c-.1-.6-.5-1.1-1-1.1zM290.2 222.8h-4.7c-.5 0-1 .5-1 1V240c0 .5.5 1 1 1h4.7c.5 0 1-.5 1-1v-16.1c-.1-.6-.5-1.1-1-1.1zM299.5 222.8h-4.7c-.5 0-1 .5-1 1V240c0 .5.5 1 1 1h4.7c.5 0 1-.5 1-1v-16.1c0-.6-.5-1.1-1-1.1zM214.8 222.8h-8.2c-.5 0-1 .5-1 1V240c0 .5.5 1 1 1h8.2c.5 0 1-.5 1-1v-16.1c0-.6-.4-1.1-1-1.1zM203.7 260.2h-14.9c-1 0-1.8.6-1.8 1.2l2.4 16.1h16.1v-16.1c0-.6-.8-1.2-1.8-1.2zM269.6 222.8h-8.2c-.5 0-1 .5-1 1V240c0 .5.5 1 1 1h8.2c.5 0 1-.5 1-1v-16.1c-.1-.6-.5-1.1-1-1.1zM281.2 222.8H273c-.5 0-1 .5-1 1V240c0 .5.5 1 1 1h8.2c.5 0 1-.5 1-1v-16.1c0-.6-.5-1.1-1-1.1zM311.5 222.8h-8.2c-.5 0-1 .5-1 1V240c0 .5.5 1 1 1h8.2c.5 0 1-.5 1-1v-16.1c0-.6-.5-1.1-1-1.1zM315.1 240c0 .5.5 1 1 1h8.2c.4 0 .7-.3.9-.6l-9.9-17.2c-.1.2-.2.4-.2.6V240zM182.9 204.7h11c.5 0 .9-.4.9-.9v-16.5c-.2-.3-.5-.7-1-.7h-12.9c-.5 0-.9.5-.8.9l2 16.5c.1.4.4.7.8.7zM197.3 204.7h4.7c.5 0 1-.5 1-1v-16.1c0-.5-.5-1-1-1h-4.7c-.5 0-1 .5-1 1v16.1c0 .5.5 1 1 1zM229.8 204.7h4.7c.5 0 1-.5 1-1v-16.1c0-.5-.4-1-1-1h-4.7c-.5 0-1 .5-1 1v16.1c0 .5.5 1 1 1zM268.3 186.6h-4.7c-.5 0-1 .5-1 1v16.1c0 .5.5 1 1 1h4.7c.5 0 1-.5 1-1v-16.1c0-.5-.5-1-1-1zM271.6 187.6v16.1c0 .5.5 1 1 1h4.7c.5 0 1-.5 1-1v-16.1c0-.5-.4-1-1-1h-4.7c-.5 0-1 .5-1 1zM205.2 204.7h8.2c.5 0 1-.5 1-1v-16.1c0-.5-.4-1-1-1h-8.2c-.5 0-1 .5-1 1v16.1c0 .5.5 1 1 1zM217.4 204.7h8.2c.5 0 1-.5 1-1v-16.1c0-.5-.5-1-1-1h-8.2c-.5 0-1 .5-1 1v16.1c0 .5.5 1 1 1zM239.1 204.7h8.2c.5 0 1-.5 1-1v-16.1c-.1-.5-.5-1-1-1h-8.2c-.5 0-1 .5-1 1v16.1c0 .5.5 1 1 1zM281.8 204.7h8.2c.5 0 1-.5 1-1v-16.1c0-.5-.4-1-1-1h-8.2c-.5 0-1 .5-1 1v16.1c0 .5.5 1 1 1zM294.6 204.7h8.2c.5 0 1-.5 1-1v-.4l-9.6-16.6c-.3.2-.6.5-.6.9v16.1c0 .5.5 1 1 1zM259.8 204.7c.5 0 1-.5 1-1v-16.1c0-.5-.5-1-1-1h-.5v18.1h.5zM250.6 187.6v16.1c0 .5.5 1 1 1h7.7v-18.1h-7.7c-.5 0-1 .5-1 1zM127 158.6c.1 0 .3-.1.5-.1l29.4-14.6c.5-.2.7-.7.6-1.2l-4.1-22c-.1-.5-.6-.9-1-.9-.1 0-.3.1-.5.1l-13.4 6.7-13.3 23-1.8 3.1 2.7 5.3c.2.4.6.6.9.6zM149.9 106.8c.6-.1 1-.6.9-1.2l-.1-.2-.8 1.4zM153 114.7l-.8-4.7c0-.6-.4-.9-.9-.9h-.2l-2.8.5-4.5 7.8 8.4-1.5c.5-.1.9-.6.8-1.2zM202.6 244.4H186c-1.1 0-1.9 1-1.7 2.1l1.7 9.6c.1.9.9 1.5 1.7 1.5h14.8c1 0 1.7-.8 1.7-1.7v-9.6c.2-1.2-.6-1.9-1.6-1.9zM160.1 165.4c-.2 0-.3.1-.5.1L135.7 179c-.5.3-.7.9-.4 1.5l30.5 56.6c.2.4.5.5.9.5.6 0 1.1-.5 1.1-1.2l-6.6-70.1c-.2-.5-.6-.9-1.1-.9z"/><path fill="#A9DEEB" d="M55 206h-3v-2.9c0-.7-.3-1.3-1-1.3s-1 .6-1 1.3v2.9h-3c-.7 0-1.3.3-1.3 1s.6 1 1.3 1h3v3c0 .7.3 1.3 1 1.3s1-.6 1-1.3v-3h3c.7 0 1.3-.3 1.3-1s-.6-1-1.3-1zM299.1 155l2.5-1.6 1.6 2.5c.4.6.9 1 1.5.6s.5-1 .2-1.6l-1.6-2.5 2.5-1.6c.6-.4 1-.9.6-1.5s-1-.6-1.6-.2l-2.5 1.6-1.5-2.5c-.4-.6-.9-1-1.5-.6s-.5 1-.2 1.6l1.5 2.5-2.5 1.6c-.6.4-1 .9-.6 1.5s1 .5 1.6.2z"/><circle fill="#FFB8C7" cx="208.1" cy="293.7" r="2.1"/><circle fill="#FFB8C7" cx="277.7" cy="98.3" r="2.1"/><circle fill="#FFB8C7" cx="87.4" cy="169.9" r="2.1"/><circle fill="#FFB8C7" cx="331.8" cy="225" r="2.1"/><circle fill="#A9DEEB" cx="252.6" cy="50.4" r="2.1"/><circle fill="#A9DEEB" cx="87.4" cy="293.7" r="2.1"/><path fill="#F6F7F9" d="M325.2 240.4c-.2.3-.5.6-.9.6h-8.2c-.5 0-1-.5-1-1v-16.2c0-.2.1-.4.2-.6l-5-8.7H266l-1.4 1.4c-.2.2-.4.3-.7.3s-.5-.1-.7-.3c-.4-.4-.4-1 0-1.4H232l-1.4 1.4c-.2.2-.4.3-.7.3-.3 0-.5-.1-.7-.3-.4-.4-.4-1 0-1.4H198l-1.4 1.4c-.2.2-.4.3-.7.3-.3 0-.5-.1-.7-.3-.4-.4-.4-1 0-1.4h-17.3l6 63h5.5l-2.4-16.1c0-.6.8-1.2 1.8-1.2h14.9c1 0 1.8.6 1.8 1.2v16.1h115.9c11.2 0 18.2-12.1 12.6-21.8l-8.8-15.3zm-143.4-14.9c-.2-1.4.9-2.7 2.3-2.7h9.6c1.3 0 2.4 1 2.4 2.4v13.5c0 1.3-1 2.3-2.3 2.3h-7.5c-1.2 0-2.1-.9-2.3-2l-2.2-13.5zm22.4 20.8v9.6c0 .9-.7 1.7-1.7 1.7h-14.8c-.8 0-1.6-.6-1.7-1.5l-1.7-9.6c-.2-1.1.6-2.1 1.7-2.1h16.6c1 0 1.8.7 1.6 1.9zm.1-6.3c0 .5-.5 1-1 1h-4.7c-.5 0-1-.5-1-1v-16.2c0-.5.5-1 1-1h4.7c.6 0 1.1.5 1 1.1V240zm11.5 0c0 .5-.5 1-1 1h-8.2c-.5 0-1-.5-1-1v-16.2c0-.5.5-1 1-1h8.2c.6 0 1 .5 1 1.1V240zm8.1 0c0 .5-.5 1-1 1h-4.7c-.5 0-1-.5-1-1v-16.2c0-.5.5-1 1-1h4.7c.5 0 .9.5 1 1.1V240zm7.1 1h-1.2v.9c.1.4-.3.9-.9.9h-3.1c-.5 0-.9-.4-.9-.9v-3.1c0-.5.4-.9.9-.9h.2v-.9c0-.6.4-1 1-1s1 .4 1 1v.9h.9c.5 0 .9.4.9.9v.2h1.2c.6 0 1 .4 1 1s-.4 1-1 1zm-4-9c.6 0 1 .4 1 1v1c0 .6-.4 1-1 1s-1-.4-1-1v-1c0-.6.4-1 1-1zm-1-2v-1c0-.6.4-1 1-1s1 .4 1 1v1c0 .6-.4 1-1 1s-1-.4-1-1zm5-6h-1.2v.4c.1.5-.3.9-.9.9h-.9v.7c0 .6-.4 1-1 1s-1-.4-1-1v-.7h-.2c-.5 0-.9-.4-.9-.9v-3.1c0-.5.4-.9.9-.9h3.1c.5 0 .9.4.9.9v.7h1.2c.6 0 1 .4 1 1s-.4 1-1 1zm4 17h-1c-.6 0-1-.4-1-1s.4-1 1-1h1c.6 0 1 .4 1 1s-.4 1-1 1zm0-17h-1c-.6 0-1-.4-1-1s.4-1 1-1h1c.6 0 1 .4 1 1s-.4 1-1 1zm4 17h-1c-.6 0-1-.4-1-1s.4-1 1-1h1c.6 0 1 .4 1 1s-.4 1-1 1zm0-17h-1c-.6 0-1-.4-1-1s.4-1 1-1h1c.6 0 1 .4 1 1s-.4 1-1 1zm4 17h-1c-.6 0-1-.4-1-1s.4-1 1-1h1c.6 0 1 .4 1 1s-.4 1-1 1zm0-17h-1c-.6 0-1-.4-1-1s.4-1 1-1h1c.6 0 1 .4 1 1s-.4 1-1 1zm4 17h-1c-.6 0-1-.4-1-1s.4-1 1-1h1c.6 0 1 .4 1 1s-.4 1-1 1zm0-17h-1c-.6 0-1-.4-1-1s.4-1 1-1h1c.6 0 1 .4 1 1s-.4 1-1 1zm4 17h-1c-.6 0-1-.4-1-1s.4-1 1-1h1c.6 0 1 .4 1 1s-.4 1-1 1zm0-17h-1c-.6 0-1-.4-1-1s.4-1 1-1h1c.6 0 1 .4 1 1s-.4 1-1 1zm7.7 17.9c0 .4-.4.9-.9.9h-3.1c-.5 0-.9-.4-.9-.9v-3.1c0-.5.4-.9.9-.9h.3v-.9c0-.6.4-1 1-1s1 .4 1 1v.9h.8c.5 0 .9.4.9.9v3.1zM256 232c.6 0 1 .4 1 1v1c0 .6-.4 1-1 1s-1-.4-1-1v-1c0-.6.4-1 1-1zm-1-2v-1c0-.6.4-1 1-1s1 .4 1 1v1c0 .6-.4 1-1 1s-1-.4-1-1zm3.7-5.6c0 .5-.4.9-.9.9h-.8v.7c0 .6-.4 1-1 1s-1-.4-1-1v-.7h-.3c-.5 0-.9-.4-.9-.9v-3.1c0-.5.4-.9.9-.9h3.1c.5 0 .9.4.9.9v3.1zm11.9 15.6c0 .5-.5 1-1 1h-8.2c-.5 0-1-.5-1-1v-16.2c0-.5.5-1 1-1h8.2c.5 0 .9.5 1 1.1V240zm11.6 0c0 .5-.5 1-1 1H273c-.5 0-1-.5-1-1v-16.2c0-.5.5-1 1-1h8.2c.5 0 1 .5 1 1.1V240zm9 0c0 .5-.5 1-1 1h-4.7c-.5 0-1-.5-1-1v-16.2c0-.5.5-1 1-1h4.7c.5 0 .9.5 1 1.1V240zm9.3 0c0 .5-.5 1-1 1h-4.7c-.5 0-1-.5-1-1v-16.2c0-.5.5-1 1-1h4.7c.5 0 1 .5 1 1.1V240zm12 0c0 .5-.5 1-1 1h-8.2c-.5 0-1-.5-1-1v-16.2c0-.5.5-1 1-1h8.2c.5 0 1 .5 1 1.1V240z"/><path fill="#F6F7F9" d="M255.6 222.2h1.2v1.2h-1.2zM226.8 239.7h1.2v1.2h-1.2zM195.3 207.4c-.4-.4-.4-1 0-1.4s1-.4 1.4 0l2.5 2.5h31.2l-1.1-1.1c-.4-.4-.4-1 0-1.4s1-.4 1.4 0l2.5 2.5H264.4l-1.1-1.1c-.4-.4-.4-1 0-1.4s1-.4 1.4 0l2.5 2.5h39.6L283.5 168c-2.2.2-4.4.3-6.6.3-6 0-11.9-.6-17.6-1.8-20.3-4.3-38-15.9-50.4-32.1L172.2 154l5.1 54.5h19l-1-1.1zm98.3-19.8c0-.4.3-.7.6-.9l9.6 16.6v.4c0 .5-.5 1-1 1h-8.2c-.5 0-1-.5-1-1v-16.1zm-12.8 0c0-.5.5-1 1-1h8.2c.6 0 1 .5 1 1v16.1c0 .5-.5 1-1 1h-8.2c-.5 0-1-.5-1-1v-16.1zm-9.2 0c0-.5.5-1 1-1h4.7c.6 0 1 .5 1 1v16.1c0 .5-.5 1-1 1h-4.7c-.5 0-1-.5-1-1v-16.1zm-9 0c0-.5.5-1 1-1h4.7c.5 0 1 .5 1 1v16.1c0 .5-.5 1-1 1h-4.7c-.5 0-1-.5-1-1v-16.1zm-12 0c0-.5.5-1 1-1h8.2c.5 0 1 .5 1 1v16.1c0 .5-.5 1-1 1h-8.2c-.5 0-1-.5-1-1v-16.1zm-12.5 0c0-.5.5-1 1-1h8.2c.5 0 .9.5 1 1v16.1c0 .5-.5 1-1 1h-8.2c-.5 0-1-.5-1-1v-16.1zm-9.3 0c0-.5.5-1 1-1h4.7c.6 0 1 .5 1 1v16.1c0 .5-.5 1-1 1h-4.7c-.5 0-1-.5-1-1v-16.1zm-12.4 0c0-.5.5-1 1-1h8.2c.5 0 1 .5 1 1v16.1c0 .5-.5 1-1 1h-8.2c-.5 0-1-.5-1-1v-16.1zm-12.2 0c0-.5.5-1 1-1h8.2c.6 0 1 .5 1 1v16.1c0 .5-.5 1-1 1h-8.2c-.5 0-1-.5-1-1v-16.1zm-7.9 0c0-.5.5-1 1-1h4.7c.5 0 1 .5 1 1v16.1c0 .5-.5 1-1 1h-4.7c-.5 0-1-.5-1-1v-16.1zm-1.5 16.2c0 .5-.4.9-.9.9h-11c-.4 0-.7-.3-.8-.7l-2-16.5c-.1-.4.3-.9.8-.9h12.9c.5 0 .8.4 1 .7v16.5z"/><path fill="#F6F7F9" d="M222 136.3c10.1 10.3 23 17.8 37.3 21.2 5.7 1.3 11.5 2.1 17.6 2.1h1.7l-3.7-6.5c-5.4-.3-10.6-1.2-15.6-2.7-30.6-8.8-53-37.5-53-71.6 0-11.5 2.6-22.5 7.1-32.2l-1.8-3.2c-.6-1-1.3-1.9-2-2.7-6.5 11.6-10.3 25.1-10.3 39.4 0 22 8.6 41.8 22.7 56.2zM100.5 192.4l-6 10.3-27.4 47.5-3.2 5.5c-.5.8-.8 1.6-1.1 2.5-1.5 4.2-.9 8.6 1.2 12.2.8 1.4 1.9 2.7 3.1 3.7 2.5 2.1 5.7 3.4 9.4 3.4h94.2l-49-96.5-21.2 11.4zm0 47.6h-5.3v1.2c-.1.3-.3.6-.6.6s-.6-.3-.6-.6V240h-5.5c-.3 0-.5-.3-.5-.6l3.1-8 3-7.5c.1-.4.7-.4.9 0l2.9 7.5 3.1 8c.1.3-.1.6-.5.6zm15.4 23.6h-5.3v1.2c-.1.3-.3.6-.6.6s-.6-.3-.6-.6v-1.2h-5.5c-.3 0-.5-.3-.5-.6l3.1-8 3-7.5c.1-.4.7-.4.9 0l2.9 7.5 3.1 8c.1.3-.1.6-.5.6zm4.8-48.8c-.3.3-3.3 3.9-4.3 5-.2.2-.4.2-.6 0l-4.1-4.5c-.8-.9-1.3-2.2-1.3-3.5-.1-3.3 2.7-6 6.1-5.7 2.6.3 4.7 2.3 5 4.9.2 1.4-.1 2.7-.8 3.8zm13.6 31.1c-.1.3-.3.6-.6.6s-.6-.3-.6-.6v-1.2h1.2v1.2zm5.3-1.3h-12c-.3 0-.5-.3-.5-.6l3.1-8 3-7.5c.1-.4.7-.4.9 0l2.9 7.5 3.1 8c.1.3-.1.6-.5.6zM114.9 167.5l-6 10.4 8.9-4.7M226.8 222.2h1.2v1.2h-1.2zM255.6 239.7h1.2v1.2h-1.2z"/><path fill="#F6F7F9" d="M203.9 127.1c-8.4-13.6-13.2-29.7-13.2-47 0-15.9 4.1-30.8 11.3-43.7-5.8-1.2-12.2 1.1-15.6 7l-25 43.3 9.3 58.1 33.2-17.7zM162.7 149.1l-8.1-50.6-6.4 11.1 2.8-.5h.2c.5 0 .9.3.9.9l.8 4.7c.1.6-.3 1.1-.8 1.2l-8.4 1.5-5.3 9.2 13.4-6.7c.2 0 .4-.1.5-.1.4 0 .9.4 1 .9l4.1 22c.1.5-.1 1-.6 1.2l-29.4 14.6c-.2 0-.4.1-.5.1-.3 0-.7-.2-.9-.6l-2.7-5.3-3.4 5.9 5.4 10.5 37.4-20zM150 106.8l.7-1.4.1.2c.1.6-.3 1.1-.8 1.2zM129.4 176.9l44.6 87.5-10-106-34.6 18.5zm37.3 60.7c-.4 0-.7-.1-.9-.5l-30.5-56.6c-.3-.6-.1-1.2.4-1.5l23.9-13.5c.2 0 .3-.1.5-.1.5 0 .9.4 1.1.9l6.6 70.1c0 .7-.5 1.2-1.1 1.2zM116 209.8c-1.1 0-2 .9-2 2s.9 2 2 2 2-.9 2-2-.9-2-2-2z"/><circle fill="#F6F7F9" cx="333.9" cy="207" r="2.1"/><circle fill="#F6F7F9" cx="83.2" cy="156.7" r="2.1"/><path fill="#FF7676" d="M157.8 55.2l-2.5 1.5-1.6-2.5c-.4-.6-.9-1-1.5-.6s-.5 1-.2 1.6l1.6 2.5-2.5 1.6c-.6.4-1 .9-.6 1.5s1 .5 1.6.2l2.5-1.6 1.6 2.5c.4.6.9 1 1.5.6.7-.4.6-1 .2-1.6l-1.6-2.5 2.5-1.5c.6-.4 1-.9.6-1.5s-1-.5-1.6-.2zM203.2 133c-.2-.5-.8-.7-1.3-.4l-7.3 3.7h-.1l-6.9.1c-.6 0-1 .3-1 .9-.1.2-.1.5.1.8l1 1.8-11.6 6c-.5.2-.7.8-.4 1.3.2.3.5.5.9.5.2 0 .3-.1.4-.1l11.6-6 .9 1.8c.1.1.2.3.3.3l.1.1c.2.1.4.2.6.2.3 0 .6-.2.8-.4l3.8-5.4 7.7-3.9c.5-.2.7-.8.4-1.3zm-12.7 8.2l-1.7-3.2 4 .1-2.3 3.1z"/><path fill="#A1ABD0" d="M307 210h-38.3l-1.5-1.5-2.5-2.5c-.4-.4-1-.4-1.4 0s-.4 1 0 1.4l1.1 1.1 1.5 1.5H234.7l-1.5-1.5-2.5-2.5c-.4-.4-1-.4-1.4 0s-.4 1 0 1.4l1.1 1.1 1.5 1.5h-31.2l-1.5-1.5-2.5-2.5c-.4-.4-1-.4-1.4 0s-.4 1 0 1.4l1.1 1.1 1.5 1.5h-24.6l-6.5-53.1-.4-3.3v-.1l-.7-6-6.7-54.7c-.1-.4-.3-.6-.5-.8-.2-.1-.4-.2-.6-.1-.6.1-1 .6-.9 1.1l.2 1.3 6.6 54.3.6 5.1v.2l.5 4 14.3 116.6.4 2.9v.1c.1.5.5.9 1 .9l.2-.1c.5-.1.9-.5.9-.9v-.2l-8-65.3h24.1l-2.5 2.5c-.4.4-.4 1 0 1.4.2.2.4.3.7.3.3 0 .5-.1.7-.3l1.4-1.4 2.5-2.5h31.2l-2.5 2.5c-.4.4-.4 1 0 1.4.2.2.4.3.7.3.3 0 .5-.1.7-.3l1.4-1.4 2.5-2.5H265.8l-2.5 2.5c-.4.4-.4 1 0 1.4.2.2.4.3.7.3s.5-.1.7-.3l1.4-1.4 2.5-2.5H307c.6 0 1-.4 1-1 0-.5-.4-.9-1-.9z"/><circle fill="#4B5E7F" cx="110.4" cy="106.8" r="2.1"/><path fill="#4B5E7F" d="M257.8 237.9h-.8v-.9c0-.6-.4-1-1-1s-1 .4-1 1v.9h-.3c-.5 0-.9.4-.9.9v3.1c0 .5.4.9.9.9h3.1c.5 0 .9-.5.9-.9v-3.1c0-.5-.4-.9-.9-.9zm-1 3h-1.2v-1.2h1.2v1.2zM257.8 220.4h-3.1c-.5 0-.9.4-.9.9v3.1c0 .5.4.9.9.9h.3v.7c0 .6.4 1 1 1s1-.4 1-1v-.7h.8c.5 0 .9-.4.9-.9v-3.1c0-.5-.4-.9-.9-.9zm-2.2 1.8h1.2v1.2h-1.2v-1.2zM251 222h-1c-.6 0-1 .4-1 1s.4 1 1 1h1c.6 0 1-.4 1-1s-.4-1-1-1zM247 222h-1c-.6 0-1 .4-1 1s.4 1 1 1h1c.6 0 1-.4 1-1s-.4-1-1-1zM231 222h-1.2v-.7c0-.5-.4-.9-.9-.9h-3.1c-.5 0-.9.4-.9.9v3.1c0 .5.4.9.9.9h.2v.7c0 .6.4 1 1 1s1-.4 1-1v-.7h.9c.6 0 1-.4.9-.9v-.4h1.2c.6 0 1-.4 1-1s-.4-1-1-1zm-3 1.4h-1.2v-1.2h1.2v1.2zM243 222h-1c-.6 0-1 .4-1 1s.4 1 1 1h1c.6 0 1-.4 1-1s-.4-1-1-1zM239 222h-1c-.6 0-1 .4-1 1s.4 1 1 1h1c.6 0 1-.4 1-1s-.4-1-1-1zM235 222h-1c-.6 0-1 .4-1 1s.4 1 1 1h1c.6 0 1-.4 1-1s-.4-1-1-1zM239 239h-1c-.6 0-1 .4-1 1s.4 1 1 1h1c.6 0 1-.4 1-1s-.4-1-1-1zM243 239h-1c-.6 0-1 .4-1 1s.4 1 1 1h1c.6 0 1-.4 1-1s-.4-1-1-1zM231 239h-1.2v-.2c0-.5-.4-.9-.9-.9h-.9v-.9c0-.6-.4-1-1-1s-1 .4-1 1v.9h-.2c-.5 0-.9.4-.9.9v3.1c0 .5.4.9.9.9h3.1c.6 0 1-.5.9-.9v-.9h1.2c.6 0 1-.4 1-1s-.4-1-1-1zm-3 1.9h-1.2v-1.2h1.2v1.2zM235 239h-1c-.6 0-1 .4-1 1s.4 1 1 1h1c.6 0 1-.4 1-1s-.4-1-1-1zM251 239h-1c-.6 0-1 .4-1 1s.4 1 1 1h1c.6 0 1-.4 1-1s-.4-1-1-1zM247 239h-1c-.6 0-1 .4-1 1s.4 1 1 1h1c.6 0 1-.4 1-1s-.4-1-1-1zM226 234c0 .6.4 1 1 1s1-.4 1-1v-1c0-.6-.4-1-1-1s-1 .4-1 1v1zM227 231c.6 0 1-.4 1-1v-1c0-.6-.4-1-1-1s-1 .4-1 1v1c0 .6.4 1 1 1zM255 234c0 .6.4 1 1 1s1-.4 1-1v-1c0-.6-.4-1-1-1s-1 .4-1 1v1zM256 231c.6 0 1-.4 1-1v-1c0-.6-.4-1-1-1s-1 .4-1 1v1c0 .6.4 1 1 1z"/><path fill="#FFB8C7" d="M110.4 211.8c0 1.3.5 2.6 1.3 3.5l4.1 4.5c.2.2.4.2.6 0 1-1.1 4-4.7 4.3-5 .7-1.1 1-2.4.8-3.8-.3-2.6-2.4-4.6-5-4.9-3.4-.3-6.2 2.4-6.1 5.7zm7.6 0c0 1.1-.9 2-2 2s-2-.9-2-2 .9-2 2-2 2 .9 2 2z"/></svg>
