<?xml version="1.0" encoding="utf-8"?>
<!-- Generator: Adobe Illustrator 19.0.0, SVG Export Plug-In . SVG Version: 6.00 Build 0)  -->
<svg version="1.1" id="Layer_1" xmlns="http://www.w3.org/2000/svg" xmlns:xlink="http://www.w3.org/1999/xlink" x="0px" y="0px"
	 width="405px" height="312px" viewBox="-333 185.3 405 312" style="enable-background:new -333 185.3 405 312;"
	 xml:space="preserve">
<g>
	<g>
		<g>
			<defs>
				<circle id="SVGID_1_" cx="-127.5" cy="348.5" r="124.4"/>
			</defs>
			<clipPath id="SVGID_2_">
				<use xlink:href="#SVGID_1_"  style="overflow:visible;"/>
			</clipPath>
			<polyline style="clip-path:url(#SVGID_2_);fill:#F2F2F2;" points="9.6,537.6 -266.4,537.6 -266.4,199.3 9.6,199.3 9.6,537.6 			
				"/>
		</g>
		<g>
			<defs>
				<circle id="SVGID_3_" cx="-127.5" cy="348.5" r="124.4"/>
			</defs>
			<clipPath id="SVGID_4_">
				<use xlink:href="#SVGID_3_"  style="overflow:visible;"/>
			</clipPath>
			<polyline style="clip-path:url(#SVGID_4_);fill:#FCFCFC;" points="-107.5,367 -8.8,367 -8.8,362.9 -107.5,362.9 			"/>
		</g>
		<g>
			<defs>
				<circle id="SVGID_5_" cx="-127.5" cy="348.5" r="124.4"/>
			</defs>
			<clipPath id="SVGID_6_">
				<use xlink:href="#SVGID_5_"  style="overflow:visible;"/>
			</clipPath>
			<polyline style="clip-path:url(#SVGID_6_);fill:#FCFCFC;" points="-107.5,335.4 -8.8,335.4 -8.8,331.3 -107.5,331.3 			"/>
		</g>
		<g>
			<defs>
				<circle id="SVGID_7_" cx="-127.5" cy="348.5" r="124.4"/>
			</defs>
			<clipPath id="SVGID_8_">
				<use xlink:href="#SVGID_7_"  style="overflow:visible;"/>
			</clipPath>
			<polyline style="clip-path:url(#SVGID_8_);fill:#FCFCFC;" points="-246.6,362.9 -147.8,362.9 -147.8,367 -246.6,367 			"/>
		</g>
		<g>
			<defs>
				<circle id="SVGID_9_" cx="-127.5" cy="348.5" r="124.4"/>
			</defs>
			<clipPath id="SVGID_10_">
				<use xlink:href="#SVGID_9_"  style="overflow:visible;"/>
			</clipPath>
			<polyline style="clip-path:url(#SVGID_10_);fill:#FCFCFC;" points="-242,461.4 -143.3,461.4 -143.3,465.5 -242,465.5 			"/>
		</g>
		<g>
			<defs>
				<circle id="SVGID_11_" cx="-127.5" cy="348.5" r="124.4"/>
			</defs>
			<clipPath id="SVGID_12_">
				<use xlink:href="#SVGID_11_"  style="overflow:visible;"/>
			</clipPath>
			<polyline style="clip-path:url(#SVGID_12_);fill:#FCFCFC;" points="-110.4,461.4 -11.6,461.4 -11.6,465.5 -110.4,465.5 			"/>
		</g>
		<g>
			<defs>
				<circle id="SVGID_13_" cx="-127.5" cy="348.5" r="124.4"/>
			</defs>
			<clipPath id="SVGID_14_">
				<use xlink:href="#SVGID_13_"  style="overflow:visible;"/>
			</clipPath>
			<polyline style="clip-path:url(#SVGID_14_);fill:#FCFCFC;" points="-110.4,432.6 39.8,432.6 39.8,436.7 -110.4,436.7 			"/>
		</g>
		<g>
			<defs>
				<circle id="SVGID_15_" cx="-127.5" cy="348.5" r="124.4"/>
			</defs>
			<clipPath id="SVGID_16_">
				<use xlink:href="#SVGID_15_"  style="overflow:visible;"/>
			</clipPath>
			<polyline style="clip-path:url(#SVGID_16_);fill:#FCFCFC;" points="-295.2,432.6 -143.3,432.6 -143.3,436.7 -295.2,436.7 			"/>
		</g>
		<g>
			<defs>
				<circle id="SVGID_17_" cx="-127.5" cy="348.5" r="124.4"/>
			</defs>
			<clipPath id="SVGID_18_">
				<use xlink:href="#SVGID_17_"  style="overflow:visible;"/>
			</clipPath>
			<polyline style="clip-path:url(#SVGID_18_);fill:#FCFCFC;" points="-246.6,335.4 -147.8,335.4 -147.8,331.3 -246.6,331.3 			"/>
		</g>
		<g>
			<defs>
				<circle id="SVGID_19_" cx="-127.5" cy="348.5" r="124.4"/>
			</defs>
			<clipPath id="SVGID_20_">
				<use xlink:href="#SVGID_19_"  style="overflow:visible;"/>
			</clipPath>
			<polyline style="clip-path:url(#SVGID_20_);fill:#FCFCFC;" points="-108.5,331.6 -108.5,213.8 -112.6,213.8 -112.6,331.6 			"/>
		</g>
		<g>
			<defs>
				<circle id="SVGID_21_" cx="-127.5" cy="348.5" r="124.4"/>
			</defs>
			<clipPath id="SVGID_22_">
				<use xlink:href="#SVGID_21_"  style="overflow:visible;"/>
			</clipPath>
			<polyline style="clip-path:url(#SVGID_22_);fill:#FCFCFC;" points="-140.1,331.6 -140.1,213.8 -144.2,213.8 -144.2,331.6 			"/>
		</g>
		<g>
			<defs>
				<circle id="SVGID_23_" cx="-127.5" cy="348.5" r="124.4"/>
			</defs>
			<clipPath id="SVGID_24_">
				<use xlink:href="#SVGID_23_"  style="overflow:visible;"/>
			</clipPath>
			<polyline style="clip-path:url(#SVGID_24_);fill:#FCFCFC;" points="-108.5,493 -108.5,367.8 -112.6,367.8 -112.6,493 			"/>
		</g>
		<g>
			<defs>
				<circle id="SVGID_25_" cx="-127.5" cy="348.5" r="124.4"/>
			</defs>
			<clipPath id="SVGID_26_">
				<use xlink:href="#SVGID_25_"  style="overflow:visible;"/>
			</clipPath>
			<polyline style="clip-path:url(#SVGID_26_);fill:#FCFCFC;" points="-140.1,493 -140.1,367.8 -144.2,367.8 -144.2,493 			"/>
		</g>
		<g>
			<defs>
				<circle id="SVGID_27_" cx="-127.5" cy="348.5" r="124.4"/>
			</defs>
			<clipPath id="SVGID_28_">
				<use xlink:href="#SVGID_27_"  style="overflow:visible;"/>
			</clipPath>
			<path style="clip-path:url(#SVGID_28_);fill:#FCFCFC;" d="M-242.4,433.4c0.1-0.1,2.9-3.8,5.8-9.9c2.9-6.1,5.7-14.6,5.8-24.4
				c0-9-2.5-19.1-9.7-28.9l-4.6,3.4c6.4,8.8,8.6,17.5,8.6,25.5c0,8.6-2.6,16.4-5.2,22c-1.3,2.8-2.6,5-3.6,6.6
				c-0.5,0.8-0.9,1.3-1.2,1.7c-0.1,0.2-0.2,0.3-0.3,0.4l-0.1,0.1l0,0l0.2,0.1l-0.2-0.1l0,0l0.2,0.1l-0.2-0.1L-242.4,433.4
				L-242.4,433.4z"/>
		</g>
		<g>
			<defs>
				<circle id="SVGID_29_" cx="-127.5" cy="348.5" r="124.4"/>
			</defs>
			<clipPath id="SVGID_30_">
				<use xlink:href="#SVGID_29_"  style="overflow:visible;"/>
			</clipPath>
			<path style="clip-path:url(#SVGID_30_);fill:#FCFCFC;" d="M-6.2,431.3l-0.2,0.1L-6.2,431.3L-6.2,431.3l-0.2,0.1L-6.2,431.3
				c-0.1-0.1-2.7-3.5-5.3-9.1s-5.1-13.2-5.1-21.7c0-8,2.1-16.7,8.6-25.5l-4.6-3.4c-7.2,9.8-9.7,19.9-9.7,28.9
				c0,9.8,2.9,18.3,5.8,24.4s5.7,9.8,5.8,9.9L-6.2,431.3L-6.2,431.3z"/>
		</g>
		<g>
			<defs>
				<circle id="SVGID_31_" cx="-127.5" cy="348.5" r="124.4"/>
			</defs>
			<clipPath id="SVGID_32_">
				<use xlink:href="#SVGID_31_"  style="overflow:visible;"/>
			</clipPath>
			<path style="clip-path:url(#SVGID_32_);fill:#FFB8C7;" d="M-146,332.2c0.4,0.9,0.9,1.8,1.6,2.6c0.3,0.4,1,0.4,1.4,0.1
				s0.4-1,0.1-1.4c-0.5-0.6-0.9-1.3-1.2-2.1c-0.2-0.5-0.8-0.7-1.2-0.5C-145.9,331.1-146.2,331.7-146,332.2L-146,332.2z
				 M-147.9,324.9c0.3,0.8,0.5,1.6,0.7,2.5c0.1,0.5,0.6,0.9,1.1,0.7c0.5-0.1,0.9-0.6,0.7-1.1c-0.2-0.9-0.4-1.9-0.7-2.8
				c-0.2-0.5-0.7-0.8-1.2-0.6S-148.1,324.4-147.9,324.9L-147.9,324.9z M-152.5,320.4c0.4,0.1,0.8,0.3,1.2,0.5
				c0.3,0.2,0.7,0.4,0.9,0.6c0.4,0.3,1,0.2,1.3-0.2c0.3-0.4,0.2-1-0.2-1.3s-0.7-0.5-1.2-0.7c-0.5-0.3-1-0.5-1.5-0.7s-1,0.1-1.2,0.6
				C-153.3,319.7-153,320.2-152.5,320.4L-152.5,320.4z M-159.1,321.2c0.8-0.3,1.7-0.7,2.5-0.9c0.5-0.1,0.8-0.7,0.7-1.2
				s-0.7-0.8-1.2-0.7c-0.9,0.3-1.8,0.6-2.7,1c-0.5,0.2-0.7,0.8-0.5,1.3C-160.2,321.2-159.6,321.4-159.1,321.2L-159.1,321.2z
				 M-166.9,322.9c0.5,0.1,0.9,0.1,1.4,0.1c0.6,0,1.1-0.1,1.7-0.2c0.5-0.1,0.9-0.6,0.8-1.1c-0.1-0.5-0.6-0.9-1.1-0.8
				c-0.4,0.1-0.9,0.1-1.3,0.1c-0.3,0-0.7,0-1.1-0.1c-0.5-0.1-1,0.3-1.1,0.8C-167.8,322.3-167.4,322.8-166.9,322.9z M-173.5,318.1
				c0.4,0.9,1,1.7,1.8,2.5c0.4,0.4,1,0.3,1.4,0c0.4-0.4,0.3-1,0-1.4c-0.6-0.6-1.1-1.2-1.4-1.9c-0.2-0.5-0.8-0.7-1.3-0.4
				C-173.5,317-173.7,317.6-173.5,318.1L-173.5,318.1z M-175.5,310.7c0.2,0.8,0.4,1.7,0.6,2.6c0.1,0.5,0.6,0.9,1.1,0.8
				s0.9-0.6,0.8-1.1c-0.2-0.9-0.4-1.8-0.6-2.8c-0.2-0.5-0.7-0.8-1.2-0.6C-175.4,309.6-175.6,310.1-175.5,310.7L-175.5,310.7z
				 M-179.7,305.7c0.2,0.1,0.4,0.2,0.6,0.3c0.6,0.3,1,0.6,1.4,1s1,0.3,1.4-0.1s0.3-1-0.1-1.4c-0.5-0.5-1.1-0.9-1.8-1.3
				c-0.3-0.1-0.5-0.3-0.7-0.4c-0.5-0.2-1.1,0-1.3,0.5C-180.4,305-180.2,305.5-179.7,305.7z M-186.3,306.1c0.8-0.3,1.7-0.6,2.5-0.8
				c0.5-0.1,0.9-0.6,0.8-1.1c-0.1-0.5-0.6-0.9-1.1-0.8c-1,0.2-1.9,0.5-2.8,0.9c-0.5,0.2-0.7,0.8-0.5,1.2
				C-187.3,306.1-186.8,306.3-186.3,306.1L-186.3,306.1z M-193.9,308.1c0.2,0,0.4,0,0.5,0c0.9,0,1.7-0.1,2.5-0.3
				c0.5-0.1,0.8-0.7,0.7-1.2s-0.7-0.8-1.2-0.7c-0.7,0.2-1.3,0.3-2,0.3c-0.1,0-0.3,0-0.4,0c-0.5,0-1,0.4-1,0.9
				C-194.8,307.7-194.4,308.1-193.9,308.1L-193.9,308.1z M-200.9,304c0.5,0.8,1.2,1.6,2.1,2.3c0.4,0.3,1,0.2,1.3-0.2
				c0.3-0.4,0.2-1-0.2-1.3c-0.7-0.5-1.2-1.1-1.6-1.8c-0.3-0.5-0.9-0.6-1.3-0.3C-201,302.9-201.2,303.5-200.9,304L-200.9,304z
				 M-203.1,296.5c0.2,0.8,0.4,1.7,0.6,2.6c0.1,0.5,0.6,0.9,1.1,0.7c0.5-0.1,0.9-0.6,0.7-1.1c-0.2-0.9-0.3-1.8-0.6-2.7
				c-0.1-0.5-0.7-0.8-1.2-0.7C-202.9,295.4-203.3,296-203.1,296.5L-203.1,296.5z M-206.9,291.2c0.8,0.4,1.4,0.9,1.9,1.5
				c0.4,0.4,1,0.4,1.4,0.1c0.4-0.4,0.4-1,0.1-1.4c-0.6-0.7-1.4-1.3-2.4-1.9c-0.5-0.2-1.1-0.1-1.3,0.4
				C-207.5,290.3-207.4,290.9-206.9,291.2L-206.9,291.2z"/>
		</g>
		<g>
			<defs>
				<circle id="SVGID_33_" cx="-127.5" cy="348.5" r="124.4"/>
			</defs>
			<clipPath id="SVGID_34_">
				<use xlink:href="#SVGID_33_"  style="overflow:visible;"/>
			</clipPath>
			<path style="clip-path:url(#SVGID_34_);fill:#FCFCFC;" d="M-189.6,407.6c-0.1,0-1.1-0.1-3-0.1c-4.3,0-12.7,0.5-23,3.7
				c-10.2,3.2-22.1,9.2-33.1,20.2l4,4c10.3-10.3,21.3-15.8,30.8-18.8s17.4-3.5,21.2-3.5c0.8,0,1.4,0,1.9,0c0.2,0,0.4,0,0.5,0h0.1
				l0,0l0.1-0.6l-0.1,0.6l0,0l0.1-0.6l-0.1,0.6L-189.6,407.6L-189.6,407.6z"/>
		</g>
		<g>
			<defs>
				<circle id="SVGID_35_" cx="-127.5" cy="348.5" r="124.4"/>
			</defs>
			<clipPath id="SVGID_36_">
				<use xlink:href="#SVGID_35_"  style="overflow:visible;"/>
			</clipPath>
			<path style="clip-path:url(#SVGID_36_);fill:#FCFCFC;" d="M-63,414.7l-0.1-0.6L-63,414.7L-63,414.7l-0.1-0.6L-63,414.7
				c0,0,0.9-0.1,2.4-0.1c3.8,0,11.7,0.4,21.2,3.5c9.5,3,20.6,8.6,30.8,18.8l4-4c-11-11-22.9-17-33.1-20.2s-18.7-3.7-23-3.7
				c-1.8,0-2.9,0.1-3,0.1L-63,414.7L-63,414.7z"/>
		</g>
		<g>
			<defs>
				<circle id="SVGID_37_" cx="-127.5" cy="348.5" r="124.4"/>
			</defs>
			<clipPath id="SVGID_38_">
				<use xlink:href="#SVGID_37_"  style="overflow:visible;"/>
			</clipPath>
			<path style="clip-path:url(#SVGID_38_);fill:#FCFCFC;" d="M-248.3,270.5l0.2-0.1L-248.3,270.5L-248.3,270.5l0.2-0.1L-248.3,270.5
				c0.1,0.1,2.7,3.5,5.3,9.1s5.1,13.2,5.1,21.7c0,8-2.1,16.7-8.6,25.5l4.6,3.4c7.2-9.8,9.7-19.9,9.7-28.9c0-9.8-2.9-18.3-5.8-24.4
				c-2.9-6.1-5.7-9.8-5.8-9.9L-248.3,270.5L-248.3,270.5z"/>
		</g>
		<g>
			<defs>
				<circle id="SVGID_39_" cx="-127.5" cy="348.5" r="124.4"/>
			</defs>
			<clipPath id="SVGID_40_">
				<use xlink:href="#SVGID_39_"  style="overflow:visible;"/>
			</clipPath>
			<path style="clip-path:url(#SVGID_40_);fill:#FCFCFC;" d="M-12.1,265.6c-0.1,0.1-2.9,3.8-5.8,9.9s-5.7,14.6-5.8,24.4
				c0,9,2.5,19.1,9.7,28.9l4.6-3.4c-6.4-8.8-8.6-17.5-8.6-25.5c0-8.6,2.6-16.4,5.2-22c1.3-2.8,2.6-5,3.6-6.6
				c0.5-0.8,0.9-1.3,1.2-1.7c0.1-0.2,0.2-0.3,0.3-0.4l0.1-0.1l0,0l-0.2-0.1l0.2,0.1l0,0l-0.2-0.1l0.2,0.1L-12.1,265.6L-12.1,265.6z"
				/>
		</g>
		<g>
			<defs>
				<circle id="SVGID_41_" cx="-127.5" cy="348.5" r="124.4"/>
			</defs>
			<clipPath id="SVGID_42_">
				<use xlink:href="#SVGID_41_"  style="overflow:visible;"/>
			</clipPath>
			<path style="clip-path:url(#SVGID_42_);fill:#FCFCFC;" d="M-191.4,287l0.1,0.6L-191.4,287L-191.4,287l0.1,0.6L-191.4,287
				c0,0-0.9,0.1-2.4,0.1c-3.8,0-11.7-0.4-21.2-3.5c-9.5-3-20.6-8.6-30.8-18.8l-4,4c11,11,22.9,17,33.1,20.2s18.7,3.7,23,3.7
				c1.8,0,2.9-0.1,3-0.1L-191.4,287L-191.4,287z"/>
		</g>
		<g>
			<defs>
				<circle id="SVGID_43_" cx="-127.5" cy="348.5" r="124.4"/>
			</defs>
			<clipPath id="SVGID_44_">
				<use xlink:href="#SVGID_43_"  style="overflow:visible;"/>
			</clipPath>
			<path style="clip-path:url(#SVGID_44_);fill:#FCFCFC;" d="M-64.9,291.4c0.1,0,1.1,0.1,3,0.1c4.3,0,12.7-0.5,23-3.7
				c10.2-3.2,22.1-9.2,33.1-20.2l-4-4c-10.3,10.3-21.3,15.8-30.8,18.8s-17.4,3.5-21.2,3.5c-0.8,0-1.4,0-1.9,0c-0.2,0-0.4,0-0.5,0
				h-0.1l0,0v0.6l0.1-0.6l0,0v0.6l0.1-0.6L-64.9,291.4L-64.9,291.4z"/>
		</g>
		<g>
			<defs>
				<circle id="SVGID_45_" cx="-127.5" cy="348.5" r="124.4"/>
			</defs>
			<clipPath id="SVGID_46_">
				<use xlink:href="#SVGID_45_"  style="overflow:visible;"/>
			</clipPath>
			<path style="clip-path:url(#SVGID_46_);fill:#E5E5E5;" d="M-81.6,443.3h-3.2c-0.4,0-0.7,0.3-0.7,0.7v11.1c0,0.4,0.3,0.7,0.7,0.7
				h3.2c0.4,0,0.7-0.3,0.7-0.7V444C-80.9,443.6-81.2,443.3-81.6,443.3"/>
		</g>
		<g>
			<defs>
				<circle id="SVGID_47_" cx="-127.5" cy="348.5" r="124.4"/>
			</defs>
			<clipPath id="SVGID_48_">
				<use xlink:href="#SVGID_47_"  style="overflow:visible;"/>
			</clipPath>
			<path style="clip-path:url(#SVGID_48_);fill:#E5E5E5;" d="M-75.2,443.3h-3.2c-0.4,0-0.7,0.3-0.7,0.7v11.1c0,0.4,0.3,0.7,0.7,0.7
				h3.2c0.4,0,0.7-0.3,0.7-0.7V444C-74.5,443.6-74.8,443.3-75.2,443.3"/>
		</g>
		<g>
			<defs>
				<circle id="SVGID_49_" cx="-127.5" cy="348.5" r="124.4"/>
			</defs>
			<clipPath id="SVGID_50_">
				<use xlink:href="#SVGID_49_"  style="overflow:visible;"/>
			</clipPath>
			<path style="clip-path:url(#SVGID_50_);fill:#E5E5E5;" d="M-96.4,443.3h-5.6c-0.4,0-0.7,0.3-0.7,0.7v11.1c0,0.4,0.3,0.7,0.7,0.7
				h5.6c0.4,0,0.7-0.3,0.7-0.7V444C-95.7,443.6-96.1,443.3-96.4,443.3"/>
		</g>
		<g>
			<defs>
				<circle id="SVGID_51_" cx="-127.5" cy="348.5" r="124.4"/>
			</defs>
			<clipPath id="SVGID_52_">
				<use xlink:href="#SVGID_51_"  style="overflow:visible;"/>
			</clipPath>
			<path style="clip-path:url(#SVGID_52_);fill:#E5E5E5;" d="M-87.7,443.3h-5.6c-0.4,0-0.7,0.3-0.7,0.7v11.1c0,0.4,0.3,0.7,0.7,0.7
				h5.6c0.4,0,0.7-0.3,0.7-0.7V444C-87.1,443.6-87.4,443.3-87.7,443.3"/>
		</g>
		<g>
			<defs>
				<circle id="SVGID_53_" cx="-127.5" cy="348.5" r="124.4"/>
			</defs>
			<clipPath id="SVGID_54_">
				<use xlink:href="#SVGID_53_"  style="overflow:visible;"/>
			</clipPath>
			<path style="clip-path:url(#SVGID_54_);fill:#E5E5E5;" d="M-67,443.3h-5.6c-0.4,0-0.7,0.3-0.7,0.7v11.1c0,0.4,0.3,0.7,0.7,0.7
				h5.6c0.4,0,0.7-0.3,0.7-0.7V444C-66.3,443.6-66.6,443.3-67,443.3"/>
		</g>
		<g>
			<defs>
				<circle id="SVGID_55_" cx="-127.5" cy="348.5" r="124.4"/>
			</defs>
			<clipPath id="SVGID_56_">
				<use xlink:href="#SVGID_55_"  style="overflow:visible;"/>
			</clipPath>
			<path style="clip-path:url(#SVGID_56_);fill:#E5E5E5;" d="M-58.2,443.3h-5.6c-0.4,0-0.7,0.3-0.7,0.7v11.1c0,0.4,0.3,0.7,0.7,0.7
				h5.6c0.4,0,0.7-0.3,0.7-0.7V444C-57.5,443.6-57.8,443.3-58.2,443.3"/>
		</g>
		<g>
			<defs>
				<circle id="SVGID_57_" cx="-127.5" cy="348.5" r="124.4"/>
			</defs>
			<clipPath id="SVGID_58_">
				<use xlink:href="#SVGID_57_"  style="overflow:visible;"/>
			</clipPath>
			<path style="clip-path:url(#SVGID_58_);fill:#E5E5E5;" d="M-34.2,443.3h-3.2c-0.4,0-0.7,0.3-0.7,0.7v11.1c0,0.4,0.3,0.7,0.7,0.7
				h3.2c0.4,0,0.7-0.3,0.7-0.7V444C-33.5,443.6-33.9,443.3-34.2,443.3"/>
		</g>
		<g>
			<defs>
				<circle id="SVGID_59_" cx="-127.5" cy="348.5" r="124.4"/>
			</defs>
			<clipPath id="SVGID_60_">
				<use xlink:href="#SVGID_59_"  style="overflow:visible;"/>
			</clipPath>
			<path style="clip-path:url(#SVGID_60_);fill:#E5E5E5;" d="M-27.8,443.3H-31c-0.4,0-0.7,0.3-0.7,0.7v11.1c0,0.4,0.3,0.7,0.7,0.7
				h3.2c0.4,0,0.7-0.3,0.7-0.7V444C-27.1,443.6-27.5,443.3-27.8,443.3"/>
		</g>
		<g>
			<defs>
				<circle id="SVGID_61_" cx="-127.5" cy="348.5" r="124.4"/>
			</defs>
			<clipPath id="SVGID_62_">
				<use xlink:href="#SVGID_61_"  style="overflow:visible;"/>
			</clipPath>
			<path style="clip-path:url(#SVGID_62_);fill:#E5E5E5;" d="M-49,443.3h-5.6c-0.4,0-0.7,0.3-0.7,0.7v11.1c0,0.4,0.3,0.7,0.7,0.7
				h5.6c0.4,0,0.7-0.3,0.7-0.7V444C-48.4,443.6-48.7,443.3-49,443.3"/>
		</g>
		<g>
			<defs>
				<circle id="SVGID_63_" cx="-127.5" cy="348.5" r="124.4"/>
			</defs>
			<clipPath id="SVGID_64_">
				<use xlink:href="#SVGID_63_"  style="overflow:visible;"/>
			</clipPath>
			<path style="clip-path:url(#SVGID_64_);fill:#E5E5E5;" d="M-40.4,443.3H-46c-0.4,0-0.7,0.3-0.7,0.7v11.1c0,0.4,0.3,0.7,0.7,0.7
				h5.6c0.4,0,0.7-0.3,0.7-0.7V444C-39.7,443.6-40,443.3-40.4,443.3"/>
		</g>
		<g>
			<defs>
				<circle id="SVGID_65_" cx="-127.5" cy="348.5" r="124.4"/>
			</defs>
			<clipPath id="SVGID_66_">
				<use xlink:href="#SVGID_65_"  style="overflow:visible;"/>
			</clipPath>
			<path style="clip-path:url(#SVGID_66_);fill:#E5E5E5;" d="M-19.6,443.3h-5.6c-0.4,0-0.7,0.3-0.7,0.7v11.1c0,0.4,0.3,0.7,0.7,0.7
				h5.6c0.4,0,0.7-0.3,0.7-0.7V444C-18.9,443.6-19.2,443.3-19.6,443.3"/>
		</g>
		<g>
			<defs>
				<circle id="SVGID_67_" cx="-127.5" cy="348.5" r="124.4"/>
			</defs>
			<clipPath id="SVGID_68_">
				<use xlink:href="#SVGID_67_"  style="overflow:visible;"/>
			</clipPath>
			<path style="clip-path:url(#SVGID_68_);fill:#E5E5E5;" d="M-10.8,443.3h-5.6c-0.4,0-0.7,0.3-0.7,0.7v11.1c0,0.4,0.3,0.7,0.7,0.7
				h5.6c0.4,0,0.7-0.3,0.7-0.7V444C-10.1,443.6-10.4,443.3-10.8,443.3"/>
		</g>
		<g>
			<defs>
				<circle id="SVGID_69_" cx="-127.5" cy="348.5" r="124.4"/>
			</defs>
			<clipPath id="SVGID_70_">
				<use xlink:href="#SVGID_69_"  style="overflow:visible;"/>
			</clipPath>
			<path style="clip-path:url(#SVGID_70_);fill:#E5E5E5;" d="M-222.4,443.3h-3.2c-0.4,0-0.7,0.3-0.7,0.7v11.1c0,0.4,0.3,0.7,0.7,0.7
				h3.2c0.4,0,0.7-0.3,0.7-0.7V444C-221.7,443.6-222,443.3-222.4,443.3"/>
		</g>
		<g>
			<defs>
				<circle id="SVGID_71_" cx="-127.5" cy="348.5" r="124.4"/>
			</defs>
			<clipPath id="SVGID_72_">
				<use xlink:href="#SVGID_71_"  style="overflow:visible;"/>
			</clipPath>
			<path style="clip-path:url(#SVGID_72_);fill:#E5E5E5;" d="M-216,443.3h-3.2c-0.4,0-0.7,0.3-0.7,0.7v11.1c0,0.4,0.3,0.7,0.7,0.7
				h3.2c0.4,0,0.7-0.3,0.7-0.7V444C-215.3,443.6-215.6,443.3-216,443.3"/>
		</g>
		<g>
			<defs>
				<circle id="SVGID_73_" cx="-127.5" cy="348.5" r="124.4"/>
			</defs>
			<clipPath id="SVGID_74_">
				<use xlink:href="#SVGID_73_"  style="overflow:visible;"/>
			</clipPath>
			<path style="clip-path:url(#SVGID_74_);fill:#E5E5E5;" d="M-237.2,443.3h-5.6c-0.4,0-0.7,0.3-0.7,0.7v11.1c0,0.4,0.3,0.7,0.7,0.7
				h5.6c0.4,0,0.7-0.3,0.7-0.7V444C-236.5,443.6-236.8,443.3-237.2,443.3"/>
		</g>
		<g>
			<defs>
				<circle id="SVGID_75_" cx="-127.5" cy="348.5" r="124.4"/>
			</defs>
			<clipPath id="SVGID_76_">
				<use xlink:href="#SVGID_75_"  style="overflow:visible;"/>
			</clipPath>
			<path style="clip-path:url(#SVGID_76_);fill:#E5E5E5;" d="M-228.5,443.3h-5.6c-0.4,0-0.7,0.3-0.7,0.7v11.1c0,0.4,0.3,0.7,0.7,0.7
				h5.6c0.4,0,0.7-0.3,0.7-0.7V444C-227.9,443.6-228.2,443.3-228.5,443.3"/>
		</g>
		<g>
			<defs>
				<circle id="SVGID_77_" cx="-127.5" cy="348.5" r="124.4"/>
			</defs>
			<clipPath id="SVGID_78_">
				<use xlink:href="#SVGID_77_"  style="overflow:visible;"/>
			</clipPath>
			<path style="clip-path:url(#SVGID_78_);fill:#E5E5E5;" d="M-207.7,443.3h-5.6c-0.4,0-0.7,0.3-0.7,0.7v11.1c0,0.4,0.3,0.7,0.7,0.7
				h5.6c0.4,0,0.7-0.3,0.7-0.7V444C-207.1,443.6-207.4,443.3-207.7,443.3"/>
		</g>
		<g>
			<defs>
				<circle id="SVGID_79_" cx="-127.5" cy="348.5" r="124.4"/>
			</defs>
			<clipPath id="SVGID_80_">
				<use xlink:href="#SVGID_79_"  style="overflow:visible;"/>
			</clipPath>
			<path style="clip-path:url(#SVGID_80_);fill:#E5E5E5;" d="M-199,443.3h-5.6c-0.4,0-0.7,0.3-0.7,0.7v11.1c0,0.4,0.3,0.7,0.7,0.7
				h5.6c0.4,0,0.7-0.3,0.7-0.7V444C-198.3,443.6-198.6,443.3-199,443.3"/>
		</g>
		<g>
			<defs>
				<circle id="SVGID_81_" cx="-127.5" cy="348.5" r="124.4"/>
			</defs>
			<clipPath id="SVGID_82_">
				<use xlink:href="#SVGID_81_"  style="overflow:visible;"/>
			</clipPath>
			<path style="clip-path:url(#SVGID_82_);fill:#E5E5E5;" d="M-175,443.3h-3.2c-0.4,0-0.7,0.3-0.7,0.7v11.1c0,0.4,0.3,0.7,0.7,0.7
				h3.2c0.4,0,0.7-0.3,0.7-0.7V444C-174.3,443.6-174.6,443.3-175,443.3"/>
		</g>
		<g>
			<defs>
				<circle id="SVGID_83_" cx="-127.5" cy="348.5" r="124.4"/>
			</defs>
			<clipPath id="SVGID_84_">
				<use xlink:href="#SVGID_83_"  style="overflow:visible;"/>
			</clipPath>
			<path style="clip-path:url(#SVGID_84_);fill:#E5E5E5;" d="M-168.6,443.3h-3.2c-0.4,0-0.7,0.3-0.7,0.7v11.1c0,0.4,0.3,0.7,0.7,0.7
				h3.2c0.4,0,0.7-0.3,0.7-0.7V444C-167.9,443.6-168.2,443.3-168.6,443.3"/>
		</g>
		<g>
			<defs>
				<circle id="SVGID_85_" cx="-127.5" cy="348.5" r="124.4"/>
			</defs>
			<clipPath id="SVGID_86_">
				<use xlink:href="#SVGID_85_"  style="overflow:visible;"/>
			</clipPath>
			<path style="clip-path:url(#SVGID_86_);fill:#E5E5E5;" d="M-189.8,443.3h-5.6c-0.4,0-0.7,0.3-0.7,0.7v11.1c0,0.4,0.3,0.7,0.7,0.7
				h5.6c0.4,0,0.7-0.3,0.7-0.7V444C-189.2,443.6-189.5,443.3-189.8,443.3"/>
		</g>
		<g>
			<defs>
				<circle id="SVGID_87_" cx="-127.5" cy="348.5" r="124.4"/>
			</defs>
			<clipPath id="SVGID_88_">
				<use xlink:href="#SVGID_87_"  style="overflow:visible;"/>
			</clipPath>
			<path style="clip-path:url(#SVGID_88_);fill:#E5E5E5;" d="M-181.2,443.3h-5.6c-0.4,0-0.7,0.3-0.7,0.7v11.1c0,0.4,0.3,0.7,0.7,0.7
				h5.6c0.4,0,0.7-0.3,0.7-0.7V444C-180.5,443.6-180.8,443.3-181.2,443.3"/>
		</g>
		<g>
			<defs>
				<circle id="SVGID_89_" cx="-127.5" cy="348.5" r="124.4"/>
			</defs>
			<clipPath id="SVGID_90_">
				<use xlink:href="#SVGID_89_"  style="overflow:visible;"/>
			</clipPath>
			<path style="clip-path:url(#SVGID_90_);fill:#E5E5E5;" d="M-160.4,443.3h-5.6c-0.4,0-0.7,0.3-0.7,0.7v11.1c0,0.4,0.3,0.7,0.7,0.7
				h5.6c0.4,0,0.7-0.3,0.7-0.7V444C-159.7,443.6-160,443.3-160.4,443.3"/>
		</g>
		<g>
			<defs>
				<circle id="SVGID_91_" cx="-127.5" cy="348.5" r="124.4"/>
			</defs>
			<clipPath id="SVGID_92_">
				<use xlink:href="#SVGID_91_"  style="overflow:visible;"/>
			</clipPath>
			<path style="clip-path:url(#SVGID_92_);fill:#E5E5E5;" d="M-151.6,443.3h-5.6c-0.4,0-0.7,0.3-0.7,0.7v11.1c0,0.4,0.3,0.7,0.7,0.7
				h5.6c0.4,0,0.7-0.3,0.7-0.7V444C-150.9,443.6-151.2,443.3-151.6,443.3"/>
		</g>
		<g>
			<defs>
				<circle id="SVGID_93_" cx="-127.5" cy="348.5" r="124.4"/>
			</defs>
			<clipPath id="SVGID_94_">
				<use xlink:href="#SVGID_93_"  style="overflow:visible;"/>
			</clipPath>
			<polyline style="clip-path:url(#SVGID_94_);fill:#FCFCFC;" points="-322,264.2 -143.3,264.2 -143.3,268.3 -322,268.3 			"/>
		</g>
		<g>
			<defs>
				<circle id="SVGID_95_" cx="-127.5" cy="348.5" r="124.4"/>
			</defs>
			<clipPath id="SVGID_96_">
				<use xlink:href="#SVGID_95_"  style="overflow:visible;"/>
			</clipPath>
			<polyline style="clip-path:url(#SVGID_96_);fill:#FCFCFC;" points="-110.4,264.2 20.3,264.2 20.3,268.3 -110.4,268.3 			"/>
		</g>
		<g>
			<defs>
				<circle id="SVGID_97_" cx="-127.5" cy="348.5" r="124.4"/>
			</defs>
			<clipPath id="SVGID_98_">
				<use xlink:href="#SVGID_97_"  style="overflow:visible;"/>
			</clipPath>
			<polyline style="clip-path:url(#SVGID_98_);fill:#FCFCFC;" points="-110.4,235.4 39.8,235.4 39.8,239.5 -110.4,239.5 			"/>
		</g>
		<g>
			<defs>
				<circle id="SVGID_99_" cx="-127.5" cy="348.5" r="124.4"/>
			</defs>
			<clipPath id="SVGID_100_">
				<use xlink:href="#SVGID_99_"  style="overflow:visible;"/>
			</clipPath>
			<polyline style="clip-path:url(#SVGID_100_);fill:#FCFCFC;" points="-295.2,235.4 -143.3,235.4 -143.3,239.5 -295.2,239.5 			"/>
		</g>
		<g>
			<defs>
				<circle id="SVGID_101_" cx="-127.5" cy="348.5" r="124.4"/>
			</defs>
			<clipPath id="SVGID_102_">
				<use xlink:href="#SVGID_101_"  style="overflow:visible;"/>
			</clipPath>
			<path style="clip-path:url(#SVGID_102_);fill:#E5E5E5;" d="M-81.6,246.1h-3.2c-0.4,0-0.7,0.3-0.7,0.7v11.1c0,0.4,0.3,0.7,0.7,0.7
				h3.2c0.4,0,0.7-0.3,0.7-0.7v-11.1C-80.9,246.4-81.2,246.1-81.6,246.1"/>
		</g>
		<g>
			<defs>
				<circle id="SVGID_103_" cx="-127.5" cy="348.5" r="124.4"/>
			</defs>
			<clipPath id="SVGID_104_">
				<use xlink:href="#SVGID_103_"  style="overflow:visible;"/>
			</clipPath>
			<path style="clip-path:url(#SVGID_104_);fill:#E5E5E5;" d="M-75.2,246.1h-3.2c-0.4,0-0.7,0.3-0.7,0.7v11.1c0,0.4,0.3,0.7,0.7,0.7
				h3.2c0.4,0,0.7-0.3,0.7-0.7v-11.1C-74.5,246.4-74.8,246.1-75.2,246.1"/>
		</g>
		<g>
			<defs>
				<circle id="SVGID_105_" cx="-127.5" cy="348.5" r="124.4"/>
			</defs>
			<clipPath id="SVGID_106_">
				<use xlink:href="#SVGID_105_"  style="overflow:visible;"/>
			</clipPath>
			<path style="clip-path:url(#SVGID_106_);fill:#E5E5E5;" d="M-96.4,246.1h-5.6c-0.4,0-0.7,0.3-0.7,0.7v11.1c0,0.4,0.3,0.7,0.7,0.7
				h5.6c0.4,0,0.7-0.3,0.7-0.7v-11.1C-95.7,246.4-96.1,246.1-96.4,246.1"/>
		</g>
		<g>
			<defs>
				<circle id="SVGID_107_" cx="-127.5" cy="348.5" r="124.4"/>
			</defs>
			<clipPath id="SVGID_108_">
				<use xlink:href="#SVGID_107_"  style="overflow:visible;"/>
			</clipPath>
			<path style="clip-path:url(#SVGID_108_);fill:#E5E5E5;" d="M-87.7,246.1h-5.6c-0.4,0-0.7,0.3-0.7,0.7v11.1c0,0.4,0.3,0.7,0.7,0.7
				h5.6c0.4,0,0.7-0.3,0.7-0.7v-11.1C-87.1,246.4-87.4,246.1-87.7,246.1"/>
		</g>
		<g>
			<defs>
				<circle id="SVGID_109_" cx="-127.5" cy="348.5" r="124.4"/>
			</defs>
			<clipPath id="SVGID_110_">
				<use xlink:href="#SVGID_109_"  style="overflow:visible;"/>
			</clipPath>
			<path style="clip-path:url(#SVGID_110_);fill:#E5E5E5;" d="M-67,246.1h-5.6c-0.4,0-0.7,0.3-0.7,0.7v11.1c0,0.4,0.3,0.7,0.7,0.7
				h5.6c0.4,0,0.7-0.3,0.7-0.7v-11.1C-66.3,246.4-66.6,246.1-67,246.1"/>
		</g>
		<g>
			<defs>
				<circle id="SVGID_111_" cx="-127.5" cy="348.5" r="124.4"/>
			</defs>
			<clipPath id="SVGID_112_">
				<use xlink:href="#SVGID_111_"  style="overflow:visible;"/>
			</clipPath>
			<path style="clip-path:url(#SVGID_112_);fill:#E5E5E5;" d="M-58.2,246.1h-5.6c-0.4,0-0.7,0.3-0.7,0.7v11.1c0,0.4,0.3,0.7,0.7,0.7
				h5.6c0.4,0,0.7-0.3,0.7-0.7v-11.1C-57.5,246.4-57.8,246.1-58.2,246.1"/>
		</g>
		<g>
			<defs>
				<circle id="SVGID_113_" cx="-127.5" cy="348.5" r="124.4"/>
			</defs>
			<clipPath id="SVGID_114_">
				<use xlink:href="#SVGID_113_"  style="overflow:visible;"/>
			</clipPath>
			<path style="clip-path:url(#SVGID_114_);fill:#E5E5E5;" d="M-34.2,246.1h-3.2c-0.4,0-0.7,0.3-0.7,0.7v11.1c0,0.4,0.3,0.7,0.7,0.7
				h3.2c0.4,0,0.7-0.3,0.7-0.7v-11.1C-33.5,246.4-33.9,246.1-34.2,246.1"/>
		</g>
		<g>
			<defs>
				<circle id="SVGID_115_" cx="-127.5" cy="348.5" r="124.4"/>
			</defs>
			<clipPath id="SVGID_116_">
				<use xlink:href="#SVGID_115_"  style="overflow:visible;"/>
			</clipPath>
			<path style="clip-path:url(#SVGID_116_);fill:#E5E5E5;" d="M-27.8,246.1H-31c-0.4,0-0.7,0.3-0.7,0.7v11.1c0,0.4,0.3,0.7,0.7,0.7
				h3.2c0.4,0,0.7-0.3,0.7-0.7v-11.1C-27.1,246.4-27.5,246.1-27.8,246.1"/>
		</g>
		<g>
			<defs>
				<circle id="SVGID_117_" cx="-127.5" cy="348.5" r="124.4"/>
			</defs>
			<clipPath id="SVGID_118_">
				<use xlink:href="#SVGID_117_"  style="overflow:visible;"/>
			</clipPath>
			<path style="clip-path:url(#SVGID_118_);fill:#E5E5E5;" d="M-49,246.1h-5.6c-0.4,0-0.7,0.3-0.7,0.7v11.1c0,0.4,0.3,0.7,0.7,0.7
				h5.6c0.4,0,0.7-0.3,0.7-0.7v-11.1C-48.4,246.4-48.7,246.1-49,246.1"/>
		</g>
		<g>
			<defs>
				<circle id="SVGID_119_" cx="-127.5" cy="348.5" r="124.4"/>
			</defs>
			<clipPath id="SVGID_120_">
				<use xlink:href="#SVGID_119_"  style="overflow:visible;"/>
			</clipPath>
			<path style="clip-path:url(#SVGID_120_);fill:#E5E5E5;" d="M-40.4,246.1H-46c-0.4,0-0.7,0.3-0.7,0.7v11.1c0,0.4,0.3,0.7,0.7,0.7
				h5.6c0.4,0,0.7-0.3,0.7-0.7v-11.1C-39.7,246.4-40,246.1-40.4,246.1"/>
		</g>
		<g>
			<defs>
				<circle id="SVGID_121_" cx="-127.5" cy="348.5" r="124.4"/>
			</defs>
			<clipPath id="SVGID_122_">
				<use xlink:href="#SVGID_121_"  style="overflow:visible;"/>
			</clipPath>
			<path style="clip-path:url(#SVGID_122_);fill:#E5E5E5;" d="M-19.6,246.1h-5.6c-0.4,0-0.7,0.3-0.7,0.7v11.1c0,0.4,0.3,0.7,0.7,0.7
				h5.6c0.4,0,0.7-0.3,0.7-0.7v-11.1C-18.9,246.4-19.2,246.1-19.6,246.1"/>
		</g>
		<g>
			<defs>
				<circle id="SVGID_123_" cx="-127.5" cy="348.5" r="124.4"/>
			</defs>
			<clipPath id="SVGID_124_">
				<use xlink:href="#SVGID_123_"  style="overflow:visible;"/>
			</clipPath>
			<path style="clip-path:url(#SVGID_124_);fill:#E5E5E5;" d="M-10.8,246.1h-5.6c-0.4,0-0.7,0.3-0.7,0.7v11.1c0,0.4,0.3,0.7,0.7,0.7
				h5.6c0.4,0,0.7-0.3,0.7-0.7v-11.1C-10.1,246.4-10.4,246.1-10.8,246.1"/>
		</g>
		<g>
			<defs>
				<circle id="SVGID_125_" cx="-127.5" cy="348.5" r="124.4"/>
			</defs>
			<clipPath id="SVGID_126_">
				<use xlink:href="#SVGID_125_"  style="overflow:visible;"/>
			</clipPath>
			<path style="clip-path:url(#SVGID_126_);fill:#E5E5E5;" d="M-222.4,246.1h-3.2c-0.4,0-0.7,0.3-0.7,0.7v11.1
				c0,0.4,0.3,0.7,0.7,0.7h3.2c0.4,0,0.7-0.3,0.7-0.7v-11.1C-221.7,246.4-222,246.1-222.4,246.1"/>
		</g>
		<g>
			<defs>
				<circle id="SVGID_127_" cx="-127.5" cy="348.5" r="124.4"/>
			</defs>
			<clipPath id="SVGID_128_">
				<use xlink:href="#SVGID_127_"  style="overflow:visible;"/>
			</clipPath>
			<path style="clip-path:url(#SVGID_128_);fill:#E5E5E5;" d="M-216,246.1h-3.2c-0.4,0-0.7,0.3-0.7,0.7v11.1c0,0.4,0.3,0.7,0.7,0.7
				h3.2c0.4,0,0.7-0.3,0.7-0.7v-11.1C-215.3,246.4-215.6,246.1-216,246.1"/>
		</g>
		<g>
			<defs>
				<circle id="SVGID_129_" cx="-127.5" cy="348.5" r="124.4"/>
			</defs>
			<clipPath id="SVGID_130_">
				<use xlink:href="#SVGID_129_"  style="overflow:visible;"/>
			</clipPath>
			<path style="clip-path:url(#SVGID_130_);fill:#E5E5E5;" d="M-237.2,246.1h-5.6c-0.4,0-0.7,0.3-0.7,0.7v11.1
				c0,0.4,0.3,0.7,0.7,0.7h5.6c0.4,0,0.7-0.3,0.7-0.7v-11.1C-236.5,246.4-236.8,246.1-237.2,246.1"/>
		</g>
		<g>
			<defs>
				<circle id="SVGID_131_" cx="-127.5" cy="348.5" r="124.4"/>
			</defs>
			<clipPath id="SVGID_132_">
				<use xlink:href="#SVGID_131_"  style="overflow:visible;"/>
			</clipPath>
			<path style="clip-path:url(#SVGID_132_);fill:#E5E5E5;" d="M-228.5,246.1h-5.6c-0.4,0-0.7,0.3-0.7,0.7v11.1
				c0,0.4,0.3,0.7,0.7,0.7h5.6c0.4,0,0.7-0.3,0.7-0.7v-11.1C-227.9,246.4-228.2,246.1-228.5,246.1"/>
		</g>
		<g>
			<defs>
				<circle id="SVGID_133_" cx="-127.5" cy="348.5" r="124.4"/>
			</defs>
			<clipPath id="SVGID_134_">
				<use xlink:href="#SVGID_133_"  style="overflow:visible;"/>
			</clipPath>
			<path style="clip-path:url(#SVGID_134_);fill:#E5E5E5;" d="M-207.7,246.1h-5.6c-0.4,0-0.7,0.3-0.7,0.7v11.1
				c0,0.4,0.3,0.7,0.7,0.7h5.6c0.4,0,0.7-0.3,0.7-0.7v-11.1C-207.1,246.4-207.4,246.1-207.7,246.1"/>
		</g>
		<g>
			<defs>
				<circle id="SVGID_135_" cx="-127.5" cy="348.5" r="124.4"/>
			</defs>
			<clipPath id="SVGID_136_">
				<use xlink:href="#SVGID_135_"  style="overflow:visible;"/>
			</clipPath>
			<path style="clip-path:url(#SVGID_136_);fill:#E5E5E5;" d="M-199,246.1h-5.6c-0.4,0-0.7,0.3-0.7,0.7v11.1c0,0.4,0.3,0.7,0.7,0.7
				h5.6c0.4,0,0.7-0.3,0.7-0.7v-11.1C-198.3,246.4-198.6,246.1-199,246.1"/>
		</g>
		<g>
			<defs>
				<circle id="SVGID_137_" cx="-127.5" cy="348.5" r="124.4"/>
			</defs>
			<clipPath id="SVGID_138_">
				<use xlink:href="#SVGID_137_"  style="overflow:visible;"/>
			</clipPath>
			<path style="clip-path:url(#SVGID_138_);fill:#E5E5E5;" d="M-175,246.1h-3.2c-0.4,0-0.7,0.3-0.7,0.7v11.1c0,0.4,0.3,0.7,0.7,0.7
				h3.2c0.4,0,0.7-0.3,0.7-0.7v-11.1C-174.3,246.4-174.6,246.1-175,246.1"/>
		</g>
		<g>
			<defs>
				<circle id="SVGID_139_" cx="-127.5" cy="348.5" r="124.4"/>
			</defs>
			<clipPath id="SVGID_140_">
				<use xlink:href="#SVGID_139_"  style="overflow:visible;"/>
			</clipPath>
			<path style="clip-path:url(#SVGID_140_);fill:#E5E5E5;" d="M-168.6,246.1h-3.2c-0.4,0-0.7,0.3-0.7,0.7v11.1
				c0,0.4,0.3,0.7,0.7,0.7h3.2c0.4,0,0.7-0.3,0.7-0.7v-11.1C-167.9,246.4-168.2,246.1-168.6,246.1"/>
		</g>
		<g>
			<defs>
				<circle id="SVGID_141_" cx="-127.5" cy="348.5" r="124.4"/>
			</defs>
			<clipPath id="SVGID_142_">
				<use xlink:href="#SVGID_141_"  style="overflow:visible;"/>
			</clipPath>
			<path style="clip-path:url(#SVGID_142_);fill:#E5E5E5;" d="M-189.8,246.1h-5.6c-0.4,0-0.7,0.3-0.7,0.7v11.1
				c0,0.4,0.3,0.7,0.7,0.7h5.6c0.4,0,0.7-0.3,0.7-0.7v-11.1C-189.2,246.4-189.5,246.1-189.8,246.1"/>
		</g>
		<g>
			<defs>
				<circle id="SVGID_143_" cx="-127.5" cy="348.5" r="124.4"/>
			</defs>
			<clipPath id="SVGID_144_">
				<use xlink:href="#SVGID_143_"  style="overflow:visible;"/>
			</clipPath>
			<path style="clip-path:url(#SVGID_144_);fill:#E5E5E5;" d="M-181.2,246.1h-5.6c-0.4,0-0.7,0.3-0.7,0.7v11.1
				c0,0.4,0.3,0.7,0.7,0.7h5.6c0.4,0,0.7-0.3,0.7-0.7v-11.1C-180.5,246.4-180.8,246.1-181.2,246.1"/>
		</g>
		<g>
			<defs>
				<circle id="SVGID_145_" cx="-127.5" cy="348.5" r="124.4"/>
			</defs>
			<clipPath id="SVGID_146_">
				<use xlink:href="#SVGID_145_"  style="overflow:visible;"/>
			</clipPath>
			<path style="clip-path:url(#SVGID_146_);fill:#E5E5E5;" d="M-160.4,246.1h-5.6c-0.4,0-0.7,0.3-0.7,0.7v11.1
				c0,0.4,0.3,0.7,0.7,0.7h5.6c0.4,0,0.7-0.3,0.7-0.7v-11.1C-159.7,246.4-160,246.1-160.4,246.1"/>
		</g>
		<g>
			<defs>
				<circle id="SVGID_147_" cx="-127.5" cy="348.5" r="124.4"/>
			</defs>
			<clipPath id="SVGID_148_">
				<use xlink:href="#SVGID_147_"  style="overflow:visible;"/>
			</clipPath>
			<path style="clip-path:url(#SVGID_148_);fill:#E5E5E5;" d="M-151.6,246.1h-5.6c-0.4,0-0.7,0.3-0.7,0.7v11.1
				c0,0.4,0.3,0.7,0.7,0.7h5.6c0.4,0,0.7-0.3,0.7-0.7v-11.1C-150.9,246.4-151.2,246.1-151.6,246.1"/>
		</g>
		<g>
			<defs>
				<circle id="SVGID_149_" cx="-127.5" cy="348.5" r="124.4"/>
			</defs>
			<clipPath id="SVGID_150_">
				<use xlink:href="#SVGID_149_"  style="overflow:visible;"/>
			</clipPath>
			<rect x="-149.9" y="326.3" style="clip-path:url(#SVGID_150_);fill:#FCFCFC;" width="45.6" height="45.6"/>
		</g>
		<g>
			<defs>
				<circle id="SVGID_151_" cx="-127.5" cy="348.5" r="124.4"/>
			</defs>
			<clipPath id="SVGID_152_">
				<use xlink:href="#SVGID_151_"  style="overflow:visible;"/>
			</clipPath>
			<ellipse style="clip-path:url(#SVGID_152_);fill:#F2F2F2;" cx="-126.9" cy="349.7" rx="12.8" ry="13.1"/>
		</g>
		<g>
			<defs>
				<circle id="SVGID_153_" cx="-127.5" cy="348.5" r="124.4"/>
			</defs>
			<clipPath id="SVGID_154_">
				<use xlink:href="#SVGID_153_"  style="overflow:visible;"/>
			</clipPath>
			<path style="clip-path:url(#SVGID_154_);fill:#FFB8C7;" d="M-46.2,408.8c0.2,0.1,0.4,0.3,0.6,0.4c0.4,0.3,1,0.2,1.3-0.2
				c0.3-0.4,0.2-1-0.2-1.3c-0.2-0.1-0.4-0.3-0.6-0.4c-0.4-0.3-1-0.2-1.3,0.2C-46.7,407.9-46.6,408.5-46.2,408.8z M-51.5,402.9
				c0.4,0.8,1,1.6,1.6,2.4c0.3,0.4,0.9,0.5,1.3,0.2c0.4-0.3,0.5-0.9,0.2-1.3c-0.6-0.7-1-1.4-1.4-2.1c-0.3-0.5-0.8-0.6-1.3-0.4
				C-51.5,401.9-51.7,402.4-51.5,402.9L-51.5,402.9z M-54.1,395.7c0.3,0.8,0.6,1.7,0.8,2.6c0.2,0.5,0.7,0.8,1.2,0.6
				c0.5-0.2,0.8-0.7,0.6-1.2c-0.3-0.9-0.5-1.7-0.9-2.6c-0.2-0.5-0.7-0.8-1.2-0.6S-54.3,395.2-54.1,395.7L-54.1,395.7z M-57.7,389.6
				c0.6,0.7,1.2,1.3,1.6,2c0.3,0.4,0.9,0.6,1.3,0.3s0.6-0.9,0.3-1.3c-0.5-0.8-1.1-1.5-1.8-2.3c-0.4-0.4-1-0.4-1.4,0
				C-58.1,388.6-58.1,389.2-57.7,389.6L-57.7,389.6z M-63.6,385.5c0.7,0.3,1.5,0.7,2.3,1.3c0.4,0.3,1,0.2,1.3-0.3
				c0.3-0.4,0.2-1-0.3-1.3c-0.9-0.6-1.7-1-2.5-1.4c-0.5-0.2-1.1,0-1.3,0.5C-64.3,384.7-64,385.3-63.6,385.5L-63.6,385.5z
				 M-70.5,384.1h0.3c0.8,0,1.6,0,2.4,0.1c0.5,0.1,1-0.3,1.1-0.8s-0.3-1-0.8-1.1c-0.9-0.1-1.8-0.1-2.6-0.1c-0.1,0-0.2,0-0.3,0
				c-0.5,0-1,0.4-1,1C-71.5,383.7-71,384.1-70.5,384.1z M-78.2,384.2c0.8,0.1,1.6,0.1,2.3,0.1c0.2,0,0.4,0,0.5,0c0.5,0,1-0.4,0.9-1
				c0-0.5-0.4-1-1-0.9c-0.2,0-0.3,0-0.5,0c-0.7,0-1.4,0-2.1-0.1c-0.5-0.1-1,0.3-1.1,0.9S-78.7,384.2-78.2,384.2L-78.2,384.2z
				 M-85.6,381.6c0.9,0.5,1.7,1,2.5,1.4c0.5,0.2,1.1,0,1.3-0.5s0-1.1-0.5-1.3c-0.7-0.3-1.5-0.7-2.3-1.2c-0.5-0.3-1-0.1-1.3,0.3
				C-86.2,380.7-86.1,381.3-85.6,381.6L-85.6,381.6z M-91.4,376.2c0.5,0.8,1.1,1.5,1.9,2.2c0.4,0.4,1,0.4,1.4,0s0.4-1,0-1.4
				c-0.6-0.7-1.2-1.3-1.6-2c-0.3-0.4-0.9-0.5-1.3-0.2C-91.6,375.2-91.7,375.8-91.4,376.2L-91.4,376.2z M-94.5,369.1
				c0.3,0.9,0.6,1.7,0.9,2.6c0.2,0.5,0.7,0.8,1.2,0.6c0.5-0.2,0.8-0.7,0.6-1.2c-0.3-0.8-0.6-1.7-0.9-2.6c-0.2-0.5-0.7-0.8-1.2-0.6
				C-94.4,368-94.7,368.6-94.5,369.1L-94.5,369.1z M-97.6,362.6c0.5,0.7,1,1.4,1.4,2.2c0.2,0.5,0.8,0.7,1.3,0.4
				c0.5-0.2,0.7-0.8,0.4-1.3c-0.4-0.8-0.9-1.6-1.6-2.5c-0.3-0.4-0.9-0.5-1.3-0.2C-97.8,361.6-97.9,362.2-97.6,362.6L-97.6,362.6z
				 M-103,358c0.5,0.3,0.9,0.6,1.4,0.9c0.3,0.2,0.5,0.4,0.7,0.5c0.4,0.3,1,0.2,1.3-0.2c0.3-0.4,0.2-1-0.2-1.3
				c-0.3-0.2-0.5-0.4-0.8-0.6c-0.5-0.4-1.1-0.7-1.6-1s-1-0.1-1.3,0.4C-103.6,357.1-103.4,357.7-103,358L-103,358z M-109.7,355.9
				c0.8,0.1,1.7,0.2,2.6,0.4c0.5,0.1,1-0.2,1.2-0.7c0.1-0.5-0.2-1-0.7-1.2c-1-0.2-1.9-0.4-2.9-0.4c-0.5,0-1,0.4-1,0.9
				C-110.6,355.4-110.2,355.9-109.7,355.9L-109.7,355.9z M-117.2,356c0.2,0,0.3,0,0.5,0c0.8,0,1.6,0,2.4-0.1c0.5,0,0.9-0.5,0.9-1
				s-0.5-0.9-1-0.9c-0.8,0-1.5,0.1-2.3,0.1c-0.1,0-0.3,0-0.4,0c-0.5,0-1,0.4-1,0.9C-118.2,355.6-117.7,356-117.2,356z M-124.9,354.2
				c0.9,0.5,1.8,0.8,2.7,1.1c0.5,0.2,1-0.1,1.2-0.6s-0.1-1-0.6-1.2c-0.8-0.2-1.6-0.6-2.4-1c-0.5-0.2-1.1,0-1.3,0.4
				C-125.6,353.4-125.4,354-124.9,354.2L-124.9,354.2z M-131.2,349.4c0.6,0.7,1.3,1.3,2.1,2c0.4,0.3,1,0.3,1.4-0.1
				c0.3-0.4,0.3-1-0.1-1.4c-0.7-0.6-1.3-1.2-1.9-1.8c-0.4-0.4-1-0.4-1.4-0.1C-131.5,348.4-131.5,349-131.2,349.4L-131.2,349.4z
				 M-134.9,342.5c0.3,0.9,0.6,1.8,1,2.7c0.2,0.5,0.8,0.7,1.3,0.5s0.7-0.8,0.5-1.3c-0.4-0.8-0.7-1.6-0.9-2.5
				c-0.2-0.5-0.7-0.8-1.2-0.6C-134.8,341.5-135.1,342-134.9,342.5L-134.9,342.5z M-137.6,335.7c0.5,0.8,0.8,1.5,1.1,2.3
				c0.2,0.5,0.8,0.7,1.3,0.5s0.7-0.8,0.5-1.3c-0.3-0.9-0.8-1.7-1.3-2.6c-0.3-0.5-0.9-0.6-1.3-0.3
				C-137.7,334.6-137.8,335.2-137.6,335.7L-137.6,335.7z M-142.5,330.6c0.8,0.5,1.5,1.1,2.1,1.6c0.4,0.4,1,0.3,1.4-0.1
				s0.3-1-0.1-1.4c-0.7-0.6-1.4-1.2-2.2-1.8c-0.4-0.3-1-0.2-1.3,0.2C-143,329.7-142.9,330.3-142.5,330.6L-142.5,330.6z"/>
		</g>
	</g>
	<path style="fill:#4B5E7F;" d="M-286.1,255.5h317c0.8,0,1.5-0.7,1.5-1.5s-0.7-1.5-1.5-1.5h-317c-0.8,0-1.5,0.7-1.5,1.5
		S-286.9,255.5-286.1,255.5"/>
	<circle style="fill:#4B5E7F;" cx="-272.2" cy="246.4" r="2.9"/>
	<circle style="fill:#4B5E7F;" cx="-264.2" cy="246.4" r="2.9"/>
	<circle style="fill:#4B5E7F;" cx="-256.2" cy="246.4" r="2.9"/>
	<path style="fill:#4B5E7F;" d="M20.6,444.5v-1.4h-296.3c-2.6,0-4.9-1-6.6-2.7s-2.7-4-2.7-6.6V249.3c0-2.6,1-4.9,2.7-6.6
		c1.7-1.7,4-2.7,6.6-2.7H20.6c2.6,0,4.9,1,6.6,2.7s2.7,4,2.7,6.6v184.5c0,2.6-1,4.9-2.7,6.6s-4,2.7-6.6,2.7V444.5v1.4
		c6.7,0,12.2-5.5,12.2-12.2V249.3c0-6.7-5.5-12.2-12.2-12.2h-296.3c-6.7,0-12.2,5.5-12.2,12.2v184.5c0,6.7,5.5,12.2,12.2,12.2H20.6
		V444.5z"/>
	<path style="fill:#4B5E7F;" d="M-154.7,349.9c0-15.6,12.7-28.3,28.3-28.3s28.3,12.7,28.3,28.3c0,15.6-12.7,28.3-28.3,28.3
		S-154.7,365.5-154.7,349.9z M-108.1,349.9c0-10.1-8.2-18.3-18.3-18.3s-18.3,8.2-18.3,18.3c0,10.1,8.2,18.3,18.3,18.3
		C-116.3,368.1-108.1,359.9-108.1,349.9z"/>
	<path style="fill:#4B5E7F;" d="M-177.5,393.3c0-1.4,0.5-2.8,1.5-3.8l26.6-27.6c2.1-2.2,5.6-2.3,7.8-0.1c2.2,2.1,2.2,5.6,0.1,7.8
		l-26.6,27.6c-2.1,2.2-5.6,2.3-7.8,0.1C-176.9,396.2-177.5,394.8-177.5,393.3z"/>
	<circle style="fill:#9ACFE2;" cx="-90.9" cy="329.8" r="17.8"/>
	<circle style="fill:#A1ABD0;" cx="-60.7" cy="330.8" r="17.8"/>
	<path style="fill:#FFFFFF;" d="M-67.4,325.6l11,11c0.6,0.6,1.5,0.6,2.1,0s0.6-1.5,0-2.1l-11-11c-0.6-0.6-1.5-0.6-2.1,0
		C-67.9,324.1-67.9,325-67.4,325.6"/>
	<path style="fill:#FFFFFF;" d="M-56,323.4l-11.4,11.4c-0.6,0.6-0.6,1.5,0,2.1s1.5,0.6,2.1,0l11.4-11.4c0.6-0.6,0.6-1.5,0-2.1
		S-55.5,322.8-56,323.4"/>
	<path style="fill:#FFFFFF;" d="M-99.2,331.8l4.9,4.9c0.3,0.3,0.7,0.4,1.1,0.4s0.8-0.2,1.1-0.4l10.3-10.3c0.6-0.6,0.6-1.5,0-2.1
		s-1.5-0.6-2.1,0l-9.2,9.2l-3.8-3.8c-0.6-0.6-1.5-0.6-2.1,0C-99.7,330.3-99.7,331.2-99.2,331.8L-99.2,331.8z"/>
</g>
</svg>
