<svg viewBox="-333 185.3 405 312"><defs><circle id="a" cx="-127.5" cy="348.5" r="124.4"/></defs><clipPath id="b"><use xlink:href="#a" overflow="visible"/></clipPath><path clip-path="url(#b)" fill="#F2F2F2" d="M9.6 537.6h-276V199.3h276v338.3"/><defs><circle id="c" cx="-127.5" cy="348.5" r="124.4"/></defs><clipPath id="d"><use xlink:href="#c" overflow="visible"/></clipPath><path clip-path="url(#d)" fill="#FCFCFC" d="M-107.5 367h98.7v-4.1h-98.7"/><defs><circle id="e" cx="-127.5" cy="348.5" r="124.4"/></defs><clipPath id="f"><use xlink:href="#e" overflow="visible"/></clipPath><path clip-path="url(#f)" fill="#FCFCFC" d="M-107.5 335.4h98.7v-4.1h-98.7"/><defs><circle id="g" cx="-127.5" cy="348.5" r="124.4"/></defs><clipPath id="h"><use xlink:href="#g" overflow="visible"/></clipPath><path clip-path="url(#h)" fill="#FCFCFC" d="M-246.6 362.9h98.8v4.1h-98.8"/><defs><circle id="i" cx="-127.5" cy="348.5" r="124.4"/></defs><clipPath id="j"><use xlink:href="#i" overflow="visible"/></clipPath><path clip-path="url(#j)" fill="#FCFCFC" d="M-242 461.4h98.7v4.1H-242"/><defs><circle id="k" cx="-127.5" cy="348.5" r="124.4"/></defs><clipPath id="l"><use xlink:href="#k" overflow="visible"/></clipPath><path clip-path="url(#l)" fill="#FCFCFC" d="M-110.4 461.4h98.8v4.1h-98.8"/><defs><circle id="m" cx="-127.5" cy="348.5" r="124.4"/></defs><clipPath id="n"><use xlink:href="#m" overflow="visible"/></clipPath><path clip-path="url(#n)" fill="#FCFCFC" d="M-110.4 432.6H39.8v4.1h-150.2"/><defs><circle id="o" cx="-127.5" cy="348.5" r="124.4"/></defs><clipPath id="p"><use xlink:href="#o" overflow="visible"/></clipPath><path clip-path="url(#p)" fill="#FCFCFC" d="M-295.2 432.6h151.9v4.1h-151.9"/><defs><circle id="q" cx="-127.5" cy="348.5" r="124.4"/></defs><clipPath id="r"><use xlink:href="#q" overflow="visible"/></clipPath><path clip-path="url(#r)" fill="#FCFCFC" d="M-246.6 335.4h98.8v-4.1h-98.8"/><defs><circle id="s" cx="-127.5" cy="348.5" r="124.4"/></defs><clipPath id="t"><use xlink:href="#s" overflow="visible"/></clipPath><path clip-path="url(#t)" fill="#FCFCFC" d="M-108.5 331.6V213.8h-4.1v117.8"/><defs><circle id="u" cx="-127.5" cy="348.5" r="124.4"/></defs><clipPath id="v"><use xlink:href="#u" overflow="visible"/></clipPath><path clip-path="url(#v)" fill="#FCFCFC" d="M-140.1 331.6V213.8h-4.1v117.8"/><defs><circle id="w" cx="-127.5" cy="348.5" r="124.4"/></defs><clipPath id="x"><use xlink:href="#w" overflow="visible"/></clipPath><path clip-path="url(#x)" fill="#FCFCFC" d="M-108.5 493V367.8h-4.1V493"/><defs><circle id="y" cx="-127.5" cy="348.5" r="124.4"/></defs><clipPath id="z"><use xlink:href="#y" overflow="visible"/></clipPath><path clip-path="url(#z)" fill="#FCFCFC" d="M-140.1 493V367.8h-4.1V493"/><defs><circle id="A" cx="-127.5" cy="348.5" r="124.4"/></defs><clipPath id="B"><use xlink:href="#A" overflow="visible"/></clipPath><path d="M-242.4 433.4c.1-.1 2.9-3.8 5.8-9.9 2.9-6.1 5.7-14.6 5.8-24.4 0-9-2.5-19.1-9.7-28.9l-4.6 3.4c6.4 8.8 8.6 17.5 8.6 25.5 0 8.6-2.6 16.4-5.2 22-1.3 2.8-2.6 5-3.6 6.6-.5.8-.9 1.3-1.2 1.7-.1.2-.2.3-.3.4l-.1.1.2.1-.2-.1.2.1-.2-.1 4.5 3.5z" clip-path="url(#B)" fill="#FCFCFC"/><defs><circle id="C" cx="-127.5" cy="348.5" r="124.4"/></defs><clipPath id="D"><use xlink:href="#C" overflow="visible"/></clipPath><path d="M-6.2 431.3l-.2.1.2-.1-.2.1.2-.1c-.1-.1-2.7-3.5-5.3-9.1s-5.1-13.2-5.1-21.7c0-8 2.1-16.7 8.6-25.5l-4.6-3.4c-7.2 9.8-9.7 19.9-9.7 28.9 0 9.8 2.9 18.3 5.8 24.4s5.7 9.8 5.8 9.9l4.5-3.5z" clip-path="url(#D)" fill="#FCFCFC"/><defs><circle id="E" cx="-127.5" cy="348.5" r="124.4"/></defs><clipPath id="F"><use xlink:href="#E" overflow="visible"/></clipPath><path d="M-146 332.2c.4.9.9 1.8 1.6 2.6.3.4 1 .4 1.4.1s.4-1 .1-1.4c-.5-.6-.9-1.3-1.2-2.1-.2-.5-.8-.7-1.2-.5-.6.2-.9.8-.7 1.3zm-1.9-7.3c.3.8.5 1.6.7 2.5.1.5.6.9 1.1.7.5-.1.9-.6.7-1.1-.2-.9-.4-1.9-.7-2.8-.2-.5-.7-.8-1.2-.6s-.8.8-.6 1.3zm-4.6-4.5c.4.1.8.3 1.2.5.3.2.7.4.9.6.4.3 1 .2 1.3-.2.3-.4.2-1-.2-1.3s-.7-.5-1.2-.7c-.5-.3-1-.5-1.5-.7s-1 .1-1.2.6c-.1.5.2 1 .7 1.2zm-6.6.8c.8-.3 1.7-.7 2.5-.9.5-.1.8-.7.7-1.2s-.7-.8-1.2-.7c-.9.3-1.8.6-2.7 1-.5.2-.7.8-.5 1.3.1.5.7.7 1.2.5zm-7.8 1.7c.5.1.9.1 1.4.1.6 0 1.1-.1 1.7-.2.5-.1.9-.6.8-1.1-.1-.5-.6-.9-1.1-.8-.4.1-.9.1-1.3.1-.3 0-.7 0-1.1-.1-.5-.1-1 .3-1.1.8-.2.6.2 1.1.7 1.2zm-6.6-4.8c.4.9 1 1.7 1.8 2.5.4.4 1 .3 1.4 0 .4-.4.3-1 0-1.4-.6-.6-1.1-1.2-1.4-1.9-.2-.5-.8-.7-1.3-.4-.5.1-.7.7-.5 1.2zm-2-7.4c.2.8.4 1.7.6 2.6.1.5.6.9 1.1.8s.9-.6.8-1.1c-.2-.9-.4-1.8-.6-2.8-.2-.5-.7-.8-1.2-.6-.6 0-.8.5-.7 1.1zm-4.2-5l.6.3c.6.3 1 .6 1.4 1s1 .3 1.4-.1.3-1-.1-1.4c-.5-.5-1.1-.9-1.8-1.3-.3-.1-.5-.3-.7-.4-.5-.2-1.1 0-1.3.5-.2.7 0 1.2.5 1.4zm-6.6.4c.8-.3 1.7-.6 2.5-.8.5-.1.9-.6.8-1.1-.1-.5-.6-.9-1.1-.8-1 .2-1.9.5-2.8.9-.5.2-.7.8-.5 1.2.1.6.6.8 1.1.6zm-7.6 2h.5c.9 0 1.7-.1 2.5-.3.5-.1.8-.7.7-1.2s-.7-.8-1.2-.7c-.7.2-1.3.3-2 .3h-.4c-.5 0-1 .4-1 .9 0 .6.4 1 .9 1zm-7-4.1c.5.8 1.2 1.6 2.1 2.3.4.3 1 .2 1.3-.2.3-.4.2-1-.2-1.3-.7-.5-1.2-1.1-1.6-1.8-.3-.5-.9-.6-1.3-.3-.4.2-.6.8-.3 1.3zm-2.2-7.5c.2.8.4 1.7.6 2.6.1.5.6.9 1.1.7.5-.1.9-.6.7-1.1-.2-.9-.3-1.8-.6-2.7-.1-.5-.7-.8-1.2-.7-.4.1-.8.7-.6 1.2zm-3.8-5.3c.8.4 1.4.9 1.9 1.5.4.4 1 .4 1.4.1.4-.4.4-1 .1-1.4-.6-.7-1.4-1.3-2.4-1.9-.5-.2-1.1-.1-1.3.4-.3.4-.2 1 .3 1.3z" clip-path="url(#F)" fill="#FFB8C7"/><defs><circle id="G" cx="-127.5" cy="348.5" r="124.4"/></defs><clipPath id="H"><use xlink:href="#G" overflow="visible"/></clipPath><path d="M-189.6 407.6c-.1 0-1.1-.1-3-.1-4.3 0-12.7.5-23 3.7-10.2 3.2-22.1 9.2-33.1 20.2l4 4c10.3-10.3 21.3-15.8 30.8-18.8s17.4-3.5 21.2-3.5h2.5l.1-.6-.1.6.1-.6-.1.6.6-5.5z" clip-path="url(#H)" fill="#FCFCFC"/><defs><circle id="I" cx="-127.5" cy="348.5" r="124.4"/></defs><clipPath id="J"><use xlink:href="#I" overflow="visible"/></clipPath><path d="M-63 414.7l-.1-.6.1.6-.1-.6.1.6s.9-.1 2.4-.1c3.8 0 11.7.4 21.2 3.5 9.5 3 20.6 8.6 30.8 18.8l4-4c-11-11-22.9-17-33.1-20.2s-18.7-3.7-23-3.7c-1.8 0-2.9.1-3 .1l.7 5.6z" clip-path="url(#J)" fill="#FCFCFC"/><defs><circle id="K" cx="-127.5" cy="348.5" r="124.4"/></defs><clipPath id="L"><use xlink:href="#K" overflow="visible"/></clipPath><path d="M-248.3 270.5l.2-.1-.2.1.2-.1-.2.1c.1.1 2.7 3.5 5.3 9.1s5.1 13.2 5.1 21.7c0 8-2.1 16.7-8.6 25.5l4.6 3.4c7.2-9.8 9.7-19.9 9.7-28.9 0-9.8-2.9-18.3-5.8-24.4-2.9-6.1-5.7-9.8-5.8-9.9l-4.5 3.5z" clip-path="url(#L)" fill="#FCFCFC"/><defs><circle id="M" cx="-127.5" cy="348.5" r="124.4"/></defs><clipPath id="N"><use xlink:href="#M" overflow="visible"/></clipPath><path d="M-12.1 265.6c-.1.1-2.9 3.8-5.8 9.9s-5.7 14.6-5.8 24.4c0 9 2.5 19.1 9.7 28.9l4.6-3.4c-6.4-8.8-8.6-17.5-8.6-25.5 0-8.6 2.6-16.4 5.2-22 1.3-2.8 2.6-5 3.6-6.6.5-.8.9-1.3 1.2-1.7.1-.2.2-.3.3-.4l.1-.1-.2-.1.2.1-.2-.1.2.1-4.5-3.5z" clip-path="url(#N)" fill="#FCFCFC"/><defs><circle id="O" cx="-127.5" cy="348.5" r="124.4"/></defs><clipPath id="P"><use xlink:href="#O" overflow="visible"/></clipPath><path d="M-191.4 287l.1.6-.1-.6.1.6-.1-.6s-.9.1-2.4.1c-3.8 0-11.7-.4-21.2-3.5-9.5-3-20.6-8.6-30.8-18.8l-4 4c11 11 22.9 17 33.1 20.2s18.7 3.7 23 3.7c1.8 0 2.9-.1 3-.1l-.7-5.6z" clip-path="url(#P)" fill="#FCFCFC"/><defs><circle id="Q" cx="-127.5" cy="348.5" r="124.4"/></defs><clipPath id="R"><use xlink:href="#Q" overflow="visible"/></clipPath><path d="M-64.9 291.4c.1 0 1.1.1 3 .1 4.3 0 12.7-.5 23-3.7 10.2-3.2 22.1-9.2 33.1-20.2l-4-4c-10.3 10.3-21.3 15.8-30.8 18.8s-17.4 3.5-21.2 3.5h-2.5v.6l.1-.6v.6l.1-.6-.8 5.5z" clip-path="url(#R)" fill="#FCFCFC"/><defs><circle id="S" cx="-127.5" cy="348.5" r="124.4"/></defs><clipPath id="T"><use xlink:href="#S" overflow="visible"/></clipPath><path d="M-81.6 443.3h-3.2c-.4 0-.7.3-.7.7v11.1c0 .4.3.7.7.7h3.2c.4 0 .7-.3.7-.7V444c0-.4-.3-.7-.7-.7" clip-path="url(#T)" fill="#E5E5E5"/><defs><circle id="U" cx="-127.5" cy="348.5" r="124.4"/></defs><clipPath id="V"><use xlink:href="#U" overflow="visible"/></clipPath><path d="M-75.2 443.3h-3.2c-.4 0-.7.3-.7.7v11.1c0 .4.3.7.7.7h3.2c.4 0 .7-.3.7-.7V444c0-.4-.3-.7-.7-.7" clip-path="url(#V)" fill="#E5E5E5"/><defs><circle id="W" cx="-127.5" cy="348.5" r="124.4"/></defs><clipPath id="X"><use xlink:href="#W" overflow="visible"/></clipPath><path d="M-96.4 443.3h-5.6c-.4 0-.7.3-.7.7v11.1c0 .4.3.7.7.7h5.6c.4 0 .7-.3.7-.7V444c0-.4-.4-.7-.7-.7" clip-path="url(#X)" fill="#E5E5E5"/><defs><circle id="Y" cx="-127.5" cy="348.5" r="124.4"/></defs><clipPath id="Z"><use xlink:href="#Y" overflow="visible"/></clipPath><path d="M-87.7 443.3h-5.6c-.4 0-.7.3-.7.7v11.1c0 .4.3.7.7.7h5.6c.4 0 .7-.3.7-.7V444c-.1-.4-.4-.7-.7-.7" clip-path="url(#Z)" fill="#E5E5E5"/><g><defs><circle id="aa" cx="-127.5" cy="348.5" r="124.4"/></defs><clipPath id="ab"><use xlink:href="#aa" overflow="visible"/></clipPath><path d="M-67 443.3h-5.6c-.4 0-.7.3-.7.7v11.1c0 .4.3.7.7.7h5.6c.4 0 .7-.3.7-.7V444c0-.4-.3-.7-.7-.7" clip-path="url(#ab)" fill="#E5E5E5"/></g><g><defs><circle id="ac" cx="-127.5" cy="348.5" r="124.4"/></defs><clipPath id="ad"><use xlink:href="#ac" overflow="visible"/></clipPath><path d="M-58.2 443.3h-5.6c-.4 0-.7.3-.7.7v11.1c0 .4.3.7.7.7h5.6c.4 0 .7-.3.7-.7V444c0-.4-.3-.7-.7-.7" clip-path="url(#ad)" fill="#E5E5E5"/></g><g><defs><circle id="ae" cx="-127.5" cy="348.5" r="124.4"/></defs><clipPath id="af"><use xlink:href="#ae" overflow="visible"/></clipPath><path d="M-34.2 443.3h-3.2c-.4 0-.7.3-.7.7v11.1c0 .4.3.7.7.7h3.2c.4 0 .7-.3.7-.7V444c0-.4-.4-.7-.7-.7" clip-path="url(#af)" fill="#E5E5E5"/></g><g><defs><circle id="ag" cx="-127.5" cy="348.5" r="124.4"/></defs><clipPath id="ah"><use xlink:href="#ag" overflow="visible"/></clipPath><path d="M-27.8 443.3H-31c-.4 0-.7.3-.7.7v11.1c0 .4.3.7.7.7h3.2c.4 0 .7-.3.7-.7V444c0-.4-.4-.7-.7-.7" clip-path="url(#ah)" fill="#E5E5E5"/></g><g><defs><circle id="ai" cx="-127.5" cy="348.5" r="124.4"/></defs><clipPath id="aj"><use xlink:href="#ai" overflow="visible"/></clipPath><path d="M-49 443.3h-5.6c-.4 0-.7.3-.7.7v11.1c0 .4.3.7.7.7h5.6c.4 0 .7-.3.7-.7V444c-.1-.4-.4-.7-.7-.7" clip-path="url(#aj)" fill="#E5E5E5"/></g><g><defs><circle id="ak" cx="-127.5" cy="348.5" r="124.4"/></defs><clipPath id="al"><use xlink:href="#ak" overflow="visible"/></clipPath><path d="M-40.4 443.3H-46c-.4 0-.7.3-.7.7v11.1c0 .4.3.7.7.7h5.6c.4 0 .7-.3.7-.7V444c0-.4-.3-.7-.7-.7" clip-path="url(#al)" fill="#E5E5E5"/></g><g><defs><circle id="am" cx="-127.5" cy="348.5" r="124.4"/></defs><clipPath id="an"><use xlink:href="#am" overflow="visible"/></clipPath><path d="M-19.6 443.3h-5.6c-.4 0-.7.3-.7.7v11.1c0 .4.3.7.7.7h5.6c.4 0 .7-.3.7-.7V444c0-.4-.3-.7-.7-.7" clip-path="url(#an)" fill="#E5E5E5"/></g><g><defs><circle id="ao" cx="-127.5" cy="348.5" r="124.4"/></defs><clipPath id="ap"><use xlink:href="#ao" overflow="visible"/></clipPath><path d="M-10.8 443.3h-5.6c-.4 0-.7.3-.7.7v11.1c0 .4.3.7.7.7h5.6c.4 0 .7-.3.7-.7V444c0-.4-.3-.7-.7-.7" clip-path="url(#ap)" fill="#E5E5E5"/></g><g><defs><circle id="aq" cx="-127.5" cy="348.5" r="124.4"/></defs><clipPath id="ar"><use xlink:href="#aq" overflow="visible"/></clipPath><path d="M-222.4 443.3h-3.2c-.4 0-.7.3-.7.7v11.1c0 .4.3.7.7.7h3.2c.4 0 .7-.3.7-.7V444c0-.4-.3-.7-.7-.7" clip-path="url(#ar)" fill="#E5E5E5"/></g><g><defs><circle id="as" cx="-127.5" cy="348.5" r="124.4"/></defs><clipPath id="at"><use xlink:href="#as" overflow="visible"/></clipPath><path d="M-216 443.3h-3.2c-.4 0-.7.3-.7.7v11.1c0 .4.3.7.7.7h3.2c.4 0 .7-.3.7-.7V444c0-.4-.3-.7-.7-.7" clip-path="url(#at)" fill="#E5E5E5"/></g><g><defs><circle id="au" cx="-127.5" cy="348.5" r="124.4"/></defs><clipPath id="av"><use xlink:href="#au" overflow="visible"/></clipPath><path d="M-237.2 443.3h-5.6c-.4 0-.7.3-.7.7v11.1c0 .4.3.7.7.7h5.6c.4 0 .7-.3.7-.7V444c0-.4-.3-.7-.7-.7" clip-path="url(#av)" fill="#E5E5E5"/></g><g><defs><circle id="aw" cx="-127.5" cy="348.5" r="124.4"/></defs><clipPath id="ax"><use xlink:href="#aw" overflow="visible"/></clipPath><path d="M-228.5 443.3h-5.6c-.4 0-.7.3-.7.7v11.1c0 .4.3.7.7.7h5.6c.4 0 .7-.3.7-.7V444c-.1-.4-.4-.7-.7-.7" clip-path="url(#ax)" fill="#E5E5E5"/></g><g><defs><circle id="ay" cx="-127.5" cy="348.5" r="124.4"/></defs><clipPath id="az"><use xlink:href="#ay" overflow="visible"/></clipPath><path d="M-207.7 443.3h-5.6c-.4 0-.7.3-.7.7v11.1c0 .4.3.7.7.7h5.6c.4 0 .7-.3.7-.7V444c-.1-.4-.4-.7-.7-.7" clip-path="url(#az)" fill="#E5E5E5"/></g><g><defs><circle id="aA" cx="-127.5" cy="348.5" r="124.4"/></defs><clipPath id="aB"><use xlink:href="#aA" overflow="visible"/></clipPath><path d="M-199 443.3h-5.6c-.4 0-.7.3-.7.7v11.1c0 .4.3.7.7.7h5.6c.4 0 .7-.3.7-.7V444c0-.4-.3-.7-.7-.7" clip-path="url(#aB)" fill="#E5E5E5"/></g><g><defs><circle id="aC" cx="-127.5" cy="348.5" r="124.4"/></defs><clipPath id="aD"><use xlink:href="#aC" overflow="visible"/></clipPath><path d="M-175 443.3h-3.2c-.4 0-.7.3-.7.7v11.1c0 .4.3.7.7.7h3.2c.4 0 .7-.3.7-.7V444c0-.4-.3-.7-.7-.7" clip-path="url(#aD)" fill="#E5E5E5"/></g><g><defs><circle id="aE" cx="-127.5" cy="348.5" r="124.4"/></defs><clipPath id="aF"><use xlink:href="#aE" overflow="visible"/></clipPath><path d="M-168.6 443.3h-3.2c-.4 0-.7.3-.7.7v11.1c0 .4.3.7.7.7h3.2c.4 0 .7-.3.7-.7V444c0-.4-.3-.7-.7-.7" clip-path="url(#aF)" fill="#E5E5E5"/></g><g><defs><circle id="aG" cx="-127.5" cy="348.5" r="124.4"/></defs><clipPath id="aH"><use xlink:href="#aG" overflow="visible"/></clipPath><path d="M-189.8 443.3h-5.6c-.4 0-.7.3-.7.7v11.1c0 .4.3.7.7.7h5.6c.4 0 .7-.3.7-.7V444c-.1-.4-.4-.7-.7-.7" clip-path="url(#aH)" fill="#E5E5E5"/></g><g><defs><circle id="aI" cx="-127.5" cy="348.5" r="124.4"/></defs><clipPath id="aJ"><use xlink:href="#aI" overflow="visible"/></clipPath><path d="M-181.2 443.3h-5.6c-.4 0-.7.3-.7.7v11.1c0 .4.3.7.7.7h5.6c.4 0 .7-.3.7-.7V444c0-.4-.3-.7-.7-.7" clip-path="url(#aJ)" fill="#E5E5E5"/></g><g><defs><circle id="aK" cx="-127.5" cy="348.5" r="124.4"/></defs><clipPath id="aL"><use xlink:href="#aK" overflow="visible"/></clipPath><path d="M-160.4 443.3h-5.6c-.4 0-.7.3-.7.7v11.1c0 .4.3.7.7.7h5.6c.4 0 .7-.3.7-.7V444c0-.4-.3-.7-.7-.7" clip-path="url(#aL)" fill="#E5E5E5"/></g><g><defs><circle id="aM" cx="-127.5" cy="348.5" r="124.4"/></defs><clipPath id="aN"><use xlink:href="#aM" overflow="visible"/></clipPath><path d="M-151.6 443.3h-5.6c-.4 0-.7.3-.7.7v11.1c0 .4.3.7.7.7h5.6c.4 0 .7-.3.7-.7V444c0-.4-.3-.7-.7-.7" clip-path="url(#aN)" fill="#E5E5E5"/></g><g><defs><circle id="aO" cx="-127.5" cy="348.5" r="124.4"/></defs><clipPath id="aP"><use xlink:href="#aO" overflow="visible"/></clipPath><path clip-path="url(#aP)" fill="#FCFCFC" d="M-322 264.2h178.7v4.1H-322"/></g><g><defs><circle id="aQ" cx="-127.5" cy="348.5" r="124.4"/></defs><clipPath id="aR"><use xlink:href="#aQ" overflow="visible"/></clipPath><path clip-path="url(#aR)" fill="#FCFCFC" d="M-110.4 264.2H20.3v4.1h-130.7"/></g><g><defs><circle id="aS" cx="-127.5" cy="348.5" r="124.4"/></defs><clipPath id="aT"><use xlink:href="#aS" overflow="visible"/></clipPath><path clip-path="url(#aT)" fill="#FCFCFC" d="M-110.4 235.4H39.8v4.1h-150.2"/></g><g><defs><circle id="aU" cx="-127.5" cy="348.5" r="124.4"/></defs><clipPath id="aV"><use xlink:href="#aU" overflow="visible"/></clipPath><path clip-path="url(#aV)" fill="#FCFCFC" d="M-295.2 235.4h151.9v4.1h-151.9"/></g><g><defs><circle id="aW" cx="-127.5" cy="348.5" r="124.4"/></defs><clipPath id="aX"><use xlink:href="#aW" overflow="visible"/></clipPath><path d="M-81.6 246.1h-3.2c-.4 0-.7.3-.7.7v11.1c0 .4.3.7.7.7h3.2c.4 0 .7-.3.7-.7v-11.1c0-.4-.3-.7-.7-.7" clip-path="url(#aX)" fill="#E5E5E5"/></g><g><defs><circle id="aY" cx="-127.5" cy="348.5" r="124.4"/></defs><clipPath id="aZ"><use xlink:href="#aY" overflow="visible"/></clipPath><path d="M-75.2 246.1h-3.2c-.4 0-.7.3-.7.7v11.1c0 .4.3.7.7.7h3.2c.4 0 .7-.3.7-.7v-11.1c0-.4-.3-.7-.7-.7" clip-path="url(#aZ)" fill="#E5E5E5"/></g><g><defs><circle id="ba" cx="-127.5" cy="348.5" r="124.4"/></defs><clipPath id="bb"><use xlink:href="#ba" overflow="visible"/></clipPath><path d="M-96.4 246.1h-5.6c-.4 0-.7.3-.7.7v11.1c0 .4.3.7.7.7h5.6c.4 0 .7-.3.7-.7v-11.1c0-.4-.4-.7-.7-.7" clip-path="url(#bb)" fill="#E5E5E5"/></g><g><defs><circle id="bc" cx="-127.5" cy="348.5" r="124.4"/></defs><clipPath id="bd"><use xlink:href="#bc" overflow="visible"/></clipPath><path d="M-87.7 246.1h-5.6c-.4 0-.7.3-.7.7v11.1c0 .4.3.7.7.7h5.6c.4 0 .7-.3.7-.7v-11.1c-.1-.4-.4-.7-.7-.7" clip-path="url(#bd)" fill="#E5E5E5"/></g><g><defs><circle id="be" cx="-127.5" cy="348.5" r="124.4"/></defs><clipPath id="bf"><use xlink:href="#be" overflow="visible"/></clipPath><path d="M-67 246.1h-5.6c-.4 0-.7.3-.7.7v11.1c0 .4.3.7.7.7h5.6c.4 0 .7-.3.7-.7v-11.1c0-.4-.3-.7-.7-.7" clip-path="url(#bf)" fill="#E5E5E5"/></g><g><defs><circle id="bg" cx="-127.5" cy="348.5" r="124.4"/></defs><clipPath id="bh"><use xlink:href="#bg" overflow="visible"/></clipPath><path d="M-58.2 246.1h-5.6c-.4 0-.7.3-.7.7v11.1c0 .4.3.7.7.7h5.6c.4 0 .7-.3.7-.7v-11.1c0-.4-.3-.7-.7-.7" clip-path="url(#bh)" fill="#E5E5E5"/></g><g><defs><circle id="bi" cx="-127.5" cy="348.5" r="124.4"/></defs><clipPath id="bj"><use xlink:href="#bi" overflow="visible"/></clipPath><path d="M-34.2 246.1h-3.2c-.4 0-.7.3-.7.7v11.1c0 .4.3.7.7.7h3.2c.4 0 .7-.3.7-.7v-11.1c0-.4-.4-.7-.7-.7" clip-path="url(#bj)" fill="#E5E5E5"/></g><g><defs><circle id="bk" cx="-127.5" cy="348.5" r="124.4"/></defs><clipPath id="bl"><use xlink:href="#bk" overflow="visible"/></clipPath><path d="M-27.8 246.1H-31c-.4 0-.7.3-.7.7v11.1c0 .4.3.7.7.7h3.2c.4 0 .7-.3.7-.7v-11.1c0-.4-.4-.7-.7-.7" clip-path="url(#bl)" fill="#E5E5E5"/></g><g><defs><circle id="bm" cx="-127.5" cy="348.5" r="124.4"/></defs><clipPath id="bn"><use xlink:href="#bm" overflow="visible"/></clipPath><path d="M-49 246.1h-5.6c-.4 0-.7.3-.7.7v11.1c0 .4.3.7.7.7h5.6c.4 0 .7-.3.7-.7v-11.1c-.1-.4-.4-.7-.7-.7" clip-path="url(#bn)" fill="#E5E5E5"/></g><g><defs><circle id="bo" cx="-127.5" cy="348.5" r="124.4"/></defs><clipPath id="bp"><use xlink:href="#bo" overflow="visible"/></clipPath><path d="M-40.4 246.1H-46c-.4 0-.7.3-.7.7v11.1c0 .4.3.7.7.7h5.6c.4 0 .7-.3.7-.7v-11.1c0-.4-.3-.7-.7-.7" clip-path="url(#bp)" fill="#E5E5E5"/></g><g><defs><circle id="bq" cx="-127.5" cy="348.5" r="124.4"/></defs><clipPath id="br"><use xlink:href="#bq" overflow="visible"/></clipPath><path d="M-19.6 246.1h-5.6c-.4 0-.7.3-.7.7v11.1c0 .4.3.7.7.7h5.6c.4 0 .7-.3.7-.7v-11.1c0-.4-.3-.7-.7-.7" clip-path="url(#br)" fill="#E5E5E5"/></g><g><defs><circle id="bs" cx="-127.5" cy="348.5" r="124.4"/></defs><clipPath id="bt"><use xlink:href="#bs" overflow="visible"/></clipPath><path d="M-10.8 246.1h-5.6c-.4 0-.7.3-.7.7v11.1c0 .4.3.7.7.7h5.6c.4 0 .7-.3.7-.7v-11.1c0-.4-.3-.7-.7-.7" clip-path="url(#bt)" fill="#E5E5E5"/></g><g><defs><circle id="bu" cx="-127.5" cy="348.5" r="124.4"/></defs><clipPath id="bv"><use xlink:href="#bu" overflow="visible"/></clipPath><path d="M-222.4 246.1h-3.2c-.4 0-.7.3-.7.7v11.1c0 .4.3.7.7.7h3.2c.4 0 .7-.3.7-.7v-11.1c0-.4-.3-.7-.7-.7" clip-path="url(#bv)" fill="#E5E5E5"/></g><g><defs><circle id="bw" cx="-127.5" cy="348.5" r="124.4"/></defs><clipPath id="bx"><use xlink:href="#bw" overflow="visible"/></clipPath><path d="M-216 246.1h-3.2c-.4 0-.7.3-.7.7v11.1c0 .4.3.7.7.7h3.2c.4 0 .7-.3.7-.7v-11.1c0-.4-.3-.7-.7-.7" clip-path="url(#bx)" fill="#E5E5E5"/></g><g><defs><circle id="by" cx="-127.5" cy="348.5" r="124.4"/></defs><clipPath id="bz"><use xlink:href="#by" overflow="visible"/></clipPath><path d="M-237.2 246.1h-5.6c-.4 0-.7.3-.7.7v11.1c0 .4.3.7.7.7h5.6c.4 0 .7-.3.7-.7v-11.1c0-.4-.3-.7-.7-.7" clip-path="url(#bz)" fill="#E5E5E5"/></g><g><defs><circle id="bA" cx="-127.5" cy="348.5" r="124.4"/></defs><clipPath id="bB"><use xlink:href="#bA" overflow="visible"/></clipPath><path d="M-228.5 246.1h-5.6c-.4 0-.7.3-.7.7v11.1c0 .4.3.7.7.7h5.6c.4 0 .7-.3.7-.7v-11.1c-.1-.4-.4-.7-.7-.7" clip-path="url(#bB)" fill="#E5E5E5"/></g><g><defs><circle id="bC" cx="-127.5" cy="348.5" r="124.4"/></defs><clipPath id="bD"><use xlink:href="#bC" overflow="visible"/></clipPath><path d="M-207.7 246.1h-5.6c-.4 0-.7.3-.7.7v11.1c0 .4.3.7.7.7h5.6c.4 0 .7-.3.7-.7v-11.1c-.1-.4-.4-.7-.7-.7" clip-path="url(#bD)" fill="#E5E5E5"/></g><g><defs><circle id="bE" cx="-127.5" cy="348.5" r="124.4"/></defs><clipPath id="bF"><use xlink:href="#bE" overflow="visible"/></clipPath><path d="M-199 246.1h-5.6c-.4 0-.7.3-.7.7v11.1c0 .4.3.7.7.7h5.6c.4 0 .7-.3.7-.7v-11.1c0-.4-.3-.7-.7-.7" clip-path="url(#bF)" fill="#E5E5E5"/></g><g><defs><circle id="bG" cx="-127.5" cy="348.5" r="124.4"/></defs><clipPath id="bH"><use xlink:href="#bG" overflow="visible"/></clipPath><path d="M-175 246.1h-3.2c-.4 0-.7.3-.7.7v11.1c0 .4.3.7.7.7h3.2c.4 0 .7-.3.7-.7v-11.1c0-.4-.3-.7-.7-.7" clip-path="url(#bH)" fill="#E5E5E5"/></g><g><defs><circle id="bI" cx="-127.5" cy="348.5" r="124.4"/></defs><clipPath id="bJ"><use xlink:href="#bI" overflow="visible"/></clipPath><path d="M-168.6 246.1h-3.2c-.4 0-.7.3-.7.7v11.1c0 .4.3.7.7.7h3.2c.4 0 .7-.3.7-.7v-11.1c0-.4-.3-.7-.7-.7" clip-path="url(#bJ)" fill="#E5E5E5"/></g><g><defs><circle id="bK" cx="-127.5" cy="348.5" r="124.4"/></defs><clipPath id="bL"><use xlink:href="#bK" overflow="visible"/></clipPath><path d="M-189.8 246.1h-5.6c-.4 0-.7.3-.7.7v11.1c0 .4.3.7.7.7h5.6c.4 0 .7-.3.7-.7v-11.1c-.1-.4-.4-.7-.7-.7" clip-path="url(#bL)" fill="#E5E5E5"/></g><g><defs><circle id="bM" cx="-127.5" cy="348.5" r="124.4"/></defs><clipPath id="bN"><use xlink:href="#bM" overflow="visible"/></clipPath><path d="M-181.2 246.1h-5.6c-.4 0-.7.3-.7.7v11.1c0 .4.3.7.7.7h5.6c.4 0 .7-.3.7-.7v-11.1c0-.4-.3-.7-.7-.7" clip-path="url(#bN)" fill="#E5E5E5"/></g><g><defs><circle id="bO" cx="-127.5" cy="348.5" r="124.4"/></defs><clipPath id="bP"><use xlink:href="#bO" overflow="visible"/></clipPath><path d="M-160.4 246.1h-5.6c-.4 0-.7.3-.7.7v11.1c0 .4.3.7.7.7h5.6c.4 0 .7-.3.7-.7v-11.1c0-.4-.3-.7-.7-.7" clip-path="url(#bP)" fill="#E5E5E5"/></g><g><defs><circle id="bQ" cx="-127.5" cy="348.5" r="124.4"/></defs><clipPath id="bR"><use xlink:href="#bQ" overflow="visible"/></clipPath><path d="M-151.6 246.1h-5.6c-.4 0-.7.3-.7.7v11.1c0 .4.3.7.7.7h5.6c.4 0 .7-.3.7-.7v-11.1c0-.4-.3-.7-.7-.7" clip-path="url(#bR)" fill="#E5E5E5"/></g><g><defs><circle id="bS" cx="-127.5" cy="348.5" r="124.4"/></defs><clipPath id="bT"><use xlink:href="#bS" overflow="visible"/></clipPath><path clip-path="url(#bT)" fill="#FCFCFC" d="M-149.9 326.3h45.6v45.6h-45.6z"/></g><g><defs><circle id="bU" cx="-127.5" cy="348.5" r="124.4"/></defs><clipPath id="bV"><use xlink:href="#bU" overflow="visible"/></clipPath><ellipse cx="-126.9" cy="349.7" rx="12.8" ry="13.1" clip-path="url(#bV)" fill="#F2F2F2"/></g><g><defs><circle id="bW" cx="-127.5" cy="348.5" r="124.4"/></defs><clipPath id="bX"><use xlink:href="#bW" overflow="visible"/></clipPath><path d="M-46.2 408.8c.2.1.4.3.6.4.4.3 1 .2 1.3-.2.3-.4.2-1-.2-1.3-.2-.1-.4-.3-.6-.4-.4-.3-1-.2-1.3.2-.3.4-.2 1 .2 1.3zm-5.3-5.9c.4.8 1 1.6 1.6 2.4.3.4.9.5 1.3.2s.5-.9.2-1.3c-.6-.7-1-1.4-1.4-2.1-.3-.5-.8-.6-1.3-.4-.4.2-.6.7-.4 1.2zm-2.6-7.2c.3.8.6 1.7.8 2.6.2.5.7.8 1.2.6.5-.2.8-.7.6-1.2-.3-.9-.5-1.7-.9-2.6-.2-.5-.7-.8-1.2-.6s-.7.7-.5 1.2zm-3.6-6.1c.6.7 1.2 1.3 1.6 2 .3.4.9.6 1.3.3s.6-.9.3-1.3c-.5-.8-1.1-1.5-1.8-2.3-.4-.4-1-.4-1.4 0-.4.3-.4.9 0 1.3zm-5.9-4.1c.7.3 1.5.7 2.3 1.3.4.3 1 .2 1.3-.3.3-.4.2-1-.3-1.3-.9-.6-1.7-1-2.5-1.4-.5-.2-1.1 0-1.3.5-.2.4.1 1 .5 1.2zm-6.9-1.4h.3c.8 0 1.6 0 2.4.1.5.1 1-.3 1.1-.8s-.3-1-.8-1.1c-.9-.1-1.8-.1-2.6-.1h-.3c-.5 0-1 .4-1 1-.1.5.4.9.9.9zm-7.7.1c.8.1 1.6.1 2.3.1h.5c.5 0 1-.4.9-1 0-.5-.4-1-1-.9h-.5c-.7 0-1.4 0-2.1-.1-.5-.1-1 .3-1.1.9s.5 1 1 1zm-7.4-2.6c.9.5 1.7 1 2.5 1.4.5.2 1.1 0 1.3-.5s0-1.1-.5-1.3c-.7-.3-1.5-.7-2.3-1.2-.5-.3-1-.1-1.3.3-.3.4-.2 1 .3 1.3zm-5.8-5.4c.5.8 1.1 1.5 1.9 2.2.4.4 1 .4 1.4 0s.4-1 0-1.4c-.6-.7-1.2-1.3-1.6-2-.3-.4-.9-.5-1.3-.2-.6.4-.7 1-.4 1.4zm-3.1-7.1c.3.9.6 1.7.9 2.6.2.5.7.8 1.2.6.5-.2.8-.7.6-1.2-.3-.8-.6-1.7-.9-2.6-.2-.5-.7-.8-1.2-.6-.5.1-.8.7-.6 1.2zm-3.1-6.5c.5.7 1 1.4 1.4 2.2.2.5.8.7 1.3.4.5-.2.7-.8.4-1.3-.4-.8-.9-1.6-1.6-2.5-.3-.4-.9-.5-1.3-.2-.4.4-.5 1-.2 1.4zm-5.4-4.6c.5.3.9.6 1.4.9.3.2.5.4.7.5.4.3 1 .2 1.3-.2.3-.4.2-1-.2-1.3-.3-.2-.5-.4-.8-.6-.5-.4-1.1-.7-1.6-1s-1-.1-1.3.4c-.1.4.1 1 .5 1.3zm-6.7-2.1c.8.1 1.7.2 2.6.4.5.1 1-.2 1.2-.7.1-.5-.2-1-.7-1.2-1-.2-1.9-.4-2.9-.4-.5 0-1 .4-1 .9-.1.5.3 1 .8 1zm-7.5.1h.5c.8 0 1.6 0 2.4-.1.5 0 .9-.5.9-1s-.5-.9-1-.9c-.8 0-1.5.1-2.3.1h-.4c-.5 0-1 .4-1 .9-.1.6.4 1 .9 1zm-7.7-1.8c.9.5 1.8.8 2.7 1.1.5.2 1-.1 1.2-.6s-.1-1-.6-1.2c-.8-.2-1.6-.6-2.4-1-.5-.2-1.1 0-1.3.4-.3.5-.1 1.1.4 1.3zm-6.3-4.8c.6.7 1.3 1.3 2.1 2 .4.3 1 .3 1.4-.1.3-.4.3-1-.1-1.4-.7-.6-1.3-1.2-1.9-1.8-.4-.4-1-.4-1.4-.1-.4.4-.4 1-.1 1.4zm-3.7-6.9c.3.9.6 1.8 1 2.7.2.5.8.7 1.3.5s.7-.8.5-1.3c-.4-.8-.7-1.6-.9-2.5-.2-.5-.7-.8-1.2-.6-.6.2-.9.7-.7 1.2zm-2.7-6.8c.5.8.8 1.5 1.1 2.3.2.5.8.7 1.3.5s.7-.8.5-1.3c-.3-.9-.8-1.7-1.3-2.6-.3-.5-.9-.6-1.3-.3s-.5.9-.3 1.4zm-4.9-5.1c.8.5 1.5 1.1 2.1 1.6.4.4 1 .3 1.4-.1s.3-1-.1-1.4c-.7-.6-1.4-1.2-2.2-1.8-.4-.3-1-.2-1.3.2-.4.6-.3 1.2.1 1.5z" clip-path="url(#bX)" fill="#FFB8C7"/></g><path d="M-286.1 255.5h317c.8 0 1.5-.7 1.5-1.5s-.7-1.5-1.5-1.5h-317c-.8 0-1.5.7-1.5 1.5s.7 1.5 1.5 1.5" fill="#4B5E7F"/><circle cx="-272.2" cy="246.4" r="2.9" fill="#4B5E7F"/><circle cx="-264.2" cy="246.4" r="2.9" fill="#4B5E7F"/><circle cx="-256.2" cy="246.4" r="2.9" fill="#4B5E7F"/><path d="M20.6 444.5v-1.4h-296.3c-2.6 0-4.9-1-6.6-2.7s-2.7-4-2.7-6.6V249.3c0-2.6 1-4.9 2.7-6.6 1.7-1.7 4-2.7 6.6-2.7H20.6c2.6 0 4.9 1 6.6 2.7s2.7 4 2.7 6.6v184.5c0 2.6-1 4.9-2.7 6.6s-4 2.7-6.6 2.7v2.8c6.7 0 12.2-5.5 12.2-12.2V249.3c0-6.7-5.5-12.2-12.2-12.2h-296.3c-6.7 0-12.2 5.5-12.2 12.2v184.5c0 6.7 5.5 12.2 12.2 12.2H20.6v-1.5z" fill="#4B5E7F"/><path d="M-154.7 349.9c0-15.6 12.7-28.3 28.3-28.3s28.3 12.7 28.3 28.3c0 15.6-12.7 28.3-28.3 28.3s-28.3-12.7-28.3-28.3zm46.6 0c0-10.1-8.2-18.3-18.3-18.3s-18.3 8.2-18.3 18.3c0 10.1 8.2 18.3 18.3 18.3 10.1-.1 18.3-8.3 18.3-18.3z" fill="#4B5E7F"/><path d="M-177.5 393.3c0-1.4.5-2.8 1.5-3.8l26.6-27.6c2.1-2.2 5.6-2.3 7.8-.1 2.2 2.1 2.2 5.6.1 7.8l-26.6 27.6c-2.1 2.2-5.6 2.3-7.8.1-1-1.1-1.6-2.5-1.6-4z" fill="#4B5E7F"/><circle cx="-90.9" cy="329.8" r="17.8" fill="#9ACFE2"/><circle cx="-60.7" cy="330.8" r="17.8" fill="#A1ABD0"/><path d="M-67.4 325.6l11 11c.6.6 1.5.6 2.1 0s.6-1.5 0-2.1l-11-11c-.6-.6-1.5-.6-2.1 0-.5.6-.5 1.5 0 2.1" fill="#FFF"/><path d="M-56 323.4l-11.4 11.4c-.6.6-.6 1.5 0 2.1s1.5.6 2.1 0l11.4-11.4c.6-.6.6-1.5 0-2.1s-1.6-.6-2.1 0M-99.2 331.8l4.9 4.9c.3.3.7.4 1.1.4s.8-.2 1.1-.4l10.3-10.3c.6-.6.6-1.5 0-2.1s-1.5-.6-2.1 0l-9.2 9.2-3.8-3.8c-.6-.6-1.5-.6-2.1 0-.7.6-.7 1.5-.2 2.1z" fill="#FFF"/></svg>
