<?xml version="1.0" encoding="utf-8"?>
<!-- Generator: Adobe Illustrator 19.0.0, SVG Export Plug-In . SVG Version: 6.00 Build 0)  -->
<svg version="1.1" id="Layer_1" xmlns="http://www.w3.org/2000/svg" xmlns:xlink="http://www.w3.org/1999/xlink" x="0px" y="0px"
	 width="367px" height="312px" viewBox="-311 185.3 367 312" style="enable-background:new -311 185.3 367 312;"
	 xml:space="preserve">
<style type="text/css">
	.st0{clip-path:url(#SVGID_2_);fill:#F2F2F2;}
	.st1{clip-path:url(#SVGID_2_);fill:#FCFCFC;}
	.st2{clip-path:url(#SVGID_2_);fill:#FFB8C7;}
	.st3{clip-path:url(#SVGID_2_);fill:#E5E5E5;}
	.st4{fill:#4B5E7F;}
	.st5{fill:#9ACFE2;}
	.st6{fill:#A1ABD0;}
	.st7{fill:#FFFFFF;}
</style>
<g>
	<g>
		<defs>
			<circle id="SVGID_1_" cx="-131.4" cy="342.3" r="124.4"/>
		</defs>
		<clipPath id="SVGID_2_">
			<use xlink:href="#SVGID_1_"  style="overflow:visible;"/>
		</clipPath>
		<polyline class="st0" points="5.7,531.4 -270.3,531.4 -270.3,193.1 5.7,193.1 5.7,531.4 		"/>
		<polyline class="st1" points="-111.4,360.8 -12.7,360.8 -12.7,356.7 -111.4,356.7 		"/>
		<polyline class="st1" points="-111.4,329.2 -12.7,329.2 -12.7,325.1 -111.4,325.1 		"/>
		<polyline class="st1" points="-250.5,356.7 -151.7,356.7 -151.7,360.8 -250.5,360.8 		"/>
		<polyline class="st1" points="-245.9,455.2 -147.2,455.2 -147.2,459.3 -245.9,459.3 		"/>
		<polyline class="st1" points="-114.3,455.2 -15.5,455.2 -15.5,459.3 -114.3,459.3 		"/>
		<polyline class="st1" points="-114.3,426.4 35.9,426.4 35.9,430.5 -114.3,430.5 		"/>
		<polyline class="st1" points="-299.1,426.4 -147.2,426.4 -147.2,430.5 -299.1,430.5 		"/>
		<polyline class="st1" points="-250.5,329.2 -151.7,329.2 -151.7,325.1 -250.5,325.1 		"/>
		<polyline class="st1" points="-112.4,325.4 -112.4,207.6 -116.5,207.6 -116.5,325.4 		"/>
		<polyline class="st1" points="-144,325.4 -144,207.6 -148.1,207.6 -148.1,325.4 		"/>
		<polyline class="st1" points="-112.4,486.8 -112.4,361.6 -116.5,361.6 -116.5,486.8 		"/>
		<polyline class="st1" points="-144,486.8 -144,361.6 -148.1,361.6 -148.1,486.8 		"/>
		<path class="st1" d="M-246.3,427.2c0.1-0.1,2.9-3.8,5.8-9.9c2.9-6.1,5.7-14.6,5.8-24.4c0-9-2.5-19.1-9.7-28.9l-4.6,3.4
			c6.4,8.8,8.6,17.5,8.6,25.5c0,8.6-2.6,16.4-5.2,22c-1.3,2.8-2.6,5-3.6,6.6c-0.5,0.8-0.9,1.3-1.2,1.7c-0.1,0.2-0.2,0.3-0.3,0.4
			l-0.1,0.1l0,0l0.2,0.1l-0.2-0.1l0,0l0.2,0.1l-0.2-0.1L-246.3,427.2L-246.3,427.2z"/>
		<path class="st1" d="M-10.1,425.1l-0.2,0.1L-10.1,425.1L-10.1,425.1l-0.2,0.1L-10.1,425.1c-0.1-0.1-2.7-3.5-5.3-9.1
			c-2.6-5.6-5.1-13.2-5.1-21.7c0-8,2.1-16.7,8.6-25.5l-4.6-3.4c-7.2,9.8-9.7,19.9-9.7,28.9c0,9.8,2.9,18.3,5.8,24.4
			c2.9,6.1,5.7,9.8,5.8,9.9L-10.1,425.1L-10.1,425.1z"/>
		<path class="st2" d="M-149.9,326c0.4,0.9,0.9,1.8,1.6,2.6c0.3,0.4,1,0.4,1.4,0.1c0.4-0.3,0.4-1,0.1-1.4c-0.5-0.6-0.9-1.3-1.2-2.1
			c-0.2-0.5-0.8-0.7-1.2-0.5C-149.8,324.9-150.1,325.5-149.9,326L-149.9,326z M-151.8,318.7c0.3,0.8,0.5,1.6,0.7,2.5
			c0.1,0.5,0.6,0.9,1.1,0.7c0.5-0.1,0.9-0.6,0.7-1.1c-0.2-0.9-0.4-1.9-0.7-2.8c-0.2-0.5-0.7-0.8-1.2-0.6
			C-151.7,317.6-152,318.2-151.8,318.7L-151.8,318.7z M-156.4,314.2c0.4,0.1,0.8,0.3,1.2,0.5c0.3,0.2,0.7,0.4,0.9,0.6
			c0.4,0.3,1,0.2,1.3-0.2c0.3-0.4,0.2-1-0.2-1.3c-0.4-0.3-0.7-0.5-1.2-0.7c-0.5-0.3-1-0.5-1.5-0.7c-0.5-0.2-1,0.1-1.2,0.6
			C-157.2,313.5-156.9,314-156.4,314.2L-156.4,314.2z M-163,315c0.8-0.3,1.7-0.7,2.5-0.9c0.5-0.1,0.8-0.7,0.7-1.2
			c-0.1-0.5-0.7-0.8-1.2-0.7c-0.9,0.3-1.8,0.6-2.7,1c-0.5,0.2-0.7,0.8-0.5,1.3C-164.1,315-163.5,315.2-163,315L-163,315z
			 M-170.8,316.7c0.5,0.1,0.9,0.1,1.4,0.1c0.6,0,1.1-0.1,1.7-0.2c0.5-0.1,0.9-0.6,0.8-1.1c-0.1-0.5-0.6-0.9-1.1-0.8
			c-0.4,0.1-0.9,0.1-1.3,0.1c-0.3,0-0.7,0-1.1-0.1c-0.5-0.1-1,0.3-1.1,0.8C-171.7,316.1-171.3,316.6-170.8,316.7z M-177.4,311.9
			c0.4,0.9,1,1.7,1.8,2.5c0.4,0.4,1,0.3,1.4,0c0.4-0.4,0.3-1,0-1.4c-0.6-0.6-1.1-1.2-1.4-1.9c-0.2-0.5-0.8-0.7-1.3-0.4
			C-177.4,310.8-177.6,311.4-177.4,311.9L-177.4,311.9z M-179.4,304.5c0.2,0.8,0.4,1.7,0.6,2.6c0.1,0.5,0.6,0.9,1.1,0.8
			c0.5-0.1,0.9-0.6,0.8-1.1c-0.2-0.9-0.4-1.8-0.6-2.8c-0.2-0.5-0.7-0.8-1.2-0.6C-179.3,303.4-179.5,303.9-179.4,304.5L-179.4,304.5z
			 M-183.6,299.5c0.2,0.1,0.4,0.2,0.6,0.3c0.6,0.3,1,0.6,1.4,1c0.4,0.4,1,0.3,1.4-0.1c0.4-0.4,0.3-1-0.1-1.4
			c-0.5-0.5-1.1-0.9-1.8-1.3c-0.3-0.1-0.5-0.3-0.7-0.4c-0.5-0.2-1.1,0-1.3,0.5C-184.3,298.8-184.1,299.3-183.6,299.5z M-190.2,299.9
			c0.8-0.3,1.7-0.6,2.5-0.8c0.5-0.1,0.9-0.6,0.8-1.1c-0.1-0.5-0.6-0.9-1.1-0.8c-1,0.2-1.9,0.5-2.8,0.9c-0.5,0.2-0.7,0.8-0.5,1.2
			C-191.2,299.9-190.7,300.1-190.2,299.9L-190.2,299.9z M-197.8,301.9c0.2,0,0.4,0,0.5,0c0.9,0,1.7-0.1,2.5-0.3
			c0.5-0.1,0.8-0.7,0.7-1.2c-0.1-0.5-0.7-0.8-1.2-0.7c-0.7,0.2-1.3,0.3-2,0.3c-0.1,0-0.3,0-0.4,0c-0.5,0-1,0.4-1,0.9
			C-198.7,301.5-198.3,301.9-197.8,301.9L-197.8,301.9z M-204.8,297.8c0.5,0.8,1.2,1.6,2.1,2.3c0.4,0.3,1,0.2,1.3-0.2
			c0.3-0.4,0.2-1-0.2-1.3c-0.7-0.5-1.2-1.1-1.6-1.8c-0.3-0.5-0.9-0.6-1.3-0.3C-204.9,296.7-205.1,297.3-204.8,297.8L-204.8,297.8z
			 M-207,290.3c0.2,0.8,0.4,1.7,0.6,2.6c0.1,0.5,0.6,0.9,1.1,0.7c0.5-0.1,0.9-0.6,0.7-1.1c-0.2-0.9-0.3-1.8-0.6-2.7
			c-0.1-0.5-0.7-0.8-1.2-0.7C-206.8,289.2-207.2,289.8-207,290.3L-207,290.3z M-210.8,285c0.8,0.4,1.4,0.9,1.9,1.5
			c0.4,0.4,1,0.4,1.4,0.1c0.4-0.4,0.4-1,0.1-1.4c-0.6-0.7-1.4-1.3-2.4-1.9c-0.5-0.2-1.1-0.1-1.3,0.4
			C-211.4,284.1-211.3,284.7-210.8,285L-210.8,285z"/>
		<path class="st1" d="M-193.5,401.4c-0.1,0-1.1-0.1-3-0.1c-4.3,0-12.7,0.5-23,3.7c-10.2,3.2-22.1,9.2-33.1,20.2l4,4
			c10.3-10.3,21.3-15.8,30.8-18.8c9.5-3,17.4-3.5,21.2-3.5c0.8,0,1.4,0,1.9,0c0.2,0,0.4,0,0.5,0l0.1,0l0,0l0.1-0.6l-0.1,0.6l0,0
			l0.1-0.6l-0.1,0.6L-193.5,401.4L-193.5,401.4z"/>
		<path class="st1" d="M-66.9,408.5l-0.1-0.6L-66.9,408.5L-66.9,408.5l-0.1-0.6L-66.9,408.5c0,0,0.9-0.1,2.4-0.1
			c3.8,0,11.7,0.4,21.2,3.5c9.5,3,20.6,8.6,30.8,18.8l4-4c-11-11-22.9-17-33.1-20.2c-10.2-3.2-18.7-3.7-23-3.7c-1.8,0-2.9,0.1-3,0.1
			L-66.9,408.5L-66.9,408.5z"/>
		<path class="st1" d="M-252.2,264.3l0.2-0.1L-252.2,264.3L-252.2,264.3l0.2-0.1L-252.2,264.3c0.1,0.1,2.7,3.5,5.3,9.1
			c2.6,5.6,5.1,13.2,5.1,21.7c0,8-2.1,16.7-8.6,25.5l4.6,3.4c7.2-9.8,9.7-19.9,9.7-28.9c0-9.8-2.9-18.3-5.8-24.4
			c-2.9-6.1-5.7-9.8-5.8-9.9L-252.2,264.3L-252.2,264.3z"/>
		<path class="st1" d="M-16,259.4c-0.1,0.1-2.9,3.8-5.8,9.9c-2.9,6.1-5.7,14.6-5.8,24.4c0,9,2.5,19.1,9.7,28.9l4.6-3.4
			c-6.4-8.8-8.6-17.5-8.6-25.5c0-8.6,2.6-16.4,5.2-22c1.3-2.8,2.6-5,3.6-6.6c0.5-0.8,0.9-1.3,1.2-1.7c0.1-0.2,0.2-0.3,0.3-0.4
			l0.1-0.1l0,0l-0.2-0.1l0.2,0.1l0,0l-0.2-0.1l0.2,0.1L-16,259.4L-16,259.4z"/>
		<path class="st1" d="M-195.3,280.8l0.1,0.6L-195.3,280.8L-195.3,280.8l0.1,0.6L-195.3,280.8c0,0-0.9,0.1-2.4,0.1
			c-3.8,0-11.7-0.4-21.2-3.5c-9.5-3-20.6-8.6-30.8-18.8l-4,4c11,11,22.9,17,33.1,20.2c10.2,3.2,18.7,3.7,23,3.7c1.8,0,2.9-0.1,3-0.1
			L-195.3,280.8L-195.3,280.8z"/>
		<path class="st1" d="M-68.8,285.2c0.1,0,1.1,0.1,3,0.1c4.3,0,12.7-0.5,23-3.7c10.2-3.2,22.1-9.2,33.1-20.2l-4-4
			c-10.3,10.3-21.3,15.8-30.8,18.8c-9.5,3-17.4,3.5-21.2,3.5c-0.8,0-1.4,0-1.9,0c-0.2,0-0.4,0-0.5,0l-0.1,0l0,0l0,0.6l0.1-0.6l0,0
			l0,0.6l0.1-0.6L-68.8,285.2L-68.8,285.2z"/>
		<path class="st3" d="M-85.5,437.1h-3.2c-0.4,0-0.7,0.3-0.7,0.7v11.1c0,0.4,0.3,0.7,0.7,0.7h3.2c0.4,0,0.7-0.3,0.7-0.7v-11.1
			C-84.8,437.4-85.1,437.1-85.5,437.1"/>
		<path class="st3" d="M-79.1,437.1h-3.2c-0.4,0-0.7,0.3-0.7,0.7v11.1c0,0.4,0.3,0.7,0.7,0.7h3.2c0.4,0,0.7-0.3,0.7-0.7v-11.1
			C-78.4,437.4-78.7,437.1-79.1,437.1"/>
		<path class="st3" d="M-100.3,437.1h-5.6c-0.4,0-0.7,0.3-0.7,0.7v11.1c0,0.4,0.3,0.7,0.7,0.7h5.6c0.4,0,0.7-0.3,0.7-0.7v-11.1
			C-99.6,437.4-100,437.1-100.3,437.1"/>
		<path class="st3" d="M-91.6,437.1h-5.6c-0.4,0-0.7,0.3-0.7,0.7v11.1c0,0.4,0.3,0.7,0.7,0.7h5.6c0.4,0,0.7-0.3,0.7-0.7v-11.1
			C-91,437.4-91.3,437.1-91.6,437.1"/>
		<path class="st3" d="M-70.9,437.1h-5.6c-0.4,0-0.7,0.3-0.7,0.7v11.1c0,0.4,0.3,0.7,0.7,0.7h5.6c0.4,0,0.7-0.3,0.7-0.7v-11.1
			C-70.2,437.4-70.5,437.1-70.9,437.1"/>
		<path class="st3" d="M-62.1,437.1h-5.6c-0.4,0-0.7,0.3-0.7,0.7v11.1c0,0.4,0.3,0.7,0.7,0.7h5.6c0.4,0,0.7-0.3,0.7-0.7v-11.1
			C-61.4,437.4-61.7,437.1-62.1,437.1"/>
		<path class="st3" d="M-38.1,437.1h-3.2c-0.4,0-0.7,0.3-0.7,0.7v11.1c0,0.4,0.3,0.7,0.7,0.7h3.2c0.4,0,0.7-0.3,0.7-0.7v-11.1
			C-37.4,437.4-37.8,437.1-38.1,437.1"/>
		<path class="st3" d="M-31.7,437.1h-3.2c-0.4,0-0.7,0.3-0.7,0.7v11.1c0,0.4,0.3,0.7,0.7,0.7h3.2c0.4,0,0.7-0.3,0.7-0.7v-11.1
			C-31,437.4-31.4,437.1-31.7,437.1"/>
		<path class="st3" d="M-52.9,437.1h-5.6c-0.4,0-0.7,0.3-0.7,0.7v11.1c0,0.4,0.3,0.7,0.7,0.7h5.6c0.4,0,0.7-0.3,0.7-0.7v-11.1
			C-52.3,437.4-52.6,437.1-52.9,437.1"/>
		<path class="st3" d="M-44.3,437.1h-5.6c-0.4,0-0.7,0.3-0.7,0.7v11.1c0,0.4,0.3,0.7,0.7,0.7h5.6c0.4,0,0.7-0.3,0.7-0.7v-11.1
			C-43.6,437.4-43.9,437.1-44.3,437.1"/>
		<path class="st3" d="M-23.5,437.1h-5.6c-0.4,0-0.7,0.3-0.7,0.7v11.1c0,0.4,0.3,0.7,0.7,0.7h5.6c0.4,0,0.7-0.3,0.7-0.7v-11.1
			C-22.8,437.4-23.1,437.1-23.5,437.1"/>
		<path class="st3" d="M-14.7,437.1h-5.6c-0.4,0-0.7,0.3-0.7,0.7v11.1c0,0.4,0.3,0.7,0.7,0.7h5.6c0.4,0,0.7-0.3,0.7-0.7v-11.1
			C-14,437.4-14.3,437.1-14.7,437.1"/>
		<path class="st3" d="M-226.3,437.1h-3.2c-0.4,0-0.7,0.3-0.7,0.7v11.1c0,0.4,0.3,0.7,0.7,0.7h3.2c0.4,0,0.7-0.3,0.7-0.7v-11.1
			C-225.6,437.4-225.9,437.1-226.3,437.1"/>
		<path class="st3" d="M-219.9,437.1h-3.2c-0.4,0-0.7,0.3-0.7,0.7v11.1c0,0.4,0.3,0.7,0.7,0.7h3.2c0.4,0,0.7-0.3,0.7-0.7v-11.1
			C-219.2,437.4-219.5,437.1-219.9,437.1"/>
		<path class="st3" d="M-241.1,437.1h-5.6c-0.4,0-0.7,0.3-0.7,0.7v11.1c0,0.4,0.3,0.7,0.7,0.7h5.6c0.4,0,0.7-0.3,0.7-0.7v-11.1
			C-240.4,437.4-240.7,437.1-241.1,437.1"/>
		<path class="st3" d="M-232.4,437.1h-5.6c-0.4,0-0.7,0.3-0.7,0.7v11.1c0,0.4,0.3,0.7,0.7,0.7h5.6c0.4,0,0.7-0.3,0.7-0.7v-11.1
			C-231.8,437.4-232.1,437.1-232.4,437.1"/>
		<path class="st3" d="M-211.6,437.1h-5.6c-0.4,0-0.7,0.3-0.7,0.7v11.1c0,0.4,0.3,0.7,0.7,0.7h5.6c0.4,0,0.7-0.3,0.7-0.7v-11.1
			C-211,437.4-211.3,437.1-211.6,437.1"/>
		<path class="st3" d="M-202.9,437.1h-5.6c-0.4,0-0.7,0.3-0.7,0.7v11.1c0,0.4,0.3,0.7,0.7,0.7h5.6c0.4,0,0.7-0.3,0.7-0.7v-11.1
			C-202.2,437.4-202.5,437.1-202.9,437.1"/>
		<path class="st3" d="M-178.9,437.1h-3.2c-0.4,0-0.7,0.3-0.7,0.7v11.1c0,0.4,0.3,0.7,0.7,0.7h3.2c0.4,0,0.7-0.3,0.7-0.7v-11.1
			C-178.2,437.4-178.5,437.1-178.9,437.1"/>
		<path class="st3" d="M-172.5,437.1h-3.2c-0.4,0-0.7,0.3-0.7,0.7v11.1c0,0.4,0.3,0.7,0.7,0.7h3.2c0.4,0,0.7-0.3,0.7-0.7v-11.1
			C-171.8,437.4-172.1,437.1-172.5,437.1"/>
		<path class="st3" d="M-193.7,437.1h-5.6c-0.4,0-0.7,0.3-0.7,0.7v11.1c0,0.4,0.3,0.7,0.7,0.7h5.6c0.4,0,0.7-0.3,0.7-0.7v-11.1
			C-193.1,437.4-193.4,437.1-193.7,437.1"/>
		<path class="st3" d="M-185.1,437.1h-5.6c-0.4,0-0.7,0.3-0.7,0.7v11.1c0,0.4,0.3,0.7,0.7,0.7h5.6c0.4,0,0.7-0.3,0.7-0.7v-11.1
			C-184.4,437.4-184.7,437.1-185.1,437.1"/>
		<path class="st3" d="M-164.3,437.1h-5.6c-0.4,0-0.7,0.3-0.7,0.7v11.1c0,0.4,0.3,0.7,0.7,0.7h5.6c0.4,0,0.7-0.3,0.7-0.7v-11.1
			C-163.6,437.4-163.9,437.1-164.3,437.1"/>
		<path class="st3" d="M-155.5,437.1h-5.6c-0.4,0-0.7,0.3-0.7,0.7v11.1c0,0.4,0.3,0.7,0.7,0.7h5.6c0.4,0,0.7-0.3,0.7-0.7v-11.1
			C-154.8,437.4-155.1,437.1-155.5,437.1"/>
		<polyline class="st1" points="-325.9,258 -147.2,258 -147.2,262.1 -325.9,262.1 		"/>
		<polyline class="st1" points="-114.3,258 16.4,258 16.4,262.1 -114.3,262.1 		"/>
		<polyline class="st1" points="-114.3,229.2 35.9,229.2 35.9,233.3 -114.3,233.3 		"/>
		<polyline class="st1" points="-299.1,229.2 -147.2,229.2 -147.2,233.3 -299.1,233.3 		"/>
		<path class="st3" d="M-85.5,239.9h-3.2c-0.4,0-0.7,0.3-0.7,0.7v11.1c0,0.4,0.3,0.7,0.7,0.7h3.2c0.4,0,0.7-0.3,0.7-0.7v-11.1
			C-84.8,240.2-85.1,239.9-85.5,239.9"/>
		<path class="st3" d="M-79.1,239.9h-3.2c-0.4,0-0.7,0.3-0.7,0.7v11.1c0,0.4,0.3,0.7,0.7,0.7h3.2c0.4,0,0.7-0.3,0.7-0.7v-11.1
			C-78.4,240.2-78.7,239.9-79.1,239.9"/>
		<path class="st3" d="M-100.3,239.9h-5.6c-0.4,0-0.7,0.3-0.7,0.7v11.1c0,0.4,0.3,0.7,0.7,0.7h5.6c0.4,0,0.7-0.3,0.7-0.7v-11.1
			C-99.6,240.2-100,239.9-100.3,239.9"/>
		<path class="st3" d="M-91.6,239.9h-5.6c-0.4,0-0.7,0.3-0.7,0.7v11.1c0,0.4,0.3,0.7,0.7,0.7h5.6c0.4,0,0.7-0.3,0.7-0.7v-11.1
			C-91,240.2-91.3,239.9-91.6,239.9"/>
		<path class="st3" d="M-70.9,239.9h-5.6c-0.4,0-0.7,0.3-0.7,0.7v11.1c0,0.4,0.3,0.7,0.7,0.7h5.6c0.4,0,0.7-0.3,0.7-0.7v-11.1
			C-70.2,240.2-70.5,239.9-70.9,239.9"/>
		<path class="st3" d="M-62.1,239.9h-5.6c-0.4,0-0.7,0.3-0.7,0.7v11.1c0,0.4,0.3,0.7,0.7,0.7h5.6c0.4,0,0.7-0.3,0.7-0.7v-11.1
			C-61.4,240.2-61.7,239.9-62.1,239.9"/>
		<path class="st3" d="M-38.1,239.9h-3.2c-0.4,0-0.7,0.3-0.7,0.7v11.1c0,0.4,0.3,0.7,0.7,0.7h3.2c0.4,0,0.7-0.3,0.7-0.7v-11.1
			C-37.4,240.2-37.8,239.9-38.1,239.9"/>
		<path class="st3" d="M-31.7,239.9h-3.2c-0.4,0-0.7,0.3-0.7,0.7v11.1c0,0.4,0.3,0.7,0.7,0.7h3.2c0.4,0,0.7-0.3,0.7-0.7v-11.1
			C-31,240.2-31.4,239.9-31.7,239.9"/>
		<path class="st3" d="M-52.9,239.9h-5.6c-0.4,0-0.7,0.3-0.7,0.7v11.1c0,0.4,0.3,0.7,0.7,0.7h5.6c0.4,0,0.7-0.3,0.7-0.7v-11.1
			C-52.3,240.2-52.6,239.9-52.9,239.9"/>
		<path class="st3" d="M-44.3,239.9h-5.6c-0.4,0-0.7,0.3-0.7,0.7v11.1c0,0.4,0.3,0.7,0.7,0.7h5.6c0.4,0,0.7-0.3,0.7-0.7v-11.1
			C-43.6,240.2-43.9,239.9-44.3,239.9"/>
		<path class="st3" d="M-23.5,239.9h-5.6c-0.4,0-0.7,0.3-0.7,0.7v11.1c0,0.4,0.3,0.7,0.7,0.7h5.6c0.4,0,0.7-0.3,0.7-0.7v-11.1
			C-22.8,240.2-23.1,239.9-23.5,239.9"/>
		<path class="st3" d="M-14.7,239.9h-5.6c-0.4,0-0.7,0.3-0.7,0.7v11.1c0,0.4,0.3,0.7,0.7,0.7h5.6c0.4,0,0.7-0.3,0.7-0.7v-11.1
			C-14,240.2-14.3,239.9-14.7,239.9"/>
		<path class="st3" d="M-226.3,239.9h-3.2c-0.4,0-0.7,0.3-0.7,0.7v11.1c0,0.4,0.3,0.7,0.7,0.7h3.2c0.4,0,0.7-0.3,0.7-0.7v-11.1
			C-225.6,240.2-225.9,239.9-226.3,239.9"/>
		<path class="st3" d="M-219.9,239.9h-3.2c-0.4,0-0.7,0.3-0.7,0.7v11.1c0,0.4,0.3,0.7,0.7,0.7h3.2c0.4,0,0.7-0.3,0.7-0.7v-11.1
			C-219.2,240.2-219.5,239.9-219.9,239.9"/>
		<path class="st3" d="M-241.1,239.9h-5.6c-0.4,0-0.7,0.3-0.7,0.7v11.1c0,0.4,0.3,0.7,0.7,0.7h5.6c0.4,0,0.7-0.3,0.7-0.7v-11.1
			C-240.4,240.2-240.7,239.9-241.1,239.9"/>
		<path class="st3" d="M-232.4,239.9h-5.6c-0.4,0-0.7,0.3-0.7,0.7v11.1c0,0.4,0.3,0.7,0.7,0.7h5.6c0.4,0,0.7-0.3,0.7-0.7v-11.1
			C-231.8,240.2-232.1,239.9-232.4,239.9"/>
		<path class="st3" d="M-211.6,239.9h-5.6c-0.4,0-0.7,0.3-0.7,0.7v11.1c0,0.4,0.3,0.7,0.7,0.7h5.6c0.4,0,0.7-0.3,0.7-0.7v-11.1
			C-211,240.2-211.3,239.9-211.6,239.9"/>
		<path class="st3" d="M-202.9,239.9h-5.6c-0.4,0-0.7,0.3-0.7,0.7v11.1c0,0.4,0.3,0.7,0.7,0.7h5.6c0.4,0,0.7-0.3,0.7-0.7v-11.1
			C-202.2,240.2-202.5,239.9-202.9,239.9"/>
		<path class="st3" d="M-178.9,239.9h-3.2c-0.4,0-0.7,0.3-0.7,0.7v11.1c0,0.4,0.3,0.7,0.7,0.7h3.2c0.4,0,0.7-0.3,0.7-0.7v-11.1
			C-178.2,240.2-178.5,239.9-178.9,239.9"/>
		<path class="st3" d="M-172.5,239.9h-3.2c-0.4,0-0.7,0.3-0.7,0.7v11.1c0,0.4,0.3,0.7,0.7,0.7h3.2c0.4,0,0.7-0.3,0.7-0.7v-11.1
			C-171.8,240.2-172.1,239.9-172.5,239.9"/>
		<path class="st3" d="M-193.7,239.9h-5.6c-0.4,0-0.7,0.3-0.7,0.7v11.1c0,0.4,0.3,0.7,0.7,0.7h5.6c0.4,0,0.7-0.3,0.7-0.7v-11.1
			C-193.1,240.2-193.4,239.9-193.7,239.9"/>
		<path class="st3" d="M-185.1,239.9h-5.6c-0.4,0-0.7,0.3-0.7,0.7v11.1c0,0.4,0.3,0.7,0.7,0.7h5.6c0.4,0,0.7-0.3,0.7-0.7v-11.1
			C-184.4,240.2-184.7,239.9-185.1,239.9"/>
		<path class="st3" d="M-164.3,239.9h-5.6c-0.4,0-0.7,0.3-0.7,0.7v11.1c0,0.4,0.3,0.7,0.7,0.7h5.6c0.4,0,0.7-0.3,0.7-0.7v-11.1
			C-163.6,240.2-163.9,239.9-164.3,239.9"/>
		<path class="st3" d="M-155.5,239.9h-5.6c-0.4,0-0.7,0.3-0.7,0.7v11.1c0,0.4,0.3,0.7,0.7,0.7h5.6c0.4,0,0.7-0.3,0.7-0.7v-11.1
			C-154.8,240.2-155.1,239.9-155.5,239.9"/>
		<rect x="-153.8" y="320.1" class="st1" width="45.6" height="45.6"/>
		<ellipse class="st0" cx="-130.8" cy="343.5" rx="12.8" ry="13.1"/>
		<path class="st2" d="M-50.1,402.6c0.2,0.1,0.4,0.3,0.6,0.4c0.4,0.3,1,0.2,1.3-0.2c0.3-0.4,0.2-1-0.2-1.3c-0.2-0.1-0.4-0.3-0.6-0.4
			c-0.4-0.3-1-0.2-1.3,0.2C-50.6,401.7-50.5,402.3-50.1,402.6z M-55.4,396.7c0.4,0.8,1,1.6,1.6,2.4c0.3,0.4,0.9,0.5,1.3,0.2
			c0.4-0.3,0.5-0.9,0.2-1.3c-0.6-0.7-1-1.4-1.4-2.1c-0.3-0.5-0.8-0.6-1.3-0.4C-55.4,395.7-55.6,396.2-55.4,396.7L-55.4,396.7z
			 M-58,389.5c0.3,0.8,0.6,1.7,0.8,2.6c0.2,0.5,0.7,0.8,1.2,0.6c0.5-0.2,0.8-0.7,0.6-1.2c-0.3-0.9-0.5-1.7-0.9-2.6
			c-0.2-0.5-0.7-0.8-1.2-0.6S-58.2,389-58,389.5L-58,389.5z M-61.6,383.4c0.6,0.7,1.2,1.3,1.6,2c0.3,0.4,0.9,0.6,1.3,0.3
			s0.6-0.9,0.3-1.3c-0.5-0.8-1.1-1.5-1.8-2.3c-0.4-0.4-1-0.4-1.4,0C-62,382.4-62,383-61.6,383.4L-61.6,383.4z M-67.5,379.3
			c0.7,0.3,1.5,0.7,2.3,1.3c0.4,0.3,1,0.2,1.3-0.3c0.3-0.4,0.2-1-0.3-1.3c-0.9-0.6-1.7-1-2.5-1.4c-0.5-0.2-1.1,0-1.3,0.5
			C-68.2,378.5-67.9,379.1-67.5,379.3L-67.5,379.3z M-74.4,377.9l0.3,0c0.8,0,1.6,0,2.4,0.1c0.5,0.1,1-0.3,1.1-0.8
			c0.1-0.5-0.3-1-0.8-1.1c-0.9-0.1-1.8-0.1-2.6-0.1c-0.1,0-0.2,0-0.3,0c-0.5,0-1,0.4-1,1C-75.4,377.5-74.9,377.9-74.4,377.9z
			 M-82.1,378c0.8,0.1,1.6,0.1,2.3,0.1c0.2,0,0.4,0,0.5,0c0.5,0,1-0.4,0.9-1c0-0.5-0.4-1-1-0.9c-0.2,0-0.3,0-0.5,0
			c-0.7,0-1.4,0-2.1-0.1c-0.5-0.1-1,0.3-1.1,0.9S-82.6,378-82.1,378L-82.1,378z M-89.5,375.4c0.9,0.5,1.7,1,2.5,1.4
			c0.5,0.2,1.1,0,1.3-0.5s0-1.1-0.5-1.3c-0.7-0.3-1.5-0.7-2.3-1.2c-0.5-0.3-1-0.1-1.3,0.3C-90.1,374.5-90,375.1-89.5,375.4
			L-89.5,375.4z M-95.3,370c0.5,0.8,1.1,1.5,1.9,2.2c0.4,0.4,1,0.4,1.4,0c0.4-0.4,0.4-1,0-1.4c-0.6-0.7-1.2-1.3-1.6-2
			c-0.3-0.4-0.9-0.5-1.3-0.2C-95.5,369-95.6,369.6-95.3,370L-95.3,370z M-98.4,362.9c0.3,0.9,0.6,1.7,0.9,2.6
			c0.2,0.5,0.7,0.8,1.2,0.6c0.5-0.2,0.8-0.7,0.6-1.2c-0.3-0.8-0.6-1.7-0.9-2.6c-0.2-0.5-0.7-0.8-1.2-0.6
			C-98.3,361.8-98.6,362.4-98.4,362.9L-98.4,362.9z M-101.5,356.4c0.5,0.7,1,1.4,1.4,2.2c0.2,0.5,0.8,0.7,1.3,0.4
			c0.5-0.2,0.7-0.8,0.4-1.3c-0.4-0.8-0.9-1.6-1.6-2.5c-0.3-0.4-0.9-0.5-1.3-0.2C-101.7,355.4-101.8,356-101.5,356.4L-101.5,356.4z
			 M-106.9,351.8c0.5,0.3,0.9,0.6,1.4,0.9c0.3,0.2,0.5,0.4,0.7,0.5c0.4,0.3,1,0.2,1.3-0.2c0.3-0.4,0.2-1-0.2-1.3
			c-0.3-0.2-0.5-0.4-0.8-0.6c-0.5-0.4-1.1-0.7-1.6-1c-0.5-0.3-1-0.1-1.3,0.4C-107.5,350.9-107.3,351.5-106.9,351.8L-106.9,351.8z
			 M-113.6,349.7c0.8,0.1,1.7,0.2,2.6,0.4c0.5,0.1,1-0.2,1.2-0.7c0.1-0.5-0.2-1-0.7-1.2c-1-0.2-1.9-0.4-2.9-0.4c-0.5,0-1,0.4-1,0.9
			C-114.5,349.2-114.1,349.7-113.6,349.7L-113.6,349.7z M-121.1,349.8c0.2,0,0.3,0,0.5,0c0.8,0,1.6,0,2.4-0.1c0.5,0,0.9-0.5,0.9-1
			c0-0.5-0.5-0.9-1-0.9c-0.8,0-1.5,0.1-2.3,0.1c-0.1,0-0.3,0-0.4,0c-0.5,0-1,0.4-1,0.9C-122.1,349.4-121.6,349.8-121.1,349.8z
			 M-128.8,348c0.9,0.5,1.8,0.8,2.7,1.1c0.5,0.2,1-0.1,1.2-0.6c0.2-0.5-0.1-1-0.6-1.2c-0.8-0.2-1.6-0.6-2.4-1
			c-0.5-0.2-1.1,0-1.3,0.4C-129.5,347.2-129.3,347.8-128.8,348L-128.8,348z M-135.1,343.2c0.6,0.7,1.3,1.3,2.1,2
			c0.4,0.3,1,0.3,1.4-0.1c0.3-0.4,0.3-1-0.1-1.4c-0.7-0.6-1.3-1.2-1.9-1.8c-0.4-0.4-1-0.4-1.4-0.1
			C-135.4,342.2-135.4,342.8-135.1,343.2L-135.1,343.2z M-138.8,336.3c0.3,0.9,0.6,1.8,1,2.7c0.2,0.5,0.8,0.7,1.3,0.5
			c0.5-0.2,0.7-0.8,0.5-1.3c-0.4-0.8-0.7-1.6-0.9-2.5c-0.2-0.5-0.7-0.8-1.2-0.6C-138.7,335.3-139,335.8-138.8,336.3L-138.8,336.3z
			 M-141.5,329.5c0.5,0.8,0.8,1.5,1.1,2.3c0.2,0.5,0.8,0.7,1.3,0.5c0.5-0.2,0.7-0.8,0.5-1.3c-0.3-0.9-0.8-1.7-1.3-2.6
			c-0.3-0.5-0.9-0.6-1.3-0.3C-141.6,328.4-141.7,329-141.5,329.5L-141.5,329.5z M-146.4,324.4c0.8,0.5,1.5,1.1,2.1,1.6
			c0.4,0.4,1,0.3,1.4-0.1c0.4-0.4,0.3-1-0.1-1.4c-0.7-0.6-1.4-1.2-2.2-1.8c-0.4-0.3-1-0.2-1.3,0.2
			C-146.9,323.5-146.8,324.1-146.4,324.4L-146.4,324.4z"/>
	</g>
	<path class="st4" d="M-290,249.3H27c0.8,0,1.5-0.7,1.5-1.5c0-0.8-0.7-1.5-1.5-1.5h-317c-0.8,0-1.5,0.7-1.5,1.5
		C-291.5,248.6-290.8,249.3-290,249.3"/>
	<circle class="st4" cx="-276.1" cy="240.2" r="2.9"/>
	<circle class="st4" cx="-268.1" cy="240.2" r="2.9"/>
	<circle class="st4" cx="-260.1" cy="240.2" r="2.9"/>
	<path class="st4" d="M16.7,438.3v-1.4h-296.3c-2.6,0-4.9-1-6.6-2.7c-1.7-1.7-2.7-4-2.7-6.6V243.1c0-2.6,1-4.9,2.7-6.6
		c1.7-1.7,4-2.7,6.6-2.7H16.7c2.6,0,4.9,1,6.6,2.7c1.7,1.7,2.7,4,2.7,6.6v184.5c0,2.6-1,4.9-2.7,6.6c-1.7,1.7-4,2.7-6.6,2.7V438.3
		v1.4c6.7,0,12.2-5.5,12.2-12.2V243.1c0-6.7-5.5-12.2-12.2-12.2h-296.3c-6.7,0-12.2,5.5-12.2,12.2v184.5c0,6.7,5.5,12.2,12.2,12.2
		H16.7L16.7,438.3z"/>
	<path class="st4" d="M-158.6,343.7c0-15.6,12.7-28.3,28.3-28.3s28.3,12.7,28.3,28.3c0,15.6-12.7,28.3-28.3,28.3
		S-158.6,359.3-158.6,343.7z M-112,343.7c0-10.1-8.2-18.3-18.3-18.3c-10.1,0-18.3,8.2-18.3,18.3c0,10.1,8.2,18.3,18.3,18.3
		C-120.2,361.9-112,353.7-112,343.7z"/>
	<path class="st4" d="M-181.4,387.1c0-1.4,0.5-2.8,1.5-3.8l26.6-27.6c2.1-2.2,5.6-2.3,7.8-0.1c2.2,2.1,2.2,5.6,0.1,7.8l-26.6,27.6
		c-2.1,2.2-5.6,2.3-7.8,0.1C-180.8,390-181.4,388.6-181.4,387.1z"/>
	<circle class="st5" cx="-94.8" cy="323.6" r="17.8"/>
	<circle class="st6" cx="-64.6" cy="324.6" r="17.8"/>
	<path class="st7" d="M-71.3,319.4l11,11c0.6,0.6,1.5,0.6,2.1,0c0.6-0.6,0.6-1.5,0-2.1l-11-11c-0.6-0.6-1.5-0.6-2.1,0
		C-71.8,317.9-71.8,318.8-71.3,319.4"/>
	<path class="st7" d="M-59.9,317.2l-11.4,11.4c-0.6,0.6-0.6,1.5,0,2.1s1.5,0.6,2.1,0l11.4-11.4c0.6-0.6,0.6-1.5,0-2.1
		C-58.4,316.6-59.4,316.6-59.9,317.2"/>
	<path class="st7" d="M-103.1,325.6l4.9,4.9c0.3,0.3,0.7,0.4,1.1,0.4c0.4,0,0.8-0.2,1.1-0.4l10.3-10.3c0.6-0.6,0.6-1.5,0-2.1
		c-0.6-0.6-1.5-0.6-2.1,0l-9.2,9.2l-3.8-3.8c-0.6-0.6-1.5-0.6-2.1,0C-103.6,324.1-103.6,325-103.1,325.6L-103.1,325.6z"/>
</g>
</svg>
